M48
; DRILL file {KiCad (5.1.10)-1} date 06/07/22 20:29:40
; FORMAT={-:-/ absolute / metric / decimal}
; #@! TF.CreationDate,2022-06-07T20:29:40-07:00
; #@! TF.GenerationSoftware,Kicad,Pcbnew,(5.1.10)-1
; #@! TF.FileFunction,Plated,1,2,PTH
FMAT,2
METRIC
T1C0.400
T2C2.000
T3C2.950
%
G90
G05
T1
X105.25Y-113.25
X106.925Y-119.325
X116.891Y-107.75
X118.352Y-106.983
X120.0Y-106.25
X125.59Y-101.459
X136.893Y-94.219
X139.751Y-95.68
X142.25Y-91.5
X143.75Y-124.0
X144.5Y-97.75
X146.75Y-114.25
T2
X107.5Y-80.5
X110.75Y-56.5
X110.75Y-65.5
X112.75Y-116.25
X116.5Y-80.5
X121.75Y-116.25
X161.25Y-116.25
X166.5Y-80.5
X170.25Y-116.25
X172.25Y-56.5
X172.25Y-65.5
X175.5Y-80.5
T3
X103.5Y-54.23
X103.5Y-143.23
X179.5Y-54.23
X179.5Y-143.23
T0
M30
