M48
; DRILL file {KiCad (6.0.11)} date Wed Mar 22 16:16:08 2023
; FORMAT={-:-/ absolute / inch / decimal}
; #@! TF.CreationDate,2023-03-22T16:16:08-07:00
; #@! TF.GenerationSoftware,Kicad,Pcbnew,(6.0.11)
; #@! TF.FileFunction,Plated,1,4,PTH
FMAT,2
INCH
; #@! TA.AperFunction,Plated,PTH,ViaDrill
T1C0.0157
; #@! TA.AperFunction,Plated,PTH,ComponentDrill
T2C0.0433
; #@! TA.AperFunction,Plated,PTH,ComponentDrill
T3C0.0598
; #@! TA.AperFunction,Plated,PTH,ComponentDrill
T4C0.1161
%
G90
G05
T1
X4.2185Y-4.4327
X5.2732Y-3.8197
X5.3437Y-4.0154
X5.4295Y-3.4087
X5.4652Y-4.014
X5.578Y-3.4705
X5.5843Y-3.5528
X5.7201Y-4.022
X5.7217Y-2.75
X5.7652Y-2.9951
X5.8685Y-3.7882
X5.9083Y-3.9524
X5.9128Y-2.9951
X5.9189Y-4.0504
X5.937Y-2.865
X5.937Y-4.7862
X5.939Y-4.3028
X5.9425Y-3.9748
X5.9807Y-4.7882
X6.0335Y-2.6972
X6.0728Y-3.9346
X6.0744Y-3.0878
X6.1802Y-2.9015
X6.2965Y-2.8327
X6.4354Y-2.661
X6.5461Y-2.7728
X6.6748Y-3.6063
X6.6772Y-2.9287
T2
X5.939Y-3.2461
X5.939Y-3.3839
T3
X5.748Y-3.2138
X5.748Y-3.4138
T4
X4.3504Y-3.3465
X5.5807Y-4.8819
X6.1909Y-1.811
X7.4213Y-3.3465
T0
M30
