M48
; DRILL file {KiCad (5.1.10)-1} date 06/07/22 20:10:58
; FORMAT={-:-/ absolute / metric / decimal}
; #@! TF.CreationDate,2022-06-07T20:10:58-07:00
; #@! TF.GenerationSoftware,Kicad,Pcbnew,(5.1.10)-1
; #@! TF.FileFunction,Plated,1,4,PTH
FMAT,2
METRIC
T1C0.400
T2C2.000
T3C2.950
%
G90
G05
T1
X109.75Y-122.75
X124.0Y-115.75
X124.587Y-120.968
X125.565Y-121.895
X126.5Y-122.865
X129.476Y-122.682
X138.876Y-108.075
X140.335Y-109.045
X145.5Y-102.0
X146.113Y-110.998
X162.177Y-108.075
X162.877Y-110.998
X163.131Y-109.029
X164.465Y-110.109
X165.25Y-123.25
X178.5Y-122.0
X178.5Y-123.5
T2
X117.0Y-70.75
X117.0Y-158.75
X126.0Y-70.75
X126.0Y-158.75
X140.0Y-158.75
X140.25Y-70.75
X149.0Y-158.75
X149.25Y-70.75
X163.0Y-158.75
X163.25Y-70.75
X172.0Y-158.75
X172.25Y-70.75
T3
X106.5Y-70.3
X106.5Y-159.3
X182.5Y-70.3
X182.5Y-159.3
T0
M30
