M48
; DRILL file {KiCad (6.0.7)} date Tue Jan 31 02:47:43 2023
; FORMAT={-:-/ absolute / inch / decimal}
; #@! TF.CreationDate,2023-01-31T02:47:43-08:00
; #@! TF.GenerationSoftware,Kicad,Pcbnew,(6.0.7)
; #@! TF.FileFunction,Plated,1,4,PTH
FMAT,2
INCH
; #@! TA.AperFunction,Plated,PTH,ViaDrill
T1C0.0157
; #@! TA.AperFunction,Plated,PTH,ComponentDrill
T2C0.1161
%
G90
G05
T1
X4.3071Y-5.1193
X4.3567Y-4.9114
X4.7685Y-6.1504
X4.8925Y-4.6457
X4.9807Y-4.9646
X5.0394Y-4.9606
X5.0984Y-4.7498
X5.4321Y-4.4459
X5.687Y-6.1516
X5.7886Y-4.6657
X5.8927Y-4.4134
X5.9051Y-4.5665
X5.9268Y-4.4768
X5.9602Y-4.6236
X5.9657Y-4.7094
X6.1756Y-4.4752
X6.2783Y-4.572
X6.3217Y-4.3291
X6.3287Y-4.5079
X6.3709Y-4.4626
X6.3736Y-4.5406
X6.3882Y-4.3925
X6.4882Y-5.0075
X6.6142Y-6.1571
X7.0126Y-4.7882
X7.0157Y-4.874
T2
X4.1929Y-2.7677
X4.1929Y-6.2717
X7.185Y-2.7677
X7.185Y-6.2717
T0
M30
