%FSLAX45Y45*%
G04 Gerber Fmt 4.5, Leading zero omitted, Abs format (unit mm)*
G04 Created by KiCad (PCBNEW (5.1.10)-1) date 2022-03-31 21:21:08*
%MOMM*%
%LPD*%
G01*
G04 APERTURE LIST*
%TA.AperFunction,Profile*%
%ADD10C,0.150000*%
%TD*%
%TA.AperFunction,Profile*%
%ADD11C,0.050000*%
%TD*%
%ADD12C,0.200000*%
%ADD13C,0.300000*%
G04 APERTURE END LIST*
D10*
X9650000Y-13900000D02*
G75*
G03*
X9650000Y-13900000I-150000J0D01*
G01*
X16950000Y-13900000D02*
G75*
G03*
X16950000Y-13900000I-150000J0D01*
G01*
X16950000Y-5900000D02*
G75*
G03*
X16950000Y-5900000I-150000J0D01*
G01*
X9650000Y-5900000D02*
G75*
G03*
X9650000Y-5900000I-150000J0D01*
G01*
D11*
X9000000Y-14700000D02*
X17300000Y-14700000D01*
X9000000Y-5100000D02*
X9000000Y-14700000D01*
X17300000Y-5100000D02*
X9000000Y-5100000D01*
X17300000Y-5100000D02*
X17300000Y-14700000D01*
D12*
X13255000Y-14205000D02*
X13295000Y-14245000D01*
X13295000Y-14205000D02*
X13255000Y-14245000D01*
X12300000Y-11213000D02*
G75*
G03*
X12300000Y-11213000I-50000J0D01*
G01*
X12300000Y-11467000D02*
G75*
G03*
X12300000Y-11467000I-50000J0D01*
G01*
X12300000Y-11721000D02*
G75*
G03*
X12300000Y-11721000I-50000J0D01*
G01*
X12300000Y-11975000D02*
G75*
G03*
X12300000Y-11975000I-50000J0D01*
G01*
X10725000Y-7550000D02*
X10725000Y-7750000D01*
X10625000Y-7650000D02*
X10825000Y-7650000D01*
X10725000Y-11450000D02*
X10725000Y-11650000D01*
X10625000Y-11550000D02*
X10825000Y-11550000D01*
D13*
X9283928Y-15168214D02*
X9283928Y-14868214D01*
X9355357Y-14868214D01*
X9398214Y-14882500D01*
X9426786Y-14911071D01*
X9441071Y-14939643D01*
X9455357Y-14996786D01*
X9455357Y-15039643D01*
X9441071Y-15096786D01*
X9426786Y-15125357D01*
X9398214Y-15153929D01*
X9355357Y-15168214D01*
X9283928Y-15168214D01*
X9583928Y-15168214D02*
X9583928Y-14968214D01*
X9583928Y-15025357D02*
X9598214Y-14996786D01*
X9612500Y-14982500D01*
X9641071Y-14968214D01*
X9669643Y-14968214D01*
X9769643Y-15168214D02*
X9769643Y-14968214D01*
X9769643Y-14868214D02*
X9755357Y-14882500D01*
X9769643Y-14896786D01*
X9783928Y-14882500D01*
X9769643Y-14868214D01*
X9769643Y-14896786D01*
X9955357Y-15168214D02*
X9926786Y-15153929D01*
X9912500Y-15125357D01*
X9912500Y-14868214D01*
X10112500Y-15168214D02*
X10083928Y-15153929D01*
X10069643Y-15125357D01*
X10069643Y-14868214D01*
X10455357Y-15168214D02*
X10455357Y-14868214D01*
X10555357Y-15082500D01*
X10655357Y-14868214D01*
X10655357Y-15168214D01*
X10926786Y-15168214D02*
X10926786Y-15011071D01*
X10912500Y-14982500D01*
X10883928Y-14968214D01*
X10826786Y-14968214D01*
X10798214Y-14982500D01*
X10926786Y-15153929D02*
X10898214Y-15168214D01*
X10826786Y-15168214D01*
X10798214Y-15153929D01*
X10783928Y-15125357D01*
X10783928Y-15096786D01*
X10798214Y-15068214D01*
X10826786Y-15053929D01*
X10898214Y-15053929D01*
X10926786Y-15039643D01*
X11069643Y-14968214D02*
X11069643Y-15268214D01*
X11069643Y-14982500D02*
X11098214Y-14968214D01*
X11155357Y-14968214D01*
X11183928Y-14982500D01*
X11198214Y-14996786D01*
X11212500Y-15025357D01*
X11212500Y-15111071D01*
X11198214Y-15139643D01*
X11183928Y-15153929D01*
X11155357Y-15168214D01*
X11098214Y-15168214D01*
X11069643Y-15153929D01*
X11341071Y-15139643D02*
X11355357Y-15153929D01*
X11341071Y-15168214D01*
X11326786Y-15153929D01*
X11341071Y-15139643D01*
X11341071Y-15168214D01*
X11341071Y-14982500D02*
X11355357Y-14996786D01*
X11341071Y-15011071D01*
X11326786Y-14996786D01*
X11341071Y-14982500D01*
X11341071Y-15011071D01*
X8957500Y-15642500D02*
X8997500Y-15682500D01*
X8997500Y-15642500D02*
X8957500Y-15682500D01*
X9341071Y-15498214D02*
X9369643Y-15498214D01*
X9398214Y-15512500D01*
X9412500Y-15526786D01*
X9426786Y-15555357D01*
X9441071Y-15612500D01*
X9441071Y-15683929D01*
X9426786Y-15741071D01*
X9412500Y-15769643D01*
X9398214Y-15783929D01*
X9369643Y-15798214D01*
X9341071Y-15798214D01*
X9312500Y-15783929D01*
X9298214Y-15769643D01*
X9283928Y-15741071D01*
X9269643Y-15683929D01*
X9269643Y-15612500D01*
X9283928Y-15555357D01*
X9298214Y-15526786D01*
X9312500Y-15512500D01*
X9341071Y-15498214D01*
X9569643Y-15769643D02*
X9583928Y-15783929D01*
X9569643Y-15798214D01*
X9555357Y-15783929D01*
X9569643Y-15769643D01*
X9569643Y-15798214D01*
X9841071Y-15598214D02*
X9841071Y-15798214D01*
X9769643Y-15483929D02*
X9698214Y-15698214D01*
X9883928Y-15698214D01*
X10055357Y-15498214D02*
X10083928Y-15498214D01*
X10112500Y-15512500D01*
X10126786Y-15526786D01*
X10141071Y-15555357D01*
X10155357Y-15612500D01*
X10155357Y-15683929D01*
X10141071Y-15741071D01*
X10126786Y-15769643D01*
X10112500Y-15783929D01*
X10083928Y-15798214D01*
X10055357Y-15798214D01*
X10026786Y-15783929D01*
X10012500Y-15769643D01*
X9998214Y-15741071D01*
X9983928Y-15683929D01*
X9983928Y-15612500D01*
X9998214Y-15555357D01*
X10012500Y-15526786D01*
X10026786Y-15512500D01*
X10055357Y-15498214D01*
X10341071Y-15498214D02*
X10369643Y-15498214D01*
X10398214Y-15512500D01*
X10412500Y-15526786D01*
X10426786Y-15555357D01*
X10441071Y-15612500D01*
X10441071Y-15683929D01*
X10426786Y-15741071D01*
X10412500Y-15769643D01*
X10398214Y-15783929D01*
X10369643Y-15798214D01*
X10341071Y-15798214D01*
X10312500Y-15783929D01*
X10298214Y-15769643D01*
X10283928Y-15741071D01*
X10269643Y-15683929D01*
X10269643Y-15612500D01*
X10283928Y-15555357D01*
X10298214Y-15526786D01*
X10312500Y-15512500D01*
X10341071Y-15498214D01*
X10569643Y-15798214D02*
X10569643Y-15598214D01*
X10569643Y-15626786D02*
X10583928Y-15612500D01*
X10612500Y-15598214D01*
X10655357Y-15598214D01*
X10683928Y-15612500D01*
X10698214Y-15641071D01*
X10698214Y-15798214D01*
X10698214Y-15641071D02*
X10712500Y-15612500D01*
X10741071Y-15598214D01*
X10783928Y-15598214D01*
X10812500Y-15612500D01*
X10826786Y-15641071D01*
X10826786Y-15798214D01*
X10969643Y-15798214D02*
X10969643Y-15598214D01*
X10969643Y-15626786D02*
X10983928Y-15612500D01*
X11012500Y-15598214D01*
X11055357Y-15598214D01*
X11083928Y-15612500D01*
X11098214Y-15641071D01*
X11098214Y-15798214D01*
X11098214Y-15641071D02*
X11112500Y-15612500D01*
X11141071Y-15598214D01*
X11183928Y-15598214D01*
X11212500Y-15612500D01*
X11226786Y-15641071D01*
X11226786Y-15798214D01*
X11812500Y-15483929D02*
X11555357Y-15869643D01*
X12198214Y-15498214D02*
X12226786Y-15498214D01*
X12255357Y-15512500D01*
X12269643Y-15526786D01*
X12283928Y-15555357D01*
X12298214Y-15612500D01*
X12298214Y-15683929D01*
X12283928Y-15741071D01*
X12269643Y-15769643D01*
X12255357Y-15783929D01*
X12226786Y-15798214D01*
X12198214Y-15798214D01*
X12169643Y-15783929D01*
X12155357Y-15769643D01*
X12141071Y-15741071D01*
X12126786Y-15683929D01*
X12126786Y-15612500D01*
X12141071Y-15555357D01*
X12155357Y-15526786D01*
X12169643Y-15512500D01*
X12198214Y-15498214D01*
X12426786Y-15769643D02*
X12441071Y-15783929D01*
X12426786Y-15798214D01*
X12412500Y-15783929D01*
X12426786Y-15769643D01*
X12426786Y-15798214D01*
X12626786Y-15498214D02*
X12655357Y-15498214D01*
X12683928Y-15512500D01*
X12698214Y-15526786D01*
X12712500Y-15555357D01*
X12726786Y-15612500D01*
X12726786Y-15683929D01*
X12712500Y-15741071D01*
X12698214Y-15769643D01*
X12683928Y-15783929D01*
X12655357Y-15798214D01*
X12626786Y-15798214D01*
X12598214Y-15783929D01*
X12583928Y-15769643D01*
X12569643Y-15741071D01*
X12555357Y-15683929D01*
X12555357Y-15612500D01*
X12569643Y-15555357D01*
X12583928Y-15526786D01*
X12598214Y-15512500D01*
X12626786Y-15498214D01*
X13012500Y-15798214D02*
X12841071Y-15798214D01*
X12926786Y-15798214D02*
X12926786Y-15498214D01*
X12898214Y-15541071D01*
X12869643Y-15569643D01*
X12841071Y-15583929D01*
X13283928Y-15498214D02*
X13141071Y-15498214D01*
X13126786Y-15641071D01*
X13141071Y-15626786D01*
X13169643Y-15612500D01*
X13241071Y-15612500D01*
X13269643Y-15626786D01*
X13283928Y-15641071D01*
X13298214Y-15669643D01*
X13298214Y-15741071D01*
X13283928Y-15769643D01*
X13269643Y-15783929D01*
X13241071Y-15798214D01*
X13169643Y-15798214D01*
X13141071Y-15783929D01*
X13126786Y-15769643D01*
X13398214Y-15498214D02*
X13598214Y-15498214D01*
X13469643Y-15798214D01*
X13698214Y-15498214D02*
X13698214Y-15555357D01*
X13812500Y-15498214D02*
X13812500Y-15555357D01*
X14255357Y-15912500D02*
X14241071Y-15898214D01*
X14212500Y-15855357D01*
X14198214Y-15826786D01*
X14183928Y-15783929D01*
X14169643Y-15712500D01*
X14169643Y-15655357D01*
X14183928Y-15583929D01*
X14198214Y-15541071D01*
X14212500Y-15512500D01*
X14241071Y-15469643D01*
X14255357Y-15455357D01*
X14526786Y-15798214D02*
X14355357Y-15798214D01*
X14441071Y-15798214D02*
X14441071Y-15498214D01*
X14412500Y-15541071D01*
X14383928Y-15569643D01*
X14355357Y-15583929D01*
X14883928Y-15798214D02*
X14883928Y-15498214D01*
X15012500Y-15798214D02*
X15012500Y-15641071D01*
X14998214Y-15612500D01*
X14969643Y-15598214D01*
X14926786Y-15598214D01*
X14898214Y-15612500D01*
X14883928Y-15626786D01*
X15198214Y-15798214D02*
X15169643Y-15783929D01*
X15155357Y-15769643D01*
X15141071Y-15741071D01*
X15141071Y-15655357D01*
X15155357Y-15626786D01*
X15169643Y-15612500D01*
X15198214Y-15598214D01*
X15241071Y-15598214D01*
X15269643Y-15612500D01*
X15283928Y-15626786D01*
X15298214Y-15655357D01*
X15298214Y-15741071D01*
X15283928Y-15769643D01*
X15269643Y-15783929D01*
X15241071Y-15798214D01*
X15198214Y-15798214D01*
X15469643Y-15798214D02*
X15441071Y-15783929D01*
X15426786Y-15755357D01*
X15426786Y-15498214D01*
X15698214Y-15783929D02*
X15669643Y-15798214D01*
X15612500Y-15798214D01*
X15583928Y-15783929D01*
X15569643Y-15755357D01*
X15569643Y-15641071D01*
X15583928Y-15612500D01*
X15612500Y-15598214D01*
X15669643Y-15598214D01*
X15698214Y-15612500D01*
X15712500Y-15641071D01*
X15712500Y-15669643D01*
X15569643Y-15698214D01*
X15812500Y-15912500D02*
X15826786Y-15898214D01*
X15855357Y-15855357D01*
X15869643Y-15826786D01*
X15883928Y-15783929D01*
X15898214Y-15712500D01*
X15898214Y-15655357D01*
X15883928Y-15583929D01*
X15869643Y-15541071D01*
X15855357Y-15512500D01*
X15826786Y-15469643D01*
X15812500Y-15455357D01*
X8997500Y-16058500D02*
G75*
G03*
X8997500Y-16058500I-50000J0D01*
G01*
X9441071Y-16194214D02*
X9269643Y-16194214D01*
X9355357Y-16194214D02*
X9355357Y-15894214D01*
X9326786Y-15937071D01*
X9298214Y-15965643D01*
X9269643Y-15979929D01*
X9569643Y-16165643D02*
X9583928Y-16179929D01*
X9569643Y-16194214D01*
X9555357Y-16179929D01*
X9569643Y-16165643D01*
X9569643Y-16194214D01*
X9769643Y-15894214D02*
X9798214Y-15894214D01*
X9826786Y-15908500D01*
X9841071Y-15922786D01*
X9855357Y-15951357D01*
X9869643Y-16008500D01*
X9869643Y-16079929D01*
X9855357Y-16137071D01*
X9841071Y-16165643D01*
X9826786Y-16179929D01*
X9798214Y-16194214D01*
X9769643Y-16194214D01*
X9741071Y-16179929D01*
X9726786Y-16165643D01*
X9712500Y-16137071D01*
X9698214Y-16079929D01*
X9698214Y-16008500D01*
X9712500Y-15951357D01*
X9726786Y-15922786D01*
X9741071Y-15908500D01*
X9769643Y-15894214D01*
X10055357Y-15894214D02*
X10083928Y-15894214D01*
X10112500Y-15908500D01*
X10126786Y-15922786D01*
X10141071Y-15951357D01*
X10155357Y-16008500D01*
X10155357Y-16079929D01*
X10141071Y-16137071D01*
X10126786Y-16165643D01*
X10112500Y-16179929D01*
X10083928Y-16194214D01*
X10055357Y-16194214D01*
X10026786Y-16179929D01*
X10012500Y-16165643D01*
X9998214Y-16137071D01*
X9983928Y-16079929D01*
X9983928Y-16008500D01*
X9998214Y-15951357D01*
X10012500Y-15922786D01*
X10026786Y-15908500D01*
X10055357Y-15894214D01*
X10341071Y-15894214D02*
X10369643Y-15894214D01*
X10398214Y-15908500D01*
X10412500Y-15922786D01*
X10426786Y-15951357D01*
X10441071Y-16008500D01*
X10441071Y-16079929D01*
X10426786Y-16137071D01*
X10412500Y-16165643D01*
X10398214Y-16179929D01*
X10369643Y-16194214D01*
X10341071Y-16194214D01*
X10312500Y-16179929D01*
X10298214Y-16165643D01*
X10283928Y-16137071D01*
X10269643Y-16079929D01*
X10269643Y-16008500D01*
X10283928Y-15951357D01*
X10298214Y-15922786D01*
X10312500Y-15908500D01*
X10341071Y-15894214D01*
X10569643Y-16194214D02*
X10569643Y-15994214D01*
X10569643Y-16022786D02*
X10583928Y-16008500D01*
X10612500Y-15994214D01*
X10655357Y-15994214D01*
X10683928Y-16008500D01*
X10698214Y-16037071D01*
X10698214Y-16194214D01*
X10698214Y-16037071D02*
X10712500Y-16008500D01*
X10741071Y-15994214D01*
X10783928Y-15994214D01*
X10812500Y-16008500D01*
X10826786Y-16037071D01*
X10826786Y-16194214D01*
X10969643Y-16194214D02*
X10969643Y-15994214D01*
X10969643Y-16022786D02*
X10983928Y-16008500D01*
X11012500Y-15994214D01*
X11055357Y-15994214D01*
X11083928Y-16008500D01*
X11098214Y-16037071D01*
X11098214Y-16194214D01*
X11098214Y-16037071D02*
X11112500Y-16008500D01*
X11141071Y-15994214D01*
X11183928Y-15994214D01*
X11212500Y-16008500D01*
X11226786Y-16037071D01*
X11226786Y-16194214D01*
X11812500Y-15879929D02*
X11555357Y-16265643D01*
X12198214Y-15894214D02*
X12226786Y-15894214D01*
X12255357Y-15908500D01*
X12269643Y-15922786D01*
X12283928Y-15951357D01*
X12298214Y-16008500D01*
X12298214Y-16079929D01*
X12283928Y-16137071D01*
X12269643Y-16165643D01*
X12255357Y-16179929D01*
X12226786Y-16194214D01*
X12198214Y-16194214D01*
X12169643Y-16179929D01*
X12155357Y-16165643D01*
X12141071Y-16137071D01*
X12126786Y-16079929D01*
X12126786Y-16008500D01*
X12141071Y-15951357D01*
X12155357Y-15922786D01*
X12169643Y-15908500D01*
X12198214Y-15894214D01*
X12426786Y-16165643D02*
X12441071Y-16179929D01*
X12426786Y-16194214D01*
X12412500Y-16179929D01*
X12426786Y-16165643D01*
X12426786Y-16194214D01*
X12626786Y-15894214D02*
X12655357Y-15894214D01*
X12683928Y-15908500D01*
X12698214Y-15922786D01*
X12712500Y-15951357D01*
X12726786Y-16008500D01*
X12726786Y-16079929D01*
X12712500Y-16137071D01*
X12698214Y-16165643D01*
X12683928Y-16179929D01*
X12655357Y-16194214D01*
X12626786Y-16194214D01*
X12598214Y-16179929D01*
X12583928Y-16165643D01*
X12569643Y-16137071D01*
X12555357Y-16079929D01*
X12555357Y-16008500D01*
X12569643Y-15951357D01*
X12583928Y-15922786D01*
X12598214Y-15908500D01*
X12626786Y-15894214D01*
X12826786Y-15894214D02*
X13012500Y-15894214D01*
X12912500Y-16008500D01*
X12955357Y-16008500D01*
X12983928Y-16022786D01*
X12998214Y-16037071D01*
X13012500Y-16065643D01*
X13012500Y-16137071D01*
X12998214Y-16165643D01*
X12983928Y-16179929D01*
X12955357Y-16194214D01*
X12869643Y-16194214D01*
X12841071Y-16179929D01*
X12826786Y-16165643D01*
X13155357Y-16194214D02*
X13212500Y-16194214D01*
X13241071Y-16179929D01*
X13255357Y-16165643D01*
X13283928Y-16122786D01*
X13298214Y-16065643D01*
X13298214Y-15951357D01*
X13283928Y-15922786D01*
X13269643Y-15908500D01*
X13241071Y-15894214D01*
X13183928Y-15894214D01*
X13155357Y-15908500D01*
X13141071Y-15922786D01*
X13126786Y-15951357D01*
X13126786Y-16022786D01*
X13141071Y-16051357D01*
X13155357Y-16065643D01*
X13183928Y-16079929D01*
X13241071Y-16079929D01*
X13269643Y-16065643D01*
X13283928Y-16051357D01*
X13298214Y-16022786D01*
X13555357Y-15994214D02*
X13555357Y-16194214D01*
X13483928Y-15879929D02*
X13412500Y-16094214D01*
X13598214Y-16094214D01*
X13698214Y-15894214D02*
X13698214Y-15951357D01*
X13812500Y-15894214D02*
X13812500Y-15951357D01*
X14255357Y-16308500D02*
X14241071Y-16294214D01*
X14212500Y-16251357D01*
X14198214Y-16222786D01*
X14183928Y-16179929D01*
X14169643Y-16108500D01*
X14169643Y-16051357D01*
X14183928Y-15979929D01*
X14198214Y-15937071D01*
X14212500Y-15908500D01*
X14241071Y-15865643D01*
X14255357Y-15851357D01*
X14498214Y-15994214D02*
X14498214Y-16194214D01*
X14426786Y-15879929D02*
X14355357Y-16094214D01*
X14541071Y-16094214D01*
X14883928Y-16194214D02*
X14883928Y-15894214D01*
X15012500Y-16194214D02*
X15012500Y-16037071D01*
X14998214Y-16008500D01*
X14969643Y-15994214D01*
X14926786Y-15994214D01*
X14898214Y-16008500D01*
X14883928Y-16022786D01*
X15198214Y-16194214D02*
X15169643Y-16179929D01*
X15155357Y-16165643D01*
X15141071Y-16137071D01*
X15141071Y-16051357D01*
X15155357Y-16022786D01*
X15169643Y-16008500D01*
X15198214Y-15994214D01*
X15241071Y-15994214D01*
X15269643Y-16008500D01*
X15283928Y-16022786D01*
X15298214Y-16051357D01*
X15298214Y-16137071D01*
X15283928Y-16165643D01*
X15269643Y-16179929D01*
X15241071Y-16194214D01*
X15198214Y-16194214D01*
X15469643Y-16194214D02*
X15441071Y-16179929D01*
X15426786Y-16151357D01*
X15426786Y-15894214D01*
X15698214Y-16179929D02*
X15669643Y-16194214D01*
X15612500Y-16194214D01*
X15583928Y-16179929D01*
X15569643Y-16151357D01*
X15569643Y-16037071D01*
X15583928Y-16008500D01*
X15612500Y-15994214D01*
X15669643Y-15994214D01*
X15698214Y-16008500D01*
X15712500Y-16037071D01*
X15712500Y-16065643D01*
X15569643Y-16094214D01*
X15826786Y-16179929D02*
X15855357Y-16194214D01*
X15912500Y-16194214D01*
X15941071Y-16179929D01*
X15955357Y-16151357D01*
X15955357Y-16137071D01*
X15941071Y-16108500D01*
X15912500Y-16094214D01*
X15869643Y-16094214D01*
X15841071Y-16079929D01*
X15826786Y-16051357D01*
X15826786Y-16037071D01*
X15841071Y-16008500D01*
X15869643Y-15994214D01*
X15912500Y-15994214D01*
X15941071Y-16008500D01*
X16055357Y-16308500D02*
X16069643Y-16294214D01*
X16098214Y-16251357D01*
X16112500Y-16222786D01*
X16126786Y-16179929D01*
X16141071Y-16108500D01*
X16141071Y-16051357D01*
X16126786Y-15979929D01*
X16112500Y-15937071D01*
X16098214Y-15908500D01*
X16069643Y-15865643D01*
X16055357Y-15851357D01*
X8897500Y-16354500D02*
X8897500Y-16554500D01*
X8797500Y-16454500D02*
X8997500Y-16454500D01*
X9269643Y-16318786D02*
X9283928Y-16304500D01*
X9312500Y-16290214D01*
X9383928Y-16290214D01*
X9412500Y-16304500D01*
X9426786Y-16318786D01*
X9441071Y-16347357D01*
X9441071Y-16375929D01*
X9426786Y-16418786D01*
X9255357Y-16590214D01*
X9441071Y-16590214D01*
X9569643Y-16561643D02*
X9583928Y-16575929D01*
X9569643Y-16590214D01*
X9555357Y-16575929D01*
X9569643Y-16561643D01*
X9569643Y-16590214D01*
X9769643Y-16290214D02*
X9798214Y-16290214D01*
X9826786Y-16304500D01*
X9841071Y-16318786D01*
X9855357Y-16347357D01*
X9869643Y-16404500D01*
X9869643Y-16475929D01*
X9855357Y-16533071D01*
X9841071Y-16561643D01*
X9826786Y-16575929D01*
X9798214Y-16590214D01*
X9769643Y-16590214D01*
X9741071Y-16575929D01*
X9726786Y-16561643D01*
X9712500Y-16533071D01*
X9698214Y-16475929D01*
X9698214Y-16404500D01*
X9712500Y-16347357D01*
X9726786Y-16318786D01*
X9741071Y-16304500D01*
X9769643Y-16290214D01*
X10055357Y-16290214D02*
X10083928Y-16290214D01*
X10112500Y-16304500D01*
X10126786Y-16318786D01*
X10141071Y-16347357D01*
X10155357Y-16404500D01*
X10155357Y-16475929D01*
X10141071Y-16533071D01*
X10126786Y-16561643D01*
X10112500Y-16575929D01*
X10083928Y-16590214D01*
X10055357Y-16590214D01*
X10026786Y-16575929D01*
X10012500Y-16561643D01*
X9998214Y-16533071D01*
X9983928Y-16475929D01*
X9983928Y-16404500D01*
X9998214Y-16347357D01*
X10012500Y-16318786D01*
X10026786Y-16304500D01*
X10055357Y-16290214D01*
X10341071Y-16290214D02*
X10369643Y-16290214D01*
X10398214Y-16304500D01*
X10412500Y-16318786D01*
X10426786Y-16347357D01*
X10441071Y-16404500D01*
X10441071Y-16475929D01*
X10426786Y-16533071D01*
X10412500Y-16561643D01*
X10398214Y-16575929D01*
X10369643Y-16590214D01*
X10341071Y-16590214D01*
X10312500Y-16575929D01*
X10298214Y-16561643D01*
X10283928Y-16533071D01*
X10269643Y-16475929D01*
X10269643Y-16404500D01*
X10283928Y-16347357D01*
X10298214Y-16318786D01*
X10312500Y-16304500D01*
X10341071Y-16290214D01*
X10569643Y-16590214D02*
X10569643Y-16390214D01*
X10569643Y-16418786D02*
X10583928Y-16404500D01*
X10612500Y-16390214D01*
X10655357Y-16390214D01*
X10683928Y-16404500D01*
X10698214Y-16433071D01*
X10698214Y-16590214D01*
X10698214Y-16433071D02*
X10712500Y-16404500D01*
X10741071Y-16390214D01*
X10783928Y-16390214D01*
X10812500Y-16404500D01*
X10826786Y-16433071D01*
X10826786Y-16590214D01*
X10969643Y-16590214D02*
X10969643Y-16390214D01*
X10969643Y-16418786D02*
X10983928Y-16404500D01*
X11012500Y-16390214D01*
X11055357Y-16390214D01*
X11083928Y-16404500D01*
X11098214Y-16433071D01*
X11098214Y-16590214D01*
X11098214Y-16433071D02*
X11112500Y-16404500D01*
X11141071Y-16390214D01*
X11183928Y-16390214D01*
X11212500Y-16404500D01*
X11226786Y-16433071D01*
X11226786Y-16590214D01*
X11812500Y-16275929D02*
X11555357Y-16661643D01*
X12198214Y-16290214D02*
X12226786Y-16290214D01*
X12255357Y-16304500D01*
X12269643Y-16318786D01*
X12283928Y-16347357D01*
X12298214Y-16404500D01*
X12298214Y-16475929D01*
X12283928Y-16533071D01*
X12269643Y-16561643D01*
X12255357Y-16575929D01*
X12226786Y-16590214D01*
X12198214Y-16590214D01*
X12169643Y-16575929D01*
X12155357Y-16561643D01*
X12141071Y-16533071D01*
X12126786Y-16475929D01*
X12126786Y-16404500D01*
X12141071Y-16347357D01*
X12155357Y-16318786D01*
X12169643Y-16304500D01*
X12198214Y-16290214D01*
X12426786Y-16561643D02*
X12441071Y-16575929D01*
X12426786Y-16590214D01*
X12412500Y-16575929D01*
X12426786Y-16561643D01*
X12426786Y-16590214D01*
X12626786Y-16290214D02*
X12655357Y-16290214D01*
X12683928Y-16304500D01*
X12698214Y-16318786D01*
X12712500Y-16347357D01*
X12726786Y-16404500D01*
X12726786Y-16475929D01*
X12712500Y-16533071D01*
X12698214Y-16561643D01*
X12683928Y-16575929D01*
X12655357Y-16590214D01*
X12626786Y-16590214D01*
X12598214Y-16575929D01*
X12583928Y-16561643D01*
X12569643Y-16533071D01*
X12555357Y-16475929D01*
X12555357Y-16404500D01*
X12569643Y-16347357D01*
X12583928Y-16318786D01*
X12598214Y-16304500D01*
X12626786Y-16290214D01*
X12826786Y-16290214D02*
X13026786Y-16290214D01*
X12898214Y-16590214D01*
X13183928Y-16418786D02*
X13155357Y-16404500D01*
X13141071Y-16390214D01*
X13126786Y-16361643D01*
X13126786Y-16347357D01*
X13141071Y-16318786D01*
X13155357Y-16304500D01*
X13183928Y-16290214D01*
X13241071Y-16290214D01*
X13269643Y-16304500D01*
X13283928Y-16318786D01*
X13298214Y-16347357D01*
X13298214Y-16361643D01*
X13283928Y-16390214D01*
X13269643Y-16404500D01*
X13241071Y-16418786D01*
X13183928Y-16418786D01*
X13155357Y-16433071D01*
X13141071Y-16447357D01*
X13126786Y-16475929D01*
X13126786Y-16533071D01*
X13141071Y-16561643D01*
X13155357Y-16575929D01*
X13183928Y-16590214D01*
X13241071Y-16590214D01*
X13269643Y-16575929D01*
X13283928Y-16561643D01*
X13298214Y-16533071D01*
X13298214Y-16475929D01*
X13283928Y-16447357D01*
X13269643Y-16433071D01*
X13241071Y-16418786D01*
X13398214Y-16290214D02*
X13598214Y-16290214D01*
X13469643Y-16590214D01*
X13698214Y-16290214D02*
X13698214Y-16347357D01*
X13812500Y-16290214D02*
X13812500Y-16347357D01*
X14255357Y-16704500D02*
X14241071Y-16690214D01*
X14212500Y-16647357D01*
X14198214Y-16618786D01*
X14183928Y-16575929D01*
X14169643Y-16504500D01*
X14169643Y-16447357D01*
X14183928Y-16375929D01*
X14198214Y-16333071D01*
X14212500Y-16304500D01*
X14241071Y-16261643D01*
X14255357Y-16247357D01*
X14355357Y-16318786D02*
X14369643Y-16304500D01*
X14398214Y-16290214D01*
X14469643Y-16290214D01*
X14498214Y-16304500D01*
X14512500Y-16318786D01*
X14526786Y-16347357D01*
X14526786Y-16375929D01*
X14512500Y-16418786D01*
X14341071Y-16590214D01*
X14526786Y-16590214D01*
X14883928Y-16590214D02*
X14883928Y-16290214D01*
X15012500Y-16590214D02*
X15012500Y-16433071D01*
X14998214Y-16404500D01*
X14969643Y-16390214D01*
X14926786Y-16390214D01*
X14898214Y-16404500D01*
X14883928Y-16418786D01*
X15198214Y-16590214D02*
X15169643Y-16575929D01*
X15155357Y-16561643D01*
X15141071Y-16533071D01*
X15141071Y-16447357D01*
X15155357Y-16418786D01*
X15169643Y-16404500D01*
X15198214Y-16390214D01*
X15241071Y-16390214D01*
X15269643Y-16404500D01*
X15283928Y-16418786D01*
X15298214Y-16447357D01*
X15298214Y-16533071D01*
X15283928Y-16561643D01*
X15269643Y-16575929D01*
X15241071Y-16590214D01*
X15198214Y-16590214D01*
X15469643Y-16590214D02*
X15441071Y-16575929D01*
X15426786Y-16547357D01*
X15426786Y-16290214D01*
X15698214Y-16575929D02*
X15669643Y-16590214D01*
X15612500Y-16590214D01*
X15583928Y-16575929D01*
X15569643Y-16547357D01*
X15569643Y-16433071D01*
X15583928Y-16404500D01*
X15612500Y-16390214D01*
X15669643Y-16390214D01*
X15698214Y-16404500D01*
X15712500Y-16433071D01*
X15712500Y-16461643D01*
X15569643Y-16490214D01*
X15826786Y-16575929D02*
X15855357Y-16590214D01*
X15912500Y-16590214D01*
X15941071Y-16575929D01*
X15955357Y-16547357D01*
X15955357Y-16533071D01*
X15941071Y-16504500D01*
X15912500Y-16490214D01*
X15869643Y-16490214D01*
X15841071Y-16475929D01*
X15826786Y-16447357D01*
X15826786Y-16433071D01*
X15841071Y-16404500D01*
X15869643Y-16390214D01*
X15912500Y-16390214D01*
X15941071Y-16404500D01*
X16055357Y-16704500D02*
X16069643Y-16690214D01*
X16098214Y-16647357D01*
X16112500Y-16618786D01*
X16126786Y-16575929D01*
X16141071Y-16504500D01*
X16141071Y-16447357D01*
X16126786Y-16375929D01*
X16112500Y-16333071D01*
X16098214Y-16304500D01*
X16069643Y-16261643D01*
X16055357Y-16247357D01*
M02*
