%TF.GenerationSoftware,KiCad,Pcbnew,(5.1.10)-1*%
%TF.CreationDate,2022-05-08T17:12:19-07:00*%
%TF.ProjectId,solar-panel-side-XY,736f6c61-722d-4706-916e-656c2d736964,1.0*%
%TF.SameCoordinates,Original*%
%TF.FileFunction,Copper,L4,Bot*%
%TF.FilePolarity,Positive*%
%FSLAX46Y46*%
G04 Gerber Fmt 4.6, Leading zero omitted, Abs format (unit mm)*
G04 Created by KiCad (PCBNEW (5.1.10)-1) date 2022-05-08 17:12:19*
%MOMM*%
%LPD*%
G01*
G04 APERTURE LIST*
%TA.AperFunction,SMDPad,CuDef*%
%ADD10R,1.250000X1.800000*%
%TD*%
%TA.AperFunction,SMDPad,CuDef*%
%ADD11R,0.600000X1.000000*%
%TD*%
%TA.AperFunction,ComponentPad*%
%ADD12C,3.000000*%
%TD*%
%TA.AperFunction,ViaPad*%
%ADD13C,0.800000*%
%TD*%
%TA.AperFunction,Conductor*%
%ADD14C,0.250000*%
%TD*%
%TA.AperFunction,Conductor*%
%ADD15C,0.500000*%
%TD*%
%TA.AperFunction,Conductor*%
%ADD16C,0.254000*%
%TD*%
%TA.AperFunction,Conductor*%
%ADD17C,0.100000*%
%TD*%
G04 APERTURE END LIST*
D10*
%TO.P,J1,7*%
%TO.N,Net-(J1-Pad7)*%
X132104999Y-119560000D03*
%TO.P,J1,6*%
%TO.N,Net-(J1-Pad6)*%
X120895001Y-119560000D03*
D11*
%TO.P,J1,5*%
%TO.N,SDA*%
X129500001Y-124750000D03*
%TO.P,J1,4*%
%TO.N,SCL*%
X128000001Y-124750000D03*
%TO.P,J1,3*%
%TO.N,+3V3*%
X126499999Y-124750000D03*
%TO.P,J1,2*%
%TO.N,GND*%
X125000000Y-124750000D03*
%TO.P,J1,1*%
%TO.N,VSOLAR*%
X123500000Y-124750000D03*
%TD*%
D12*
%TO.P,SC6,2*%
%TO.N,GND*%
X172250000Y-70750000D03*
%TO.P,SC6,1*%
%TO.N,Net-(SC5-Pad2)*%
X163250000Y-70750000D03*
%TD*%
%TO.P,SC5,2*%
%TO.N,Net-(SC5-Pad2)*%
X163000000Y-158750000D03*
%TO.P,SC5,1*%
%TO.N,Net-(D3-Pad2)*%
X172000000Y-158750000D03*
%TD*%
%TO.P,SC4,2*%
%TO.N,GND*%
X149250000Y-70750000D03*
%TO.P,SC4,1*%
%TO.N,Net-(SC3-Pad2)*%
X140250000Y-70750000D03*
%TD*%
%TO.P,SC3,2*%
%TO.N,Net-(SC3-Pad2)*%
X140000000Y-158750000D03*
%TO.P,SC3,1*%
%TO.N,Net-(D2-Pad2)*%
X149000000Y-158750000D03*
%TD*%
%TO.P,SC2,2*%
%TO.N,GND*%
X126000000Y-70750000D03*
%TO.P,SC2,1*%
%TO.N,Net-(SC1-Pad2)*%
X117000000Y-70750000D03*
%TD*%
%TO.P,SC1,2*%
%TO.N,Net-(SC1-Pad2)*%
X117000000Y-158750000D03*
%TO.P,SC1,1*%
%TO.N,Net-(D1-Pad2)*%
X126000000Y-158750000D03*
%TD*%
D13*
%TO.N,GND*%
X124000000Y-115750000D03*
X164000000Y-109750000D03*
X145500000Y-102000000D03*
%TO.N,+3V3*%
X164250000Y-103250000D03*
X150500000Y-107500000D03*
X126500000Y-122894997D03*
%TO.N,VSOLAR*%
X124750000Y-128750000D03*
%TO.N,SDA*%
X162500000Y-105250000D03*
X139000000Y-109000000D03*
X129500000Y-120644998D03*
%TO.N,SCL*%
X163500000Y-104250000D03*
X142250000Y-108250000D03*
X128000000Y-121894996D03*
%TO.N,Net-(U2-Pad6)*%
X165250000Y-123250000D03*
X178500000Y-122000000D03*
X178500000Y-123500000D03*
%TD*%
D14*
%TO.N,+3V3*%
X151500000Y-107500000D02*
X152000000Y-107500000D01*
X152000000Y-107500000D02*
X156250000Y-103250000D01*
X156250000Y-103250000D02*
X164250000Y-103250000D01*
X164250000Y-103250000D02*
X164250000Y-103250000D01*
X126355003Y-124605004D02*
X126499999Y-124750000D01*
X136477180Y-107500000D02*
X136500000Y-107500000D01*
X136500000Y-107500000D02*
X151500000Y-107500000D01*
X126499999Y-124750000D02*
X126499999Y-117499999D01*
X126499999Y-117477181D02*
X126499999Y-117499999D01*
X136200010Y-107799990D02*
X136177189Y-107799991D01*
X136177189Y-107799991D02*
X126499999Y-117477181D01*
X136500000Y-107500000D02*
X136200010Y-107799990D01*
D15*
%TO.N,VSOLAR*%
X123500000Y-127500000D02*
X124750000Y-128750000D01*
X123500000Y-124750000D02*
X123500000Y-127500000D01*
%TO.N,Net-(SC1-Pad2)*%
X117000000Y-71250000D02*
X117000000Y-158250000D01*
%TO.N,Net-(SC3-Pad2)*%
X140000000Y-70750000D02*
X136500000Y-70750000D01*
X136500000Y-70750000D02*
X117750000Y-89500000D01*
X140000000Y-158750000D02*
X136250000Y-158750000D01*
X117750000Y-140250000D02*
X117750000Y-138750000D01*
X136250000Y-158750000D02*
X117750000Y-140250000D01*
X117750000Y-89500000D02*
X117750000Y-138750000D01*
D14*
%TO.N,SDA*%
X155522820Y-105250000D02*
X151772820Y-109000000D01*
X162500000Y-105250000D02*
X155522820Y-105250000D01*
X129500001Y-115749999D02*
X136250000Y-109000000D01*
X129500001Y-124750000D02*
X129500001Y-115749999D01*
X151772820Y-109000000D02*
X136250000Y-109000000D01*
%TO.N,SCL*%
X155886410Y-104250000D02*
X151886410Y-108250000D01*
X163500000Y-104250000D02*
X155886410Y-104250000D01*
X136363590Y-108250000D02*
X136500000Y-108250000D01*
X128000001Y-124750000D02*
X128000001Y-116613589D01*
X128000001Y-116613589D02*
X136363590Y-108250000D01*
X151886410Y-108250000D02*
X136500000Y-108250000D01*
D15*
%TO.N,Net-(SC5-Pad2)*%
X169350001Y-77600001D02*
X169350001Y-151899999D01*
X169350001Y-151899999D02*
X163000000Y-158250000D01*
X163000000Y-71250000D02*
X169350001Y-77600001D01*
%TD*%
D16*
%TO.N,GND*%
X185340000Y-163090000D02*
X103660000Y-163090000D01*
X103660000Y-159088773D01*
X103855377Y-159088773D01*
X103855377Y-159511227D01*
X103937794Y-159925563D01*
X104099460Y-160315860D01*
X104334162Y-160667118D01*
X104632882Y-160965838D01*
X104984140Y-161200540D01*
X105374437Y-161362206D01*
X105788773Y-161444623D01*
X106211227Y-161444623D01*
X106625563Y-161362206D01*
X107015860Y-161200540D01*
X107367118Y-160965838D01*
X107665838Y-160667118D01*
X107900540Y-160315860D01*
X108062206Y-159925563D01*
X108144623Y-159511227D01*
X108144623Y-159088773D01*
X108062206Y-158674437D01*
X107900540Y-158284140D01*
X107665838Y-157932882D01*
X107367118Y-157634162D01*
X107015860Y-157399460D01*
X106625563Y-157237794D01*
X106211227Y-157155377D01*
X105788773Y-157155377D01*
X105374437Y-157237794D01*
X104984140Y-157399460D01*
X104632882Y-157634162D01*
X104334162Y-157932882D01*
X104099460Y-158284140D01*
X103937794Y-158674437D01*
X103855377Y-159088773D01*
X103660000Y-159088773D01*
X103660000Y-141826053D01*
X105210914Y-141826053D01*
X105210914Y-142473947D01*
X105337312Y-143109391D01*
X105585250Y-143707966D01*
X105945200Y-144246670D01*
X106403330Y-144704800D01*
X106942034Y-145064750D01*
X107540609Y-145312688D01*
X108176053Y-145439086D01*
X108823947Y-145439086D01*
X109459391Y-145312688D01*
X110057966Y-145064750D01*
X110596670Y-144704800D01*
X111054800Y-144246670D01*
X111414750Y-143707966D01*
X111662688Y-143109391D01*
X111789086Y-142473947D01*
X111789086Y-141826053D01*
X111662688Y-141190609D01*
X111414750Y-140592034D01*
X111054800Y-140053330D01*
X110596670Y-139595200D01*
X110057966Y-139235250D01*
X109459391Y-138987312D01*
X108823947Y-138860914D01*
X108176053Y-138860914D01*
X107540609Y-138987312D01*
X106942034Y-139235250D01*
X106403330Y-139595200D01*
X105945200Y-140053330D01*
X105585250Y-140592034D01*
X105337312Y-141190609D01*
X105210914Y-141826053D01*
X103660000Y-141826053D01*
X103660000Y-114326053D01*
X105210914Y-114326053D01*
X105210914Y-114973947D01*
X105337312Y-115609391D01*
X105585250Y-116207966D01*
X105945200Y-116746670D01*
X106403330Y-117204800D01*
X106942034Y-117564750D01*
X107540609Y-117812688D01*
X108176053Y-117939086D01*
X108823947Y-117939086D01*
X109459391Y-117812688D01*
X110057966Y-117564750D01*
X110596670Y-117204800D01*
X111054800Y-116746670D01*
X111414750Y-116207966D01*
X111662688Y-115609391D01*
X111789086Y-114973947D01*
X111789086Y-114326053D01*
X111662688Y-113690609D01*
X111414750Y-113092034D01*
X111054800Y-112553330D01*
X110596670Y-112095200D01*
X110057966Y-111735250D01*
X109459391Y-111487312D01*
X108823947Y-111360914D01*
X108176053Y-111360914D01*
X107540609Y-111487312D01*
X106942034Y-111735250D01*
X106403330Y-112095200D01*
X105945200Y-112553330D01*
X105585250Y-113092034D01*
X105337312Y-113690609D01*
X105210914Y-114326053D01*
X103660000Y-114326053D01*
X103660000Y-70088773D01*
X103855377Y-70088773D01*
X103855377Y-70511227D01*
X103937794Y-70925563D01*
X104099460Y-71315860D01*
X104334162Y-71667118D01*
X104632882Y-71965838D01*
X104984140Y-72200540D01*
X105374437Y-72362206D01*
X105788773Y-72444623D01*
X106211227Y-72444623D01*
X106625563Y-72362206D01*
X107015860Y-72200540D01*
X107367118Y-71965838D01*
X107665838Y-71667118D01*
X107900540Y-71315860D01*
X108062206Y-70925563D01*
X108138955Y-70539721D01*
X114865000Y-70539721D01*
X114865000Y-70960279D01*
X114947047Y-71372756D01*
X115107988Y-71761302D01*
X115341637Y-72110983D01*
X115639017Y-72408363D01*
X115988698Y-72642012D01*
X116115000Y-72694328D01*
X116115001Y-156805672D01*
X115988698Y-156857988D01*
X115639017Y-157091637D01*
X115341637Y-157389017D01*
X115107988Y-157738698D01*
X114947047Y-158127244D01*
X114865000Y-158539721D01*
X114865000Y-158960279D01*
X114947047Y-159372756D01*
X115107988Y-159761302D01*
X115341637Y-160110983D01*
X115639017Y-160408363D01*
X115988698Y-160642012D01*
X116377244Y-160802953D01*
X116789721Y-160885000D01*
X117210279Y-160885000D01*
X117622756Y-160802953D01*
X118011302Y-160642012D01*
X118360983Y-160408363D01*
X118658363Y-160110983D01*
X118892012Y-159761302D01*
X119052953Y-159372756D01*
X119135000Y-158960279D01*
X119135000Y-158539721D01*
X123865000Y-158539721D01*
X123865000Y-158960279D01*
X123947047Y-159372756D01*
X124107988Y-159761302D01*
X124341637Y-160110983D01*
X124639017Y-160408363D01*
X124988698Y-160642012D01*
X125377244Y-160802953D01*
X125789721Y-160885000D01*
X126210279Y-160885000D01*
X126622756Y-160802953D01*
X127011302Y-160642012D01*
X127360983Y-160408363D01*
X127658363Y-160110983D01*
X127892012Y-159761302D01*
X128052953Y-159372756D01*
X128135000Y-158960279D01*
X128135000Y-158539721D01*
X128052953Y-158127244D01*
X127892012Y-157738698D01*
X127658363Y-157389017D01*
X127360983Y-157091637D01*
X127011302Y-156857988D01*
X126622756Y-156697047D01*
X126210279Y-156615000D01*
X125789721Y-156615000D01*
X125377244Y-156697047D01*
X124988698Y-156857988D01*
X124639017Y-157091637D01*
X124341637Y-157389017D01*
X124107988Y-157738698D01*
X123947047Y-158127244D01*
X123865000Y-158539721D01*
X119135000Y-158539721D01*
X119052953Y-158127244D01*
X118892012Y-157738698D01*
X118658363Y-157389017D01*
X118360983Y-157091637D01*
X118011302Y-156857988D01*
X117885000Y-156805672D01*
X117885000Y-141636578D01*
X135593470Y-159345049D01*
X135621183Y-159378817D01*
X135654951Y-159406530D01*
X135654953Y-159406532D01*
X135755941Y-159489411D01*
X135909687Y-159571589D01*
X136076510Y-159622195D01*
X136206523Y-159635000D01*
X136206531Y-159635000D01*
X136250000Y-159639281D01*
X136293469Y-159635000D01*
X138055672Y-159635000D01*
X138107988Y-159761302D01*
X138341637Y-160110983D01*
X138639017Y-160408363D01*
X138988698Y-160642012D01*
X139377244Y-160802953D01*
X139789721Y-160885000D01*
X140210279Y-160885000D01*
X140622756Y-160802953D01*
X141011302Y-160642012D01*
X141360983Y-160408363D01*
X141658363Y-160110983D01*
X141892012Y-159761302D01*
X142052953Y-159372756D01*
X142135000Y-158960279D01*
X142135000Y-158539721D01*
X146865000Y-158539721D01*
X146865000Y-158960279D01*
X146947047Y-159372756D01*
X147107988Y-159761302D01*
X147341637Y-160110983D01*
X147639017Y-160408363D01*
X147988698Y-160642012D01*
X148377244Y-160802953D01*
X148789721Y-160885000D01*
X149210279Y-160885000D01*
X149622756Y-160802953D01*
X150011302Y-160642012D01*
X150360983Y-160408363D01*
X150658363Y-160110983D01*
X150892012Y-159761302D01*
X151052953Y-159372756D01*
X151135000Y-158960279D01*
X151135000Y-158539721D01*
X160865000Y-158539721D01*
X160865000Y-158960279D01*
X160947047Y-159372756D01*
X161107988Y-159761302D01*
X161341637Y-160110983D01*
X161639017Y-160408363D01*
X161988698Y-160642012D01*
X162377244Y-160802953D01*
X162789721Y-160885000D01*
X163210279Y-160885000D01*
X163622756Y-160802953D01*
X164011302Y-160642012D01*
X164360983Y-160408363D01*
X164658363Y-160110983D01*
X164892012Y-159761302D01*
X165052953Y-159372756D01*
X165135000Y-158960279D01*
X165135000Y-158539721D01*
X169865000Y-158539721D01*
X169865000Y-158960279D01*
X169947047Y-159372756D01*
X170107988Y-159761302D01*
X170341637Y-160110983D01*
X170639017Y-160408363D01*
X170988698Y-160642012D01*
X171377244Y-160802953D01*
X171789721Y-160885000D01*
X172210279Y-160885000D01*
X172622756Y-160802953D01*
X173011302Y-160642012D01*
X173360983Y-160408363D01*
X173658363Y-160110983D01*
X173892012Y-159761302D01*
X174052953Y-159372756D01*
X174109440Y-159088773D01*
X180855377Y-159088773D01*
X180855377Y-159511227D01*
X180937794Y-159925563D01*
X181099460Y-160315860D01*
X181334162Y-160667118D01*
X181632882Y-160965838D01*
X181984140Y-161200540D01*
X182374437Y-161362206D01*
X182788773Y-161444623D01*
X183211227Y-161444623D01*
X183625563Y-161362206D01*
X184015860Y-161200540D01*
X184367118Y-160965838D01*
X184665838Y-160667118D01*
X184900540Y-160315860D01*
X185062206Y-159925563D01*
X185144623Y-159511227D01*
X185144623Y-159088773D01*
X185062206Y-158674437D01*
X184900540Y-158284140D01*
X184665838Y-157932882D01*
X184367118Y-157634162D01*
X184015860Y-157399460D01*
X183625563Y-157237794D01*
X183211227Y-157155377D01*
X182788773Y-157155377D01*
X182374437Y-157237794D01*
X181984140Y-157399460D01*
X181632882Y-157634162D01*
X181334162Y-157932882D01*
X181099460Y-158284140D01*
X180937794Y-158674437D01*
X180855377Y-159088773D01*
X174109440Y-159088773D01*
X174135000Y-158960279D01*
X174135000Y-158539721D01*
X174052953Y-158127244D01*
X173892012Y-157738698D01*
X173658363Y-157389017D01*
X173360983Y-157091637D01*
X173011302Y-156857988D01*
X172622756Y-156697047D01*
X172210279Y-156615000D01*
X171789721Y-156615000D01*
X171377244Y-156697047D01*
X170988698Y-156857988D01*
X170639017Y-157091637D01*
X170341637Y-157389017D01*
X170107988Y-157738698D01*
X169947047Y-158127244D01*
X169865000Y-158539721D01*
X165135000Y-158539721D01*
X165052953Y-158127244D01*
X164892012Y-157738698D01*
X164840289Y-157661289D01*
X169945050Y-152556529D01*
X169978818Y-152528816D01*
X170014255Y-152485637D01*
X170089412Y-152394058D01*
X170171590Y-152240313D01*
X170222196Y-152073489D01*
X170235001Y-151943476D01*
X170235001Y-151943468D01*
X170239282Y-151899999D01*
X170235001Y-151856530D01*
X170235001Y-141826053D01*
X177210914Y-141826053D01*
X177210914Y-142473947D01*
X177337312Y-143109391D01*
X177585250Y-143707966D01*
X177945200Y-144246670D01*
X178403330Y-144704800D01*
X178942034Y-145064750D01*
X179540609Y-145312688D01*
X180176053Y-145439086D01*
X180823947Y-145439086D01*
X181459391Y-145312688D01*
X182057966Y-145064750D01*
X182596670Y-144704800D01*
X183054800Y-144246670D01*
X183414750Y-143707966D01*
X183662688Y-143109391D01*
X183789086Y-142473947D01*
X183789086Y-141826053D01*
X183662688Y-141190609D01*
X183414750Y-140592034D01*
X183054800Y-140053330D01*
X182596670Y-139595200D01*
X182057966Y-139235250D01*
X181459391Y-138987312D01*
X180823947Y-138860914D01*
X180176053Y-138860914D01*
X179540609Y-138987312D01*
X178942034Y-139235250D01*
X178403330Y-139595200D01*
X177945200Y-140053330D01*
X177585250Y-140592034D01*
X177337312Y-141190609D01*
X177210914Y-141826053D01*
X170235001Y-141826053D01*
X170235001Y-121898061D01*
X177465000Y-121898061D01*
X177465000Y-122101939D01*
X177504774Y-122301898D01*
X177582795Y-122490256D01*
X177696063Y-122659774D01*
X177786289Y-122750000D01*
X177696063Y-122840226D01*
X177582795Y-123009744D01*
X177504774Y-123198102D01*
X177465000Y-123398061D01*
X177465000Y-123601939D01*
X177504774Y-123801898D01*
X177582795Y-123990256D01*
X177696063Y-124159774D01*
X177840226Y-124303937D01*
X178009744Y-124417205D01*
X178198102Y-124495226D01*
X178398061Y-124535000D01*
X178601939Y-124535000D01*
X178801898Y-124495226D01*
X178990256Y-124417205D01*
X179159774Y-124303937D01*
X179303937Y-124159774D01*
X179417205Y-123990256D01*
X179495226Y-123801898D01*
X179535000Y-123601939D01*
X179535000Y-123398061D01*
X179495226Y-123198102D01*
X179417205Y-123009744D01*
X179303937Y-122840226D01*
X179213711Y-122750000D01*
X179303937Y-122659774D01*
X179417205Y-122490256D01*
X179495226Y-122301898D01*
X179535000Y-122101939D01*
X179535000Y-121898061D01*
X179495226Y-121698102D01*
X179417205Y-121509744D01*
X179303937Y-121340226D01*
X179159774Y-121196063D01*
X178990256Y-121082795D01*
X178801898Y-121004774D01*
X178601939Y-120965000D01*
X178398061Y-120965000D01*
X178198102Y-121004774D01*
X178009744Y-121082795D01*
X177840226Y-121196063D01*
X177696063Y-121340226D01*
X177582795Y-121509744D01*
X177504774Y-121698102D01*
X177465000Y-121898061D01*
X170235001Y-121898061D01*
X170235001Y-114326053D01*
X177210914Y-114326053D01*
X177210914Y-114973947D01*
X177337312Y-115609391D01*
X177585250Y-116207966D01*
X177945200Y-116746670D01*
X178403330Y-117204800D01*
X178942034Y-117564750D01*
X179540609Y-117812688D01*
X180176053Y-117939086D01*
X180823947Y-117939086D01*
X181459391Y-117812688D01*
X182057966Y-117564750D01*
X182596670Y-117204800D01*
X183054800Y-116746670D01*
X183414750Y-116207966D01*
X183662688Y-115609391D01*
X183789086Y-114973947D01*
X183789086Y-114326053D01*
X183662688Y-113690609D01*
X183414750Y-113092034D01*
X183054800Y-112553330D01*
X182596670Y-112095200D01*
X182057966Y-111735250D01*
X181459391Y-111487312D01*
X180823947Y-111360914D01*
X180176053Y-111360914D01*
X179540609Y-111487312D01*
X178942034Y-111735250D01*
X178403330Y-112095200D01*
X177945200Y-112553330D01*
X177585250Y-113092034D01*
X177337312Y-113690609D01*
X177210914Y-114326053D01*
X170235001Y-114326053D01*
X170235001Y-77643470D01*
X170239282Y-77600001D01*
X170235001Y-77556532D01*
X170235001Y-77556524D01*
X170222196Y-77426511D01*
X170171685Y-77260000D01*
X170171590Y-77259687D01*
X170089412Y-77105942D01*
X170006533Y-77004954D01*
X170006531Y-77004952D01*
X169978818Y-76971184D01*
X169945052Y-76943473D01*
X165243232Y-72241653D01*
X170937952Y-72241653D01*
X171093962Y-72557214D01*
X171468745Y-72748020D01*
X171873551Y-72862044D01*
X172292824Y-72894902D01*
X172710451Y-72845334D01*
X173110383Y-72715243D01*
X173406038Y-72557214D01*
X173562048Y-72241653D01*
X172250000Y-70929605D01*
X170937952Y-72241653D01*
X165243232Y-72241653D01*
X164990153Y-71988575D01*
X165142012Y-71761302D01*
X165302953Y-71372756D01*
X165385000Y-70960279D01*
X165385000Y-70792824D01*
X170105098Y-70792824D01*
X170154666Y-71210451D01*
X170284757Y-71610383D01*
X170442786Y-71906038D01*
X170758347Y-72062048D01*
X172070395Y-70750000D01*
X172429605Y-70750000D01*
X173741653Y-72062048D01*
X174057214Y-71906038D01*
X174248020Y-71531255D01*
X174362044Y-71126449D01*
X174394902Y-70707176D01*
X174345334Y-70289549D01*
X174280026Y-70088773D01*
X180855377Y-70088773D01*
X180855377Y-70511227D01*
X180937794Y-70925563D01*
X181099460Y-71315860D01*
X181334162Y-71667118D01*
X181632882Y-71965838D01*
X181984140Y-72200540D01*
X182374437Y-72362206D01*
X182788773Y-72444623D01*
X183211227Y-72444623D01*
X183625563Y-72362206D01*
X184015860Y-72200540D01*
X184367118Y-71965838D01*
X184665838Y-71667118D01*
X184900540Y-71315860D01*
X185062206Y-70925563D01*
X185144623Y-70511227D01*
X185144623Y-70088773D01*
X185062206Y-69674437D01*
X184900540Y-69284140D01*
X184665838Y-68932882D01*
X184367118Y-68634162D01*
X184015860Y-68399460D01*
X183625563Y-68237794D01*
X183211227Y-68155377D01*
X182788773Y-68155377D01*
X182374437Y-68237794D01*
X181984140Y-68399460D01*
X181632882Y-68634162D01*
X181334162Y-68932882D01*
X181099460Y-69284140D01*
X180937794Y-69674437D01*
X180855377Y-70088773D01*
X174280026Y-70088773D01*
X174215243Y-69889617D01*
X174057214Y-69593962D01*
X173741653Y-69437952D01*
X172429605Y-70750000D01*
X172070395Y-70750000D01*
X170758347Y-69437952D01*
X170442786Y-69593962D01*
X170251980Y-69968745D01*
X170137956Y-70373551D01*
X170105098Y-70792824D01*
X165385000Y-70792824D01*
X165385000Y-70539721D01*
X165302953Y-70127244D01*
X165142012Y-69738698D01*
X164908363Y-69389017D01*
X164777693Y-69258347D01*
X170937952Y-69258347D01*
X172250000Y-70570395D01*
X173562048Y-69258347D01*
X173406038Y-68942786D01*
X173031255Y-68751980D01*
X172626449Y-68637956D01*
X172207176Y-68605098D01*
X171789549Y-68654666D01*
X171389617Y-68784757D01*
X171093962Y-68942786D01*
X170937952Y-69258347D01*
X164777693Y-69258347D01*
X164610983Y-69091637D01*
X164261302Y-68857988D01*
X163872756Y-68697047D01*
X163460279Y-68615000D01*
X163039721Y-68615000D01*
X162627244Y-68697047D01*
X162238698Y-68857988D01*
X161889017Y-69091637D01*
X161591637Y-69389017D01*
X161357988Y-69738698D01*
X161197047Y-70127244D01*
X161115000Y-70539721D01*
X161115000Y-70960279D01*
X161197047Y-71372756D01*
X161357988Y-71761302D01*
X161591637Y-72110983D01*
X161889017Y-72408363D01*
X162238698Y-72642012D01*
X162627244Y-72802953D01*
X163039721Y-72885000D01*
X163383422Y-72885000D01*
X168465001Y-77966580D01*
X168465002Y-151533419D01*
X163354696Y-156643726D01*
X163210279Y-156615000D01*
X162789721Y-156615000D01*
X162377244Y-156697047D01*
X161988698Y-156857988D01*
X161639017Y-157091637D01*
X161341637Y-157389017D01*
X161107988Y-157738698D01*
X160947047Y-158127244D01*
X160865000Y-158539721D01*
X151135000Y-158539721D01*
X151052953Y-158127244D01*
X150892012Y-157738698D01*
X150658363Y-157389017D01*
X150360983Y-157091637D01*
X150011302Y-156857988D01*
X149622756Y-156697047D01*
X149210279Y-156615000D01*
X148789721Y-156615000D01*
X148377244Y-156697047D01*
X147988698Y-156857988D01*
X147639017Y-157091637D01*
X147341637Y-157389017D01*
X147107988Y-157738698D01*
X146947047Y-158127244D01*
X146865000Y-158539721D01*
X142135000Y-158539721D01*
X142052953Y-158127244D01*
X141892012Y-157738698D01*
X141658363Y-157389017D01*
X141360983Y-157091637D01*
X141011302Y-156857988D01*
X140622756Y-156697047D01*
X140210279Y-156615000D01*
X139789721Y-156615000D01*
X139377244Y-156697047D01*
X138988698Y-156857988D01*
X138639017Y-157091637D01*
X138341637Y-157389017D01*
X138107988Y-157738698D01*
X138055672Y-157865000D01*
X136616579Y-157865000D01*
X131783997Y-153032418D01*
X136190000Y-153032418D01*
X136190226Y-153034712D01*
X136190274Y-153041602D01*
X136193408Y-153071421D01*
X136193408Y-153101405D01*
X136194371Y-153110570D01*
X136252022Y-153624536D01*
X136264458Y-153683039D01*
X136276078Y-153741727D01*
X136278803Y-153750530D01*
X136435185Y-154243509D01*
X136458736Y-154298456D01*
X136481545Y-154353797D01*
X136485929Y-154361903D01*
X136735087Y-154815120D01*
X136768856Y-154864439D01*
X136801985Y-154914303D01*
X136807860Y-154921403D01*
X137140302Y-155317593D01*
X137183052Y-155359456D01*
X137225192Y-155401892D01*
X137232334Y-155407716D01*
X137635399Y-155731789D01*
X137685452Y-155764542D01*
X137735045Y-155797994D01*
X137743182Y-155802320D01*
X138201518Y-156041931D01*
X138256950Y-156064327D01*
X138312126Y-156087521D01*
X138320948Y-156090184D01*
X138817094Y-156236208D01*
X138875828Y-156247412D01*
X138934451Y-156259446D01*
X138943623Y-156260345D01*
X139458683Y-156307219D01*
X139518501Y-156306801D01*
X139578318Y-156307219D01*
X139587489Y-156306319D01*
X139587491Y-156306319D01*
X140101845Y-156252258D01*
X140160401Y-156240238D01*
X140219201Y-156229022D01*
X140228023Y-156226358D01*
X140722084Y-156073421D01*
X140777252Y-156050230D01*
X140832691Y-156027832D01*
X140840827Y-156023506D01*
X141295772Y-155777519D01*
X141345373Y-155744063D01*
X141395420Y-155711313D01*
X141402561Y-155705489D01*
X141801062Y-155375820D01*
X141843221Y-155333365D01*
X141885951Y-155291521D01*
X141891825Y-155284420D01*
X142218704Y-154883628D01*
X142251798Y-154833817D01*
X142285604Y-154784445D01*
X142289987Y-154776339D01*
X142532792Y-154319687D01*
X142555583Y-154264393D01*
X142579153Y-154209400D01*
X142581878Y-154200597D01*
X142731362Y-153705482D01*
X142742982Y-153646794D01*
X142755418Y-153588291D01*
X142756381Y-153579126D01*
X142806850Y-153064405D01*
X142806850Y-153064402D01*
X142810000Y-153032419D01*
X142810000Y-146967582D01*
X146190000Y-146967582D01*
X146190001Y-153032419D01*
X146190226Y-153034702D01*
X146190274Y-153041602D01*
X146193408Y-153071421D01*
X146193408Y-153101405D01*
X146194371Y-153110570D01*
X146252022Y-153624536D01*
X146264458Y-153683039D01*
X146276078Y-153741727D01*
X146278803Y-153750530D01*
X146435185Y-154243509D01*
X146458736Y-154298456D01*
X146481545Y-154353797D01*
X146485929Y-154361903D01*
X146735087Y-154815120D01*
X146768856Y-154864439D01*
X146801985Y-154914303D01*
X146807860Y-154921403D01*
X147140302Y-155317593D01*
X147183052Y-155359456D01*
X147225192Y-155401892D01*
X147232334Y-155407716D01*
X147635399Y-155731789D01*
X147685452Y-155764542D01*
X147735045Y-155797994D01*
X147743182Y-155802320D01*
X148201518Y-156041931D01*
X148256950Y-156064327D01*
X148312126Y-156087521D01*
X148320948Y-156090184D01*
X148817094Y-156236208D01*
X148875828Y-156247412D01*
X148934451Y-156259446D01*
X148943623Y-156260345D01*
X149458683Y-156307219D01*
X149518501Y-156306801D01*
X149578318Y-156307219D01*
X149587489Y-156306319D01*
X149587491Y-156306319D01*
X150101845Y-156252258D01*
X150160401Y-156240238D01*
X150219201Y-156229022D01*
X150228023Y-156226358D01*
X150722084Y-156073421D01*
X150777252Y-156050230D01*
X150832691Y-156027832D01*
X150840827Y-156023506D01*
X151295772Y-155777519D01*
X151345373Y-155744063D01*
X151395420Y-155711313D01*
X151402561Y-155705489D01*
X151801062Y-155375820D01*
X151843221Y-155333365D01*
X151885951Y-155291521D01*
X151891825Y-155284420D01*
X152218704Y-154883628D01*
X152251798Y-154833817D01*
X152285604Y-154784445D01*
X152289987Y-154776339D01*
X152532792Y-154319687D01*
X152555583Y-154264393D01*
X152579153Y-154209400D01*
X152581878Y-154200597D01*
X152731362Y-153705482D01*
X152742982Y-153646794D01*
X152755418Y-153588291D01*
X152756381Y-153579126D01*
X152806850Y-153064405D01*
X152806850Y-153064402D01*
X152810000Y-153032419D01*
X152810000Y-146967581D01*
X152809774Y-146965287D01*
X152809726Y-146958398D01*
X152806592Y-146928579D01*
X152806592Y-146898594D01*
X152805629Y-146889430D01*
X152747978Y-146375464D01*
X152735542Y-146316961D01*
X152723922Y-146258273D01*
X152721197Y-146249470D01*
X152564815Y-145756490D01*
X152541259Y-145701530D01*
X152518455Y-145646203D01*
X152514072Y-145638097D01*
X152264913Y-145184880D01*
X152231126Y-145135535D01*
X152198014Y-145085697D01*
X152192140Y-145078597D01*
X151859697Y-144682407D01*
X151816967Y-144640563D01*
X151774808Y-144598108D01*
X151767666Y-144592284D01*
X151364601Y-144268212D01*
X151314582Y-144235481D01*
X151264955Y-144202006D01*
X151256818Y-144197680D01*
X150798482Y-143958068D01*
X150743017Y-143935659D01*
X150687874Y-143912479D01*
X150679052Y-143909816D01*
X150182905Y-143763792D01*
X150124186Y-143752591D01*
X150065549Y-143740554D01*
X150056378Y-143739655D01*
X149541317Y-143692781D01*
X149481500Y-143693199D01*
X149421682Y-143692781D01*
X149412511Y-143693681D01*
X148898155Y-143747742D01*
X148839624Y-143759757D01*
X148780799Y-143770978D01*
X148771977Y-143773642D01*
X148277917Y-143926579D01*
X148222762Y-143949764D01*
X148167309Y-143972168D01*
X148159177Y-143976493D01*
X148159172Y-143976495D01*
X148159168Y-143976498D01*
X147704228Y-144222481D01*
X147654627Y-144255937D01*
X147604580Y-144288687D01*
X147597439Y-144294512D01*
X147198938Y-144624180D01*
X147156781Y-144666632D01*
X147114048Y-144708479D01*
X147108174Y-144715580D01*
X146781296Y-145116373D01*
X146748203Y-145166181D01*
X146714396Y-145215555D01*
X146710013Y-145223661D01*
X146467207Y-145680313D01*
X146444408Y-145735628D01*
X146420847Y-145790600D01*
X146418122Y-145799403D01*
X146268638Y-146294518D01*
X146257015Y-146353221D01*
X146244582Y-146411710D01*
X146243619Y-146420874D01*
X146193150Y-146935595D01*
X146190000Y-146967582D01*
X142810000Y-146967582D01*
X142810000Y-146967581D01*
X142809774Y-146965287D01*
X142809726Y-146958398D01*
X142806592Y-146928579D01*
X142806592Y-146898594D01*
X142805629Y-146889430D01*
X142747978Y-146375464D01*
X142735542Y-146316961D01*
X142723922Y-146258273D01*
X142721197Y-146249470D01*
X142564815Y-145756490D01*
X142541259Y-145701530D01*
X142518455Y-145646203D01*
X142514072Y-145638097D01*
X142264913Y-145184880D01*
X142231126Y-145135535D01*
X142198014Y-145085697D01*
X142192140Y-145078597D01*
X141859697Y-144682407D01*
X141816967Y-144640563D01*
X141774808Y-144598108D01*
X141767666Y-144592284D01*
X141364601Y-144268212D01*
X141314582Y-144235481D01*
X141264955Y-144202006D01*
X141256818Y-144197680D01*
X140798482Y-143958068D01*
X140743017Y-143935659D01*
X140687874Y-143912479D01*
X140679052Y-143909816D01*
X140182905Y-143763792D01*
X140124186Y-143752591D01*
X140065549Y-143740554D01*
X140056378Y-143739655D01*
X139541317Y-143692781D01*
X139481500Y-143693199D01*
X139421682Y-143692781D01*
X139412511Y-143693681D01*
X138898155Y-143747742D01*
X138839624Y-143759757D01*
X138780799Y-143770978D01*
X138771977Y-143773642D01*
X138277917Y-143926579D01*
X138222762Y-143949764D01*
X138167309Y-143972168D01*
X138159177Y-143976493D01*
X138159172Y-143976495D01*
X138159168Y-143976498D01*
X137704228Y-144222481D01*
X137654627Y-144255937D01*
X137604580Y-144288687D01*
X137597439Y-144294512D01*
X137198938Y-144624180D01*
X137156781Y-144666632D01*
X137114048Y-144708479D01*
X137108174Y-144715580D01*
X136781296Y-145116373D01*
X136748203Y-145166181D01*
X136714396Y-145215555D01*
X136710013Y-145223661D01*
X136467207Y-145680313D01*
X136444408Y-145735628D01*
X136420847Y-145790600D01*
X136418122Y-145799403D01*
X136268638Y-146294518D01*
X136257015Y-146353221D01*
X136244582Y-146411710D01*
X136243619Y-146420874D01*
X136193150Y-146935595D01*
X136193150Y-146935608D01*
X136190001Y-146967581D01*
X136190000Y-153032418D01*
X131783997Y-153032418D01*
X118635000Y-139883422D01*
X118635000Y-124250000D01*
X122561928Y-124250000D01*
X122561928Y-125250000D01*
X122574188Y-125374482D01*
X122610498Y-125494180D01*
X122615000Y-125502603D01*
X122615001Y-127456521D01*
X122610719Y-127500000D01*
X122627805Y-127673490D01*
X122678412Y-127840313D01*
X122760590Y-127994059D01*
X122843468Y-128095046D01*
X122843471Y-128095049D01*
X122871184Y-128128817D01*
X122904951Y-128156529D01*
X123743465Y-128995044D01*
X123754774Y-129051898D01*
X123832795Y-129240256D01*
X123946063Y-129409774D01*
X124090226Y-129553937D01*
X124259744Y-129667205D01*
X124448102Y-129745226D01*
X124648061Y-129785000D01*
X124851939Y-129785000D01*
X125051898Y-129745226D01*
X125240256Y-129667205D01*
X125409774Y-129553937D01*
X125553937Y-129409774D01*
X125667205Y-129240256D01*
X125745226Y-129051898D01*
X125785000Y-128851939D01*
X125785000Y-128648061D01*
X125745226Y-128448102D01*
X125667205Y-128259744D01*
X125553937Y-128090226D01*
X125409774Y-127946063D01*
X125240256Y-127832795D01*
X125051898Y-127754774D01*
X124995044Y-127743465D01*
X124385000Y-127133422D01*
X124385000Y-125801647D01*
X124455820Y-125839502D01*
X124575518Y-125875812D01*
X124700000Y-125888072D01*
X124714250Y-125885000D01*
X124873000Y-125726250D01*
X124873000Y-124877000D01*
X124853000Y-124877000D01*
X124853000Y-124623000D01*
X124873000Y-124623000D01*
X124873000Y-123773750D01*
X125127000Y-123773750D01*
X125127000Y-124623000D01*
X125147000Y-124623000D01*
X125147000Y-124877000D01*
X125127000Y-124877000D01*
X125127000Y-125726250D01*
X125285750Y-125885000D01*
X125300000Y-125888072D01*
X125424482Y-125875812D01*
X125544180Y-125839502D01*
X125654494Y-125780537D01*
X125750000Y-125702158D01*
X125845505Y-125780537D01*
X125955819Y-125839502D01*
X126075517Y-125875812D01*
X126199999Y-125888072D01*
X126799999Y-125888072D01*
X126924481Y-125875812D01*
X127044179Y-125839502D01*
X127154493Y-125780537D01*
X127250000Y-125702157D01*
X127345507Y-125780537D01*
X127455821Y-125839502D01*
X127575519Y-125875812D01*
X127700001Y-125888072D01*
X128300001Y-125888072D01*
X128424483Y-125875812D01*
X128544181Y-125839502D01*
X128654495Y-125780537D01*
X128750001Y-125702158D01*
X128845507Y-125780537D01*
X128955821Y-125839502D01*
X129075519Y-125875812D01*
X129200001Y-125888072D01*
X129800001Y-125888072D01*
X129924483Y-125875812D01*
X130044181Y-125839502D01*
X130154495Y-125780537D01*
X130251186Y-125701185D01*
X130330538Y-125604494D01*
X130389503Y-125494180D01*
X130425813Y-125374482D01*
X130438073Y-125250000D01*
X130438073Y-124250000D01*
X130425813Y-124125518D01*
X130389503Y-124005820D01*
X130330538Y-123895506D01*
X130260001Y-123809556D01*
X130260001Y-123148061D01*
X164215000Y-123148061D01*
X164215000Y-123351939D01*
X164254774Y-123551898D01*
X164332795Y-123740256D01*
X164446063Y-123909774D01*
X164590226Y-124053937D01*
X164759744Y-124167205D01*
X164948102Y-124245226D01*
X165148061Y-124285000D01*
X165351939Y-124285000D01*
X165551898Y-124245226D01*
X165740256Y-124167205D01*
X165909774Y-124053937D01*
X166053937Y-123909774D01*
X166167205Y-123740256D01*
X166245226Y-123551898D01*
X166285000Y-123351939D01*
X166285000Y-123148061D01*
X166245226Y-122948102D01*
X166167205Y-122759744D01*
X166053937Y-122590226D01*
X165909774Y-122446063D01*
X165740256Y-122332795D01*
X165551898Y-122254774D01*
X165351939Y-122215000D01*
X165148061Y-122215000D01*
X164948102Y-122254774D01*
X164759744Y-122332795D01*
X164590226Y-122446063D01*
X164446063Y-122590226D01*
X164332795Y-122759744D01*
X164254774Y-122948102D01*
X164215000Y-123148061D01*
X130260001Y-123148061D01*
X130260001Y-121348708D01*
X130303937Y-121304772D01*
X130417205Y-121135254D01*
X130495226Y-120946896D01*
X130535000Y-120746937D01*
X130535000Y-120543059D01*
X130495226Y-120343100D01*
X130417205Y-120154742D01*
X130303937Y-119985224D01*
X130260001Y-119941288D01*
X130260001Y-118660000D01*
X130841927Y-118660000D01*
X130841927Y-120460000D01*
X130854187Y-120584482D01*
X130890497Y-120704180D01*
X130949462Y-120814494D01*
X131028814Y-120911185D01*
X131125505Y-120990537D01*
X131235819Y-121049502D01*
X131355517Y-121085812D01*
X131479999Y-121098072D01*
X132729999Y-121098072D01*
X132854481Y-121085812D01*
X132974179Y-121049502D01*
X133084493Y-120990537D01*
X133181184Y-120911185D01*
X133260536Y-120814494D01*
X133319501Y-120704180D01*
X133355811Y-120584482D01*
X133368071Y-120460000D01*
X133368071Y-118660000D01*
X133355811Y-118535518D01*
X133319501Y-118415820D01*
X133260536Y-118305506D01*
X133181184Y-118208815D01*
X133084493Y-118129463D01*
X132974179Y-118070498D01*
X132854481Y-118034188D01*
X132729999Y-118021928D01*
X131479999Y-118021928D01*
X131355517Y-118034188D01*
X131235819Y-118070498D01*
X131125505Y-118129463D01*
X131028814Y-118208815D01*
X130949462Y-118305506D01*
X130890497Y-118415820D01*
X130854187Y-118535518D01*
X130841927Y-118660000D01*
X130260001Y-118660000D01*
X130260001Y-116064800D01*
X136564802Y-109760000D01*
X138296289Y-109760000D01*
X138340226Y-109803937D01*
X138509744Y-109917205D01*
X138698102Y-109995226D01*
X138898061Y-110035000D01*
X139101939Y-110035000D01*
X139301898Y-109995226D01*
X139490256Y-109917205D01*
X139659774Y-109803937D01*
X139703711Y-109760000D01*
X151735498Y-109760000D01*
X151772820Y-109763676D01*
X151810142Y-109760000D01*
X151810153Y-109760000D01*
X151921806Y-109749003D01*
X152065067Y-109705546D01*
X152197096Y-109634974D01*
X152312821Y-109540001D01*
X152336624Y-109510997D01*
X155837622Y-106010000D01*
X161796289Y-106010000D01*
X161840226Y-106053937D01*
X162009744Y-106167205D01*
X162198102Y-106245226D01*
X162398061Y-106285000D01*
X162601939Y-106285000D01*
X162801898Y-106245226D01*
X162990256Y-106167205D01*
X163159774Y-106053937D01*
X163303937Y-105909774D01*
X163417205Y-105740256D01*
X163495226Y-105551898D01*
X163535000Y-105351939D01*
X163535000Y-105285000D01*
X163601939Y-105285000D01*
X163801898Y-105245226D01*
X163990256Y-105167205D01*
X164159774Y-105053937D01*
X164303937Y-104909774D01*
X164417205Y-104740256D01*
X164495226Y-104551898D01*
X164535000Y-104351939D01*
X164535000Y-104248587D01*
X164551898Y-104245226D01*
X164740256Y-104167205D01*
X164909774Y-104053937D01*
X165053937Y-103909774D01*
X165167205Y-103740256D01*
X165245226Y-103551898D01*
X165285000Y-103351939D01*
X165285000Y-103148061D01*
X165245226Y-102948102D01*
X165167205Y-102759744D01*
X165053937Y-102590226D01*
X164909774Y-102446063D01*
X164740256Y-102332795D01*
X164551898Y-102254774D01*
X164351939Y-102215000D01*
X164148061Y-102215000D01*
X163948102Y-102254774D01*
X163759744Y-102332795D01*
X163590226Y-102446063D01*
X163546289Y-102490000D01*
X156287325Y-102490000D01*
X156250000Y-102486324D01*
X156212675Y-102490000D01*
X156212667Y-102490000D01*
X156101014Y-102500997D01*
X155957753Y-102544454D01*
X155825724Y-102615026D01*
X155709999Y-102709999D01*
X155686201Y-102738997D01*
X151685199Y-106740000D01*
X151203711Y-106740000D01*
X151159774Y-106696063D01*
X150990256Y-106582795D01*
X150801898Y-106504774D01*
X150601939Y-106465000D01*
X150398061Y-106465000D01*
X150198102Y-106504774D01*
X150009744Y-106582795D01*
X149840226Y-106696063D01*
X149796289Y-106740000D01*
X136537323Y-106740000D01*
X136500000Y-106736324D01*
X136462677Y-106740000D01*
X136439847Y-106740000D01*
X136328194Y-106750997D01*
X136184933Y-106794454D01*
X136052904Y-106865026D01*
X135937179Y-106959999D01*
X135842206Y-107075724D01*
X135833859Y-107091340D01*
X135768528Y-107156671D01*
X135752912Y-107165018D01*
X135752898Y-107165030D01*
X135752886Y-107165036D01*
X135707349Y-107202411D01*
X135666186Y-107236192D01*
X135666169Y-107236209D01*
X135637165Y-107260014D01*
X135613383Y-107288995D01*
X125989002Y-116913377D01*
X125959998Y-116937180D01*
X125904870Y-117004355D01*
X125865025Y-117052905D01*
X125811207Y-117153590D01*
X125794453Y-117184935D01*
X125750996Y-117328196D01*
X125739999Y-117439849D01*
X125739999Y-117439859D01*
X125736323Y-117477181D01*
X125739999Y-117514503D01*
X125739999Y-117537332D01*
X125740000Y-117537342D01*
X125739999Y-122191287D01*
X125696063Y-122235223D01*
X125582795Y-122404741D01*
X125504774Y-122593099D01*
X125465000Y-122793058D01*
X125465000Y-122996936D01*
X125504774Y-123196895D01*
X125582795Y-123385253D01*
X125696063Y-123554771D01*
X125739999Y-123598707D01*
X125739999Y-123789635D01*
X125654494Y-123719463D01*
X125544180Y-123660498D01*
X125424482Y-123624188D01*
X125300000Y-123611928D01*
X125285750Y-123615000D01*
X125127000Y-123773750D01*
X124873000Y-123773750D01*
X124714250Y-123615000D01*
X124700000Y-123611928D01*
X124575518Y-123624188D01*
X124455820Y-123660498D01*
X124345506Y-123719463D01*
X124250000Y-123797842D01*
X124154494Y-123719463D01*
X124044180Y-123660498D01*
X123924482Y-123624188D01*
X123800000Y-123611928D01*
X123200000Y-123611928D01*
X123075518Y-123624188D01*
X122955820Y-123660498D01*
X122845506Y-123719463D01*
X122748815Y-123798815D01*
X122669463Y-123895506D01*
X122610498Y-124005820D01*
X122574188Y-124125518D01*
X122561928Y-124250000D01*
X118635000Y-124250000D01*
X118635000Y-118660000D01*
X119631929Y-118660000D01*
X119631929Y-120460000D01*
X119644189Y-120584482D01*
X119680499Y-120704180D01*
X119739464Y-120814494D01*
X119818816Y-120911185D01*
X119915507Y-120990537D01*
X120025821Y-121049502D01*
X120145519Y-121085812D01*
X120270001Y-121098072D01*
X121520001Y-121098072D01*
X121644483Y-121085812D01*
X121764181Y-121049502D01*
X121874495Y-120990537D01*
X121971186Y-120911185D01*
X122050538Y-120814494D01*
X122109503Y-120704180D01*
X122145813Y-120584482D01*
X122158073Y-120460000D01*
X122158073Y-118660000D01*
X122145813Y-118535518D01*
X122109503Y-118415820D01*
X122050538Y-118305506D01*
X121971186Y-118208815D01*
X121874495Y-118129463D01*
X121764181Y-118070498D01*
X121644483Y-118034188D01*
X121520001Y-118021928D01*
X120270001Y-118021928D01*
X120145519Y-118034188D01*
X120025821Y-118070498D01*
X119915507Y-118129463D01*
X119818816Y-118208815D01*
X119739464Y-118305506D01*
X119680499Y-118415820D01*
X119644189Y-118535518D01*
X119631929Y-118660000D01*
X118635000Y-118660000D01*
X118635000Y-89866578D01*
X131933996Y-76567582D01*
X136190000Y-76567582D01*
X136190001Y-82632419D01*
X136190226Y-82634702D01*
X136190274Y-82641602D01*
X136193408Y-82671421D01*
X136193408Y-82701405D01*
X136194371Y-82710570D01*
X136252022Y-83224536D01*
X136264458Y-83283039D01*
X136276078Y-83341727D01*
X136278803Y-83350530D01*
X136435185Y-83843509D01*
X136458736Y-83898456D01*
X136481545Y-83953797D01*
X136485929Y-83961903D01*
X136735087Y-84415120D01*
X136768856Y-84464439D01*
X136801985Y-84514303D01*
X136807860Y-84521403D01*
X137140302Y-84917593D01*
X137183052Y-84959456D01*
X137225192Y-85001892D01*
X137232334Y-85007716D01*
X137635399Y-85331789D01*
X137685452Y-85364542D01*
X137735045Y-85397994D01*
X137743182Y-85402320D01*
X138201518Y-85641931D01*
X138256950Y-85664327D01*
X138312126Y-85687521D01*
X138320948Y-85690184D01*
X138817094Y-85836208D01*
X138875828Y-85847412D01*
X138934451Y-85859446D01*
X138943623Y-85860345D01*
X139458683Y-85907219D01*
X139518501Y-85906801D01*
X139578318Y-85907219D01*
X139587489Y-85906319D01*
X139587491Y-85906319D01*
X140101845Y-85852258D01*
X140160401Y-85840238D01*
X140219201Y-85829022D01*
X140228023Y-85826358D01*
X140722084Y-85673421D01*
X140777252Y-85650230D01*
X140832691Y-85627832D01*
X140840827Y-85623506D01*
X141295772Y-85377519D01*
X141345373Y-85344063D01*
X141395420Y-85311313D01*
X141402561Y-85305489D01*
X141801062Y-84975820D01*
X141843221Y-84933365D01*
X141885951Y-84891521D01*
X141891825Y-84884420D01*
X142218704Y-84483628D01*
X142251798Y-84433817D01*
X142285604Y-84384445D01*
X142289987Y-84376339D01*
X142532792Y-83919687D01*
X142555583Y-83864393D01*
X142579153Y-83809400D01*
X142581878Y-83800597D01*
X142731362Y-83305482D01*
X142742982Y-83246794D01*
X142755418Y-83188291D01*
X142756381Y-83179126D01*
X142806850Y-82664405D01*
X142806850Y-82664402D01*
X142810000Y-82632419D01*
X142810000Y-76567582D01*
X146190000Y-76567582D01*
X146190001Y-82632419D01*
X146190226Y-82634702D01*
X146190274Y-82641602D01*
X146193408Y-82671421D01*
X146193408Y-82701405D01*
X146194371Y-82710570D01*
X146252022Y-83224536D01*
X146264458Y-83283039D01*
X146276078Y-83341727D01*
X146278803Y-83350530D01*
X146435185Y-83843509D01*
X146458736Y-83898456D01*
X146481545Y-83953797D01*
X146485929Y-83961903D01*
X146735087Y-84415120D01*
X146768856Y-84464439D01*
X146801985Y-84514303D01*
X146807860Y-84521403D01*
X147140302Y-84917593D01*
X147183052Y-84959456D01*
X147225192Y-85001892D01*
X147232334Y-85007716D01*
X147635399Y-85331789D01*
X147685452Y-85364542D01*
X147735045Y-85397994D01*
X147743182Y-85402320D01*
X148201518Y-85641931D01*
X148256950Y-85664327D01*
X148312126Y-85687521D01*
X148320948Y-85690184D01*
X148817094Y-85836208D01*
X148875828Y-85847412D01*
X148934451Y-85859446D01*
X148943623Y-85860345D01*
X149458683Y-85907219D01*
X149518501Y-85906801D01*
X149578318Y-85907219D01*
X149587489Y-85906319D01*
X149587491Y-85906319D01*
X150101845Y-85852258D01*
X150160401Y-85840238D01*
X150219201Y-85829022D01*
X150228023Y-85826358D01*
X150722084Y-85673421D01*
X150777252Y-85650230D01*
X150832691Y-85627832D01*
X150840827Y-85623506D01*
X151295772Y-85377519D01*
X151345373Y-85344063D01*
X151395420Y-85311313D01*
X151402561Y-85305489D01*
X151801062Y-84975820D01*
X151843221Y-84933365D01*
X151885951Y-84891521D01*
X151891825Y-84884420D01*
X152218704Y-84483628D01*
X152251798Y-84433817D01*
X152285604Y-84384445D01*
X152289987Y-84376339D01*
X152532792Y-83919687D01*
X152555583Y-83864393D01*
X152579153Y-83809400D01*
X152581878Y-83800597D01*
X152731362Y-83305482D01*
X152742982Y-83246794D01*
X152755418Y-83188291D01*
X152756381Y-83179126D01*
X152806850Y-82664405D01*
X152806850Y-82664402D01*
X152810000Y-82632419D01*
X152810000Y-76567581D01*
X152809774Y-76565287D01*
X152809726Y-76558398D01*
X152806592Y-76528579D01*
X152806592Y-76498594D01*
X152805629Y-76489430D01*
X152747978Y-75975464D01*
X152735542Y-75916961D01*
X152723922Y-75858273D01*
X152721197Y-75849470D01*
X152564815Y-75356490D01*
X152541259Y-75301530D01*
X152518455Y-75246203D01*
X152514072Y-75238097D01*
X152264913Y-74784880D01*
X152231126Y-74735535D01*
X152198014Y-74685697D01*
X152192140Y-74678597D01*
X151859697Y-74282407D01*
X151816967Y-74240563D01*
X151774808Y-74198108D01*
X151767666Y-74192284D01*
X151364601Y-73868212D01*
X151314582Y-73835481D01*
X151264955Y-73802006D01*
X151256818Y-73797680D01*
X150798482Y-73558068D01*
X150743017Y-73535659D01*
X150687874Y-73512479D01*
X150679052Y-73509816D01*
X150182905Y-73363792D01*
X150124186Y-73352591D01*
X150065549Y-73340554D01*
X150056378Y-73339655D01*
X149541317Y-73292781D01*
X149481500Y-73293199D01*
X149421682Y-73292781D01*
X149412511Y-73293681D01*
X148898155Y-73347742D01*
X148839624Y-73359757D01*
X148780799Y-73370978D01*
X148771977Y-73373642D01*
X148277917Y-73526579D01*
X148222762Y-73549764D01*
X148167309Y-73572168D01*
X148159177Y-73576493D01*
X148159172Y-73576495D01*
X148159168Y-73576498D01*
X147704228Y-73822481D01*
X147654627Y-73855937D01*
X147604580Y-73888687D01*
X147597439Y-73894512D01*
X147198938Y-74224180D01*
X147156781Y-74266632D01*
X147114048Y-74308479D01*
X147108174Y-74315580D01*
X146781296Y-74716373D01*
X146748203Y-74766181D01*
X146714396Y-74815555D01*
X146710013Y-74823661D01*
X146467207Y-75280313D01*
X146444408Y-75335628D01*
X146420847Y-75390600D01*
X146418122Y-75399403D01*
X146268638Y-75894518D01*
X146257015Y-75953221D01*
X146244582Y-76011710D01*
X146243619Y-76020874D01*
X146193150Y-76535595D01*
X146190000Y-76567582D01*
X142810000Y-76567582D01*
X142810000Y-76567581D01*
X142809774Y-76565287D01*
X142809726Y-76558398D01*
X142806592Y-76528579D01*
X142806592Y-76498594D01*
X142805629Y-76489430D01*
X142747978Y-75975464D01*
X142735542Y-75916961D01*
X142723922Y-75858273D01*
X142721197Y-75849470D01*
X142564815Y-75356490D01*
X142541259Y-75301530D01*
X142518455Y-75246203D01*
X142514072Y-75238097D01*
X142264913Y-74784880D01*
X142231126Y-74735535D01*
X142198014Y-74685697D01*
X142192140Y-74678597D01*
X141859697Y-74282407D01*
X141816967Y-74240563D01*
X141774808Y-74198108D01*
X141767666Y-74192284D01*
X141364601Y-73868212D01*
X141314582Y-73835481D01*
X141264955Y-73802006D01*
X141256818Y-73797680D01*
X140798482Y-73558068D01*
X140743017Y-73535659D01*
X140687874Y-73512479D01*
X140679052Y-73509816D01*
X140182905Y-73363792D01*
X140124186Y-73352591D01*
X140065549Y-73340554D01*
X140056378Y-73339655D01*
X139541317Y-73292781D01*
X139481500Y-73293199D01*
X139421682Y-73292781D01*
X139412511Y-73293681D01*
X138898155Y-73347742D01*
X138839624Y-73359757D01*
X138780799Y-73370978D01*
X138771977Y-73373642D01*
X138277917Y-73526579D01*
X138222762Y-73549764D01*
X138167309Y-73572168D01*
X138159177Y-73576493D01*
X138159172Y-73576495D01*
X138159168Y-73576498D01*
X137704228Y-73822481D01*
X137654627Y-73855937D01*
X137604580Y-73888687D01*
X137597439Y-73894512D01*
X137198938Y-74224180D01*
X137156781Y-74266632D01*
X137114048Y-74308479D01*
X137108174Y-74315580D01*
X136781296Y-74716373D01*
X136748203Y-74766181D01*
X136714396Y-74815555D01*
X136710013Y-74823661D01*
X136467207Y-75280313D01*
X136444408Y-75335628D01*
X136420847Y-75390600D01*
X136418122Y-75399403D01*
X136268638Y-75894518D01*
X136257015Y-75953221D01*
X136244582Y-76011710D01*
X136243619Y-76020874D01*
X136193150Y-76535595D01*
X136190000Y-76567582D01*
X131933996Y-76567582D01*
X136866579Y-71635000D01*
X138305672Y-71635000D01*
X138357988Y-71761302D01*
X138591637Y-72110983D01*
X138889017Y-72408363D01*
X139238698Y-72642012D01*
X139627244Y-72802953D01*
X140039721Y-72885000D01*
X140460279Y-72885000D01*
X140872756Y-72802953D01*
X141261302Y-72642012D01*
X141610983Y-72408363D01*
X141777693Y-72241653D01*
X147937952Y-72241653D01*
X148093962Y-72557214D01*
X148468745Y-72748020D01*
X148873551Y-72862044D01*
X149292824Y-72894902D01*
X149710451Y-72845334D01*
X150110383Y-72715243D01*
X150406038Y-72557214D01*
X150562048Y-72241653D01*
X149250000Y-70929605D01*
X147937952Y-72241653D01*
X141777693Y-72241653D01*
X141908363Y-72110983D01*
X142142012Y-71761302D01*
X142302953Y-71372756D01*
X142385000Y-70960279D01*
X142385000Y-70792824D01*
X147105098Y-70792824D01*
X147154666Y-71210451D01*
X147284757Y-71610383D01*
X147442786Y-71906038D01*
X147758347Y-72062048D01*
X149070395Y-70750000D01*
X149429605Y-70750000D01*
X150741653Y-72062048D01*
X151057214Y-71906038D01*
X151248020Y-71531255D01*
X151362044Y-71126449D01*
X151394902Y-70707176D01*
X151345334Y-70289549D01*
X151215243Y-69889617D01*
X151057214Y-69593962D01*
X150741653Y-69437952D01*
X149429605Y-70750000D01*
X149070395Y-70750000D01*
X147758347Y-69437952D01*
X147442786Y-69593962D01*
X147251980Y-69968745D01*
X147137956Y-70373551D01*
X147105098Y-70792824D01*
X142385000Y-70792824D01*
X142385000Y-70539721D01*
X142302953Y-70127244D01*
X142142012Y-69738698D01*
X141908363Y-69389017D01*
X141777693Y-69258347D01*
X147937952Y-69258347D01*
X149250000Y-70570395D01*
X150562048Y-69258347D01*
X150406038Y-68942786D01*
X150031255Y-68751980D01*
X149626449Y-68637956D01*
X149207176Y-68605098D01*
X148789549Y-68654666D01*
X148389617Y-68784757D01*
X148093962Y-68942786D01*
X147937952Y-69258347D01*
X141777693Y-69258347D01*
X141610983Y-69091637D01*
X141261302Y-68857988D01*
X140872756Y-68697047D01*
X140460279Y-68615000D01*
X140039721Y-68615000D01*
X139627244Y-68697047D01*
X139238698Y-68857988D01*
X138889017Y-69091637D01*
X138591637Y-69389017D01*
X138357988Y-69738698D01*
X138305672Y-69865000D01*
X136543465Y-69865000D01*
X136499999Y-69860719D01*
X136456533Y-69865000D01*
X136456523Y-69865000D01*
X136326510Y-69877805D01*
X136159687Y-69928411D01*
X136005941Y-70010589D01*
X136005939Y-70010590D01*
X136005940Y-70010590D01*
X135904953Y-70093468D01*
X135904951Y-70093470D01*
X135871183Y-70121183D01*
X135843470Y-70154951D01*
X117885000Y-88113422D01*
X117885000Y-72694328D01*
X118011302Y-72642012D01*
X118360983Y-72408363D01*
X118527693Y-72241653D01*
X124687952Y-72241653D01*
X124843962Y-72557214D01*
X125218745Y-72748020D01*
X125623551Y-72862044D01*
X126042824Y-72894902D01*
X126460451Y-72845334D01*
X126860383Y-72715243D01*
X127156038Y-72557214D01*
X127312048Y-72241653D01*
X126000000Y-70929605D01*
X124687952Y-72241653D01*
X118527693Y-72241653D01*
X118658363Y-72110983D01*
X118892012Y-71761302D01*
X119052953Y-71372756D01*
X119135000Y-70960279D01*
X119135000Y-70792824D01*
X123855098Y-70792824D01*
X123904666Y-71210451D01*
X124034757Y-71610383D01*
X124192786Y-71906038D01*
X124508347Y-72062048D01*
X125820395Y-70750000D01*
X126179605Y-70750000D01*
X127491653Y-72062048D01*
X127807214Y-71906038D01*
X127998020Y-71531255D01*
X128112044Y-71126449D01*
X128144902Y-70707176D01*
X128095334Y-70289549D01*
X127965243Y-69889617D01*
X127807214Y-69593962D01*
X127491653Y-69437952D01*
X126179605Y-70750000D01*
X125820395Y-70750000D01*
X124508347Y-69437952D01*
X124192786Y-69593962D01*
X124001980Y-69968745D01*
X123887956Y-70373551D01*
X123855098Y-70792824D01*
X119135000Y-70792824D01*
X119135000Y-70539721D01*
X119052953Y-70127244D01*
X118892012Y-69738698D01*
X118658363Y-69389017D01*
X118527693Y-69258347D01*
X124687952Y-69258347D01*
X126000000Y-70570395D01*
X127312048Y-69258347D01*
X127156038Y-68942786D01*
X126781255Y-68751980D01*
X126376449Y-68637956D01*
X125957176Y-68605098D01*
X125539549Y-68654666D01*
X125139617Y-68784757D01*
X124843962Y-68942786D01*
X124687952Y-69258347D01*
X118527693Y-69258347D01*
X118360983Y-69091637D01*
X118011302Y-68857988D01*
X117622756Y-68697047D01*
X117210279Y-68615000D01*
X116789721Y-68615000D01*
X116377244Y-68697047D01*
X115988698Y-68857988D01*
X115639017Y-69091637D01*
X115341637Y-69389017D01*
X115107988Y-69738698D01*
X114947047Y-70127244D01*
X114865000Y-70539721D01*
X108138955Y-70539721D01*
X108144623Y-70511227D01*
X108144623Y-70088773D01*
X108062206Y-69674437D01*
X107900540Y-69284140D01*
X107665838Y-68932882D01*
X107367118Y-68634162D01*
X107015860Y-68399460D01*
X106625563Y-68237794D01*
X106211227Y-68155377D01*
X105788773Y-68155377D01*
X105374437Y-68237794D01*
X104984140Y-68399460D01*
X104632882Y-68634162D01*
X104334162Y-68932882D01*
X104099460Y-69284140D01*
X103937794Y-69674437D01*
X103855377Y-70088773D01*
X103660000Y-70088773D01*
X103660000Y-66410000D01*
X185340001Y-66410000D01*
X185340000Y-163090000D01*
%TA.AperFunction,Conductor*%
D17*
G36*
X185340000Y-163090000D02*
G01*
X103660000Y-163090000D01*
X103660000Y-159088773D01*
X103855377Y-159088773D01*
X103855377Y-159511227D01*
X103937794Y-159925563D01*
X104099460Y-160315860D01*
X104334162Y-160667118D01*
X104632882Y-160965838D01*
X104984140Y-161200540D01*
X105374437Y-161362206D01*
X105788773Y-161444623D01*
X106211227Y-161444623D01*
X106625563Y-161362206D01*
X107015860Y-161200540D01*
X107367118Y-160965838D01*
X107665838Y-160667118D01*
X107900540Y-160315860D01*
X108062206Y-159925563D01*
X108144623Y-159511227D01*
X108144623Y-159088773D01*
X108062206Y-158674437D01*
X107900540Y-158284140D01*
X107665838Y-157932882D01*
X107367118Y-157634162D01*
X107015860Y-157399460D01*
X106625563Y-157237794D01*
X106211227Y-157155377D01*
X105788773Y-157155377D01*
X105374437Y-157237794D01*
X104984140Y-157399460D01*
X104632882Y-157634162D01*
X104334162Y-157932882D01*
X104099460Y-158284140D01*
X103937794Y-158674437D01*
X103855377Y-159088773D01*
X103660000Y-159088773D01*
X103660000Y-141826053D01*
X105210914Y-141826053D01*
X105210914Y-142473947D01*
X105337312Y-143109391D01*
X105585250Y-143707966D01*
X105945200Y-144246670D01*
X106403330Y-144704800D01*
X106942034Y-145064750D01*
X107540609Y-145312688D01*
X108176053Y-145439086D01*
X108823947Y-145439086D01*
X109459391Y-145312688D01*
X110057966Y-145064750D01*
X110596670Y-144704800D01*
X111054800Y-144246670D01*
X111414750Y-143707966D01*
X111662688Y-143109391D01*
X111789086Y-142473947D01*
X111789086Y-141826053D01*
X111662688Y-141190609D01*
X111414750Y-140592034D01*
X111054800Y-140053330D01*
X110596670Y-139595200D01*
X110057966Y-139235250D01*
X109459391Y-138987312D01*
X108823947Y-138860914D01*
X108176053Y-138860914D01*
X107540609Y-138987312D01*
X106942034Y-139235250D01*
X106403330Y-139595200D01*
X105945200Y-140053330D01*
X105585250Y-140592034D01*
X105337312Y-141190609D01*
X105210914Y-141826053D01*
X103660000Y-141826053D01*
X103660000Y-114326053D01*
X105210914Y-114326053D01*
X105210914Y-114973947D01*
X105337312Y-115609391D01*
X105585250Y-116207966D01*
X105945200Y-116746670D01*
X106403330Y-117204800D01*
X106942034Y-117564750D01*
X107540609Y-117812688D01*
X108176053Y-117939086D01*
X108823947Y-117939086D01*
X109459391Y-117812688D01*
X110057966Y-117564750D01*
X110596670Y-117204800D01*
X111054800Y-116746670D01*
X111414750Y-116207966D01*
X111662688Y-115609391D01*
X111789086Y-114973947D01*
X111789086Y-114326053D01*
X111662688Y-113690609D01*
X111414750Y-113092034D01*
X111054800Y-112553330D01*
X110596670Y-112095200D01*
X110057966Y-111735250D01*
X109459391Y-111487312D01*
X108823947Y-111360914D01*
X108176053Y-111360914D01*
X107540609Y-111487312D01*
X106942034Y-111735250D01*
X106403330Y-112095200D01*
X105945200Y-112553330D01*
X105585250Y-113092034D01*
X105337312Y-113690609D01*
X105210914Y-114326053D01*
X103660000Y-114326053D01*
X103660000Y-70088773D01*
X103855377Y-70088773D01*
X103855377Y-70511227D01*
X103937794Y-70925563D01*
X104099460Y-71315860D01*
X104334162Y-71667118D01*
X104632882Y-71965838D01*
X104984140Y-72200540D01*
X105374437Y-72362206D01*
X105788773Y-72444623D01*
X106211227Y-72444623D01*
X106625563Y-72362206D01*
X107015860Y-72200540D01*
X107367118Y-71965838D01*
X107665838Y-71667118D01*
X107900540Y-71315860D01*
X108062206Y-70925563D01*
X108138955Y-70539721D01*
X114865000Y-70539721D01*
X114865000Y-70960279D01*
X114947047Y-71372756D01*
X115107988Y-71761302D01*
X115341637Y-72110983D01*
X115639017Y-72408363D01*
X115988698Y-72642012D01*
X116115000Y-72694328D01*
X116115001Y-156805672D01*
X115988698Y-156857988D01*
X115639017Y-157091637D01*
X115341637Y-157389017D01*
X115107988Y-157738698D01*
X114947047Y-158127244D01*
X114865000Y-158539721D01*
X114865000Y-158960279D01*
X114947047Y-159372756D01*
X115107988Y-159761302D01*
X115341637Y-160110983D01*
X115639017Y-160408363D01*
X115988698Y-160642012D01*
X116377244Y-160802953D01*
X116789721Y-160885000D01*
X117210279Y-160885000D01*
X117622756Y-160802953D01*
X118011302Y-160642012D01*
X118360983Y-160408363D01*
X118658363Y-160110983D01*
X118892012Y-159761302D01*
X119052953Y-159372756D01*
X119135000Y-158960279D01*
X119135000Y-158539721D01*
X123865000Y-158539721D01*
X123865000Y-158960279D01*
X123947047Y-159372756D01*
X124107988Y-159761302D01*
X124341637Y-160110983D01*
X124639017Y-160408363D01*
X124988698Y-160642012D01*
X125377244Y-160802953D01*
X125789721Y-160885000D01*
X126210279Y-160885000D01*
X126622756Y-160802953D01*
X127011302Y-160642012D01*
X127360983Y-160408363D01*
X127658363Y-160110983D01*
X127892012Y-159761302D01*
X128052953Y-159372756D01*
X128135000Y-158960279D01*
X128135000Y-158539721D01*
X128052953Y-158127244D01*
X127892012Y-157738698D01*
X127658363Y-157389017D01*
X127360983Y-157091637D01*
X127011302Y-156857988D01*
X126622756Y-156697047D01*
X126210279Y-156615000D01*
X125789721Y-156615000D01*
X125377244Y-156697047D01*
X124988698Y-156857988D01*
X124639017Y-157091637D01*
X124341637Y-157389017D01*
X124107988Y-157738698D01*
X123947047Y-158127244D01*
X123865000Y-158539721D01*
X119135000Y-158539721D01*
X119052953Y-158127244D01*
X118892012Y-157738698D01*
X118658363Y-157389017D01*
X118360983Y-157091637D01*
X118011302Y-156857988D01*
X117885000Y-156805672D01*
X117885000Y-141636578D01*
X135593470Y-159345049D01*
X135621183Y-159378817D01*
X135654951Y-159406530D01*
X135654953Y-159406532D01*
X135755941Y-159489411D01*
X135909687Y-159571589D01*
X136076510Y-159622195D01*
X136206523Y-159635000D01*
X136206531Y-159635000D01*
X136250000Y-159639281D01*
X136293469Y-159635000D01*
X138055672Y-159635000D01*
X138107988Y-159761302D01*
X138341637Y-160110983D01*
X138639017Y-160408363D01*
X138988698Y-160642012D01*
X139377244Y-160802953D01*
X139789721Y-160885000D01*
X140210279Y-160885000D01*
X140622756Y-160802953D01*
X141011302Y-160642012D01*
X141360983Y-160408363D01*
X141658363Y-160110983D01*
X141892012Y-159761302D01*
X142052953Y-159372756D01*
X142135000Y-158960279D01*
X142135000Y-158539721D01*
X146865000Y-158539721D01*
X146865000Y-158960279D01*
X146947047Y-159372756D01*
X147107988Y-159761302D01*
X147341637Y-160110983D01*
X147639017Y-160408363D01*
X147988698Y-160642012D01*
X148377244Y-160802953D01*
X148789721Y-160885000D01*
X149210279Y-160885000D01*
X149622756Y-160802953D01*
X150011302Y-160642012D01*
X150360983Y-160408363D01*
X150658363Y-160110983D01*
X150892012Y-159761302D01*
X151052953Y-159372756D01*
X151135000Y-158960279D01*
X151135000Y-158539721D01*
X160865000Y-158539721D01*
X160865000Y-158960279D01*
X160947047Y-159372756D01*
X161107988Y-159761302D01*
X161341637Y-160110983D01*
X161639017Y-160408363D01*
X161988698Y-160642012D01*
X162377244Y-160802953D01*
X162789721Y-160885000D01*
X163210279Y-160885000D01*
X163622756Y-160802953D01*
X164011302Y-160642012D01*
X164360983Y-160408363D01*
X164658363Y-160110983D01*
X164892012Y-159761302D01*
X165052953Y-159372756D01*
X165135000Y-158960279D01*
X165135000Y-158539721D01*
X169865000Y-158539721D01*
X169865000Y-158960279D01*
X169947047Y-159372756D01*
X170107988Y-159761302D01*
X170341637Y-160110983D01*
X170639017Y-160408363D01*
X170988698Y-160642012D01*
X171377244Y-160802953D01*
X171789721Y-160885000D01*
X172210279Y-160885000D01*
X172622756Y-160802953D01*
X173011302Y-160642012D01*
X173360983Y-160408363D01*
X173658363Y-160110983D01*
X173892012Y-159761302D01*
X174052953Y-159372756D01*
X174109440Y-159088773D01*
X180855377Y-159088773D01*
X180855377Y-159511227D01*
X180937794Y-159925563D01*
X181099460Y-160315860D01*
X181334162Y-160667118D01*
X181632882Y-160965838D01*
X181984140Y-161200540D01*
X182374437Y-161362206D01*
X182788773Y-161444623D01*
X183211227Y-161444623D01*
X183625563Y-161362206D01*
X184015860Y-161200540D01*
X184367118Y-160965838D01*
X184665838Y-160667118D01*
X184900540Y-160315860D01*
X185062206Y-159925563D01*
X185144623Y-159511227D01*
X185144623Y-159088773D01*
X185062206Y-158674437D01*
X184900540Y-158284140D01*
X184665838Y-157932882D01*
X184367118Y-157634162D01*
X184015860Y-157399460D01*
X183625563Y-157237794D01*
X183211227Y-157155377D01*
X182788773Y-157155377D01*
X182374437Y-157237794D01*
X181984140Y-157399460D01*
X181632882Y-157634162D01*
X181334162Y-157932882D01*
X181099460Y-158284140D01*
X180937794Y-158674437D01*
X180855377Y-159088773D01*
X174109440Y-159088773D01*
X174135000Y-158960279D01*
X174135000Y-158539721D01*
X174052953Y-158127244D01*
X173892012Y-157738698D01*
X173658363Y-157389017D01*
X173360983Y-157091637D01*
X173011302Y-156857988D01*
X172622756Y-156697047D01*
X172210279Y-156615000D01*
X171789721Y-156615000D01*
X171377244Y-156697047D01*
X170988698Y-156857988D01*
X170639017Y-157091637D01*
X170341637Y-157389017D01*
X170107988Y-157738698D01*
X169947047Y-158127244D01*
X169865000Y-158539721D01*
X165135000Y-158539721D01*
X165052953Y-158127244D01*
X164892012Y-157738698D01*
X164840289Y-157661289D01*
X169945050Y-152556529D01*
X169978818Y-152528816D01*
X170014255Y-152485637D01*
X170089412Y-152394058D01*
X170171590Y-152240313D01*
X170222196Y-152073489D01*
X170235001Y-151943476D01*
X170235001Y-151943468D01*
X170239282Y-151899999D01*
X170235001Y-151856530D01*
X170235001Y-141826053D01*
X177210914Y-141826053D01*
X177210914Y-142473947D01*
X177337312Y-143109391D01*
X177585250Y-143707966D01*
X177945200Y-144246670D01*
X178403330Y-144704800D01*
X178942034Y-145064750D01*
X179540609Y-145312688D01*
X180176053Y-145439086D01*
X180823947Y-145439086D01*
X181459391Y-145312688D01*
X182057966Y-145064750D01*
X182596670Y-144704800D01*
X183054800Y-144246670D01*
X183414750Y-143707966D01*
X183662688Y-143109391D01*
X183789086Y-142473947D01*
X183789086Y-141826053D01*
X183662688Y-141190609D01*
X183414750Y-140592034D01*
X183054800Y-140053330D01*
X182596670Y-139595200D01*
X182057966Y-139235250D01*
X181459391Y-138987312D01*
X180823947Y-138860914D01*
X180176053Y-138860914D01*
X179540609Y-138987312D01*
X178942034Y-139235250D01*
X178403330Y-139595200D01*
X177945200Y-140053330D01*
X177585250Y-140592034D01*
X177337312Y-141190609D01*
X177210914Y-141826053D01*
X170235001Y-141826053D01*
X170235001Y-121898061D01*
X177465000Y-121898061D01*
X177465000Y-122101939D01*
X177504774Y-122301898D01*
X177582795Y-122490256D01*
X177696063Y-122659774D01*
X177786289Y-122750000D01*
X177696063Y-122840226D01*
X177582795Y-123009744D01*
X177504774Y-123198102D01*
X177465000Y-123398061D01*
X177465000Y-123601939D01*
X177504774Y-123801898D01*
X177582795Y-123990256D01*
X177696063Y-124159774D01*
X177840226Y-124303937D01*
X178009744Y-124417205D01*
X178198102Y-124495226D01*
X178398061Y-124535000D01*
X178601939Y-124535000D01*
X178801898Y-124495226D01*
X178990256Y-124417205D01*
X179159774Y-124303937D01*
X179303937Y-124159774D01*
X179417205Y-123990256D01*
X179495226Y-123801898D01*
X179535000Y-123601939D01*
X179535000Y-123398061D01*
X179495226Y-123198102D01*
X179417205Y-123009744D01*
X179303937Y-122840226D01*
X179213711Y-122750000D01*
X179303937Y-122659774D01*
X179417205Y-122490256D01*
X179495226Y-122301898D01*
X179535000Y-122101939D01*
X179535000Y-121898061D01*
X179495226Y-121698102D01*
X179417205Y-121509744D01*
X179303937Y-121340226D01*
X179159774Y-121196063D01*
X178990256Y-121082795D01*
X178801898Y-121004774D01*
X178601939Y-120965000D01*
X178398061Y-120965000D01*
X178198102Y-121004774D01*
X178009744Y-121082795D01*
X177840226Y-121196063D01*
X177696063Y-121340226D01*
X177582795Y-121509744D01*
X177504774Y-121698102D01*
X177465000Y-121898061D01*
X170235001Y-121898061D01*
X170235001Y-114326053D01*
X177210914Y-114326053D01*
X177210914Y-114973947D01*
X177337312Y-115609391D01*
X177585250Y-116207966D01*
X177945200Y-116746670D01*
X178403330Y-117204800D01*
X178942034Y-117564750D01*
X179540609Y-117812688D01*
X180176053Y-117939086D01*
X180823947Y-117939086D01*
X181459391Y-117812688D01*
X182057966Y-117564750D01*
X182596670Y-117204800D01*
X183054800Y-116746670D01*
X183414750Y-116207966D01*
X183662688Y-115609391D01*
X183789086Y-114973947D01*
X183789086Y-114326053D01*
X183662688Y-113690609D01*
X183414750Y-113092034D01*
X183054800Y-112553330D01*
X182596670Y-112095200D01*
X182057966Y-111735250D01*
X181459391Y-111487312D01*
X180823947Y-111360914D01*
X180176053Y-111360914D01*
X179540609Y-111487312D01*
X178942034Y-111735250D01*
X178403330Y-112095200D01*
X177945200Y-112553330D01*
X177585250Y-113092034D01*
X177337312Y-113690609D01*
X177210914Y-114326053D01*
X170235001Y-114326053D01*
X170235001Y-77643470D01*
X170239282Y-77600001D01*
X170235001Y-77556532D01*
X170235001Y-77556524D01*
X170222196Y-77426511D01*
X170171685Y-77260000D01*
X170171590Y-77259687D01*
X170089412Y-77105942D01*
X170006533Y-77004954D01*
X170006531Y-77004952D01*
X169978818Y-76971184D01*
X169945052Y-76943473D01*
X165243232Y-72241653D01*
X170937952Y-72241653D01*
X171093962Y-72557214D01*
X171468745Y-72748020D01*
X171873551Y-72862044D01*
X172292824Y-72894902D01*
X172710451Y-72845334D01*
X173110383Y-72715243D01*
X173406038Y-72557214D01*
X173562048Y-72241653D01*
X172250000Y-70929605D01*
X170937952Y-72241653D01*
X165243232Y-72241653D01*
X164990153Y-71988575D01*
X165142012Y-71761302D01*
X165302953Y-71372756D01*
X165385000Y-70960279D01*
X165385000Y-70792824D01*
X170105098Y-70792824D01*
X170154666Y-71210451D01*
X170284757Y-71610383D01*
X170442786Y-71906038D01*
X170758347Y-72062048D01*
X172070395Y-70750000D01*
X172429605Y-70750000D01*
X173741653Y-72062048D01*
X174057214Y-71906038D01*
X174248020Y-71531255D01*
X174362044Y-71126449D01*
X174394902Y-70707176D01*
X174345334Y-70289549D01*
X174280026Y-70088773D01*
X180855377Y-70088773D01*
X180855377Y-70511227D01*
X180937794Y-70925563D01*
X181099460Y-71315860D01*
X181334162Y-71667118D01*
X181632882Y-71965838D01*
X181984140Y-72200540D01*
X182374437Y-72362206D01*
X182788773Y-72444623D01*
X183211227Y-72444623D01*
X183625563Y-72362206D01*
X184015860Y-72200540D01*
X184367118Y-71965838D01*
X184665838Y-71667118D01*
X184900540Y-71315860D01*
X185062206Y-70925563D01*
X185144623Y-70511227D01*
X185144623Y-70088773D01*
X185062206Y-69674437D01*
X184900540Y-69284140D01*
X184665838Y-68932882D01*
X184367118Y-68634162D01*
X184015860Y-68399460D01*
X183625563Y-68237794D01*
X183211227Y-68155377D01*
X182788773Y-68155377D01*
X182374437Y-68237794D01*
X181984140Y-68399460D01*
X181632882Y-68634162D01*
X181334162Y-68932882D01*
X181099460Y-69284140D01*
X180937794Y-69674437D01*
X180855377Y-70088773D01*
X174280026Y-70088773D01*
X174215243Y-69889617D01*
X174057214Y-69593962D01*
X173741653Y-69437952D01*
X172429605Y-70750000D01*
X172070395Y-70750000D01*
X170758347Y-69437952D01*
X170442786Y-69593962D01*
X170251980Y-69968745D01*
X170137956Y-70373551D01*
X170105098Y-70792824D01*
X165385000Y-70792824D01*
X165385000Y-70539721D01*
X165302953Y-70127244D01*
X165142012Y-69738698D01*
X164908363Y-69389017D01*
X164777693Y-69258347D01*
X170937952Y-69258347D01*
X172250000Y-70570395D01*
X173562048Y-69258347D01*
X173406038Y-68942786D01*
X173031255Y-68751980D01*
X172626449Y-68637956D01*
X172207176Y-68605098D01*
X171789549Y-68654666D01*
X171389617Y-68784757D01*
X171093962Y-68942786D01*
X170937952Y-69258347D01*
X164777693Y-69258347D01*
X164610983Y-69091637D01*
X164261302Y-68857988D01*
X163872756Y-68697047D01*
X163460279Y-68615000D01*
X163039721Y-68615000D01*
X162627244Y-68697047D01*
X162238698Y-68857988D01*
X161889017Y-69091637D01*
X161591637Y-69389017D01*
X161357988Y-69738698D01*
X161197047Y-70127244D01*
X161115000Y-70539721D01*
X161115000Y-70960279D01*
X161197047Y-71372756D01*
X161357988Y-71761302D01*
X161591637Y-72110983D01*
X161889017Y-72408363D01*
X162238698Y-72642012D01*
X162627244Y-72802953D01*
X163039721Y-72885000D01*
X163383422Y-72885000D01*
X168465001Y-77966580D01*
X168465002Y-151533419D01*
X163354696Y-156643726D01*
X163210279Y-156615000D01*
X162789721Y-156615000D01*
X162377244Y-156697047D01*
X161988698Y-156857988D01*
X161639017Y-157091637D01*
X161341637Y-157389017D01*
X161107988Y-157738698D01*
X160947047Y-158127244D01*
X160865000Y-158539721D01*
X151135000Y-158539721D01*
X151052953Y-158127244D01*
X150892012Y-157738698D01*
X150658363Y-157389017D01*
X150360983Y-157091637D01*
X150011302Y-156857988D01*
X149622756Y-156697047D01*
X149210279Y-156615000D01*
X148789721Y-156615000D01*
X148377244Y-156697047D01*
X147988698Y-156857988D01*
X147639017Y-157091637D01*
X147341637Y-157389017D01*
X147107988Y-157738698D01*
X146947047Y-158127244D01*
X146865000Y-158539721D01*
X142135000Y-158539721D01*
X142052953Y-158127244D01*
X141892012Y-157738698D01*
X141658363Y-157389017D01*
X141360983Y-157091637D01*
X141011302Y-156857988D01*
X140622756Y-156697047D01*
X140210279Y-156615000D01*
X139789721Y-156615000D01*
X139377244Y-156697047D01*
X138988698Y-156857988D01*
X138639017Y-157091637D01*
X138341637Y-157389017D01*
X138107988Y-157738698D01*
X138055672Y-157865000D01*
X136616579Y-157865000D01*
X131783997Y-153032418D01*
X136190000Y-153032418D01*
X136190226Y-153034712D01*
X136190274Y-153041602D01*
X136193408Y-153071421D01*
X136193408Y-153101405D01*
X136194371Y-153110570D01*
X136252022Y-153624536D01*
X136264458Y-153683039D01*
X136276078Y-153741727D01*
X136278803Y-153750530D01*
X136435185Y-154243509D01*
X136458736Y-154298456D01*
X136481545Y-154353797D01*
X136485929Y-154361903D01*
X136735087Y-154815120D01*
X136768856Y-154864439D01*
X136801985Y-154914303D01*
X136807860Y-154921403D01*
X137140302Y-155317593D01*
X137183052Y-155359456D01*
X137225192Y-155401892D01*
X137232334Y-155407716D01*
X137635399Y-155731789D01*
X137685452Y-155764542D01*
X137735045Y-155797994D01*
X137743182Y-155802320D01*
X138201518Y-156041931D01*
X138256950Y-156064327D01*
X138312126Y-156087521D01*
X138320948Y-156090184D01*
X138817094Y-156236208D01*
X138875828Y-156247412D01*
X138934451Y-156259446D01*
X138943623Y-156260345D01*
X139458683Y-156307219D01*
X139518501Y-156306801D01*
X139578318Y-156307219D01*
X139587489Y-156306319D01*
X139587491Y-156306319D01*
X140101845Y-156252258D01*
X140160401Y-156240238D01*
X140219201Y-156229022D01*
X140228023Y-156226358D01*
X140722084Y-156073421D01*
X140777252Y-156050230D01*
X140832691Y-156027832D01*
X140840827Y-156023506D01*
X141295772Y-155777519D01*
X141345373Y-155744063D01*
X141395420Y-155711313D01*
X141402561Y-155705489D01*
X141801062Y-155375820D01*
X141843221Y-155333365D01*
X141885951Y-155291521D01*
X141891825Y-155284420D01*
X142218704Y-154883628D01*
X142251798Y-154833817D01*
X142285604Y-154784445D01*
X142289987Y-154776339D01*
X142532792Y-154319687D01*
X142555583Y-154264393D01*
X142579153Y-154209400D01*
X142581878Y-154200597D01*
X142731362Y-153705482D01*
X142742982Y-153646794D01*
X142755418Y-153588291D01*
X142756381Y-153579126D01*
X142806850Y-153064405D01*
X142806850Y-153064402D01*
X142810000Y-153032419D01*
X142810000Y-146967582D01*
X146190000Y-146967582D01*
X146190001Y-153032419D01*
X146190226Y-153034702D01*
X146190274Y-153041602D01*
X146193408Y-153071421D01*
X146193408Y-153101405D01*
X146194371Y-153110570D01*
X146252022Y-153624536D01*
X146264458Y-153683039D01*
X146276078Y-153741727D01*
X146278803Y-153750530D01*
X146435185Y-154243509D01*
X146458736Y-154298456D01*
X146481545Y-154353797D01*
X146485929Y-154361903D01*
X146735087Y-154815120D01*
X146768856Y-154864439D01*
X146801985Y-154914303D01*
X146807860Y-154921403D01*
X147140302Y-155317593D01*
X147183052Y-155359456D01*
X147225192Y-155401892D01*
X147232334Y-155407716D01*
X147635399Y-155731789D01*
X147685452Y-155764542D01*
X147735045Y-155797994D01*
X147743182Y-155802320D01*
X148201518Y-156041931D01*
X148256950Y-156064327D01*
X148312126Y-156087521D01*
X148320948Y-156090184D01*
X148817094Y-156236208D01*
X148875828Y-156247412D01*
X148934451Y-156259446D01*
X148943623Y-156260345D01*
X149458683Y-156307219D01*
X149518501Y-156306801D01*
X149578318Y-156307219D01*
X149587489Y-156306319D01*
X149587491Y-156306319D01*
X150101845Y-156252258D01*
X150160401Y-156240238D01*
X150219201Y-156229022D01*
X150228023Y-156226358D01*
X150722084Y-156073421D01*
X150777252Y-156050230D01*
X150832691Y-156027832D01*
X150840827Y-156023506D01*
X151295772Y-155777519D01*
X151345373Y-155744063D01*
X151395420Y-155711313D01*
X151402561Y-155705489D01*
X151801062Y-155375820D01*
X151843221Y-155333365D01*
X151885951Y-155291521D01*
X151891825Y-155284420D01*
X152218704Y-154883628D01*
X152251798Y-154833817D01*
X152285604Y-154784445D01*
X152289987Y-154776339D01*
X152532792Y-154319687D01*
X152555583Y-154264393D01*
X152579153Y-154209400D01*
X152581878Y-154200597D01*
X152731362Y-153705482D01*
X152742982Y-153646794D01*
X152755418Y-153588291D01*
X152756381Y-153579126D01*
X152806850Y-153064405D01*
X152806850Y-153064402D01*
X152810000Y-153032419D01*
X152810000Y-146967581D01*
X152809774Y-146965287D01*
X152809726Y-146958398D01*
X152806592Y-146928579D01*
X152806592Y-146898594D01*
X152805629Y-146889430D01*
X152747978Y-146375464D01*
X152735542Y-146316961D01*
X152723922Y-146258273D01*
X152721197Y-146249470D01*
X152564815Y-145756490D01*
X152541259Y-145701530D01*
X152518455Y-145646203D01*
X152514072Y-145638097D01*
X152264913Y-145184880D01*
X152231126Y-145135535D01*
X152198014Y-145085697D01*
X152192140Y-145078597D01*
X151859697Y-144682407D01*
X151816967Y-144640563D01*
X151774808Y-144598108D01*
X151767666Y-144592284D01*
X151364601Y-144268212D01*
X151314582Y-144235481D01*
X151264955Y-144202006D01*
X151256818Y-144197680D01*
X150798482Y-143958068D01*
X150743017Y-143935659D01*
X150687874Y-143912479D01*
X150679052Y-143909816D01*
X150182905Y-143763792D01*
X150124186Y-143752591D01*
X150065549Y-143740554D01*
X150056378Y-143739655D01*
X149541317Y-143692781D01*
X149481500Y-143693199D01*
X149421682Y-143692781D01*
X149412511Y-143693681D01*
X148898155Y-143747742D01*
X148839624Y-143759757D01*
X148780799Y-143770978D01*
X148771977Y-143773642D01*
X148277917Y-143926579D01*
X148222762Y-143949764D01*
X148167309Y-143972168D01*
X148159177Y-143976493D01*
X148159172Y-143976495D01*
X148159168Y-143976498D01*
X147704228Y-144222481D01*
X147654627Y-144255937D01*
X147604580Y-144288687D01*
X147597439Y-144294512D01*
X147198938Y-144624180D01*
X147156781Y-144666632D01*
X147114048Y-144708479D01*
X147108174Y-144715580D01*
X146781296Y-145116373D01*
X146748203Y-145166181D01*
X146714396Y-145215555D01*
X146710013Y-145223661D01*
X146467207Y-145680313D01*
X146444408Y-145735628D01*
X146420847Y-145790600D01*
X146418122Y-145799403D01*
X146268638Y-146294518D01*
X146257015Y-146353221D01*
X146244582Y-146411710D01*
X146243619Y-146420874D01*
X146193150Y-146935595D01*
X146190000Y-146967582D01*
X142810000Y-146967582D01*
X142810000Y-146967581D01*
X142809774Y-146965287D01*
X142809726Y-146958398D01*
X142806592Y-146928579D01*
X142806592Y-146898594D01*
X142805629Y-146889430D01*
X142747978Y-146375464D01*
X142735542Y-146316961D01*
X142723922Y-146258273D01*
X142721197Y-146249470D01*
X142564815Y-145756490D01*
X142541259Y-145701530D01*
X142518455Y-145646203D01*
X142514072Y-145638097D01*
X142264913Y-145184880D01*
X142231126Y-145135535D01*
X142198014Y-145085697D01*
X142192140Y-145078597D01*
X141859697Y-144682407D01*
X141816967Y-144640563D01*
X141774808Y-144598108D01*
X141767666Y-144592284D01*
X141364601Y-144268212D01*
X141314582Y-144235481D01*
X141264955Y-144202006D01*
X141256818Y-144197680D01*
X140798482Y-143958068D01*
X140743017Y-143935659D01*
X140687874Y-143912479D01*
X140679052Y-143909816D01*
X140182905Y-143763792D01*
X140124186Y-143752591D01*
X140065549Y-143740554D01*
X140056378Y-143739655D01*
X139541317Y-143692781D01*
X139481500Y-143693199D01*
X139421682Y-143692781D01*
X139412511Y-143693681D01*
X138898155Y-143747742D01*
X138839624Y-143759757D01*
X138780799Y-143770978D01*
X138771977Y-143773642D01*
X138277917Y-143926579D01*
X138222762Y-143949764D01*
X138167309Y-143972168D01*
X138159177Y-143976493D01*
X138159172Y-143976495D01*
X138159168Y-143976498D01*
X137704228Y-144222481D01*
X137654627Y-144255937D01*
X137604580Y-144288687D01*
X137597439Y-144294512D01*
X137198938Y-144624180D01*
X137156781Y-144666632D01*
X137114048Y-144708479D01*
X137108174Y-144715580D01*
X136781296Y-145116373D01*
X136748203Y-145166181D01*
X136714396Y-145215555D01*
X136710013Y-145223661D01*
X136467207Y-145680313D01*
X136444408Y-145735628D01*
X136420847Y-145790600D01*
X136418122Y-145799403D01*
X136268638Y-146294518D01*
X136257015Y-146353221D01*
X136244582Y-146411710D01*
X136243619Y-146420874D01*
X136193150Y-146935595D01*
X136193150Y-146935608D01*
X136190001Y-146967581D01*
X136190000Y-153032418D01*
X131783997Y-153032418D01*
X118635000Y-139883422D01*
X118635000Y-124250000D01*
X122561928Y-124250000D01*
X122561928Y-125250000D01*
X122574188Y-125374482D01*
X122610498Y-125494180D01*
X122615000Y-125502603D01*
X122615001Y-127456521D01*
X122610719Y-127500000D01*
X122627805Y-127673490D01*
X122678412Y-127840313D01*
X122760590Y-127994059D01*
X122843468Y-128095046D01*
X122843471Y-128095049D01*
X122871184Y-128128817D01*
X122904951Y-128156529D01*
X123743465Y-128995044D01*
X123754774Y-129051898D01*
X123832795Y-129240256D01*
X123946063Y-129409774D01*
X124090226Y-129553937D01*
X124259744Y-129667205D01*
X124448102Y-129745226D01*
X124648061Y-129785000D01*
X124851939Y-129785000D01*
X125051898Y-129745226D01*
X125240256Y-129667205D01*
X125409774Y-129553937D01*
X125553937Y-129409774D01*
X125667205Y-129240256D01*
X125745226Y-129051898D01*
X125785000Y-128851939D01*
X125785000Y-128648061D01*
X125745226Y-128448102D01*
X125667205Y-128259744D01*
X125553937Y-128090226D01*
X125409774Y-127946063D01*
X125240256Y-127832795D01*
X125051898Y-127754774D01*
X124995044Y-127743465D01*
X124385000Y-127133422D01*
X124385000Y-125801647D01*
X124455820Y-125839502D01*
X124575518Y-125875812D01*
X124700000Y-125888072D01*
X124714250Y-125885000D01*
X124873000Y-125726250D01*
X124873000Y-124877000D01*
X124853000Y-124877000D01*
X124853000Y-124623000D01*
X124873000Y-124623000D01*
X124873000Y-123773750D01*
X125127000Y-123773750D01*
X125127000Y-124623000D01*
X125147000Y-124623000D01*
X125147000Y-124877000D01*
X125127000Y-124877000D01*
X125127000Y-125726250D01*
X125285750Y-125885000D01*
X125300000Y-125888072D01*
X125424482Y-125875812D01*
X125544180Y-125839502D01*
X125654494Y-125780537D01*
X125750000Y-125702158D01*
X125845505Y-125780537D01*
X125955819Y-125839502D01*
X126075517Y-125875812D01*
X126199999Y-125888072D01*
X126799999Y-125888072D01*
X126924481Y-125875812D01*
X127044179Y-125839502D01*
X127154493Y-125780537D01*
X127250000Y-125702157D01*
X127345507Y-125780537D01*
X127455821Y-125839502D01*
X127575519Y-125875812D01*
X127700001Y-125888072D01*
X128300001Y-125888072D01*
X128424483Y-125875812D01*
X128544181Y-125839502D01*
X128654495Y-125780537D01*
X128750001Y-125702158D01*
X128845507Y-125780537D01*
X128955821Y-125839502D01*
X129075519Y-125875812D01*
X129200001Y-125888072D01*
X129800001Y-125888072D01*
X129924483Y-125875812D01*
X130044181Y-125839502D01*
X130154495Y-125780537D01*
X130251186Y-125701185D01*
X130330538Y-125604494D01*
X130389503Y-125494180D01*
X130425813Y-125374482D01*
X130438073Y-125250000D01*
X130438073Y-124250000D01*
X130425813Y-124125518D01*
X130389503Y-124005820D01*
X130330538Y-123895506D01*
X130260001Y-123809556D01*
X130260001Y-123148061D01*
X164215000Y-123148061D01*
X164215000Y-123351939D01*
X164254774Y-123551898D01*
X164332795Y-123740256D01*
X164446063Y-123909774D01*
X164590226Y-124053937D01*
X164759744Y-124167205D01*
X164948102Y-124245226D01*
X165148061Y-124285000D01*
X165351939Y-124285000D01*
X165551898Y-124245226D01*
X165740256Y-124167205D01*
X165909774Y-124053937D01*
X166053937Y-123909774D01*
X166167205Y-123740256D01*
X166245226Y-123551898D01*
X166285000Y-123351939D01*
X166285000Y-123148061D01*
X166245226Y-122948102D01*
X166167205Y-122759744D01*
X166053937Y-122590226D01*
X165909774Y-122446063D01*
X165740256Y-122332795D01*
X165551898Y-122254774D01*
X165351939Y-122215000D01*
X165148061Y-122215000D01*
X164948102Y-122254774D01*
X164759744Y-122332795D01*
X164590226Y-122446063D01*
X164446063Y-122590226D01*
X164332795Y-122759744D01*
X164254774Y-122948102D01*
X164215000Y-123148061D01*
X130260001Y-123148061D01*
X130260001Y-121348708D01*
X130303937Y-121304772D01*
X130417205Y-121135254D01*
X130495226Y-120946896D01*
X130535000Y-120746937D01*
X130535000Y-120543059D01*
X130495226Y-120343100D01*
X130417205Y-120154742D01*
X130303937Y-119985224D01*
X130260001Y-119941288D01*
X130260001Y-118660000D01*
X130841927Y-118660000D01*
X130841927Y-120460000D01*
X130854187Y-120584482D01*
X130890497Y-120704180D01*
X130949462Y-120814494D01*
X131028814Y-120911185D01*
X131125505Y-120990537D01*
X131235819Y-121049502D01*
X131355517Y-121085812D01*
X131479999Y-121098072D01*
X132729999Y-121098072D01*
X132854481Y-121085812D01*
X132974179Y-121049502D01*
X133084493Y-120990537D01*
X133181184Y-120911185D01*
X133260536Y-120814494D01*
X133319501Y-120704180D01*
X133355811Y-120584482D01*
X133368071Y-120460000D01*
X133368071Y-118660000D01*
X133355811Y-118535518D01*
X133319501Y-118415820D01*
X133260536Y-118305506D01*
X133181184Y-118208815D01*
X133084493Y-118129463D01*
X132974179Y-118070498D01*
X132854481Y-118034188D01*
X132729999Y-118021928D01*
X131479999Y-118021928D01*
X131355517Y-118034188D01*
X131235819Y-118070498D01*
X131125505Y-118129463D01*
X131028814Y-118208815D01*
X130949462Y-118305506D01*
X130890497Y-118415820D01*
X130854187Y-118535518D01*
X130841927Y-118660000D01*
X130260001Y-118660000D01*
X130260001Y-116064800D01*
X136564802Y-109760000D01*
X138296289Y-109760000D01*
X138340226Y-109803937D01*
X138509744Y-109917205D01*
X138698102Y-109995226D01*
X138898061Y-110035000D01*
X139101939Y-110035000D01*
X139301898Y-109995226D01*
X139490256Y-109917205D01*
X139659774Y-109803937D01*
X139703711Y-109760000D01*
X151735498Y-109760000D01*
X151772820Y-109763676D01*
X151810142Y-109760000D01*
X151810153Y-109760000D01*
X151921806Y-109749003D01*
X152065067Y-109705546D01*
X152197096Y-109634974D01*
X152312821Y-109540001D01*
X152336624Y-109510997D01*
X155837622Y-106010000D01*
X161796289Y-106010000D01*
X161840226Y-106053937D01*
X162009744Y-106167205D01*
X162198102Y-106245226D01*
X162398061Y-106285000D01*
X162601939Y-106285000D01*
X162801898Y-106245226D01*
X162990256Y-106167205D01*
X163159774Y-106053937D01*
X163303937Y-105909774D01*
X163417205Y-105740256D01*
X163495226Y-105551898D01*
X163535000Y-105351939D01*
X163535000Y-105285000D01*
X163601939Y-105285000D01*
X163801898Y-105245226D01*
X163990256Y-105167205D01*
X164159774Y-105053937D01*
X164303937Y-104909774D01*
X164417205Y-104740256D01*
X164495226Y-104551898D01*
X164535000Y-104351939D01*
X164535000Y-104248587D01*
X164551898Y-104245226D01*
X164740256Y-104167205D01*
X164909774Y-104053937D01*
X165053937Y-103909774D01*
X165167205Y-103740256D01*
X165245226Y-103551898D01*
X165285000Y-103351939D01*
X165285000Y-103148061D01*
X165245226Y-102948102D01*
X165167205Y-102759744D01*
X165053937Y-102590226D01*
X164909774Y-102446063D01*
X164740256Y-102332795D01*
X164551898Y-102254774D01*
X164351939Y-102215000D01*
X164148061Y-102215000D01*
X163948102Y-102254774D01*
X163759744Y-102332795D01*
X163590226Y-102446063D01*
X163546289Y-102490000D01*
X156287325Y-102490000D01*
X156250000Y-102486324D01*
X156212675Y-102490000D01*
X156212667Y-102490000D01*
X156101014Y-102500997D01*
X155957753Y-102544454D01*
X155825724Y-102615026D01*
X155709999Y-102709999D01*
X155686201Y-102738997D01*
X151685199Y-106740000D01*
X151203711Y-106740000D01*
X151159774Y-106696063D01*
X150990256Y-106582795D01*
X150801898Y-106504774D01*
X150601939Y-106465000D01*
X150398061Y-106465000D01*
X150198102Y-106504774D01*
X150009744Y-106582795D01*
X149840226Y-106696063D01*
X149796289Y-106740000D01*
X136537323Y-106740000D01*
X136500000Y-106736324D01*
X136462677Y-106740000D01*
X136439847Y-106740000D01*
X136328194Y-106750997D01*
X136184933Y-106794454D01*
X136052904Y-106865026D01*
X135937179Y-106959999D01*
X135842206Y-107075724D01*
X135833859Y-107091340D01*
X135768528Y-107156671D01*
X135752912Y-107165018D01*
X135752898Y-107165030D01*
X135752886Y-107165036D01*
X135707349Y-107202411D01*
X135666186Y-107236192D01*
X135666169Y-107236209D01*
X135637165Y-107260014D01*
X135613383Y-107288995D01*
X125989002Y-116913377D01*
X125959998Y-116937180D01*
X125904870Y-117004355D01*
X125865025Y-117052905D01*
X125811207Y-117153590D01*
X125794453Y-117184935D01*
X125750996Y-117328196D01*
X125739999Y-117439849D01*
X125739999Y-117439859D01*
X125736323Y-117477181D01*
X125739999Y-117514503D01*
X125739999Y-117537332D01*
X125740000Y-117537342D01*
X125739999Y-122191287D01*
X125696063Y-122235223D01*
X125582795Y-122404741D01*
X125504774Y-122593099D01*
X125465000Y-122793058D01*
X125465000Y-122996936D01*
X125504774Y-123196895D01*
X125582795Y-123385253D01*
X125696063Y-123554771D01*
X125739999Y-123598707D01*
X125739999Y-123789635D01*
X125654494Y-123719463D01*
X125544180Y-123660498D01*
X125424482Y-123624188D01*
X125300000Y-123611928D01*
X125285750Y-123615000D01*
X125127000Y-123773750D01*
X124873000Y-123773750D01*
X124714250Y-123615000D01*
X124700000Y-123611928D01*
X124575518Y-123624188D01*
X124455820Y-123660498D01*
X124345506Y-123719463D01*
X124250000Y-123797842D01*
X124154494Y-123719463D01*
X124044180Y-123660498D01*
X123924482Y-123624188D01*
X123800000Y-123611928D01*
X123200000Y-123611928D01*
X123075518Y-123624188D01*
X122955820Y-123660498D01*
X122845506Y-123719463D01*
X122748815Y-123798815D01*
X122669463Y-123895506D01*
X122610498Y-124005820D01*
X122574188Y-124125518D01*
X122561928Y-124250000D01*
X118635000Y-124250000D01*
X118635000Y-118660000D01*
X119631929Y-118660000D01*
X119631929Y-120460000D01*
X119644189Y-120584482D01*
X119680499Y-120704180D01*
X119739464Y-120814494D01*
X119818816Y-120911185D01*
X119915507Y-120990537D01*
X120025821Y-121049502D01*
X120145519Y-121085812D01*
X120270001Y-121098072D01*
X121520001Y-121098072D01*
X121644483Y-121085812D01*
X121764181Y-121049502D01*
X121874495Y-120990537D01*
X121971186Y-120911185D01*
X122050538Y-120814494D01*
X122109503Y-120704180D01*
X122145813Y-120584482D01*
X122158073Y-120460000D01*
X122158073Y-118660000D01*
X122145813Y-118535518D01*
X122109503Y-118415820D01*
X122050538Y-118305506D01*
X121971186Y-118208815D01*
X121874495Y-118129463D01*
X121764181Y-118070498D01*
X121644483Y-118034188D01*
X121520001Y-118021928D01*
X120270001Y-118021928D01*
X120145519Y-118034188D01*
X120025821Y-118070498D01*
X119915507Y-118129463D01*
X119818816Y-118208815D01*
X119739464Y-118305506D01*
X119680499Y-118415820D01*
X119644189Y-118535518D01*
X119631929Y-118660000D01*
X118635000Y-118660000D01*
X118635000Y-89866578D01*
X131933996Y-76567582D01*
X136190000Y-76567582D01*
X136190001Y-82632419D01*
X136190226Y-82634702D01*
X136190274Y-82641602D01*
X136193408Y-82671421D01*
X136193408Y-82701405D01*
X136194371Y-82710570D01*
X136252022Y-83224536D01*
X136264458Y-83283039D01*
X136276078Y-83341727D01*
X136278803Y-83350530D01*
X136435185Y-83843509D01*
X136458736Y-83898456D01*
X136481545Y-83953797D01*
X136485929Y-83961903D01*
X136735087Y-84415120D01*
X136768856Y-84464439D01*
X136801985Y-84514303D01*
X136807860Y-84521403D01*
X137140302Y-84917593D01*
X137183052Y-84959456D01*
X137225192Y-85001892D01*
X137232334Y-85007716D01*
X137635399Y-85331789D01*
X137685452Y-85364542D01*
X137735045Y-85397994D01*
X137743182Y-85402320D01*
X138201518Y-85641931D01*
X138256950Y-85664327D01*
X138312126Y-85687521D01*
X138320948Y-85690184D01*
X138817094Y-85836208D01*
X138875828Y-85847412D01*
X138934451Y-85859446D01*
X138943623Y-85860345D01*
X139458683Y-85907219D01*
X139518501Y-85906801D01*
X139578318Y-85907219D01*
X139587489Y-85906319D01*
X139587491Y-85906319D01*
X140101845Y-85852258D01*
X140160401Y-85840238D01*
X140219201Y-85829022D01*
X140228023Y-85826358D01*
X140722084Y-85673421D01*
X140777252Y-85650230D01*
X140832691Y-85627832D01*
X140840827Y-85623506D01*
X141295772Y-85377519D01*
X141345373Y-85344063D01*
X141395420Y-85311313D01*
X141402561Y-85305489D01*
X141801062Y-84975820D01*
X141843221Y-84933365D01*
X141885951Y-84891521D01*
X141891825Y-84884420D01*
X142218704Y-84483628D01*
X142251798Y-84433817D01*
X142285604Y-84384445D01*
X142289987Y-84376339D01*
X142532792Y-83919687D01*
X142555583Y-83864393D01*
X142579153Y-83809400D01*
X142581878Y-83800597D01*
X142731362Y-83305482D01*
X142742982Y-83246794D01*
X142755418Y-83188291D01*
X142756381Y-83179126D01*
X142806850Y-82664405D01*
X142806850Y-82664402D01*
X142810000Y-82632419D01*
X142810000Y-76567582D01*
X146190000Y-76567582D01*
X146190001Y-82632419D01*
X146190226Y-82634702D01*
X146190274Y-82641602D01*
X146193408Y-82671421D01*
X146193408Y-82701405D01*
X146194371Y-82710570D01*
X146252022Y-83224536D01*
X146264458Y-83283039D01*
X146276078Y-83341727D01*
X146278803Y-83350530D01*
X146435185Y-83843509D01*
X146458736Y-83898456D01*
X146481545Y-83953797D01*
X146485929Y-83961903D01*
X146735087Y-84415120D01*
X146768856Y-84464439D01*
X146801985Y-84514303D01*
X146807860Y-84521403D01*
X147140302Y-84917593D01*
X147183052Y-84959456D01*
X147225192Y-85001892D01*
X147232334Y-85007716D01*
X147635399Y-85331789D01*
X147685452Y-85364542D01*
X147735045Y-85397994D01*
X147743182Y-85402320D01*
X148201518Y-85641931D01*
X148256950Y-85664327D01*
X148312126Y-85687521D01*
X148320948Y-85690184D01*
X148817094Y-85836208D01*
X148875828Y-85847412D01*
X148934451Y-85859446D01*
X148943623Y-85860345D01*
X149458683Y-85907219D01*
X149518501Y-85906801D01*
X149578318Y-85907219D01*
X149587489Y-85906319D01*
X149587491Y-85906319D01*
X150101845Y-85852258D01*
X150160401Y-85840238D01*
X150219201Y-85829022D01*
X150228023Y-85826358D01*
X150722084Y-85673421D01*
X150777252Y-85650230D01*
X150832691Y-85627832D01*
X150840827Y-85623506D01*
X151295772Y-85377519D01*
X151345373Y-85344063D01*
X151395420Y-85311313D01*
X151402561Y-85305489D01*
X151801062Y-84975820D01*
X151843221Y-84933365D01*
X151885951Y-84891521D01*
X151891825Y-84884420D01*
X152218704Y-84483628D01*
X152251798Y-84433817D01*
X152285604Y-84384445D01*
X152289987Y-84376339D01*
X152532792Y-83919687D01*
X152555583Y-83864393D01*
X152579153Y-83809400D01*
X152581878Y-83800597D01*
X152731362Y-83305482D01*
X152742982Y-83246794D01*
X152755418Y-83188291D01*
X152756381Y-83179126D01*
X152806850Y-82664405D01*
X152806850Y-82664402D01*
X152810000Y-82632419D01*
X152810000Y-76567581D01*
X152809774Y-76565287D01*
X152809726Y-76558398D01*
X152806592Y-76528579D01*
X152806592Y-76498594D01*
X152805629Y-76489430D01*
X152747978Y-75975464D01*
X152735542Y-75916961D01*
X152723922Y-75858273D01*
X152721197Y-75849470D01*
X152564815Y-75356490D01*
X152541259Y-75301530D01*
X152518455Y-75246203D01*
X152514072Y-75238097D01*
X152264913Y-74784880D01*
X152231126Y-74735535D01*
X152198014Y-74685697D01*
X152192140Y-74678597D01*
X151859697Y-74282407D01*
X151816967Y-74240563D01*
X151774808Y-74198108D01*
X151767666Y-74192284D01*
X151364601Y-73868212D01*
X151314582Y-73835481D01*
X151264955Y-73802006D01*
X151256818Y-73797680D01*
X150798482Y-73558068D01*
X150743017Y-73535659D01*
X150687874Y-73512479D01*
X150679052Y-73509816D01*
X150182905Y-73363792D01*
X150124186Y-73352591D01*
X150065549Y-73340554D01*
X150056378Y-73339655D01*
X149541317Y-73292781D01*
X149481500Y-73293199D01*
X149421682Y-73292781D01*
X149412511Y-73293681D01*
X148898155Y-73347742D01*
X148839624Y-73359757D01*
X148780799Y-73370978D01*
X148771977Y-73373642D01*
X148277917Y-73526579D01*
X148222762Y-73549764D01*
X148167309Y-73572168D01*
X148159177Y-73576493D01*
X148159172Y-73576495D01*
X148159168Y-73576498D01*
X147704228Y-73822481D01*
X147654627Y-73855937D01*
X147604580Y-73888687D01*
X147597439Y-73894512D01*
X147198938Y-74224180D01*
X147156781Y-74266632D01*
X147114048Y-74308479D01*
X147108174Y-74315580D01*
X146781296Y-74716373D01*
X146748203Y-74766181D01*
X146714396Y-74815555D01*
X146710013Y-74823661D01*
X146467207Y-75280313D01*
X146444408Y-75335628D01*
X146420847Y-75390600D01*
X146418122Y-75399403D01*
X146268638Y-75894518D01*
X146257015Y-75953221D01*
X146244582Y-76011710D01*
X146243619Y-76020874D01*
X146193150Y-76535595D01*
X146190000Y-76567582D01*
X142810000Y-76567582D01*
X142810000Y-76567581D01*
X142809774Y-76565287D01*
X142809726Y-76558398D01*
X142806592Y-76528579D01*
X142806592Y-76498594D01*
X142805629Y-76489430D01*
X142747978Y-75975464D01*
X142735542Y-75916961D01*
X142723922Y-75858273D01*
X142721197Y-75849470D01*
X142564815Y-75356490D01*
X142541259Y-75301530D01*
X142518455Y-75246203D01*
X142514072Y-75238097D01*
X142264913Y-74784880D01*
X142231126Y-74735535D01*
X142198014Y-74685697D01*
X142192140Y-74678597D01*
X141859697Y-74282407D01*
X141816967Y-74240563D01*
X141774808Y-74198108D01*
X141767666Y-74192284D01*
X141364601Y-73868212D01*
X141314582Y-73835481D01*
X141264955Y-73802006D01*
X141256818Y-73797680D01*
X140798482Y-73558068D01*
X140743017Y-73535659D01*
X140687874Y-73512479D01*
X140679052Y-73509816D01*
X140182905Y-73363792D01*
X140124186Y-73352591D01*
X140065549Y-73340554D01*
X140056378Y-73339655D01*
X139541317Y-73292781D01*
X139481500Y-73293199D01*
X139421682Y-73292781D01*
X139412511Y-73293681D01*
X138898155Y-73347742D01*
X138839624Y-73359757D01*
X138780799Y-73370978D01*
X138771977Y-73373642D01*
X138277917Y-73526579D01*
X138222762Y-73549764D01*
X138167309Y-73572168D01*
X138159177Y-73576493D01*
X138159172Y-73576495D01*
X138159168Y-73576498D01*
X137704228Y-73822481D01*
X137654627Y-73855937D01*
X137604580Y-73888687D01*
X137597439Y-73894512D01*
X137198938Y-74224180D01*
X137156781Y-74266632D01*
X137114048Y-74308479D01*
X137108174Y-74315580D01*
X136781296Y-74716373D01*
X136748203Y-74766181D01*
X136714396Y-74815555D01*
X136710013Y-74823661D01*
X136467207Y-75280313D01*
X136444408Y-75335628D01*
X136420847Y-75390600D01*
X136418122Y-75399403D01*
X136268638Y-75894518D01*
X136257015Y-75953221D01*
X136244582Y-76011710D01*
X136243619Y-76020874D01*
X136193150Y-76535595D01*
X136190000Y-76567582D01*
X131933996Y-76567582D01*
X136866579Y-71635000D01*
X138305672Y-71635000D01*
X138357988Y-71761302D01*
X138591637Y-72110983D01*
X138889017Y-72408363D01*
X139238698Y-72642012D01*
X139627244Y-72802953D01*
X140039721Y-72885000D01*
X140460279Y-72885000D01*
X140872756Y-72802953D01*
X141261302Y-72642012D01*
X141610983Y-72408363D01*
X141777693Y-72241653D01*
X147937952Y-72241653D01*
X148093962Y-72557214D01*
X148468745Y-72748020D01*
X148873551Y-72862044D01*
X149292824Y-72894902D01*
X149710451Y-72845334D01*
X150110383Y-72715243D01*
X150406038Y-72557214D01*
X150562048Y-72241653D01*
X149250000Y-70929605D01*
X147937952Y-72241653D01*
X141777693Y-72241653D01*
X141908363Y-72110983D01*
X142142012Y-71761302D01*
X142302953Y-71372756D01*
X142385000Y-70960279D01*
X142385000Y-70792824D01*
X147105098Y-70792824D01*
X147154666Y-71210451D01*
X147284757Y-71610383D01*
X147442786Y-71906038D01*
X147758347Y-72062048D01*
X149070395Y-70750000D01*
X149429605Y-70750000D01*
X150741653Y-72062048D01*
X151057214Y-71906038D01*
X151248020Y-71531255D01*
X151362044Y-71126449D01*
X151394902Y-70707176D01*
X151345334Y-70289549D01*
X151215243Y-69889617D01*
X151057214Y-69593962D01*
X150741653Y-69437952D01*
X149429605Y-70750000D01*
X149070395Y-70750000D01*
X147758347Y-69437952D01*
X147442786Y-69593962D01*
X147251980Y-69968745D01*
X147137956Y-70373551D01*
X147105098Y-70792824D01*
X142385000Y-70792824D01*
X142385000Y-70539721D01*
X142302953Y-70127244D01*
X142142012Y-69738698D01*
X141908363Y-69389017D01*
X141777693Y-69258347D01*
X147937952Y-69258347D01*
X149250000Y-70570395D01*
X150562048Y-69258347D01*
X150406038Y-68942786D01*
X150031255Y-68751980D01*
X149626449Y-68637956D01*
X149207176Y-68605098D01*
X148789549Y-68654666D01*
X148389617Y-68784757D01*
X148093962Y-68942786D01*
X147937952Y-69258347D01*
X141777693Y-69258347D01*
X141610983Y-69091637D01*
X141261302Y-68857988D01*
X140872756Y-68697047D01*
X140460279Y-68615000D01*
X140039721Y-68615000D01*
X139627244Y-68697047D01*
X139238698Y-68857988D01*
X138889017Y-69091637D01*
X138591637Y-69389017D01*
X138357988Y-69738698D01*
X138305672Y-69865000D01*
X136543465Y-69865000D01*
X136499999Y-69860719D01*
X136456533Y-69865000D01*
X136456523Y-69865000D01*
X136326510Y-69877805D01*
X136159687Y-69928411D01*
X136005941Y-70010589D01*
X136005939Y-70010590D01*
X136005940Y-70010590D01*
X135904953Y-70093468D01*
X135904951Y-70093470D01*
X135871183Y-70121183D01*
X135843470Y-70154951D01*
X117885000Y-88113422D01*
X117885000Y-72694328D01*
X118011302Y-72642012D01*
X118360983Y-72408363D01*
X118527693Y-72241653D01*
X124687952Y-72241653D01*
X124843962Y-72557214D01*
X125218745Y-72748020D01*
X125623551Y-72862044D01*
X126042824Y-72894902D01*
X126460451Y-72845334D01*
X126860383Y-72715243D01*
X127156038Y-72557214D01*
X127312048Y-72241653D01*
X126000000Y-70929605D01*
X124687952Y-72241653D01*
X118527693Y-72241653D01*
X118658363Y-72110983D01*
X118892012Y-71761302D01*
X119052953Y-71372756D01*
X119135000Y-70960279D01*
X119135000Y-70792824D01*
X123855098Y-70792824D01*
X123904666Y-71210451D01*
X124034757Y-71610383D01*
X124192786Y-71906038D01*
X124508347Y-72062048D01*
X125820395Y-70750000D01*
X126179605Y-70750000D01*
X127491653Y-72062048D01*
X127807214Y-71906038D01*
X127998020Y-71531255D01*
X128112044Y-71126449D01*
X128144902Y-70707176D01*
X128095334Y-70289549D01*
X127965243Y-69889617D01*
X127807214Y-69593962D01*
X127491653Y-69437952D01*
X126179605Y-70750000D01*
X125820395Y-70750000D01*
X124508347Y-69437952D01*
X124192786Y-69593962D01*
X124001980Y-69968745D01*
X123887956Y-70373551D01*
X123855098Y-70792824D01*
X119135000Y-70792824D01*
X119135000Y-70539721D01*
X119052953Y-70127244D01*
X118892012Y-69738698D01*
X118658363Y-69389017D01*
X118527693Y-69258347D01*
X124687952Y-69258347D01*
X126000000Y-70570395D01*
X127312048Y-69258347D01*
X127156038Y-68942786D01*
X126781255Y-68751980D01*
X126376449Y-68637956D01*
X125957176Y-68605098D01*
X125539549Y-68654666D01*
X125139617Y-68784757D01*
X124843962Y-68942786D01*
X124687952Y-69258347D01*
X118527693Y-69258347D01*
X118360983Y-69091637D01*
X118011302Y-68857988D01*
X117622756Y-68697047D01*
X117210279Y-68615000D01*
X116789721Y-68615000D01*
X116377244Y-68697047D01*
X115988698Y-68857988D01*
X115639017Y-69091637D01*
X115341637Y-69389017D01*
X115107988Y-69738698D01*
X114947047Y-70127244D01*
X114865000Y-70539721D01*
X108138955Y-70539721D01*
X108144623Y-70511227D01*
X108144623Y-70088773D01*
X108062206Y-69674437D01*
X107900540Y-69284140D01*
X107665838Y-68932882D01*
X107367118Y-68634162D01*
X107015860Y-68399460D01*
X106625563Y-68237794D01*
X106211227Y-68155377D01*
X105788773Y-68155377D01*
X105374437Y-68237794D01*
X104984140Y-68399460D01*
X104632882Y-68634162D01*
X104334162Y-68932882D01*
X104099460Y-69284140D01*
X103937794Y-69674437D01*
X103855377Y-70088773D01*
X103660000Y-70088773D01*
X103660000Y-66410000D01*
X185340001Y-66410000D01*
X185340000Y-163090000D01*
G37*
%TD.AperFunction*%
%TD*%
M02*
