M48
; DRILL file {KiCad (5.1.10)-1} date 05/06/22 13:33:04
; FORMAT={-:-/ absolute / metric / decimal}
; #@! TF.CreationDate,2022-05-06T13:33:04-07:00
; #@! TF.GenerationSoftware,Kicad,Pcbnew,(5.1.10)-1
; #@! TF.FileFunction,Plated,1,4,PTH
FMAT,2
METRIC
T1C0.400
T2C2.000
%
G90
G05
T1
X124.25Y-110.0
X124.75Y-127.25
X125.5Y-116.25
X126.25Y-115.5
X127.5Y-114.75
X139.0Y-109.0
X142.25Y-108.25
X145.5Y-102.0
X150.5Y-107.5
X162.5Y-105.25
X163.5Y-104.25
X164.0Y-109.75
X164.25Y-103.25
X165.25Y-123.25
X178.5Y-122.0
X178.5Y-123.5
T2
X117.0Y-70.75
X117.0Y-158.75
X126.0Y-70.75
X126.0Y-158.75
X140.0Y-70.75
X140.0Y-158.75
X149.0Y-70.75
X149.0Y-158.75
X163.0Y-70.75
X163.0Y-158.75
X172.0Y-70.75
X172.0Y-158.75
T0
M30
