  0
SECTION
  2
HEADER
  9
$ANGBASE
  50
0.0
  9
$ANGDIR
  70
1
  9
$MEASUREMENT
  70
1
  0
ENDSEC
  0
SECTION
  2
TABLES
  0
TABLE
  2
LTYPE
  70
4
  0
LTYPE
  5
40F
  2
CONTINUOUS
  70
0
  3
Solid line
  72
65
  73
0
  40
0.0
  0
LTYPE
  5
410
  2
DASHDOT
 70
0
  3
Dash Dot ____ _ ____ _
 72
65
 73
4
 40
2.0
 49
1.25
 49
-0.25
 49
0.25
 49
-0.25
  0
LTYPE
  5
411
  2
DASHED
 70
0
  3
Dashed __ __ __ __ __
 72
65
 73
2
 40
0.75
 49
0.5
 49
-0.25
  0
LTYPE
  5
43B
  2
DOTTED
 70
0
  3
Dotted .  .  .  .
 72
65
 73
2
 40
0.2
 49
0.0
 49
-0.2
  0
ENDTAB
  0
TABLE
  2
STYLE
  70
4
  0
STYLE
  2
KICAD
  70
0
  40
0
  41
1
  42
1
  50
0
  71
0
  3
isocp.shx
  0
STYLE
  2
KICADB
  70
0
  40
0
  41
1
  42
1
  50
0
  71
0
  3
isocp.shx
  0
STYLE
  2
KICADI
  70
0
  40
0
  41
1
  42
1
  50
15
  71
0
  3
isocp.shx
  0
STYLE
  2
KICADBI
  70
0
  40
0
  41
1
  42
1
  50
15
  71
0
  3
isocp.shx
  0
ENDTAB
  0
TABLE
  2
LAYER
  70
1
  0
LAYER
  2
BLACK
  70
0
  62
7
  6
CONTINUOUS
  0
ENDTAB
  0
ENDSEC
  0
SECTION
  2
ENTITIES
0
ARC
8
BLACK
10
149.5
20
-153
40
2.65
50
180
51
360
0
ARC
8
BLACK
10
149.5
20
-147
40
2.65
50
-0
51
180
0
ARC
8
BLACK
10
139.5
20
-153
40
2.65
50
180
51
360
0
ARC
8
BLACK
10
139.5
20
-147
40
2.65
50
-0
51
180
0
ARC
8
BLACK
10
149.5
20
-82.6
40
2.65
50
180
51
360
0
ARC
8
BLACK
10
149.5
20
-76.6
40
2.65
50
-0
51
180
0
ARC
8
BLACK
10
139.5
20
-76.6
40
2.65
50
-0
51
180
0
ARC
8
BLACK
10
139.5
20
-82.6
40
2.65
50
180
51
360
0
LINE
8
BLACK
6
CONTINUOUS
10
152.15
20
-76.6
11
152.15
21
-82.6
0
LINE
8
BLACK
6
CONTINUOUS
10
146.85
20
-76.6
11
146.85
21
-82.6
0
LINE
8
BLACK
6
CONTINUOUS
10
136.85
20
-76.6
11
136.85
21
-82.6
0
LINE
8
BLACK
6
CONTINUOUS
10
142.15
20
-76.6
11
142.15
21
-82.6
0
LINE
8
BLACK
6
CONTINUOUS
10
152.15
20
-153
11
152.15
21
-147
0
LINE
8
BLACK
6
CONTINUOUS
10
146.85
20
-147
11
146.85
21
-153
0
LINE
8
BLACK
6
CONTINUOUS
10
142.15
20
-153
11
142.15
21
-147
0
LINE
8
BLACK
6
CONTINUOUS
10
136.85
20
-153
11
136.85
21
-147
0
CIRCLE
8
BLACK
10
180.5
20
-114.65
40
2.625
0
CIRCLE
8
BLACK
10
180.5
20
-142.15
40
2.625
0
CIRCLE
8
BLACK
10
108.5
20
-142.15
40
2.625
0
CIRCLE
8
BLACK
10
108.5
20
-114.65
40
2.625
0
CIRCLE
8
BLACK
10
183
20
-70.3
40
1.475
0
CIRCLE
8
BLACK
10
106
20
-70.3
40
1.475
0
CIRCLE
8
BLACK
10
106
20
-159.3
40
1.475
0
CIRCLE
8
BLACK
10
183
20
-159.3
40
1.475
0
LINE
8
BLACK
6
CONTINUOUS
10
186
20
-65.75
11
103
21
-65.75
0
LINE
8
BLACK
6
CONTINUOUS
10
186
20
-163.75
11
186
21
-65.75
0
LINE
8
BLACK
6
CONTINUOUS
10
103
20
-163.75
11
186
21
-163.75
0
LINE
8
BLACK
6
CONTINUOUS
10
103
20
-65.75
11
103
21
-163.75
0
LINE
8
BLACK
6
CONTINUOUS
10
105.839
20
-168.432
11
105.839
21
-165.432
0
LINE
8
BLACK
6
CONTINUOUS
10
105.839
20
-165.432
11
106.554
21
-165.432
0
LINE
8
BLACK
6
CONTINUOUS
10
106.554
20
-165.432
11
106.982
21
-165.575
0
LINE
8
BLACK
6
CONTINUOUS
10
106.982
20
-165.575
11
107.268
21
-165.861
0
LINE
8
BLACK
6
CONTINUOUS
10
107.268
20
-165.861
11
107.411
21
-166.146
0
LINE
8
BLACK
6
CONTINUOUS
10
107.411
20
-166.146
11
107.554
21
-166.718
0
LINE
8
BLACK
6
CONTINUOUS
10
107.554
20
-166.718
11
107.554
21
-167.146
0
LINE
8
BLACK
6
CONTINUOUS
10
107.554
20
-167.146
11
107.411
21
-167.718
0
LINE
8
BLACK
6
CONTINUOUS
10
107.411
20
-167.718
11
107.268
21
-168.004
0
LINE
8
BLACK
6
CONTINUOUS
10
107.268
20
-168.004
11
106.982
21
-168.289
0
LINE
8
BLACK
6
CONTINUOUS
10
106.982
20
-168.289
11
106.554
21
-168.432
0
LINE
8
BLACK
6
CONTINUOUS
10
106.554
20
-168.432
11
105.839
21
-168.432
0
LINE
8
BLACK
6
CONTINUOUS
10
108.839
20
-168.432
11
108.839
21
-166.432
0
LINE
8
BLACK
6
CONTINUOUS
10
108.839
20
-167.004
11
108.982
21
-166.718
0
LINE
8
BLACK
6
CONTINUOUS
10
108.982
20
-166.718
11
109.125
21
-166.575
0
LINE
8
BLACK
6
CONTINUOUS
10
109.125
20
-166.575
11
109.411
21
-166.432
0
LINE
8
BLACK
6
CONTINUOUS
10
109.411
20
-166.432
11
109.696
21
-166.432
0
LINE
8
BLACK
6
CONTINUOUS
10
110.696
20
-168.432
11
110.696
21
-166.432
0
LINE
8
BLACK
6
CONTINUOUS
10
110.696
20
-165.432
11
110.554
21
-165.575
0
LINE
8
BLACK
6
CONTINUOUS
10
110.554
20
-165.575
11
110.696
21
-165.718
0
LINE
8
BLACK
6
CONTINUOUS
10
110.696
20
-165.718
11
110.839
21
-165.575
0
LINE
8
BLACK
6
CONTINUOUS
10
110.839
20
-165.575
11
110.696
21
-165.432
0
LINE
8
BLACK
6
CONTINUOUS
10
110.696
20
-165.432
11
110.696
21
-165.718
0
LINE
8
BLACK
6
CONTINUOUS
10
112.554
20
-168.432
11
112.268
21
-168.289
0
LINE
8
BLACK
6
CONTINUOUS
10
112.268
20
-168.289
11
112.125
21
-168.004
0
LINE
8
BLACK
6
CONTINUOUS
10
112.125
20
-168.004
11
112.125
21
-165.432
0
LINE
8
BLACK
6
CONTINUOUS
10
114.125
20
-168.432
11
113.839
21
-168.289
0
LINE
8
BLACK
6
CONTINUOUS
10
113.839
20
-168.289
11
113.696
21
-168.004
0
LINE
8
BLACK
6
CONTINUOUS
10
113.696
20
-168.004
11
113.696
21
-165.432
0
LINE
8
BLACK
6
CONTINUOUS
10
117.554
20
-168.432
11
117.554
21
-165.432
0
LINE
8
BLACK
6
CONTINUOUS
10
117.554
20
-165.432
11
118.554
21
-167.575
0
LINE
8
BLACK
6
CONTINUOUS
10
118.554
20
-167.575
11
119.554
21
-165.432
0
LINE
8
BLACK
6
CONTINUOUS
10
119.554
20
-165.432
11
119.554
21
-168.432
0
LINE
8
BLACK
6
CONTINUOUS
10
122.268
20
-168.432
11
122.268
21
-166.861
0
LINE
8
BLACK
6
CONTINUOUS
10
122.268
20
-166.861
11
122.125
21
-166.575
0
LINE
8
BLACK
6
CONTINUOUS
10
122.125
20
-166.575
11
121.839
21
-166.432
0
LINE
8
BLACK
6
CONTINUOUS
10
121.839
20
-166.432
11
121.268
21
-166.432
0
LINE
8
BLACK
6
CONTINUOUS
10
121.268
20
-166.432
11
120.982
21
-166.575
0
LINE
8
BLACK
6
CONTINUOUS
10
122.268
20
-168.289
11
121.982
21
-168.432
0
LINE
8
BLACK
6
CONTINUOUS
10
121.982
20
-168.432
11
121.268
21
-168.432
0
LINE
8
BLACK
6
CONTINUOUS
10
121.268
20
-168.432
11
120.982
21
-168.289
0
LINE
8
BLACK
6
CONTINUOUS
10
120.982
20
-168.289
11
120.839
21
-168.004
0
LINE
8
BLACK
6
CONTINUOUS
10
120.839
20
-168.004
11
120.839
21
-167.718
0
LINE
8
BLACK
6
CONTINUOUS
10
120.839
20
-167.718
11
120.982
21
-167.432
0
LINE
8
BLACK
6
CONTINUOUS
10
120.982
20
-167.432
11
121.268
21
-167.289
0
LINE
8
BLACK
6
CONTINUOUS
10
121.268
20
-167.289
11
121.982
21
-167.289
0
LINE
8
BLACK
6
CONTINUOUS
10
121.982
20
-167.289
11
122.268
21
-167.146
0
LINE
8
BLACK
6
CONTINUOUS
10
123.696
20
-166.432
11
123.696
21
-169.432
0
LINE
8
BLACK
6
CONTINUOUS
10
123.696
20
-166.575
11
123.982
21
-166.432
0
LINE
8
BLACK
6
CONTINUOUS
10
123.982
20
-166.432
11
124.554
21
-166.432
0
LINE
8
BLACK
6
CONTINUOUS
10
124.554
20
-166.432
11
124.839
21
-166.575
0
LINE
8
BLACK
6
CONTINUOUS
10
124.839
20
-166.575
11
124.982
21
-166.718
0
LINE
8
BLACK
6
CONTINUOUS
10
124.982
20
-166.718
11
125.125
21
-167.004
0
LINE
8
BLACK
6
CONTINUOUS
10
125.125
20
-167.004
11
125.125
21
-167.861
0
LINE
8
BLACK
6
CONTINUOUS
10
125.125
20
-167.861
11
124.982
21
-168.146
0
LINE
8
BLACK
6
CONTINUOUS
10
124.982
20
-168.146
11
124.839
21
-168.289
0
LINE
8
BLACK
6
CONTINUOUS
10
124.839
20
-168.289
11
124.554
21
-168.432
0
LINE
8
BLACK
6
CONTINUOUS
10
124.554
20
-168.432
11
123.982
21
-168.432
0
LINE
8
BLACK
6
CONTINUOUS
10
123.982
20
-168.432
11
123.696
21
-168.289
0
LINE
8
BLACK
6
CONTINUOUS
10
126.411
20
-168.146
11
126.554
21
-168.289
0
LINE
8
BLACK
6
CONTINUOUS
10
126.554
20
-168.289
11
126.411
21
-168.432
0
LINE
8
BLACK
6
CONTINUOUS
10
126.411
20
-168.432
11
126.268
21
-168.289
0
LINE
8
BLACK
6
CONTINUOUS
10
126.268
20
-168.289
11
126.411
21
-168.146
0
LINE
8
BLACK
6
CONTINUOUS
10
126.411
20
-168.146
11
126.411
21
-168.432
0
LINE
8
BLACK
6
CONTINUOUS
10
126.411
20
-166.575
11
126.554
21
-166.718
0
LINE
8
BLACK
6
CONTINUOUS
10
126.554
20
-166.718
11
126.411
21
-166.861
0
LINE
8
BLACK
6
CONTINUOUS
10
126.411
20
-166.861
11
126.268
21
-166.718
0
LINE
8
BLACK
6
CONTINUOUS
10
126.268
20
-166.718
11
126.411
21
-166.575
0
LINE
8
BLACK
6
CONTINUOUS
10
126.411
20
-166.575
11
126.411
21
-166.861
  0
ENDSEC
  0
EOF
