M48
; DRILL file {KiCad (5.1.10)-1} date 06/07/22 20:21:09
; FORMAT={-:-/ absolute / metric / decimal}
; #@! TF.CreationDate,2022-06-07T20:21:09-07:00
; #@! TF.GenerationSoftware,Kicad,Pcbnew,(5.1.10)-1
; #@! TF.FileFunction,Plated,1,4,PTH
FMAT,2
METRIC
T1C0.400
T2C2.000
T3C2.950
%
G90
G05
T1
X127.953Y-96.266
X130.75Y-88.75
X133.89Y-90.202
X135.75Y-101.0
X138.0Y-101.75
X138.772Y-99.465
X141.425Y-98.055
X145.5Y-96.0
X146.75Y-97.25
X147.002Y-80.835
X148.0Y-82.931
X148.971Y-85.026
X149.161Y-87.757
X153.75Y-80.5
X157.03Y-54.352
X157.11Y-69.39
X162.11Y-54.352
T2
X107.006Y-51.008
X107.006Y-119.25
X116.006Y-51.008
X116.006Y-119.25
X130.0Y-51.0
X139.0Y-51.0
X160.0Y-119.25
X169.0Y-119.25
X182.952Y-51.008
X182.952Y-119.172
X191.952Y-51.008
X191.952Y-119.172
T3
X110.5Y-85.0
X141.75Y-124.0
X157.25Y-46.0
X188.5Y-85.0
T0
M30
