%TF.GenerationSoftware,KiCad,Pcbnew,(5.1.10)-1*%
%TF.CreationDate,2022-06-07T20:21:30-07:00*%
%TF.ProjectId,solar-panel-side-Z,736f6c61-722d-4706-916e-656c2d736964,1.1*%
%TF.SameCoordinates,Original*%
%TF.FileFunction,Legend,Bot*%
%TF.FilePolarity,Positive*%
%FSLAX46Y46*%
G04 Gerber Fmt 4.6, Leading zero omitted, Abs format (unit mm)*
G04 Created by KiCad (PCBNEW (5.1.10)-1) date 2022-06-07 20:21:30*
%MOMM*%
%LPD*%
G01*
G04 APERTURE LIST*
%ADD10C,0.250000*%
%ADD11C,0.120000*%
%ADD12C,0.150000*%
G04 APERTURE END LIST*
D10*
X122951413Y-114416666D02*
X122909747Y-114464285D01*
X122832366Y-114607142D01*
X122796651Y-114702380D01*
X122766889Y-114845238D01*
X122749032Y-115083333D01*
X122772842Y-115273809D01*
X122850223Y-115511904D01*
X122915699Y-115654761D01*
X122975223Y-115750000D01*
X123088318Y-115892857D01*
X123141889Y-115940476D01*
X123379985Y-114797619D02*
X123504985Y-115797619D01*
X123951413Y-114797619D01*
X124076413Y-115797619D01*
X124570461Y-114797619D02*
X124481175Y-114845238D01*
X124439508Y-114892857D01*
X124403794Y-114988095D01*
X124439508Y-115273809D01*
X124499032Y-115369047D01*
X124552604Y-115416666D01*
X124653794Y-115464285D01*
X124796651Y-115464285D01*
X124885937Y-115416666D01*
X124927604Y-115369047D01*
X124963318Y-115273809D01*
X124927604Y-114988095D01*
X124868080Y-114892857D01*
X124814508Y-114845238D01*
X124713318Y-114797619D01*
X124570461Y-114797619D01*
X125272842Y-115464285D02*
X125653794Y-115464285D01*
X125457366Y-115797619D02*
X125350223Y-114940476D01*
X125385937Y-114845238D01*
X125475223Y-114797619D01*
X125570461Y-114797619D01*
X127237127Y-114797619D02*
X126963318Y-115273809D01*
X126665699Y-114797619D02*
X126790699Y-115797619D01*
X127171651Y-115797619D01*
X127260937Y-115750000D01*
X127302604Y-115702380D01*
X127338318Y-115607142D01*
X127320461Y-115464285D01*
X127260937Y-115369047D01*
X127207366Y-115321428D01*
X127106175Y-115273809D01*
X126725223Y-115273809D01*
X128052604Y-114845238D02*
X127951413Y-114797619D01*
X127760937Y-114797619D01*
X127671651Y-114845238D01*
X127635937Y-114940476D01*
X127683556Y-115321428D01*
X127743080Y-115416666D01*
X127844270Y-115464285D01*
X128034747Y-115464285D01*
X128124032Y-115416666D01*
X128159747Y-115321428D01*
X128147842Y-115226190D01*
X127659747Y-115130952D01*
X128957366Y-114845238D02*
X128856175Y-114797619D01*
X128665699Y-114797619D01*
X128576413Y-114845238D01*
X128534747Y-114892857D01*
X128499032Y-114988095D01*
X128534747Y-115273809D01*
X128594270Y-115369047D01*
X128647842Y-115416666D01*
X128749032Y-115464285D01*
X128939508Y-115464285D01*
X129028794Y-115416666D01*
X129522842Y-114797619D02*
X129433556Y-114845238D01*
X129391889Y-114892857D01*
X129356175Y-114988095D01*
X129391889Y-115273809D01*
X129451413Y-115369047D01*
X129504985Y-115416666D01*
X129606175Y-115464285D01*
X129749032Y-115464285D01*
X129838318Y-115416666D01*
X129879985Y-115369047D01*
X129915699Y-115273809D01*
X129879985Y-114988095D01*
X129820461Y-114892857D01*
X129766889Y-114845238D01*
X129665699Y-114797619D01*
X129522842Y-114797619D01*
X130284747Y-114797619D02*
X130368080Y-115464285D01*
X130356175Y-115369047D02*
X130409747Y-115416666D01*
X130510937Y-115464285D01*
X130653794Y-115464285D01*
X130743080Y-115416666D01*
X130778794Y-115321428D01*
X130713318Y-114797619D01*
X130778794Y-115321428D02*
X130838318Y-115416666D01*
X130939508Y-115464285D01*
X131082366Y-115464285D01*
X131171651Y-115416666D01*
X131207366Y-115321428D01*
X131141889Y-114797619D01*
X131618080Y-114797619D02*
X131701413Y-115464285D01*
X131689508Y-115369047D02*
X131743080Y-115416666D01*
X131844270Y-115464285D01*
X131987127Y-115464285D01*
X132076413Y-115416666D01*
X132112127Y-115321428D01*
X132046651Y-114797619D01*
X132112127Y-115321428D02*
X132171651Y-115416666D01*
X132272842Y-115464285D01*
X132415699Y-115464285D01*
X132504985Y-115416666D01*
X132540699Y-115321428D01*
X132475223Y-114797619D01*
X133338318Y-114845238D02*
X133237127Y-114797619D01*
X133046651Y-114797619D01*
X132957366Y-114845238D01*
X132921651Y-114940476D01*
X132969270Y-115321428D01*
X133028794Y-115416666D01*
X133129985Y-115464285D01*
X133320461Y-115464285D01*
X133409747Y-115416666D01*
X133445461Y-115321428D01*
X133433556Y-115226190D01*
X132945461Y-115130952D01*
X133891889Y-115464285D02*
X133808556Y-114797619D01*
X133879985Y-115369047D02*
X133933556Y-115416666D01*
X134034747Y-115464285D01*
X134177604Y-115464285D01*
X134266889Y-115416666D01*
X134302604Y-115321428D01*
X134237127Y-114797619D01*
X135141889Y-114797619D02*
X135266889Y-115797619D01*
X135147842Y-114845238D02*
X135046651Y-114797619D01*
X134856175Y-114797619D01*
X134766889Y-114845238D01*
X134725223Y-114892857D01*
X134689508Y-114988095D01*
X134725223Y-115273809D01*
X134784747Y-115369047D01*
X134838318Y-115416666D01*
X134939508Y-115464285D01*
X135129985Y-115464285D01*
X135219270Y-115416666D01*
X136004985Y-114845238D02*
X135903794Y-114797619D01*
X135713318Y-114797619D01*
X135624032Y-114845238D01*
X135588318Y-114940476D01*
X135635937Y-115321428D01*
X135695461Y-115416666D01*
X135796651Y-115464285D01*
X135987127Y-115464285D01*
X136076413Y-115416666D01*
X136112127Y-115321428D01*
X136100223Y-115226190D01*
X135612127Y-115130952D01*
X136903794Y-114797619D02*
X137028794Y-115797619D01*
X136909747Y-114845238D02*
X136808556Y-114797619D01*
X136618080Y-114797619D01*
X136528794Y-114845238D01*
X136487127Y-114892857D01*
X136451413Y-114988095D01*
X136487127Y-115273809D01*
X136546651Y-115369047D01*
X136600223Y-115416666D01*
X136701413Y-115464285D01*
X136891889Y-115464285D01*
X136981175Y-115416666D01*
X137237127Y-114416666D02*
X137290699Y-114464285D01*
X137403794Y-114607142D01*
X137463318Y-114702380D01*
X137528794Y-114845238D01*
X137606175Y-115083333D01*
X137629985Y-115273809D01*
X137612127Y-115511904D01*
X137582366Y-115654761D01*
X137546651Y-115750000D01*
X137469270Y-115892857D01*
X137427604Y-115940476D01*
D11*
%TO.C,U4*%
X151000000Y-96930000D02*
X138300000Y-96930000D01*
X138300000Y-88040000D02*
X138300000Y-96930000D01*
X151000000Y-96930000D02*
X163700000Y-96930000D01*
X163700000Y-88040000D02*
X163700000Y-96930000D01*
X138300000Y-96930000D02*
X140078000Y-96930000D01*
X138300000Y-88040000D02*
X138300000Y-85500000D01*
X163700000Y-88040000D02*
X163700000Y-85500000D01*
X138300000Y-82960000D02*
X138300000Y-85500000D01*
X151000000Y-74070000D02*
X138300000Y-74070000D01*
X151000000Y-74070000D02*
X163700000Y-74070000D01*
X163700000Y-74070000D02*
X161922000Y-74070000D01*
X163700000Y-82960000D02*
X163700000Y-85500000D01*
X163700000Y-82960000D02*
X163700000Y-74070000D01*
X138300000Y-82960000D02*
X138300000Y-74070000D01*
%TO.C,J1*%
X133858000Y-104243987D02*
X133223000Y-105767987D01*
X133223000Y-105767987D02*
X134493000Y-105767987D01*
X134493000Y-105767987D02*
X133858000Y-104243987D01*
X129888040Y-91940011D02*
X134198000Y-91940011D01*
X134198000Y-91940011D02*
X134198000Y-94344959D01*
X134198000Y-103989988D02*
X129888040Y-103989988D01*
X127758000Y-102625115D02*
X127758000Y-93304884D01*
X134198000Y-101585040D02*
X134198000Y-103989988D01*
X134198000Y-100085040D02*
X134198000Y-100344960D01*
X134198000Y-98585041D02*
X134198000Y-98844960D01*
X134198000Y-97085039D02*
X134198000Y-97344961D01*
X134198000Y-95585039D02*
X134198000Y-95844959D01*
%TO.C,U5*%
X135366000Y-69186000D02*
X134858000Y-69186000D01*
X135366000Y-77314000D02*
X135366000Y-69186000D01*
X134858000Y-77314000D02*
X135366000Y-77314000D01*
X130286000Y-77314000D02*
X131302000Y-77314000D01*
X130286000Y-69186000D02*
X130286000Y-77314000D01*
X131302000Y-69186000D02*
X130286000Y-69186000D01*
X134858000Y-77314000D02*
X131302000Y-77314000D01*
X131302000Y-69186000D02*
X134858000Y-69186000D01*
X128000000Y-85950000D02*
X136890000Y-85950000D01*
X136890000Y-73250000D02*
X136890000Y-85950000D01*
X136890000Y-73250000D02*
X136890000Y-60550000D01*
X128000000Y-60550000D02*
X136890000Y-60550000D01*
X128000000Y-85950000D02*
X119110000Y-85950000D01*
X119110000Y-73250000D02*
X119110000Y-85950000D01*
X128000000Y-60550000D02*
X119110000Y-60550000D01*
X119110000Y-73250000D02*
X119110000Y-60550000D01*
%TO.C,U4*%
D12*
X151761904Y-85452380D02*
X151761904Y-86261904D01*
X151714285Y-86357142D01*
X151666666Y-86404761D01*
X151571428Y-86452380D01*
X151380952Y-86452380D01*
X151285714Y-86404761D01*
X151238095Y-86357142D01*
X151190476Y-86261904D01*
X151190476Y-85452380D01*
X150285714Y-85785714D02*
X150285714Y-86452380D01*
X150523809Y-85404761D02*
X150761904Y-86119047D01*
X150142857Y-86119047D01*
%TO.C,J1*%
X123150380Y-98091666D02*
X123864666Y-98091666D01*
X124007523Y-98044047D01*
X124102761Y-97948809D01*
X124150380Y-97805952D01*
X124150380Y-97710714D01*
X124150380Y-99091666D02*
X124150380Y-98520238D01*
X124150380Y-98805952D02*
X123150380Y-98805952D01*
X123293238Y-98710714D01*
X123388476Y-98615476D01*
X123436095Y-98520238D01*
X125325142Y-91845950D02*
X125372761Y-91798331D01*
X125420380Y-91655474D01*
X125420380Y-91560236D01*
X125372761Y-91417378D01*
X125277523Y-91322140D01*
X125182285Y-91274521D01*
X124991809Y-91226902D01*
X124848952Y-91226902D01*
X124658476Y-91274521D01*
X124563238Y-91322140D01*
X124468000Y-91417378D01*
X124420380Y-91560236D01*
X124420380Y-91655474D01*
X124468000Y-91798331D01*
X124515619Y-91845950D01*
X124420380Y-92464998D02*
X124420380Y-92655474D01*
X124468000Y-92750712D01*
X124563238Y-92845950D01*
X124753714Y-92893569D01*
X125087047Y-92893569D01*
X125277523Y-92845950D01*
X125372761Y-92750712D01*
X125420380Y-92655474D01*
X125420380Y-92464998D01*
X125372761Y-92369759D01*
X125277523Y-92274521D01*
X125087047Y-92226902D01*
X124753714Y-92226902D01*
X124563238Y-92274521D01*
X124468000Y-92369759D01*
X124420380Y-92464998D01*
X125420380Y-93322140D02*
X124420380Y-93322140D01*
X125420380Y-93893569D01*
X124420380Y-93893569D01*
X125039428Y-94369759D02*
X125039428Y-95131664D01*
X124420380Y-96084045D02*
X124420380Y-95607855D01*
X124896571Y-95560236D01*
X124848952Y-95607855D01*
X124801333Y-95703093D01*
X124801333Y-95941188D01*
X124848952Y-96036426D01*
X124896571Y-96084045D01*
X124991809Y-96131664D01*
X125229904Y-96131664D01*
X125325142Y-96084045D01*
X125372761Y-96036426D01*
X125420380Y-95941188D01*
X125420380Y-95703093D01*
X125372761Y-95607855D01*
X125325142Y-95560236D01*
X124420380Y-96750712D02*
X124420380Y-96845950D01*
X124468000Y-96941188D01*
X124515619Y-96988807D01*
X124610857Y-97036426D01*
X124801333Y-97084045D01*
X125039428Y-97084045D01*
X125229904Y-97036426D01*
X125325142Y-96988807D01*
X125372761Y-96941188D01*
X125420380Y-96845950D01*
X125420380Y-96750712D01*
X125372761Y-96655474D01*
X125325142Y-96607855D01*
X125229904Y-96560236D01*
X125039428Y-96512617D01*
X124801333Y-96512617D01*
X124610857Y-96560236D01*
X124515619Y-96607855D01*
X124468000Y-96655474D01*
X124420380Y-96750712D01*
X124753714Y-97941188D02*
X125420380Y-97941188D01*
X124372761Y-97703093D02*
X125087047Y-97464998D01*
X125087047Y-98084045D01*
X124420380Y-98655474D02*
X124420380Y-98750712D01*
X124468000Y-98845950D01*
X124515619Y-98893569D01*
X124610857Y-98941188D01*
X124801333Y-98988807D01*
X125039428Y-98988807D01*
X125229904Y-98941188D01*
X125325142Y-98893569D01*
X125372761Y-98845950D01*
X125420380Y-98750712D01*
X125420380Y-98655474D01*
X125372761Y-98560236D01*
X125325142Y-98512617D01*
X125229904Y-98464998D01*
X125039428Y-98417378D01*
X124801333Y-98417378D01*
X124610857Y-98464998D01*
X124515619Y-98512617D01*
X124468000Y-98560236D01*
X124420380Y-98655474D01*
X124420380Y-99893569D02*
X124420380Y-99417378D01*
X124896571Y-99369759D01*
X124848952Y-99417378D01*
X124801333Y-99512617D01*
X124801333Y-99750712D01*
X124848952Y-99845950D01*
X124896571Y-99893569D01*
X124991809Y-99941188D01*
X125229904Y-99941188D01*
X125325142Y-99893569D01*
X125372761Y-99845950D01*
X125420380Y-99750712D01*
X125420380Y-99512617D01*
X125372761Y-99417378D01*
X125325142Y-99369759D01*
X124420380Y-100560236D02*
X124420380Y-100655474D01*
X124468000Y-100750712D01*
X124515619Y-100798331D01*
X124610857Y-100845950D01*
X124801333Y-100893569D01*
X125039428Y-100893569D01*
X125229904Y-100845950D01*
X125325142Y-100798331D01*
X125372761Y-100750712D01*
X125420380Y-100655474D01*
X125420380Y-100560236D01*
X125372761Y-100464998D01*
X125325142Y-100417378D01*
X125229904Y-100369759D01*
X125039428Y-100322140D01*
X124801333Y-100322140D01*
X124610857Y-100369759D01*
X124515619Y-100417378D01*
X124468000Y-100464998D01*
X124420380Y-100560236D01*
X124420380Y-101512617D02*
X124420380Y-101607855D01*
X124468000Y-101703093D01*
X124515619Y-101750712D01*
X124610857Y-101798331D01*
X124801333Y-101845950D01*
X125039428Y-101845950D01*
X125229904Y-101798331D01*
X125325142Y-101750712D01*
X125372761Y-101703093D01*
X125420380Y-101607855D01*
X125420380Y-101512617D01*
X125372761Y-101417378D01*
X125325142Y-101369759D01*
X125229904Y-101322140D01*
X125039428Y-101274521D01*
X124801333Y-101274521D01*
X124610857Y-101322140D01*
X124515619Y-101369759D01*
X124468000Y-101417378D01*
X124420380Y-101512617D01*
X124420380Y-102750712D02*
X124420380Y-102274521D01*
X124896571Y-102226902D01*
X124848952Y-102274521D01*
X124801333Y-102369759D01*
X124801333Y-102607855D01*
X124848952Y-102703093D01*
X124896571Y-102750712D01*
X124991809Y-102798331D01*
X125229904Y-102798331D01*
X125325142Y-102750712D01*
X125372761Y-102703093D01*
X125420380Y-102607855D01*
X125420380Y-102369759D01*
X125372761Y-102274521D01*
X125325142Y-102226902D01*
X125420380Y-103274521D02*
X125420380Y-103464998D01*
X125372761Y-103560236D01*
X125325142Y-103607855D01*
X125182285Y-103703093D01*
X124991809Y-103750712D01*
X124610857Y-103750712D01*
X124515619Y-103703093D01*
X124468000Y-103655474D01*
X124420380Y-103560236D01*
X124420380Y-103369759D01*
X124468000Y-103274521D01*
X124515619Y-103226902D01*
X124610857Y-103179283D01*
X124848952Y-103179283D01*
X124944190Y-103226902D01*
X124991809Y-103274521D01*
X125039428Y-103369759D01*
X125039428Y-103560236D01*
X124991809Y-103655474D01*
X124944190Y-103703093D01*
X124848952Y-103750712D01*
X125420380Y-104703093D02*
X125420380Y-104131664D01*
X125420380Y-104417378D02*
X124420380Y-104417378D01*
X124563238Y-104322140D01*
X124658476Y-104226902D01*
X124706095Y-104131664D01*
X133310380Y-100965000D02*
X133548476Y-100965000D01*
X133453238Y-100726904D02*
X133548476Y-100965000D01*
X133453238Y-101203095D01*
X133738952Y-100822142D02*
X133548476Y-100965000D01*
X133738952Y-101107857D01*
%TO.C,U5*%
X126952380Y-72488095D02*
X127761904Y-72488095D01*
X127857142Y-72535714D01*
X127904761Y-72583333D01*
X127952380Y-72678571D01*
X127952380Y-72869047D01*
X127904761Y-72964285D01*
X127857142Y-73011904D01*
X127761904Y-73059523D01*
X126952380Y-73059523D01*
X126952380Y-74011904D02*
X126952380Y-73535714D01*
X127428571Y-73488095D01*
X127380952Y-73535714D01*
X127333333Y-73630952D01*
X127333333Y-73869047D01*
X127380952Y-73964285D01*
X127428571Y-74011904D01*
X127523809Y-74059523D01*
X127761904Y-74059523D01*
X127857142Y-74011904D01*
X127904761Y-73964285D01*
X127952380Y-73869047D01*
X127952380Y-73630952D01*
X127904761Y-73535714D01*
X127857142Y-73488095D01*
%TD*%
M02*
