%TF.GenerationSoftware,KiCad,Pcbnew,(5.1.10)-1*%
%TF.CreationDate,2022-06-07T20:21:30-07:00*%
%TF.ProjectId,solar-panel-side-Z,736f6c61-722d-4706-916e-656c2d736964,1.1*%
%TF.SameCoordinates,Original*%
%TF.FileFunction,Legend,Top*%
%TF.FilePolarity,Positive*%
%FSLAX46Y46*%
G04 Gerber Fmt 4.6, Leading zero omitted, Abs format (unit mm)*
G04 Created by KiCad (PCBNEW (5.1.10)-1) date 2022-06-07 20:21:30*
%MOMM*%
%LPD*%
G01*
G04 APERTURE LIST*
%ADD10C,0.150000*%
%ADD11C,0.120000*%
%ADD12C,0.100000*%
%ADD13C,0.300000*%
%ADD14C,0.200000*%
G04 APERTURE END LIST*
D10*
X129988095Y-88250000D02*
X129892857Y-88202380D01*
X129750000Y-88202380D01*
X129607142Y-88250000D01*
X129511904Y-88345238D01*
X129464285Y-88440476D01*
X129416666Y-88630952D01*
X129416666Y-88773809D01*
X129464285Y-88964285D01*
X129511904Y-89059523D01*
X129607142Y-89154761D01*
X129750000Y-89202380D01*
X129845238Y-89202380D01*
X129988095Y-89154761D01*
X130035714Y-89107142D01*
X130035714Y-88773809D01*
X129845238Y-88773809D01*
X130464285Y-89202380D02*
X130464285Y-88202380D01*
X131035714Y-89202380D01*
X131035714Y-88202380D01*
X131511904Y-89202380D02*
X131511904Y-88202380D01*
X131750000Y-88202380D01*
X131892857Y-88250000D01*
X131988095Y-88345238D01*
X132035714Y-88440476D01*
X132083333Y-88630952D01*
X132083333Y-88773809D01*
X132035714Y-88964285D01*
X131988095Y-89059523D01*
X131892857Y-89154761D01*
X131750000Y-89202380D01*
X131511904Y-89202380D01*
X128714285Y-96702380D02*
X129047619Y-97702380D01*
X129380952Y-96702380D01*
X129666666Y-97654761D02*
X129809523Y-97702380D01*
X130047619Y-97702380D01*
X130142857Y-97654761D01*
X130190476Y-97607142D01*
X130238095Y-97511904D01*
X130238095Y-97416666D01*
X130190476Y-97321428D01*
X130142857Y-97273809D01*
X130047619Y-97226190D01*
X129857142Y-97178571D01*
X129761904Y-97130952D01*
X129714285Y-97083333D01*
X129666666Y-96988095D01*
X129666666Y-96892857D01*
X129714285Y-96797619D01*
X129761904Y-96750000D01*
X129857142Y-96702380D01*
X130095238Y-96702380D01*
X130238095Y-96750000D01*
X130809523Y-97702380D02*
X130714285Y-97654761D01*
X130666666Y-97607142D01*
X130619047Y-97511904D01*
X130619047Y-97226190D01*
X130666666Y-97130952D01*
X130714285Y-97083333D01*
X130809523Y-97035714D01*
X130952380Y-97035714D01*
X131047619Y-97083333D01*
X131095238Y-97130952D01*
X131142857Y-97226190D01*
X131142857Y-97511904D01*
X131095238Y-97607142D01*
X131047619Y-97654761D01*
X130952380Y-97702380D01*
X130809523Y-97702380D01*
X131714285Y-97702380D02*
X131619047Y-97654761D01*
X131571428Y-97559523D01*
X131571428Y-96702380D01*
X132523809Y-97702380D02*
X132523809Y-97178571D01*
X132476190Y-97083333D01*
X132380952Y-97035714D01*
X132190476Y-97035714D01*
X132095238Y-97083333D01*
X132523809Y-97654761D02*
X132428571Y-97702380D01*
X132190476Y-97702380D01*
X132095238Y-97654761D01*
X132047619Y-97559523D01*
X132047619Y-97464285D01*
X132095238Y-97369047D01*
X132190476Y-97321428D01*
X132428571Y-97321428D01*
X132523809Y-97273809D01*
X132999999Y-97702380D02*
X132999999Y-97035714D01*
X132999999Y-97226190D02*
X133047619Y-97130952D01*
X133095238Y-97083333D01*
X133190476Y-97035714D01*
X133285714Y-97035714D01*
D11*
%TO.C,J7*%
X131950000Y-93800000D02*
X131950000Y-96200000D01*
X131950000Y-96200000D02*
X129550000Y-96200000D01*
X129550000Y-96200000D02*
X129550000Y-93800000D01*
X129550000Y-93800000D02*
X131950000Y-93800000D01*
%TO.C,J6*%
X131950000Y-89800000D02*
X131950000Y-92200000D01*
X131950000Y-92200000D02*
X129550000Y-92200000D01*
X129550000Y-92200000D02*
X129550000Y-89800000D01*
X129550000Y-89800000D02*
X131950000Y-89800000D01*
%TO.C,U1*%
X138500000Y-102610000D02*
X125800000Y-102610000D01*
X125800000Y-111500000D02*
X125800000Y-102610000D01*
X138500000Y-102610000D02*
X151200000Y-102610000D01*
X151200000Y-111500000D02*
X151200000Y-102610000D01*
X125800000Y-111500000D02*
X125800000Y-120390000D01*
X138500000Y-120390000D02*
X125800000Y-120390000D01*
X138500000Y-120390000D02*
X151200000Y-120390000D01*
X151200000Y-111500000D02*
X151200000Y-120390000D01*
%TO.C,D3*%
X176818200Y-84937200D02*
X176818200Y-86486600D01*
D12*
G36*
X177758000Y-86461200D02*
G01*
X176945200Y-85724600D01*
X177758000Y-85115000D01*
X177758000Y-86461200D01*
G37*
X177758000Y-86461200D02*
X176945200Y-85724600D01*
X177758000Y-85115000D01*
X177758000Y-86461200D01*
D11*
X174875000Y-84300000D02*
X179625000Y-84300000D01*
X174875000Y-87200000D02*
X174875000Y-84300000D01*
X179625000Y-87200000D02*
X179625000Y-84300000D01*
X174875000Y-87200000D02*
X179625000Y-87200000D01*
%TO.C,D2*%
X134568200Y-84687200D02*
X134568200Y-86236600D01*
D12*
G36*
X135508000Y-86211200D02*
G01*
X134695200Y-85474600D01*
X135508000Y-84865000D01*
X135508000Y-86211200D01*
G37*
X135508000Y-86211200D02*
X134695200Y-85474600D01*
X135508000Y-84865000D01*
X135508000Y-86211200D01*
D11*
X132625000Y-84050000D02*
X137375000Y-84050000D01*
X132625000Y-86950000D02*
X132625000Y-84050000D01*
X137375000Y-86950000D02*
X137375000Y-84050000D01*
X132625000Y-86950000D02*
X137375000Y-86950000D01*
%TO.C,D1*%
X120431800Y-86312800D02*
X120431800Y-84763400D01*
D12*
G36*
X119492000Y-84788800D02*
G01*
X120304800Y-85525400D01*
X119492000Y-86135000D01*
X119492000Y-84788800D01*
G37*
X119492000Y-84788800D02*
X120304800Y-85525400D01*
X119492000Y-86135000D01*
X119492000Y-84788800D01*
D11*
X122375000Y-86950000D02*
X117625000Y-86950000D01*
X122375000Y-84050000D02*
X122375000Y-86950000D01*
X117625000Y-84050000D02*
X117625000Y-86950000D01*
X122375000Y-84050000D02*
X117625000Y-84050000D01*
%TO.C,U3*%
X161000000Y-67650000D02*
X150840000Y-67650000D01*
X150840000Y-67650000D02*
X150840000Y-74000000D01*
X161000000Y-67650000D02*
X171160000Y-67650000D01*
X171160000Y-67650000D02*
X171160000Y-74000000D01*
X150840000Y-80350000D02*
X150840000Y-74000000D01*
X161000000Y-80350000D02*
X150840000Y-80350000D01*
X171160000Y-80350000D02*
X171160000Y-74000000D01*
X161000000Y-80350000D02*
X171160000Y-80350000D01*
%TO.C,U2*%
X150760000Y-49895000D02*
X168540000Y-49895000D01*
X168540000Y-66405000D02*
X168540000Y-49895000D01*
X150760000Y-64500000D02*
X150760000Y-49895000D01*
X150760000Y-66405000D02*
X150760000Y-64500000D01*
X159650000Y-66405000D02*
X150760000Y-66405000D01*
X159650000Y-66405000D02*
X168540000Y-66405000D01*
D13*
%TO.C,SC5*%
X198452000Y-81508000D02*
X176452000Y-81508000D01*
X198452000Y-46508000D02*
X198452000Y-81508000D01*
X176452000Y-46508000D02*
X198452000Y-46508000D01*
X176452000Y-81508000D02*
X176452000Y-46508000D01*
%TO.C,SC4*%
X175500000Y-88750000D02*
X175500000Y-123750000D01*
X175500000Y-123750000D02*
X153500000Y-123750000D01*
X153500000Y-123750000D02*
X153500000Y-88750000D01*
X153500000Y-88750000D02*
X175500000Y-88750000D01*
%TO.C,SC6*%
X198452000Y-88672000D02*
X198452000Y-123672000D01*
X198452000Y-123672000D02*
X176452000Y-123672000D01*
X176452000Y-123672000D02*
X176452000Y-88672000D01*
X176452000Y-88672000D02*
X198452000Y-88672000D01*
%TO.C,SC3*%
X123500000Y-81500000D02*
X123500000Y-46500000D01*
X123500000Y-46500000D02*
X145500000Y-46500000D01*
X145500000Y-46500000D02*
X145500000Y-81500000D01*
X145500000Y-81500000D02*
X123500000Y-81500000D01*
%TO.C,SC2*%
X100506000Y-88750000D02*
X122506000Y-88750000D01*
X100506000Y-123750000D02*
X100506000Y-88750000D01*
X122506000Y-123750000D02*
X100506000Y-123750000D01*
X122506000Y-88750000D02*
X122506000Y-123750000D01*
%TO.C,SC1*%
X122506000Y-81508000D02*
X100506000Y-81508000D01*
X122506000Y-46508000D02*
X122506000Y-81508000D01*
X100506000Y-46508000D02*
X122506000Y-46508000D01*
X100506000Y-81508000D02*
X100506000Y-46508000D01*
%TO.C,J7*%
D10*
X132200380Y-95333333D02*
X132914666Y-95333333D01*
X133057523Y-95380952D01*
X133152761Y-95476190D01*
X133200380Y-95619047D01*
X133200380Y-95714285D01*
X132200380Y-94952380D02*
X132200380Y-94285714D01*
X133200380Y-94714285D01*
%TO.C,J6*%
X132200380Y-91333333D02*
X132914666Y-91333333D01*
X133057523Y-91380952D01*
X133152761Y-91476190D01*
X133200380Y-91619047D01*
X133200380Y-91714285D01*
X132200380Y-90428571D02*
X132200380Y-90619047D01*
X132248000Y-90714285D01*
X132295619Y-90761904D01*
X132438476Y-90857142D01*
X132628952Y-90904761D01*
X133009904Y-90904761D01*
X133105142Y-90857142D01*
X133152761Y-90809523D01*
X133200380Y-90714285D01*
X133200380Y-90523809D01*
X133152761Y-90428571D01*
X133105142Y-90380952D01*
X133009904Y-90333333D01*
X132771809Y-90333333D01*
X132676571Y-90380952D01*
X132628952Y-90428571D01*
X132581333Y-90523809D01*
X132581333Y-90714285D01*
X132628952Y-90809523D01*
X132676571Y-90857142D01*
X132771809Y-90904761D01*
%TO.C,U1*%
X137738095Y-110452380D02*
X137738095Y-111261904D01*
X137785714Y-111357142D01*
X137833333Y-111404761D01*
X137928571Y-111452380D01*
X138119047Y-111452380D01*
X138214285Y-111404761D01*
X138261904Y-111357142D01*
X138309523Y-111261904D01*
X138309523Y-110452380D01*
X139309523Y-111452380D02*
X138738095Y-111452380D01*
X139023809Y-111452380D02*
X139023809Y-110452380D01*
X138928571Y-110595238D01*
X138833333Y-110690476D01*
X138738095Y-110738095D01*
%TO.C,J5*%
X188166666Y-84952380D02*
X188166666Y-85666666D01*
X188119047Y-85809523D01*
X188023809Y-85904761D01*
X187880952Y-85952380D01*
X187785714Y-85952380D01*
X189119047Y-84952380D02*
X188642857Y-84952380D01*
X188595238Y-85428571D01*
X188642857Y-85380952D01*
X188738095Y-85333333D01*
X188976190Y-85333333D01*
X189071428Y-85380952D01*
X189119047Y-85428571D01*
X189166666Y-85523809D01*
X189166666Y-85761904D01*
X189119047Y-85857142D01*
X189071428Y-85904761D01*
X188976190Y-85952380D01*
X188738095Y-85952380D01*
X188642857Y-85904761D01*
X188595238Y-85857142D01*
%TO.C,J4*%
X156916666Y-45952380D02*
X156916666Y-46666666D01*
X156869047Y-46809523D01*
X156773809Y-46904761D01*
X156630952Y-46952380D01*
X156535714Y-46952380D01*
X157821428Y-46285714D02*
X157821428Y-46952380D01*
X157583333Y-45904761D02*
X157345238Y-46619047D01*
X157964285Y-46619047D01*
%TO.C,J3*%
X141416666Y-123952380D02*
X141416666Y-124666666D01*
X141369047Y-124809523D01*
X141273809Y-124904761D01*
X141130952Y-124952380D01*
X141035714Y-124952380D01*
X141797619Y-123952380D02*
X142416666Y-123952380D01*
X142083333Y-124333333D01*
X142226190Y-124333333D01*
X142321428Y-124380952D01*
X142369047Y-124428571D01*
X142416666Y-124523809D01*
X142416666Y-124761904D01*
X142369047Y-124857142D01*
X142321428Y-124904761D01*
X142226190Y-124952380D01*
X141940476Y-124952380D01*
X141845238Y-124904761D01*
X141797619Y-124857142D01*
%TO.C,J2*%
X110166666Y-84952380D02*
X110166666Y-85666666D01*
X110119047Y-85809523D01*
X110023809Y-85904761D01*
X109880952Y-85952380D01*
X109785714Y-85952380D01*
X110595238Y-85047619D02*
X110642857Y-85000000D01*
X110738095Y-84952380D01*
X110976190Y-84952380D01*
X111071428Y-85000000D01*
X111119047Y-85047619D01*
X111166666Y-85142857D01*
X111166666Y-85238095D01*
X111119047Y-85380952D01*
X110547619Y-85952380D01*
X111166666Y-85952380D01*
%TO.C,D3*%
X176511904Y-88742380D02*
X176511904Y-87742380D01*
X176750000Y-87742380D01*
X176892857Y-87790000D01*
X176988095Y-87885238D01*
X177035714Y-87980476D01*
X177083333Y-88170952D01*
X177083333Y-88313809D01*
X177035714Y-88504285D01*
X176988095Y-88599523D01*
X176892857Y-88694761D01*
X176750000Y-88742380D01*
X176511904Y-88742380D01*
X177416666Y-87742380D02*
X178035714Y-87742380D01*
X177702380Y-88123333D01*
X177845238Y-88123333D01*
X177940476Y-88170952D01*
X177988095Y-88218571D01*
X178035714Y-88313809D01*
X178035714Y-88551904D01*
X177988095Y-88647142D01*
X177940476Y-88694761D01*
X177845238Y-88742380D01*
X177559523Y-88742380D01*
X177464285Y-88694761D01*
X177416666Y-88647142D01*
%TO.C,D2*%
X134261904Y-88492380D02*
X134261904Y-87492380D01*
X134500000Y-87492380D01*
X134642857Y-87540000D01*
X134738095Y-87635238D01*
X134785714Y-87730476D01*
X134833333Y-87920952D01*
X134833333Y-88063809D01*
X134785714Y-88254285D01*
X134738095Y-88349523D01*
X134642857Y-88444761D01*
X134500000Y-88492380D01*
X134261904Y-88492380D01*
X135214285Y-87587619D02*
X135261904Y-87540000D01*
X135357142Y-87492380D01*
X135595238Y-87492380D01*
X135690476Y-87540000D01*
X135738095Y-87587619D01*
X135785714Y-87682857D01*
X135785714Y-87778095D01*
X135738095Y-87920952D01*
X135166666Y-88492380D01*
X135785714Y-88492380D01*
%TO.C,D1*%
X119261904Y-83412380D02*
X119261904Y-82412380D01*
X119500000Y-82412380D01*
X119642857Y-82460000D01*
X119738095Y-82555238D01*
X119785714Y-82650476D01*
X119833333Y-82840952D01*
X119833333Y-82983809D01*
X119785714Y-83174285D01*
X119738095Y-83269523D01*
X119642857Y-83364761D01*
X119500000Y-83412380D01*
X119261904Y-83412380D01*
X120785714Y-83412380D02*
X120214285Y-83412380D01*
X120500000Y-83412380D02*
X120500000Y-82412380D01*
X120404761Y-82555238D01*
X120309523Y-82650476D01*
X120214285Y-82698095D01*
%TO.C,U3*%
X160238095Y-73952380D02*
X160238095Y-74761904D01*
X160285714Y-74857142D01*
X160333333Y-74904761D01*
X160428571Y-74952380D01*
X160619047Y-74952380D01*
X160714285Y-74904761D01*
X160761904Y-74857142D01*
X160809523Y-74761904D01*
X160809523Y-73952380D01*
X161190476Y-73952380D02*
X161809523Y-73952380D01*
X161476190Y-74333333D01*
X161619047Y-74333333D01*
X161714285Y-74380952D01*
X161761904Y-74428571D01*
X161809523Y-74523809D01*
X161809523Y-74761904D01*
X161761904Y-74857142D01*
X161714285Y-74904761D01*
X161619047Y-74952380D01*
X161333333Y-74952380D01*
X161238095Y-74904761D01*
X161190476Y-74857142D01*
%TO.C,U2*%
X158888095Y-58872380D02*
X158888095Y-59681904D01*
X158935714Y-59777142D01*
X158983333Y-59824761D01*
X159078571Y-59872380D01*
X159269047Y-59872380D01*
X159364285Y-59824761D01*
X159411904Y-59777142D01*
X159459523Y-59681904D01*
X159459523Y-58872380D01*
X159888095Y-58967619D02*
X159935714Y-58920000D01*
X160030952Y-58872380D01*
X160269047Y-58872380D01*
X160364285Y-58920000D01*
X160411904Y-58967619D01*
X160459523Y-59062857D01*
X160459523Y-59158095D01*
X160411904Y-59300952D01*
X159840476Y-59872380D01*
X160459523Y-59872380D01*
D14*
X162380571Y-54193142D02*
X163523428Y-54193142D01*
X162952000Y-54764571D02*
X162952000Y-53621714D01*
X155776571Y-54193142D02*
X156919428Y-54193142D01*
%TO.C,SC5*%
D10*
X188356761Y-65269904D02*
X188404380Y-65127047D01*
X188404380Y-64888952D01*
X188356761Y-64793714D01*
X188309142Y-64746095D01*
X188213904Y-64698476D01*
X188118666Y-64698476D01*
X188023428Y-64746095D01*
X187975809Y-64793714D01*
X187928190Y-64888952D01*
X187880571Y-65079428D01*
X187832952Y-65174666D01*
X187785333Y-65222285D01*
X187690095Y-65269904D01*
X187594857Y-65269904D01*
X187499619Y-65222285D01*
X187452000Y-65174666D01*
X187404380Y-65079428D01*
X187404380Y-64841333D01*
X187452000Y-64698476D01*
X188309142Y-63698476D02*
X188356761Y-63746095D01*
X188404380Y-63888952D01*
X188404380Y-63984190D01*
X188356761Y-64127047D01*
X188261523Y-64222285D01*
X188166285Y-64269904D01*
X187975809Y-64317523D01*
X187832952Y-64317523D01*
X187642476Y-64269904D01*
X187547238Y-64222285D01*
X187452000Y-64127047D01*
X187404380Y-63984190D01*
X187404380Y-63888952D01*
X187452000Y-63746095D01*
X187499619Y-63698476D01*
X187404380Y-62793714D02*
X187404380Y-63269904D01*
X187880571Y-63317523D01*
X187832952Y-63269904D01*
X187785333Y-63174666D01*
X187785333Y-62936571D01*
X187832952Y-62841333D01*
X187880571Y-62793714D01*
X187975809Y-62746095D01*
X188213904Y-62746095D01*
X188309142Y-62793714D01*
X188356761Y-62841333D01*
X188404380Y-62936571D01*
X188404380Y-63174666D01*
X188356761Y-63269904D01*
X188309142Y-63317523D01*
X185316761Y-68555619D02*
X185364380Y-68412761D01*
X185364380Y-68174666D01*
X185316761Y-68079428D01*
X185269142Y-68031809D01*
X185173904Y-67984190D01*
X185078666Y-67984190D01*
X184983428Y-68031809D01*
X184935809Y-68079428D01*
X184888190Y-68174666D01*
X184840571Y-68365142D01*
X184792952Y-68460380D01*
X184745333Y-68508000D01*
X184650095Y-68555619D01*
X184554857Y-68555619D01*
X184459619Y-68508000D01*
X184412000Y-68460380D01*
X184364380Y-68365142D01*
X184364380Y-68127047D01*
X184412000Y-67984190D01*
X185364380Y-67555619D02*
X184364380Y-67555619D01*
X185078666Y-67222285D01*
X184364380Y-66888952D01*
X185364380Y-66888952D01*
X185364380Y-65888952D02*
X185364380Y-66460380D01*
X185364380Y-66174666D02*
X184364380Y-66174666D01*
X184507238Y-66269904D01*
X184602476Y-66365142D01*
X184650095Y-66460380D01*
X184364380Y-65269904D02*
X184364380Y-65174666D01*
X184412000Y-65079428D01*
X184459619Y-65031809D01*
X184554857Y-64984190D01*
X184745333Y-64936571D01*
X184983428Y-64936571D01*
X185173904Y-64984190D01*
X185269142Y-65031809D01*
X185316761Y-65079428D01*
X185364380Y-65174666D01*
X185364380Y-65269904D01*
X185316761Y-65365142D01*
X185269142Y-65412761D01*
X185173904Y-65460380D01*
X184983428Y-65508000D01*
X184745333Y-65508000D01*
X184554857Y-65460380D01*
X184459619Y-65412761D01*
X184412000Y-65365142D01*
X184364380Y-65269904D01*
X185364380Y-63984190D02*
X185364380Y-64555619D01*
X185364380Y-64269904D02*
X184364380Y-64269904D01*
X184507238Y-64365142D01*
X184602476Y-64460380D01*
X184650095Y-64555619D01*
X185364380Y-63555619D02*
X184364380Y-63555619D01*
X185364380Y-62984190D02*
X184792952Y-63412761D01*
X184364380Y-62984190D02*
X184935809Y-63555619D01*
X184364380Y-62365142D02*
X184364380Y-62269904D01*
X184412000Y-62174666D01*
X184459619Y-62127047D01*
X184554857Y-62079428D01*
X184745333Y-62031809D01*
X184983428Y-62031809D01*
X185173904Y-62079428D01*
X185269142Y-62127047D01*
X185316761Y-62174666D01*
X185364380Y-62269904D01*
X185364380Y-62365142D01*
X185316761Y-62460380D01*
X185269142Y-62508000D01*
X185173904Y-62555619D01*
X184983428Y-62603238D01*
X184745333Y-62603238D01*
X184554857Y-62555619D01*
X184459619Y-62508000D01*
X184412000Y-62460380D01*
X184364380Y-62365142D01*
X184364380Y-61698476D02*
X184364380Y-61031809D01*
X185364380Y-61460380D01*
X184364380Y-60793714D02*
X184364380Y-60222285D01*
X185364380Y-60508000D02*
X184364380Y-60508000D01*
X184840571Y-59555619D02*
X184840571Y-59888952D01*
X185364380Y-59888952D02*
X184364380Y-59888952D01*
X184364380Y-59412761D01*
D13*
X191389142Y-55332285D02*
X193674857Y-55332285D01*
X182586285Y-56260857D02*
X182586285Y-53975142D01*
X183729142Y-55118000D02*
X181443428Y-55118000D01*
%TO.C,SC4*%
D10*
X164404761Y-107511904D02*
X164452380Y-107369047D01*
X164452380Y-107130952D01*
X164404761Y-107035714D01*
X164357142Y-106988095D01*
X164261904Y-106940476D01*
X164166666Y-106940476D01*
X164071428Y-106988095D01*
X164023809Y-107035714D01*
X163976190Y-107130952D01*
X163928571Y-107321428D01*
X163880952Y-107416666D01*
X163833333Y-107464285D01*
X163738095Y-107511904D01*
X163642857Y-107511904D01*
X163547619Y-107464285D01*
X163500000Y-107416666D01*
X163452380Y-107321428D01*
X163452380Y-107083333D01*
X163500000Y-106940476D01*
X164357142Y-105940476D02*
X164404761Y-105988095D01*
X164452380Y-106130952D01*
X164452380Y-106226190D01*
X164404761Y-106369047D01*
X164309523Y-106464285D01*
X164214285Y-106511904D01*
X164023809Y-106559523D01*
X163880952Y-106559523D01*
X163690476Y-106511904D01*
X163595238Y-106464285D01*
X163500000Y-106369047D01*
X163452380Y-106226190D01*
X163452380Y-106130952D01*
X163500000Y-105988095D01*
X163547619Y-105940476D01*
X163785714Y-105083333D02*
X164452380Y-105083333D01*
X163404761Y-105321428D02*
X164119047Y-105559523D01*
X164119047Y-104940476D01*
X167444761Y-110797619D02*
X167492380Y-110654761D01*
X167492380Y-110416666D01*
X167444761Y-110321428D01*
X167397142Y-110273809D01*
X167301904Y-110226190D01*
X167206666Y-110226190D01*
X167111428Y-110273809D01*
X167063809Y-110321428D01*
X167016190Y-110416666D01*
X166968571Y-110607142D01*
X166920952Y-110702380D01*
X166873333Y-110750000D01*
X166778095Y-110797619D01*
X166682857Y-110797619D01*
X166587619Y-110750000D01*
X166540000Y-110702380D01*
X166492380Y-110607142D01*
X166492380Y-110369047D01*
X166540000Y-110226190D01*
X167492380Y-109797619D02*
X166492380Y-109797619D01*
X167206666Y-109464285D01*
X166492380Y-109130952D01*
X167492380Y-109130952D01*
X167492380Y-108130952D02*
X167492380Y-108702380D01*
X167492380Y-108416666D02*
X166492380Y-108416666D01*
X166635238Y-108511904D01*
X166730476Y-108607142D01*
X166778095Y-108702380D01*
X166492380Y-107511904D02*
X166492380Y-107416666D01*
X166540000Y-107321428D01*
X166587619Y-107273809D01*
X166682857Y-107226190D01*
X166873333Y-107178571D01*
X167111428Y-107178571D01*
X167301904Y-107226190D01*
X167397142Y-107273809D01*
X167444761Y-107321428D01*
X167492380Y-107416666D01*
X167492380Y-107511904D01*
X167444761Y-107607142D01*
X167397142Y-107654761D01*
X167301904Y-107702380D01*
X167111428Y-107750000D01*
X166873333Y-107750000D01*
X166682857Y-107702380D01*
X166587619Y-107654761D01*
X166540000Y-107607142D01*
X166492380Y-107511904D01*
X167492380Y-106226190D02*
X167492380Y-106797619D01*
X167492380Y-106511904D02*
X166492380Y-106511904D01*
X166635238Y-106607142D01*
X166730476Y-106702380D01*
X166778095Y-106797619D01*
X167492380Y-105797619D02*
X166492380Y-105797619D01*
X167492380Y-105226190D02*
X166920952Y-105654761D01*
X166492380Y-105226190D02*
X167063809Y-105797619D01*
X166492380Y-104607142D02*
X166492380Y-104511904D01*
X166540000Y-104416666D01*
X166587619Y-104369047D01*
X166682857Y-104321428D01*
X166873333Y-104273809D01*
X167111428Y-104273809D01*
X167301904Y-104321428D01*
X167397142Y-104369047D01*
X167444761Y-104416666D01*
X167492380Y-104511904D01*
X167492380Y-104607142D01*
X167444761Y-104702380D01*
X167397142Y-104750000D01*
X167301904Y-104797619D01*
X167111428Y-104845238D01*
X166873333Y-104845238D01*
X166682857Y-104797619D01*
X166587619Y-104750000D01*
X166540000Y-104702380D01*
X166492380Y-104607142D01*
X166492380Y-103940476D02*
X166492380Y-103273809D01*
X167492380Y-103702380D01*
X166492380Y-103035714D02*
X166492380Y-102464285D01*
X167492380Y-102750000D02*
X166492380Y-102750000D01*
X166968571Y-101797619D02*
X166968571Y-102130952D01*
X167492380Y-102130952D02*
X166492380Y-102130952D01*
X166492380Y-101654761D01*
D13*
X170368285Y-115970857D02*
X170368285Y-113685142D01*
X171511142Y-114828000D02*
X169225428Y-114828000D01*
X157261142Y-115292285D02*
X159546857Y-115292285D01*
%TO.C,SC6*%
D10*
X187356761Y-107433904D02*
X187404380Y-107291047D01*
X187404380Y-107052952D01*
X187356761Y-106957714D01*
X187309142Y-106910095D01*
X187213904Y-106862476D01*
X187118666Y-106862476D01*
X187023428Y-106910095D01*
X186975809Y-106957714D01*
X186928190Y-107052952D01*
X186880571Y-107243428D01*
X186832952Y-107338666D01*
X186785333Y-107386285D01*
X186690095Y-107433904D01*
X186594857Y-107433904D01*
X186499619Y-107386285D01*
X186452000Y-107338666D01*
X186404380Y-107243428D01*
X186404380Y-107005333D01*
X186452000Y-106862476D01*
X187309142Y-105862476D02*
X187356761Y-105910095D01*
X187404380Y-106052952D01*
X187404380Y-106148190D01*
X187356761Y-106291047D01*
X187261523Y-106386285D01*
X187166285Y-106433904D01*
X186975809Y-106481523D01*
X186832952Y-106481523D01*
X186642476Y-106433904D01*
X186547238Y-106386285D01*
X186452000Y-106291047D01*
X186404380Y-106148190D01*
X186404380Y-106052952D01*
X186452000Y-105910095D01*
X186499619Y-105862476D01*
X186404380Y-105005333D02*
X186404380Y-105195809D01*
X186452000Y-105291047D01*
X186499619Y-105338666D01*
X186642476Y-105433904D01*
X186832952Y-105481523D01*
X187213904Y-105481523D01*
X187309142Y-105433904D01*
X187356761Y-105386285D01*
X187404380Y-105291047D01*
X187404380Y-105100571D01*
X187356761Y-105005333D01*
X187309142Y-104957714D01*
X187213904Y-104910095D01*
X186975809Y-104910095D01*
X186880571Y-104957714D01*
X186832952Y-105005333D01*
X186785333Y-105100571D01*
X186785333Y-105291047D01*
X186832952Y-105386285D01*
X186880571Y-105433904D01*
X186975809Y-105481523D01*
X190396761Y-110719619D02*
X190444380Y-110576761D01*
X190444380Y-110338666D01*
X190396761Y-110243428D01*
X190349142Y-110195809D01*
X190253904Y-110148190D01*
X190158666Y-110148190D01*
X190063428Y-110195809D01*
X190015809Y-110243428D01*
X189968190Y-110338666D01*
X189920571Y-110529142D01*
X189872952Y-110624380D01*
X189825333Y-110672000D01*
X189730095Y-110719619D01*
X189634857Y-110719619D01*
X189539619Y-110672000D01*
X189492000Y-110624380D01*
X189444380Y-110529142D01*
X189444380Y-110291047D01*
X189492000Y-110148190D01*
X190444380Y-109719619D02*
X189444380Y-109719619D01*
X190158666Y-109386285D01*
X189444380Y-109052952D01*
X190444380Y-109052952D01*
X190444380Y-108052952D02*
X190444380Y-108624380D01*
X190444380Y-108338666D02*
X189444380Y-108338666D01*
X189587238Y-108433904D01*
X189682476Y-108529142D01*
X189730095Y-108624380D01*
X189444380Y-107433904D02*
X189444380Y-107338666D01*
X189492000Y-107243428D01*
X189539619Y-107195809D01*
X189634857Y-107148190D01*
X189825333Y-107100571D01*
X190063428Y-107100571D01*
X190253904Y-107148190D01*
X190349142Y-107195809D01*
X190396761Y-107243428D01*
X190444380Y-107338666D01*
X190444380Y-107433904D01*
X190396761Y-107529142D01*
X190349142Y-107576761D01*
X190253904Y-107624380D01*
X190063428Y-107672000D01*
X189825333Y-107672000D01*
X189634857Y-107624380D01*
X189539619Y-107576761D01*
X189492000Y-107529142D01*
X189444380Y-107433904D01*
X190444380Y-106148190D02*
X190444380Y-106719619D01*
X190444380Y-106433904D02*
X189444380Y-106433904D01*
X189587238Y-106529142D01*
X189682476Y-106624380D01*
X189730095Y-106719619D01*
X190444380Y-105719619D02*
X189444380Y-105719619D01*
X190444380Y-105148190D02*
X189872952Y-105576761D01*
X189444380Y-105148190D02*
X190015809Y-105719619D01*
X189444380Y-104529142D02*
X189444380Y-104433904D01*
X189492000Y-104338666D01*
X189539619Y-104291047D01*
X189634857Y-104243428D01*
X189825333Y-104195809D01*
X190063428Y-104195809D01*
X190253904Y-104243428D01*
X190349142Y-104291047D01*
X190396761Y-104338666D01*
X190444380Y-104433904D01*
X190444380Y-104529142D01*
X190396761Y-104624380D01*
X190349142Y-104672000D01*
X190253904Y-104719619D01*
X190063428Y-104767238D01*
X189825333Y-104767238D01*
X189634857Y-104719619D01*
X189539619Y-104672000D01*
X189492000Y-104624380D01*
X189444380Y-104529142D01*
X189444380Y-103862476D02*
X189444380Y-103195809D01*
X190444380Y-103624380D01*
X189444380Y-102957714D02*
X189444380Y-102386285D01*
X190444380Y-102672000D02*
X189444380Y-102672000D01*
X189920571Y-101719619D02*
X189920571Y-102052952D01*
X190444380Y-102052952D02*
X189444380Y-102052952D01*
X189444380Y-101576761D01*
D13*
X192746285Y-116204857D02*
X192746285Y-113919142D01*
X193889142Y-115062000D02*
X191603428Y-115062000D01*
X181229142Y-115276285D02*
X183514857Y-115276285D01*
%TO.C,SC3*%
D10*
X135404761Y-65261904D02*
X135452380Y-65119047D01*
X135452380Y-64880952D01*
X135404761Y-64785714D01*
X135357142Y-64738095D01*
X135261904Y-64690476D01*
X135166666Y-64690476D01*
X135071428Y-64738095D01*
X135023809Y-64785714D01*
X134976190Y-64880952D01*
X134928571Y-65071428D01*
X134880952Y-65166666D01*
X134833333Y-65214285D01*
X134738095Y-65261904D01*
X134642857Y-65261904D01*
X134547619Y-65214285D01*
X134500000Y-65166666D01*
X134452380Y-65071428D01*
X134452380Y-64833333D01*
X134500000Y-64690476D01*
X135357142Y-63690476D02*
X135404761Y-63738095D01*
X135452380Y-63880952D01*
X135452380Y-63976190D01*
X135404761Y-64119047D01*
X135309523Y-64214285D01*
X135214285Y-64261904D01*
X135023809Y-64309523D01*
X134880952Y-64309523D01*
X134690476Y-64261904D01*
X134595238Y-64214285D01*
X134500000Y-64119047D01*
X134452380Y-63976190D01*
X134452380Y-63880952D01*
X134500000Y-63738095D01*
X134547619Y-63690476D01*
X134452380Y-63357142D02*
X134452380Y-62738095D01*
X134833333Y-63071428D01*
X134833333Y-62928571D01*
X134880952Y-62833333D01*
X134928571Y-62785714D01*
X135023809Y-62738095D01*
X135261904Y-62738095D01*
X135357142Y-62785714D01*
X135404761Y-62833333D01*
X135452380Y-62928571D01*
X135452380Y-63214285D01*
X135404761Y-63309523D01*
X135357142Y-63357142D01*
X132364761Y-68547619D02*
X132412380Y-68404761D01*
X132412380Y-68166666D01*
X132364761Y-68071428D01*
X132317142Y-68023809D01*
X132221904Y-67976190D01*
X132126666Y-67976190D01*
X132031428Y-68023809D01*
X131983809Y-68071428D01*
X131936190Y-68166666D01*
X131888571Y-68357142D01*
X131840952Y-68452380D01*
X131793333Y-68500000D01*
X131698095Y-68547619D01*
X131602857Y-68547619D01*
X131507619Y-68500000D01*
X131460000Y-68452380D01*
X131412380Y-68357142D01*
X131412380Y-68119047D01*
X131460000Y-67976190D01*
X132412380Y-67547619D02*
X131412380Y-67547619D01*
X132126666Y-67214285D01*
X131412380Y-66880952D01*
X132412380Y-66880952D01*
X132412380Y-65880952D02*
X132412380Y-66452380D01*
X132412380Y-66166666D02*
X131412380Y-66166666D01*
X131555238Y-66261904D01*
X131650476Y-66357142D01*
X131698095Y-66452380D01*
X131412380Y-65261904D02*
X131412380Y-65166666D01*
X131460000Y-65071428D01*
X131507619Y-65023809D01*
X131602857Y-64976190D01*
X131793333Y-64928571D01*
X132031428Y-64928571D01*
X132221904Y-64976190D01*
X132317142Y-65023809D01*
X132364761Y-65071428D01*
X132412380Y-65166666D01*
X132412380Y-65261904D01*
X132364761Y-65357142D01*
X132317142Y-65404761D01*
X132221904Y-65452380D01*
X132031428Y-65500000D01*
X131793333Y-65500000D01*
X131602857Y-65452380D01*
X131507619Y-65404761D01*
X131460000Y-65357142D01*
X131412380Y-65261904D01*
X132412380Y-63976190D02*
X132412380Y-64547619D01*
X132412380Y-64261904D02*
X131412380Y-64261904D01*
X131555238Y-64357142D01*
X131650476Y-64452380D01*
X131698095Y-64547619D01*
X132412380Y-63547619D02*
X131412380Y-63547619D01*
X132412380Y-62976190D02*
X131840952Y-63404761D01*
X131412380Y-62976190D02*
X131983809Y-63547619D01*
X131412380Y-62357142D02*
X131412380Y-62261904D01*
X131460000Y-62166666D01*
X131507619Y-62119047D01*
X131602857Y-62071428D01*
X131793333Y-62023809D01*
X132031428Y-62023809D01*
X132221904Y-62071428D01*
X132317142Y-62119047D01*
X132364761Y-62166666D01*
X132412380Y-62261904D01*
X132412380Y-62357142D01*
X132364761Y-62452380D01*
X132317142Y-62500000D01*
X132221904Y-62547619D01*
X132031428Y-62595238D01*
X131793333Y-62595238D01*
X131602857Y-62547619D01*
X131507619Y-62500000D01*
X131460000Y-62452380D01*
X131412380Y-62357142D01*
X131412380Y-61690476D02*
X131412380Y-61023809D01*
X132412380Y-61452380D01*
X131412380Y-60785714D02*
X131412380Y-60214285D01*
X132412380Y-60500000D02*
X131412380Y-60500000D01*
X131888571Y-59547619D02*
X131888571Y-59880952D01*
X132412380Y-59880952D02*
X131412380Y-59880952D01*
X131412380Y-59404761D01*
D13*
X129464285Y-56134857D02*
X129464285Y-53849142D01*
X130607142Y-54992000D02*
X128321428Y-54992000D01*
X138607142Y-55206285D02*
X140892857Y-55206285D01*
%TO.C,SC2*%
D10*
X113904761Y-107011904D02*
X113952380Y-106869047D01*
X113952380Y-106630952D01*
X113904761Y-106535714D01*
X113857142Y-106488095D01*
X113761904Y-106440476D01*
X113666666Y-106440476D01*
X113571428Y-106488095D01*
X113523809Y-106535714D01*
X113476190Y-106630952D01*
X113428571Y-106821428D01*
X113380952Y-106916666D01*
X113333333Y-106964285D01*
X113238095Y-107011904D01*
X113142857Y-107011904D01*
X113047619Y-106964285D01*
X113000000Y-106916666D01*
X112952380Y-106821428D01*
X112952380Y-106583333D01*
X113000000Y-106440476D01*
X113857142Y-105440476D02*
X113904761Y-105488095D01*
X113952380Y-105630952D01*
X113952380Y-105726190D01*
X113904761Y-105869047D01*
X113809523Y-105964285D01*
X113714285Y-106011904D01*
X113523809Y-106059523D01*
X113380952Y-106059523D01*
X113190476Y-106011904D01*
X113095238Y-105964285D01*
X113000000Y-105869047D01*
X112952380Y-105726190D01*
X112952380Y-105630952D01*
X113000000Y-105488095D01*
X113047619Y-105440476D01*
X113047619Y-105059523D02*
X113000000Y-105011904D01*
X112952380Y-104916666D01*
X112952380Y-104678571D01*
X113000000Y-104583333D01*
X113047619Y-104535714D01*
X113142857Y-104488095D01*
X113238095Y-104488095D01*
X113380952Y-104535714D01*
X113952380Y-105107142D01*
X113952380Y-104488095D01*
X115404761Y-110797619D02*
X115452380Y-110654761D01*
X115452380Y-110416666D01*
X115404761Y-110321428D01*
X115357142Y-110273809D01*
X115261904Y-110226190D01*
X115166666Y-110226190D01*
X115071428Y-110273809D01*
X115023809Y-110321428D01*
X114976190Y-110416666D01*
X114928571Y-110607142D01*
X114880952Y-110702380D01*
X114833333Y-110750000D01*
X114738095Y-110797619D01*
X114642857Y-110797619D01*
X114547619Y-110750000D01*
X114500000Y-110702380D01*
X114452380Y-110607142D01*
X114452380Y-110369047D01*
X114500000Y-110226190D01*
X115452380Y-109797619D02*
X114452380Y-109797619D01*
X115166666Y-109464285D01*
X114452380Y-109130952D01*
X115452380Y-109130952D01*
X115452380Y-108130952D02*
X115452380Y-108702380D01*
X115452380Y-108416666D02*
X114452380Y-108416666D01*
X114595238Y-108511904D01*
X114690476Y-108607142D01*
X114738095Y-108702380D01*
X114452380Y-107511904D02*
X114452380Y-107416666D01*
X114500000Y-107321428D01*
X114547619Y-107273809D01*
X114642857Y-107226190D01*
X114833333Y-107178571D01*
X115071428Y-107178571D01*
X115261904Y-107226190D01*
X115357142Y-107273809D01*
X115404761Y-107321428D01*
X115452380Y-107416666D01*
X115452380Y-107511904D01*
X115404761Y-107607142D01*
X115357142Y-107654761D01*
X115261904Y-107702380D01*
X115071428Y-107750000D01*
X114833333Y-107750000D01*
X114642857Y-107702380D01*
X114547619Y-107654761D01*
X114500000Y-107607142D01*
X114452380Y-107511904D01*
X115452380Y-106226190D02*
X115452380Y-106797619D01*
X115452380Y-106511904D02*
X114452380Y-106511904D01*
X114595238Y-106607142D01*
X114690476Y-106702380D01*
X114738095Y-106797619D01*
X115452380Y-105797619D02*
X114452380Y-105797619D01*
X115452380Y-105226190D02*
X114880952Y-105654761D01*
X114452380Y-105226190D02*
X115023809Y-105797619D01*
X114452380Y-104607142D02*
X114452380Y-104511904D01*
X114500000Y-104416666D01*
X114547619Y-104369047D01*
X114642857Y-104321428D01*
X114833333Y-104273809D01*
X115071428Y-104273809D01*
X115261904Y-104321428D01*
X115357142Y-104369047D01*
X115404761Y-104416666D01*
X115452380Y-104511904D01*
X115452380Y-104607142D01*
X115404761Y-104702380D01*
X115357142Y-104750000D01*
X115261904Y-104797619D01*
X115071428Y-104845238D01*
X114833333Y-104845238D01*
X114642857Y-104797619D01*
X114547619Y-104750000D01*
X114500000Y-104702380D01*
X114452380Y-104607142D01*
X114452380Y-103940476D02*
X114452380Y-103273809D01*
X115452380Y-103702380D01*
X114452380Y-103035714D02*
X114452380Y-102464285D01*
X115452380Y-102750000D02*
X114452380Y-102750000D01*
X114928571Y-101797619D02*
X114928571Y-102130952D01*
X115452380Y-102130952D02*
X114452380Y-102130952D01*
X114452380Y-101654761D01*
D13*
X105283142Y-115354285D02*
X107568857Y-115354285D01*
X116800285Y-116282857D02*
X116800285Y-113997142D01*
X117943142Y-115140000D02*
X115657428Y-115140000D01*
%TO.C,SC1*%
D10*
X112410761Y-65269904D02*
X112458380Y-65127047D01*
X112458380Y-64888952D01*
X112410761Y-64793714D01*
X112363142Y-64746095D01*
X112267904Y-64698476D01*
X112172666Y-64698476D01*
X112077428Y-64746095D01*
X112029809Y-64793714D01*
X111982190Y-64888952D01*
X111934571Y-65079428D01*
X111886952Y-65174666D01*
X111839333Y-65222285D01*
X111744095Y-65269904D01*
X111648857Y-65269904D01*
X111553619Y-65222285D01*
X111506000Y-65174666D01*
X111458380Y-65079428D01*
X111458380Y-64841333D01*
X111506000Y-64698476D01*
X112363142Y-63698476D02*
X112410761Y-63746095D01*
X112458380Y-63888952D01*
X112458380Y-63984190D01*
X112410761Y-64127047D01*
X112315523Y-64222285D01*
X112220285Y-64269904D01*
X112029809Y-64317523D01*
X111886952Y-64317523D01*
X111696476Y-64269904D01*
X111601238Y-64222285D01*
X111506000Y-64127047D01*
X111458380Y-63984190D01*
X111458380Y-63888952D01*
X111506000Y-63746095D01*
X111553619Y-63698476D01*
X112458380Y-62746095D02*
X112458380Y-63317523D01*
X112458380Y-63031809D02*
X111458380Y-63031809D01*
X111601238Y-63127047D01*
X111696476Y-63222285D01*
X111744095Y-63317523D01*
X109370761Y-68555619D02*
X109418380Y-68412761D01*
X109418380Y-68174666D01*
X109370761Y-68079428D01*
X109323142Y-68031809D01*
X109227904Y-67984190D01*
X109132666Y-67984190D01*
X109037428Y-68031809D01*
X108989809Y-68079428D01*
X108942190Y-68174666D01*
X108894571Y-68365142D01*
X108846952Y-68460380D01*
X108799333Y-68508000D01*
X108704095Y-68555619D01*
X108608857Y-68555619D01*
X108513619Y-68508000D01*
X108466000Y-68460380D01*
X108418380Y-68365142D01*
X108418380Y-68127047D01*
X108466000Y-67984190D01*
X109418380Y-67555619D02*
X108418380Y-67555619D01*
X109132666Y-67222285D01*
X108418380Y-66888952D01*
X109418380Y-66888952D01*
X109418380Y-65888952D02*
X109418380Y-66460380D01*
X109418380Y-66174666D02*
X108418380Y-66174666D01*
X108561238Y-66269904D01*
X108656476Y-66365142D01*
X108704095Y-66460380D01*
X108418380Y-65269904D02*
X108418380Y-65174666D01*
X108466000Y-65079428D01*
X108513619Y-65031809D01*
X108608857Y-64984190D01*
X108799333Y-64936571D01*
X109037428Y-64936571D01*
X109227904Y-64984190D01*
X109323142Y-65031809D01*
X109370761Y-65079428D01*
X109418380Y-65174666D01*
X109418380Y-65269904D01*
X109370761Y-65365142D01*
X109323142Y-65412761D01*
X109227904Y-65460380D01*
X109037428Y-65508000D01*
X108799333Y-65508000D01*
X108608857Y-65460380D01*
X108513619Y-65412761D01*
X108466000Y-65365142D01*
X108418380Y-65269904D01*
X109418380Y-63984190D02*
X109418380Y-64555619D01*
X109418380Y-64269904D02*
X108418380Y-64269904D01*
X108561238Y-64365142D01*
X108656476Y-64460380D01*
X108704095Y-64555619D01*
X109418380Y-63555619D02*
X108418380Y-63555619D01*
X109418380Y-62984190D02*
X108846952Y-63412761D01*
X108418380Y-62984190D02*
X108989809Y-63555619D01*
X108418380Y-62365142D02*
X108418380Y-62269904D01*
X108466000Y-62174666D01*
X108513619Y-62127047D01*
X108608857Y-62079428D01*
X108799333Y-62031809D01*
X109037428Y-62031809D01*
X109227904Y-62079428D01*
X109323142Y-62127047D01*
X109370761Y-62174666D01*
X109418380Y-62269904D01*
X109418380Y-62365142D01*
X109370761Y-62460380D01*
X109323142Y-62508000D01*
X109227904Y-62555619D01*
X109037428Y-62603238D01*
X108799333Y-62603238D01*
X108608857Y-62555619D01*
X108513619Y-62508000D01*
X108466000Y-62460380D01*
X108418380Y-62365142D01*
X108418380Y-61698476D02*
X108418380Y-61031809D01*
X109418380Y-61460380D01*
X108418380Y-60793714D02*
X108418380Y-60222285D01*
X109418380Y-60508000D02*
X108418380Y-60508000D01*
X108894571Y-59555619D02*
X108894571Y-59888952D01*
X109418380Y-59888952D02*
X108418380Y-59888952D01*
X108418380Y-59412761D01*
D13*
X115443142Y-55332285D02*
X117728857Y-55332285D01*
X106640285Y-56260857D02*
X106640285Y-53975142D01*
X107783142Y-55118000D02*
X105497428Y-55118000D01*
%TD*%
M02*
