%FSLAX45Y45*%
G04 Gerber Fmt 4.5, Leading zero omitted, Abs format (unit mm)*
G04 Created by KiCad (PCBNEW (5.1.10)-1) date 2022-06-07 20:21:12*
%MOMM*%
%LPD*%
G01*
G04 APERTURE LIST*
%TA.AperFunction,Profile*%
%ADD10C,0.050000*%
%TD*%
%ADD11C,0.200000*%
%ADD12C,0.300000*%
G04 APERTURE END LIST*
D10*
X13535000Y-6925000D02*
X13535000Y-7725000D01*
X13035000Y-7725000D02*
X13035000Y-6925000D01*
X13035000Y-7725000D02*
X13535000Y-7725000D01*
X13035000Y-6925000D02*
X13535000Y-6925000D01*
X9950000Y-4550000D02*
X11000000Y-4550000D01*
X9950000Y-12450000D02*
X9950000Y-4550000D01*
X11000000Y-12450000D02*
X9950000Y-12450000D01*
X11000000Y-13500000D02*
X11000000Y-12450000D01*
X18900000Y-13500000D02*
X11000000Y-13500000D01*
X18900000Y-12450000D02*
X18900000Y-13500000D01*
X19950000Y-12450000D02*
X18900000Y-12450000D01*
X19950000Y-4550000D02*
X19950000Y-12450000D01*
X18900000Y-4550000D02*
X19950000Y-4550000D01*
X18900000Y-3500000D02*
X18900000Y-4550000D01*
X11000000Y-3500000D02*
X18900000Y-3500000D01*
X11000000Y-4550000D02*
X11000000Y-3500000D01*
D11*
D12*
X10233928Y-13968214D02*
X10233928Y-13668214D01*
X10305357Y-13668214D01*
X10348214Y-13682500D01*
X10376786Y-13711071D01*
X10391071Y-13739643D01*
X10405357Y-13796786D01*
X10405357Y-13839643D01*
X10391071Y-13896786D01*
X10376786Y-13925357D01*
X10348214Y-13953929D01*
X10305357Y-13968214D01*
X10233928Y-13968214D01*
X10533928Y-13968214D02*
X10533928Y-13768214D01*
X10533928Y-13825357D02*
X10548214Y-13796786D01*
X10562500Y-13782500D01*
X10591071Y-13768214D01*
X10619643Y-13768214D01*
X10719643Y-13968214D02*
X10719643Y-13768214D01*
X10719643Y-13668214D02*
X10705357Y-13682500D01*
X10719643Y-13696786D01*
X10733928Y-13682500D01*
X10719643Y-13668214D01*
X10719643Y-13696786D01*
X10905357Y-13968214D02*
X10876786Y-13953929D01*
X10862500Y-13925357D01*
X10862500Y-13668214D01*
X11062500Y-13968214D02*
X11033928Y-13953929D01*
X11019643Y-13925357D01*
X11019643Y-13668214D01*
X11405357Y-13968214D02*
X11405357Y-13668214D01*
X11505357Y-13882500D01*
X11605357Y-13668214D01*
X11605357Y-13968214D01*
X11876786Y-13968214D02*
X11876786Y-13811071D01*
X11862500Y-13782500D01*
X11833928Y-13768214D01*
X11776786Y-13768214D01*
X11748214Y-13782500D01*
X11876786Y-13953929D02*
X11848214Y-13968214D01*
X11776786Y-13968214D01*
X11748214Y-13953929D01*
X11733928Y-13925357D01*
X11733928Y-13896786D01*
X11748214Y-13868214D01*
X11776786Y-13853929D01*
X11848214Y-13853929D01*
X11876786Y-13839643D01*
X12019643Y-13768214D02*
X12019643Y-14068214D01*
X12019643Y-13782500D02*
X12048214Y-13768214D01*
X12105357Y-13768214D01*
X12133928Y-13782500D01*
X12148214Y-13796786D01*
X12162500Y-13825357D01*
X12162500Y-13911071D01*
X12148214Y-13939643D01*
X12133928Y-13953929D01*
X12105357Y-13968214D01*
X12048214Y-13968214D01*
X12019643Y-13953929D01*
X12291071Y-13939643D02*
X12305357Y-13953929D01*
X12291071Y-13968214D01*
X12276786Y-13953929D01*
X12291071Y-13939643D01*
X12291071Y-13968214D01*
X12291071Y-13782500D02*
X12305357Y-13796786D01*
X12291071Y-13811071D01*
X12276786Y-13796786D01*
X12291071Y-13782500D01*
X12291071Y-13811071D01*
M02*
