M48
; DRILL file {KiCad (5.1.10)-1} date 05/07/22 17:48:35
; FORMAT={-:-/ absolute / metric / decimal}
; #@! TF.CreationDate,2022-05-07T17:48:35-07:00
; #@! TF.GenerationSoftware,Kicad,Pcbnew,(5.1.10)-1
; #@! TF.FileFunction,Plated,1,4,PTH
FMAT,2
METRIC
T1C0.400
T2C2.000
%
G90
G05
T1
X120.0Y-106.25
X120.5Y-101.5
X121.5Y-107.0
X123.0Y-107.75
X134.25Y-99.75
X137.75Y-98.75
X142.25Y-91.5
X143.75Y-124.0
X144.5Y-97.75
X146.75Y-114.25
T2
X107.5Y-80.5
X110.75Y-56.5
X110.75Y-65.5
X112.5Y-116.25
X116.5Y-80.5
X121.5Y-116.25
X161.5Y-116.25
X166.5Y-80.5
X170.5Y-116.25
X172.25Y-56.5
X172.25Y-65.5
X175.5Y-80.5
T0
M30
