%TF.GenerationSoftware,KiCad,Pcbnew,(5.1.10)-1*%
%TF.CreationDate,2022-05-08T17:07:42-07:00*%
%TF.ProjectId,solar-panel-side+XY,736f6c61-722d-4706-916e-656c2d736964,1.0*%
%TF.SameCoordinates,Original*%
%TF.FileFunction,Copper,L2,Bot*%
%TF.FilePolarity,Positive*%
%FSLAX46Y46*%
G04 Gerber Fmt 4.6, Leading zero omitted, Abs format (unit mm)*
G04 Created by KiCad (PCBNEW (5.1.10)-1) date 2022-05-08 17:07:42*
%MOMM*%
%LPD*%
G01*
G04 APERTURE LIST*
%TA.AperFunction,SMDPad,CuDef*%
%ADD10R,1.250000X1.800000*%
%TD*%
%TA.AperFunction,SMDPad,CuDef*%
%ADD11R,0.600000X1.000000*%
%TD*%
%TA.AperFunction,ComponentPad*%
%ADD12C,3.000000*%
%TD*%
%TA.AperFunction,ViaPad*%
%ADD13C,0.800000*%
%TD*%
%TA.AperFunction,Conductor*%
%ADD14C,0.250000*%
%TD*%
%TA.AperFunction,Conductor*%
%ADD15C,0.500000*%
%TD*%
%TA.AperFunction,Conductor*%
%ADD16C,0.254000*%
%TD*%
%TA.AperFunction,Conductor*%
%ADD17C,0.100000*%
%TD*%
G04 APERTURE END LIST*
D10*
%TO.P,J1,7*%
%TO.N,Net-(J1-Pad7)*%
X125500000Y-103810000D03*
%TO.P,J1,6*%
%TO.N,Net-(J1-Pad6)*%
X114290002Y-103810000D03*
D11*
%TO.P,J1,5*%
%TO.N,SDA*%
X122895002Y-109000000D03*
%TO.P,J1,4*%
%TO.N,SCL*%
X121395002Y-109000000D03*
%TO.P,J1,3*%
%TO.N,+3V3*%
X119895000Y-109000000D03*
%TO.P,J1,2*%
%TO.N,GND*%
X118395001Y-109000000D03*
%TO.P,J1,1*%
%TO.N,VSOLAR*%
X116895001Y-109000000D03*
%TD*%
D12*
%TO.P,SC6,2*%
%TO.N,GND*%
X110750000Y-56500000D03*
%TO.P,SC6,1*%
%TO.N,Net-(SC5-Pad2)*%
X110750000Y-65500000D03*
%TD*%
%TO.P,SC5,2*%
%TO.N,Net-(SC5-Pad2)*%
X172250000Y-65500000D03*
%TO.P,SC5,1*%
%TO.N,Net-(D3-Pad2)*%
X172250000Y-56500000D03*
%TD*%
%TO.P,SC4,2*%
%TO.N,GND*%
X175500000Y-80500000D03*
%TO.P,SC4,1*%
%TO.N,Net-(SC3-Pad2)*%
X166500000Y-80500000D03*
%TD*%
%TO.P,SC3,2*%
%TO.N,Net-(SC3-Pad2)*%
X170500000Y-116250000D03*
%TO.P,SC3,1*%
%TO.N,Net-(D2-Pad2)*%
X161500000Y-116250000D03*
%TD*%
%TO.P,SC2,2*%
%TO.N,GND*%
X121500000Y-116250000D03*
%TO.P,SC2,1*%
%TO.N,Net-(SC1-Pad2)*%
X112500000Y-116250000D03*
%TD*%
%TO.P,SC1,2*%
%TO.N,Net-(SC1-Pad2)*%
X116500000Y-80500000D03*
%TO.P,SC1,1*%
%TO.N,Net-(D1-Pad2)*%
X107500000Y-80500000D03*
%TD*%
D13*
%TO.N,GND*%
X142250000Y-91500000D03*
X146750000Y-114250000D03*
X143750000Y-124000000D03*
%TO.N,+3V3*%
X144500000Y-97750000D03*
X120000000Y-106250000D03*
%TO.N,VSOLAR*%
X120500000Y-101500000D03*
%TO.N,SDA*%
X134250000Y-99750000D03*
X123000000Y-107750000D03*
%TO.N,SCL*%
X137750000Y-98750000D03*
X121500000Y-107000000D03*
%TD*%
D14*
%TO.N,+3V3*%
X144500000Y-97750000D02*
X144500000Y-97750000D01*
X119895000Y-109000000D02*
X119895000Y-106605000D01*
X127477180Y-97750000D02*
X144500000Y-97750000D01*
X119895000Y-105332180D02*
X120238590Y-104988590D01*
X120238590Y-104988590D02*
X127477180Y-97750000D01*
X119895000Y-109000000D02*
X119895000Y-105332180D01*
X120000000Y-105227180D02*
X120238590Y-104988590D01*
D15*
%TO.N,VSOLAR*%
X120500000Y-101500000D02*
X120500000Y-101500000D01*
X120500000Y-101500000D02*
X117145001Y-104854999D01*
X116895001Y-105104999D02*
X117145001Y-104854999D01*
X116895001Y-109000000D02*
X116895001Y-105104999D01*
D14*
%TO.N,SDA*%
X134250000Y-99750000D02*
X134250000Y-99750000D01*
X126750000Y-99750000D02*
X134250000Y-99750000D01*
X122895002Y-103604998D02*
X126750000Y-99750000D01*
X122895002Y-109000000D02*
X122895002Y-103604998D01*
%TO.N,SCL*%
X137750000Y-98750000D02*
X137750000Y-98750000D01*
X127113590Y-98750000D02*
X137750000Y-98750000D01*
X121395002Y-104468588D02*
X127113590Y-98750000D01*
X121395002Y-109000000D02*
X121395002Y-104468588D01*
D15*
%TO.N,Net-(SC5-Pad2)*%
X110750000Y-65500000D02*
X121250000Y-55000000D01*
X161750000Y-55000000D02*
X172250000Y-65500000D01*
X121250000Y-55000000D02*
X161750000Y-55000000D01*
%TD*%
D16*
%TO.N,GND*%
X182340000Y-147090000D02*
X100660000Y-147090000D01*
X100660000Y-143018773D01*
X100855377Y-143018773D01*
X100855377Y-143441227D01*
X100937794Y-143855563D01*
X101099460Y-144245860D01*
X101334162Y-144597118D01*
X101632882Y-144895838D01*
X101984140Y-145130540D01*
X102374437Y-145292206D01*
X102788773Y-145374623D01*
X103211227Y-145374623D01*
X103625563Y-145292206D01*
X104015860Y-145130540D01*
X104367118Y-144895838D01*
X104665838Y-144597118D01*
X104900540Y-144245860D01*
X105062206Y-143855563D01*
X105144623Y-143441227D01*
X105144623Y-143018773D01*
X177855377Y-143018773D01*
X177855377Y-143441227D01*
X177937794Y-143855563D01*
X178099460Y-144245860D01*
X178334162Y-144597118D01*
X178632882Y-144895838D01*
X178984140Y-145130540D01*
X179374437Y-145292206D01*
X179788773Y-145374623D01*
X180211227Y-145374623D01*
X180625563Y-145292206D01*
X181015860Y-145130540D01*
X181367118Y-144895838D01*
X181665838Y-144597118D01*
X181900540Y-144245860D01*
X182062206Y-143855563D01*
X182144623Y-143441227D01*
X182144623Y-143018773D01*
X182062206Y-142604437D01*
X181900540Y-142214140D01*
X181665838Y-141862882D01*
X181367118Y-141564162D01*
X181015860Y-141329460D01*
X180625563Y-141167794D01*
X180211227Y-141085377D01*
X179788773Y-141085377D01*
X179374437Y-141167794D01*
X178984140Y-141329460D01*
X178632882Y-141564162D01*
X178334162Y-141862882D01*
X178099460Y-142214140D01*
X177937794Y-142604437D01*
X177855377Y-143018773D01*
X105144623Y-143018773D01*
X105062206Y-142604437D01*
X104900540Y-142214140D01*
X104665838Y-141862882D01*
X104367118Y-141564162D01*
X104015860Y-141329460D01*
X103625563Y-141167794D01*
X103211227Y-141085377D01*
X102788773Y-141085377D01*
X102374437Y-141167794D01*
X101984140Y-141329460D01*
X101632882Y-141564162D01*
X101334162Y-141862882D01*
X101099460Y-142214140D01*
X100937794Y-142604437D01*
X100855377Y-143018773D01*
X100660000Y-143018773D01*
X100660000Y-130897582D01*
X133190000Y-130897582D01*
X133190001Y-136962419D01*
X133190226Y-136964702D01*
X133190274Y-136971602D01*
X133193408Y-137001421D01*
X133193408Y-137031405D01*
X133194371Y-137040570D01*
X133252022Y-137554536D01*
X133264458Y-137613039D01*
X133276078Y-137671727D01*
X133278803Y-137680530D01*
X133435185Y-138173509D01*
X133458736Y-138228456D01*
X133481545Y-138283797D01*
X133485929Y-138291903D01*
X133735087Y-138745120D01*
X133768856Y-138794439D01*
X133801985Y-138844303D01*
X133807860Y-138851403D01*
X134140302Y-139247593D01*
X134183052Y-139289456D01*
X134225192Y-139331892D01*
X134232334Y-139337716D01*
X134635399Y-139661789D01*
X134685452Y-139694542D01*
X134735045Y-139727994D01*
X134743182Y-139732320D01*
X135201518Y-139971931D01*
X135256950Y-139994327D01*
X135312126Y-140017521D01*
X135320948Y-140020184D01*
X135817094Y-140166208D01*
X135875828Y-140177412D01*
X135934451Y-140189446D01*
X135943623Y-140190345D01*
X136458683Y-140237219D01*
X136518501Y-140236801D01*
X136578318Y-140237219D01*
X136587489Y-140236319D01*
X136587491Y-140236319D01*
X137101845Y-140182258D01*
X137160401Y-140170238D01*
X137219201Y-140159022D01*
X137228023Y-140156358D01*
X137722084Y-140003421D01*
X137777252Y-139980230D01*
X137832691Y-139957832D01*
X137840827Y-139953506D01*
X138295772Y-139707519D01*
X138345373Y-139674063D01*
X138395420Y-139641313D01*
X138402561Y-139635489D01*
X138801062Y-139305820D01*
X138843221Y-139263365D01*
X138885951Y-139221521D01*
X138891825Y-139214420D01*
X139218704Y-138813628D01*
X139251798Y-138763817D01*
X139285604Y-138714445D01*
X139289987Y-138706339D01*
X139532792Y-138249687D01*
X139555583Y-138194393D01*
X139579153Y-138139400D01*
X139581878Y-138130597D01*
X139731362Y-137635482D01*
X139742982Y-137576794D01*
X139755418Y-137518291D01*
X139756381Y-137509126D01*
X139806850Y-136994405D01*
X139806850Y-136994402D01*
X139810000Y-136962419D01*
X139810000Y-130897582D01*
X143190000Y-130897582D01*
X143190001Y-136962419D01*
X143190226Y-136964702D01*
X143190274Y-136971602D01*
X143193408Y-137001421D01*
X143193408Y-137031405D01*
X143194371Y-137040570D01*
X143252022Y-137554536D01*
X143264458Y-137613039D01*
X143276078Y-137671727D01*
X143278803Y-137680530D01*
X143435185Y-138173509D01*
X143458736Y-138228456D01*
X143481545Y-138283797D01*
X143485929Y-138291903D01*
X143735087Y-138745120D01*
X143768856Y-138794439D01*
X143801985Y-138844303D01*
X143807860Y-138851403D01*
X144140302Y-139247593D01*
X144183052Y-139289456D01*
X144225192Y-139331892D01*
X144232334Y-139337716D01*
X144635399Y-139661789D01*
X144685452Y-139694542D01*
X144735045Y-139727994D01*
X144743182Y-139732320D01*
X145201518Y-139971931D01*
X145256950Y-139994327D01*
X145312126Y-140017521D01*
X145320948Y-140020184D01*
X145817094Y-140166208D01*
X145875828Y-140177412D01*
X145934451Y-140189446D01*
X145943623Y-140190345D01*
X146458683Y-140237219D01*
X146518501Y-140236801D01*
X146578318Y-140237219D01*
X146587489Y-140236319D01*
X146587491Y-140236319D01*
X147101845Y-140182258D01*
X147160401Y-140170238D01*
X147219201Y-140159022D01*
X147228023Y-140156358D01*
X147722084Y-140003421D01*
X147777252Y-139980230D01*
X147832691Y-139957832D01*
X147840827Y-139953506D01*
X148295772Y-139707519D01*
X148345373Y-139674063D01*
X148395420Y-139641313D01*
X148402561Y-139635489D01*
X148801062Y-139305820D01*
X148843221Y-139263365D01*
X148885951Y-139221521D01*
X148891825Y-139214420D01*
X149218704Y-138813628D01*
X149251798Y-138763817D01*
X149285604Y-138714445D01*
X149289987Y-138706339D01*
X149532792Y-138249687D01*
X149555583Y-138194393D01*
X149579153Y-138139400D01*
X149581878Y-138130597D01*
X149731362Y-137635482D01*
X149742982Y-137576794D01*
X149755418Y-137518291D01*
X149756381Y-137509126D01*
X149806850Y-136994405D01*
X149806850Y-136994402D01*
X149810000Y-136962419D01*
X149810000Y-130897581D01*
X149809774Y-130895287D01*
X149809726Y-130888398D01*
X149806592Y-130858579D01*
X149806592Y-130828594D01*
X149805629Y-130819430D01*
X149747978Y-130305464D01*
X149735542Y-130246961D01*
X149723922Y-130188273D01*
X149721197Y-130179470D01*
X149564815Y-129686490D01*
X149541259Y-129631530D01*
X149518455Y-129576203D01*
X149514072Y-129568097D01*
X149264913Y-129114880D01*
X149231126Y-129065535D01*
X149198014Y-129015697D01*
X149192140Y-129008597D01*
X148859697Y-128612407D01*
X148816967Y-128570563D01*
X148774808Y-128528108D01*
X148767666Y-128522284D01*
X148364601Y-128198212D01*
X148314582Y-128165481D01*
X148264955Y-128132006D01*
X148256818Y-128127680D01*
X147798482Y-127888068D01*
X147743017Y-127865659D01*
X147687874Y-127842479D01*
X147679052Y-127839816D01*
X147182905Y-127693792D01*
X147124186Y-127682591D01*
X147065549Y-127670554D01*
X147056378Y-127669655D01*
X146541317Y-127622781D01*
X146481500Y-127623199D01*
X146421682Y-127622781D01*
X146412511Y-127623681D01*
X145898155Y-127677742D01*
X145839624Y-127689757D01*
X145780799Y-127700978D01*
X145771977Y-127703642D01*
X145277917Y-127856579D01*
X145222762Y-127879764D01*
X145167309Y-127902168D01*
X145159177Y-127906493D01*
X145159172Y-127906495D01*
X145159168Y-127906498D01*
X144704228Y-128152481D01*
X144654627Y-128185937D01*
X144604580Y-128218687D01*
X144597439Y-128224512D01*
X144198938Y-128554180D01*
X144156781Y-128596632D01*
X144114048Y-128638479D01*
X144108174Y-128645580D01*
X143781296Y-129046373D01*
X143748203Y-129096181D01*
X143714396Y-129145555D01*
X143710013Y-129153661D01*
X143467207Y-129610313D01*
X143444408Y-129665628D01*
X143420847Y-129720600D01*
X143418122Y-129729403D01*
X143268638Y-130224518D01*
X143257015Y-130283221D01*
X143244582Y-130341710D01*
X143243619Y-130350874D01*
X143193150Y-130865595D01*
X143190000Y-130897582D01*
X139810000Y-130897582D01*
X139810000Y-130897581D01*
X139809774Y-130895287D01*
X139809726Y-130888398D01*
X139806592Y-130858579D01*
X139806592Y-130828594D01*
X139805629Y-130819430D01*
X139747978Y-130305464D01*
X139735542Y-130246961D01*
X139723922Y-130188273D01*
X139721197Y-130179470D01*
X139564815Y-129686490D01*
X139541259Y-129631530D01*
X139518455Y-129576203D01*
X139514072Y-129568097D01*
X139264913Y-129114880D01*
X139231126Y-129065535D01*
X139198014Y-129015697D01*
X139192140Y-129008597D01*
X138859697Y-128612407D01*
X138816967Y-128570563D01*
X138774808Y-128528108D01*
X138767666Y-128522284D01*
X138364601Y-128198212D01*
X138314582Y-128165481D01*
X138264955Y-128132006D01*
X138256818Y-128127680D01*
X137798482Y-127888068D01*
X137743017Y-127865659D01*
X137687874Y-127842479D01*
X137679052Y-127839816D01*
X137182905Y-127693792D01*
X137124186Y-127682591D01*
X137065549Y-127670554D01*
X137056378Y-127669655D01*
X136541317Y-127622781D01*
X136481500Y-127623199D01*
X136421682Y-127622781D01*
X136412511Y-127623681D01*
X135898155Y-127677742D01*
X135839624Y-127689757D01*
X135780799Y-127700978D01*
X135771977Y-127703642D01*
X135277917Y-127856579D01*
X135222762Y-127879764D01*
X135167309Y-127902168D01*
X135159177Y-127906493D01*
X135159172Y-127906495D01*
X135159168Y-127906498D01*
X134704228Y-128152481D01*
X134654627Y-128185937D01*
X134604580Y-128218687D01*
X134597439Y-128224512D01*
X134198938Y-128554180D01*
X134156781Y-128596632D01*
X134114048Y-128638479D01*
X134108174Y-128645580D01*
X133781296Y-129046373D01*
X133748203Y-129096181D01*
X133714396Y-129145555D01*
X133710013Y-129153661D01*
X133467207Y-129610313D01*
X133444408Y-129665628D01*
X133420847Y-129720600D01*
X133418122Y-129729403D01*
X133268638Y-130224518D01*
X133257015Y-130283221D01*
X133244582Y-130341710D01*
X133243619Y-130350874D01*
X133193150Y-130865595D01*
X133190000Y-130897582D01*
X100660000Y-130897582D01*
X100660000Y-125756053D01*
X102210914Y-125756053D01*
X102210914Y-126403947D01*
X102337312Y-127039391D01*
X102585250Y-127637966D01*
X102945200Y-128176670D01*
X103403330Y-128634800D01*
X103942034Y-128994750D01*
X104540609Y-129242688D01*
X105176053Y-129369086D01*
X105823947Y-129369086D01*
X106459391Y-129242688D01*
X107057966Y-128994750D01*
X107596670Y-128634800D01*
X108054800Y-128176670D01*
X108414750Y-127637966D01*
X108662688Y-127039391D01*
X108789086Y-126403947D01*
X108789086Y-125756053D01*
X174210914Y-125756053D01*
X174210914Y-126403947D01*
X174337312Y-127039391D01*
X174585250Y-127637966D01*
X174945200Y-128176670D01*
X175403330Y-128634800D01*
X175942034Y-128994750D01*
X176540609Y-129242688D01*
X177176053Y-129369086D01*
X177823947Y-129369086D01*
X178459391Y-129242688D01*
X179057966Y-128994750D01*
X179596670Y-128634800D01*
X180054800Y-128176670D01*
X180414750Y-127637966D01*
X180662688Y-127039391D01*
X180789086Y-126403947D01*
X180789086Y-125756053D01*
X180662688Y-125120609D01*
X180414750Y-124522034D01*
X180054800Y-123983330D01*
X179596670Y-123525200D01*
X179057966Y-123165250D01*
X178459391Y-122917312D01*
X177823947Y-122790914D01*
X177176053Y-122790914D01*
X176540609Y-122917312D01*
X175942034Y-123165250D01*
X175403330Y-123525200D01*
X174945200Y-123983330D01*
X174585250Y-124522034D01*
X174337312Y-125120609D01*
X174210914Y-125756053D01*
X108789086Y-125756053D01*
X108662688Y-125120609D01*
X108414750Y-124522034D01*
X108054800Y-123983330D01*
X107596670Y-123525200D01*
X107057966Y-123165250D01*
X106459391Y-122917312D01*
X105823947Y-122790914D01*
X105176053Y-122790914D01*
X104540609Y-122917312D01*
X103942034Y-123165250D01*
X103403330Y-123525200D01*
X102945200Y-123983330D01*
X102585250Y-124522034D01*
X102337312Y-125120609D01*
X102210914Y-125756053D01*
X100660000Y-125756053D01*
X100660000Y-116039721D01*
X110365000Y-116039721D01*
X110365000Y-116460279D01*
X110447047Y-116872756D01*
X110607988Y-117261302D01*
X110841637Y-117610983D01*
X111139017Y-117908363D01*
X111488698Y-118142012D01*
X111877244Y-118302953D01*
X112289721Y-118385000D01*
X112710279Y-118385000D01*
X113122756Y-118302953D01*
X113511302Y-118142012D01*
X113860983Y-117908363D01*
X114027693Y-117741653D01*
X120187952Y-117741653D01*
X120343962Y-118057214D01*
X120718745Y-118248020D01*
X121123551Y-118362044D01*
X121542824Y-118394902D01*
X121960451Y-118345334D01*
X122360383Y-118215243D01*
X122656038Y-118057214D01*
X122812048Y-117741653D01*
X121500000Y-116429605D01*
X120187952Y-117741653D01*
X114027693Y-117741653D01*
X114158363Y-117610983D01*
X114392012Y-117261302D01*
X114552953Y-116872756D01*
X114635000Y-116460279D01*
X114635000Y-116292824D01*
X119355098Y-116292824D01*
X119404666Y-116710451D01*
X119534757Y-117110383D01*
X119692786Y-117406038D01*
X120008347Y-117562048D01*
X121320395Y-116250000D01*
X121679605Y-116250000D01*
X122991653Y-117562048D01*
X123307214Y-117406038D01*
X123498020Y-117031255D01*
X123612044Y-116626449D01*
X123644902Y-116207176D01*
X123625027Y-116039721D01*
X159365000Y-116039721D01*
X159365000Y-116460279D01*
X159447047Y-116872756D01*
X159607988Y-117261302D01*
X159841637Y-117610983D01*
X160139017Y-117908363D01*
X160488698Y-118142012D01*
X160877244Y-118302953D01*
X161289721Y-118385000D01*
X161710279Y-118385000D01*
X162122756Y-118302953D01*
X162511302Y-118142012D01*
X162860983Y-117908363D01*
X163158363Y-117610983D01*
X163392012Y-117261302D01*
X163552953Y-116872756D01*
X163635000Y-116460279D01*
X163635000Y-116039721D01*
X168365000Y-116039721D01*
X168365000Y-116460279D01*
X168447047Y-116872756D01*
X168607988Y-117261302D01*
X168841637Y-117610983D01*
X169139017Y-117908363D01*
X169488698Y-118142012D01*
X169877244Y-118302953D01*
X170289721Y-118385000D01*
X170710279Y-118385000D01*
X171122756Y-118302953D01*
X171511302Y-118142012D01*
X171860983Y-117908363D01*
X172158363Y-117610983D01*
X172392012Y-117261302D01*
X172552953Y-116872756D01*
X172635000Y-116460279D01*
X172635000Y-116039721D01*
X172552953Y-115627244D01*
X172392012Y-115238698D01*
X172158363Y-114889017D01*
X171860983Y-114591637D01*
X171511302Y-114357988D01*
X171122756Y-114197047D01*
X170710279Y-114115000D01*
X170289721Y-114115000D01*
X169877244Y-114197047D01*
X169488698Y-114357988D01*
X169139017Y-114591637D01*
X168841637Y-114889017D01*
X168607988Y-115238698D01*
X168447047Y-115627244D01*
X168365000Y-116039721D01*
X163635000Y-116039721D01*
X163552953Y-115627244D01*
X163392012Y-115238698D01*
X163158363Y-114889017D01*
X162860983Y-114591637D01*
X162511302Y-114357988D01*
X162122756Y-114197047D01*
X161710279Y-114115000D01*
X161289721Y-114115000D01*
X160877244Y-114197047D01*
X160488698Y-114357988D01*
X160139017Y-114591637D01*
X159841637Y-114889017D01*
X159607988Y-115238698D01*
X159447047Y-115627244D01*
X159365000Y-116039721D01*
X123625027Y-116039721D01*
X123595334Y-115789549D01*
X123465243Y-115389617D01*
X123307214Y-115093962D01*
X122991653Y-114937952D01*
X121679605Y-116250000D01*
X121320395Y-116250000D01*
X120008347Y-114937952D01*
X119692786Y-115093962D01*
X119501980Y-115468745D01*
X119387956Y-115873551D01*
X119355098Y-116292824D01*
X114635000Y-116292824D01*
X114635000Y-116039721D01*
X114552953Y-115627244D01*
X114392012Y-115238698D01*
X114158363Y-114889017D01*
X114027693Y-114758347D01*
X120187952Y-114758347D01*
X121500000Y-116070395D01*
X122812048Y-114758347D01*
X122656038Y-114442786D01*
X122281255Y-114251980D01*
X121876449Y-114137956D01*
X121457176Y-114105098D01*
X121039549Y-114154666D01*
X120639617Y-114284757D01*
X120343962Y-114442786D01*
X120187952Y-114758347D01*
X114027693Y-114758347D01*
X113860983Y-114591637D01*
X113511302Y-114357988D01*
X113122756Y-114197047D01*
X112710279Y-114115000D01*
X112289721Y-114115000D01*
X111877244Y-114197047D01*
X111488698Y-114357988D01*
X111139017Y-114591637D01*
X110841637Y-114889017D01*
X110607988Y-115238698D01*
X110447047Y-115627244D01*
X110365000Y-116039721D01*
X100660000Y-116039721D01*
X100660000Y-108500000D01*
X115956929Y-108500000D01*
X115956929Y-109500000D01*
X115969189Y-109624482D01*
X116005499Y-109744180D01*
X116064464Y-109854494D01*
X116143816Y-109951185D01*
X116240507Y-110030537D01*
X116350821Y-110089502D01*
X116470519Y-110125812D01*
X116595001Y-110138072D01*
X117195001Y-110138072D01*
X117319483Y-110125812D01*
X117439181Y-110089502D01*
X117549495Y-110030537D01*
X117645001Y-109952158D01*
X117740507Y-110030537D01*
X117850821Y-110089502D01*
X117970519Y-110125812D01*
X118095001Y-110138072D01*
X118109251Y-110135000D01*
X118268001Y-109976250D01*
X118268001Y-109127000D01*
X118248001Y-109127000D01*
X118248001Y-108873000D01*
X118268001Y-108873000D01*
X118268001Y-108023750D01*
X118522001Y-108023750D01*
X118522001Y-108873000D01*
X118542001Y-108873000D01*
X118542001Y-109127000D01*
X118522001Y-109127000D01*
X118522001Y-109976250D01*
X118680751Y-110135000D01*
X118695001Y-110138072D01*
X118819483Y-110125812D01*
X118939181Y-110089502D01*
X119049495Y-110030537D01*
X119145001Y-109952158D01*
X119240506Y-110030537D01*
X119350820Y-110089502D01*
X119470518Y-110125812D01*
X119595000Y-110138072D01*
X120195000Y-110138072D01*
X120319482Y-110125812D01*
X120439180Y-110089502D01*
X120549494Y-110030537D01*
X120645001Y-109952157D01*
X120740508Y-110030537D01*
X120850822Y-110089502D01*
X120970520Y-110125812D01*
X121095002Y-110138072D01*
X121695002Y-110138072D01*
X121819484Y-110125812D01*
X121939182Y-110089502D01*
X122049496Y-110030537D01*
X122145002Y-109952158D01*
X122240508Y-110030537D01*
X122350822Y-110089502D01*
X122470520Y-110125812D01*
X122595002Y-110138072D01*
X123195002Y-110138072D01*
X123319484Y-110125812D01*
X123439182Y-110089502D01*
X123549496Y-110030537D01*
X123646187Y-109951185D01*
X123725539Y-109854494D01*
X123784504Y-109744180D01*
X123820814Y-109624482D01*
X123833074Y-109500000D01*
X123833074Y-108500000D01*
X123821586Y-108383360D01*
X123917205Y-108240256D01*
X123995226Y-108051898D01*
X124035000Y-107851939D01*
X124035000Y-107648061D01*
X123995226Y-107448102D01*
X123917205Y-107259744D01*
X123803937Y-107090226D01*
X123659774Y-106946063D01*
X123655002Y-106942874D01*
X123655002Y-103919799D01*
X124236928Y-103337873D01*
X124236928Y-104710000D01*
X124249188Y-104834482D01*
X124285498Y-104954180D01*
X124344463Y-105064494D01*
X124423815Y-105161185D01*
X124520506Y-105240537D01*
X124630820Y-105299502D01*
X124750518Y-105335812D01*
X124875000Y-105348072D01*
X126125000Y-105348072D01*
X126249482Y-105335812D01*
X126369180Y-105299502D01*
X126479494Y-105240537D01*
X126576185Y-105161185D01*
X126655537Y-105064494D01*
X126714502Y-104954180D01*
X126750812Y-104834482D01*
X126763072Y-104710000D01*
X126763072Y-102910000D01*
X126750812Y-102785518D01*
X126714502Y-102665820D01*
X126655537Y-102555506D01*
X126576185Y-102458815D01*
X126479494Y-102379463D01*
X126369180Y-102320498D01*
X126249482Y-102284188D01*
X126125000Y-102271928D01*
X125302874Y-102271928D01*
X127064803Y-100510000D01*
X133546289Y-100510000D01*
X133590226Y-100553937D01*
X133759744Y-100667205D01*
X133948102Y-100745226D01*
X134148061Y-100785000D01*
X134351939Y-100785000D01*
X134551898Y-100745226D01*
X134740256Y-100667205D01*
X134909774Y-100553937D01*
X135053937Y-100409774D01*
X135167205Y-100240256D01*
X135245226Y-100051898D01*
X135285000Y-99851939D01*
X135285000Y-99648061D01*
X135257538Y-99510000D01*
X137046289Y-99510000D01*
X137090226Y-99553937D01*
X137259744Y-99667205D01*
X137448102Y-99745226D01*
X137648061Y-99785000D01*
X137851939Y-99785000D01*
X138051898Y-99745226D01*
X138240256Y-99667205D01*
X138409774Y-99553937D01*
X138553937Y-99409774D01*
X138667205Y-99240256D01*
X138745226Y-99051898D01*
X138785000Y-98851939D01*
X138785000Y-98648061D01*
X138757538Y-98510000D01*
X143796289Y-98510000D01*
X143840226Y-98553937D01*
X144009744Y-98667205D01*
X144198102Y-98745226D01*
X144398061Y-98785000D01*
X144601939Y-98785000D01*
X144801898Y-98745226D01*
X144990256Y-98667205D01*
X145159774Y-98553937D01*
X145303937Y-98409774D01*
X145406649Y-98256053D01*
X174210914Y-98256053D01*
X174210914Y-98903947D01*
X174337312Y-99539391D01*
X174585250Y-100137966D01*
X174945200Y-100676670D01*
X175403330Y-101134800D01*
X175942034Y-101494750D01*
X176540609Y-101742688D01*
X177176053Y-101869086D01*
X177823947Y-101869086D01*
X178459391Y-101742688D01*
X179057966Y-101494750D01*
X179596670Y-101134800D01*
X180054800Y-100676670D01*
X180414750Y-100137966D01*
X180662688Y-99539391D01*
X180789086Y-98903947D01*
X180789086Y-98256053D01*
X180662688Y-97620609D01*
X180414750Y-97022034D01*
X180054800Y-96483330D01*
X179596670Y-96025200D01*
X179057966Y-95665250D01*
X178459391Y-95417312D01*
X177823947Y-95290914D01*
X177176053Y-95290914D01*
X176540609Y-95417312D01*
X175942034Y-95665250D01*
X175403330Y-96025200D01*
X174945200Y-96483330D01*
X174585250Y-97022034D01*
X174337312Y-97620609D01*
X174210914Y-98256053D01*
X145406649Y-98256053D01*
X145417205Y-98240256D01*
X145495226Y-98051898D01*
X145535000Y-97851939D01*
X145535000Y-97648061D01*
X145495226Y-97448102D01*
X145417205Y-97259744D01*
X145303937Y-97090226D01*
X145159774Y-96946063D01*
X144990256Y-96832795D01*
X144801898Y-96754774D01*
X144601939Y-96715000D01*
X144398061Y-96715000D01*
X144198102Y-96754774D01*
X144009744Y-96832795D01*
X143840226Y-96946063D01*
X143796289Y-96990000D01*
X127514502Y-96990000D01*
X127477179Y-96986324D01*
X127439856Y-96990000D01*
X127439847Y-96990000D01*
X127328194Y-97000997D01*
X127184933Y-97044454D01*
X127052903Y-97115026D01*
X126969263Y-97183668D01*
X126937179Y-97209999D01*
X126913381Y-97238997D01*
X119727588Y-104424791D01*
X119383998Y-104768381D01*
X119355000Y-104792179D01*
X119331202Y-104821177D01*
X119331201Y-104821178D01*
X119260026Y-104907904D01*
X119189454Y-105039934D01*
X119169718Y-105104999D01*
X119145998Y-105183194D01*
X119142865Y-105215000D01*
X119131324Y-105332180D01*
X119135001Y-105369512D01*
X119135001Y-105681612D01*
X119082795Y-105759744D01*
X119004774Y-105948102D01*
X118965000Y-106148061D01*
X118965000Y-106351939D01*
X119004774Y-106551898D01*
X119082795Y-106740256D01*
X119135001Y-106818387D01*
X119135000Y-107803937D01*
X119135000Y-108039635D01*
X119049495Y-107969463D01*
X118939181Y-107910498D01*
X118819483Y-107874188D01*
X118695001Y-107861928D01*
X118680751Y-107865000D01*
X118522001Y-108023750D01*
X118268001Y-108023750D01*
X118109251Y-107865000D01*
X118095001Y-107861928D01*
X117970519Y-107874188D01*
X117850821Y-107910498D01*
X117780001Y-107948353D01*
X117780001Y-105471577D01*
X117801533Y-105450045D01*
X120745044Y-102506535D01*
X120801898Y-102495226D01*
X120990256Y-102417205D01*
X121159774Y-102303937D01*
X121303937Y-102159774D01*
X121417205Y-101990256D01*
X121495226Y-101801898D01*
X121535000Y-101601939D01*
X121535000Y-101398061D01*
X121495226Y-101198102D01*
X121417205Y-101009744D01*
X121303937Y-100840226D01*
X121159774Y-100696063D01*
X120990256Y-100582795D01*
X120801898Y-100504774D01*
X120601939Y-100465000D01*
X120398061Y-100465000D01*
X120198102Y-100504774D01*
X120009744Y-100582795D01*
X119840226Y-100696063D01*
X119696063Y-100840226D01*
X119582795Y-101009744D01*
X119504774Y-101198102D01*
X119493465Y-101254956D01*
X116549955Y-104198467D01*
X116299953Y-104448469D01*
X116266185Y-104476182D01*
X116238472Y-104509950D01*
X116238469Y-104509953D01*
X116155591Y-104610940D01*
X116073413Y-104764686D01*
X116022806Y-104931509D01*
X116005720Y-105104999D01*
X116010002Y-105148478D01*
X116010001Y-108247397D01*
X116005499Y-108255820D01*
X115969189Y-108375518D01*
X115956929Y-108500000D01*
X100660000Y-108500000D01*
X100660000Y-102910000D01*
X113026930Y-102910000D01*
X113026930Y-104710000D01*
X113039190Y-104834482D01*
X113075500Y-104954180D01*
X113134465Y-105064494D01*
X113213817Y-105161185D01*
X113310508Y-105240537D01*
X113420822Y-105299502D01*
X113540520Y-105335812D01*
X113665002Y-105348072D01*
X114915002Y-105348072D01*
X115039484Y-105335812D01*
X115159182Y-105299502D01*
X115269496Y-105240537D01*
X115366187Y-105161185D01*
X115445539Y-105064494D01*
X115504504Y-104954180D01*
X115540814Y-104834482D01*
X115553074Y-104710000D01*
X115553074Y-102910000D01*
X115540814Y-102785518D01*
X115504504Y-102665820D01*
X115445539Y-102555506D01*
X115366187Y-102458815D01*
X115269496Y-102379463D01*
X115159182Y-102320498D01*
X115039484Y-102284188D01*
X114915002Y-102271928D01*
X113665002Y-102271928D01*
X113540520Y-102284188D01*
X113420822Y-102320498D01*
X113310508Y-102379463D01*
X113213817Y-102458815D01*
X113134465Y-102555506D01*
X113075500Y-102665820D01*
X113039190Y-102785518D01*
X113026930Y-102910000D01*
X100660000Y-102910000D01*
X100660000Y-98256053D01*
X102210914Y-98256053D01*
X102210914Y-98903947D01*
X102337312Y-99539391D01*
X102585250Y-100137966D01*
X102945200Y-100676670D01*
X103403330Y-101134800D01*
X103942034Y-101494750D01*
X104540609Y-101742688D01*
X105176053Y-101869086D01*
X105823947Y-101869086D01*
X106459391Y-101742688D01*
X107057966Y-101494750D01*
X107596670Y-101134800D01*
X108054800Y-100676670D01*
X108414750Y-100137966D01*
X108662688Y-99539391D01*
X108789086Y-98903947D01*
X108789086Y-98256053D01*
X108662688Y-97620609D01*
X108414750Y-97022034D01*
X108054800Y-96483330D01*
X107596670Y-96025200D01*
X107057966Y-95665250D01*
X106459391Y-95417312D01*
X105823947Y-95290914D01*
X105176053Y-95290914D01*
X104540609Y-95417312D01*
X103942034Y-95665250D01*
X103403330Y-96025200D01*
X102945200Y-96483330D01*
X102585250Y-97022034D01*
X102337312Y-97620609D01*
X102210914Y-98256053D01*
X100660000Y-98256053D01*
X100660000Y-80289721D01*
X105365000Y-80289721D01*
X105365000Y-80710279D01*
X105447047Y-81122756D01*
X105607988Y-81511302D01*
X105841637Y-81860983D01*
X106139017Y-82158363D01*
X106488698Y-82392012D01*
X106877244Y-82552953D01*
X107289721Y-82635000D01*
X107710279Y-82635000D01*
X108122756Y-82552953D01*
X108511302Y-82392012D01*
X108860983Y-82158363D01*
X109158363Y-81860983D01*
X109392012Y-81511302D01*
X109552953Y-81122756D01*
X109635000Y-80710279D01*
X109635000Y-80289721D01*
X114365000Y-80289721D01*
X114365000Y-80710279D01*
X114447047Y-81122756D01*
X114607988Y-81511302D01*
X114841637Y-81860983D01*
X115139017Y-82158363D01*
X115488698Y-82392012D01*
X115877244Y-82552953D01*
X116289721Y-82635000D01*
X116710279Y-82635000D01*
X117122756Y-82552953D01*
X117511302Y-82392012D01*
X117860983Y-82158363D01*
X118158363Y-81860983D01*
X118392012Y-81511302D01*
X118552953Y-81122756D01*
X118635000Y-80710279D01*
X118635000Y-80289721D01*
X118552953Y-79877244D01*
X118392012Y-79488698D01*
X118158363Y-79139017D01*
X117860983Y-78841637D01*
X117511302Y-78607988D01*
X117122756Y-78447047D01*
X116710279Y-78365000D01*
X116289721Y-78365000D01*
X115877244Y-78447047D01*
X115488698Y-78607988D01*
X115139017Y-78841637D01*
X114841637Y-79139017D01*
X114607988Y-79488698D01*
X114447047Y-79877244D01*
X114365000Y-80289721D01*
X109635000Y-80289721D01*
X109552953Y-79877244D01*
X109392012Y-79488698D01*
X109158363Y-79139017D01*
X108860983Y-78841637D01*
X108511302Y-78607988D01*
X108122756Y-78447047D01*
X107710279Y-78365000D01*
X107289721Y-78365000D01*
X106877244Y-78447047D01*
X106488698Y-78607988D01*
X106139017Y-78841637D01*
X105841637Y-79139017D01*
X105607988Y-79488698D01*
X105447047Y-79877244D01*
X105365000Y-80289721D01*
X100660000Y-80289721D01*
X100660000Y-71750000D01*
X125836807Y-71750000D01*
X125840001Y-71782429D01*
X125840000Y-83717581D01*
X125836807Y-83750000D01*
X125849550Y-83879383D01*
X125887290Y-84003793D01*
X125948575Y-84118450D01*
X126031052Y-84218948D01*
X126131550Y-84301425D01*
X126246207Y-84362710D01*
X126370617Y-84400450D01*
X126500000Y-84413193D01*
X126532419Y-84410000D01*
X156467581Y-84410000D01*
X156500000Y-84413193D01*
X156532419Y-84410000D01*
X156629383Y-84400450D01*
X156753793Y-84362710D01*
X156868450Y-84301425D01*
X156968948Y-84218948D01*
X157051425Y-84118450D01*
X157112710Y-84003793D01*
X157150450Y-83879383D01*
X157163193Y-83750000D01*
X157160000Y-83717581D01*
X157160000Y-80289721D01*
X164365000Y-80289721D01*
X164365000Y-80710279D01*
X164447047Y-81122756D01*
X164607988Y-81511302D01*
X164841637Y-81860983D01*
X165139017Y-82158363D01*
X165488698Y-82392012D01*
X165877244Y-82552953D01*
X166289721Y-82635000D01*
X166710279Y-82635000D01*
X167122756Y-82552953D01*
X167511302Y-82392012D01*
X167860983Y-82158363D01*
X168027693Y-81991653D01*
X174187952Y-81991653D01*
X174343962Y-82307214D01*
X174718745Y-82498020D01*
X175123551Y-82612044D01*
X175542824Y-82644902D01*
X175960451Y-82595334D01*
X176360383Y-82465243D01*
X176656038Y-82307214D01*
X176812048Y-81991653D01*
X175500000Y-80679605D01*
X174187952Y-81991653D01*
X168027693Y-81991653D01*
X168158363Y-81860983D01*
X168392012Y-81511302D01*
X168552953Y-81122756D01*
X168635000Y-80710279D01*
X168635000Y-80542824D01*
X173355098Y-80542824D01*
X173404666Y-80960451D01*
X173534757Y-81360383D01*
X173692786Y-81656038D01*
X174008347Y-81812048D01*
X175320395Y-80500000D01*
X175679605Y-80500000D01*
X176991653Y-81812048D01*
X177307214Y-81656038D01*
X177498020Y-81281255D01*
X177612044Y-80876449D01*
X177644902Y-80457176D01*
X177595334Y-80039549D01*
X177465243Y-79639617D01*
X177307214Y-79343962D01*
X176991653Y-79187952D01*
X175679605Y-80500000D01*
X175320395Y-80500000D01*
X174008347Y-79187952D01*
X173692786Y-79343962D01*
X173501980Y-79718745D01*
X173387956Y-80123551D01*
X173355098Y-80542824D01*
X168635000Y-80542824D01*
X168635000Y-80289721D01*
X168552953Y-79877244D01*
X168392012Y-79488698D01*
X168158363Y-79139017D01*
X168027693Y-79008347D01*
X174187952Y-79008347D01*
X175500000Y-80320395D01*
X176812048Y-79008347D01*
X176656038Y-78692786D01*
X176281255Y-78501980D01*
X175876449Y-78387956D01*
X175457176Y-78355098D01*
X175039549Y-78404666D01*
X174639617Y-78534757D01*
X174343962Y-78692786D01*
X174187952Y-79008347D01*
X168027693Y-79008347D01*
X167860983Y-78841637D01*
X167511302Y-78607988D01*
X167122756Y-78447047D01*
X166710279Y-78365000D01*
X166289721Y-78365000D01*
X165877244Y-78447047D01*
X165488698Y-78607988D01*
X165139017Y-78841637D01*
X164841637Y-79139017D01*
X164607988Y-79488698D01*
X164447047Y-79877244D01*
X164365000Y-80289721D01*
X157160000Y-80289721D01*
X157160000Y-71782419D01*
X157163193Y-71750000D01*
X157150450Y-71620617D01*
X157112710Y-71496207D01*
X157051425Y-71381550D01*
X156968948Y-71281052D01*
X156868450Y-71198575D01*
X156753793Y-71137290D01*
X156629383Y-71099550D01*
X156532419Y-71090000D01*
X156500000Y-71086807D01*
X156467581Y-71090000D01*
X126532419Y-71090000D01*
X126500000Y-71086807D01*
X126467581Y-71090000D01*
X126370617Y-71099550D01*
X126246207Y-71137290D01*
X126131550Y-71198575D01*
X126031052Y-71281052D01*
X125948575Y-71381550D01*
X125887290Y-71496207D01*
X125849550Y-71620617D01*
X125836807Y-71750000D01*
X100660000Y-71750000D01*
X100660000Y-65289721D01*
X108615000Y-65289721D01*
X108615000Y-65710279D01*
X108697047Y-66122756D01*
X108857988Y-66511302D01*
X109091637Y-66860983D01*
X109389017Y-67158363D01*
X109738698Y-67392012D01*
X110127244Y-67552953D01*
X110539721Y-67635000D01*
X110960279Y-67635000D01*
X111372756Y-67552953D01*
X111761302Y-67392012D01*
X112110983Y-67158363D01*
X112408363Y-66860983D01*
X112607857Y-66562418D01*
X133190000Y-66562418D01*
X133190226Y-66564712D01*
X133190274Y-66571602D01*
X133193408Y-66601421D01*
X133193408Y-66631405D01*
X133194371Y-66640570D01*
X133252022Y-67154536D01*
X133264458Y-67213039D01*
X133276078Y-67271727D01*
X133278803Y-67280530D01*
X133435185Y-67773509D01*
X133458736Y-67828456D01*
X133481545Y-67883797D01*
X133485929Y-67891903D01*
X133735087Y-68345120D01*
X133768856Y-68394439D01*
X133801985Y-68444303D01*
X133807860Y-68451403D01*
X134140302Y-68847593D01*
X134183052Y-68889456D01*
X134225192Y-68931892D01*
X134232334Y-68937716D01*
X134635399Y-69261789D01*
X134685452Y-69294542D01*
X134735045Y-69327994D01*
X134743182Y-69332320D01*
X135201518Y-69571931D01*
X135256950Y-69594327D01*
X135312126Y-69617521D01*
X135320948Y-69620184D01*
X135817094Y-69766208D01*
X135875828Y-69777412D01*
X135934451Y-69789446D01*
X135943623Y-69790345D01*
X136458683Y-69837219D01*
X136518501Y-69836801D01*
X136578318Y-69837219D01*
X136587489Y-69836319D01*
X136587491Y-69836319D01*
X137101845Y-69782258D01*
X137160401Y-69770238D01*
X137219201Y-69759022D01*
X137228023Y-69756358D01*
X137722084Y-69603421D01*
X137777252Y-69580230D01*
X137832691Y-69557832D01*
X137840827Y-69553506D01*
X138295772Y-69307519D01*
X138345373Y-69274063D01*
X138395420Y-69241313D01*
X138402561Y-69235489D01*
X138801062Y-68905820D01*
X138843221Y-68863365D01*
X138885951Y-68821521D01*
X138891825Y-68814420D01*
X139218704Y-68413628D01*
X139251798Y-68363817D01*
X139285604Y-68314445D01*
X139289987Y-68306339D01*
X139532792Y-67849687D01*
X139555583Y-67794393D01*
X139579153Y-67739400D01*
X139581878Y-67730597D01*
X139731362Y-67235482D01*
X139742982Y-67176794D01*
X139755418Y-67118291D01*
X139756381Y-67109126D01*
X139806850Y-66594405D01*
X139806850Y-66594402D01*
X139810000Y-66562419D01*
X139810000Y-60497582D01*
X143190000Y-60497582D01*
X143190001Y-66562419D01*
X143190226Y-66564702D01*
X143190274Y-66571602D01*
X143193408Y-66601421D01*
X143193408Y-66631405D01*
X143194371Y-66640570D01*
X143252022Y-67154536D01*
X143264458Y-67213039D01*
X143276078Y-67271727D01*
X143278803Y-67280530D01*
X143435185Y-67773509D01*
X143458736Y-67828456D01*
X143481545Y-67883797D01*
X143485929Y-67891903D01*
X143735087Y-68345120D01*
X143768856Y-68394439D01*
X143801985Y-68444303D01*
X143807860Y-68451403D01*
X144140302Y-68847593D01*
X144183052Y-68889456D01*
X144225192Y-68931892D01*
X144232334Y-68937716D01*
X144635399Y-69261789D01*
X144685452Y-69294542D01*
X144735045Y-69327994D01*
X144743182Y-69332320D01*
X145201518Y-69571931D01*
X145256950Y-69594327D01*
X145312126Y-69617521D01*
X145320948Y-69620184D01*
X145817094Y-69766208D01*
X145875828Y-69777412D01*
X145934451Y-69789446D01*
X145943623Y-69790345D01*
X146458683Y-69837219D01*
X146518501Y-69836801D01*
X146578318Y-69837219D01*
X146587489Y-69836319D01*
X146587491Y-69836319D01*
X147101845Y-69782258D01*
X147160401Y-69770238D01*
X147219201Y-69759022D01*
X147228023Y-69756358D01*
X147722084Y-69603421D01*
X147777252Y-69580230D01*
X147832691Y-69557832D01*
X147840827Y-69553506D01*
X148295772Y-69307519D01*
X148345373Y-69274063D01*
X148395420Y-69241313D01*
X148402561Y-69235489D01*
X148801062Y-68905820D01*
X148843221Y-68863365D01*
X148885951Y-68821521D01*
X148891825Y-68814420D01*
X149218704Y-68413628D01*
X149251798Y-68363817D01*
X149285604Y-68314445D01*
X149289987Y-68306339D01*
X149532792Y-67849687D01*
X149555583Y-67794393D01*
X149579153Y-67739400D01*
X149581878Y-67730597D01*
X149731362Y-67235482D01*
X149742982Y-67176794D01*
X149755418Y-67118291D01*
X149756381Y-67109126D01*
X149806850Y-66594405D01*
X149806850Y-66594402D01*
X149810000Y-66562419D01*
X149810000Y-60497581D01*
X149809774Y-60495287D01*
X149809726Y-60488398D01*
X149806592Y-60458579D01*
X149806592Y-60428594D01*
X149805629Y-60419430D01*
X149747978Y-59905464D01*
X149735542Y-59846961D01*
X149723922Y-59788273D01*
X149721197Y-59779470D01*
X149564815Y-59286490D01*
X149541259Y-59231530D01*
X149518455Y-59176203D01*
X149514072Y-59168097D01*
X149264913Y-58714880D01*
X149231126Y-58665535D01*
X149198014Y-58615697D01*
X149192140Y-58608597D01*
X148859697Y-58212407D01*
X148816967Y-58170563D01*
X148774808Y-58128108D01*
X148767666Y-58122284D01*
X148364601Y-57798212D01*
X148314582Y-57765481D01*
X148264955Y-57732006D01*
X148256818Y-57727680D01*
X147798482Y-57488068D01*
X147743017Y-57465659D01*
X147687874Y-57442479D01*
X147679052Y-57439816D01*
X147182905Y-57293792D01*
X147124186Y-57282591D01*
X147065549Y-57270554D01*
X147056378Y-57269655D01*
X146541317Y-57222781D01*
X146481500Y-57223199D01*
X146421682Y-57222781D01*
X146412511Y-57223681D01*
X145898155Y-57277742D01*
X145839624Y-57289757D01*
X145780799Y-57300978D01*
X145771977Y-57303642D01*
X145277917Y-57456579D01*
X145222762Y-57479764D01*
X145167309Y-57502168D01*
X145159177Y-57506493D01*
X145159172Y-57506495D01*
X145159168Y-57506498D01*
X144704228Y-57752481D01*
X144654627Y-57785937D01*
X144604580Y-57818687D01*
X144597439Y-57824512D01*
X144198938Y-58154180D01*
X144156781Y-58196632D01*
X144114048Y-58238479D01*
X144108174Y-58245580D01*
X143781296Y-58646373D01*
X143748203Y-58696181D01*
X143714396Y-58745555D01*
X143710013Y-58753661D01*
X143467207Y-59210313D01*
X143444408Y-59265628D01*
X143420847Y-59320600D01*
X143418122Y-59329403D01*
X143268638Y-59824518D01*
X143257015Y-59883221D01*
X143244582Y-59941710D01*
X143243619Y-59950874D01*
X143193150Y-60465595D01*
X143190000Y-60497582D01*
X139810000Y-60497582D01*
X139810000Y-60497581D01*
X139809774Y-60495287D01*
X139809726Y-60488398D01*
X139806592Y-60458579D01*
X139806592Y-60428594D01*
X139805629Y-60419430D01*
X139747978Y-59905464D01*
X139735542Y-59846961D01*
X139723922Y-59788273D01*
X139721197Y-59779470D01*
X139564815Y-59286490D01*
X139541259Y-59231530D01*
X139518455Y-59176203D01*
X139514072Y-59168097D01*
X139264913Y-58714880D01*
X139231126Y-58665535D01*
X139198014Y-58615697D01*
X139192140Y-58608597D01*
X138859697Y-58212407D01*
X138816967Y-58170563D01*
X138774808Y-58128108D01*
X138767666Y-58122284D01*
X138364601Y-57798212D01*
X138314582Y-57765481D01*
X138264955Y-57732006D01*
X138256818Y-57727680D01*
X137798482Y-57488068D01*
X137743017Y-57465659D01*
X137687874Y-57442479D01*
X137679052Y-57439816D01*
X137182905Y-57293792D01*
X137124186Y-57282591D01*
X137065549Y-57270554D01*
X137056378Y-57269655D01*
X136541317Y-57222781D01*
X136481500Y-57223199D01*
X136421682Y-57222781D01*
X136412511Y-57223681D01*
X135898155Y-57277742D01*
X135839624Y-57289757D01*
X135780799Y-57300978D01*
X135771977Y-57303642D01*
X135277917Y-57456579D01*
X135222762Y-57479764D01*
X135167309Y-57502168D01*
X135159177Y-57506493D01*
X135159172Y-57506495D01*
X135159168Y-57506498D01*
X134704228Y-57752481D01*
X134654627Y-57785937D01*
X134604580Y-57818687D01*
X134597439Y-57824512D01*
X134198938Y-58154180D01*
X134156781Y-58196632D01*
X134114048Y-58238479D01*
X134108174Y-58245580D01*
X133781296Y-58646373D01*
X133748203Y-58696181D01*
X133714396Y-58745555D01*
X133710013Y-58753661D01*
X133467207Y-59210313D01*
X133444408Y-59265628D01*
X133420847Y-59320600D01*
X133418122Y-59329403D01*
X133268638Y-59824518D01*
X133257015Y-59883221D01*
X133244582Y-59941710D01*
X133243619Y-59950874D01*
X133193150Y-60465595D01*
X133193150Y-60465608D01*
X133190001Y-60497581D01*
X133190000Y-66562418D01*
X112607857Y-66562418D01*
X112642012Y-66511302D01*
X112802953Y-66122756D01*
X112885000Y-65710279D01*
X112885000Y-65289721D01*
X112802953Y-64877244D01*
X112750637Y-64750941D01*
X121616579Y-55885000D01*
X161383422Y-55885000D01*
X170249363Y-64750942D01*
X170197047Y-64877244D01*
X170115000Y-65289721D01*
X170115000Y-65710279D01*
X170197047Y-66122756D01*
X170357988Y-66511302D01*
X170591637Y-66860983D01*
X170889017Y-67158363D01*
X171238698Y-67392012D01*
X171627244Y-67552953D01*
X172039721Y-67635000D01*
X172460279Y-67635000D01*
X172872756Y-67552953D01*
X173261302Y-67392012D01*
X173610983Y-67158363D01*
X173908363Y-66860983D01*
X174142012Y-66511302D01*
X174302953Y-66122756D01*
X174385000Y-65710279D01*
X174385000Y-65289721D01*
X174302953Y-64877244D01*
X174142012Y-64488698D01*
X173908363Y-64139017D01*
X173610983Y-63841637D01*
X173261302Y-63607988D01*
X172872756Y-63447047D01*
X172460279Y-63365000D01*
X172039721Y-63365000D01*
X171627244Y-63447047D01*
X171500942Y-63499363D01*
X164291300Y-56289721D01*
X170115000Y-56289721D01*
X170115000Y-56710279D01*
X170197047Y-57122756D01*
X170357988Y-57511302D01*
X170591637Y-57860983D01*
X170889017Y-58158363D01*
X171238698Y-58392012D01*
X171627244Y-58552953D01*
X172039721Y-58635000D01*
X172460279Y-58635000D01*
X172872756Y-58552953D01*
X173261302Y-58392012D01*
X173610983Y-58158363D01*
X173908363Y-57860983D01*
X174142012Y-57511302D01*
X174302953Y-57122756D01*
X174385000Y-56710279D01*
X174385000Y-56289721D01*
X174302953Y-55877244D01*
X174142012Y-55488698D01*
X173908363Y-55139017D01*
X173610983Y-54841637D01*
X173261302Y-54607988D01*
X172872756Y-54447047D01*
X172460279Y-54365000D01*
X172039721Y-54365000D01*
X171627244Y-54447047D01*
X171238698Y-54607988D01*
X170889017Y-54841637D01*
X170591637Y-55139017D01*
X170357988Y-55488698D01*
X170197047Y-55877244D01*
X170115000Y-56289721D01*
X164291300Y-56289721D01*
X162406534Y-54404956D01*
X162378817Y-54371183D01*
X162244059Y-54260589D01*
X162090313Y-54178411D01*
X161923490Y-54127805D01*
X161793477Y-54115000D01*
X161793469Y-54115000D01*
X161750000Y-54110719D01*
X161706531Y-54115000D01*
X121293465Y-54115000D01*
X121249999Y-54110719D01*
X121206533Y-54115000D01*
X121206523Y-54115000D01*
X121076510Y-54127805D01*
X120909687Y-54178411D01*
X120755941Y-54260589D01*
X120755939Y-54260590D01*
X120755940Y-54260590D01*
X120654953Y-54343468D01*
X120654951Y-54343470D01*
X120621183Y-54371183D01*
X120593470Y-54404951D01*
X111499059Y-63499363D01*
X111372756Y-63447047D01*
X110960279Y-63365000D01*
X110539721Y-63365000D01*
X110127244Y-63447047D01*
X109738698Y-63607988D01*
X109389017Y-63841637D01*
X109091637Y-64139017D01*
X108857988Y-64488698D01*
X108697047Y-64877244D01*
X108615000Y-65289721D01*
X100660000Y-65289721D01*
X100660000Y-57991653D01*
X109437952Y-57991653D01*
X109593962Y-58307214D01*
X109968745Y-58498020D01*
X110373551Y-58612044D01*
X110792824Y-58644902D01*
X111210451Y-58595334D01*
X111610383Y-58465243D01*
X111906038Y-58307214D01*
X112062048Y-57991653D01*
X110750000Y-56679605D01*
X109437952Y-57991653D01*
X100660000Y-57991653D01*
X100660000Y-56542824D01*
X108605098Y-56542824D01*
X108654666Y-56960451D01*
X108784757Y-57360383D01*
X108942786Y-57656038D01*
X109258347Y-57812048D01*
X110570395Y-56500000D01*
X110929605Y-56500000D01*
X112241653Y-57812048D01*
X112557214Y-57656038D01*
X112748020Y-57281255D01*
X112862044Y-56876449D01*
X112894902Y-56457176D01*
X112845334Y-56039549D01*
X112715243Y-55639617D01*
X112557214Y-55343962D01*
X112241653Y-55187952D01*
X110929605Y-56500000D01*
X110570395Y-56500000D01*
X109258347Y-55187952D01*
X108942786Y-55343962D01*
X108751980Y-55718745D01*
X108637956Y-56123551D01*
X108605098Y-56542824D01*
X100660000Y-56542824D01*
X100660000Y-54018773D01*
X100855377Y-54018773D01*
X100855377Y-54441227D01*
X100937794Y-54855563D01*
X101099460Y-55245860D01*
X101334162Y-55597118D01*
X101632882Y-55895838D01*
X101984140Y-56130540D01*
X102374437Y-56292206D01*
X102788773Y-56374623D01*
X103211227Y-56374623D01*
X103625563Y-56292206D01*
X104015860Y-56130540D01*
X104367118Y-55895838D01*
X104665838Y-55597118D01*
X104900540Y-55245860D01*
X104998920Y-55008347D01*
X109437952Y-55008347D01*
X110750000Y-56320395D01*
X112062048Y-55008347D01*
X111906038Y-54692786D01*
X111531255Y-54501980D01*
X111126449Y-54387956D01*
X110707176Y-54355098D01*
X110289549Y-54404666D01*
X109889617Y-54534757D01*
X109593962Y-54692786D01*
X109437952Y-55008347D01*
X104998920Y-55008347D01*
X105062206Y-54855563D01*
X105144623Y-54441227D01*
X105144623Y-54018773D01*
X177855377Y-54018773D01*
X177855377Y-54441227D01*
X177937794Y-54855563D01*
X178099460Y-55245860D01*
X178334162Y-55597118D01*
X178632882Y-55895838D01*
X178984140Y-56130540D01*
X179374437Y-56292206D01*
X179788773Y-56374623D01*
X180211227Y-56374623D01*
X180625563Y-56292206D01*
X181015860Y-56130540D01*
X181367118Y-55895838D01*
X181665838Y-55597118D01*
X181900540Y-55245860D01*
X182062206Y-54855563D01*
X182144623Y-54441227D01*
X182144623Y-54018773D01*
X182062206Y-53604437D01*
X181900540Y-53214140D01*
X181665838Y-52862882D01*
X181367118Y-52564162D01*
X181015860Y-52329460D01*
X180625563Y-52167794D01*
X180211227Y-52085377D01*
X179788773Y-52085377D01*
X179374437Y-52167794D01*
X178984140Y-52329460D01*
X178632882Y-52564162D01*
X178334162Y-52862882D01*
X178099460Y-53214140D01*
X177937794Y-53604437D01*
X177855377Y-54018773D01*
X105144623Y-54018773D01*
X105062206Y-53604437D01*
X104900540Y-53214140D01*
X104665838Y-52862882D01*
X104367118Y-52564162D01*
X104015860Y-52329460D01*
X103625563Y-52167794D01*
X103211227Y-52085377D01*
X102788773Y-52085377D01*
X102374437Y-52167794D01*
X101984140Y-52329460D01*
X101632882Y-52564162D01*
X101334162Y-52862882D01*
X101099460Y-53214140D01*
X100937794Y-53604437D01*
X100855377Y-54018773D01*
X100660000Y-54018773D01*
X100660000Y-50410000D01*
X182340001Y-50410000D01*
X182340000Y-147090000D01*
%TA.AperFunction,Conductor*%
D17*
G36*
X182340000Y-147090000D02*
G01*
X100660000Y-147090000D01*
X100660000Y-143018773D01*
X100855377Y-143018773D01*
X100855377Y-143441227D01*
X100937794Y-143855563D01*
X101099460Y-144245860D01*
X101334162Y-144597118D01*
X101632882Y-144895838D01*
X101984140Y-145130540D01*
X102374437Y-145292206D01*
X102788773Y-145374623D01*
X103211227Y-145374623D01*
X103625563Y-145292206D01*
X104015860Y-145130540D01*
X104367118Y-144895838D01*
X104665838Y-144597118D01*
X104900540Y-144245860D01*
X105062206Y-143855563D01*
X105144623Y-143441227D01*
X105144623Y-143018773D01*
X177855377Y-143018773D01*
X177855377Y-143441227D01*
X177937794Y-143855563D01*
X178099460Y-144245860D01*
X178334162Y-144597118D01*
X178632882Y-144895838D01*
X178984140Y-145130540D01*
X179374437Y-145292206D01*
X179788773Y-145374623D01*
X180211227Y-145374623D01*
X180625563Y-145292206D01*
X181015860Y-145130540D01*
X181367118Y-144895838D01*
X181665838Y-144597118D01*
X181900540Y-144245860D01*
X182062206Y-143855563D01*
X182144623Y-143441227D01*
X182144623Y-143018773D01*
X182062206Y-142604437D01*
X181900540Y-142214140D01*
X181665838Y-141862882D01*
X181367118Y-141564162D01*
X181015860Y-141329460D01*
X180625563Y-141167794D01*
X180211227Y-141085377D01*
X179788773Y-141085377D01*
X179374437Y-141167794D01*
X178984140Y-141329460D01*
X178632882Y-141564162D01*
X178334162Y-141862882D01*
X178099460Y-142214140D01*
X177937794Y-142604437D01*
X177855377Y-143018773D01*
X105144623Y-143018773D01*
X105062206Y-142604437D01*
X104900540Y-142214140D01*
X104665838Y-141862882D01*
X104367118Y-141564162D01*
X104015860Y-141329460D01*
X103625563Y-141167794D01*
X103211227Y-141085377D01*
X102788773Y-141085377D01*
X102374437Y-141167794D01*
X101984140Y-141329460D01*
X101632882Y-141564162D01*
X101334162Y-141862882D01*
X101099460Y-142214140D01*
X100937794Y-142604437D01*
X100855377Y-143018773D01*
X100660000Y-143018773D01*
X100660000Y-130897582D01*
X133190000Y-130897582D01*
X133190001Y-136962419D01*
X133190226Y-136964702D01*
X133190274Y-136971602D01*
X133193408Y-137001421D01*
X133193408Y-137031405D01*
X133194371Y-137040570D01*
X133252022Y-137554536D01*
X133264458Y-137613039D01*
X133276078Y-137671727D01*
X133278803Y-137680530D01*
X133435185Y-138173509D01*
X133458736Y-138228456D01*
X133481545Y-138283797D01*
X133485929Y-138291903D01*
X133735087Y-138745120D01*
X133768856Y-138794439D01*
X133801985Y-138844303D01*
X133807860Y-138851403D01*
X134140302Y-139247593D01*
X134183052Y-139289456D01*
X134225192Y-139331892D01*
X134232334Y-139337716D01*
X134635399Y-139661789D01*
X134685452Y-139694542D01*
X134735045Y-139727994D01*
X134743182Y-139732320D01*
X135201518Y-139971931D01*
X135256950Y-139994327D01*
X135312126Y-140017521D01*
X135320948Y-140020184D01*
X135817094Y-140166208D01*
X135875828Y-140177412D01*
X135934451Y-140189446D01*
X135943623Y-140190345D01*
X136458683Y-140237219D01*
X136518501Y-140236801D01*
X136578318Y-140237219D01*
X136587489Y-140236319D01*
X136587491Y-140236319D01*
X137101845Y-140182258D01*
X137160401Y-140170238D01*
X137219201Y-140159022D01*
X137228023Y-140156358D01*
X137722084Y-140003421D01*
X137777252Y-139980230D01*
X137832691Y-139957832D01*
X137840827Y-139953506D01*
X138295772Y-139707519D01*
X138345373Y-139674063D01*
X138395420Y-139641313D01*
X138402561Y-139635489D01*
X138801062Y-139305820D01*
X138843221Y-139263365D01*
X138885951Y-139221521D01*
X138891825Y-139214420D01*
X139218704Y-138813628D01*
X139251798Y-138763817D01*
X139285604Y-138714445D01*
X139289987Y-138706339D01*
X139532792Y-138249687D01*
X139555583Y-138194393D01*
X139579153Y-138139400D01*
X139581878Y-138130597D01*
X139731362Y-137635482D01*
X139742982Y-137576794D01*
X139755418Y-137518291D01*
X139756381Y-137509126D01*
X139806850Y-136994405D01*
X139806850Y-136994402D01*
X139810000Y-136962419D01*
X139810000Y-130897582D01*
X143190000Y-130897582D01*
X143190001Y-136962419D01*
X143190226Y-136964702D01*
X143190274Y-136971602D01*
X143193408Y-137001421D01*
X143193408Y-137031405D01*
X143194371Y-137040570D01*
X143252022Y-137554536D01*
X143264458Y-137613039D01*
X143276078Y-137671727D01*
X143278803Y-137680530D01*
X143435185Y-138173509D01*
X143458736Y-138228456D01*
X143481545Y-138283797D01*
X143485929Y-138291903D01*
X143735087Y-138745120D01*
X143768856Y-138794439D01*
X143801985Y-138844303D01*
X143807860Y-138851403D01*
X144140302Y-139247593D01*
X144183052Y-139289456D01*
X144225192Y-139331892D01*
X144232334Y-139337716D01*
X144635399Y-139661789D01*
X144685452Y-139694542D01*
X144735045Y-139727994D01*
X144743182Y-139732320D01*
X145201518Y-139971931D01*
X145256950Y-139994327D01*
X145312126Y-140017521D01*
X145320948Y-140020184D01*
X145817094Y-140166208D01*
X145875828Y-140177412D01*
X145934451Y-140189446D01*
X145943623Y-140190345D01*
X146458683Y-140237219D01*
X146518501Y-140236801D01*
X146578318Y-140237219D01*
X146587489Y-140236319D01*
X146587491Y-140236319D01*
X147101845Y-140182258D01*
X147160401Y-140170238D01*
X147219201Y-140159022D01*
X147228023Y-140156358D01*
X147722084Y-140003421D01*
X147777252Y-139980230D01*
X147832691Y-139957832D01*
X147840827Y-139953506D01*
X148295772Y-139707519D01*
X148345373Y-139674063D01*
X148395420Y-139641313D01*
X148402561Y-139635489D01*
X148801062Y-139305820D01*
X148843221Y-139263365D01*
X148885951Y-139221521D01*
X148891825Y-139214420D01*
X149218704Y-138813628D01*
X149251798Y-138763817D01*
X149285604Y-138714445D01*
X149289987Y-138706339D01*
X149532792Y-138249687D01*
X149555583Y-138194393D01*
X149579153Y-138139400D01*
X149581878Y-138130597D01*
X149731362Y-137635482D01*
X149742982Y-137576794D01*
X149755418Y-137518291D01*
X149756381Y-137509126D01*
X149806850Y-136994405D01*
X149806850Y-136994402D01*
X149810000Y-136962419D01*
X149810000Y-130897581D01*
X149809774Y-130895287D01*
X149809726Y-130888398D01*
X149806592Y-130858579D01*
X149806592Y-130828594D01*
X149805629Y-130819430D01*
X149747978Y-130305464D01*
X149735542Y-130246961D01*
X149723922Y-130188273D01*
X149721197Y-130179470D01*
X149564815Y-129686490D01*
X149541259Y-129631530D01*
X149518455Y-129576203D01*
X149514072Y-129568097D01*
X149264913Y-129114880D01*
X149231126Y-129065535D01*
X149198014Y-129015697D01*
X149192140Y-129008597D01*
X148859697Y-128612407D01*
X148816967Y-128570563D01*
X148774808Y-128528108D01*
X148767666Y-128522284D01*
X148364601Y-128198212D01*
X148314582Y-128165481D01*
X148264955Y-128132006D01*
X148256818Y-128127680D01*
X147798482Y-127888068D01*
X147743017Y-127865659D01*
X147687874Y-127842479D01*
X147679052Y-127839816D01*
X147182905Y-127693792D01*
X147124186Y-127682591D01*
X147065549Y-127670554D01*
X147056378Y-127669655D01*
X146541317Y-127622781D01*
X146481500Y-127623199D01*
X146421682Y-127622781D01*
X146412511Y-127623681D01*
X145898155Y-127677742D01*
X145839624Y-127689757D01*
X145780799Y-127700978D01*
X145771977Y-127703642D01*
X145277917Y-127856579D01*
X145222762Y-127879764D01*
X145167309Y-127902168D01*
X145159177Y-127906493D01*
X145159172Y-127906495D01*
X145159168Y-127906498D01*
X144704228Y-128152481D01*
X144654627Y-128185937D01*
X144604580Y-128218687D01*
X144597439Y-128224512D01*
X144198938Y-128554180D01*
X144156781Y-128596632D01*
X144114048Y-128638479D01*
X144108174Y-128645580D01*
X143781296Y-129046373D01*
X143748203Y-129096181D01*
X143714396Y-129145555D01*
X143710013Y-129153661D01*
X143467207Y-129610313D01*
X143444408Y-129665628D01*
X143420847Y-129720600D01*
X143418122Y-129729403D01*
X143268638Y-130224518D01*
X143257015Y-130283221D01*
X143244582Y-130341710D01*
X143243619Y-130350874D01*
X143193150Y-130865595D01*
X143190000Y-130897582D01*
X139810000Y-130897582D01*
X139810000Y-130897581D01*
X139809774Y-130895287D01*
X139809726Y-130888398D01*
X139806592Y-130858579D01*
X139806592Y-130828594D01*
X139805629Y-130819430D01*
X139747978Y-130305464D01*
X139735542Y-130246961D01*
X139723922Y-130188273D01*
X139721197Y-130179470D01*
X139564815Y-129686490D01*
X139541259Y-129631530D01*
X139518455Y-129576203D01*
X139514072Y-129568097D01*
X139264913Y-129114880D01*
X139231126Y-129065535D01*
X139198014Y-129015697D01*
X139192140Y-129008597D01*
X138859697Y-128612407D01*
X138816967Y-128570563D01*
X138774808Y-128528108D01*
X138767666Y-128522284D01*
X138364601Y-128198212D01*
X138314582Y-128165481D01*
X138264955Y-128132006D01*
X138256818Y-128127680D01*
X137798482Y-127888068D01*
X137743017Y-127865659D01*
X137687874Y-127842479D01*
X137679052Y-127839816D01*
X137182905Y-127693792D01*
X137124186Y-127682591D01*
X137065549Y-127670554D01*
X137056378Y-127669655D01*
X136541317Y-127622781D01*
X136481500Y-127623199D01*
X136421682Y-127622781D01*
X136412511Y-127623681D01*
X135898155Y-127677742D01*
X135839624Y-127689757D01*
X135780799Y-127700978D01*
X135771977Y-127703642D01*
X135277917Y-127856579D01*
X135222762Y-127879764D01*
X135167309Y-127902168D01*
X135159177Y-127906493D01*
X135159172Y-127906495D01*
X135159168Y-127906498D01*
X134704228Y-128152481D01*
X134654627Y-128185937D01*
X134604580Y-128218687D01*
X134597439Y-128224512D01*
X134198938Y-128554180D01*
X134156781Y-128596632D01*
X134114048Y-128638479D01*
X134108174Y-128645580D01*
X133781296Y-129046373D01*
X133748203Y-129096181D01*
X133714396Y-129145555D01*
X133710013Y-129153661D01*
X133467207Y-129610313D01*
X133444408Y-129665628D01*
X133420847Y-129720600D01*
X133418122Y-129729403D01*
X133268638Y-130224518D01*
X133257015Y-130283221D01*
X133244582Y-130341710D01*
X133243619Y-130350874D01*
X133193150Y-130865595D01*
X133190000Y-130897582D01*
X100660000Y-130897582D01*
X100660000Y-125756053D01*
X102210914Y-125756053D01*
X102210914Y-126403947D01*
X102337312Y-127039391D01*
X102585250Y-127637966D01*
X102945200Y-128176670D01*
X103403330Y-128634800D01*
X103942034Y-128994750D01*
X104540609Y-129242688D01*
X105176053Y-129369086D01*
X105823947Y-129369086D01*
X106459391Y-129242688D01*
X107057966Y-128994750D01*
X107596670Y-128634800D01*
X108054800Y-128176670D01*
X108414750Y-127637966D01*
X108662688Y-127039391D01*
X108789086Y-126403947D01*
X108789086Y-125756053D01*
X174210914Y-125756053D01*
X174210914Y-126403947D01*
X174337312Y-127039391D01*
X174585250Y-127637966D01*
X174945200Y-128176670D01*
X175403330Y-128634800D01*
X175942034Y-128994750D01*
X176540609Y-129242688D01*
X177176053Y-129369086D01*
X177823947Y-129369086D01*
X178459391Y-129242688D01*
X179057966Y-128994750D01*
X179596670Y-128634800D01*
X180054800Y-128176670D01*
X180414750Y-127637966D01*
X180662688Y-127039391D01*
X180789086Y-126403947D01*
X180789086Y-125756053D01*
X180662688Y-125120609D01*
X180414750Y-124522034D01*
X180054800Y-123983330D01*
X179596670Y-123525200D01*
X179057966Y-123165250D01*
X178459391Y-122917312D01*
X177823947Y-122790914D01*
X177176053Y-122790914D01*
X176540609Y-122917312D01*
X175942034Y-123165250D01*
X175403330Y-123525200D01*
X174945200Y-123983330D01*
X174585250Y-124522034D01*
X174337312Y-125120609D01*
X174210914Y-125756053D01*
X108789086Y-125756053D01*
X108662688Y-125120609D01*
X108414750Y-124522034D01*
X108054800Y-123983330D01*
X107596670Y-123525200D01*
X107057966Y-123165250D01*
X106459391Y-122917312D01*
X105823947Y-122790914D01*
X105176053Y-122790914D01*
X104540609Y-122917312D01*
X103942034Y-123165250D01*
X103403330Y-123525200D01*
X102945200Y-123983330D01*
X102585250Y-124522034D01*
X102337312Y-125120609D01*
X102210914Y-125756053D01*
X100660000Y-125756053D01*
X100660000Y-116039721D01*
X110365000Y-116039721D01*
X110365000Y-116460279D01*
X110447047Y-116872756D01*
X110607988Y-117261302D01*
X110841637Y-117610983D01*
X111139017Y-117908363D01*
X111488698Y-118142012D01*
X111877244Y-118302953D01*
X112289721Y-118385000D01*
X112710279Y-118385000D01*
X113122756Y-118302953D01*
X113511302Y-118142012D01*
X113860983Y-117908363D01*
X114027693Y-117741653D01*
X120187952Y-117741653D01*
X120343962Y-118057214D01*
X120718745Y-118248020D01*
X121123551Y-118362044D01*
X121542824Y-118394902D01*
X121960451Y-118345334D01*
X122360383Y-118215243D01*
X122656038Y-118057214D01*
X122812048Y-117741653D01*
X121500000Y-116429605D01*
X120187952Y-117741653D01*
X114027693Y-117741653D01*
X114158363Y-117610983D01*
X114392012Y-117261302D01*
X114552953Y-116872756D01*
X114635000Y-116460279D01*
X114635000Y-116292824D01*
X119355098Y-116292824D01*
X119404666Y-116710451D01*
X119534757Y-117110383D01*
X119692786Y-117406038D01*
X120008347Y-117562048D01*
X121320395Y-116250000D01*
X121679605Y-116250000D01*
X122991653Y-117562048D01*
X123307214Y-117406038D01*
X123498020Y-117031255D01*
X123612044Y-116626449D01*
X123644902Y-116207176D01*
X123625027Y-116039721D01*
X159365000Y-116039721D01*
X159365000Y-116460279D01*
X159447047Y-116872756D01*
X159607988Y-117261302D01*
X159841637Y-117610983D01*
X160139017Y-117908363D01*
X160488698Y-118142012D01*
X160877244Y-118302953D01*
X161289721Y-118385000D01*
X161710279Y-118385000D01*
X162122756Y-118302953D01*
X162511302Y-118142012D01*
X162860983Y-117908363D01*
X163158363Y-117610983D01*
X163392012Y-117261302D01*
X163552953Y-116872756D01*
X163635000Y-116460279D01*
X163635000Y-116039721D01*
X168365000Y-116039721D01*
X168365000Y-116460279D01*
X168447047Y-116872756D01*
X168607988Y-117261302D01*
X168841637Y-117610983D01*
X169139017Y-117908363D01*
X169488698Y-118142012D01*
X169877244Y-118302953D01*
X170289721Y-118385000D01*
X170710279Y-118385000D01*
X171122756Y-118302953D01*
X171511302Y-118142012D01*
X171860983Y-117908363D01*
X172158363Y-117610983D01*
X172392012Y-117261302D01*
X172552953Y-116872756D01*
X172635000Y-116460279D01*
X172635000Y-116039721D01*
X172552953Y-115627244D01*
X172392012Y-115238698D01*
X172158363Y-114889017D01*
X171860983Y-114591637D01*
X171511302Y-114357988D01*
X171122756Y-114197047D01*
X170710279Y-114115000D01*
X170289721Y-114115000D01*
X169877244Y-114197047D01*
X169488698Y-114357988D01*
X169139017Y-114591637D01*
X168841637Y-114889017D01*
X168607988Y-115238698D01*
X168447047Y-115627244D01*
X168365000Y-116039721D01*
X163635000Y-116039721D01*
X163552953Y-115627244D01*
X163392012Y-115238698D01*
X163158363Y-114889017D01*
X162860983Y-114591637D01*
X162511302Y-114357988D01*
X162122756Y-114197047D01*
X161710279Y-114115000D01*
X161289721Y-114115000D01*
X160877244Y-114197047D01*
X160488698Y-114357988D01*
X160139017Y-114591637D01*
X159841637Y-114889017D01*
X159607988Y-115238698D01*
X159447047Y-115627244D01*
X159365000Y-116039721D01*
X123625027Y-116039721D01*
X123595334Y-115789549D01*
X123465243Y-115389617D01*
X123307214Y-115093962D01*
X122991653Y-114937952D01*
X121679605Y-116250000D01*
X121320395Y-116250000D01*
X120008347Y-114937952D01*
X119692786Y-115093962D01*
X119501980Y-115468745D01*
X119387956Y-115873551D01*
X119355098Y-116292824D01*
X114635000Y-116292824D01*
X114635000Y-116039721D01*
X114552953Y-115627244D01*
X114392012Y-115238698D01*
X114158363Y-114889017D01*
X114027693Y-114758347D01*
X120187952Y-114758347D01*
X121500000Y-116070395D01*
X122812048Y-114758347D01*
X122656038Y-114442786D01*
X122281255Y-114251980D01*
X121876449Y-114137956D01*
X121457176Y-114105098D01*
X121039549Y-114154666D01*
X120639617Y-114284757D01*
X120343962Y-114442786D01*
X120187952Y-114758347D01*
X114027693Y-114758347D01*
X113860983Y-114591637D01*
X113511302Y-114357988D01*
X113122756Y-114197047D01*
X112710279Y-114115000D01*
X112289721Y-114115000D01*
X111877244Y-114197047D01*
X111488698Y-114357988D01*
X111139017Y-114591637D01*
X110841637Y-114889017D01*
X110607988Y-115238698D01*
X110447047Y-115627244D01*
X110365000Y-116039721D01*
X100660000Y-116039721D01*
X100660000Y-108500000D01*
X115956929Y-108500000D01*
X115956929Y-109500000D01*
X115969189Y-109624482D01*
X116005499Y-109744180D01*
X116064464Y-109854494D01*
X116143816Y-109951185D01*
X116240507Y-110030537D01*
X116350821Y-110089502D01*
X116470519Y-110125812D01*
X116595001Y-110138072D01*
X117195001Y-110138072D01*
X117319483Y-110125812D01*
X117439181Y-110089502D01*
X117549495Y-110030537D01*
X117645001Y-109952158D01*
X117740507Y-110030537D01*
X117850821Y-110089502D01*
X117970519Y-110125812D01*
X118095001Y-110138072D01*
X118109251Y-110135000D01*
X118268001Y-109976250D01*
X118268001Y-109127000D01*
X118248001Y-109127000D01*
X118248001Y-108873000D01*
X118268001Y-108873000D01*
X118268001Y-108023750D01*
X118522001Y-108023750D01*
X118522001Y-108873000D01*
X118542001Y-108873000D01*
X118542001Y-109127000D01*
X118522001Y-109127000D01*
X118522001Y-109976250D01*
X118680751Y-110135000D01*
X118695001Y-110138072D01*
X118819483Y-110125812D01*
X118939181Y-110089502D01*
X119049495Y-110030537D01*
X119145001Y-109952158D01*
X119240506Y-110030537D01*
X119350820Y-110089502D01*
X119470518Y-110125812D01*
X119595000Y-110138072D01*
X120195000Y-110138072D01*
X120319482Y-110125812D01*
X120439180Y-110089502D01*
X120549494Y-110030537D01*
X120645001Y-109952157D01*
X120740508Y-110030537D01*
X120850822Y-110089502D01*
X120970520Y-110125812D01*
X121095002Y-110138072D01*
X121695002Y-110138072D01*
X121819484Y-110125812D01*
X121939182Y-110089502D01*
X122049496Y-110030537D01*
X122145002Y-109952158D01*
X122240508Y-110030537D01*
X122350822Y-110089502D01*
X122470520Y-110125812D01*
X122595002Y-110138072D01*
X123195002Y-110138072D01*
X123319484Y-110125812D01*
X123439182Y-110089502D01*
X123549496Y-110030537D01*
X123646187Y-109951185D01*
X123725539Y-109854494D01*
X123784504Y-109744180D01*
X123820814Y-109624482D01*
X123833074Y-109500000D01*
X123833074Y-108500000D01*
X123821586Y-108383360D01*
X123917205Y-108240256D01*
X123995226Y-108051898D01*
X124035000Y-107851939D01*
X124035000Y-107648061D01*
X123995226Y-107448102D01*
X123917205Y-107259744D01*
X123803937Y-107090226D01*
X123659774Y-106946063D01*
X123655002Y-106942874D01*
X123655002Y-103919799D01*
X124236928Y-103337873D01*
X124236928Y-104710000D01*
X124249188Y-104834482D01*
X124285498Y-104954180D01*
X124344463Y-105064494D01*
X124423815Y-105161185D01*
X124520506Y-105240537D01*
X124630820Y-105299502D01*
X124750518Y-105335812D01*
X124875000Y-105348072D01*
X126125000Y-105348072D01*
X126249482Y-105335812D01*
X126369180Y-105299502D01*
X126479494Y-105240537D01*
X126576185Y-105161185D01*
X126655537Y-105064494D01*
X126714502Y-104954180D01*
X126750812Y-104834482D01*
X126763072Y-104710000D01*
X126763072Y-102910000D01*
X126750812Y-102785518D01*
X126714502Y-102665820D01*
X126655537Y-102555506D01*
X126576185Y-102458815D01*
X126479494Y-102379463D01*
X126369180Y-102320498D01*
X126249482Y-102284188D01*
X126125000Y-102271928D01*
X125302874Y-102271928D01*
X127064803Y-100510000D01*
X133546289Y-100510000D01*
X133590226Y-100553937D01*
X133759744Y-100667205D01*
X133948102Y-100745226D01*
X134148061Y-100785000D01*
X134351939Y-100785000D01*
X134551898Y-100745226D01*
X134740256Y-100667205D01*
X134909774Y-100553937D01*
X135053937Y-100409774D01*
X135167205Y-100240256D01*
X135245226Y-100051898D01*
X135285000Y-99851939D01*
X135285000Y-99648061D01*
X135257538Y-99510000D01*
X137046289Y-99510000D01*
X137090226Y-99553937D01*
X137259744Y-99667205D01*
X137448102Y-99745226D01*
X137648061Y-99785000D01*
X137851939Y-99785000D01*
X138051898Y-99745226D01*
X138240256Y-99667205D01*
X138409774Y-99553937D01*
X138553937Y-99409774D01*
X138667205Y-99240256D01*
X138745226Y-99051898D01*
X138785000Y-98851939D01*
X138785000Y-98648061D01*
X138757538Y-98510000D01*
X143796289Y-98510000D01*
X143840226Y-98553937D01*
X144009744Y-98667205D01*
X144198102Y-98745226D01*
X144398061Y-98785000D01*
X144601939Y-98785000D01*
X144801898Y-98745226D01*
X144990256Y-98667205D01*
X145159774Y-98553937D01*
X145303937Y-98409774D01*
X145406649Y-98256053D01*
X174210914Y-98256053D01*
X174210914Y-98903947D01*
X174337312Y-99539391D01*
X174585250Y-100137966D01*
X174945200Y-100676670D01*
X175403330Y-101134800D01*
X175942034Y-101494750D01*
X176540609Y-101742688D01*
X177176053Y-101869086D01*
X177823947Y-101869086D01*
X178459391Y-101742688D01*
X179057966Y-101494750D01*
X179596670Y-101134800D01*
X180054800Y-100676670D01*
X180414750Y-100137966D01*
X180662688Y-99539391D01*
X180789086Y-98903947D01*
X180789086Y-98256053D01*
X180662688Y-97620609D01*
X180414750Y-97022034D01*
X180054800Y-96483330D01*
X179596670Y-96025200D01*
X179057966Y-95665250D01*
X178459391Y-95417312D01*
X177823947Y-95290914D01*
X177176053Y-95290914D01*
X176540609Y-95417312D01*
X175942034Y-95665250D01*
X175403330Y-96025200D01*
X174945200Y-96483330D01*
X174585250Y-97022034D01*
X174337312Y-97620609D01*
X174210914Y-98256053D01*
X145406649Y-98256053D01*
X145417205Y-98240256D01*
X145495226Y-98051898D01*
X145535000Y-97851939D01*
X145535000Y-97648061D01*
X145495226Y-97448102D01*
X145417205Y-97259744D01*
X145303937Y-97090226D01*
X145159774Y-96946063D01*
X144990256Y-96832795D01*
X144801898Y-96754774D01*
X144601939Y-96715000D01*
X144398061Y-96715000D01*
X144198102Y-96754774D01*
X144009744Y-96832795D01*
X143840226Y-96946063D01*
X143796289Y-96990000D01*
X127514502Y-96990000D01*
X127477179Y-96986324D01*
X127439856Y-96990000D01*
X127439847Y-96990000D01*
X127328194Y-97000997D01*
X127184933Y-97044454D01*
X127052903Y-97115026D01*
X126969263Y-97183668D01*
X126937179Y-97209999D01*
X126913381Y-97238997D01*
X119727588Y-104424791D01*
X119383998Y-104768381D01*
X119355000Y-104792179D01*
X119331202Y-104821177D01*
X119331201Y-104821178D01*
X119260026Y-104907904D01*
X119189454Y-105039934D01*
X119169718Y-105104999D01*
X119145998Y-105183194D01*
X119142865Y-105215000D01*
X119131324Y-105332180D01*
X119135001Y-105369512D01*
X119135001Y-105681612D01*
X119082795Y-105759744D01*
X119004774Y-105948102D01*
X118965000Y-106148061D01*
X118965000Y-106351939D01*
X119004774Y-106551898D01*
X119082795Y-106740256D01*
X119135001Y-106818387D01*
X119135000Y-107803937D01*
X119135000Y-108039635D01*
X119049495Y-107969463D01*
X118939181Y-107910498D01*
X118819483Y-107874188D01*
X118695001Y-107861928D01*
X118680751Y-107865000D01*
X118522001Y-108023750D01*
X118268001Y-108023750D01*
X118109251Y-107865000D01*
X118095001Y-107861928D01*
X117970519Y-107874188D01*
X117850821Y-107910498D01*
X117780001Y-107948353D01*
X117780001Y-105471577D01*
X117801533Y-105450045D01*
X120745044Y-102506535D01*
X120801898Y-102495226D01*
X120990256Y-102417205D01*
X121159774Y-102303937D01*
X121303937Y-102159774D01*
X121417205Y-101990256D01*
X121495226Y-101801898D01*
X121535000Y-101601939D01*
X121535000Y-101398061D01*
X121495226Y-101198102D01*
X121417205Y-101009744D01*
X121303937Y-100840226D01*
X121159774Y-100696063D01*
X120990256Y-100582795D01*
X120801898Y-100504774D01*
X120601939Y-100465000D01*
X120398061Y-100465000D01*
X120198102Y-100504774D01*
X120009744Y-100582795D01*
X119840226Y-100696063D01*
X119696063Y-100840226D01*
X119582795Y-101009744D01*
X119504774Y-101198102D01*
X119493465Y-101254956D01*
X116549955Y-104198467D01*
X116299953Y-104448469D01*
X116266185Y-104476182D01*
X116238472Y-104509950D01*
X116238469Y-104509953D01*
X116155591Y-104610940D01*
X116073413Y-104764686D01*
X116022806Y-104931509D01*
X116005720Y-105104999D01*
X116010002Y-105148478D01*
X116010001Y-108247397D01*
X116005499Y-108255820D01*
X115969189Y-108375518D01*
X115956929Y-108500000D01*
X100660000Y-108500000D01*
X100660000Y-102910000D01*
X113026930Y-102910000D01*
X113026930Y-104710000D01*
X113039190Y-104834482D01*
X113075500Y-104954180D01*
X113134465Y-105064494D01*
X113213817Y-105161185D01*
X113310508Y-105240537D01*
X113420822Y-105299502D01*
X113540520Y-105335812D01*
X113665002Y-105348072D01*
X114915002Y-105348072D01*
X115039484Y-105335812D01*
X115159182Y-105299502D01*
X115269496Y-105240537D01*
X115366187Y-105161185D01*
X115445539Y-105064494D01*
X115504504Y-104954180D01*
X115540814Y-104834482D01*
X115553074Y-104710000D01*
X115553074Y-102910000D01*
X115540814Y-102785518D01*
X115504504Y-102665820D01*
X115445539Y-102555506D01*
X115366187Y-102458815D01*
X115269496Y-102379463D01*
X115159182Y-102320498D01*
X115039484Y-102284188D01*
X114915002Y-102271928D01*
X113665002Y-102271928D01*
X113540520Y-102284188D01*
X113420822Y-102320498D01*
X113310508Y-102379463D01*
X113213817Y-102458815D01*
X113134465Y-102555506D01*
X113075500Y-102665820D01*
X113039190Y-102785518D01*
X113026930Y-102910000D01*
X100660000Y-102910000D01*
X100660000Y-98256053D01*
X102210914Y-98256053D01*
X102210914Y-98903947D01*
X102337312Y-99539391D01*
X102585250Y-100137966D01*
X102945200Y-100676670D01*
X103403330Y-101134800D01*
X103942034Y-101494750D01*
X104540609Y-101742688D01*
X105176053Y-101869086D01*
X105823947Y-101869086D01*
X106459391Y-101742688D01*
X107057966Y-101494750D01*
X107596670Y-101134800D01*
X108054800Y-100676670D01*
X108414750Y-100137966D01*
X108662688Y-99539391D01*
X108789086Y-98903947D01*
X108789086Y-98256053D01*
X108662688Y-97620609D01*
X108414750Y-97022034D01*
X108054800Y-96483330D01*
X107596670Y-96025200D01*
X107057966Y-95665250D01*
X106459391Y-95417312D01*
X105823947Y-95290914D01*
X105176053Y-95290914D01*
X104540609Y-95417312D01*
X103942034Y-95665250D01*
X103403330Y-96025200D01*
X102945200Y-96483330D01*
X102585250Y-97022034D01*
X102337312Y-97620609D01*
X102210914Y-98256053D01*
X100660000Y-98256053D01*
X100660000Y-80289721D01*
X105365000Y-80289721D01*
X105365000Y-80710279D01*
X105447047Y-81122756D01*
X105607988Y-81511302D01*
X105841637Y-81860983D01*
X106139017Y-82158363D01*
X106488698Y-82392012D01*
X106877244Y-82552953D01*
X107289721Y-82635000D01*
X107710279Y-82635000D01*
X108122756Y-82552953D01*
X108511302Y-82392012D01*
X108860983Y-82158363D01*
X109158363Y-81860983D01*
X109392012Y-81511302D01*
X109552953Y-81122756D01*
X109635000Y-80710279D01*
X109635000Y-80289721D01*
X114365000Y-80289721D01*
X114365000Y-80710279D01*
X114447047Y-81122756D01*
X114607988Y-81511302D01*
X114841637Y-81860983D01*
X115139017Y-82158363D01*
X115488698Y-82392012D01*
X115877244Y-82552953D01*
X116289721Y-82635000D01*
X116710279Y-82635000D01*
X117122756Y-82552953D01*
X117511302Y-82392012D01*
X117860983Y-82158363D01*
X118158363Y-81860983D01*
X118392012Y-81511302D01*
X118552953Y-81122756D01*
X118635000Y-80710279D01*
X118635000Y-80289721D01*
X118552953Y-79877244D01*
X118392012Y-79488698D01*
X118158363Y-79139017D01*
X117860983Y-78841637D01*
X117511302Y-78607988D01*
X117122756Y-78447047D01*
X116710279Y-78365000D01*
X116289721Y-78365000D01*
X115877244Y-78447047D01*
X115488698Y-78607988D01*
X115139017Y-78841637D01*
X114841637Y-79139017D01*
X114607988Y-79488698D01*
X114447047Y-79877244D01*
X114365000Y-80289721D01*
X109635000Y-80289721D01*
X109552953Y-79877244D01*
X109392012Y-79488698D01*
X109158363Y-79139017D01*
X108860983Y-78841637D01*
X108511302Y-78607988D01*
X108122756Y-78447047D01*
X107710279Y-78365000D01*
X107289721Y-78365000D01*
X106877244Y-78447047D01*
X106488698Y-78607988D01*
X106139017Y-78841637D01*
X105841637Y-79139017D01*
X105607988Y-79488698D01*
X105447047Y-79877244D01*
X105365000Y-80289721D01*
X100660000Y-80289721D01*
X100660000Y-71750000D01*
X125836807Y-71750000D01*
X125840001Y-71782429D01*
X125840000Y-83717581D01*
X125836807Y-83750000D01*
X125849550Y-83879383D01*
X125887290Y-84003793D01*
X125948575Y-84118450D01*
X126031052Y-84218948D01*
X126131550Y-84301425D01*
X126246207Y-84362710D01*
X126370617Y-84400450D01*
X126500000Y-84413193D01*
X126532419Y-84410000D01*
X156467581Y-84410000D01*
X156500000Y-84413193D01*
X156532419Y-84410000D01*
X156629383Y-84400450D01*
X156753793Y-84362710D01*
X156868450Y-84301425D01*
X156968948Y-84218948D01*
X157051425Y-84118450D01*
X157112710Y-84003793D01*
X157150450Y-83879383D01*
X157163193Y-83750000D01*
X157160000Y-83717581D01*
X157160000Y-80289721D01*
X164365000Y-80289721D01*
X164365000Y-80710279D01*
X164447047Y-81122756D01*
X164607988Y-81511302D01*
X164841637Y-81860983D01*
X165139017Y-82158363D01*
X165488698Y-82392012D01*
X165877244Y-82552953D01*
X166289721Y-82635000D01*
X166710279Y-82635000D01*
X167122756Y-82552953D01*
X167511302Y-82392012D01*
X167860983Y-82158363D01*
X168027693Y-81991653D01*
X174187952Y-81991653D01*
X174343962Y-82307214D01*
X174718745Y-82498020D01*
X175123551Y-82612044D01*
X175542824Y-82644902D01*
X175960451Y-82595334D01*
X176360383Y-82465243D01*
X176656038Y-82307214D01*
X176812048Y-81991653D01*
X175500000Y-80679605D01*
X174187952Y-81991653D01*
X168027693Y-81991653D01*
X168158363Y-81860983D01*
X168392012Y-81511302D01*
X168552953Y-81122756D01*
X168635000Y-80710279D01*
X168635000Y-80542824D01*
X173355098Y-80542824D01*
X173404666Y-80960451D01*
X173534757Y-81360383D01*
X173692786Y-81656038D01*
X174008347Y-81812048D01*
X175320395Y-80500000D01*
X175679605Y-80500000D01*
X176991653Y-81812048D01*
X177307214Y-81656038D01*
X177498020Y-81281255D01*
X177612044Y-80876449D01*
X177644902Y-80457176D01*
X177595334Y-80039549D01*
X177465243Y-79639617D01*
X177307214Y-79343962D01*
X176991653Y-79187952D01*
X175679605Y-80500000D01*
X175320395Y-80500000D01*
X174008347Y-79187952D01*
X173692786Y-79343962D01*
X173501980Y-79718745D01*
X173387956Y-80123551D01*
X173355098Y-80542824D01*
X168635000Y-80542824D01*
X168635000Y-80289721D01*
X168552953Y-79877244D01*
X168392012Y-79488698D01*
X168158363Y-79139017D01*
X168027693Y-79008347D01*
X174187952Y-79008347D01*
X175500000Y-80320395D01*
X176812048Y-79008347D01*
X176656038Y-78692786D01*
X176281255Y-78501980D01*
X175876449Y-78387956D01*
X175457176Y-78355098D01*
X175039549Y-78404666D01*
X174639617Y-78534757D01*
X174343962Y-78692786D01*
X174187952Y-79008347D01*
X168027693Y-79008347D01*
X167860983Y-78841637D01*
X167511302Y-78607988D01*
X167122756Y-78447047D01*
X166710279Y-78365000D01*
X166289721Y-78365000D01*
X165877244Y-78447047D01*
X165488698Y-78607988D01*
X165139017Y-78841637D01*
X164841637Y-79139017D01*
X164607988Y-79488698D01*
X164447047Y-79877244D01*
X164365000Y-80289721D01*
X157160000Y-80289721D01*
X157160000Y-71782419D01*
X157163193Y-71750000D01*
X157150450Y-71620617D01*
X157112710Y-71496207D01*
X157051425Y-71381550D01*
X156968948Y-71281052D01*
X156868450Y-71198575D01*
X156753793Y-71137290D01*
X156629383Y-71099550D01*
X156532419Y-71090000D01*
X156500000Y-71086807D01*
X156467581Y-71090000D01*
X126532419Y-71090000D01*
X126500000Y-71086807D01*
X126467581Y-71090000D01*
X126370617Y-71099550D01*
X126246207Y-71137290D01*
X126131550Y-71198575D01*
X126031052Y-71281052D01*
X125948575Y-71381550D01*
X125887290Y-71496207D01*
X125849550Y-71620617D01*
X125836807Y-71750000D01*
X100660000Y-71750000D01*
X100660000Y-65289721D01*
X108615000Y-65289721D01*
X108615000Y-65710279D01*
X108697047Y-66122756D01*
X108857988Y-66511302D01*
X109091637Y-66860983D01*
X109389017Y-67158363D01*
X109738698Y-67392012D01*
X110127244Y-67552953D01*
X110539721Y-67635000D01*
X110960279Y-67635000D01*
X111372756Y-67552953D01*
X111761302Y-67392012D01*
X112110983Y-67158363D01*
X112408363Y-66860983D01*
X112607857Y-66562418D01*
X133190000Y-66562418D01*
X133190226Y-66564712D01*
X133190274Y-66571602D01*
X133193408Y-66601421D01*
X133193408Y-66631405D01*
X133194371Y-66640570D01*
X133252022Y-67154536D01*
X133264458Y-67213039D01*
X133276078Y-67271727D01*
X133278803Y-67280530D01*
X133435185Y-67773509D01*
X133458736Y-67828456D01*
X133481545Y-67883797D01*
X133485929Y-67891903D01*
X133735087Y-68345120D01*
X133768856Y-68394439D01*
X133801985Y-68444303D01*
X133807860Y-68451403D01*
X134140302Y-68847593D01*
X134183052Y-68889456D01*
X134225192Y-68931892D01*
X134232334Y-68937716D01*
X134635399Y-69261789D01*
X134685452Y-69294542D01*
X134735045Y-69327994D01*
X134743182Y-69332320D01*
X135201518Y-69571931D01*
X135256950Y-69594327D01*
X135312126Y-69617521D01*
X135320948Y-69620184D01*
X135817094Y-69766208D01*
X135875828Y-69777412D01*
X135934451Y-69789446D01*
X135943623Y-69790345D01*
X136458683Y-69837219D01*
X136518501Y-69836801D01*
X136578318Y-69837219D01*
X136587489Y-69836319D01*
X136587491Y-69836319D01*
X137101845Y-69782258D01*
X137160401Y-69770238D01*
X137219201Y-69759022D01*
X137228023Y-69756358D01*
X137722084Y-69603421D01*
X137777252Y-69580230D01*
X137832691Y-69557832D01*
X137840827Y-69553506D01*
X138295772Y-69307519D01*
X138345373Y-69274063D01*
X138395420Y-69241313D01*
X138402561Y-69235489D01*
X138801062Y-68905820D01*
X138843221Y-68863365D01*
X138885951Y-68821521D01*
X138891825Y-68814420D01*
X139218704Y-68413628D01*
X139251798Y-68363817D01*
X139285604Y-68314445D01*
X139289987Y-68306339D01*
X139532792Y-67849687D01*
X139555583Y-67794393D01*
X139579153Y-67739400D01*
X139581878Y-67730597D01*
X139731362Y-67235482D01*
X139742982Y-67176794D01*
X139755418Y-67118291D01*
X139756381Y-67109126D01*
X139806850Y-66594405D01*
X139806850Y-66594402D01*
X139810000Y-66562419D01*
X139810000Y-60497582D01*
X143190000Y-60497582D01*
X143190001Y-66562419D01*
X143190226Y-66564702D01*
X143190274Y-66571602D01*
X143193408Y-66601421D01*
X143193408Y-66631405D01*
X143194371Y-66640570D01*
X143252022Y-67154536D01*
X143264458Y-67213039D01*
X143276078Y-67271727D01*
X143278803Y-67280530D01*
X143435185Y-67773509D01*
X143458736Y-67828456D01*
X143481545Y-67883797D01*
X143485929Y-67891903D01*
X143735087Y-68345120D01*
X143768856Y-68394439D01*
X143801985Y-68444303D01*
X143807860Y-68451403D01*
X144140302Y-68847593D01*
X144183052Y-68889456D01*
X144225192Y-68931892D01*
X144232334Y-68937716D01*
X144635399Y-69261789D01*
X144685452Y-69294542D01*
X144735045Y-69327994D01*
X144743182Y-69332320D01*
X145201518Y-69571931D01*
X145256950Y-69594327D01*
X145312126Y-69617521D01*
X145320948Y-69620184D01*
X145817094Y-69766208D01*
X145875828Y-69777412D01*
X145934451Y-69789446D01*
X145943623Y-69790345D01*
X146458683Y-69837219D01*
X146518501Y-69836801D01*
X146578318Y-69837219D01*
X146587489Y-69836319D01*
X146587491Y-69836319D01*
X147101845Y-69782258D01*
X147160401Y-69770238D01*
X147219201Y-69759022D01*
X147228023Y-69756358D01*
X147722084Y-69603421D01*
X147777252Y-69580230D01*
X147832691Y-69557832D01*
X147840827Y-69553506D01*
X148295772Y-69307519D01*
X148345373Y-69274063D01*
X148395420Y-69241313D01*
X148402561Y-69235489D01*
X148801062Y-68905820D01*
X148843221Y-68863365D01*
X148885951Y-68821521D01*
X148891825Y-68814420D01*
X149218704Y-68413628D01*
X149251798Y-68363817D01*
X149285604Y-68314445D01*
X149289987Y-68306339D01*
X149532792Y-67849687D01*
X149555583Y-67794393D01*
X149579153Y-67739400D01*
X149581878Y-67730597D01*
X149731362Y-67235482D01*
X149742982Y-67176794D01*
X149755418Y-67118291D01*
X149756381Y-67109126D01*
X149806850Y-66594405D01*
X149806850Y-66594402D01*
X149810000Y-66562419D01*
X149810000Y-60497581D01*
X149809774Y-60495287D01*
X149809726Y-60488398D01*
X149806592Y-60458579D01*
X149806592Y-60428594D01*
X149805629Y-60419430D01*
X149747978Y-59905464D01*
X149735542Y-59846961D01*
X149723922Y-59788273D01*
X149721197Y-59779470D01*
X149564815Y-59286490D01*
X149541259Y-59231530D01*
X149518455Y-59176203D01*
X149514072Y-59168097D01*
X149264913Y-58714880D01*
X149231126Y-58665535D01*
X149198014Y-58615697D01*
X149192140Y-58608597D01*
X148859697Y-58212407D01*
X148816967Y-58170563D01*
X148774808Y-58128108D01*
X148767666Y-58122284D01*
X148364601Y-57798212D01*
X148314582Y-57765481D01*
X148264955Y-57732006D01*
X148256818Y-57727680D01*
X147798482Y-57488068D01*
X147743017Y-57465659D01*
X147687874Y-57442479D01*
X147679052Y-57439816D01*
X147182905Y-57293792D01*
X147124186Y-57282591D01*
X147065549Y-57270554D01*
X147056378Y-57269655D01*
X146541317Y-57222781D01*
X146481500Y-57223199D01*
X146421682Y-57222781D01*
X146412511Y-57223681D01*
X145898155Y-57277742D01*
X145839624Y-57289757D01*
X145780799Y-57300978D01*
X145771977Y-57303642D01*
X145277917Y-57456579D01*
X145222762Y-57479764D01*
X145167309Y-57502168D01*
X145159177Y-57506493D01*
X145159172Y-57506495D01*
X145159168Y-57506498D01*
X144704228Y-57752481D01*
X144654627Y-57785937D01*
X144604580Y-57818687D01*
X144597439Y-57824512D01*
X144198938Y-58154180D01*
X144156781Y-58196632D01*
X144114048Y-58238479D01*
X144108174Y-58245580D01*
X143781296Y-58646373D01*
X143748203Y-58696181D01*
X143714396Y-58745555D01*
X143710013Y-58753661D01*
X143467207Y-59210313D01*
X143444408Y-59265628D01*
X143420847Y-59320600D01*
X143418122Y-59329403D01*
X143268638Y-59824518D01*
X143257015Y-59883221D01*
X143244582Y-59941710D01*
X143243619Y-59950874D01*
X143193150Y-60465595D01*
X143190000Y-60497582D01*
X139810000Y-60497582D01*
X139810000Y-60497581D01*
X139809774Y-60495287D01*
X139809726Y-60488398D01*
X139806592Y-60458579D01*
X139806592Y-60428594D01*
X139805629Y-60419430D01*
X139747978Y-59905464D01*
X139735542Y-59846961D01*
X139723922Y-59788273D01*
X139721197Y-59779470D01*
X139564815Y-59286490D01*
X139541259Y-59231530D01*
X139518455Y-59176203D01*
X139514072Y-59168097D01*
X139264913Y-58714880D01*
X139231126Y-58665535D01*
X139198014Y-58615697D01*
X139192140Y-58608597D01*
X138859697Y-58212407D01*
X138816967Y-58170563D01*
X138774808Y-58128108D01*
X138767666Y-58122284D01*
X138364601Y-57798212D01*
X138314582Y-57765481D01*
X138264955Y-57732006D01*
X138256818Y-57727680D01*
X137798482Y-57488068D01*
X137743017Y-57465659D01*
X137687874Y-57442479D01*
X137679052Y-57439816D01*
X137182905Y-57293792D01*
X137124186Y-57282591D01*
X137065549Y-57270554D01*
X137056378Y-57269655D01*
X136541317Y-57222781D01*
X136481500Y-57223199D01*
X136421682Y-57222781D01*
X136412511Y-57223681D01*
X135898155Y-57277742D01*
X135839624Y-57289757D01*
X135780799Y-57300978D01*
X135771977Y-57303642D01*
X135277917Y-57456579D01*
X135222762Y-57479764D01*
X135167309Y-57502168D01*
X135159177Y-57506493D01*
X135159172Y-57506495D01*
X135159168Y-57506498D01*
X134704228Y-57752481D01*
X134654627Y-57785937D01*
X134604580Y-57818687D01*
X134597439Y-57824512D01*
X134198938Y-58154180D01*
X134156781Y-58196632D01*
X134114048Y-58238479D01*
X134108174Y-58245580D01*
X133781296Y-58646373D01*
X133748203Y-58696181D01*
X133714396Y-58745555D01*
X133710013Y-58753661D01*
X133467207Y-59210313D01*
X133444408Y-59265628D01*
X133420847Y-59320600D01*
X133418122Y-59329403D01*
X133268638Y-59824518D01*
X133257015Y-59883221D01*
X133244582Y-59941710D01*
X133243619Y-59950874D01*
X133193150Y-60465595D01*
X133193150Y-60465608D01*
X133190001Y-60497581D01*
X133190000Y-66562418D01*
X112607857Y-66562418D01*
X112642012Y-66511302D01*
X112802953Y-66122756D01*
X112885000Y-65710279D01*
X112885000Y-65289721D01*
X112802953Y-64877244D01*
X112750637Y-64750941D01*
X121616579Y-55885000D01*
X161383422Y-55885000D01*
X170249363Y-64750942D01*
X170197047Y-64877244D01*
X170115000Y-65289721D01*
X170115000Y-65710279D01*
X170197047Y-66122756D01*
X170357988Y-66511302D01*
X170591637Y-66860983D01*
X170889017Y-67158363D01*
X171238698Y-67392012D01*
X171627244Y-67552953D01*
X172039721Y-67635000D01*
X172460279Y-67635000D01*
X172872756Y-67552953D01*
X173261302Y-67392012D01*
X173610983Y-67158363D01*
X173908363Y-66860983D01*
X174142012Y-66511302D01*
X174302953Y-66122756D01*
X174385000Y-65710279D01*
X174385000Y-65289721D01*
X174302953Y-64877244D01*
X174142012Y-64488698D01*
X173908363Y-64139017D01*
X173610983Y-63841637D01*
X173261302Y-63607988D01*
X172872756Y-63447047D01*
X172460279Y-63365000D01*
X172039721Y-63365000D01*
X171627244Y-63447047D01*
X171500942Y-63499363D01*
X164291300Y-56289721D01*
X170115000Y-56289721D01*
X170115000Y-56710279D01*
X170197047Y-57122756D01*
X170357988Y-57511302D01*
X170591637Y-57860983D01*
X170889017Y-58158363D01*
X171238698Y-58392012D01*
X171627244Y-58552953D01*
X172039721Y-58635000D01*
X172460279Y-58635000D01*
X172872756Y-58552953D01*
X173261302Y-58392012D01*
X173610983Y-58158363D01*
X173908363Y-57860983D01*
X174142012Y-57511302D01*
X174302953Y-57122756D01*
X174385000Y-56710279D01*
X174385000Y-56289721D01*
X174302953Y-55877244D01*
X174142012Y-55488698D01*
X173908363Y-55139017D01*
X173610983Y-54841637D01*
X173261302Y-54607988D01*
X172872756Y-54447047D01*
X172460279Y-54365000D01*
X172039721Y-54365000D01*
X171627244Y-54447047D01*
X171238698Y-54607988D01*
X170889017Y-54841637D01*
X170591637Y-55139017D01*
X170357988Y-55488698D01*
X170197047Y-55877244D01*
X170115000Y-56289721D01*
X164291300Y-56289721D01*
X162406534Y-54404956D01*
X162378817Y-54371183D01*
X162244059Y-54260589D01*
X162090313Y-54178411D01*
X161923490Y-54127805D01*
X161793477Y-54115000D01*
X161793469Y-54115000D01*
X161750000Y-54110719D01*
X161706531Y-54115000D01*
X121293465Y-54115000D01*
X121249999Y-54110719D01*
X121206533Y-54115000D01*
X121206523Y-54115000D01*
X121076510Y-54127805D01*
X120909687Y-54178411D01*
X120755941Y-54260589D01*
X120755939Y-54260590D01*
X120755940Y-54260590D01*
X120654953Y-54343468D01*
X120654951Y-54343470D01*
X120621183Y-54371183D01*
X120593470Y-54404951D01*
X111499059Y-63499363D01*
X111372756Y-63447047D01*
X110960279Y-63365000D01*
X110539721Y-63365000D01*
X110127244Y-63447047D01*
X109738698Y-63607988D01*
X109389017Y-63841637D01*
X109091637Y-64139017D01*
X108857988Y-64488698D01*
X108697047Y-64877244D01*
X108615000Y-65289721D01*
X100660000Y-65289721D01*
X100660000Y-57991653D01*
X109437952Y-57991653D01*
X109593962Y-58307214D01*
X109968745Y-58498020D01*
X110373551Y-58612044D01*
X110792824Y-58644902D01*
X111210451Y-58595334D01*
X111610383Y-58465243D01*
X111906038Y-58307214D01*
X112062048Y-57991653D01*
X110750000Y-56679605D01*
X109437952Y-57991653D01*
X100660000Y-57991653D01*
X100660000Y-56542824D01*
X108605098Y-56542824D01*
X108654666Y-56960451D01*
X108784757Y-57360383D01*
X108942786Y-57656038D01*
X109258347Y-57812048D01*
X110570395Y-56500000D01*
X110929605Y-56500000D01*
X112241653Y-57812048D01*
X112557214Y-57656038D01*
X112748020Y-57281255D01*
X112862044Y-56876449D01*
X112894902Y-56457176D01*
X112845334Y-56039549D01*
X112715243Y-55639617D01*
X112557214Y-55343962D01*
X112241653Y-55187952D01*
X110929605Y-56500000D01*
X110570395Y-56500000D01*
X109258347Y-55187952D01*
X108942786Y-55343962D01*
X108751980Y-55718745D01*
X108637956Y-56123551D01*
X108605098Y-56542824D01*
X100660000Y-56542824D01*
X100660000Y-54018773D01*
X100855377Y-54018773D01*
X100855377Y-54441227D01*
X100937794Y-54855563D01*
X101099460Y-55245860D01*
X101334162Y-55597118D01*
X101632882Y-55895838D01*
X101984140Y-56130540D01*
X102374437Y-56292206D01*
X102788773Y-56374623D01*
X103211227Y-56374623D01*
X103625563Y-56292206D01*
X104015860Y-56130540D01*
X104367118Y-55895838D01*
X104665838Y-55597118D01*
X104900540Y-55245860D01*
X104998920Y-55008347D01*
X109437952Y-55008347D01*
X110750000Y-56320395D01*
X112062048Y-55008347D01*
X111906038Y-54692786D01*
X111531255Y-54501980D01*
X111126449Y-54387956D01*
X110707176Y-54355098D01*
X110289549Y-54404666D01*
X109889617Y-54534757D01*
X109593962Y-54692786D01*
X109437952Y-55008347D01*
X104998920Y-55008347D01*
X105062206Y-54855563D01*
X105144623Y-54441227D01*
X105144623Y-54018773D01*
X177855377Y-54018773D01*
X177855377Y-54441227D01*
X177937794Y-54855563D01*
X178099460Y-55245860D01*
X178334162Y-55597118D01*
X178632882Y-55895838D01*
X178984140Y-56130540D01*
X179374437Y-56292206D01*
X179788773Y-56374623D01*
X180211227Y-56374623D01*
X180625563Y-56292206D01*
X181015860Y-56130540D01*
X181367118Y-55895838D01*
X181665838Y-55597118D01*
X181900540Y-55245860D01*
X182062206Y-54855563D01*
X182144623Y-54441227D01*
X182144623Y-54018773D01*
X182062206Y-53604437D01*
X181900540Y-53214140D01*
X181665838Y-52862882D01*
X181367118Y-52564162D01*
X181015860Y-52329460D01*
X180625563Y-52167794D01*
X180211227Y-52085377D01*
X179788773Y-52085377D01*
X179374437Y-52167794D01*
X178984140Y-52329460D01*
X178632882Y-52564162D01*
X178334162Y-52862882D01*
X178099460Y-53214140D01*
X177937794Y-53604437D01*
X177855377Y-54018773D01*
X105144623Y-54018773D01*
X105062206Y-53604437D01*
X104900540Y-53214140D01*
X104665838Y-52862882D01*
X104367118Y-52564162D01*
X104015860Y-52329460D01*
X103625563Y-52167794D01*
X103211227Y-52085377D01*
X102788773Y-52085377D01*
X102374437Y-52167794D01*
X101984140Y-52329460D01*
X101632882Y-52564162D01*
X101334162Y-52862882D01*
X101099460Y-53214140D01*
X100937794Y-53604437D01*
X100855377Y-54018773D01*
X100660000Y-54018773D01*
X100660000Y-50410000D01*
X182340001Y-50410000D01*
X182340000Y-147090000D01*
G37*
%TD.AperFunction*%
%TD*%
M02*
