%TF.GenerationSoftware,KiCad,Pcbnew,(5.1.10)-1*%
%TF.CreationDate,2022-05-08T17:07:42-07:00*%
%TF.ProjectId,solar-panel-side+XY,736f6c61-722d-4706-916e-656c2d736964,1.0*%
%TF.SameCoordinates,Original*%
%TF.FileFunction,Profile,NP*%
%FSLAX46Y46*%
G04 Gerber Fmt 4.6, Leading zero omitted, Abs format (unit mm)*
G04 Created by KiCad (PCBNEW (5.1.10)-1) date 2022-05-08 17:07:42*
%MOMM*%
%LPD*%
G01*
G04 APERTURE LIST*
%TA.AperFunction,Profile*%
%ADD10C,0.050000*%
%TD*%
G04 APERTURE END LIST*
D10*
X126500000Y-83750000D02*
X126500000Y-71750000D01*
X156500000Y-83750000D02*
X126500000Y-83750000D01*
X156500000Y-71750000D02*
X156500000Y-83750000D01*
X126500000Y-71750000D02*
X156500000Y-71750000D01*
X149150000Y-136930000D02*
G75*
G02*
X143850000Y-136930000I-2650000J0D01*
G01*
X143850000Y-130930000D02*
G75*
G02*
X149150000Y-130930000I2650000J0D01*
G01*
X139150000Y-136930000D02*
G75*
G02*
X133850000Y-136930000I-2650000J0D01*
G01*
X133850000Y-130930000D02*
G75*
G02*
X139150000Y-130930000I2650000J0D01*
G01*
X149150000Y-66530000D02*
G75*
G02*
X143850000Y-66530000I-2650000J0D01*
G01*
X143850000Y-60530000D02*
G75*
G02*
X149150000Y-60530000I2650000J0D01*
G01*
X139150000Y-66530000D02*
G75*
G02*
X133850000Y-66530000I-2650000J0D01*
G01*
X133850000Y-60530000D02*
G75*
G02*
X139150000Y-60530000I2650000J0D01*
G01*
X149150000Y-136930000D02*
X149150000Y-130930000D01*
X143850000Y-130930000D02*
X143850000Y-136930000D01*
X139150000Y-136930000D02*
X139150000Y-130930000D01*
X133850000Y-130930000D02*
X133850000Y-136930000D01*
X149150000Y-60530000D02*
X149150000Y-66530000D01*
X143850000Y-60530000D02*
X143850000Y-66530000D01*
X139150000Y-60530000D02*
X139150000Y-66530000D01*
X133850000Y-66530000D02*
X133850000Y-60530000D01*
X180125000Y-98580000D02*
G75*
G03*
X180125000Y-98580000I-2625000J0D01*
G01*
X180125000Y-126080000D02*
G75*
G03*
X180125000Y-126080000I-2625000J0D01*
G01*
X108125000Y-126080000D02*
G75*
G03*
X108125000Y-126080000I-2625000J0D01*
G01*
X108125000Y-98580000D02*
G75*
G03*
X108125000Y-98580000I-2625000J0D01*
G01*
X181475000Y-54230000D02*
G75*
G03*
X181475000Y-54230000I-1475000J0D01*
G01*
X104475000Y-54230000D02*
G75*
G03*
X104475000Y-54230000I-1475000J0D01*
G01*
X104475000Y-143230000D02*
G75*
G03*
X104475000Y-143230000I-1475000J0D01*
G01*
X181475000Y-143230000D02*
G75*
G03*
X181475000Y-143230000I-1475000J0D01*
G01*
X183000000Y-49750000D02*
X100000000Y-49750000D01*
X183000000Y-147750000D02*
X183000000Y-49750000D01*
X100000000Y-147750000D02*
X183000000Y-147750000D01*
X100000000Y-49750000D02*
X100000000Y-147750000D01*
M02*
