%TF.GenerationSoftware,KiCad,Pcbnew,(5.1.10)-1*%
%TF.CreationDate,2022-05-08T17:07:42-07:00*%
%TF.ProjectId,solar-panel-side+XY,736f6c61-722d-4706-916e-656c2d736964,1.0*%
%TF.SameCoordinates,Original*%
%TF.FileFunction,Paste,Top*%
%TF.FilePolarity,Positive*%
%FSLAX46Y46*%
G04 Gerber Fmt 4.6, Leading zero omitted, Abs format (unit mm)*
G04 Created by KiCad (PCBNEW (5.1.10)-1) date 2022-05-08 17:07:42*
%MOMM*%
%LPD*%
G01*
G04 APERTURE LIST*
%ADD10R,1.700000X2.500000*%
%ADD11C,4.000000*%
%ADD12C,2.000000*%
G04 APERTURE END LIST*
D10*
%TO.C,D3*%
X157750000Y-90000000D03*
X157750000Y-94000000D03*
%TD*%
%TO.C,D2*%
X157750000Y-105500000D03*
X157750000Y-101500000D03*
%TD*%
%TO.C,D1*%
X125500000Y-89000000D03*
X125500000Y-93000000D03*
%TD*%
D11*
%TO.C,U3*%
X148870000Y-120060000D03*
X133630000Y-120060000D03*
D12*
X145060000Y-112186000D03*
X142520000Y-112186000D03*
X150140000Y-112186000D03*
X147600000Y-112186000D03*
X132360000Y-112186000D03*
X134900000Y-112186000D03*
X137440000Y-112186000D03*
X139980000Y-112186000D03*
%TD*%
%TO.C,U2*%
X137690000Y-105640000D03*
X135150000Y-105640000D03*
D11*
X131340000Y-105640000D03*
D12*
X147850000Y-105640000D03*
D11*
X151660000Y-105640000D03*
D12*
X145310000Y-105640000D03*
X142770000Y-105640000D03*
X140230000Y-105640000D03*
D11*
X151660000Y-87860000D03*
D12*
X145310000Y-87860000D03*
X142770000Y-87860000D03*
X147850000Y-87860000D03*
X135150000Y-87860000D03*
X137690000Y-87860000D03*
X140230000Y-87860000D03*
D11*
X131340000Y-87860000D03*
%TD*%
%TO.C,U1*%
X151660000Y-139350000D03*
X131340000Y-139350000D03*
X151660000Y-126650000D03*
D12*
X145310000Y-126650000D03*
X142770000Y-126650000D03*
X147850000Y-126650000D03*
X135150000Y-126650000D03*
X137690000Y-126650000D03*
X140230000Y-126650000D03*
D11*
X131340000Y-126650000D03*
%TD*%
M02*
