M48
; DRILL file {KiCad (5.1.10)-1} date 04/02/22 16:10:03
; FORMAT={-:-/ absolute / inch / decimal}
; #@! TF.CreationDate,2022-04-02T16:10:03-07:00
; #@! TF.GenerationSoftware,Kicad,Pcbnew,(5.1.10)-1
; #@! TF.FileFunction,Plated,1,2,PTH
FMAT,2
INCH
T1C0.0157
T2C0.0394
T3C0.0787
%
G90
G05
T1
X5.0098Y-3.5925
T2
X5.0098Y-3.9815
X5.0098Y-4.0815
X5.0098Y-4.1815
X5.0098Y-4.2815
T3
X4.1142Y-3.2382
X4.1142Y-4.5571
X4.4685Y-3.2382
X4.4685Y-4.5571
X4.7736Y-3.7205
X4.7736Y-4.0748
X5.0Y-3.2382
X5.0Y-4.5571
X5.3543Y-3.2382
X5.3543Y-4.5571
X5.5807Y-3.7205
X5.5807Y-4.0748
X5.8858Y-3.2382
X5.8858Y-4.5571
X6.2402Y-3.2382
X6.2402Y-4.5571
T0
M30
