%TF.GenerationSoftware,KiCad,Pcbnew,(6.0.7)*%
%TF.CreationDate,2023-03-28T19:52:52-07:00*%
%TF.ProjectId,solar-panel-NoCutout,736f6c61-722d-4706-916e-656c2d4e6f43,3.0*%
%TF.SameCoordinates,Original*%
%TF.FileFunction,Profile,NP*%
%FSLAX46Y46*%
G04 Gerber Fmt 4.6, Leading zero omitted, Abs format (unit mm)*
G04 Created by KiCad (PCBNEW (6.0.7)) date 2023-03-28 19:52:52*
%MOMM*%
%LPD*%
G01*
G04 APERTURE LIST*
%TA.AperFunction,Profile*%
%ADD10C,0.050000*%
%TD*%
G04 APERTURE END LIST*
D10*
X111240000Y-77570000D02*
X111240000Y-105945000D01*
X109650000Y-108545000D02*
X111240000Y-105945000D01*
X111240000Y-123595000D02*
X111240000Y-151970000D01*
X109650000Y-120995000D02*
X111240000Y-123595000D01*
X109650000Y-108545000D02*
X109650000Y-120995000D01*
X177760000Y-123600000D02*
X177760000Y-151975000D01*
X177760000Y-123600000D02*
X179350000Y-121000000D01*
X177760000Y-105950000D02*
X179350000Y-108550000D01*
X177760000Y-77575000D02*
X177760000Y-105950000D01*
X179350000Y-108550000D02*
X179350000Y-121000000D01*
X136850000Y-153000000D02*
X136850000Y-147000000D01*
X142150000Y-153000000D02*
X142150000Y-147000000D01*
X146850000Y-147000000D02*
X146850000Y-153000000D01*
X152150000Y-153000000D02*
X152150000Y-147000000D01*
X142150000Y-76600000D02*
X142150000Y-82600000D01*
X136850000Y-76600000D02*
X136850000Y-82600000D01*
X146850000Y-76600000D02*
X146850000Y-82600000D01*
X152150000Y-76600000D02*
X152150000Y-82600000D01*
X186000000Y-65750000D02*
X103000000Y-65750000D01*
X108580000Y-74920000D02*
X103000000Y-74920000D01*
X111240038Y-77570000D02*
G75*
G03*
X108580000Y-74920000I-2645038J5000D01*
G01*
X103000000Y-65750000D02*
X103000000Y-74920000D01*
X103000000Y-154620000D02*
X103000000Y-163750000D01*
X136850000Y-82600000D02*
G75*
G03*
X142150000Y-82600000I2650000J0D01*
G01*
X186000000Y-74925000D02*
X180420000Y-74925000D01*
X152150000Y-76600000D02*
G75*
G03*
X146850000Y-76600000I-2650000J0D01*
G01*
X186000000Y-74925000D02*
X186000000Y-65750000D01*
X142150000Y-76600000D02*
G75*
G03*
X136850000Y-76600000I-2650000J0D01*
G01*
X103000000Y-163750000D02*
X186000000Y-163750000D01*
X142150000Y-147000000D02*
G75*
G03*
X136850000Y-147000000I-2650000J0D01*
G01*
X186000000Y-163750000D02*
X186000000Y-154625000D01*
X136850000Y-153000000D02*
G75*
G03*
X142150000Y-153000000I2650000J0D01*
G01*
X180420000Y-74924938D02*
G75*
G03*
X177760000Y-77575000I-15000J-2644962D01*
G01*
X152150000Y-147000000D02*
G75*
G03*
X146850000Y-147000000I-2650000J0D01*
G01*
X108580000Y-154620063D02*
G75*
G03*
X111240000Y-151970000I14900J2645063D01*
G01*
X146850000Y-153000000D02*
G75*
G03*
X152150000Y-153000000I2650000J0D01*
G01*
X177760063Y-151975000D02*
G75*
G03*
X180420000Y-154625000I2645037J-5000D01*
G01*
X103000000Y-154620000D02*
X108580000Y-154620000D01*
X146850000Y-82600000D02*
G75*
G03*
X152150000Y-82600000I2650000J0D01*
G01*
X180420000Y-154625000D02*
X186000000Y-154625000D01*
M02*
