%TF.GenerationSoftware,KiCad,Pcbnew,(6.0.9)*%
%TF.CreationDate,2023-01-30T21:02:38-08:00*%
%TF.ProjectId,solar-panel-side-Z,736f6c61-722d-4706-916e-656c2d736964,2.0*%
%TF.SameCoordinates,Original*%
%TF.FileFunction,Copper,L1,Top*%
%TF.FilePolarity,Positive*%
%FSLAX46Y46*%
G04 Gerber Fmt 4.6, Leading zero omitted, Abs format (unit mm)*
G04 Created by KiCad (PCBNEW (6.0.9)) date 2023-01-30 21:02:38*
%MOMM*%
%LPD*%
G01*
G04 APERTURE LIST*
G04 Aperture macros list*
%AMRoundRect*
0 Rectangle with rounded corners*
0 $1 Rounding radius*
0 $2 $3 $4 $5 $6 $7 $8 $9 X,Y pos of 4 corners*
0 Add a 4 corners polygon primitive as box body*
4,1,4,$2,$3,$4,$5,$6,$7,$8,$9,$2,$3,0*
0 Add four circle primitives for the rounded corners*
1,1,$1+$1,$2,$3*
1,1,$1+$1,$4,$5*
1,1,$1+$1,$6,$7*
1,1,$1+$1,$8,$9*
0 Add four rect primitives between the rounded corners*
20,1,$1+$1,$2,$3,$4,$5,0*
20,1,$1+$1,$4,$5,$6,$7,0*
20,1,$1+$1,$6,$7,$8,$9,0*
20,1,$1+$1,$8,$9,$2,$3,0*%
G04 Aperture macros list end*
%TA.AperFunction,Profile*%
%ADD10C,0.050000*%
%TD*%
%TA.AperFunction,ComponentPad*%
%ADD11C,5.250000*%
%TD*%
%TA.AperFunction,SMDPad,CuDef*%
%ADD12R,2.500000X1.700000*%
%TD*%
%TA.AperFunction,SMDPad,CuDef*%
%ADD13RoundRect,0.750000X-0.750000X-0.750000X0.750000X-0.750000X0.750000X0.750000X-0.750000X0.750000X0*%
%TD*%
%TA.AperFunction,SMDPad,CuDef*%
%ADD14RoundRect,0.250000X0.250000X0.475000X-0.250000X0.475000X-0.250000X-0.475000X0.250000X-0.475000X0*%
%TD*%
%TA.AperFunction,SMDPad,CuDef*%
%ADD15RoundRect,0.250000X0.475000X-0.250000X0.475000X0.250000X-0.475000X0.250000X-0.475000X-0.250000X0*%
%TD*%
%TA.AperFunction,SMDPad,CuDef*%
%ADD16RoundRect,0.200000X0.275000X-0.200000X0.275000X0.200000X-0.275000X0.200000X-0.275000X-0.200000X0*%
%TD*%
%TA.AperFunction,SMDPad,CuDef*%
%ADD17R,0.750000X0.300000*%
%TD*%
%TA.AperFunction,SMDPad,CuDef*%
%ADD18R,1.750000X1.450000*%
%TD*%
%TA.AperFunction,SMDPad,CuDef*%
%ADD19R,3.000000X13.000000*%
%TD*%
%TA.AperFunction,SMDPad,CuDef*%
%ADD20R,13.000000X3.000000*%
%TD*%
%TA.AperFunction,SMDPad,CuDef*%
%ADD21R,0.600000X0.720000*%
%TD*%
%TA.AperFunction,SMDPad,CuDef*%
%ADD22RoundRect,0.075000X-0.650000X-0.075000X0.650000X-0.075000X0.650000X0.075000X-0.650000X0.075000X0*%
%TD*%
%TA.AperFunction,SMDPad,CuDef*%
%ADD23R,1.700000X2.500000*%
%TD*%
%TA.AperFunction,ComponentPad*%
%ADD24C,1.800000*%
%TD*%
%TA.AperFunction,ViaPad*%
%ADD25C,0.800000*%
%TD*%
%TA.AperFunction,ViaPad*%
%ADD26C,0.450000*%
%TD*%
%TA.AperFunction,Conductor*%
%ADD27C,0.250000*%
%TD*%
%TA.AperFunction,Conductor*%
%ADD28C,0.500000*%
%TD*%
G04 APERTURE END LIST*
D10*
X99500000Y-45500000D02*
X110000000Y-45500000D01*
X189000000Y-135000000D02*
X110000000Y-135000000D01*
X199500000Y-124500000D02*
X189000000Y-124500000D01*
X189000000Y-45500000D02*
X199500000Y-45500000D01*
X99500000Y-124500000D02*
X99500000Y-45500000D01*
X110000000Y-135000000D02*
X110000000Y-124500000D01*
X110000000Y-35000000D02*
X189000000Y-35000000D01*
X110000000Y-124500000D02*
X99500000Y-124500000D01*
X199500000Y-45500000D02*
X199500000Y-124500000D01*
X189000000Y-35000000D02*
X189000000Y-45500000D01*
X110000000Y-45500000D02*
X110000000Y-35000000D01*
X189000000Y-124500000D02*
X189000000Y-135000000D01*
D11*
%TO.P,J3,1,Pin_1*%
%TO.N,unconnected-(J3-Pad1)*%
X110500000Y-85000000D03*
%TD*%
%TO.P,J4,1,Pin_1*%
%TO.N,unconnected-(J4-Pad1)*%
X141750000Y-124000000D03*
%TD*%
%TO.P,J5,1,Pin_1*%
%TO.N,unconnected-(J5-Pad1)*%
X157250000Y-46000000D03*
%TD*%
%TO.P,J6,1,Pin_1*%
%TO.N,unconnected-(J6-Pad1)*%
X188500000Y-85000000D03*
%TD*%
D12*
%TO.P,D3,1,K*%
%TO.N,VSOLAR*%
X141590000Y-107770000D03*
%TO.P,D3,2,A*%
%TO.N,Net-(D3-Pad2)*%
X137590000Y-107770000D03*
%TD*%
D13*
%TO.P,TP1,1,1*%
%TO.N,VSOLAR*%
X104050000Y-106110000D03*
%TD*%
D14*
%TO.P,C5,1*%
%TO.N,Net-(C5-Pad1)*%
X148430000Y-98750000D03*
%TO.P,C5,2*%
%TO.N,GND*%
X146530000Y-98750000D03*
%TD*%
D15*
%TO.P,C4,1*%
%TO.N,GND*%
X155075000Y-72510000D03*
%TO.P,C4,2*%
%TO.N,+3V3*%
X155075000Y-70610000D03*
%TD*%
D16*
%TO.P,R7,1*%
%TO.N,+3V3*%
X135630000Y-102230000D03*
%TO.P,R7,2*%
%TO.N,SDA*%
X135630000Y-100580000D03*
%TD*%
D17*
%TO.P,U3,1,SDA*%
%TO.N,SDA*%
X151780000Y-66080000D03*
%TO.P,U3,2,SCL*%
%TO.N,SCL*%
X151780000Y-66580000D03*
%TO.P,U3,3,Alert*%
%TO.N,unconnected-(U3-Pad3)*%
X151780000Y-67080000D03*
%TO.P,U3,4,GND*%
%TO.N,GND*%
X151780000Y-67580000D03*
%TO.P,U3,5,A2*%
X154680000Y-67580000D03*
%TO.P,U3,6,A1*%
X154680000Y-67080000D03*
%TO.P,U3,7,A0*%
X154680000Y-66580000D03*
%TO.P,U3,8,VDD*%
%TO.N,+3V3*%
X154680000Y-66080000D03*
D18*
%TO.P,U3,9,EP/GND*%
%TO.N,GND*%
X153230000Y-66830000D03*
%TD*%
D19*
%TO.P,SC5,1,+*%
%TO.N,Net-(D4-Pad2)*%
X146930000Y-123240000D03*
%TO.P,SC5,2,-*%
%TO.N,Net-(SC5-Pad2)*%
X186930000Y-123240000D03*
%TD*%
D13*
%TO.P,TP2,1,1*%
%TO.N,GND*%
X104080000Y-112590000D03*
%TD*%
D20*
%TO.P,SC3,1,+*%
%TO.N,Net-(D3-Pad2)*%
X121720000Y-133090000D03*
%TO.P,SC3,2,-*%
%TO.N,Net-(SC3-Pad2)*%
X121720000Y-93090000D03*
%TD*%
D21*
%TO.P,U1,1,SDA*%
%TO.N,SDA*%
X151240000Y-74905000D03*
%TO.P,U1,2,INT*%
%TO.N,unconnected-(U1-Pad2)*%
X151240000Y-73935000D03*
%TO.P,U1,3,LDR*%
%TO.N,Net-(U1-Pad3)*%
X151240000Y-72965000D03*
%TO.P,U1,4,LEDK*%
X151240000Y-71995000D03*
%TO.P,U1,5,LEDA*%
%TO.N,+3V3*%
X152640000Y-71995000D03*
%TO.P,U1,6,GND*%
%TO.N,GND*%
X152640000Y-72965000D03*
%TO.P,U1,7,SCL*%
%TO.N,SCL*%
X152640000Y-73935000D03*
%TO.P,U1,8,VDD*%
%TO.N,+3V3*%
X152640000Y-74905000D03*
%TD*%
D14*
%TO.P,C3,1*%
%TO.N,+3V3*%
X148460000Y-104540000D03*
%TO.P,C3,2*%
%TO.N,GND*%
X146560000Y-104540000D03*
%TD*%
D22*
%TO.P,U2,1,REG*%
%TO.N,Net-(C5-Pad1)*%
X148440000Y-100610000D03*
%TO.P,U2,2,SCL*%
%TO.N,SCL*%
X148440000Y-101110000D03*
%TO.P,U2,3,SDA*%
%TO.N,SDA*%
X148440000Y-101610000D03*
%TO.P,U2,4,IN/TRIG*%
%TO.N,GND*%
X148440000Y-102110000D03*
%TO.P,U2,5,EN*%
%TO.N,+3V3*%
X148440000Y-102610000D03*
%TO.P,U2,6,VDD/NC*%
%TO.N,unconnected-(U2-Pad6)*%
X152840000Y-102610000D03*
%TO.P,U2,7,OUT+*%
%TO.N,Net-(U2-Pad7)*%
X152840000Y-102110000D03*
%TO.P,U2,8,GND*%
%TO.N,GND*%
X152840000Y-101610000D03*
%TO.P,U2,9,OUT-*%
%TO.N,Net-(U2-Pad7)*%
X152840000Y-101110000D03*
%TO.P,U2,10,VDD*%
%TO.N,+3V3*%
X152840000Y-100610000D03*
%TD*%
D12*
%TO.P,D4,1,K*%
%TO.N,VSOLAR*%
X137680000Y-113090000D03*
%TO.P,D4,2,A*%
%TO.N,Net-(D4-Pad2)*%
X141680000Y-113090000D03*
%TD*%
D14*
%TO.P,C2,1*%
%TO.N,+3V3*%
X154500000Y-64285000D03*
%TO.P,C2,2*%
%TO.N,GND*%
X152600000Y-64285000D03*
%TD*%
D16*
%TO.P,R2,1*%
%TO.N,+3V3*%
X137320000Y-102220000D03*
%TO.P,R2,2*%
%TO.N,SCL*%
X137320000Y-100570000D03*
%TD*%
D19*
%TO.P,SC4,1,+*%
%TO.N,Net-(SC3-Pad2)*%
X101620000Y-69850000D03*
%TO.P,SC4,2,-*%
%TO.N,GND*%
X141620000Y-69850000D03*
%TD*%
%TO.P,SC6,1,+*%
%TO.N,Net-(SC5-Pad2)*%
X197440000Y-99920000D03*
%TO.P,SC6,2,-*%
%TO.N,GND*%
X157440000Y-99920000D03*
%TD*%
D15*
%TO.P,C1,1*%
%TO.N,+3V3*%
X155075000Y-76070000D03*
%TO.P,C1,2*%
%TO.N,GND*%
X155075000Y-74170000D03*
%TD*%
D20*
%TO.P,SC2,1,+*%
%TO.N,Net-(SC1-Pad2)*%
X176760000Y-36940000D03*
%TO.P,SC2,2,-*%
%TO.N,GND*%
X176760000Y-76940000D03*
%TD*%
D23*
%TO.P,D2,1,K*%
%TO.N,VSOLAR*%
X105650000Y-54590000D03*
%TO.P,D2,2,A*%
%TO.N,Net-(D2-Pad2)*%
X105650000Y-50590000D03*
%TD*%
D19*
%TO.P,SC1,1,+*%
%TO.N,Net-(D2-Pad2)*%
X111870000Y-46630000D03*
%TO.P,SC1,2,-*%
%TO.N,Net-(SC1-Pad2)*%
X151870000Y-46630000D03*
%TD*%
D24*
%TO.P,J2,1,Pin_1*%
%TO.N,Net-(FB2-Pad1)*%
X150689922Y-83020000D03*
%TO.P,J2,2,Pin_2*%
%TO.N,Net-(FB1-Pad1)*%
X150689922Y-86520000D03*
%TD*%
D25*
%TO.N,GND*%
X107150000Y-112590000D03*
D26*
X172770000Y-85950000D03*
X173710000Y-85030000D03*
D25*
X149060000Y-96220000D03*
D26*
X173690000Y-85950000D03*
D25*
X157310000Y-72510000D03*
D26*
X172860000Y-84120000D03*
X173760000Y-84100000D03*
D25*
X145330000Y-69850000D03*
X144270000Y-99550000D03*
D26*
X171850000Y-85030000D03*
X171840000Y-84130000D03*
D25*
X167400000Y-76940000D03*
D26*
X171845000Y-85955000D03*
X172830000Y-85030000D03*
D25*
X153500000Y-68760000D03*
%TO.N,+3V3*%
X159299922Y-84780000D03*
X141210000Y-95190000D03*
X150340000Y-102880000D03*
X171980000Y-81020000D03*
X164009922Y-85100000D03*
X154250000Y-99940000D03*
X138815000Y-101955000D03*
%TO.N,VSOLAR*%
X141590000Y-102830000D03*
%TO.N,SDA*%
X135670000Y-98200000D03*
X150940000Y-100960000D03*
X143340000Y-88410000D03*
%TO.N,SCL*%
X143775000Y-89605000D03*
X137270000Y-98240000D03*
X150070000Y-100390000D03*
%TO.N,Net-(D1-Pad3)*%
X161239922Y-83380000D03*
X159309922Y-81070000D03*
%TO.N,VSense*%
X162404922Y-81085000D03*
X165349922Y-85060000D03*
%TO.N,Net-(U2-Pad7)*%
X151020000Y-121610000D03*
X150850000Y-109290000D03*
X151910000Y-121620000D03*
%TD*%
D27*
%TO.N,GND*%
X153480000Y-67080000D02*
X153230000Y-66830000D01*
D28*
X153740000Y-96220000D02*
X149060000Y-96220000D01*
D27*
X153230000Y-68490000D02*
X153500000Y-68760000D01*
D28*
X149060000Y-96220000D02*
X146530000Y-98750000D01*
D27*
X152480000Y-67580000D02*
X153230000Y-66830000D01*
X146560000Y-104540000D02*
X146530000Y-104510000D01*
X146530000Y-101400000D02*
X146530000Y-98750000D01*
D28*
X141620000Y-69850000D02*
X145330000Y-69850000D01*
D27*
X153230000Y-66830000D02*
X153230000Y-68490000D01*
X154620000Y-72965000D02*
X155075000Y-72510000D01*
X147260000Y-102130000D02*
X146530000Y-101400000D01*
X152049315Y-101610000D02*
X152840000Y-101610000D01*
X154680000Y-67580000D02*
X154680000Y-66580000D01*
X154680000Y-67080000D02*
X153480000Y-67080000D01*
X153230000Y-66830000D02*
X153230000Y-64915000D01*
X148440000Y-102110000D02*
X151549315Y-102110000D01*
X148440000Y-102110000D02*
X148420000Y-102130000D01*
X151780000Y-67580000D02*
X152480000Y-67580000D01*
D28*
X157440000Y-99920000D02*
X153740000Y-96220000D01*
D27*
X146530000Y-98750000D02*
X145070000Y-98750000D01*
X151549315Y-102110000D02*
X152049315Y-101610000D01*
D28*
X104080000Y-112590000D02*
X107150000Y-112590000D01*
D27*
X146530000Y-104510000D02*
X146530000Y-101400000D01*
X155075000Y-74170000D02*
X155075000Y-72510000D01*
X145070000Y-98750000D02*
X144270000Y-99550000D01*
X155075000Y-72510000D02*
X157310000Y-72510000D01*
X153230000Y-64915000D02*
X152600000Y-64285000D01*
D28*
X176760000Y-76940000D02*
X167400000Y-76940000D01*
D27*
X152640000Y-72965000D02*
X154620000Y-72965000D01*
X148420000Y-102130000D02*
X147260000Y-102130000D01*
%TO.N,+3V3*%
X152840000Y-100610000D02*
X153580000Y-100610000D01*
X148440000Y-102610000D02*
X150070000Y-102610000D01*
X154680000Y-64465000D02*
X154500000Y-64285000D01*
X155075000Y-76070000D02*
X153910000Y-74905000D01*
D28*
X138815000Y-101955000D02*
X138900000Y-101870000D01*
D27*
X155105000Y-76100000D02*
X155075000Y-76070000D01*
X148460000Y-104540000D02*
X148460000Y-102630000D01*
D28*
X135630000Y-102230000D02*
X138540000Y-102230000D01*
D27*
X152640000Y-71995000D02*
X153690000Y-71995000D01*
X164009922Y-85100000D02*
X163689922Y-84780000D01*
X153910000Y-74905000D02*
X152640000Y-74905000D01*
X150070000Y-102610000D02*
X150340000Y-102880000D01*
X163689922Y-84780000D02*
X159299922Y-84780000D01*
X154680000Y-66080000D02*
X154680000Y-64465000D01*
X148460000Y-102630000D02*
X148440000Y-102610000D01*
X153690000Y-71995000D02*
X155075000Y-70610000D01*
X153580000Y-100610000D02*
X154250000Y-99940000D01*
D28*
X138540000Y-102230000D02*
X138815000Y-101955000D01*
%TO.N,VSOLAR*%
X105650000Y-54590000D02*
X105650000Y-84498707D01*
X105650000Y-84498707D02*
X111331293Y-90180000D01*
X141590000Y-102830000D02*
X141340000Y-103080000D01*
X137680000Y-111680000D02*
X141590000Y-107770000D01*
X137680000Y-113090000D02*
X137680000Y-111680000D01*
X107080000Y-103080000D02*
X104050000Y-106110000D01*
X132230000Y-90180000D02*
X141590000Y-99540000D01*
X141340000Y-103080000D02*
X107080000Y-103080000D01*
X111331293Y-90180000D02*
X132230000Y-90180000D01*
X141590000Y-107770000D02*
X141590000Y-102830000D01*
X141590000Y-99540000D02*
X141590000Y-102830000D01*
D27*
%TO.N,SDA*%
X150968604Y-66080000D02*
X150090000Y-66958604D01*
X143330000Y-83670000D02*
X143330000Y-88430000D01*
X150090000Y-66958604D02*
X150090000Y-74320000D01*
X151780000Y-66080000D02*
X150968604Y-66080000D01*
X135670000Y-98200000D02*
X135670000Y-100540000D01*
X151240000Y-74905000D02*
X151240000Y-75760000D01*
X150290000Y-101610000D02*
X150940000Y-100960000D01*
X151240000Y-75760000D02*
X143330000Y-83670000D01*
X150090000Y-74320000D02*
X150675000Y-74905000D01*
X148440000Y-101610000D02*
X150290000Y-101610000D01*
X150675000Y-74905000D02*
X151240000Y-74905000D01*
X135670000Y-100540000D02*
X135630000Y-100580000D01*
%TO.N,SCL*%
X150860000Y-67990000D02*
X150860000Y-66825000D01*
X148440000Y-101110000D02*
X149350000Y-101110000D01*
X151960000Y-76820000D02*
X144420000Y-84360000D01*
X152640000Y-73935000D02*
X152090000Y-73935000D01*
X137270000Y-100520000D02*
X137320000Y-100570000D01*
X150860000Y-66825000D02*
X151105000Y-66580000D01*
X151960000Y-74065000D02*
X151960000Y-76820000D01*
X137270000Y-98240000D02*
X137270000Y-100520000D01*
X144420000Y-88960000D02*
X143775000Y-89605000D01*
X151865000Y-73710000D02*
X151865000Y-68995000D01*
X149350000Y-101110000D02*
X150070000Y-100390000D01*
X144420000Y-84360000D02*
X144420000Y-88960000D01*
X151105000Y-66580000D02*
X151780000Y-66580000D01*
X151865000Y-68995000D02*
X150860000Y-67990000D01*
X152090000Y-73935000D02*
X151960000Y-74065000D01*
X152090000Y-73935000D02*
X151865000Y-73710000D01*
%TO.N,Net-(C5-Pad1)*%
X148440000Y-98760000D02*
X148430000Y-98750000D01*
X148440000Y-100610000D02*
X148440000Y-98760000D01*
%TO.N,Net-(D1-Pad3)*%
X161239922Y-83380000D02*
X159309922Y-81450000D01*
X159309922Y-81450000D02*
X159309922Y-81070000D01*
%TO.N,VSense*%
X165349922Y-84030000D02*
X162404922Y-81085000D01*
X165349922Y-85060000D02*
X165349922Y-84030000D01*
D28*
%TO.N,Net-(D2-Pad2)*%
X111870000Y-46630000D02*
X109610000Y-46630000D01*
X109610000Y-46630000D02*
X105650000Y-50590000D01*
%TO.N,Net-(D3-Pad2)*%
X121720000Y-123640000D02*
X121720000Y-133090000D01*
X137590000Y-107770000D02*
X121720000Y-123640000D01*
%TO.N,Net-(D4-Pad2)*%
X141680000Y-117990000D02*
X141680000Y-113090000D01*
X146930000Y-123240000D02*
X141680000Y-117990000D01*
%TO.N,Net-(SC1-Pad2)*%
X151870000Y-46630000D02*
X151870000Y-41410000D01*
X151870000Y-41410000D02*
X156340000Y-36940000D01*
X156340000Y-36940000D02*
X176760000Y-36940000D01*
%TO.N,Net-(SC3-Pad2)*%
X101620000Y-86410000D02*
X108300000Y-93090000D01*
X101620000Y-69850000D02*
X101620000Y-86410000D01*
X108300000Y-93090000D02*
X121720000Y-93090000D01*
%TO.N,Net-(SC5-Pad2)*%
X197440000Y-112730000D02*
X186930000Y-123240000D01*
X197440000Y-99920000D02*
X197440000Y-112730000D01*
D27*
%TO.N,Net-(U1-Pad3)*%
X151240000Y-71995000D02*
X151240000Y-72965000D01*
%TO.N,Net-(U2-Pad7)*%
X153630685Y-102110000D02*
X154550000Y-103029315D01*
X154550000Y-103029315D02*
X154550000Y-118080000D01*
X154550000Y-118080000D02*
X151020000Y-121610000D01*
X155150000Y-118380000D02*
X151910000Y-121620000D01*
X155150000Y-102610000D02*
X155150000Y-118380000D01*
X152840000Y-102110000D02*
X153630685Y-102110000D01*
X152840000Y-101110000D02*
X153650000Y-101110000D01*
X153650000Y-101110000D02*
X155150000Y-102610000D01*
%TD*%
%TA.AperFunction,Conductor*%
%TO.N,+3V3*%
G36*
X100803621Y-76878502D02*
G01*
X100850114Y-76932158D01*
X100861500Y-76984500D01*
X100861500Y-86342930D01*
X100860067Y-86361880D01*
X100856801Y-86383349D01*
X100857394Y-86390641D01*
X100857394Y-86390644D01*
X100861085Y-86436018D01*
X100861500Y-86446233D01*
X100861500Y-86454293D01*
X100861925Y-86457937D01*
X100864789Y-86482507D01*
X100865222Y-86486882D01*
X100869783Y-86542951D01*
X100871140Y-86559637D01*
X100873396Y-86566601D01*
X100874587Y-86572560D01*
X100875971Y-86578415D01*
X100876818Y-86585681D01*
X100901735Y-86654327D01*
X100903152Y-86658455D01*
X100912717Y-86687979D01*
X100925649Y-86727899D01*
X100929445Y-86734154D01*
X100931951Y-86739628D01*
X100934670Y-86745058D01*
X100937167Y-86751937D01*
X100941180Y-86758057D01*
X100941180Y-86758058D01*
X100977186Y-86812976D01*
X100979523Y-86816680D01*
X101017405Y-86879107D01*
X101021121Y-86883315D01*
X101021122Y-86883316D01*
X101024803Y-86887484D01*
X101024776Y-86887508D01*
X101027429Y-86890500D01*
X101030132Y-86893733D01*
X101034144Y-86899852D01*
X101050031Y-86914902D01*
X101090383Y-86953128D01*
X101092825Y-86955506D01*
X107716230Y-93578911D01*
X107728616Y-93593323D01*
X107737149Y-93604918D01*
X107737154Y-93604923D01*
X107741492Y-93610818D01*
X107747070Y-93615557D01*
X107747073Y-93615560D01*
X107781768Y-93645035D01*
X107789284Y-93651965D01*
X107794980Y-93657661D01*
X107797841Y-93659924D01*
X107797846Y-93659929D01*
X107817256Y-93675285D01*
X107820658Y-93678074D01*
X107876285Y-93725333D01*
X107882802Y-93728661D01*
X107887850Y-93732027D01*
X107892972Y-93735190D01*
X107898716Y-93739735D01*
X107964895Y-93770664D01*
X107968779Y-93772563D01*
X108033808Y-93805769D01*
X108040923Y-93807510D01*
X108046578Y-93809613D01*
X108052317Y-93811522D01*
X108058950Y-93814622D01*
X108130435Y-93829491D01*
X108134701Y-93830457D01*
X108205610Y-93847808D01*
X108211212Y-93848156D01*
X108211215Y-93848156D01*
X108216764Y-93848500D01*
X108216762Y-93848535D01*
X108220734Y-93848775D01*
X108224955Y-93849152D01*
X108232115Y-93850641D01*
X108309542Y-93848546D01*
X108312950Y-93848500D01*
X114585500Y-93848500D01*
X114653621Y-93868502D01*
X114700114Y-93922158D01*
X114711500Y-93974500D01*
X114711500Y-94638134D01*
X114718255Y-94700316D01*
X114769385Y-94836705D01*
X114856739Y-94953261D01*
X114973295Y-95040615D01*
X115109684Y-95091745D01*
X115171866Y-95098500D01*
X128268134Y-95098500D01*
X128330316Y-95091745D01*
X128466705Y-95040615D01*
X128583261Y-94953261D01*
X128670615Y-94836705D01*
X128721745Y-94700316D01*
X128728500Y-94638134D01*
X128728500Y-91541866D01*
X128721745Y-91479684D01*
X128670615Y-91343295D01*
X128583261Y-91226739D01*
X128501318Y-91165326D01*
X128458803Y-91108467D01*
X128453777Y-91037648D01*
X128487837Y-90975355D01*
X128550168Y-90941365D01*
X128576883Y-90938500D01*
X131863629Y-90938500D01*
X131931750Y-90958502D01*
X131952724Y-90975405D01*
X140794595Y-99817276D01*
X140828621Y-99879588D01*
X140831500Y-99906371D01*
X140831500Y-102195500D01*
X140811498Y-102263621D01*
X140757842Y-102310114D01*
X140705500Y-102321500D01*
X107147070Y-102321500D01*
X107128120Y-102320067D01*
X107113885Y-102317901D01*
X107113881Y-102317901D01*
X107106651Y-102316801D01*
X107099359Y-102317394D01*
X107099356Y-102317394D01*
X107053982Y-102321085D01*
X107043767Y-102321500D01*
X107035707Y-102321500D01*
X107022417Y-102323049D01*
X107007493Y-102324789D01*
X107003118Y-102325222D01*
X106937661Y-102330546D01*
X106937658Y-102330547D01*
X106930363Y-102331140D01*
X106923399Y-102333396D01*
X106917440Y-102334587D01*
X106911585Y-102335971D01*
X106904319Y-102336818D01*
X106835673Y-102361735D01*
X106831545Y-102363152D01*
X106769064Y-102383393D01*
X106769062Y-102383394D01*
X106762101Y-102385649D01*
X106755846Y-102389445D01*
X106750372Y-102391951D01*
X106744942Y-102394670D01*
X106738063Y-102397167D01*
X106731943Y-102401180D01*
X106731942Y-102401180D01*
X106677024Y-102437186D01*
X106673320Y-102439523D01*
X106610893Y-102477405D01*
X106602516Y-102484803D01*
X106602492Y-102484776D01*
X106599500Y-102487429D01*
X106596267Y-102490132D01*
X106590148Y-102494144D01*
X106585116Y-102499456D01*
X106536872Y-102550383D01*
X106534494Y-102552825D01*
X105017761Y-104069558D01*
X104955449Y-104103584D01*
X104918453Y-104106048D01*
X104879000Y-104102839D01*
X104865089Y-104101707D01*
X104865085Y-104101707D01*
X104862542Y-104101500D01*
X103237458Y-104101500D01*
X103234918Y-104101707D01*
X103234908Y-104101707D01*
X103149705Y-104108638D01*
X103095800Y-104113022D01*
X102878206Y-104168890D01*
X102673945Y-104262409D01*
X102669341Y-104265609D01*
X102669339Y-104265610D01*
X102644140Y-104283124D01*
X102489473Y-104390620D01*
X102330620Y-104549473D01*
X102202409Y-104733945D01*
X102108890Y-104938206D01*
X102107495Y-104943638D01*
X102107495Y-104943639D01*
X102076233Y-105065400D01*
X102053022Y-105155800D01*
X102041500Y-105297458D01*
X102041500Y-106922542D01*
X102041707Y-106925082D01*
X102041707Y-106925092D01*
X102046692Y-106986379D01*
X102053022Y-107064200D01*
X102108890Y-107281794D01*
X102202409Y-107486055D01*
X102330620Y-107670527D01*
X102489473Y-107829380D01*
X102673945Y-107957591D01*
X102878206Y-108051110D01*
X103095800Y-108106978D01*
X103149705Y-108111362D01*
X103234908Y-108118293D01*
X103234918Y-108118293D01*
X103237458Y-108118500D01*
X104862542Y-108118500D01*
X104865082Y-108118293D01*
X104865092Y-108118293D01*
X104950295Y-108111362D01*
X105004200Y-108106978D01*
X105221794Y-108051110D01*
X105426055Y-107957591D01*
X105610527Y-107829380D01*
X105769380Y-107670527D01*
X105897591Y-107486055D01*
X105991110Y-107281794D01*
X106046978Y-107064200D01*
X106053308Y-106986379D01*
X106058293Y-106925092D01*
X106058293Y-106925082D01*
X106058500Y-106922542D01*
X106058500Y-105297458D01*
X106053952Y-105241548D01*
X106068365Y-105172032D01*
X106090442Y-105142239D01*
X107357276Y-103875405D01*
X107419588Y-103841379D01*
X107446371Y-103838500D01*
X140705500Y-103838500D01*
X140773621Y-103858502D01*
X140820114Y-103912158D01*
X140831500Y-103964500D01*
X140831500Y-106285500D01*
X140811498Y-106353621D01*
X140757842Y-106400114D01*
X140705500Y-106411500D01*
X140291866Y-106411500D01*
X140229684Y-106418255D01*
X140093295Y-106469385D01*
X139976739Y-106556739D01*
X139889385Y-106673295D01*
X139838255Y-106809684D01*
X139831500Y-106871866D01*
X139831500Y-108403629D01*
X139811498Y-108471750D01*
X139794595Y-108492724D01*
X139563595Y-108723724D01*
X139501283Y-108757750D01*
X139430468Y-108752685D01*
X139373632Y-108710138D01*
X139348821Y-108643618D01*
X139348500Y-108634629D01*
X139348500Y-106871866D01*
X139341745Y-106809684D01*
X139290615Y-106673295D01*
X139203261Y-106556739D01*
X139086705Y-106469385D01*
X138950316Y-106418255D01*
X138888134Y-106411500D01*
X136291866Y-106411500D01*
X136229684Y-106418255D01*
X136093295Y-106469385D01*
X135976739Y-106556739D01*
X135889385Y-106673295D01*
X135838255Y-106809684D01*
X135831500Y-106871866D01*
X135831500Y-108403629D01*
X135811498Y-108471750D01*
X135794595Y-108492724D01*
X121231089Y-123056230D01*
X121216677Y-123068616D01*
X121205082Y-123077149D01*
X121205077Y-123077154D01*
X121199182Y-123081492D01*
X121194443Y-123087070D01*
X121194440Y-123087073D01*
X121164965Y-123121768D01*
X121158035Y-123129284D01*
X121152340Y-123134979D01*
X121150060Y-123137861D01*
X121134719Y-123157251D01*
X121131928Y-123160655D01*
X121089409Y-123210703D01*
X121084667Y-123216285D01*
X121081339Y-123222801D01*
X121077972Y-123227850D01*
X121074805Y-123232979D01*
X121070266Y-123238716D01*
X121039345Y-123304875D01*
X121037442Y-123308769D01*
X121004231Y-123373808D01*
X121002492Y-123380916D01*
X121000393Y-123386559D01*
X120998476Y-123392322D01*
X120995378Y-123398950D01*
X120993888Y-123406112D01*
X120993888Y-123406113D01*
X120980514Y-123470412D01*
X120979544Y-123474696D01*
X120962192Y-123545610D01*
X120961500Y-123556764D01*
X120961464Y-123556762D01*
X120961225Y-123560755D01*
X120960851Y-123564947D01*
X120959360Y-123572115D01*
X120959558Y-123579432D01*
X120961454Y-123649521D01*
X120961500Y-123652928D01*
X120961500Y-130955500D01*
X120941498Y-131023621D01*
X120887842Y-131070114D01*
X120835500Y-131081500D01*
X115171866Y-131081500D01*
X115109684Y-131088255D01*
X114973295Y-131139385D01*
X114856739Y-131226739D01*
X114769385Y-131343295D01*
X114718255Y-131479684D01*
X114711500Y-131541866D01*
X114711500Y-134365500D01*
X114691498Y-134433621D01*
X114637842Y-134480114D01*
X114585500Y-134491500D01*
X110634500Y-134491500D01*
X110566379Y-134471498D01*
X110519886Y-134417842D01*
X110508500Y-134365500D01*
X110508500Y-124508623D01*
X110508502Y-124507853D01*
X110508921Y-124439254D01*
X110508976Y-124430279D01*
X110500850Y-124401847D01*
X110497272Y-124385085D01*
X110494352Y-124364698D01*
X110493080Y-124355813D01*
X110482451Y-124332436D01*
X110476004Y-124314913D01*
X110471416Y-124298862D01*
X110468949Y-124290229D01*
X110464156Y-124282632D01*
X110453170Y-124265220D01*
X110445030Y-124250135D01*
X110432792Y-124223218D01*
X110416030Y-124203765D01*
X110404927Y-124188761D01*
X110391224Y-124167042D01*
X110384499Y-124161103D01*
X110384496Y-124161099D01*
X110369062Y-124147468D01*
X110357018Y-124135276D01*
X110343573Y-124119673D01*
X110343570Y-124119671D01*
X110337713Y-124112873D01*
X110316165Y-124098906D01*
X110301291Y-124087615D01*
X110288783Y-124076569D01*
X110288782Y-124076568D01*
X110282049Y-124070622D01*
X110255287Y-124058057D01*
X110240309Y-124049737D01*
X110223017Y-124038529D01*
X110223012Y-124038527D01*
X110215485Y-124033648D01*
X110206892Y-124031078D01*
X110206887Y-124031076D01*
X110190880Y-124026289D01*
X110173436Y-124019628D01*
X110158324Y-124012533D01*
X110158322Y-124012532D01*
X110150200Y-124008719D01*
X110141333Y-124007338D01*
X110141332Y-124007338D01*
X110131690Y-124005837D01*
X110120983Y-124004170D01*
X110104268Y-124000387D01*
X110084534Y-123994485D01*
X110084528Y-123994484D01*
X110075934Y-123991914D01*
X110066963Y-123991859D01*
X110066962Y-123991859D01*
X110056903Y-123991798D01*
X110041494Y-123991704D01*
X110040711Y-123991671D01*
X110039614Y-123991500D01*
X110008623Y-123991500D01*
X110007853Y-123991498D01*
X109934215Y-123991048D01*
X109934214Y-123991048D01*
X109930279Y-123991024D01*
X109928935Y-123991408D01*
X109927590Y-123991500D01*
X100134500Y-123991500D01*
X100066379Y-123971498D01*
X100019886Y-123917842D01*
X100008500Y-123865500D01*
X100008500Y-113402542D01*
X102071500Y-113402542D01*
X102083022Y-113544200D01*
X102138890Y-113761794D01*
X102232409Y-113966055D01*
X102360620Y-114150527D01*
X102519473Y-114309380D01*
X102703945Y-114437591D01*
X102908206Y-114531110D01*
X103125800Y-114586978D01*
X103179705Y-114591362D01*
X103264908Y-114598293D01*
X103264918Y-114598293D01*
X103267458Y-114598500D01*
X104892542Y-114598500D01*
X104895082Y-114598293D01*
X104895092Y-114598293D01*
X104980295Y-114591362D01*
X105034200Y-114586978D01*
X105251794Y-114531110D01*
X105456055Y-114437591D01*
X105640527Y-114309380D01*
X105799380Y-114150527D01*
X105927591Y-113966055D01*
X106021110Y-113761794D01*
X106076978Y-113544200D01*
X106083478Y-113464285D01*
X106108936Y-113398010D01*
X106166185Y-113356020D01*
X106209063Y-113348500D01*
X106607413Y-113348500D01*
X106681472Y-113372563D01*
X106687902Y-113377235D01*
X106687909Y-113377239D01*
X106693248Y-113381118D01*
X106699276Y-113383802D01*
X106699278Y-113383803D01*
X106861681Y-113456109D01*
X106867712Y-113458794D01*
X106961112Y-113478647D01*
X107048056Y-113497128D01*
X107048061Y-113497128D01*
X107054513Y-113498500D01*
X107245487Y-113498500D01*
X107251939Y-113497128D01*
X107251944Y-113497128D01*
X107338888Y-113478647D01*
X107432288Y-113458794D01*
X107438319Y-113456109D01*
X107600722Y-113383803D01*
X107600724Y-113383802D01*
X107606752Y-113381118D01*
X107612097Y-113377235D01*
X107716496Y-113301384D01*
X107761253Y-113268866D01*
X107794309Y-113232154D01*
X107884621Y-113131852D01*
X107884622Y-113131851D01*
X107889040Y-113126944D01*
X107984527Y-112961556D01*
X108043542Y-112779928D01*
X108049793Y-112720458D01*
X108062814Y-112596565D01*
X108063504Y-112590000D01*
X108049076Y-112452724D01*
X108044232Y-112406635D01*
X108044232Y-112406633D01*
X108043542Y-112400072D01*
X107984527Y-112218444D01*
X107889040Y-112053056D01*
X107761253Y-111911134D01*
X107651647Y-111831500D01*
X107612094Y-111802763D01*
X107612093Y-111802762D01*
X107606752Y-111798882D01*
X107600724Y-111796198D01*
X107600722Y-111796197D01*
X107438319Y-111723891D01*
X107438318Y-111723891D01*
X107432288Y-111721206D01*
X107338887Y-111701353D01*
X107251944Y-111682872D01*
X107251939Y-111682872D01*
X107245487Y-111681500D01*
X107054513Y-111681500D01*
X107048061Y-111682872D01*
X107048056Y-111682872D01*
X106961113Y-111701353D01*
X106867712Y-111721206D01*
X106861682Y-111723891D01*
X106861681Y-111723891D01*
X106699278Y-111796197D01*
X106699276Y-111796198D01*
X106693248Y-111798882D01*
X106687909Y-111802761D01*
X106687902Y-111802765D01*
X106681472Y-111807437D01*
X106607413Y-111831500D01*
X106209063Y-111831500D01*
X106140942Y-111811498D01*
X106094449Y-111757842D01*
X106083478Y-111715715D01*
X106077413Y-111641151D01*
X106076978Y-111635800D01*
X106046837Y-111518405D01*
X106022505Y-111423639D01*
X106022505Y-111423638D01*
X106021110Y-111418206D01*
X105927591Y-111213945D01*
X105917192Y-111198982D01*
X105890546Y-111160644D01*
X105799380Y-111029473D01*
X105640527Y-110870620D01*
X105456055Y-110742409D01*
X105251794Y-110648890D01*
X105034200Y-110593022D01*
X104980295Y-110588638D01*
X104895092Y-110581707D01*
X104895082Y-110581707D01*
X104892542Y-110581500D01*
X103267458Y-110581500D01*
X103264918Y-110581707D01*
X103264908Y-110581707D01*
X103179705Y-110588638D01*
X103125800Y-110593022D01*
X102908206Y-110648890D01*
X102703945Y-110742409D01*
X102519473Y-110870620D01*
X102360620Y-111029473D01*
X102269454Y-111160644D01*
X102242809Y-111198982D01*
X102232409Y-111213945D01*
X102138890Y-111418206D01*
X102137495Y-111423638D01*
X102137495Y-111423639D01*
X102113164Y-111518405D01*
X102083022Y-111635800D01*
X102082587Y-111641151D01*
X102073096Y-111757842D01*
X102071500Y-111777458D01*
X102071500Y-113402542D01*
X100008500Y-113402542D01*
X100008500Y-100323365D01*
X134646500Y-100323365D01*
X134646501Y-100836634D01*
X134653247Y-100910062D01*
X134704528Y-101073699D01*
X134793361Y-101220381D01*
X134889239Y-101316259D01*
X134923265Y-101378571D01*
X134918200Y-101449386D01*
X134889239Y-101494449D01*
X134799131Y-101584557D01*
X134789824Y-101596426D01*
X134708921Y-101730012D01*
X134702715Y-101743757D01*
X134655744Y-101893644D01*
X134653131Y-101906694D01*
X134648087Y-101961586D01*
X134651475Y-101973124D01*
X134652865Y-101974329D01*
X134660548Y-101976000D01*
X136278885Y-101976000D01*
X136295559Y-101971104D01*
X136331057Y-101966000D01*
X138284884Y-101966000D01*
X138300123Y-101961525D01*
X138301328Y-101960135D01*
X138302291Y-101955706D01*
X138296868Y-101896685D01*
X138294257Y-101883649D01*
X138247285Y-101733757D01*
X138241079Y-101720012D01*
X138160176Y-101586426D01*
X138150869Y-101574557D01*
X138060761Y-101484449D01*
X138026735Y-101422137D01*
X138031800Y-101351322D01*
X138060761Y-101306259D01*
X138156639Y-101210381D01*
X138245472Y-101063699D01*
X138296753Y-100900062D01*
X138303500Y-100826635D01*
X138303499Y-100313366D01*
X138296753Y-100239938D01*
X138273644Y-100166197D01*
X138247744Y-100083550D01*
X138247743Y-100083548D01*
X138245472Y-100076301D01*
X138156639Y-99929619D01*
X138035381Y-99808361D01*
X138003499Y-99789053D01*
X137964229Y-99765270D01*
X137916322Y-99712873D01*
X137903500Y-99657494D01*
X137903500Y-98942524D01*
X137923502Y-98874403D01*
X137935858Y-98858221D01*
X138009040Y-98776944D01*
X138104527Y-98611556D01*
X138163542Y-98429928D01*
X138183504Y-98240000D01*
X138177989Y-98187531D01*
X138164232Y-98056635D01*
X138164232Y-98056633D01*
X138163542Y-98050072D01*
X138104527Y-97868444D01*
X138009040Y-97703056D01*
X137978173Y-97668774D01*
X137885675Y-97566045D01*
X137885674Y-97566044D01*
X137881253Y-97561134D01*
X137726752Y-97448882D01*
X137720724Y-97446198D01*
X137720722Y-97446197D01*
X137558319Y-97373891D01*
X137558318Y-97373891D01*
X137552288Y-97371206D01*
X137458887Y-97351353D01*
X137371944Y-97332872D01*
X137371939Y-97332872D01*
X137365487Y-97331500D01*
X137174513Y-97331500D01*
X137168061Y-97332872D01*
X137168056Y-97332872D01*
X137081112Y-97351353D01*
X136987712Y-97371206D01*
X136981682Y-97373891D01*
X136981681Y-97373891D01*
X136819278Y-97446197D01*
X136819276Y-97446198D01*
X136813248Y-97448882D01*
X136658747Y-97561134D01*
X136654326Y-97566044D01*
X136654325Y-97566045D01*
X136581644Y-97646766D01*
X136521198Y-97684006D01*
X136450215Y-97682654D01*
X136394372Y-97646766D01*
X136339206Y-97585497D01*
X136286718Y-97527203D01*
X136285675Y-97526045D01*
X136285674Y-97526044D01*
X136281253Y-97521134D01*
X136181807Y-97448882D01*
X136132094Y-97412763D01*
X136132093Y-97412762D01*
X136126752Y-97408882D01*
X136120724Y-97406198D01*
X136120722Y-97406197D01*
X135958319Y-97333891D01*
X135958318Y-97333891D01*
X135952288Y-97331206D01*
X135858887Y-97311353D01*
X135771944Y-97292872D01*
X135771939Y-97292872D01*
X135765487Y-97291500D01*
X135574513Y-97291500D01*
X135568061Y-97292872D01*
X135568056Y-97292872D01*
X135481112Y-97311353D01*
X135387712Y-97331206D01*
X135381682Y-97333891D01*
X135381681Y-97333891D01*
X135219278Y-97406197D01*
X135219276Y-97406198D01*
X135213248Y-97408882D01*
X135207907Y-97412762D01*
X135207906Y-97412763D01*
X135158193Y-97448882D01*
X135058747Y-97521134D01*
X135054326Y-97526044D01*
X135054325Y-97526045D01*
X134945628Y-97646766D01*
X134930960Y-97663056D01*
X134835473Y-97828444D01*
X134776458Y-98010072D01*
X134775768Y-98016633D01*
X134775768Y-98016635D01*
X134763797Y-98130533D01*
X134756496Y-98200000D01*
X134757186Y-98206565D01*
X134769884Y-98327376D01*
X134776458Y-98389928D01*
X134835473Y-98571556D01*
X134930960Y-98736944D01*
X135004136Y-98818214D01*
X135034853Y-98882221D01*
X135036500Y-98902524D01*
X135036500Y-99673550D01*
X135016498Y-99741671D01*
X134975771Y-99781326D01*
X134957468Y-99792411D01*
X134914619Y-99818361D01*
X134793361Y-99939619D01*
X134704528Y-100086301D01*
X134702257Y-100093548D01*
X134702256Y-100093550D01*
X134694330Y-100118843D01*
X134653247Y-100249938D01*
X134646500Y-100323365D01*
X100008500Y-100323365D01*
X100008500Y-76984500D01*
X100028502Y-76916379D01*
X100082158Y-76869886D01*
X100134500Y-76858500D01*
X100735500Y-76858500D01*
X100803621Y-76878502D01*
G37*
%TD.AperFunction*%
%TA.AperFunction,Conductor*%
G36*
X169693621Y-35528502D02*
G01*
X169740114Y-35582158D01*
X169751500Y-35634500D01*
X169751500Y-36055500D01*
X169731498Y-36123621D01*
X169677842Y-36170114D01*
X169625500Y-36181500D01*
X156407070Y-36181500D01*
X156388120Y-36180067D01*
X156373885Y-36177901D01*
X156373881Y-36177901D01*
X156366651Y-36176801D01*
X156359359Y-36177394D01*
X156359356Y-36177394D01*
X156313982Y-36181085D01*
X156303767Y-36181500D01*
X156295707Y-36181500D01*
X156292073Y-36181924D01*
X156292067Y-36181924D01*
X156279042Y-36183443D01*
X156267480Y-36184791D01*
X156263132Y-36185221D01*
X156241059Y-36187016D01*
X156197662Y-36190546D01*
X156197659Y-36190547D01*
X156190364Y-36191140D01*
X156183400Y-36193396D01*
X156177461Y-36194583D01*
X156171590Y-36195970D01*
X156164319Y-36196818D01*
X156157443Y-36199314D01*
X156157434Y-36199316D01*
X156095702Y-36221725D01*
X156091598Y-36223135D01*
X156022101Y-36245648D01*
X156015846Y-36249444D01*
X156010387Y-36251943D01*
X156004939Y-36254671D01*
X155998063Y-36257167D01*
X155937010Y-36297195D01*
X155933327Y-36299519D01*
X155875686Y-36334496D01*
X155875682Y-36334499D01*
X155870893Y-36337405D01*
X155862517Y-36344803D01*
X155862493Y-36344776D01*
X155859511Y-36347421D01*
X155856274Y-36350128D01*
X155850148Y-36354144D01*
X155845112Y-36359460D01*
X155845111Y-36359461D01*
X155796854Y-36410402D01*
X155794476Y-36412844D01*
X152622724Y-39584595D01*
X152560412Y-39618621D01*
X152533629Y-39621500D01*
X150321866Y-39621500D01*
X150259684Y-39628255D01*
X150123295Y-39679385D01*
X150006739Y-39766739D01*
X149919385Y-39883295D01*
X149868255Y-40019684D01*
X149861500Y-40081866D01*
X149861500Y-53178134D01*
X149868255Y-53240316D01*
X149919385Y-53376705D01*
X150006739Y-53493261D01*
X150123295Y-53580615D01*
X150259684Y-53631745D01*
X150321866Y-53638500D01*
X153418134Y-53638500D01*
X153480316Y-53631745D01*
X153616705Y-53580615D01*
X153733261Y-53493261D01*
X153820615Y-53376705D01*
X153871745Y-53240316D01*
X153878500Y-53178134D01*
X153878500Y-46341522D01*
X153898502Y-46273401D01*
X153952158Y-46226908D01*
X154022432Y-46216804D01*
X154087012Y-46246298D01*
X154125396Y-46306024D01*
X154129017Y-46322246D01*
X154180145Y-46652518D01*
X154272012Y-46990645D01*
X154273302Y-46993904D01*
X154273304Y-46993909D01*
X154322316Y-47117698D01*
X154400998Y-47316424D01*
X154565493Y-47625795D01*
X154567483Y-47628701D01*
X154567484Y-47628703D01*
X154654216Y-47755371D01*
X154763449Y-47914902D01*
X154992397Y-48180142D01*
X155249485Y-48418207D01*
X155531507Y-48626132D01*
X155534544Y-48627886D01*
X155534548Y-48627888D01*
X155695060Y-48720559D01*
X155834949Y-48801324D01*
X155838170Y-48802731D01*
X156152807Y-48940193D01*
X156152817Y-48940197D01*
X156156029Y-48941600D01*
X156159387Y-48942639D01*
X156159391Y-48942641D01*
X156295685Y-48984831D01*
X156490743Y-49045212D01*
X156494199Y-49045871D01*
X156494198Y-49045871D01*
X156831471Y-49110210D01*
X156831477Y-49110211D01*
X156834922Y-49110868D01*
X157066253Y-49128668D01*
X157180777Y-49137480D01*
X157180778Y-49137480D01*
X157184274Y-49137749D01*
X157416291Y-49129646D01*
X157530929Y-49125643D01*
X157530933Y-49125643D01*
X157534445Y-49125520D01*
X157537924Y-49125006D01*
X157537927Y-49125006D01*
X157877578Y-49074851D01*
X157877584Y-49074850D01*
X157881070Y-49074335D01*
X157884474Y-49073436D01*
X157884477Y-49073435D01*
X158216439Y-48985727D01*
X158216440Y-48985727D01*
X158219830Y-48984831D01*
X158546502Y-48858123D01*
X158857014Y-48695792D01*
X159147496Y-48499859D01*
X159414327Y-48272768D01*
X159499069Y-48182527D01*
X159651771Y-48019916D01*
X159651775Y-48019911D01*
X159654182Y-48017348D01*
X159864071Y-47736785D01*
X159897468Y-47679862D01*
X160031633Y-47451181D01*
X160041377Y-47434573D01*
X160042809Y-47431357D01*
X160182459Y-47117698D01*
X160182461Y-47117693D01*
X160183891Y-47114481D01*
X160289837Y-46780498D01*
X160357894Y-46436786D01*
X160371614Y-46273401D01*
X160387030Y-46089814D01*
X160387031Y-46089803D01*
X160387213Y-46087630D01*
X160387290Y-46082158D01*
X160388407Y-46002178D01*
X160388407Y-46002166D01*
X160388437Y-46000000D01*
X160387737Y-45987467D01*
X160370845Y-45685351D01*
X160368878Y-45650162D01*
X160366365Y-45635302D01*
X160311032Y-45308153D01*
X160311031Y-45308148D01*
X160310445Y-45304684D01*
X160213866Y-44967873D01*
X160166818Y-44853726D01*
X160081683Y-44647171D01*
X160081679Y-44647163D01*
X160080345Y-44643926D01*
X159911546Y-44336882D01*
X159709573Y-44050567D01*
X159476943Y-43788550D01*
X159474342Y-43786208D01*
X159474337Y-43786203D01*
X159219167Y-43556447D01*
X159219166Y-43556447D01*
X159216557Y-43554097D01*
X159178538Y-43526878D01*
X158934513Y-43352173D01*
X158934510Y-43352171D01*
X158931659Y-43350130D01*
X158625800Y-43179192D01*
X158302794Y-43043412D01*
X158299425Y-43042421D01*
X158299421Y-43042419D01*
X158151053Y-42998752D01*
X157966665Y-42944484D01*
X157690895Y-42895858D01*
X157625063Y-42884250D01*
X157625061Y-42884250D01*
X157621603Y-42883640D01*
X157618094Y-42883419D01*
X157618092Y-42883419D01*
X157275428Y-42861860D01*
X157275422Y-42861860D01*
X157271910Y-42861639D01*
X157174516Y-42866403D01*
X156925451Y-42878584D01*
X156925443Y-42878585D01*
X156921944Y-42878756D01*
X156918476Y-42879318D01*
X156918473Y-42879318D01*
X156579542Y-42934213D01*
X156579539Y-42934214D01*
X156576067Y-42934776D01*
X156572684Y-42935721D01*
X156572682Y-42935721D01*
X156537747Y-42945475D01*
X156238589Y-43029001D01*
X156235341Y-43030313D01*
X156235333Y-43030316D01*
X155916983Y-43158938D01*
X155916979Y-43158940D01*
X155913719Y-43160257D01*
X155910632Y-43161926D01*
X155910628Y-43161928D01*
X155881220Y-43177829D01*
X155605503Y-43326909D01*
X155317785Y-43526878D01*
X155315143Y-43529191D01*
X155315139Y-43529194D01*
X155076206Y-43738365D01*
X155054151Y-43757673D01*
X154817886Y-44016416D01*
X154611935Y-44299883D01*
X154438865Y-44604541D01*
X154300834Y-44926591D01*
X154281112Y-44991914D01*
X154200789Y-45257958D01*
X154199562Y-45262021D01*
X154183452Y-45349800D01*
X154141505Y-45578352D01*
X154136311Y-45606650D01*
X154133686Y-45644187D01*
X154130193Y-45694140D01*
X154105488Y-45760700D01*
X154048720Y-45803337D01*
X153977912Y-45808514D01*
X153915546Y-45774588D01*
X153881422Y-45712329D01*
X153878500Y-45685351D01*
X153878500Y-40526371D01*
X153898502Y-40458250D01*
X153915405Y-40437276D01*
X156617276Y-37735405D01*
X156679588Y-37701379D01*
X156706371Y-37698500D01*
X169625500Y-37698500D01*
X169693621Y-37718502D01*
X169740114Y-37772158D01*
X169751500Y-37824500D01*
X169751500Y-38488134D01*
X169758255Y-38550316D01*
X169809385Y-38686705D01*
X169896739Y-38803261D01*
X170013295Y-38890615D01*
X170149684Y-38941745D01*
X170211866Y-38948500D01*
X183308134Y-38948500D01*
X183370316Y-38941745D01*
X183506705Y-38890615D01*
X183623261Y-38803261D01*
X183710615Y-38686705D01*
X183761745Y-38550316D01*
X183768500Y-38488134D01*
X183768500Y-35634500D01*
X183788502Y-35566379D01*
X183842158Y-35519886D01*
X183894500Y-35508500D01*
X188365500Y-35508500D01*
X188433621Y-35528502D01*
X188480114Y-35582158D01*
X188491500Y-35634500D01*
X188491500Y-45491377D01*
X188491498Y-45492147D01*
X188491024Y-45569721D01*
X188493491Y-45578352D01*
X188499150Y-45598153D01*
X188502728Y-45614915D01*
X188506920Y-45644187D01*
X188510634Y-45652355D01*
X188510634Y-45652356D01*
X188517548Y-45667562D01*
X188523996Y-45685086D01*
X188531051Y-45709771D01*
X188535843Y-45717365D01*
X188535844Y-45717368D01*
X188546830Y-45734780D01*
X188554969Y-45749863D01*
X188567208Y-45776782D01*
X188573069Y-45783584D01*
X188583970Y-45796235D01*
X188595073Y-45811239D01*
X188608776Y-45832958D01*
X188615501Y-45838897D01*
X188615504Y-45838901D01*
X188630938Y-45852532D01*
X188642982Y-45864724D01*
X188656427Y-45880327D01*
X188656430Y-45880329D01*
X188662287Y-45887127D01*
X188669816Y-45892007D01*
X188669817Y-45892008D01*
X188683835Y-45901094D01*
X188698709Y-45912385D01*
X188711217Y-45923431D01*
X188717951Y-45929378D01*
X188744711Y-45941942D01*
X188759691Y-45950263D01*
X188776983Y-45961471D01*
X188776988Y-45961473D01*
X188784515Y-45966352D01*
X188793108Y-45968922D01*
X188793113Y-45968924D01*
X188809120Y-45973711D01*
X188826564Y-45980372D01*
X188841676Y-45987467D01*
X188841678Y-45987468D01*
X188849800Y-45991281D01*
X188858667Y-45992662D01*
X188858668Y-45992662D01*
X188868310Y-45994163D01*
X188879017Y-45995830D01*
X188895732Y-45999613D01*
X188915466Y-46005515D01*
X188915472Y-46005516D01*
X188924066Y-46008086D01*
X188933037Y-46008141D01*
X188933038Y-46008141D01*
X188943097Y-46008202D01*
X188958506Y-46008296D01*
X188959289Y-46008329D01*
X188960386Y-46008500D01*
X188991377Y-46008500D01*
X188992147Y-46008502D01*
X189065785Y-46008952D01*
X189065786Y-46008952D01*
X189069721Y-46008976D01*
X189071065Y-46008592D01*
X189072410Y-46008500D01*
X198865500Y-46008500D01*
X198933621Y-46028502D01*
X198980114Y-46082158D01*
X198991500Y-46134500D01*
X198991500Y-92785500D01*
X198971498Y-92853621D01*
X198917842Y-92900114D01*
X198865500Y-92911500D01*
X195891866Y-92911500D01*
X195829684Y-92918255D01*
X195693295Y-92969385D01*
X195576739Y-93056739D01*
X195489385Y-93173295D01*
X195438255Y-93309684D01*
X195431500Y-93371866D01*
X195431500Y-106468134D01*
X195438255Y-106530316D01*
X195489385Y-106666705D01*
X195576739Y-106783261D01*
X195693295Y-106870615D01*
X195829684Y-106921745D01*
X195891866Y-106928500D01*
X196555500Y-106928500D01*
X196623621Y-106948502D01*
X196670114Y-107002158D01*
X196681500Y-107054500D01*
X196681500Y-112363629D01*
X196661498Y-112431750D01*
X196644595Y-112452724D01*
X189153595Y-119943724D01*
X189091283Y-119977750D01*
X189020468Y-119972685D01*
X188963632Y-119930138D01*
X188938821Y-119863618D01*
X188938500Y-119854629D01*
X188938500Y-116691866D01*
X188931745Y-116629684D01*
X188880615Y-116493295D01*
X188793261Y-116376739D01*
X188676705Y-116289385D01*
X188540316Y-116238255D01*
X188478134Y-116231500D01*
X185381866Y-116231500D01*
X185319684Y-116238255D01*
X185183295Y-116289385D01*
X185066739Y-116376739D01*
X184979385Y-116493295D01*
X184928255Y-116629684D01*
X184921500Y-116691866D01*
X184921500Y-129788134D01*
X184928255Y-129850316D01*
X184979385Y-129986705D01*
X185066739Y-130103261D01*
X185183295Y-130190615D01*
X185319684Y-130241745D01*
X185381866Y-130248500D01*
X188365500Y-130248500D01*
X188433621Y-130268502D01*
X188480114Y-130322158D01*
X188491500Y-130374500D01*
X188491500Y-134365500D01*
X188471498Y-134433621D01*
X188417842Y-134480114D01*
X188365500Y-134491500D01*
X128854500Y-134491500D01*
X128786379Y-134471498D01*
X128739886Y-134417842D01*
X128728500Y-134365500D01*
X128728500Y-131541866D01*
X128721745Y-131479684D01*
X128670615Y-131343295D01*
X128583261Y-131226739D01*
X128466705Y-131139385D01*
X128330316Y-131088255D01*
X128268134Y-131081500D01*
X122604500Y-131081500D01*
X122536379Y-131061498D01*
X122489886Y-131007842D01*
X122478500Y-130955500D01*
X122478500Y-124006371D01*
X122493237Y-123956181D01*
X138611869Y-123956181D01*
X138626542Y-124306258D01*
X138647131Y-124439254D01*
X138667328Y-124569721D01*
X138680145Y-124652518D01*
X138772012Y-124990645D01*
X138773302Y-124993904D01*
X138773304Y-124993909D01*
X138823289Y-125120156D01*
X138900998Y-125316424D01*
X139065493Y-125625795D01*
X139067483Y-125628701D01*
X139067484Y-125628703D01*
X139141490Y-125736785D01*
X139263449Y-125914902D01*
X139492397Y-126180142D01*
X139749485Y-126418207D01*
X140031507Y-126626132D01*
X140034544Y-126627886D01*
X140034548Y-126627888D01*
X140195060Y-126720559D01*
X140334949Y-126801324D01*
X140338170Y-126802731D01*
X140652807Y-126940193D01*
X140652817Y-126940197D01*
X140656029Y-126941600D01*
X140659387Y-126942639D01*
X140659391Y-126942641D01*
X140795685Y-126984831D01*
X140990743Y-127045212D01*
X140994199Y-127045871D01*
X140994198Y-127045871D01*
X141331471Y-127110210D01*
X141331477Y-127110211D01*
X141334922Y-127110868D01*
X141566253Y-127128668D01*
X141680777Y-127137480D01*
X141680778Y-127137480D01*
X141684274Y-127137749D01*
X141916291Y-127129646D01*
X142030929Y-127125643D01*
X142030933Y-127125643D01*
X142034445Y-127125520D01*
X142037924Y-127125006D01*
X142037927Y-127125006D01*
X142377578Y-127074851D01*
X142377584Y-127074850D01*
X142381070Y-127074335D01*
X142384474Y-127073436D01*
X142384477Y-127073435D01*
X142716439Y-126985727D01*
X142716440Y-126985727D01*
X142719830Y-126984831D01*
X143046502Y-126858123D01*
X143357014Y-126695792D01*
X143647496Y-126499859D01*
X143914327Y-126272768D01*
X143999069Y-126182527D01*
X144151771Y-126019916D01*
X144151775Y-126019911D01*
X144154182Y-126017348D01*
X144364071Y-125736785D01*
X144541377Y-125434573D01*
X144542809Y-125431357D01*
X144680393Y-125122338D01*
X144726373Y-125068242D01*
X144794301Y-125047593D01*
X144862609Y-125066945D01*
X144909610Y-125120156D01*
X144921500Y-125173587D01*
X144921500Y-129788134D01*
X144928255Y-129850316D01*
X144979385Y-129986705D01*
X145066739Y-130103261D01*
X145183295Y-130190615D01*
X145319684Y-130241745D01*
X145381866Y-130248500D01*
X148478134Y-130248500D01*
X148540316Y-130241745D01*
X148676705Y-130190615D01*
X148793261Y-130103261D01*
X148880615Y-129986705D01*
X148931745Y-129850316D01*
X148938500Y-129788134D01*
X148938500Y-116691866D01*
X148931745Y-116629684D01*
X148880615Y-116493295D01*
X148793261Y-116376739D01*
X148676705Y-116289385D01*
X148540316Y-116238255D01*
X148478134Y-116231500D01*
X145381866Y-116231500D01*
X145319684Y-116238255D01*
X145183295Y-116289385D01*
X145066739Y-116376739D01*
X144979385Y-116493295D01*
X144928255Y-116629684D01*
X144921500Y-116691866D01*
X144921500Y-119854629D01*
X144901498Y-119922750D01*
X144847842Y-119969243D01*
X144777568Y-119979347D01*
X144712988Y-119949853D01*
X144706405Y-119943724D01*
X142475405Y-117712724D01*
X142441379Y-117650412D01*
X142438500Y-117623629D01*
X142438500Y-114574500D01*
X142458502Y-114506379D01*
X142512158Y-114459886D01*
X142564500Y-114448500D01*
X142978134Y-114448500D01*
X143040316Y-114441745D01*
X143176705Y-114390615D01*
X143293261Y-114303261D01*
X143380615Y-114186705D01*
X143431745Y-114050316D01*
X143438500Y-113988134D01*
X143438500Y-112191866D01*
X143431745Y-112129684D01*
X143380615Y-111993295D01*
X143293261Y-111876739D01*
X143176705Y-111789385D01*
X143040316Y-111738255D01*
X142978134Y-111731500D01*
X140381866Y-111731500D01*
X140319684Y-111738255D01*
X140183295Y-111789385D01*
X140066739Y-111876739D01*
X139979385Y-111993295D01*
X139928255Y-112129684D01*
X139921500Y-112191866D01*
X139921500Y-113988134D01*
X139928255Y-114050316D01*
X139979385Y-114186705D01*
X140066739Y-114303261D01*
X140183295Y-114390615D01*
X140319684Y-114441745D01*
X140381866Y-114448500D01*
X140795500Y-114448500D01*
X140863621Y-114468502D01*
X140910114Y-114522158D01*
X140921500Y-114574500D01*
X140921500Y-117922930D01*
X140920067Y-117941880D01*
X140916801Y-117963349D01*
X140917394Y-117970641D01*
X140917394Y-117970644D01*
X140921085Y-118016018D01*
X140921500Y-118026233D01*
X140921500Y-118034293D01*
X140921925Y-118037937D01*
X140924789Y-118062507D01*
X140925222Y-118066882D01*
X140931140Y-118139637D01*
X140933396Y-118146601D01*
X140934587Y-118152560D01*
X140935971Y-118158415D01*
X140936818Y-118165681D01*
X140961735Y-118234327D01*
X140963152Y-118238455D01*
X140985649Y-118307899D01*
X140989445Y-118314154D01*
X140991951Y-118319628D01*
X140994670Y-118325058D01*
X140997167Y-118331937D01*
X141001180Y-118338057D01*
X141001180Y-118338058D01*
X141037186Y-118392976D01*
X141039523Y-118396680D01*
X141077405Y-118459107D01*
X141081121Y-118463315D01*
X141081122Y-118463316D01*
X141084803Y-118467484D01*
X141084776Y-118467508D01*
X141087429Y-118470500D01*
X141090132Y-118473733D01*
X141094144Y-118479852D01*
X141130694Y-118514476D01*
X141150383Y-118533128D01*
X141152825Y-118535506D01*
X144884595Y-122267276D01*
X144918621Y-122329588D01*
X144921500Y-122356371D01*
X144921500Y-122835284D01*
X144901498Y-122903405D01*
X144847842Y-122949898D01*
X144777568Y-122960002D01*
X144712988Y-122930508D01*
X144679007Y-122883299D01*
X144581683Y-122647171D01*
X144581679Y-122647163D01*
X144580345Y-122643926D01*
X144411546Y-122336882D01*
X144209573Y-122050567D01*
X144162262Y-121997279D01*
X143979274Y-121791175D01*
X143979270Y-121791171D01*
X143976943Y-121788550D01*
X143974342Y-121786208D01*
X143974337Y-121786203D01*
X143719167Y-121556447D01*
X143719166Y-121556447D01*
X143716557Y-121554097D01*
X143678538Y-121526878D01*
X143434513Y-121352173D01*
X143434510Y-121352171D01*
X143431659Y-121350130D01*
X143125800Y-121179192D01*
X142802794Y-121043412D01*
X142799425Y-121042421D01*
X142799421Y-121042419D01*
X142651053Y-120998752D01*
X142466665Y-120944484D01*
X142190895Y-120895858D01*
X142125063Y-120884250D01*
X142125061Y-120884250D01*
X142121603Y-120883640D01*
X142118094Y-120883419D01*
X142118092Y-120883419D01*
X141775428Y-120861860D01*
X141775422Y-120861860D01*
X141771910Y-120861639D01*
X141674516Y-120866403D01*
X141425451Y-120878584D01*
X141425443Y-120878585D01*
X141421944Y-120878756D01*
X141418476Y-120879318D01*
X141418473Y-120879318D01*
X141079542Y-120934213D01*
X141079539Y-120934214D01*
X141076067Y-120934776D01*
X141072684Y-120935721D01*
X141072682Y-120935721D01*
X141037747Y-120945475D01*
X140738589Y-121029001D01*
X140735341Y-121030313D01*
X140735333Y-121030316D01*
X140416983Y-121158938D01*
X140416979Y-121158940D01*
X140413719Y-121160257D01*
X140410632Y-121161926D01*
X140410628Y-121161928D01*
X140381220Y-121177829D01*
X140105503Y-121326909D01*
X139817785Y-121526878D01*
X139815143Y-121529191D01*
X139815139Y-121529194D01*
X139576206Y-121738365D01*
X139554151Y-121757673D01*
X139317886Y-122016416D01*
X139111935Y-122299883D01*
X138938865Y-122604541D01*
X138921985Y-122643926D01*
X138810772Y-122903405D01*
X138800834Y-122926591D01*
X138793797Y-122949898D01*
X138739638Y-123129284D01*
X138699562Y-123262021D01*
X138690981Y-123308775D01*
X138644538Y-123561826D01*
X138636311Y-123606650D01*
X138611869Y-123956181D01*
X122493237Y-123956181D01*
X122498502Y-123938250D01*
X122515405Y-123917276D01*
X137267276Y-109165405D01*
X137329588Y-109131379D01*
X137356371Y-109128500D01*
X138854629Y-109128500D01*
X138922750Y-109148502D01*
X138969243Y-109202158D01*
X138979347Y-109272432D01*
X138949853Y-109337012D01*
X138943724Y-109343595D01*
X137191089Y-111096230D01*
X137176677Y-111108616D01*
X137165082Y-111117149D01*
X137165077Y-111117154D01*
X137159182Y-111121492D01*
X137154443Y-111127070D01*
X137154440Y-111127073D01*
X137124965Y-111161768D01*
X137118035Y-111169284D01*
X137112340Y-111174979D01*
X137110060Y-111177861D01*
X137094719Y-111197251D01*
X137091928Y-111200655D01*
X137049409Y-111250703D01*
X137044667Y-111256285D01*
X137041339Y-111262801D01*
X137037972Y-111267850D01*
X137034805Y-111272979D01*
X137030266Y-111278716D01*
X136999345Y-111344875D01*
X136997442Y-111348769D01*
X136964231Y-111413808D01*
X136962492Y-111420916D01*
X136960393Y-111426559D01*
X136958476Y-111432322D01*
X136955378Y-111438950D01*
X136953888Y-111446112D01*
X136953888Y-111446113D01*
X136940514Y-111510412D01*
X136939544Y-111514696D01*
X136922192Y-111585610D01*
X136921500Y-111596764D01*
X136921464Y-111596762D01*
X136921225Y-111600760D01*
X136920851Y-111604945D01*
X136919360Y-111612115D01*
X136919505Y-111617461D01*
X136893819Y-111682778D01*
X136836241Y-111724315D01*
X136794300Y-111731500D01*
X136381866Y-111731500D01*
X136319684Y-111738255D01*
X136183295Y-111789385D01*
X136066739Y-111876739D01*
X135979385Y-111993295D01*
X135928255Y-112129684D01*
X135921500Y-112191866D01*
X135921500Y-113988134D01*
X135928255Y-114050316D01*
X135979385Y-114186705D01*
X136066739Y-114303261D01*
X136183295Y-114390615D01*
X136319684Y-114441745D01*
X136381866Y-114448500D01*
X138978134Y-114448500D01*
X139040316Y-114441745D01*
X139176705Y-114390615D01*
X139293261Y-114303261D01*
X139380615Y-114186705D01*
X139431745Y-114050316D01*
X139438500Y-113988134D01*
X139438500Y-112191866D01*
X139431745Y-112129684D01*
X139380615Y-111993295D01*
X139293261Y-111876739D01*
X139176705Y-111789385D01*
X139040316Y-111738255D01*
X139007233Y-111734661D01*
X138989763Y-111732763D01*
X138924201Y-111705521D01*
X138883775Y-111647158D01*
X138881320Y-111576203D01*
X138914276Y-111518405D01*
X141142681Y-109290000D01*
X149936496Y-109290000D01*
X149956458Y-109479928D01*
X150015473Y-109661556D01*
X150110960Y-109826944D01*
X150238747Y-109968866D01*
X150393248Y-110081118D01*
X150399276Y-110083802D01*
X150399278Y-110083803D01*
X150561681Y-110156109D01*
X150567712Y-110158794D01*
X150661112Y-110178647D01*
X150748056Y-110197128D01*
X150748061Y-110197128D01*
X150754513Y-110198500D01*
X150945487Y-110198500D01*
X150951939Y-110197128D01*
X150951944Y-110197128D01*
X151038888Y-110178647D01*
X151132288Y-110158794D01*
X151138319Y-110156109D01*
X151300722Y-110083803D01*
X151300724Y-110083802D01*
X151306752Y-110081118D01*
X151461253Y-109968866D01*
X151589040Y-109826944D01*
X151684527Y-109661556D01*
X151743542Y-109479928D01*
X151763504Y-109290000D01*
X151748632Y-109148502D01*
X151744232Y-109106635D01*
X151744232Y-109106633D01*
X151743542Y-109100072D01*
X151684527Y-108918444D01*
X151589040Y-108753056D01*
X151562630Y-108723724D01*
X151465675Y-108616045D01*
X151465674Y-108616044D01*
X151461253Y-108611134D01*
X151306752Y-108498882D01*
X151300724Y-108496198D01*
X151300722Y-108496197D01*
X151138319Y-108423891D01*
X151138318Y-108423891D01*
X151132288Y-108421206D01*
X151038888Y-108401353D01*
X150951944Y-108382872D01*
X150951939Y-108382872D01*
X150945487Y-108381500D01*
X150754513Y-108381500D01*
X150748061Y-108382872D01*
X150748056Y-108382872D01*
X150661113Y-108401353D01*
X150567712Y-108421206D01*
X150561682Y-108423891D01*
X150561681Y-108423891D01*
X150399278Y-108496197D01*
X150399276Y-108496198D01*
X150393248Y-108498882D01*
X150238747Y-108611134D01*
X150234326Y-108616044D01*
X150234325Y-108616045D01*
X150137371Y-108723724D01*
X150110960Y-108753056D01*
X150015473Y-108918444D01*
X149956458Y-109100072D01*
X149955768Y-109106633D01*
X149955768Y-109106635D01*
X149951368Y-109148502D01*
X149936496Y-109290000D01*
X141142681Y-109290000D01*
X141267276Y-109165405D01*
X141329588Y-109131379D01*
X141356371Y-109128500D01*
X142888134Y-109128500D01*
X142950316Y-109121745D01*
X143086705Y-109070615D01*
X143203261Y-108983261D01*
X143290615Y-108866705D01*
X143341745Y-108730316D01*
X143348500Y-108668134D01*
X143348500Y-106871866D01*
X143341745Y-106809684D01*
X143290615Y-106673295D01*
X143203261Y-106556739D01*
X143086705Y-106469385D01*
X142950316Y-106418255D01*
X142888134Y-106411500D01*
X142474500Y-106411500D01*
X142406379Y-106391498D01*
X142359886Y-106337842D01*
X142348500Y-106285500D01*
X142348500Y-103366999D01*
X142365381Y-103303999D01*
X142372471Y-103291720D01*
X142424527Y-103201556D01*
X142483542Y-103019928D01*
X142487816Y-102979268D01*
X142502814Y-102836565D01*
X142503504Y-102830000D01*
X142494644Y-102745702D01*
X142484232Y-102646635D01*
X142484232Y-102646633D01*
X142483542Y-102640072D01*
X142424527Y-102458444D01*
X142365381Y-102356000D01*
X142348500Y-102293001D01*
X142348500Y-99607070D01*
X142349933Y-99588120D01*
X142352099Y-99573885D01*
X142352099Y-99573881D01*
X142353199Y-99566651D01*
X142351845Y-99550000D01*
X143356496Y-99550000D01*
X143357186Y-99556565D01*
X143373432Y-99711134D01*
X143376458Y-99739928D01*
X143435473Y-99921556D01*
X143438776Y-99927278D01*
X143438777Y-99927279D01*
X143460872Y-99965548D01*
X143530960Y-100086944D01*
X143535378Y-100091851D01*
X143535379Y-100091852D01*
X143604737Y-100168882D01*
X143658747Y-100228866D01*
X143813248Y-100341118D01*
X143819276Y-100343802D01*
X143819278Y-100343803D01*
X143906589Y-100382676D01*
X143987712Y-100418794D01*
X144081112Y-100438647D01*
X144168056Y-100457128D01*
X144168061Y-100457128D01*
X144174513Y-100458500D01*
X144365487Y-100458500D01*
X144371939Y-100457128D01*
X144371944Y-100457128D01*
X144458887Y-100438647D01*
X144552288Y-100418794D01*
X144633411Y-100382676D01*
X144720722Y-100343803D01*
X144720724Y-100343802D01*
X144726752Y-100341118D01*
X144881253Y-100228866D01*
X144935263Y-100168882D01*
X145004621Y-100091852D01*
X145004622Y-100091851D01*
X145009040Y-100086944D01*
X145079128Y-99965548D01*
X145101223Y-99927279D01*
X145101224Y-99927278D01*
X145104527Y-99921556D01*
X145163542Y-99739928D01*
X145166977Y-99707251D01*
X145178507Y-99597540D01*
X145180907Y-99574708D01*
X145207920Y-99509051D01*
X145217122Y-99498782D01*
X145295501Y-99420404D01*
X145357814Y-99386379D01*
X145384596Y-99383500D01*
X145442462Y-99383500D01*
X145510583Y-99403502D01*
X145557076Y-99457158D01*
X145561986Y-99469624D01*
X145573085Y-99502892D01*
X145588450Y-99548946D01*
X145681522Y-99699348D01*
X145686704Y-99704521D01*
X145707583Y-99725364D01*
X145806697Y-99824305D01*
X145812927Y-99828145D01*
X145836618Y-99842749D01*
X145884110Y-99895522D01*
X145896500Y-99950008D01*
X145896500Y-101321233D01*
X145895973Y-101332416D01*
X145894298Y-101339909D01*
X145894547Y-101347835D01*
X145894547Y-101347836D01*
X145896438Y-101407986D01*
X145896500Y-101411945D01*
X145896500Y-103358666D01*
X145876498Y-103426787D01*
X145846300Y-103456469D01*
X145847612Y-103458125D01*
X145841880Y-103462668D01*
X145835652Y-103466522D01*
X145710695Y-103591697D01*
X145617885Y-103742262D01*
X145615581Y-103749209D01*
X145585010Y-103841379D01*
X145562203Y-103910139D01*
X145551500Y-104014600D01*
X145551500Y-105065400D01*
X145551837Y-105068646D01*
X145551837Y-105068650D01*
X145561618Y-105162914D01*
X145562474Y-105171166D01*
X145564655Y-105177702D01*
X145564655Y-105177704D01*
X145585956Y-105241550D01*
X145618450Y-105338946D01*
X145711522Y-105489348D01*
X145836697Y-105614305D01*
X145842927Y-105618145D01*
X145842928Y-105618146D01*
X145980288Y-105702816D01*
X145987262Y-105707115D01*
X146067005Y-105733564D01*
X146148611Y-105760632D01*
X146148613Y-105760632D01*
X146155139Y-105762797D01*
X146161975Y-105763497D01*
X146161978Y-105763498D01*
X146205031Y-105767909D01*
X146259600Y-105773500D01*
X146860400Y-105773500D01*
X146863646Y-105773163D01*
X146863650Y-105773163D01*
X146959308Y-105763238D01*
X146959312Y-105763237D01*
X146966166Y-105762526D01*
X146972702Y-105760345D01*
X146972704Y-105760345D01*
X147104806Y-105716272D01*
X147133946Y-105706550D01*
X147284348Y-105613478D01*
X147409305Y-105488303D01*
X147412102Y-105483765D01*
X147469353Y-105443176D01*
X147540276Y-105439946D01*
X147601687Y-105475572D01*
X147609062Y-105484068D01*
X147617098Y-105494207D01*
X147731829Y-105608739D01*
X147743240Y-105617751D01*
X147881243Y-105702816D01*
X147894424Y-105708963D01*
X148048710Y-105760138D01*
X148062086Y-105763005D01*
X148156438Y-105772672D01*
X148162854Y-105773000D01*
X148187885Y-105773000D01*
X148203124Y-105768525D01*
X148204329Y-105767135D01*
X148206000Y-105759452D01*
X148206000Y-105754884D01*
X148714000Y-105754884D01*
X148718475Y-105770123D01*
X148719865Y-105771328D01*
X148727548Y-105772999D01*
X148757095Y-105772999D01*
X148763614Y-105772662D01*
X148859206Y-105762743D01*
X148872600Y-105759851D01*
X149026784Y-105708412D01*
X149039962Y-105702239D01*
X149177807Y-105616937D01*
X149189208Y-105607901D01*
X149303739Y-105493171D01*
X149312751Y-105481760D01*
X149397816Y-105343757D01*
X149403963Y-105330576D01*
X149455138Y-105176290D01*
X149458005Y-105162914D01*
X149467672Y-105068562D01*
X149468000Y-105062146D01*
X149468000Y-104812115D01*
X149463525Y-104796876D01*
X149462135Y-104795671D01*
X149454452Y-104794000D01*
X148732115Y-104794000D01*
X148716876Y-104798475D01*
X148715671Y-104799865D01*
X148714000Y-104807548D01*
X148714000Y-105754884D01*
X148206000Y-105754884D01*
X148206000Y-103380668D01*
X148226002Y-103312547D01*
X148279658Y-103266054D01*
X148286171Y-103263625D01*
X148288329Y-103261135D01*
X148290000Y-103253452D01*
X148290000Y-102894500D01*
X148310002Y-102826379D01*
X148363658Y-102779886D01*
X148416000Y-102768500D01*
X148464000Y-102768500D01*
X148532121Y-102788502D01*
X148578614Y-102842158D01*
X148590000Y-102894500D01*
X148590000Y-103248885D01*
X148594475Y-103264124D01*
X148595865Y-103265329D01*
X148614783Y-103269444D01*
X148677095Y-103303469D01*
X148711120Y-103365781D01*
X148714000Y-103392565D01*
X148714000Y-104267885D01*
X148718475Y-104283124D01*
X148719865Y-104284329D01*
X148727548Y-104286000D01*
X149449884Y-104286000D01*
X149465123Y-104281525D01*
X149466328Y-104280135D01*
X149467999Y-104272452D01*
X149467999Y-104017905D01*
X149467662Y-104011386D01*
X149457743Y-103915794D01*
X149454851Y-103902400D01*
X149403412Y-103748216D01*
X149397239Y-103735038D01*
X149311937Y-103597193D01*
X149302901Y-103585792D01*
X149182991Y-103466090D01*
X149184725Y-103464353D01*
X149150408Y-103415940D01*
X149147183Y-103345017D01*
X149182815Y-103283609D01*
X149236958Y-103253281D01*
X149249822Y-103249834D01*
X149376386Y-103197410D01*
X149390569Y-103189221D01*
X149499248Y-103105829D01*
X149510828Y-103094250D01*
X149594223Y-102985566D01*
X149602410Y-102971385D01*
X149654833Y-102844826D01*
X149656958Y-102836893D01*
X149693907Y-102776269D01*
X149757767Y-102745245D01*
X149778666Y-102743500D01*
X151470548Y-102743500D01*
X151481731Y-102744027D01*
X151489224Y-102745702D01*
X151497354Y-102745446D01*
X151497509Y-102745487D01*
X151505043Y-102746199D01*
X151504928Y-102747414D01*
X151566068Y-102763295D01*
X151614226Y-102815462D01*
X151621006Y-102833428D01*
X151621519Y-102837324D01*
X151680314Y-102979268D01*
X151773843Y-103101157D01*
X151895733Y-103194686D01*
X152037676Y-103253481D01*
X152095814Y-103261135D01*
X152147669Y-103267962D01*
X152147670Y-103267962D01*
X152151756Y-103268500D01*
X153528244Y-103268500D01*
X153532330Y-103267962D01*
X153532331Y-103267962D01*
X153584186Y-103261135D01*
X153642324Y-103253481D01*
X153649951Y-103250322D01*
X153649954Y-103250321D01*
X153731376Y-103216595D01*
X153801966Y-103209006D01*
X153868689Y-103243909D01*
X153879595Y-103254815D01*
X153913621Y-103317127D01*
X153916500Y-103343910D01*
X153916500Y-117765406D01*
X153896498Y-117833527D01*
X153879595Y-117854501D01*
X151069500Y-120664595D01*
X151007188Y-120698621D01*
X150980405Y-120701500D01*
X150924513Y-120701500D01*
X150918061Y-120702872D01*
X150918056Y-120702872D01*
X150831112Y-120721353D01*
X150737712Y-120741206D01*
X150731682Y-120743891D01*
X150731681Y-120743891D01*
X150569278Y-120816197D01*
X150569276Y-120816198D01*
X150563248Y-120818882D01*
X150408747Y-120931134D01*
X150404326Y-120936044D01*
X150404325Y-120936045D01*
X150307652Y-121043412D01*
X150280960Y-121073056D01*
X150185473Y-121238444D01*
X150126458Y-121420072D01*
X150106496Y-121610000D01*
X150126458Y-121799928D01*
X150185473Y-121981556D01*
X150188776Y-121987278D01*
X150188777Y-121987279D01*
X150194551Y-121997279D01*
X150280960Y-122146944D01*
X150408747Y-122288866D01*
X150563248Y-122401118D01*
X150569276Y-122403802D01*
X150569278Y-122403803D01*
X150731679Y-122476108D01*
X150737712Y-122478794D01*
X150831112Y-122498647D01*
X150918056Y-122517128D01*
X150918061Y-122517128D01*
X150924513Y-122518500D01*
X151115487Y-122518500D01*
X151121939Y-122517128D01*
X151121944Y-122517128D01*
X151208888Y-122498647D01*
X151302288Y-122478794D01*
X151308315Y-122476111D01*
X151308323Y-122476108D01*
X151402522Y-122434168D01*
X151472889Y-122424734D01*
X151505018Y-122434168D01*
X151621677Y-122486108D01*
X151621685Y-122486111D01*
X151627712Y-122488794D01*
X151721113Y-122508647D01*
X151808056Y-122527128D01*
X151808061Y-122527128D01*
X151814513Y-122528500D01*
X152005487Y-122528500D01*
X152011939Y-122527128D01*
X152011944Y-122527128D01*
X152098887Y-122508647D01*
X152192288Y-122488794D01*
X152211667Y-122480166D01*
X152360722Y-122413803D01*
X152360724Y-122413802D01*
X152366752Y-122411118D01*
X152385858Y-122397237D01*
X152464689Y-122339962D01*
X152521253Y-122298866D01*
X152649040Y-122156944D01*
X152744527Y-121991556D01*
X152803542Y-121809928D01*
X152820907Y-121644706D01*
X152847920Y-121579050D01*
X152857122Y-121568782D01*
X155542253Y-118883652D01*
X155550539Y-118876112D01*
X155557018Y-118872000D01*
X155603644Y-118822348D01*
X155606398Y-118819507D01*
X155626135Y-118799770D01*
X155628615Y-118796573D01*
X155636320Y-118787551D01*
X155661159Y-118761100D01*
X155666586Y-118755321D01*
X155670405Y-118748375D01*
X155670407Y-118748372D01*
X155676348Y-118737566D01*
X155687199Y-118721047D01*
X155694758Y-118711301D01*
X155699614Y-118705041D01*
X155702759Y-118697772D01*
X155702762Y-118697768D01*
X155717174Y-118664463D01*
X155722391Y-118653813D01*
X155743695Y-118615060D01*
X155748733Y-118595437D01*
X155755137Y-118576734D01*
X155760033Y-118565420D01*
X155760033Y-118565419D01*
X155763181Y-118558145D01*
X155764420Y-118550322D01*
X155764423Y-118550312D01*
X155770099Y-118514476D01*
X155772505Y-118502856D01*
X155781528Y-118467711D01*
X155781528Y-118467710D01*
X155783500Y-118460030D01*
X155783500Y-118439776D01*
X155785051Y-118420065D01*
X155786980Y-118407886D01*
X155788220Y-118400057D01*
X155784059Y-118356038D01*
X155783500Y-118344181D01*
X155783500Y-107054500D01*
X155803502Y-106986379D01*
X155857158Y-106939886D01*
X155909500Y-106928500D01*
X158988134Y-106928500D01*
X159050316Y-106921745D01*
X159186705Y-106870615D01*
X159303261Y-106783261D01*
X159390615Y-106666705D01*
X159441745Y-106530316D01*
X159448500Y-106468134D01*
X159448500Y-93371866D01*
X159441745Y-93309684D01*
X159390615Y-93173295D01*
X159303261Y-93056739D01*
X159186705Y-92969385D01*
X159050316Y-92918255D01*
X158988134Y-92911500D01*
X155891866Y-92911500D01*
X155829684Y-92918255D01*
X155693295Y-92969385D01*
X155576739Y-93056739D01*
X155489385Y-93173295D01*
X155438255Y-93309684D01*
X155431500Y-93371866D01*
X155431500Y-96534629D01*
X155411498Y-96602750D01*
X155357842Y-96649243D01*
X155287568Y-96659347D01*
X155222988Y-96629853D01*
X155216405Y-96623724D01*
X154323770Y-95731089D01*
X154311384Y-95716677D01*
X154302851Y-95705082D01*
X154302846Y-95705077D01*
X154298508Y-95699182D01*
X154292930Y-95694443D01*
X154292927Y-95694440D01*
X154258232Y-95664965D01*
X154250716Y-95658035D01*
X154245021Y-95652340D01*
X154238880Y-95647482D01*
X154222749Y-95634719D01*
X154219345Y-95631928D01*
X154169297Y-95589409D01*
X154169295Y-95589408D01*
X154163715Y-95584667D01*
X154157199Y-95581339D01*
X154152150Y-95577972D01*
X154147021Y-95574805D01*
X154141284Y-95570266D01*
X154075125Y-95539345D01*
X154071225Y-95537439D01*
X154070857Y-95537251D01*
X154006192Y-95504231D01*
X153999084Y-95502492D01*
X153993441Y-95500393D01*
X153987678Y-95498476D01*
X153981050Y-95495378D01*
X153909583Y-95480513D01*
X153905299Y-95479543D01*
X153834390Y-95462192D01*
X153828788Y-95461844D01*
X153828785Y-95461844D01*
X153823236Y-95461500D01*
X153823238Y-95461464D01*
X153819245Y-95461225D01*
X153815053Y-95460851D01*
X153807885Y-95459360D01*
X153741675Y-95461151D01*
X153730479Y-95461454D01*
X153727072Y-95461500D01*
X149602587Y-95461500D01*
X149528528Y-95437437D01*
X149522098Y-95432765D01*
X149522091Y-95432761D01*
X149516752Y-95428882D01*
X149510724Y-95426198D01*
X149510722Y-95426197D01*
X149348319Y-95353891D01*
X149348318Y-95353891D01*
X149342288Y-95351206D01*
X149248887Y-95331353D01*
X149161944Y-95312872D01*
X149161939Y-95312872D01*
X149155487Y-95311500D01*
X148964513Y-95311500D01*
X148958061Y-95312872D01*
X148958056Y-95312872D01*
X148871113Y-95331353D01*
X148777712Y-95351206D01*
X148771682Y-95353891D01*
X148771681Y-95353891D01*
X148609278Y-95426197D01*
X148609276Y-95426198D01*
X148603248Y-95428882D01*
X148597907Y-95432762D01*
X148597906Y-95432763D01*
X148591473Y-95437437D01*
X148448747Y-95541134D01*
X148444326Y-95546044D01*
X148444325Y-95546045D01*
X148340229Y-95661656D01*
X148320960Y-95683056D01*
X148225473Y-95848444D01*
X148223431Y-95854729D01*
X148170613Y-96017285D01*
X148139875Y-96067444D01*
X146727724Y-97479595D01*
X146665412Y-97513621D01*
X146638629Y-97516500D01*
X146229600Y-97516500D01*
X146226354Y-97516837D01*
X146226350Y-97516837D01*
X146130692Y-97526762D01*
X146130688Y-97526763D01*
X146123834Y-97527474D01*
X146117298Y-97529655D01*
X146117296Y-97529655D01*
X146022943Y-97561134D01*
X145956054Y-97583450D01*
X145805652Y-97676522D01*
X145680695Y-97801697D01*
X145676855Y-97807927D01*
X145676854Y-97807928D01*
X145667736Y-97822721D01*
X145587885Y-97952262D01*
X145570793Y-98003794D01*
X145562045Y-98030167D01*
X145521614Y-98088527D01*
X145456050Y-98115764D01*
X145442452Y-98116500D01*
X145148767Y-98116500D01*
X145137584Y-98115973D01*
X145130091Y-98114298D01*
X145122165Y-98114547D01*
X145122164Y-98114547D01*
X145062001Y-98116438D01*
X145058043Y-98116500D01*
X145030144Y-98116500D01*
X145026154Y-98117004D01*
X145014320Y-98117936D01*
X144970111Y-98119326D01*
X144962497Y-98121538D01*
X144962492Y-98121539D01*
X144950659Y-98124977D01*
X144931296Y-98128988D01*
X144911203Y-98131526D01*
X144903836Y-98134443D01*
X144903831Y-98134444D01*
X144870092Y-98147802D01*
X144858865Y-98151646D01*
X144816407Y-98163982D01*
X144809581Y-98168019D01*
X144798972Y-98174293D01*
X144781224Y-98182988D01*
X144762383Y-98190448D01*
X144755967Y-98195110D01*
X144755966Y-98195110D01*
X144726613Y-98216436D01*
X144716693Y-98222952D01*
X144685465Y-98241420D01*
X144685462Y-98241422D01*
X144678638Y-98245458D01*
X144664317Y-98259779D01*
X144649284Y-98272619D01*
X144632893Y-98284528D01*
X144627842Y-98290633D01*
X144627837Y-98290638D01*
X144604706Y-98318598D01*
X144596719Y-98327376D01*
X144319501Y-98604595D01*
X144257188Y-98638620D01*
X144230405Y-98641500D01*
X144174513Y-98641500D01*
X144168061Y-98642872D01*
X144168056Y-98642872D01*
X144081112Y-98661353D01*
X143987712Y-98681206D01*
X143981682Y-98683891D01*
X143981681Y-98683891D01*
X143819278Y-98756197D01*
X143819276Y-98756198D01*
X143813248Y-98758882D01*
X143807907Y-98762762D01*
X143807906Y-98762763D01*
X143765967Y-98793234D01*
X143658747Y-98871134D01*
X143654326Y-98876044D01*
X143654325Y-98876045D01*
X143590189Y-98947276D01*
X143530960Y-99013056D01*
X143435473Y-99178444D01*
X143376458Y-99360072D01*
X143375768Y-99366633D01*
X143375768Y-99366635D01*
X143363551Y-99482872D01*
X143356496Y-99550000D01*
X142351845Y-99550000D01*
X142348915Y-99513982D01*
X142348500Y-99503767D01*
X142348500Y-99495707D01*
X142345209Y-99467480D01*
X142344778Y-99463121D01*
X142344293Y-99457158D01*
X142338860Y-99390364D01*
X142336605Y-99383403D01*
X142335418Y-99377463D01*
X142334029Y-99371588D01*
X142333182Y-99364319D01*
X142308264Y-99295670D01*
X142306847Y-99291542D01*
X142286607Y-99229064D01*
X142286606Y-99229062D01*
X142284351Y-99222101D01*
X142280555Y-99215846D01*
X142278049Y-99210372D01*
X142275330Y-99204942D01*
X142272833Y-99198063D01*
X142232814Y-99137024D01*
X142230467Y-99133305D01*
X142192595Y-99070893D01*
X142185197Y-99062516D01*
X142185224Y-99062492D01*
X142182571Y-99059500D01*
X142179868Y-99056267D01*
X142175856Y-99050148D01*
X142119617Y-98996872D01*
X142117175Y-98994494D01*
X132813770Y-89691089D01*
X132801384Y-89676677D01*
X132792851Y-89665082D01*
X132792846Y-89665077D01*
X132788508Y-89659182D01*
X132782930Y-89654443D01*
X132782927Y-89654440D01*
X132748232Y-89624965D01*
X132740716Y-89618035D01*
X132735021Y-89612340D01*
X132725743Y-89605000D01*
X132712749Y-89594719D01*
X132709345Y-89591928D01*
X132659297Y-89549409D01*
X132659295Y-89549408D01*
X132653715Y-89544667D01*
X132647199Y-89541339D01*
X132642150Y-89537972D01*
X132637021Y-89534805D01*
X132631284Y-89530266D01*
X132565125Y-89499345D01*
X132561225Y-89497439D01*
X132496192Y-89464231D01*
X132489084Y-89462492D01*
X132483441Y-89460393D01*
X132477678Y-89458476D01*
X132471050Y-89455378D01*
X132399583Y-89440513D01*
X132395299Y-89439543D01*
X132324390Y-89422192D01*
X132318788Y-89421844D01*
X132318785Y-89421844D01*
X132313236Y-89421500D01*
X132313238Y-89421464D01*
X132309245Y-89421225D01*
X132305053Y-89420851D01*
X132297885Y-89419360D01*
X132231675Y-89421151D01*
X132220479Y-89421454D01*
X132217072Y-89421500D01*
X111697664Y-89421500D01*
X111629543Y-89401498D01*
X111608569Y-89384595D01*
X110633974Y-88410000D01*
X142426496Y-88410000D01*
X142446458Y-88599928D01*
X142505473Y-88781556D01*
X142600960Y-88946944D01*
X142605378Y-88951851D01*
X142605379Y-88951852D01*
X142724325Y-89083955D01*
X142728747Y-89088866D01*
X142806587Y-89145420D01*
X142863980Y-89187119D01*
X142907334Y-89243341D01*
X142913409Y-89314078D01*
X142909752Y-89327991D01*
X142893944Y-89376644D01*
X142881458Y-89415072D01*
X142880768Y-89421633D01*
X142880768Y-89421635D01*
X142876626Y-89461047D01*
X142861496Y-89605000D01*
X142881458Y-89794928D01*
X142940473Y-89976556D01*
X143035960Y-90141944D01*
X143163747Y-90283866D01*
X143318248Y-90396118D01*
X143324276Y-90398802D01*
X143324278Y-90398803D01*
X143486681Y-90471109D01*
X143492712Y-90473794D01*
X143586113Y-90493647D01*
X143673056Y-90512128D01*
X143673061Y-90512128D01*
X143679513Y-90513500D01*
X143870487Y-90513500D01*
X143876939Y-90512128D01*
X143876944Y-90512128D01*
X143963888Y-90493647D01*
X144057288Y-90473794D01*
X144063319Y-90471109D01*
X144225722Y-90398803D01*
X144225724Y-90398802D01*
X144231752Y-90396118D01*
X144386253Y-90283866D01*
X144514040Y-90141944D01*
X144609527Y-89976556D01*
X144668542Y-89794928D01*
X144685907Y-89629708D01*
X144712920Y-89564051D01*
X144722122Y-89553783D01*
X144812253Y-89463652D01*
X144820539Y-89456112D01*
X144827018Y-89452000D01*
X144873644Y-89402348D01*
X144876398Y-89399507D01*
X144896135Y-89379770D01*
X144898615Y-89376573D01*
X144906320Y-89367551D01*
X144931159Y-89341100D01*
X144936586Y-89335321D01*
X144940405Y-89328375D01*
X144940407Y-89328372D01*
X144946348Y-89317566D01*
X144957199Y-89301047D01*
X144964758Y-89291301D01*
X144969614Y-89285041D01*
X144972759Y-89277772D01*
X144972762Y-89277768D01*
X144987174Y-89244463D01*
X144992391Y-89233813D01*
X145013695Y-89195060D01*
X145018733Y-89175437D01*
X145025137Y-89156734D01*
X145030033Y-89145420D01*
X145030033Y-89145419D01*
X145033181Y-89138145D01*
X145034420Y-89130322D01*
X145034423Y-89130312D01*
X145040099Y-89094476D01*
X145042505Y-89082856D01*
X145051528Y-89047711D01*
X145051528Y-89047710D01*
X145053500Y-89040030D01*
X145053500Y-89019776D01*
X145055051Y-89000065D01*
X145056980Y-88987886D01*
X145058220Y-88980057D01*
X145054059Y-88936038D01*
X145053500Y-88924181D01*
X145053500Y-86485469D01*
X149277017Y-86485469D01*
X149277314Y-86490622D01*
X149277314Y-86490625D01*
X149288656Y-86687341D01*
X149290349Y-86716697D01*
X149291486Y-86721743D01*
X149291487Y-86721749D01*
X149323663Y-86864523D01*
X149341268Y-86942642D01*
X149343210Y-86947424D01*
X149343211Y-86947428D01*
X149426462Y-87152450D01*
X149428406Y-87157237D01*
X149549423Y-87354719D01*
X149701069Y-87529784D01*
X149879271Y-87677730D01*
X150079244Y-87794584D01*
X150084069Y-87796426D01*
X150084070Y-87796427D01*
X150101000Y-87802892D01*
X150295616Y-87877209D01*
X150300682Y-87878240D01*
X150300683Y-87878240D01*
X150303308Y-87878774D01*
X150522578Y-87923385D01*
X150653246Y-87928176D01*
X150748871Y-87931683D01*
X150748875Y-87931683D01*
X150754035Y-87931872D01*
X150759155Y-87931216D01*
X150759157Y-87931216D01*
X150832192Y-87921860D01*
X150983769Y-87902442D01*
X150988717Y-87900957D01*
X150988724Y-87900956D01*
X151200669Y-87837369D01*
X151205612Y-87835886D01*
X151210246Y-87833616D01*
X151408971Y-87736262D01*
X151408974Y-87736260D01*
X151413606Y-87733991D01*
X151602165Y-87599494D01*
X151766225Y-87436005D01*
X151901380Y-87247917D01*
X151934877Y-87180142D01*
X152001706Y-87044922D01*
X152001707Y-87044920D01*
X152004000Y-87040280D01*
X152071330Y-86818671D01*
X152101562Y-86589041D01*
X152102048Y-86569166D01*
X152103167Y-86523365D01*
X152103167Y-86523361D01*
X152103249Y-86520000D01*
X152094912Y-86418597D01*
X152084695Y-86294318D01*
X152084694Y-86294312D01*
X152084271Y-86289167D01*
X152044975Y-86132724D01*
X152029106Y-86069544D01*
X152029105Y-86069540D01*
X152027847Y-86064533D01*
X152018758Y-86043629D01*
X151937552Y-85856868D01*
X151937550Y-85856865D01*
X151935492Y-85852131D01*
X151809686Y-85657665D01*
X151801843Y-85649045D01*
X151732152Y-85572456D01*
X151653809Y-85486358D01*
X151649758Y-85483159D01*
X151649754Y-85483155D01*
X151476099Y-85346011D01*
X151476094Y-85346008D01*
X151472045Y-85342810D01*
X151467529Y-85340317D01*
X151467526Y-85340315D01*
X151273801Y-85233373D01*
X151273797Y-85233371D01*
X151269277Y-85230876D01*
X151264408Y-85229152D01*
X151264404Y-85229150D01*
X151055825Y-85155288D01*
X151055821Y-85155287D01*
X151050950Y-85153562D01*
X151045857Y-85152655D01*
X151045854Y-85152654D01*
X150828017Y-85113851D01*
X150828011Y-85113850D01*
X150822928Y-85112945D01*
X150750018Y-85112054D01*
X150596503Y-85110179D01*
X150596501Y-85110179D01*
X150591333Y-85110116D01*
X150362386Y-85145150D01*
X150142236Y-85217106D01*
X150137648Y-85219494D01*
X150137644Y-85219496D01*
X150079185Y-85249928D01*
X149936794Y-85324052D01*
X149932661Y-85327155D01*
X149932658Y-85327157D01*
X149755712Y-85460012D01*
X149751577Y-85463117D01*
X149591561Y-85630564D01*
X149588647Y-85634836D01*
X149588646Y-85634837D01*
X149574270Y-85655912D01*
X149461041Y-85821899D01*
X149363524Y-86031981D01*
X149301629Y-86255169D01*
X149277017Y-86485469D01*
X145053500Y-86485469D01*
X145053500Y-84674594D01*
X145073502Y-84606473D01*
X145090405Y-84585499D01*
X146690435Y-82985469D01*
X149277017Y-82985469D01*
X149277314Y-82990622D01*
X149277314Y-82990625D01*
X149282989Y-83089041D01*
X149290349Y-83216697D01*
X149291486Y-83221743D01*
X149291487Y-83221749D01*
X149317434Y-83336882D01*
X149341268Y-83442642D01*
X149343210Y-83447424D01*
X149343211Y-83447428D01*
X149425444Y-83649943D01*
X149428406Y-83657237D01*
X149549423Y-83854719D01*
X149701069Y-84029784D01*
X149879271Y-84177730D01*
X150079244Y-84294584D01*
X150295616Y-84377209D01*
X150300682Y-84378240D01*
X150300683Y-84378240D01*
X150353768Y-84389040D01*
X150522578Y-84423385D01*
X150653246Y-84428176D01*
X150748871Y-84431683D01*
X150748875Y-84431683D01*
X150754035Y-84431872D01*
X150759155Y-84431216D01*
X150759157Y-84431216D01*
X150832192Y-84421860D01*
X150983769Y-84402442D01*
X150988717Y-84400957D01*
X150988724Y-84400956D01*
X151200669Y-84337369D01*
X151205612Y-84335886D01*
X151242506Y-84317812D01*
X151408971Y-84236262D01*
X151408974Y-84236260D01*
X151413606Y-84233991D01*
X151602165Y-84099494D01*
X151766225Y-83936005D01*
X151901380Y-83747917D01*
X151904694Y-83741213D01*
X152001706Y-83544922D01*
X152001707Y-83544920D01*
X152004000Y-83540280D01*
X152071330Y-83318671D01*
X152101562Y-83089041D01*
X152103249Y-83020000D01*
X152089172Y-82848774D01*
X152084695Y-82794318D01*
X152084694Y-82794312D01*
X152084271Y-82789167D01*
X152027847Y-82564533D01*
X152024331Y-82556447D01*
X151937552Y-82356868D01*
X151937550Y-82356865D01*
X151935492Y-82352131D01*
X151809686Y-82157665D01*
X151653809Y-81986358D01*
X151649758Y-81983159D01*
X151649754Y-81983155D01*
X151476099Y-81846011D01*
X151476094Y-81846008D01*
X151472045Y-81842810D01*
X151467529Y-81840317D01*
X151467526Y-81840315D01*
X151273801Y-81733373D01*
X151273797Y-81733371D01*
X151269277Y-81730876D01*
X151264408Y-81729152D01*
X151264404Y-81729150D01*
X151055825Y-81655288D01*
X151055821Y-81655287D01*
X151050950Y-81653562D01*
X151045857Y-81652655D01*
X151045854Y-81652654D01*
X150828017Y-81613851D01*
X150828011Y-81613850D01*
X150822928Y-81612945D01*
X150750018Y-81612054D01*
X150596503Y-81610179D01*
X150596501Y-81610179D01*
X150591333Y-81610116D01*
X150362386Y-81645150D01*
X150142236Y-81717106D01*
X150137648Y-81719494D01*
X150137644Y-81719496D01*
X149953950Y-81815121D01*
X149936794Y-81824052D01*
X149932661Y-81827155D01*
X149932658Y-81827157D01*
X149755712Y-81960012D01*
X149751577Y-81963117D01*
X149591561Y-82130564D01*
X149588647Y-82134836D01*
X149588646Y-82134837D01*
X149515270Y-82242402D01*
X149461041Y-82321899D01*
X149363524Y-82531981D01*
X149301629Y-82755169D01*
X149277017Y-82985469D01*
X146690435Y-82985469D01*
X148605904Y-81070000D01*
X158396418Y-81070000D01*
X158416380Y-81259928D01*
X158475395Y-81441556D01*
X158478698Y-81447278D01*
X158478699Y-81447279D01*
X158483851Y-81456202D01*
X158570882Y-81606944D01*
X158575300Y-81611851D01*
X158575301Y-81611852D01*
X158584388Y-81621944D01*
X158698669Y-81748866D01*
X158719315Y-81763866D01*
X158768751Y-81799784D01*
X158795424Y-81829096D01*
X158796485Y-81828273D01*
X158801342Y-81834535D01*
X158805380Y-81841362D01*
X158819701Y-81855683D01*
X158832541Y-81870716D01*
X158844450Y-81887107D01*
X158850556Y-81892158D01*
X158878527Y-81915298D01*
X158887306Y-81923288D01*
X160292800Y-83328782D01*
X160326826Y-83391094D01*
X160329014Y-83404703D01*
X160335436Y-83465801D01*
X160345434Y-83560923D01*
X160346380Y-83569928D01*
X160405395Y-83751556D01*
X160408698Y-83757278D01*
X160408699Y-83757279D01*
X160415802Y-83769581D01*
X160500882Y-83916944D01*
X160505300Y-83921851D01*
X160505301Y-83921852D01*
X160624247Y-84053955D01*
X160628669Y-84058866D01*
X160783170Y-84171118D01*
X160789198Y-84173802D01*
X160789200Y-84173803D01*
X160951603Y-84246109D01*
X160957634Y-84248794D01*
X161036173Y-84265488D01*
X161137978Y-84287128D01*
X161137983Y-84287128D01*
X161144435Y-84288500D01*
X161335409Y-84288500D01*
X161341861Y-84287128D01*
X161341866Y-84287128D01*
X161443671Y-84265488D01*
X161522210Y-84248794D01*
X161528241Y-84246109D01*
X161690644Y-84173803D01*
X161690646Y-84173802D01*
X161696674Y-84171118D01*
X161851175Y-84058866D01*
X161855597Y-84053955D01*
X161974543Y-83921852D01*
X161974544Y-83921851D01*
X161978962Y-83916944D01*
X162064042Y-83769581D01*
X162071145Y-83757279D01*
X162071146Y-83757278D01*
X162074449Y-83751556D01*
X162133464Y-83569928D01*
X162134411Y-83560923D01*
X162152736Y-83386565D01*
X162153426Y-83380000D01*
X162145189Y-83301628D01*
X162134154Y-83196635D01*
X162134154Y-83196633D01*
X162133464Y-83190072D01*
X162074449Y-83008444D01*
X161978962Y-82843056D01*
X161927772Y-82786203D01*
X161855597Y-82706045D01*
X161855596Y-82706044D01*
X161851175Y-82701134D01*
X161696674Y-82588882D01*
X161690646Y-82586198D01*
X161690644Y-82586197D01*
X161528241Y-82513891D01*
X161528240Y-82513891D01*
X161522210Y-82511206D01*
X161428810Y-82491353D01*
X161341866Y-82472872D01*
X161341861Y-82472872D01*
X161335409Y-82471500D01*
X161279517Y-82471500D01*
X161211396Y-82451498D01*
X161190422Y-82434595D01*
X160212029Y-81456202D01*
X160178003Y-81393890D01*
X160181291Y-81328171D01*
X160201422Y-81266214D01*
X160201424Y-81266206D01*
X160203464Y-81259928D01*
X160216467Y-81136217D01*
X160221850Y-81085000D01*
X161491418Y-81085000D01*
X161492108Y-81091565D01*
X161509114Y-81253365D01*
X161511380Y-81274928D01*
X161570395Y-81456556D01*
X161665882Y-81621944D01*
X161670300Y-81626851D01*
X161670301Y-81626852D01*
X161763965Y-81730876D01*
X161793669Y-81763866D01*
X161876508Y-81824052D01*
X161929698Y-81862697D01*
X161948170Y-81876118D01*
X161954198Y-81878802D01*
X161954200Y-81878803D01*
X162082041Y-81935721D01*
X162122634Y-81953794D01*
X162216034Y-81973647D01*
X162302978Y-81992128D01*
X162302983Y-81992128D01*
X162309435Y-81993500D01*
X162365328Y-81993500D01*
X162433449Y-82013502D01*
X162454423Y-82030405D01*
X164679517Y-84255500D01*
X164713543Y-84317812D01*
X164716422Y-84344595D01*
X164716422Y-84357476D01*
X164696420Y-84425597D01*
X164684064Y-84441779D01*
X164610882Y-84523056D01*
X164515395Y-84688444D01*
X164456380Y-84870072D01*
X164455690Y-84876633D01*
X164455690Y-84876635D01*
X164443927Y-84988559D01*
X164436418Y-85060000D01*
X164437108Y-85066565D01*
X164454378Y-85230876D01*
X164456380Y-85249928D01*
X164515395Y-85431556D01*
X164610882Y-85596944D01*
X164615300Y-85601851D01*
X164615301Y-85601852D01*
X164663977Y-85655912D01*
X164738669Y-85738866D01*
X164893170Y-85851118D01*
X164899198Y-85853802D01*
X164899200Y-85853803D01*
X165061603Y-85926109D01*
X165067634Y-85928794D01*
X165148873Y-85946062D01*
X165247978Y-85967128D01*
X165247983Y-85967128D01*
X165254435Y-85968500D01*
X165445409Y-85968500D01*
X165451861Y-85967128D01*
X165451866Y-85967128D01*
X165550971Y-85946062D01*
X165632210Y-85928794D01*
X165638241Y-85926109D01*
X165800644Y-85853803D01*
X165800646Y-85853802D01*
X165806674Y-85851118D01*
X165961175Y-85738866D01*
X166035867Y-85655912D01*
X166084543Y-85601852D01*
X166084544Y-85601851D01*
X166088962Y-85596944D01*
X166184449Y-85431556D01*
X166243464Y-85249928D01*
X166245467Y-85230876D01*
X166262736Y-85066565D01*
X166263426Y-85060000D01*
X166255917Y-84988559D01*
X166244154Y-84876635D01*
X166244154Y-84876633D01*
X166243464Y-84870072D01*
X166184449Y-84688444D01*
X166088962Y-84523056D01*
X166015785Y-84441785D01*
X165985069Y-84377779D01*
X165983422Y-84357476D01*
X165983422Y-84119694D01*
X171101931Y-84119694D01*
X171117989Y-84283468D01*
X171169932Y-84439615D01*
X171173582Y-84445642D01*
X171173584Y-84445646D01*
X171220163Y-84522556D01*
X171238343Y-84591185D01*
X171218300Y-84656081D01*
X171188838Y-84701797D01*
X171186427Y-84708420D01*
X171186426Y-84708423D01*
X171134966Y-84849809D01*
X171134965Y-84849814D01*
X171132556Y-84856432D01*
X171111931Y-85019694D01*
X171127989Y-85183468D01*
X171179932Y-85339615D01*
X171183580Y-85345639D01*
X171183584Y-85345647D01*
X171230701Y-85423445D01*
X171248881Y-85492074D01*
X171228837Y-85556972D01*
X171183838Y-85626797D01*
X171181427Y-85633420D01*
X171181426Y-85633423D01*
X171129966Y-85774809D01*
X171129965Y-85774814D01*
X171127556Y-85781432D01*
X171106931Y-85944694D01*
X171122989Y-86108468D01*
X171174932Y-86264615D01*
X171178581Y-86270640D01*
X171251259Y-86390644D01*
X171260179Y-86405373D01*
X171374491Y-86523747D01*
X171512189Y-86613854D01*
X171666428Y-86671215D01*
X171673409Y-86672146D01*
X171673411Y-86672147D01*
X171822561Y-86692048D01*
X171822565Y-86692048D01*
X171829542Y-86692979D01*
X171836553Y-86692341D01*
X171836557Y-86692341D01*
X171986403Y-86678704D01*
X171986404Y-86678704D01*
X171993424Y-86678065D01*
X172053777Y-86658455D01*
X172143230Y-86629390D01*
X172143233Y-86629389D01*
X172149929Y-86627213D01*
X172247303Y-86569166D01*
X172316058Y-86551466D01*
X172380813Y-86571963D01*
X172437189Y-86608854D01*
X172591428Y-86666215D01*
X172598409Y-86667146D01*
X172598411Y-86667147D01*
X172747561Y-86687048D01*
X172747565Y-86687048D01*
X172754542Y-86687979D01*
X172761553Y-86687341D01*
X172761557Y-86687341D01*
X172911403Y-86673704D01*
X172911404Y-86673704D01*
X172918424Y-86673065D01*
X172976195Y-86654294D01*
X173068230Y-86624390D01*
X173068233Y-86624389D01*
X173074929Y-86622213D01*
X173165689Y-86568109D01*
X173234443Y-86550409D01*
X173299198Y-86570906D01*
X173321777Y-86585681D01*
X173351291Y-86604995D01*
X173351295Y-86604997D01*
X173357189Y-86608854D01*
X173511428Y-86666215D01*
X173518409Y-86667146D01*
X173518411Y-86667147D01*
X173667561Y-86687048D01*
X173667565Y-86687048D01*
X173674542Y-86687979D01*
X173681553Y-86687341D01*
X173681557Y-86687341D01*
X173831403Y-86673704D01*
X173831404Y-86673704D01*
X173838424Y-86673065D01*
X173896195Y-86654294D01*
X173988230Y-86624390D01*
X173988233Y-86624389D01*
X173994929Y-86622213D01*
X174136279Y-86537951D01*
X174255449Y-86424468D01*
X174268136Y-86405373D01*
X174342614Y-86293275D01*
X174342615Y-86293273D01*
X174346515Y-86287403D01*
X174404951Y-86133568D01*
X174424579Y-85993909D01*
X174427302Y-85974534D01*
X174427303Y-85974527D01*
X174427853Y-85970610D01*
X174428141Y-85950000D01*
X174409798Y-85786466D01*
X174355680Y-85631060D01*
X174319060Y-85572456D01*
X174299924Y-85504087D01*
X174320965Y-85435961D01*
X174366515Y-85367403D01*
X174424951Y-85213568D01*
X174438965Y-85113851D01*
X174447302Y-85054534D01*
X174447303Y-85054527D01*
X174447853Y-85050610D01*
X174448141Y-85030000D01*
X174439861Y-84956181D01*
X185361869Y-84956181D01*
X185376542Y-85306258D01*
X185396825Y-85437279D01*
X185427854Y-85637717D01*
X185430145Y-85652518D01*
X185522012Y-85990645D01*
X185523302Y-85993904D01*
X185523304Y-85993909D01*
X185581207Y-86140154D01*
X185650998Y-86316424D01*
X185652653Y-86319536D01*
X185652655Y-86319541D01*
X185705324Y-86418597D01*
X185815493Y-86625795D01*
X185817483Y-86628701D01*
X185817484Y-86628703D01*
X186006590Y-86904884D01*
X186013449Y-86914902D01*
X186242397Y-87180142D01*
X186499485Y-87418207D01*
X186502311Y-87420290D01*
X186502314Y-87420293D01*
X186607144Y-87497580D01*
X186781507Y-87626132D01*
X186784544Y-87627886D01*
X186784548Y-87627888D01*
X186941635Y-87718582D01*
X187084949Y-87801324D01*
X187158863Y-87833616D01*
X187402807Y-87940193D01*
X187402817Y-87940197D01*
X187406029Y-87941600D01*
X187409387Y-87942639D01*
X187409391Y-87942641D01*
X187545685Y-87984831D01*
X187740743Y-88045212D01*
X187744199Y-88045871D01*
X187744198Y-88045871D01*
X188081471Y-88110210D01*
X188081477Y-88110211D01*
X188084922Y-88110868D01*
X188316253Y-88128668D01*
X188430777Y-88137480D01*
X188430778Y-88137480D01*
X188434274Y-88137749D01*
X188666291Y-88129646D01*
X188780929Y-88125643D01*
X188780933Y-88125643D01*
X188784445Y-88125520D01*
X188787924Y-88125006D01*
X188787927Y-88125006D01*
X189127578Y-88074851D01*
X189127584Y-88074850D01*
X189131070Y-88074335D01*
X189134474Y-88073436D01*
X189134477Y-88073435D01*
X189466439Y-87985727D01*
X189466440Y-87985727D01*
X189469830Y-87984831D01*
X189796502Y-87858123D01*
X190107014Y-87695792D01*
X190348235Y-87533086D01*
X190394580Y-87501826D01*
X190394582Y-87501825D01*
X190397496Y-87499859D01*
X190664327Y-87272768D01*
X190749069Y-87182527D01*
X190901771Y-87019916D01*
X190901775Y-87019911D01*
X190904182Y-87017348D01*
X191114071Y-86736785D01*
X191119285Y-86727899D01*
X191187686Y-86611310D01*
X191291377Y-86434573D01*
X191307059Y-86399350D01*
X191432459Y-86117698D01*
X191432461Y-86117693D01*
X191433891Y-86114481D01*
X191539837Y-85780498D01*
X191607894Y-85436786D01*
X191621274Y-85277442D01*
X191637030Y-85089814D01*
X191637031Y-85089803D01*
X191637213Y-85087630D01*
X191637508Y-85066565D01*
X191638407Y-85002178D01*
X191638407Y-85002166D01*
X191638437Y-85000000D01*
X191637798Y-84988559D01*
X191624184Y-84745069D01*
X191618878Y-84650162D01*
X191600753Y-84543000D01*
X191561032Y-84308153D01*
X191561031Y-84308148D01*
X191560445Y-84304684D01*
X191463866Y-83967873D01*
X191404802Y-83824572D01*
X191331683Y-83647171D01*
X191331679Y-83647163D01*
X191330345Y-83643926D01*
X191161546Y-83336882D01*
X190959573Y-83050567D01*
X190897219Y-82980336D01*
X190729274Y-82791175D01*
X190729270Y-82791171D01*
X190726943Y-82788550D01*
X190724342Y-82786208D01*
X190724337Y-82786203D01*
X190469167Y-82556447D01*
X190469166Y-82556447D01*
X190466557Y-82554097D01*
X190428538Y-82526878D01*
X190184513Y-82352173D01*
X190184510Y-82352171D01*
X190181659Y-82350130D01*
X189875800Y-82179192D01*
X189552794Y-82043412D01*
X189549425Y-82042421D01*
X189549421Y-82042419D01*
X189292675Y-81966855D01*
X189216665Y-81944484D01*
X188919911Y-81892158D01*
X188875063Y-81884250D01*
X188875061Y-81884250D01*
X188871603Y-81883640D01*
X188868094Y-81883419D01*
X188868092Y-81883419D01*
X188525428Y-81861860D01*
X188525422Y-81861860D01*
X188521910Y-81861639D01*
X188424516Y-81866403D01*
X188175451Y-81878584D01*
X188175443Y-81878585D01*
X188171944Y-81878756D01*
X188168476Y-81879318D01*
X188168473Y-81879318D01*
X187829542Y-81934213D01*
X187829539Y-81934214D01*
X187826067Y-81934776D01*
X187822684Y-81935721D01*
X187822682Y-81935721D01*
X187787747Y-81945475D01*
X187488589Y-82029001D01*
X187485341Y-82030313D01*
X187485333Y-82030316D01*
X187166983Y-82158938D01*
X187166979Y-82158940D01*
X187163719Y-82160257D01*
X187160632Y-82161926D01*
X187160628Y-82161928D01*
X187131220Y-82177829D01*
X186855503Y-82326909D01*
X186567785Y-82526878D01*
X186565143Y-82529191D01*
X186565139Y-82529194D01*
X186492525Y-82592763D01*
X186304151Y-82757673D01*
X186230667Y-82838148D01*
X186096145Y-82985469D01*
X186067886Y-83016416D01*
X185861935Y-83299883D01*
X185688865Y-83604541D01*
X185648005Y-83699875D01*
X185554969Y-83916944D01*
X185550834Y-83926591D01*
X185539351Y-83964625D01*
X185458025Y-84233991D01*
X185449562Y-84262021D01*
X185436422Y-84333616D01*
X185391134Y-84580373D01*
X185386311Y-84606650D01*
X185361869Y-84956181D01*
X174439861Y-84956181D01*
X174429798Y-84866466D01*
X174423998Y-84849809D01*
X174377998Y-84717717D01*
X174375680Y-84711060D01*
X174350380Y-84670571D01*
X174331244Y-84602203D01*
X174352285Y-84534076D01*
X174416515Y-84437403D01*
X174474951Y-84283568D01*
X174489459Y-84180340D01*
X174497302Y-84124534D01*
X174497303Y-84124527D01*
X174497853Y-84120610D01*
X174497995Y-84110430D01*
X174498086Y-84103962D01*
X174498086Y-84103956D01*
X174498141Y-84100000D01*
X174479798Y-83936466D01*
X174425680Y-83781060D01*
X174403317Y-83745271D01*
X174342209Y-83647479D01*
X174338476Y-83641505D01*
X174262207Y-83564702D01*
X174227486Y-83529737D01*
X174227482Y-83529734D01*
X174222522Y-83524739D01*
X174083580Y-83436563D01*
X174006393Y-83409078D01*
X173935189Y-83383723D01*
X173935187Y-83383722D01*
X173928555Y-83381361D01*
X173921569Y-83380528D01*
X173921565Y-83380527D01*
X173807071Y-83366875D01*
X173765153Y-83361877D01*
X173758150Y-83362613D01*
X173758149Y-83362613D01*
X173714935Y-83367155D01*
X173601495Y-83379078D01*
X173594827Y-83381348D01*
X173452382Y-83429840D01*
X173452379Y-83429841D01*
X173445715Y-83432110D01*
X173409811Y-83454198D01*
X173360105Y-83484777D01*
X173291603Y-83503435D01*
X173226569Y-83483844D01*
X173189536Y-83460342D01*
X173189530Y-83460339D01*
X173183580Y-83456563D01*
X173103363Y-83427999D01*
X173035189Y-83403723D01*
X173035187Y-83403722D01*
X173028555Y-83401361D01*
X173021569Y-83400528D01*
X173021565Y-83400527D01*
X172895847Y-83385537D01*
X172865153Y-83381877D01*
X172858150Y-83382613D01*
X172858149Y-83382613D01*
X172830330Y-83385537D01*
X172701495Y-83399078D01*
X172694827Y-83401348D01*
X172552382Y-83449840D01*
X172552379Y-83449841D01*
X172545715Y-83452110D01*
X172408691Y-83536408D01*
X172407174Y-83537341D01*
X172338673Y-83555999D01*
X172273637Y-83536408D01*
X172174142Y-83473266D01*
X172163580Y-83466563D01*
X172096329Y-83442616D01*
X172015189Y-83413723D01*
X172015187Y-83413722D01*
X172008555Y-83411361D01*
X172001569Y-83410528D01*
X172001565Y-83410527D01*
X171881391Y-83396198D01*
X171845153Y-83391877D01*
X171838150Y-83392613D01*
X171838149Y-83392613D01*
X171804041Y-83396198D01*
X171681495Y-83409078D01*
X171674827Y-83411348D01*
X171532382Y-83459840D01*
X171532379Y-83459841D01*
X171525715Y-83462110D01*
X171385555Y-83548337D01*
X171345214Y-83587842D01*
X171284315Y-83647479D01*
X171267982Y-83663473D01*
X171178838Y-83801797D01*
X171176427Y-83808420D01*
X171176426Y-83808423D01*
X171124966Y-83949809D01*
X171124965Y-83949814D01*
X171122556Y-83956432D01*
X171101931Y-84119694D01*
X165983422Y-84119694D01*
X165983422Y-84108767D01*
X165983949Y-84097584D01*
X165985624Y-84090091D01*
X165983484Y-84022000D01*
X165983422Y-84018043D01*
X165983422Y-83990144D01*
X165982918Y-83986153D01*
X165981985Y-83974311D01*
X165980845Y-83938036D01*
X165980596Y-83930111D01*
X165978384Y-83922497D01*
X165978383Y-83922492D01*
X165974945Y-83910659D01*
X165970934Y-83891295D01*
X165969389Y-83879064D01*
X165968396Y-83871203D01*
X165965479Y-83863836D01*
X165965478Y-83863831D01*
X165952120Y-83830092D01*
X165948276Y-83818865D01*
X165938152Y-83784022D01*
X165935940Y-83776407D01*
X165925629Y-83758972D01*
X165916934Y-83741224D01*
X165909474Y-83722383D01*
X165883486Y-83686613D01*
X165876970Y-83676693D01*
X165858502Y-83645465D01*
X165858500Y-83645462D01*
X165854464Y-83638638D01*
X165840143Y-83624317D01*
X165827302Y-83609283D01*
X165820053Y-83599306D01*
X165815394Y-83592893D01*
X165781317Y-83564702D01*
X165772538Y-83556712D01*
X163352044Y-81136217D01*
X163318018Y-81073905D01*
X163315829Y-81060292D01*
X163299154Y-80901635D01*
X163299154Y-80901633D01*
X163298464Y-80895072D01*
X163239449Y-80713444D01*
X163234418Y-80704729D01*
X163147263Y-80553774D01*
X163143962Y-80548056D01*
X163135605Y-80538774D01*
X163020597Y-80411045D01*
X163020596Y-80411044D01*
X163016175Y-80406134D01*
X162861674Y-80293882D01*
X162855646Y-80291198D01*
X162855644Y-80291197D01*
X162693241Y-80218891D01*
X162693240Y-80218891D01*
X162687210Y-80216206D01*
X162593810Y-80196353D01*
X162506866Y-80177872D01*
X162506861Y-80177872D01*
X162500409Y-80176500D01*
X162309435Y-80176500D01*
X162302983Y-80177872D01*
X162302978Y-80177872D01*
X162216035Y-80196353D01*
X162122634Y-80216206D01*
X162116604Y-80218891D01*
X162116603Y-80218891D01*
X161954200Y-80291197D01*
X161954198Y-80291198D01*
X161948170Y-80293882D01*
X161793669Y-80406134D01*
X161789248Y-80411044D01*
X161789247Y-80411045D01*
X161674240Y-80538774D01*
X161665882Y-80548056D01*
X161662581Y-80553774D01*
X161575427Y-80704729D01*
X161570395Y-80713444D01*
X161511380Y-80895072D01*
X161491418Y-81085000D01*
X160221850Y-81085000D01*
X160222736Y-81076565D01*
X160223426Y-81070000D01*
X160222406Y-81060292D01*
X160204154Y-80886635D01*
X160204154Y-80886633D01*
X160203464Y-80880072D01*
X160144449Y-80698444D01*
X160048962Y-80533056D01*
X159921175Y-80391134D01*
X159822079Y-80319136D01*
X159772016Y-80282763D01*
X159772015Y-80282762D01*
X159766674Y-80278882D01*
X159760646Y-80276198D01*
X159760644Y-80276197D01*
X159598241Y-80203891D01*
X159598240Y-80203891D01*
X159592210Y-80201206D01*
X159482433Y-80177872D01*
X159411866Y-80162872D01*
X159411861Y-80162872D01*
X159405409Y-80161500D01*
X159214435Y-80161500D01*
X159207983Y-80162872D01*
X159207978Y-80162872D01*
X159137411Y-80177872D01*
X159027634Y-80201206D01*
X159021604Y-80203891D01*
X159021603Y-80203891D01*
X158859200Y-80276197D01*
X158859198Y-80276198D01*
X158853170Y-80278882D01*
X158847829Y-80282762D01*
X158847828Y-80282763D01*
X158797765Y-80319136D01*
X158698669Y-80391134D01*
X158570882Y-80533056D01*
X158475395Y-80698444D01*
X158416380Y-80880072D01*
X158415690Y-80886633D01*
X158415690Y-80886635D01*
X158397438Y-81060292D01*
X158396418Y-81070000D01*
X148605904Y-81070000D01*
X152352247Y-77323657D01*
X152360537Y-77316113D01*
X152367018Y-77312000D01*
X152413659Y-77262332D01*
X152416413Y-77259491D01*
X152436134Y-77239770D01*
X152438612Y-77236575D01*
X152446318Y-77227553D01*
X152471158Y-77201101D01*
X152476586Y-77195321D01*
X152486346Y-77177568D01*
X152497199Y-77161045D01*
X152504753Y-77151306D01*
X152509613Y-77145041D01*
X152527176Y-77104457D01*
X152532383Y-77093827D01*
X152553695Y-77055060D01*
X152555666Y-77047383D01*
X152555668Y-77047378D01*
X152558732Y-77035442D01*
X152565138Y-77016730D01*
X152566336Y-77013963D01*
X152573181Y-76998145D01*
X152574421Y-76990317D01*
X152574423Y-76990310D01*
X152580099Y-76954476D01*
X152582505Y-76942856D01*
X152591528Y-76907711D01*
X152591528Y-76907710D01*
X152593500Y-76900030D01*
X152593500Y-76879776D01*
X152595051Y-76860065D01*
X152596980Y-76847886D01*
X152598220Y-76840057D01*
X152594059Y-76796038D01*
X152593500Y-76784181D01*
X152593500Y-76367095D01*
X153842001Y-76367095D01*
X153842338Y-76373614D01*
X153852257Y-76469206D01*
X153855149Y-76482600D01*
X153906588Y-76636784D01*
X153912761Y-76649962D01*
X153998063Y-76787807D01*
X154007099Y-76799208D01*
X154121829Y-76913739D01*
X154133240Y-76922751D01*
X154271243Y-77007816D01*
X154284424Y-77013963D01*
X154438710Y-77065138D01*
X154452086Y-77068005D01*
X154546438Y-77077672D01*
X154552854Y-77078000D01*
X154802885Y-77078000D01*
X154818124Y-77073525D01*
X154819329Y-77072135D01*
X154821000Y-77064452D01*
X154821000Y-77059884D01*
X155329000Y-77059884D01*
X155333475Y-77075123D01*
X155334865Y-77076328D01*
X155342548Y-77077999D01*
X155597095Y-77077999D01*
X155603614Y-77077662D01*
X155699206Y-77067743D01*
X155712600Y-77064851D01*
X155866784Y-77013412D01*
X155879962Y-77007239D01*
X155988618Y-76940000D01*
X166486496Y-76940000D01*
X166487186Y-76946565D01*
X166503783Y-77104473D01*
X166506458Y-77129928D01*
X166565473Y-77311556D01*
X166568776Y-77317278D01*
X166568777Y-77317279D01*
X166602686Y-77376010D01*
X166660960Y-77476944D01*
X166788747Y-77618866D01*
X166887843Y-77690864D01*
X166937904Y-77727235D01*
X166943248Y-77731118D01*
X166949276Y-77733802D01*
X166949278Y-77733803D01*
X167111681Y-77806109D01*
X167117712Y-77808794D01*
X167191603Y-77824500D01*
X167298056Y-77847128D01*
X167298061Y-77847128D01*
X167304513Y-77848500D01*
X167495487Y-77848500D01*
X167501939Y-77847128D01*
X167501944Y-77847128D01*
X167608397Y-77824500D01*
X167682288Y-77808794D01*
X167688319Y-77806109D01*
X167850722Y-77733803D01*
X167850724Y-77733802D01*
X167856752Y-77731118D01*
X167862091Y-77727239D01*
X167862098Y-77727235D01*
X167868528Y-77722563D01*
X167942587Y-77698500D01*
X169625500Y-77698500D01*
X169693621Y-77718502D01*
X169740114Y-77772158D01*
X169751500Y-77824500D01*
X169751500Y-78488134D01*
X169758255Y-78550316D01*
X169809385Y-78686705D01*
X169896739Y-78803261D01*
X170013295Y-78890615D01*
X170149684Y-78941745D01*
X170211866Y-78948500D01*
X183308134Y-78948500D01*
X183370316Y-78941745D01*
X183506705Y-78890615D01*
X183623261Y-78803261D01*
X183710615Y-78686705D01*
X183761745Y-78550316D01*
X183768500Y-78488134D01*
X183768500Y-75391866D01*
X183761745Y-75329684D01*
X183710615Y-75193295D01*
X183623261Y-75076739D01*
X183506705Y-74989385D01*
X183370316Y-74938255D01*
X183308134Y-74931500D01*
X170211866Y-74931500D01*
X170149684Y-74938255D01*
X170013295Y-74989385D01*
X169896739Y-75076739D01*
X169809385Y-75193295D01*
X169758255Y-75329684D01*
X169751500Y-75391866D01*
X169751500Y-76055500D01*
X169731498Y-76123621D01*
X169677842Y-76170114D01*
X169625500Y-76181500D01*
X167942587Y-76181500D01*
X167868528Y-76157437D01*
X167862098Y-76152765D01*
X167862091Y-76152761D01*
X167856752Y-76148882D01*
X167850724Y-76146198D01*
X167850722Y-76146197D01*
X167688319Y-76073891D01*
X167688318Y-76073891D01*
X167682288Y-76071206D01*
X167588887Y-76051353D01*
X167501944Y-76032872D01*
X167501939Y-76032872D01*
X167495487Y-76031500D01*
X167304513Y-76031500D01*
X167298061Y-76032872D01*
X167298056Y-76032872D01*
X167211113Y-76051353D01*
X167117712Y-76071206D01*
X167111682Y-76073891D01*
X167111681Y-76073891D01*
X166949278Y-76146197D01*
X166949276Y-76146198D01*
X166943248Y-76148882D01*
X166937907Y-76152762D01*
X166937906Y-76152763D01*
X166931473Y-76157437D01*
X166788747Y-76261134D01*
X166784326Y-76266044D01*
X166784325Y-76266045D01*
X166687470Y-76373614D01*
X166660960Y-76403056D01*
X166565473Y-76568444D01*
X166506458Y-76750072D01*
X166505768Y-76756633D01*
X166505768Y-76756635D01*
X166495772Y-76851745D01*
X166486496Y-76940000D01*
X155988618Y-76940000D01*
X156017807Y-76921937D01*
X156029208Y-76912901D01*
X156143739Y-76798171D01*
X156152751Y-76786760D01*
X156237816Y-76648757D01*
X156243963Y-76635576D01*
X156295138Y-76481290D01*
X156298005Y-76467914D01*
X156307672Y-76373562D01*
X156308000Y-76367146D01*
X156308000Y-76342115D01*
X156303525Y-76326876D01*
X156302135Y-76325671D01*
X156294452Y-76324000D01*
X155347115Y-76324000D01*
X155331876Y-76328475D01*
X155330671Y-76329865D01*
X155329000Y-76337548D01*
X155329000Y-77059884D01*
X154821000Y-77059884D01*
X154821000Y-76342115D01*
X154816525Y-76326876D01*
X154815135Y-76325671D01*
X154807452Y-76324000D01*
X153860116Y-76324000D01*
X153844877Y-76328475D01*
X153843672Y-76329865D01*
X153842001Y-76337548D01*
X153842001Y-76367095D01*
X152593500Y-76367095D01*
X152593500Y-75754884D01*
X152894000Y-75754884D01*
X152898475Y-75770123D01*
X152899865Y-75771328D01*
X152907548Y-75772999D01*
X152984669Y-75772999D01*
X152991490Y-75772629D01*
X153042352Y-75767105D01*
X153057604Y-75763479D01*
X153178054Y-75718324D01*
X153193649Y-75709786D01*
X153295724Y-75633285D01*
X153308285Y-75620724D01*
X153384786Y-75518649D01*
X153393324Y-75503054D01*
X153438478Y-75382606D01*
X153442105Y-75367351D01*
X153447631Y-75316486D01*
X153448000Y-75309672D01*
X153448000Y-75177115D01*
X153443525Y-75161876D01*
X153442135Y-75160671D01*
X153434452Y-75159000D01*
X152912115Y-75159000D01*
X152896876Y-75163475D01*
X152895671Y-75164865D01*
X152894000Y-75172548D01*
X152894000Y-75754884D01*
X152593500Y-75754884D01*
X152593500Y-74929500D01*
X152613502Y-74861379D01*
X152667158Y-74814886D01*
X152719500Y-74803500D01*
X152988134Y-74803500D01*
X153050316Y-74796745D01*
X153186705Y-74745615D01*
X153279360Y-74676174D01*
X153345866Y-74651326D01*
X153354925Y-74651000D01*
X153429884Y-74651000D01*
X153445123Y-74646525D01*
X153446328Y-74645135D01*
X153447999Y-74637452D01*
X153447999Y-74500331D01*
X153447629Y-74493510D01*
X153441252Y-74434793D01*
X153443998Y-74434495D01*
X153443940Y-74405554D01*
X153441745Y-74405316D01*
X153448131Y-74346531D01*
X153448500Y-74343134D01*
X153448500Y-73724500D01*
X153468502Y-73656379D01*
X153522158Y-73609886D01*
X153574500Y-73598500D01*
X153732932Y-73598500D01*
X153801053Y-73618502D01*
X153847546Y-73672158D01*
X153857650Y-73742432D01*
X153855441Y-73751807D01*
X153855810Y-73751886D01*
X153854368Y-73758612D01*
X153852203Y-73765139D01*
X153841500Y-73869600D01*
X153841500Y-74470400D01*
X153841837Y-74473646D01*
X153841837Y-74473650D01*
X153844606Y-74500331D01*
X153852474Y-74576166D01*
X153908450Y-74743946D01*
X154001522Y-74894348D01*
X154126697Y-75019305D01*
X154131235Y-75022102D01*
X154171824Y-75079353D01*
X154175054Y-75150276D01*
X154139428Y-75211687D01*
X154130932Y-75219062D01*
X154120793Y-75227098D01*
X154006261Y-75341829D01*
X153997249Y-75353240D01*
X153912184Y-75491243D01*
X153906037Y-75504424D01*
X153854862Y-75658710D01*
X153851995Y-75672086D01*
X153842328Y-75766438D01*
X153842000Y-75772855D01*
X153842000Y-75797885D01*
X153846475Y-75813124D01*
X153847865Y-75814329D01*
X153855548Y-75816000D01*
X156289884Y-75816000D01*
X156305123Y-75811525D01*
X156306328Y-75810135D01*
X156307999Y-75802452D01*
X156307999Y-75772905D01*
X156307662Y-75766386D01*
X156297743Y-75670794D01*
X156294851Y-75657400D01*
X156243412Y-75503216D01*
X156237239Y-75490038D01*
X156151937Y-75352193D01*
X156142901Y-75340792D01*
X156028172Y-75226262D01*
X156019238Y-75219206D01*
X155978177Y-75161288D01*
X155974947Y-75090365D01*
X156010574Y-75028954D01*
X156018407Y-75022154D01*
X156024348Y-75018478D01*
X156149305Y-74893303D01*
X156208299Y-74797598D01*
X156238275Y-74748968D01*
X156238276Y-74748966D01*
X156242115Y-74742738D01*
X156297797Y-74574861D01*
X156308500Y-74470400D01*
X156308500Y-73869600D01*
X156297526Y-73763834D01*
X156293514Y-73751807D01*
X156243868Y-73603002D01*
X156241550Y-73596054D01*
X156148478Y-73445652D01*
X156143296Y-73440479D01*
X156143292Y-73440474D01*
X156131892Y-73429094D01*
X156097812Y-73366812D01*
X156102815Y-73295992D01*
X156131735Y-73250904D01*
X156144133Y-73238484D01*
X156149305Y-73233303D01*
X156167749Y-73203382D01*
X156220522Y-73155890D01*
X156275008Y-73143500D01*
X156601800Y-73143500D01*
X156669921Y-73163502D01*
X156689147Y-73179843D01*
X156689420Y-73179540D01*
X156694332Y-73183963D01*
X156698747Y-73188866D01*
X156718726Y-73203382D01*
X156846193Y-73295992D01*
X156853248Y-73301118D01*
X156859276Y-73303802D01*
X156859278Y-73303803D01*
X157021681Y-73376109D01*
X157027712Y-73378794D01*
X157121113Y-73398647D01*
X157208056Y-73417128D01*
X157208061Y-73417128D01*
X157214513Y-73418500D01*
X157405487Y-73418500D01*
X157411939Y-73417128D01*
X157411944Y-73417128D01*
X157498887Y-73398647D01*
X157592288Y-73378794D01*
X157598319Y-73376109D01*
X157760722Y-73303803D01*
X157760724Y-73303802D01*
X157766752Y-73301118D01*
X157773808Y-73295992D01*
X157868666Y-73227073D01*
X157921253Y-73188866D01*
X158049040Y-73046944D01*
X158144527Y-72881556D01*
X158203542Y-72699928D01*
X158223504Y-72510000D01*
X158203542Y-72320072D01*
X158144527Y-72138444D01*
X158049040Y-71973056D01*
X158011202Y-71931032D01*
X157925675Y-71836045D01*
X157925674Y-71836044D01*
X157921253Y-71831134D01*
X157793236Y-71738124D01*
X157772094Y-71722763D01*
X157772093Y-71722762D01*
X157766752Y-71718882D01*
X157760724Y-71716198D01*
X157760722Y-71716197D01*
X157598319Y-71643891D01*
X157598318Y-71643891D01*
X157592288Y-71641206D01*
X157498888Y-71621353D01*
X157411944Y-71602872D01*
X157411939Y-71602872D01*
X157405487Y-71601500D01*
X157214513Y-71601500D01*
X157208061Y-71602872D01*
X157208056Y-71602872D01*
X157121112Y-71621353D01*
X157027712Y-71641206D01*
X157021682Y-71643891D01*
X157021681Y-71643891D01*
X156859278Y-71716197D01*
X156859276Y-71716198D01*
X156853248Y-71718882D01*
X156847907Y-71722762D01*
X156847906Y-71722763D01*
X156826764Y-71738124D01*
X156698747Y-71831134D01*
X156694332Y-71836037D01*
X156689420Y-71840460D01*
X156688295Y-71839211D01*
X156634986Y-71872051D01*
X156601800Y-71876500D01*
X156274899Y-71876500D01*
X156206778Y-71856498D01*
X156167755Y-71816803D01*
X156152332Y-71791880D01*
X156148478Y-71785652D01*
X156023303Y-71660695D01*
X156018765Y-71657898D01*
X155978176Y-71600647D01*
X155974946Y-71529724D01*
X156010572Y-71468313D01*
X156019068Y-71460938D01*
X156029207Y-71452902D01*
X156143739Y-71338171D01*
X156152751Y-71326760D01*
X156237816Y-71188757D01*
X156243963Y-71175576D01*
X156295138Y-71021290D01*
X156298005Y-71007914D01*
X156307672Y-70913562D01*
X156308000Y-70907146D01*
X156308000Y-70882115D01*
X156303525Y-70866876D01*
X156302135Y-70865671D01*
X156294452Y-70864000D01*
X153860116Y-70864000D01*
X153844877Y-70868475D01*
X153843672Y-70869865D01*
X153842001Y-70877548D01*
X153842001Y-70907095D01*
X153842338Y-70913614D01*
X153852257Y-71009206D01*
X153855149Y-71022600D01*
X153906588Y-71176784D01*
X153912761Y-71189962D01*
X153998063Y-71327807D01*
X154007099Y-71339208D01*
X154121828Y-71453738D01*
X154130762Y-71460794D01*
X154171823Y-71518712D01*
X154175053Y-71589635D01*
X154139426Y-71651046D01*
X154131593Y-71657846D01*
X154125652Y-71661522D01*
X154000695Y-71786697D01*
X153996855Y-71792927D01*
X153996854Y-71792928D01*
X153973304Y-71831134D01*
X153907885Y-71937262D01*
X153852203Y-72105139D01*
X153851503Y-72111975D01*
X153851502Y-72111978D01*
X153847480Y-72151233D01*
X153841500Y-72209600D01*
X153841500Y-72212063D01*
X153818090Y-72278944D01*
X153762131Y-72322637D01*
X153715709Y-72331500D01*
X153561227Y-72331500D01*
X153493106Y-72311498D01*
X153446613Y-72257842D01*
X153444800Y-72252980D01*
X153442135Y-72250671D01*
X153434452Y-72249000D01*
X153354925Y-72249000D01*
X153286804Y-72228998D01*
X153279360Y-72223826D01*
X153253268Y-72204271D01*
X153186705Y-72154385D01*
X153050316Y-72103255D01*
X152988134Y-72096500D01*
X152624500Y-72096500D01*
X152556379Y-72076498D01*
X152509886Y-72022842D01*
X152498500Y-71970500D01*
X152498500Y-71722885D01*
X152894000Y-71722885D01*
X152898475Y-71738124D01*
X152899865Y-71739329D01*
X152907548Y-71741000D01*
X153429884Y-71741000D01*
X153445123Y-71736525D01*
X153446328Y-71735135D01*
X153447999Y-71727452D01*
X153447999Y-71590331D01*
X153447629Y-71583510D01*
X153442105Y-71532648D01*
X153438479Y-71517396D01*
X153393324Y-71396946D01*
X153384786Y-71381351D01*
X153308285Y-71279276D01*
X153295724Y-71266715D01*
X153193649Y-71190214D01*
X153178054Y-71181676D01*
X153057606Y-71136522D01*
X153042351Y-71132895D01*
X152991486Y-71127369D01*
X152984672Y-71127000D01*
X152912115Y-71127000D01*
X152896876Y-71131475D01*
X152895671Y-71132865D01*
X152894000Y-71140548D01*
X152894000Y-71722885D01*
X152498500Y-71722885D01*
X152498500Y-70337885D01*
X153842000Y-70337885D01*
X153846475Y-70353124D01*
X153847865Y-70354329D01*
X153855548Y-70356000D01*
X154802885Y-70356000D01*
X154818124Y-70351525D01*
X154819329Y-70350135D01*
X154821000Y-70342452D01*
X154821000Y-70337885D01*
X155329000Y-70337885D01*
X155333475Y-70353124D01*
X155334865Y-70354329D01*
X155342548Y-70356000D01*
X156289884Y-70356000D01*
X156305123Y-70351525D01*
X156306328Y-70350135D01*
X156307999Y-70342452D01*
X156307999Y-70312905D01*
X156307662Y-70306386D01*
X156297743Y-70210794D01*
X156294851Y-70197400D01*
X156243412Y-70043216D01*
X156237239Y-70030038D01*
X156151937Y-69892193D01*
X156142901Y-69880792D01*
X156028171Y-69766261D01*
X156016760Y-69757249D01*
X155878757Y-69672184D01*
X155865576Y-69666037D01*
X155711290Y-69614862D01*
X155697914Y-69611995D01*
X155603562Y-69602328D01*
X155597145Y-69602000D01*
X155347115Y-69602000D01*
X155331876Y-69606475D01*
X155330671Y-69607865D01*
X155329000Y-69615548D01*
X155329000Y-70337885D01*
X154821000Y-70337885D01*
X154821000Y-69620116D01*
X154816525Y-69604877D01*
X154815135Y-69603672D01*
X154807452Y-69602001D01*
X154552905Y-69602001D01*
X154546386Y-69602338D01*
X154450794Y-69612257D01*
X154437400Y-69615149D01*
X154283216Y-69666588D01*
X154270038Y-69672761D01*
X154132193Y-69758063D01*
X154120792Y-69767099D01*
X154006261Y-69881829D01*
X153997249Y-69893240D01*
X153912184Y-70031243D01*
X153906037Y-70044424D01*
X153854862Y-70198710D01*
X153851995Y-70212086D01*
X153842328Y-70306438D01*
X153842000Y-70312855D01*
X153842000Y-70337885D01*
X152498500Y-70337885D01*
X152498500Y-69312588D01*
X152518502Y-69244467D01*
X152572158Y-69197974D01*
X152642432Y-69187870D01*
X152707012Y-69217364D01*
X152733619Y-69249588D01*
X152760960Y-69296944D01*
X152888747Y-69438866D01*
X153043248Y-69551118D01*
X153049276Y-69553802D01*
X153049278Y-69553803D01*
X153211681Y-69626109D01*
X153217712Y-69628794D01*
X153311112Y-69648647D01*
X153398056Y-69667128D01*
X153398061Y-69667128D01*
X153404513Y-69668500D01*
X153595487Y-69668500D01*
X153601939Y-69667128D01*
X153601944Y-69667128D01*
X153688888Y-69648647D01*
X153782288Y-69628794D01*
X153788319Y-69626109D01*
X153950722Y-69553803D01*
X153950724Y-69553802D01*
X153956752Y-69551118D01*
X154111253Y-69438866D01*
X154239040Y-69296944D01*
X154311677Y-69171134D01*
X154331223Y-69137279D01*
X154331224Y-69137278D01*
X154334527Y-69131556D01*
X154393542Y-68949928D01*
X154399304Y-68895111D01*
X154412814Y-68766565D01*
X154413504Y-68760000D01*
X154405872Y-68687383D01*
X154394232Y-68576635D01*
X154394232Y-68576633D01*
X154393542Y-68570072D01*
X154339398Y-68403435D01*
X154337370Y-68332469D01*
X154374033Y-68271671D01*
X154437745Y-68240345D01*
X154459231Y-68238500D01*
X155103134Y-68238500D01*
X155165316Y-68231745D01*
X155301705Y-68180615D01*
X155418261Y-68093261D01*
X155505615Y-67976705D01*
X155556745Y-67840316D01*
X155563500Y-67778134D01*
X155563500Y-67381866D01*
X155559344Y-67343606D01*
X155559344Y-67316393D01*
X155563131Y-67281533D01*
X155563131Y-67281529D01*
X155563500Y-67278134D01*
X155563500Y-66881866D01*
X155559344Y-66843606D01*
X155559344Y-66816393D01*
X155563131Y-66781533D01*
X155563131Y-66781529D01*
X155563500Y-66778134D01*
X155563500Y-66381866D01*
X155559091Y-66341280D01*
X155559091Y-66314067D01*
X155562631Y-66281483D01*
X155563000Y-66274672D01*
X155563000Y-66248115D01*
X155558525Y-66232876D01*
X155532830Y-66210611D01*
X155533288Y-66210082D01*
X155520900Y-66203318D01*
X155505793Y-66183161D01*
X155505615Y-66183295D01*
X155466003Y-66130441D01*
X155441155Y-66063935D01*
X155456208Y-65994552D01*
X155506382Y-65944322D01*
X155531330Y-65933980D01*
X155560123Y-65925525D01*
X155561328Y-65924135D01*
X155562999Y-65916452D01*
X155562999Y-65885331D01*
X155562629Y-65878510D01*
X155557105Y-65827648D01*
X155553479Y-65812396D01*
X155508324Y-65691946D01*
X155499786Y-65676351D01*
X155423285Y-65574276D01*
X155410724Y-65561715D01*
X155303843Y-65481612D01*
X155261328Y-65424753D01*
X155256302Y-65353934D01*
X155290235Y-65291768D01*
X155343739Y-65238171D01*
X155352751Y-65226760D01*
X155437816Y-65088757D01*
X155443963Y-65075576D01*
X155495138Y-64921290D01*
X155498005Y-64907914D01*
X155507672Y-64813562D01*
X155508000Y-64807146D01*
X155508000Y-64557115D01*
X155503525Y-64541876D01*
X155502135Y-64540671D01*
X155494452Y-64539000D01*
X154372000Y-64539000D01*
X154303879Y-64518998D01*
X154257386Y-64465342D01*
X154246000Y-64413000D01*
X154246000Y-64012885D01*
X154754000Y-64012885D01*
X154758475Y-64028124D01*
X154759865Y-64029329D01*
X154767548Y-64031000D01*
X155489884Y-64031000D01*
X155505123Y-64026525D01*
X155506328Y-64025135D01*
X155507999Y-64017452D01*
X155507999Y-63762905D01*
X155507662Y-63756386D01*
X155497743Y-63660794D01*
X155494851Y-63647400D01*
X155443412Y-63493216D01*
X155437239Y-63480038D01*
X155351937Y-63342193D01*
X155342901Y-63330792D01*
X155228171Y-63216261D01*
X155216760Y-63207249D01*
X155078757Y-63122184D01*
X155065576Y-63116037D01*
X154911290Y-63064862D01*
X154897914Y-63061995D01*
X154803562Y-63052328D01*
X154797145Y-63052000D01*
X154772115Y-63052000D01*
X154756876Y-63056475D01*
X154755671Y-63057865D01*
X154754000Y-63065548D01*
X154754000Y-64012885D01*
X154246000Y-64012885D01*
X154246000Y-63070116D01*
X154241525Y-63054877D01*
X154240135Y-63053672D01*
X154232452Y-63052001D01*
X154202905Y-63052001D01*
X154196386Y-63052338D01*
X154100794Y-63062257D01*
X154087400Y-63065149D01*
X153933216Y-63116588D01*
X153920038Y-63122761D01*
X153782193Y-63208063D01*
X153770792Y-63217099D01*
X153656262Y-63331828D01*
X153649206Y-63340762D01*
X153591288Y-63381823D01*
X153520365Y-63385053D01*
X153458954Y-63349426D01*
X153452154Y-63341593D01*
X153448478Y-63335652D01*
X153323303Y-63210695D01*
X153317072Y-63206854D01*
X153178968Y-63121725D01*
X153178966Y-63121724D01*
X153172738Y-63117885D01*
X153092995Y-63091436D01*
X153011389Y-63064368D01*
X153011387Y-63064368D01*
X153004861Y-63062203D01*
X152998025Y-63061503D01*
X152998022Y-63061502D01*
X152954969Y-63057091D01*
X152900400Y-63051500D01*
X152299600Y-63051500D01*
X152296354Y-63051837D01*
X152296350Y-63051837D01*
X152200692Y-63061762D01*
X152200688Y-63061763D01*
X152193834Y-63062474D01*
X152187298Y-63064655D01*
X152187296Y-63064655D01*
X152170928Y-63070116D01*
X152026054Y-63118450D01*
X151875652Y-63211522D01*
X151750695Y-63336697D01*
X151657885Y-63487262D01*
X151602203Y-63655139D01*
X151591500Y-63759600D01*
X151591500Y-64810400D01*
X151591837Y-64813646D01*
X151591837Y-64813650D01*
X151601618Y-64907914D01*
X151602474Y-64916166D01*
X151658450Y-65083946D01*
X151662306Y-65090177D01*
X151748334Y-65229197D01*
X151767172Y-65297649D01*
X151746011Y-65365419D01*
X151691570Y-65410990D01*
X151641190Y-65421500D01*
X151356866Y-65421500D01*
X151294684Y-65428255D01*
X151267404Y-65438482D01*
X151223174Y-65446500D01*
X151047372Y-65446500D01*
X151036189Y-65445973D01*
X151028696Y-65444298D01*
X151020770Y-65444547D01*
X151020769Y-65444547D01*
X150960606Y-65446438D01*
X150956648Y-65446500D01*
X150928748Y-65446500D01*
X150924758Y-65447004D01*
X150912924Y-65447936D01*
X150868715Y-65449326D01*
X150861101Y-65451538D01*
X150861096Y-65451539D01*
X150849263Y-65454977D01*
X150829900Y-65458988D01*
X150809807Y-65461526D01*
X150802440Y-65464443D01*
X150802435Y-65464444D01*
X150768696Y-65477802D01*
X150757469Y-65481646D01*
X150715011Y-65493982D01*
X150708185Y-65498019D01*
X150697576Y-65504293D01*
X150679828Y-65512988D01*
X150660987Y-65520448D01*
X150654571Y-65525110D01*
X150654570Y-65525110D01*
X150625217Y-65546436D01*
X150615297Y-65552952D01*
X150584069Y-65571420D01*
X150584066Y-65571422D01*
X150577242Y-65575458D01*
X150562921Y-65589779D01*
X150547888Y-65602619D01*
X150531497Y-65614528D01*
X150526446Y-65620633D01*
X150526441Y-65620638D01*
X150503305Y-65648604D01*
X150495317Y-65657382D01*
X149697747Y-66454952D01*
X149689461Y-66462492D01*
X149682982Y-66466604D01*
X149677557Y-66472381D01*
X149636357Y-66516255D01*
X149633602Y-66519097D01*
X149613865Y-66538834D01*
X149611385Y-66542031D01*
X149603682Y-66551051D01*
X149573414Y-66583283D01*
X149569595Y-66590229D01*
X149569593Y-66590232D01*
X149563652Y-66601038D01*
X149552801Y-66617557D01*
X149540386Y-66633563D01*
X149537241Y-66640832D01*
X149537238Y-66640836D01*
X149522826Y-66674141D01*
X149517609Y-66684791D01*
X149496305Y-66723544D01*
X149494334Y-66731219D01*
X149494334Y-66731220D01*
X149491267Y-66743166D01*
X149484863Y-66761870D01*
X149476819Y-66780459D01*
X149475580Y-66788282D01*
X149475577Y-66788292D01*
X149469901Y-66824128D01*
X149467495Y-66835748D01*
X149458472Y-66870893D01*
X149456500Y-66878574D01*
X149456500Y-66898828D01*
X149454949Y-66918538D01*
X149451780Y-66938547D01*
X149452526Y-66946439D01*
X149455941Y-66982565D01*
X149456500Y-66994423D01*
X149456500Y-74241233D01*
X149455973Y-74252416D01*
X149454298Y-74259909D01*
X149454547Y-74267835D01*
X149454547Y-74267836D01*
X149456438Y-74327986D01*
X149456500Y-74331945D01*
X149456500Y-74359856D01*
X149456997Y-74363790D01*
X149456997Y-74363791D01*
X149457005Y-74363856D01*
X149457938Y-74375693D01*
X149459327Y-74419889D01*
X149463657Y-74434793D01*
X149464978Y-74439339D01*
X149468987Y-74458700D01*
X149470053Y-74467134D01*
X149471526Y-74478797D01*
X149474445Y-74486168D01*
X149474445Y-74486170D01*
X149487804Y-74519912D01*
X149491649Y-74531142D01*
X149503982Y-74573593D01*
X149508015Y-74580412D01*
X149508017Y-74580417D01*
X149514293Y-74591028D01*
X149522988Y-74608776D01*
X149530448Y-74627617D01*
X149535110Y-74634033D01*
X149535110Y-74634034D01*
X149556436Y-74663387D01*
X149562952Y-74673307D01*
X149585458Y-74711362D01*
X149599779Y-74725683D01*
X149612619Y-74740716D01*
X149624528Y-74757107D01*
X149656413Y-74783484D01*
X149658593Y-74785288D01*
X149667374Y-74793278D01*
X150171353Y-75297258D01*
X150178887Y-75305537D01*
X150183000Y-75312018D01*
X150226897Y-75353240D01*
X150232651Y-75358643D01*
X150235493Y-75361398D01*
X150255230Y-75381135D01*
X150258427Y-75383615D01*
X150267447Y-75391318D01*
X150299679Y-75421586D01*
X150306625Y-75425405D01*
X150306628Y-75425407D01*
X150317434Y-75431348D01*
X150333953Y-75442199D01*
X150349959Y-75454614D01*
X150388863Y-75471449D01*
X150443434Y-75516858D01*
X150464795Y-75584565D01*
X150446159Y-75653072D01*
X150427915Y-75676180D01*
X142937747Y-83166348D01*
X142929461Y-83173888D01*
X142922982Y-83178000D01*
X142917557Y-83183777D01*
X142876357Y-83227651D01*
X142873602Y-83230493D01*
X142853865Y-83250230D01*
X142851385Y-83253427D01*
X142843682Y-83262447D01*
X142813414Y-83294679D01*
X142809595Y-83301625D01*
X142809593Y-83301628D01*
X142803652Y-83312434D01*
X142792801Y-83328953D01*
X142780386Y-83344959D01*
X142777241Y-83352228D01*
X142777238Y-83352232D01*
X142762826Y-83385537D01*
X142757609Y-83396187D01*
X142736305Y-83434940D01*
X142731897Y-83452110D01*
X142731267Y-83454562D01*
X142724863Y-83473266D01*
X142720286Y-83483844D01*
X142716819Y-83491855D01*
X142715580Y-83499678D01*
X142715577Y-83499688D01*
X142709901Y-83535524D01*
X142707495Y-83547144D01*
X142702987Y-83564702D01*
X142696500Y-83589970D01*
X142696500Y-83610224D01*
X142694949Y-83629934D01*
X142691780Y-83649943D01*
X142692526Y-83657835D01*
X142695941Y-83693961D01*
X142696500Y-83705819D01*
X142696500Y-87718582D01*
X142676498Y-87786703D01*
X142664137Y-87802891D01*
X142600960Y-87873056D01*
X142505473Y-88038444D01*
X142446458Y-88220072D01*
X142426496Y-88410000D01*
X110633974Y-88410000D01*
X110569075Y-88345101D01*
X110535049Y-88282789D01*
X110540114Y-88211974D01*
X110582661Y-88155138D01*
X110653772Y-88130083D01*
X110740352Y-88127060D01*
X110780929Y-88125643D01*
X110780933Y-88125643D01*
X110784445Y-88125520D01*
X110787924Y-88125006D01*
X110787927Y-88125006D01*
X111127578Y-88074851D01*
X111127584Y-88074850D01*
X111131070Y-88074335D01*
X111134474Y-88073436D01*
X111134477Y-88073435D01*
X111466439Y-87985727D01*
X111466440Y-87985727D01*
X111469830Y-87984831D01*
X111796502Y-87858123D01*
X112107014Y-87695792D01*
X112348235Y-87533086D01*
X112394580Y-87501826D01*
X112394582Y-87501825D01*
X112397496Y-87499859D01*
X112664327Y-87272768D01*
X112749069Y-87182527D01*
X112901771Y-87019916D01*
X112901775Y-87019911D01*
X112904182Y-87017348D01*
X113114071Y-86736785D01*
X113119285Y-86727899D01*
X113187686Y-86611310D01*
X113291377Y-86434573D01*
X113307059Y-86399350D01*
X113432459Y-86117698D01*
X113432461Y-86117693D01*
X113433891Y-86114481D01*
X113539837Y-85780498D01*
X113607894Y-85436786D01*
X113621274Y-85277442D01*
X113637030Y-85089814D01*
X113637031Y-85089803D01*
X113637213Y-85087630D01*
X113637508Y-85066565D01*
X113638407Y-85002178D01*
X113638407Y-85002166D01*
X113638437Y-85000000D01*
X113637798Y-84988559D01*
X113624184Y-84745069D01*
X113618878Y-84650162D01*
X113600753Y-84543000D01*
X113561032Y-84308153D01*
X113561031Y-84308148D01*
X113560445Y-84304684D01*
X113463866Y-83967873D01*
X113404802Y-83824572D01*
X113331683Y-83647171D01*
X113331679Y-83647163D01*
X113330345Y-83643926D01*
X113161546Y-83336882D01*
X112959573Y-83050567D01*
X112897219Y-82980336D01*
X112729274Y-82791175D01*
X112729270Y-82791171D01*
X112726943Y-82788550D01*
X112724342Y-82786208D01*
X112724337Y-82786203D01*
X112469167Y-82556447D01*
X112469166Y-82556447D01*
X112466557Y-82554097D01*
X112428538Y-82526878D01*
X112184513Y-82352173D01*
X112184510Y-82352171D01*
X112181659Y-82350130D01*
X111875800Y-82179192D01*
X111552794Y-82043412D01*
X111549425Y-82042421D01*
X111549421Y-82042419D01*
X111292675Y-81966855D01*
X111216665Y-81944484D01*
X110919911Y-81892158D01*
X110875063Y-81884250D01*
X110875061Y-81884250D01*
X110871603Y-81883640D01*
X110868094Y-81883419D01*
X110868092Y-81883419D01*
X110525428Y-81861860D01*
X110525422Y-81861860D01*
X110521910Y-81861639D01*
X110424516Y-81866403D01*
X110175451Y-81878584D01*
X110175443Y-81878585D01*
X110171944Y-81878756D01*
X110168476Y-81879318D01*
X110168473Y-81879318D01*
X109829542Y-81934213D01*
X109829539Y-81934214D01*
X109826067Y-81934776D01*
X109822684Y-81935721D01*
X109822682Y-81935721D01*
X109787747Y-81945475D01*
X109488589Y-82029001D01*
X109485341Y-82030313D01*
X109485333Y-82030316D01*
X109166983Y-82158938D01*
X109166979Y-82158940D01*
X109163719Y-82160257D01*
X109160632Y-82161926D01*
X109160628Y-82161928D01*
X109131220Y-82177829D01*
X108855503Y-82326909D01*
X108567785Y-82526878D01*
X108565143Y-82529191D01*
X108565139Y-82529194D01*
X108492525Y-82592763D01*
X108304151Y-82757673D01*
X108230667Y-82838148D01*
X108096145Y-82985469D01*
X108067886Y-83016416D01*
X107861935Y-83299883D01*
X107688865Y-83604541D01*
X107648005Y-83699875D01*
X107554969Y-83916944D01*
X107550834Y-83926591D01*
X107539351Y-83964625D01*
X107458025Y-84233991D01*
X107449562Y-84262021D01*
X107436422Y-84333616D01*
X107391134Y-84580373D01*
X107386311Y-84606650D01*
X107383268Y-84650162D01*
X107369279Y-84850212D01*
X107344574Y-84916771D01*
X107287805Y-84959408D01*
X107216998Y-84964585D01*
X107154491Y-84930517D01*
X106445405Y-84221431D01*
X106411379Y-84159119D01*
X106408500Y-84132336D01*
X106408500Y-76398134D01*
X139611500Y-76398134D01*
X139618255Y-76460316D01*
X139669385Y-76596705D01*
X139756739Y-76713261D01*
X139873295Y-76800615D01*
X140009684Y-76851745D01*
X140071866Y-76858500D01*
X143168134Y-76858500D01*
X143230316Y-76851745D01*
X143366705Y-76800615D01*
X143483261Y-76713261D01*
X143570615Y-76596705D01*
X143621745Y-76460316D01*
X143628500Y-76398134D01*
X143628500Y-70734500D01*
X143648502Y-70666379D01*
X143702158Y-70619886D01*
X143754500Y-70608500D01*
X144787413Y-70608500D01*
X144861472Y-70632563D01*
X144867902Y-70637235D01*
X144867909Y-70637239D01*
X144873248Y-70641118D01*
X144879276Y-70643802D01*
X144879278Y-70643803D01*
X144929985Y-70666379D01*
X145047712Y-70718794D01*
X145121603Y-70734500D01*
X145228056Y-70757128D01*
X145228061Y-70757128D01*
X145234513Y-70758500D01*
X145425487Y-70758500D01*
X145431939Y-70757128D01*
X145431944Y-70757128D01*
X145538397Y-70734500D01*
X145612288Y-70718794D01*
X145730015Y-70666379D01*
X145780722Y-70643803D01*
X145780724Y-70643802D01*
X145786752Y-70641118D01*
X145792097Y-70637235D01*
X145842157Y-70600864D01*
X145941253Y-70528866D01*
X146069040Y-70386944D01*
X146164527Y-70221556D01*
X146223542Y-70039928D01*
X146224582Y-70030038D01*
X146242814Y-69856565D01*
X146243504Y-69850000D01*
X146223542Y-69660072D01*
X146164527Y-69478444D01*
X146143919Y-69442749D01*
X146072341Y-69318774D01*
X146069040Y-69313056D01*
X145985702Y-69220499D01*
X145945675Y-69176045D01*
X145945674Y-69176044D01*
X145941253Y-69171134D01*
X145831647Y-69091500D01*
X145792094Y-69062763D01*
X145792093Y-69062762D01*
X145786752Y-69058882D01*
X145780724Y-69056198D01*
X145780722Y-69056197D01*
X145618319Y-68983891D01*
X145618318Y-68983891D01*
X145612288Y-68981206D01*
X145504854Y-68958370D01*
X145431944Y-68942872D01*
X145431939Y-68942872D01*
X145425487Y-68941500D01*
X145234513Y-68941500D01*
X145228061Y-68942872D01*
X145228056Y-68942872D01*
X145155146Y-68958370D01*
X145047712Y-68981206D01*
X145041682Y-68983891D01*
X145041681Y-68983891D01*
X144879278Y-69056197D01*
X144879276Y-69056198D01*
X144873248Y-69058882D01*
X144867909Y-69062761D01*
X144867902Y-69062765D01*
X144861472Y-69067437D01*
X144787413Y-69091500D01*
X143754500Y-69091500D01*
X143686379Y-69071498D01*
X143639886Y-69017842D01*
X143628500Y-68965500D01*
X143628500Y-63301866D01*
X143621745Y-63239684D01*
X143570615Y-63103295D01*
X143483261Y-62986739D01*
X143366705Y-62899385D01*
X143230316Y-62848255D01*
X143168134Y-62841500D01*
X140071866Y-62841500D01*
X140009684Y-62848255D01*
X139873295Y-62899385D01*
X139756739Y-62986739D01*
X139669385Y-63103295D01*
X139618255Y-63239684D01*
X139611500Y-63301866D01*
X139611500Y-76398134D01*
X106408500Y-76398134D01*
X106408500Y-56474500D01*
X106428502Y-56406379D01*
X106482158Y-56359886D01*
X106534500Y-56348500D01*
X106548134Y-56348500D01*
X106610316Y-56341745D01*
X106746705Y-56290615D01*
X106863261Y-56203261D01*
X106950615Y-56086705D01*
X107001745Y-55950316D01*
X107008500Y-55888134D01*
X107008500Y-53291866D01*
X107001745Y-53229684D01*
X106950615Y-53093295D01*
X106863261Y-52976739D01*
X106746705Y-52889385D01*
X106610316Y-52838255D01*
X106548134Y-52831500D01*
X104751866Y-52831500D01*
X104689684Y-52838255D01*
X104553295Y-52889385D01*
X104436739Y-52976739D01*
X104349385Y-53093295D01*
X104298255Y-53229684D01*
X104291500Y-53291866D01*
X104291500Y-55888134D01*
X104298255Y-55950316D01*
X104349385Y-56086705D01*
X104436739Y-56203261D01*
X104553295Y-56290615D01*
X104689684Y-56341745D01*
X104751866Y-56348500D01*
X104765500Y-56348500D01*
X104833621Y-56368502D01*
X104880114Y-56422158D01*
X104891500Y-56474500D01*
X104891500Y-84431637D01*
X104890067Y-84450587D01*
X104886801Y-84472056D01*
X104887394Y-84479348D01*
X104887394Y-84479351D01*
X104891085Y-84524725D01*
X104891500Y-84534940D01*
X104891500Y-84543000D01*
X104891925Y-84546644D01*
X104894789Y-84571214D01*
X104895222Y-84575589D01*
X104897749Y-84606650D01*
X104901140Y-84648344D01*
X104903396Y-84655308D01*
X104904587Y-84661267D01*
X104905971Y-84667122D01*
X104906818Y-84674388D01*
X104931735Y-84743034D01*
X104933152Y-84747162D01*
X104955649Y-84816606D01*
X104959445Y-84822861D01*
X104961951Y-84828335D01*
X104964670Y-84833765D01*
X104967167Y-84840644D01*
X104971180Y-84846764D01*
X104971180Y-84846765D01*
X105007186Y-84901683D01*
X105009523Y-84905387D01*
X105047405Y-84967814D01*
X105051121Y-84972022D01*
X105051122Y-84972023D01*
X105054803Y-84976191D01*
X105054776Y-84976215D01*
X105057429Y-84979207D01*
X105060132Y-84982440D01*
X105064144Y-84988559D01*
X105089628Y-85012700D01*
X105120383Y-85041835D01*
X105122825Y-85044213D01*
X110747523Y-90668911D01*
X110759909Y-90683323D01*
X110768442Y-90694918D01*
X110768447Y-90694923D01*
X110772785Y-90700818D01*
X110778363Y-90705557D01*
X110778366Y-90705560D01*
X110813061Y-90735035D01*
X110820577Y-90741965D01*
X110826273Y-90747661D01*
X110829134Y-90749924D01*
X110829139Y-90749929D01*
X110848549Y-90765285D01*
X110851951Y-90768074D01*
X110907578Y-90815333D01*
X110914095Y-90818661D01*
X110919143Y-90822027D01*
X110924265Y-90825190D01*
X110930009Y-90829735D01*
X110996188Y-90860664D01*
X111000072Y-90862563D01*
X111065101Y-90895769D01*
X111072216Y-90897510D01*
X111077871Y-90899613D01*
X111083610Y-90901522D01*
X111090243Y-90904622D01*
X111161728Y-90919491D01*
X111165994Y-90920457D01*
X111236903Y-90937808D01*
X111242505Y-90938156D01*
X111242508Y-90938156D01*
X111248057Y-90938500D01*
X111248055Y-90938535D01*
X111252027Y-90938775D01*
X111256248Y-90939152D01*
X111263408Y-90940641D01*
X111340835Y-90938546D01*
X111344243Y-90938500D01*
X114863117Y-90938500D01*
X114931238Y-90958502D01*
X114977731Y-91012158D01*
X114987835Y-91082432D01*
X114958341Y-91147012D01*
X114938682Y-91165326D01*
X114856739Y-91226739D01*
X114769385Y-91343295D01*
X114718255Y-91479684D01*
X114711500Y-91541866D01*
X114711500Y-92205500D01*
X114691498Y-92273621D01*
X114637842Y-92320114D01*
X114585500Y-92331500D01*
X108666371Y-92331500D01*
X108598250Y-92311498D01*
X108577276Y-92294595D01*
X102415405Y-86132724D01*
X102381379Y-86070412D01*
X102378500Y-86043629D01*
X102378500Y-76984500D01*
X102398502Y-76916379D01*
X102452158Y-76869886D01*
X102504500Y-76858500D01*
X103168134Y-76858500D01*
X103230316Y-76851745D01*
X103366705Y-76800615D01*
X103483261Y-76713261D01*
X103570615Y-76596705D01*
X103621745Y-76460316D01*
X103628500Y-76398134D01*
X103628500Y-63301866D01*
X103621745Y-63239684D01*
X103570615Y-63103295D01*
X103483261Y-62986739D01*
X103366705Y-62899385D01*
X103230316Y-62848255D01*
X103168134Y-62841500D01*
X100134500Y-62841500D01*
X100066379Y-62821498D01*
X100019886Y-62767842D01*
X100008500Y-62715500D01*
X100008500Y-46134500D01*
X100028502Y-46066379D01*
X100082158Y-46019886D01*
X100134500Y-46008500D01*
X108854629Y-46008500D01*
X108922750Y-46028502D01*
X108969243Y-46082158D01*
X108979347Y-46152432D01*
X108949853Y-46217012D01*
X108943724Y-46223595D01*
X106372724Y-48794595D01*
X106310412Y-48828621D01*
X106283629Y-48831500D01*
X104751866Y-48831500D01*
X104689684Y-48838255D01*
X104553295Y-48889385D01*
X104436739Y-48976739D01*
X104349385Y-49093295D01*
X104298255Y-49229684D01*
X104291500Y-49291866D01*
X104291500Y-51888134D01*
X104298255Y-51950316D01*
X104349385Y-52086705D01*
X104436739Y-52203261D01*
X104553295Y-52290615D01*
X104689684Y-52341745D01*
X104751866Y-52348500D01*
X106548134Y-52348500D01*
X106610316Y-52341745D01*
X106746705Y-52290615D01*
X106863261Y-52203261D01*
X106950615Y-52086705D01*
X107001745Y-51950316D01*
X107008500Y-51888134D01*
X107008500Y-50356371D01*
X107028502Y-50288250D01*
X107045405Y-50267276D01*
X109646405Y-47666276D01*
X109708717Y-47632250D01*
X109779532Y-47637315D01*
X109836368Y-47679862D01*
X109861179Y-47746382D01*
X109861500Y-47755371D01*
X109861500Y-53178134D01*
X109868255Y-53240316D01*
X109919385Y-53376705D01*
X110006739Y-53493261D01*
X110123295Y-53580615D01*
X110259684Y-53631745D01*
X110321866Y-53638500D01*
X113418134Y-53638500D01*
X113480316Y-53631745D01*
X113616705Y-53580615D01*
X113733261Y-53493261D01*
X113820615Y-53376705D01*
X113871745Y-53240316D01*
X113878500Y-53178134D01*
X113878500Y-40081866D01*
X113871745Y-40019684D01*
X113820615Y-39883295D01*
X113733261Y-39766739D01*
X113616705Y-39679385D01*
X113480316Y-39628255D01*
X113418134Y-39621500D01*
X110634500Y-39621500D01*
X110566379Y-39601498D01*
X110519886Y-39547842D01*
X110508500Y-39495500D01*
X110508500Y-35634500D01*
X110528502Y-35566379D01*
X110582158Y-35519886D01*
X110634500Y-35508500D01*
X169625500Y-35508500D01*
X169693621Y-35528502D01*
G37*
%TD.AperFunction*%
%TA.AperFunction,Conductor*%
G36*
X153441750Y-96998502D02*
G01*
X153462724Y-97015405D01*
X155394595Y-98947276D01*
X155428621Y-99009588D01*
X155431500Y-99036371D01*
X155431500Y-101691405D01*
X155411498Y-101759526D01*
X155357842Y-101806019D01*
X155287568Y-101816123D01*
X155222988Y-101786629D01*
X155216405Y-101780500D01*
X154153652Y-100717747D01*
X154146112Y-100709461D01*
X154142000Y-100702982D01*
X154092348Y-100656356D01*
X154089507Y-100653602D01*
X154069770Y-100633865D01*
X154070564Y-100633071D01*
X154035289Y-100577124D01*
X154035904Y-100506130D01*
X154061264Y-100460161D01*
X154063584Y-100457483D01*
X154065842Y-100442417D01*
X154059072Y-100390995D01*
X154054833Y-100375175D01*
X154002410Y-100248614D01*
X153994221Y-100234431D01*
X153910829Y-100125752D01*
X153899250Y-100114172D01*
X153790566Y-100030777D01*
X153776385Y-100022590D01*
X153649825Y-99970167D01*
X153634005Y-99965928D01*
X153532300Y-99952538D01*
X153524092Y-99952000D01*
X153008115Y-99952000D01*
X152992876Y-99956475D01*
X152991671Y-99957865D01*
X152990000Y-99965548D01*
X152990000Y-100325500D01*
X152969998Y-100393621D01*
X152916342Y-100440114D01*
X152864000Y-100451500D01*
X152816000Y-100451500D01*
X152747879Y-100431498D01*
X152701386Y-100377842D01*
X152690000Y-100325500D01*
X152690000Y-99970115D01*
X152685525Y-99954876D01*
X152684135Y-99953671D01*
X152676452Y-99952000D01*
X152155908Y-99952000D01*
X152147700Y-99952538D01*
X152045995Y-99965928D01*
X152030175Y-99970167D01*
X151903614Y-100022590D01*
X151889431Y-100030779D01*
X151780752Y-100114171D01*
X151769172Y-100125750D01*
X151689339Y-100229791D01*
X151632001Y-100271658D01*
X151561130Y-100275880D01*
X151515315Y-100255023D01*
X151402094Y-100172763D01*
X151402093Y-100172762D01*
X151396752Y-100168882D01*
X151390724Y-100166198D01*
X151390722Y-100166197D01*
X151228319Y-100093891D01*
X151228318Y-100093891D01*
X151222288Y-100091206D01*
X151121600Y-100069804D01*
X151041944Y-100052872D01*
X151041939Y-100052872D01*
X151035487Y-100051500D01*
X150996358Y-100051500D01*
X150928237Y-100031498D01*
X150887239Y-99988500D01*
X150833558Y-99895522D01*
X150809040Y-99853056D01*
X150768797Y-99808361D01*
X150685675Y-99716045D01*
X150685674Y-99716044D01*
X150681253Y-99711134D01*
X150582157Y-99639136D01*
X150532094Y-99602763D01*
X150532093Y-99602762D01*
X150526752Y-99598882D01*
X150520724Y-99596198D01*
X150520722Y-99596197D01*
X150358319Y-99523891D01*
X150358318Y-99523891D01*
X150352288Y-99521206D01*
X150246792Y-99498782D01*
X150171944Y-99482872D01*
X150171939Y-99482872D01*
X150165487Y-99481500D01*
X149974513Y-99481500D01*
X149968061Y-99482872D01*
X149968056Y-99482872D01*
X149893208Y-99498782D01*
X149787712Y-99521206D01*
X149781682Y-99523891D01*
X149781681Y-99523891D01*
X149619278Y-99596197D01*
X149619276Y-99596198D01*
X149613248Y-99598882D01*
X149607907Y-99602762D01*
X149607906Y-99602763D01*
X149590224Y-99615610D01*
X149523356Y-99639468D01*
X149454205Y-99623388D01*
X149404725Y-99572474D01*
X149390625Y-99502892D01*
X149396570Y-99474007D01*
X149398730Y-99467497D01*
X149427797Y-99379861D01*
X149429390Y-99364319D01*
X149436420Y-99295703D01*
X149438500Y-99275400D01*
X149438500Y-98224600D01*
X149435440Y-98195110D01*
X149428238Y-98125692D01*
X149428237Y-98125688D01*
X149427526Y-98118834D01*
X149371550Y-97951054D01*
X149278478Y-97800652D01*
X149153303Y-97675695D01*
X149002738Y-97582885D01*
X149002958Y-97582528D01*
X148953043Y-97538583D01*
X148933577Y-97470307D01*
X148954114Y-97402346D01*
X148970478Y-97382203D01*
X149216331Y-97136350D01*
X149279228Y-97102199D01*
X149335824Y-97090169D01*
X149335833Y-97090166D01*
X149342288Y-97088794D01*
X149348319Y-97086109D01*
X149510722Y-97013803D01*
X149510724Y-97013802D01*
X149516752Y-97011118D01*
X149522091Y-97007239D01*
X149522098Y-97007235D01*
X149528528Y-97002563D01*
X149602587Y-96978500D01*
X153373629Y-96978500D01*
X153441750Y-96998502D01*
G37*
%TD.AperFunction*%
%TD*%
M02*
