%TF.GenerationSoftware,KiCad,Pcbnew,(6.0.9)*%
%TF.CreationDate,2023-01-30T21:02:41-08:00*%
%TF.ProjectId,solar-panel-side-Z,736f6c61-722d-4706-916e-656c2d736964,2.0*%
%TF.SameCoordinates,Original*%
%TF.FileFunction,Drillmap*%
%TF.FilePolarity,Positive*%
%FSLAX45Y45*%
G04 Gerber Fmt 4.5, Leading zero omitted, Abs format (unit mm)*
G04 Created by KiCad (PCBNEW (6.0.9)) date 2023-01-30 21:02:41*
%MOMM*%
%LPD*%
G01*
G04 APERTURE LIST*
%ADD10C,0.050000*%
%ADD11C,0.200000*%
%ADD12C,0.030000*%
%ADD13C,0.040000*%
%ADD14C,0.110000*%
%ADD15C,0.295000*%
G04 APERTURE END LIST*
D10*
X9950000Y-4550000D02*
X11000000Y-4550000D01*
X18900000Y-13500000D02*
X11000000Y-13500000D01*
X19950000Y-12450000D02*
X18900000Y-12450000D01*
X18900000Y-4550000D02*
X19950000Y-4550000D01*
X9950000Y-12450000D02*
X9950000Y-4550000D01*
X11000000Y-13500000D02*
X11000000Y-12450000D01*
X11000000Y-3500000D02*
X18900000Y-3500000D01*
X11000000Y-12450000D02*
X9950000Y-12450000D01*
X19950000Y-4550000D02*
X19950000Y-12450000D01*
X18900000Y-3500000D02*
X18900000Y-4550000D01*
X11000000Y-4550000D02*
X11000000Y-3500000D01*
X18900000Y-12450000D02*
X18900000Y-13500000D01*
D11*
D12*
X17169000Y-8398000D02*
X17199000Y-8428000D01*
X17199000Y-8398000D02*
X17169000Y-8428000D01*
X17169500Y-8580500D02*
X17199500Y-8610500D01*
X17199500Y-8580500D02*
X17169500Y-8610500D01*
X17170000Y-8488000D02*
X17200000Y-8518000D01*
X17200000Y-8488000D02*
X17170000Y-8518000D01*
X17262000Y-8580000D02*
X17292000Y-8610000D01*
X17292000Y-8580000D02*
X17262000Y-8610000D01*
X17268000Y-8488000D02*
X17298000Y-8518000D01*
X17298000Y-8488000D02*
X17268000Y-8518000D01*
X17271000Y-8397000D02*
X17301000Y-8427000D01*
X17301000Y-8397000D02*
X17271000Y-8427000D01*
X17354000Y-8580000D02*
X17384000Y-8610000D01*
X17384000Y-8580000D02*
X17354000Y-8610000D01*
X17356000Y-8488000D02*
X17386000Y-8518000D01*
X17386000Y-8488000D02*
X17356000Y-8518000D01*
X17361000Y-8395000D02*
X17391000Y-8425000D01*
X17391000Y-8395000D02*
X17361000Y-8425000D01*
D13*
X10735000Y-11259000D02*
G75*
G03*
X10735000Y-11259000I-20000J0D01*
G01*
X13587000Y-9820000D02*
G75*
G03*
X13587000Y-9820000I-20000J0D01*
G01*
X13747000Y-9824000D02*
G75*
G03*
X13747000Y-9824000I-20000J0D01*
G01*
X13901500Y-10195500D02*
G75*
G03*
X13901500Y-10195500I-20000J0D01*
G01*
X14141000Y-9519000D02*
G75*
G03*
X14141000Y-9519000I-20000J0D01*
G01*
X14179000Y-10283000D02*
G75*
G03*
X14179000Y-10283000I-20000J0D01*
G01*
X14354000Y-8841000D02*
G75*
G03*
X14354000Y-8841000I-20000J0D01*
G01*
X14397500Y-8960500D02*
G75*
G03*
X14397500Y-8960500I-20000J0D01*
G01*
X14447000Y-9955000D02*
G75*
G03*
X14447000Y-9955000I-20000J0D01*
G01*
X14553000Y-6985000D02*
G75*
G03*
X14553000Y-6985000I-20000J0D01*
G01*
X14926000Y-9622000D02*
G75*
G03*
X14926000Y-9622000I-20000J0D01*
G01*
X15027000Y-10039000D02*
G75*
G03*
X15027000Y-10039000I-20000J0D01*
G01*
X15054000Y-10288000D02*
G75*
G03*
X15054000Y-10288000I-20000J0D01*
G01*
X15105000Y-10929000D02*
G75*
G03*
X15105000Y-10929000I-20000J0D01*
G01*
X15114000Y-10096000D02*
G75*
G03*
X15114000Y-10096000I-20000J0D01*
G01*
X15122000Y-12161000D02*
G75*
G03*
X15122000Y-12161000I-20000J0D01*
G01*
X15211000Y-12162000D02*
G75*
G03*
X15211000Y-12162000I-20000J0D01*
G01*
X15370000Y-6876000D02*
G75*
G03*
X15370000Y-6876000I-20000J0D01*
G01*
X15445000Y-9994000D02*
G75*
G03*
X15445000Y-9994000I-20000J0D01*
G01*
X15751000Y-7251000D02*
G75*
G03*
X15751000Y-7251000I-20000J0D01*
G01*
X15949992Y-8478000D02*
G75*
G03*
X15949992Y-8478000I-20000J0D01*
G01*
X15950992Y-8107000D02*
G75*
G03*
X15950992Y-8107000I-20000J0D01*
G01*
X16143992Y-8338000D02*
G75*
G03*
X16143992Y-8338000I-20000J0D01*
G01*
X16260492Y-8108500D02*
G75*
G03*
X16260492Y-8108500I-20000J0D01*
G01*
X16420992Y-8510000D02*
G75*
G03*
X16420992Y-8510000I-20000J0D01*
G01*
X16554992Y-8506000D02*
G75*
G03*
X16554992Y-8506000I-20000J0D01*
G01*
X16760000Y-7694000D02*
G75*
G03*
X16760000Y-7694000I-20000J0D01*
G01*
X17218000Y-8102000D02*
G75*
G03*
X17218000Y-8102000I-20000J0D01*
G01*
D14*
X15068992Y-8247000D02*
X15068992Y-8357000D01*
X15013992Y-8302000D02*
X15123992Y-8302000D01*
X15068992Y-8597000D02*
X15068992Y-8707000D01*
X15013992Y-8652000D02*
X15123992Y-8652000D01*
D15*
X11154299Y-8604299D02*
X11154299Y-8395701D01*
X10945701Y-8395701D01*
X10945701Y-8604299D01*
X11154299Y-8604299D01*
X14279299Y-12504299D02*
X14279299Y-12295701D01*
X14070701Y-12295701D01*
X14070701Y-12504299D01*
X14279299Y-12504299D01*
X15829299Y-4704299D02*
X15829299Y-4495701D01*
X15620701Y-4495701D01*
X15620701Y-4704299D01*
X15829299Y-4704299D01*
X18954299Y-8604299D02*
X18954299Y-8395701D01*
X18745701Y-8395701D01*
X18745701Y-8604299D01*
X18954299Y-8604299D01*
D11*
X10205119Y-13812976D02*
X10205119Y-13612976D01*
X10252738Y-13612976D01*
X10281310Y-13622500D01*
X10300357Y-13641548D01*
X10309881Y-13660595D01*
X10319405Y-13698690D01*
X10319405Y-13727262D01*
X10309881Y-13765357D01*
X10300357Y-13784405D01*
X10281310Y-13803452D01*
X10252738Y-13812976D01*
X10205119Y-13812976D01*
X10405119Y-13812976D02*
X10405119Y-13679643D01*
X10405119Y-13717738D02*
X10414643Y-13698690D01*
X10424167Y-13689167D01*
X10443214Y-13679643D01*
X10462262Y-13679643D01*
X10528929Y-13812976D02*
X10528929Y-13679643D01*
X10528929Y-13612976D02*
X10519405Y-13622500D01*
X10528929Y-13632024D01*
X10538452Y-13622500D01*
X10528929Y-13612976D01*
X10528929Y-13632024D01*
X10652738Y-13812976D02*
X10633690Y-13803452D01*
X10624167Y-13784405D01*
X10624167Y-13612976D01*
X10757500Y-13812976D02*
X10738452Y-13803452D01*
X10728929Y-13784405D01*
X10728929Y-13612976D01*
X10986071Y-13812976D02*
X10986071Y-13612976D01*
X11052738Y-13755833D01*
X11119405Y-13612976D01*
X11119405Y-13812976D01*
X11300357Y-13812976D02*
X11300357Y-13708214D01*
X11290833Y-13689167D01*
X11271786Y-13679643D01*
X11233690Y-13679643D01*
X11214643Y-13689167D01*
X11300357Y-13803452D02*
X11281309Y-13812976D01*
X11233690Y-13812976D01*
X11214643Y-13803452D01*
X11205119Y-13784405D01*
X11205119Y-13765357D01*
X11214643Y-13746309D01*
X11233690Y-13736786D01*
X11281309Y-13736786D01*
X11300357Y-13727262D01*
X11395595Y-13679643D02*
X11395595Y-13879643D01*
X11395595Y-13689167D02*
X11414643Y-13679643D01*
X11452738Y-13679643D01*
X11471786Y-13689167D01*
X11481309Y-13698690D01*
X11490833Y-13717738D01*
X11490833Y-13774881D01*
X11481309Y-13793928D01*
X11471786Y-13803452D01*
X11452738Y-13812976D01*
X11414643Y-13812976D01*
X11395595Y-13803452D01*
X11576548Y-13793928D02*
X11586071Y-13803452D01*
X11576548Y-13812976D01*
X11567024Y-13803452D01*
X11576548Y-13793928D01*
X11576548Y-13812976D01*
X11576548Y-13689167D02*
X11586071Y-13698690D01*
X11576548Y-13708214D01*
X11567024Y-13698690D01*
X11576548Y-13689167D01*
X11576548Y-13708214D01*
D12*
X9917500Y-14127500D02*
X9947500Y-14157500D01*
X9947500Y-14127500D02*
X9917500Y-14157500D01*
D11*
X10243214Y-14032976D02*
X10262262Y-14032976D01*
X10281310Y-14042500D01*
X10290833Y-14052024D01*
X10300357Y-14071071D01*
X10309881Y-14109167D01*
X10309881Y-14156786D01*
X10300357Y-14194881D01*
X10290833Y-14213928D01*
X10281310Y-14223452D01*
X10262262Y-14232976D01*
X10243214Y-14232976D01*
X10224167Y-14223452D01*
X10214643Y-14213928D01*
X10205119Y-14194881D01*
X10195595Y-14156786D01*
X10195595Y-14109167D01*
X10205119Y-14071071D01*
X10214643Y-14052024D01*
X10224167Y-14042500D01*
X10243214Y-14032976D01*
X10395595Y-14213928D02*
X10405119Y-14223452D01*
X10395595Y-14232976D01*
X10386071Y-14223452D01*
X10395595Y-14213928D01*
X10395595Y-14232976D01*
X10471786Y-14032976D02*
X10595595Y-14032976D01*
X10528929Y-14109167D01*
X10557500Y-14109167D01*
X10576548Y-14118690D01*
X10586071Y-14128214D01*
X10595595Y-14147262D01*
X10595595Y-14194881D01*
X10586071Y-14213928D01*
X10576548Y-14223452D01*
X10557500Y-14232976D01*
X10500357Y-14232976D01*
X10481310Y-14223452D01*
X10471786Y-14213928D01*
X10719405Y-14032976D02*
X10738452Y-14032976D01*
X10757500Y-14042500D01*
X10767024Y-14052024D01*
X10776548Y-14071071D01*
X10786071Y-14109167D01*
X10786071Y-14156786D01*
X10776548Y-14194881D01*
X10767024Y-14213928D01*
X10757500Y-14223452D01*
X10738452Y-14232976D01*
X10719405Y-14232976D01*
X10700357Y-14223452D01*
X10690833Y-14213928D01*
X10681310Y-14194881D01*
X10671786Y-14156786D01*
X10671786Y-14109167D01*
X10681310Y-14071071D01*
X10690833Y-14052024D01*
X10700357Y-14042500D01*
X10719405Y-14032976D01*
X10909881Y-14032976D02*
X10928929Y-14032976D01*
X10947976Y-14042500D01*
X10957500Y-14052024D01*
X10967024Y-14071071D01*
X10976548Y-14109167D01*
X10976548Y-14156786D01*
X10967024Y-14194881D01*
X10957500Y-14213928D01*
X10947976Y-14223452D01*
X10928929Y-14232976D01*
X10909881Y-14232976D01*
X10890833Y-14223452D01*
X10881310Y-14213928D01*
X10871786Y-14194881D01*
X10862262Y-14156786D01*
X10862262Y-14109167D01*
X10871786Y-14071071D01*
X10881310Y-14052024D01*
X10890833Y-14042500D01*
X10909881Y-14032976D01*
X11062262Y-14232976D02*
X11062262Y-14099643D01*
X11062262Y-14118690D02*
X11071786Y-14109167D01*
X11090833Y-14099643D01*
X11119405Y-14099643D01*
X11138452Y-14109167D01*
X11147976Y-14128214D01*
X11147976Y-14232976D01*
X11147976Y-14128214D02*
X11157500Y-14109167D01*
X11176548Y-14099643D01*
X11205119Y-14099643D01*
X11224167Y-14109167D01*
X11233690Y-14128214D01*
X11233690Y-14232976D01*
X11328928Y-14232976D02*
X11328928Y-14099643D01*
X11328928Y-14118690D02*
X11338452Y-14109167D01*
X11357500Y-14099643D01*
X11386071Y-14099643D01*
X11405119Y-14109167D01*
X11414643Y-14128214D01*
X11414643Y-14232976D01*
X11414643Y-14128214D02*
X11424167Y-14109167D01*
X11443214Y-14099643D01*
X11471786Y-14099643D01*
X11490833Y-14109167D01*
X11500357Y-14128214D01*
X11500357Y-14232976D01*
X11890833Y-14023452D02*
X11719405Y-14280595D01*
X12147976Y-14032976D02*
X12167024Y-14032976D01*
X12186071Y-14042500D01*
X12195595Y-14052024D01*
X12205119Y-14071071D01*
X12214643Y-14109167D01*
X12214643Y-14156786D01*
X12205119Y-14194881D01*
X12195595Y-14213928D01*
X12186071Y-14223452D01*
X12167024Y-14232976D01*
X12147976Y-14232976D01*
X12128928Y-14223452D01*
X12119405Y-14213928D01*
X12109881Y-14194881D01*
X12100357Y-14156786D01*
X12100357Y-14109167D01*
X12109881Y-14071071D01*
X12119405Y-14052024D01*
X12128928Y-14042500D01*
X12147976Y-14032976D01*
X12300357Y-14213928D02*
X12309881Y-14223452D01*
X12300357Y-14232976D01*
X12290833Y-14223452D01*
X12300357Y-14213928D01*
X12300357Y-14232976D01*
X12433690Y-14032976D02*
X12452738Y-14032976D01*
X12471786Y-14042500D01*
X12481309Y-14052024D01*
X12490833Y-14071071D01*
X12500357Y-14109167D01*
X12500357Y-14156786D01*
X12490833Y-14194881D01*
X12481309Y-14213928D01*
X12471786Y-14223452D01*
X12452738Y-14232976D01*
X12433690Y-14232976D01*
X12414643Y-14223452D01*
X12405119Y-14213928D01*
X12395595Y-14194881D01*
X12386071Y-14156786D01*
X12386071Y-14109167D01*
X12395595Y-14071071D01*
X12405119Y-14052024D01*
X12414643Y-14042500D01*
X12433690Y-14032976D01*
X12690833Y-14232976D02*
X12576548Y-14232976D01*
X12633690Y-14232976D02*
X12633690Y-14032976D01*
X12614643Y-14061548D01*
X12595595Y-14080595D01*
X12576548Y-14090119D01*
X12881309Y-14232976D02*
X12767024Y-14232976D01*
X12824167Y-14232976D02*
X12824167Y-14032976D01*
X12805119Y-14061548D01*
X12786071Y-14080595D01*
X12767024Y-14090119D01*
X12995595Y-14118690D02*
X12976548Y-14109167D01*
X12967024Y-14099643D01*
X12957500Y-14080595D01*
X12957500Y-14071071D01*
X12967024Y-14052024D01*
X12976548Y-14042500D01*
X12995595Y-14032976D01*
X13033690Y-14032976D01*
X13052738Y-14042500D01*
X13062262Y-14052024D01*
X13071786Y-14071071D01*
X13071786Y-14080595D01*
X13062262Y-14099643D01*
X13052738Y-14109167D01*
X13033690Y-14118690D01*
X12995595Y-14118690D01*
X12976548Y-14128214D01*
X12967024Y-14137738D01*
X12957500Y-14156786D01*
X12957500Y-14194881D01*
X12967024Y-14213928D01*
X12976548Y-14223452D01*
X12995595Y-14232976D01*
X13033690Y-14232976D01*
X13052738Y-14223452D01*
X13062262Y-14213928D01*
X13071786Y-14194881D01*
X13071786Y-14156786D01*
X13062262Y-14137738D01*
X13052738Y-14128214D01*
X13033690Y-14118690D01*
X13147976Y-14032976D02*
X13147976Y-14071071D01*
X13224167Y-14032976D02*
X13224167Y-14071071D01*
X13519405Y-14309167D02*
X13509881Y-14299643D01*
X13490833Y-14271071D01*
X13481309Y-14252024D01*
X13471786Y-14223452D01*
X13462262Y-14175833D01*
X13462262Y-14137738D01*
X13471786Y-14090119D01*
X13481309Y-14061548D01*
X13490833Y-14042500D01*
X13509881Y-14013928D01*
X13519405Y-14004405D01*
X13605119Y-14232976D02*
X13643214Y-14232976D01*
X13662262Y-14223452D01*
X13671786Y-14213928D01*
X13690833Y-14185357D01*
X13700357Y-14147262D01*
X13700357Y-14071071D01*
X13690833Y-14052024D01*
X13681309Y-14042500D01*
X13662262Y-14032976D01*
X13624167Y-14032976D01*
X13605119Y-14042500D01*
X13595595Y-14052024D01*
X13586071Y-14071071D01*
X13586071Y-14118690D01*
X13595595Y-14137738D01*
X13605119Y-14147262D01*
X13624167Y-14156786D01*
X13662262Y-14156786D01*
X13681309Y-14147262D01*
X13690833Y-14137738D01*
X13700357Y-14118690D01*
X13938452Y-14232976D02*
X13938452Y-14032976D01*
X14024167Y-14232976D02*
X14024167Y-14128214D01*
X14014643Y-14109167D01*
X13995595Y-14099643D01*
X13967024Y-14099643D01*
X13947976Y-14109167D01*
X13938452Y-14118690D01*
X14147976Y-14232976D02*
X14128928Y-14223452D01*
X14119405Y-14213928D01*
X14109881Y-14194881D01*
X14109881Y-14137738D01*
X14119405Y-14118690D01*
X14128928Y-14109167D01*
X14147976Y-14099643D01*
X14176548Y-14099643D01*
X14195595Y-14109167D01*
X14205119Y-14118690D01*
X14214643Y-14137738D01*
X14214643Y-14194881D01*
X14205119Y-14213928D01*
X14195595Y-14223452D01*
X14176548Y-14232976D01*
X14147976Y-14232976D01*
X14328928Y-14232976D02*
X14309881Y-14223452D01*
X14300357Y-14204405D01*
X14300357Y-14032976D01*
X14481309Y-14223452D02*
X14462262Y-14232976D01*
X14424167Y-14232976D01*
X14405119Y-14223452D01*
X14395595Y-14204405D01*
X14395595Y-14128214D01*
X14405119Y-14109167D01*
X14424167Y-14099643D01*
X14462262Y-14099643D01*
X14481309Y-14109167D01*
X14490833Y-14128214D01*
X14490833Y-14147262D01*
X14395595Y-14166309D01*
X14567024Y-14223452D02*
X14586071Y-14232976D01*
X14624167Y-14232976D01*
X14643214Y-14223452D01*
X14652738Y-14204405D01*
X14652738Y-14194881D01*
X14643214Y-14175833D01*
X14624167Y-14166309D01*
X14595595Y-14166309D01*
X14576548Y-14156786D01*
X14567024Y-14137738D01*
X14567024Y-14128214D01*
X14576548Y-14109167D01*
X14595595Y-14099643D01*
X14624167Y-14099643D01*
X14643214Y-14109167D01*
X14719405Y-14309167D02*
X14728928Y-14299643D01*
X14747976Y-14271071D01*
X14757500Y-14252024D01*
X14767024Y-14223452D01*
X14776548Y-14175833D01*
X14776548Y-14137738D01*
X14767024Y-14090119D01*
X14757500Y-14061548D01*
X14747976Y-14042500D01*
X14728928Y-14013928D01*
X14719405Y-14004405D01*
D13*
X9947500Y-14406500D02*
G75*
G03*
X9947500Y-14406500I-20000J0D01*
G01*
D11*
X10243214Y-14296976D02*
X10262262Y-14296976D01*
X10281310Y-14306500D01*
X10290833Y-14316024D01*
X10300357Y-14335071D01*
X10309881Y-14373167D01*
X10309881Y-14420786D01*
X10300357Y-14458881D01*
X10290833Y-14477928D01*
X10281310Y-14487452D01*
X10262262Y-14496976D01*
X10243214Y-14496976D01*
X10224167Y-14487452D01*
X10214643Y-14477928D01*
X10205119Y-14458881D01*
X10195595Y-14420786D01*
X10195595Y-14373167D01*
X10205119Y-14335071D01*
X10214643Y-14316024D01*
X10224167Y-14306500D01*
X10243214Y-14296976D01*
X10395595Y-14477928D02*
X10405119Y-14487452D01*
X10395595Y-14496976D01*
X10386071Y-14487452D01*
X10395595Y-14477928D01*
X10395595Y-14496976D01*
X10576548Y-14363643D02*
X10576548Y-14496976D01*
X10528929Y-14287452D02*
X10481310Y-14430309D01*
X10605119Y-14430309D01*
X10719405Y-14296976D02*
X10738452Y-14296976D01*
X10757500Y-14306500D01*
X10767024Y-14316024D01*
X10776548Y-14335071D01*
X10786071Y-14373167D01*
X10786071Y-14420786D01*
X10776548Y-14458881D01*
X10767024Y-14477928D01*
X10757500Y-14487452D01*
X10738452Y-14496976D01*
X10719405Y-14496976D01*
X10700357Y-14487452D01*
X10690833Y-14477928D01*
X10681310Y-14458881D01*
X10671786Y-14420786D01*
X10671786Y-14373167D01*
X10681310Y-14335071D01*
X10690833Y-14316024D01*
X10700357Y-14306500D01*
X10719405Y-14296976D01*
X10909881Y-14296976D02*
X10928929Y-14296976D01*
X10947976Y-14306500D01*
X10957500Y-14316024D01*
X10967024Y-14335071D01*
X10976548Y-14373167D01*
X10976548Y-14420786D01*
X10967024Y-14458881D01*
X10957500Y-14477928D01*
X10947976Y-14487452D01*
X10928929Y-14496976D01*
X10909881Y-14496976D01*
X10890833Y-14487452D01*
X10881310Y-14477928D01*
X10871786Y-14458881D01*
X10862262Y-14420786D01*
X10862262Y-14373167D01*
X10871786Y-14335071D01*
X10881310Y-14316024D01*
X10890833Y-14306500D01*
X10909881Y-14296976D01*
X11062262Y-14496976D02*
X11062262Y-14363643D01*
X11062262Y-14382690D02*
X11071786Y-14373167D01*
X11090833Y-14363643D01*
X11119405Y-14363643D01*
X11138452Y-14373167D01*
X11147976Y-14392214D01*
X11147976Y-14496976D01*
X11147976Y-14392214D02*
X11157500Y-14373167D01*
X11176548Y-14363643D01*
X11205119Y-14363643D01*
X11224167Y-14373167D01*
X11233690Y-14392214D01*
X11233690Y-14496976D01*
X11328928Y-14496976D02*
X11328928Y-14363643D01*
X11328928Y-14382690D02*
X11338452Y-14373167D01*
X11357500Y-14363643D01*
X11386071Y-14363643D01*
X11405119Y-14373167D01*
X11414643Y-14392214D01*
X11414643Y-14496976D01*
X11414643Y-14392214D02*
X11424167Y-14373167D01*
X11443214Y-14363643D01*
X11471786Y-14363643D01*
X11490833Y-14373167D01*
X11500357Y-14392214D01*
X11500357Y-14496976D01*
X11890833Y-14287452D02*
X11719405Y-14544595D01*
X12147976Y-14296976D02*
X12167024Y-14296976D01*
X12186071Y-14306500D01*
X12195595Y-14316024D01*
X12205119Y-14335071D01*
X12214643Y-14373167D01*
X12214643Y-14420786D01*
X12205119Y-14458881D01*
X12195595Y-14477928D01*
X12186071Y-14487452D01*
X12167024Y-14496976D01*
X12147976Y-14496976D01*
X12128928Y-14487452D01*
X12119405Y-14477928D01*
X12109881Y-14458881D01*
X12100357Y-14420786D01*
X12100357Y-14373167D01*
X12109881Y-14335071D01*
X12119405Y-14316024D01*
X12128928Y-14306500D01*
X12147976Y-14296976D01*
X12300357Y-14477928D02*
X12309881Y-14487452D01*
X12300357Y-14496976D01*
X12290833Y-14487452D01*
X12300357Y-14477928D01*
X12300357Y-14496976D01*
X12433690Y-14296976D02*
X12452738Y-14296976D01*
X12471786Y-14306500D01*
X12481309Y-14316024D01*
X12490833Y-14335071D01*
X12500357Y-14373167D01*
X12500357Y-14420786D01*
X12490833Y-14458881D01*
X12481309Y-14477928D01*
X12471786Y-14487452D01*
X12452738Y-14496976D01*
X12433690Y-14496976D01*
X12414643Y-14487452D01*
X12405119Y-14477928D01*
X12395595Y-14458881D01*
X12386071Y-14420786D01*
X12386071Y-14373167D01*
X12395595Y-14335071D01*
X12405119Y-14316024D01*
X12414643Y-14306500D01*
X12433690Y-14296976D01*
X12690833Y-14496976D02*
X12576548Y-14496976D01*
X12633690Y-14496976D02*
X12633690Y-14296976D01*
X12614643Y-14325548D01*
X12595595Y-14344595D01*
X12576548Y-14354119D01*
X12871786Y-14296976D02*
X12776548Y-14296976D01*
X12767024Y-14392214D01*
X12776548Y-14382690D01*
X12795595Y-14373167D01*
X12843214Y-14373167D01*
X12862262Y-14382690D01*
X12871786Y-14392214D01*
X12881309Y-14411262D01*
X12881309Y-14458881D01*
X12871786Y-14477928D01*
X12862262Y-14487452D01*
X12843214Y-14496976D01*
X12795595Y-14496976D01*
X12776548Y-14487452D01*
X12767024Y-14477928D01*
X12947976Y-14296976D02*
X13081309Y-14296976D01*
X12995595Y-14496976D01*
X13147976Y-14296976D02*
X13147976Y-14335071D01*
X13224167Y-14296976D02*
X13224167Y-14335071D01*
X13519405Y-14573167D02*
X13509881Y-14563643D01*
X13490833Y-14535071D01*
X13481309Y-14516024D01*
X13471786Y-14487452D01*
X13462262Y-14439833D01*
X13462262Y-14401738D01*
X13471786Y-14354119D01*
X13481309Y-14325548D01*
X13490833Y-14306500D01*
X13509881Y-14277928D01*
X13519405Y-14268405D01*
X13586071Y-14316024D02*
X13595595Y-14306500D01*
X13614643Y-14296976D01*
X13662262Y-14296976D01*
X13681309Y-14306500D01*
X13690833Y-14316024D01*
X13700357Y-14335071D01*
X13700357Y-14354119D01*
X13690833Y-14382690D01*
X13576548Y-14496976D01*
X13700357Y-14496976D01*
X13814643Y-14382690D02*
X13795595Y-14373167D01*
X13786071Y-14363643D01*
X13776548Y-14344595D01*
X13776548Y-14335071D01*
X13786071Y-14316024D01*
X13795595Y-14306500D01*
X13814643Y-14296976D01*
X13852738Y-14296976D01*
X13871786Y-14306500D01*
X13881309Y-14316024D01*
X13890833Y-14335071D01*
X13890833Y-14344595D01*
X13881309Y-14363643D01*
X13871786Y-14373167D01*
X13852738Y-14382690D01*
X13814643Y-14382690D01*
X13795595Y-14392214D01*
X13786071Y-14401738D01*
X13776548Y-14420786D01*
X13776548Y-14458881D01*
X13786071Y-14477928D01*
X13795595Y-14487452D01*
X13814643Y-14496976D01*
X13852738Y-14496976D01*
X13871786Y-14487452D01*
X13881309Y-14477928D01*
X13890833Y-14458881D01*
X13890833Y-14420786D01*
X13881309Y-14401738D01*
X13871786Y-14392214D01*
X13852738Y-14382690D01*
X14128928Y-14496976D02*
X14128928Y-14296976D01*
X14214643Y-14496976D02*
X14214643Y-14392214D01*
X14205119Y-14373167D01*
X14186071Y-14363643D01*
X14157500Y-14363643D01*
X14138452Y-14373167D01*
X14128928Y-14382690D01*
X14338452Y-14496976D02*
X14319405Y-14487452D01*
X14309881Y-14477928D01*
X14300357Y-14458881D01*
X14300357Y-14401738D01*
X14309881Y-14382690D01*
X14319405Y-14373167D01*
X14338452Y-14363643D01*
X14367024Y-14363643D01*
X14386071Y-14373167D01*
X14395595Y-14382690D01*
X14405119Y-14401738D01*
X14405119Y-14458881D01*
X14395595Y-14477928D01*
X14386071Y-14487452D01*
X14367024Y-14496976D01*
X14338452Y-14496976D01*
X14519405Y-14496976D02*
X14500357Y-14487452D01*
X14490833Y-14468405D01*
X14490833Y-14296976D01*
X14671786Y-14487452D02*
X14652738Y-14496976D01*
X14614643Y-14496976D01*
X14595595Y-14487452D01*
X14586071Y-14468405D01*
X14586071Y-14392214D01*
X14595595Y-14373167D01*
X14614643Y-14363643D01*
X14652738Y-14363643D01*
X14671786Y-14373167D01*
X14681309Y-14392214D01*
X14681309Y-14411262D01*
X14586071Y-14430309D01*
X14757500Y-14487452D02*
X14776548Y-14496976D01*
X14814643Y-14496976D01*
X14833690Y-14487452D01*
X14843214Y-14468405D01*
X14843214Y-14458881D01*
X14833690Y-14439833D01*
X14814643Y-14430309D01*
X14786071Y-14430309D01*
X14767024Y-14420786D01*
X14757500Y-14401738D01*
X14757500Y-14392214D01*
X14767024Y-14373167D01*
X14786071Y-14363643D01*
X14814643Y-14363643D01*
X14833690Y-14373167D01*
X14909881Y-14573167D02*
X14919405Y-14563643D01*
X14938452Y-14535071D01*
X14947976Y-14516024D01*
X14957500Y-14487452D01*
X14967024Y-14439833D01*
X14967024Y-14401738D01*
X14957500Y-14354119D01*
X14947976Y-14325548D01*
X14938452Y-14306500D01*
X14919405Y-14277928D01*
X14909881Y-14268405D01*
D14*
X9892500Y-14615500D02*
X9892500Y-14725500D01*
X9837500Y-14670500D02*
X9947500Y-14670500D01*
D11*
X10309881Y-14760976D02*
X10195595Y-14760976D01*
X10252738Y-14760976D02*
X10252738Y-14560976D01*
X10233690Y-14589548D01*
X10214643Y-14608595D01*
X10195595Y-14618119D01*
X10395595Y-14741928D02*
X10405119Y-14751452D01*
X10395595Y-14760976D01*
X10386071Y-14751452D01*
X10395595Y-14741928D01*
X10395595Y-14760976D01*
X10595595Y-14760976D02*
X10481310Y-14760976D01*
X10538452Y-14760976D02*
X10538452Y-14560976D01*
X10519405Y-14589548D01*
X10500357Y-14608595D01*
X10481310Y-14618119D01*
X10719405Y-14560976D02*
X10738452Y-14560976D01*
X10757500Y-14570500D01*
X10767024Y-14580024D01*
X10776548Y-14599071D01*
X10786071Y-14637167D01*
X10786071Y-14684786D01*
X10776548Y-14722881D01*
X10767024Y-14741928D01*
X10757500Y-14751452D01*
X10738452Y-14760976D01*
X10719405Y-14760976D01*
X10700357Y-14751452D01*
X10690833Y-14741928D01*
X10681310Y-14722881D01*
X10671786Y-14684786D01*
X10671786Y-14637167D01*
X10681310Y-14599071D01*
X10690833Y-14580024D01*
X10700357Y-14570500D01*
X10719405Y-14560976D01*
X10909881Y-14560976D02*
X10928929Y-14560976D01*
X10947976Y-14570500D01*
X10957500Y-14580024D01*
X10967024Y-14599071D01*
X10976548Y-14637167D01*
X10976548Y-14684786D01*
X10967024Y-14722881D01*
X10957500Y-14741928D01*
X10947976Y-14751452D01*
X10928929Y-14760976D01*
X10909881Y-14760976D01*
X10890833Y-14751452D01*
X10881310Y-14741928D01*
X10871786Y-14722881D01*
X10862262Y-14684786D01*
X10862262Y-14637167D01*
X10871786Y-14599071D01*
X10881310Y-14580024D01*
X10890833Y-14570500D01*
X10909881Y-14560976D01*
X11062262Y-14760976D02*
X11062262Y-14627643D01*
X11062262Y-14646690D02*
X11071786Y-14637167D01*
X11090833Y-14627643D01*
X11119405Y-14627643D01*
X11138452Y-14637167D01*
X11147976Y-14656214D01*
X11147976Y-14760976D01*
X11147976Y-14656214D02*
X11157500Y-14637167D01*
X11176548Y-14627643D01*
X11205119Y-14627643D01*
X11224167Y-14637167D01*
X11233690Y-14656214D01*
X11233690Y-14760976D01*
X11328928Y-14760976D02*
X11328928Y-14627643D01*
X11328928Y-14646690D02*
X11338452Y-14637167D01*
X11357500Y-14627643D01*
X11386071Y-14627643D01*
X11405119Y-14637167D01*
X11414643Y-14656214D01*
X11414643Y-14760976D01*
X11414643Y-14656214D02*
X11424167Y-14637167D01*
X11443214Y-14627643D01*
X11471786Y-14627643D01*
X11490833Y-14637167D01*
X11500357Y-14656214D01*
X11500357Y-14760976D01*
X11890833Y-14551452D02*
X11719405Y-14808595D01*
X12147976Y-14560976D02*
X12167024Y-14560976D01*
X12186071Y-14570500D01*
X12195595Y-14580024D01*
X12205119Y-14599071D01*
X12214643Y-14637167D01*
X12214643Y-14684786D01*
X12205119Y-14722881D01*
X12195595Y-14741928D01*
X12186071Y-14751452D01*
X12167024Y-14760976D01*
X12147976Y-14760976D01*
X12128928Y-14751452D01*
X12119405Y-14741928D01*
X12109881Y-14722881D01*
X12100357Y-14684786D01*
X12100357Y-14637167D01*
X12109881Y-14599071D01*
X12119405Y-14580024D01*
X12128928Y-14570500D01*
X12147976Y-14560976D01*
X12300357Y-14741928D02*
X12309881Y-14751452D01*
X12300357Y-14760976D01*
X12290833Y-14751452D01*
X12300357Y-14741928D01*
X12300357Y-14760976D01*
X12433690Y-14560976D02*
X12452738Y-14560976D01*
X12471786Y-14570500D01*
X12481309Y-14580024D01*
X12490833Y-14599071D01*
X12500357Y-14637167D01*
X12500357Y-14684786D01*
X12490833Y-14722881D01*
X12481309Y-14741928D01*
X12471786Y-14751452D01*
X12452738Y-14760976D01*
X12433690Y-14760976D01*
X12414643Y-14751452D01*
X12405119Y-14741928D01*
X12395595Y-14722881D01*
X12386071Y-14684786D01*
X12386071Y-14637167D01*
X12395595Y-14599071D01*
X12405119Y-14580024D01*
X12414643Y-14570500D01*
X12433690Y-14560976D01*
X12671786Y-14627643D02*
X12671786Y-14760976D01*
X12624167Y-14551452D02*
X12576548Y-14694309D01*
X12700357Y-14694309D01*
X12757500Y-14560976D02*
X12881309Y-14560976D01*
X12814643Y-14637167D01*
X12843214Y-14637167D01*
X12862262Y-14646690D01*
X12871786Y-14656214D01*
X12881309Y-14675262D01*
X12881309Y-14722881D01*
X12871786Y-14741928D01*
X12862262Y-14751452D01*
X12843214Y-14760976D01*
X12786071Y-14760976D01*
X12767024Y-14751452D01*
X12757500Y-14741928D01*
X12947976Y-14560976D02*
X13071786Y-14560976D01*
X13005119Y-14637167D01*
X13033690Y-14637167D01*
X13052738Y-14646690D01*
X13062262Y-14656214D01*
X13071786Y-14675262D01*
X13071786Y-14722881D01*
X13062262Y-14741928D01*
X13052738Y-14751452D01*
X13033690Y-14760976D01*
X12976548Y-14760976D01*
X12957500Y-14751452D01*
X12947976Y-14741928D01*
X13147976Y-14560976D02*
X13147976Y-14599071D01*
X13224167Y-14560976D02*
X13224167Y-14599071D01*
X13519405Y-14837167D02*
X13509881Y-14827643D01*
X13490833Y-14799071D01*
X13481309Y-14780024D01*
X13471786Y-14751452D01*
X13462262Y-14703833D01*
X13462262Y-14665738D01*
X13471786Y-14618119D01*
X13481309Y-14589548D01*
X13490833Y-14570500D01*
X13509881Y-14541928D01*
X13519405Y-14532405D01*
X13586071Y-14580024D02*
X13595595Y-14570500D01*
X13614643Y-14560976D01*
X13662262Y-14560976D01*
X13681309Y-14570500D01*
X13690833Y-14580024D01*
X13700357Y-14599071D01*
X13700357Y-14618119D01*
X13690833Y-14646690D01*
X13576548Y-14760976D01*
X13700357Y-14760976D01*
X13938452Y-14760976D02*
X13938452Y-14560976D01*
X14024167Y-14760976D02*
X14024167Y-14656214D01*
X14014643Y-14637167D01*
X13995595Y-14627643D01*
X13967024Y-14627643D01*
X13947976Y-14637167D01*
X13938452Y-14646690D01*
X14147976Y-14760976D02*
X14128928Y-14751452D01*
X14119405Y-14741928D01*
X14109881Y-14722881D01*
X14109881Y-14665738D01*
X14119405Y-14646690D01*
X14128928Y-14637167D01*
X14147976Y-14627643D01*
X14176548Y-14627643D01*
X14195595Y-14637167D01*
X14205119Y-14646690D01*
X14214643Y-14665738D01*
X14214643Y-14722881D01*
X14205119Y-14741928D01*
X14195595Y-14751452D01*
X14176548Y-14760976D01*
X14147976Y-14760976D01*
X14328928Y-14760976D02*
X14309881Y-14751452D01*
X14300357Y-14732405D01*
X14300357Y-14560976D01*
X14481309Y-14751452D02*
X14462262Y-14760976D01*
X14424167Y-14760976D01*
X14405119Y-14751452D01*
X14395595Y-14732405D01*
X14395595Y-14656214D01*
X14405119Y-14637167D01*
X14424167Y-14627643D01*
X14462262Y-14627643D01*
X14481309Y-14637167D01*
X14490833Y-14656214D01*
X14490833Y-14675262D01*
X14395595Y-14694309D01*
X14567024Y-14751452D02*
X14586071Y-14760976D01*
X14624167Y-14760976D01*
X14643214Y-14751452D01*
X14652738Y-14732405D01*
X14652738Y-14722881D01*
X14643214Y-14703833D01*
X14624167Y-14694309D01*
X14595595Y-14694309D01*
X14576548Y-14684786D01*
X14567024Y-14665738D01*
X14567024Y-14656214D01*
X14576548Y-14637167D01*
X14595595Y-14627643D01*
X14624167Y-14627643D01*
X14643214Y-14637167D01*
X14719405Y-14837167D02*
X14728928Y-14827643D01*
X14747976Y-14799071D01*
X14757500Y-14780024D01*
X14767024Y-14751452D01*
X14776548Y-14703833D01*
X14776548Y-14665738D01*
X14767024Y-14618119D01*
X14757500Y-14589548D01*
X14747976Y-14570500D01*
X14728928Y-14541928D01*
X14719405Y-14532405D01*
X9918211Y-15005211D02*
X9918211Y-14863789D01*
X9776789Y-14863789D01*
X9776789Y-15005211D01*
X9918211Y-15005211D01*
X10195595Y-14844024D02*
X10205119Y-14834500D01*
X10224167Y-14824976D01*
X10271786Y-14824976D01*
X10290833Y-14834500D01*
X10300357Y-14844024D01*
X10309881Y-14863071D01*
X10309881Y-14882119D01*
X10300357Y-14910690D01*
X10186071Y-15024976D01*
X10309881Y-15024976D01*
X10395595Y-15005928D02*
X10405119Y-15015452D01*
X10395595Y-15024976D01*
X10386071Y-15015452D01*
X10395595Y-15005928D01*
X10395595Y-15024976D01*
X10500357Y-15024976D02*
X10538452Y-15024976D01*
X10557500Y-15015452D01*
X10567024Y-15005928D01*
X10586071Y-14977357D01*
X10595595Y-14939262D01*
X10595595Y-14863071D01*
X10586071Y-14844024D01*
X10576548Y-14834500D01*
X10557500Y-14824976D01*
X10519405Y-14824976D01*
X10500357Y-14834500D01*
X10490833Y-14844024D01*
X10481310Y-14863071D01*
X10481310Y-14910690D01*
X10490833Y-14929738D01*
X10500357Y-14939262D01*
X10519405Y-14948786D01*
X10557500Y-14948786D01*
X10576548Y-14939262D01*
X10586071Y-14929738D01*
X10595595Y-14910690D01*
X10776548Y-14824976D02*
X10681310Y-14824976D01*
X10671786Y-14920214D01*
X10681310Y-14910690D01*
X10700357Y-14901167D01*
X10747976Y-14901167D01*
X10767024Y-14910690D01*
X10776548Y-14920214D01*
X10786071Y-14939262D01*
X10786071Y-14986881D01*
X10776548Y-15005928D01*
X10767024Y-15015452D01*
X10747976Y-15024976D01*
X10700357Y-15024976D01*
X10681310Y-15015452D01*
X10671786Y-15005928D01*
X10909881Y-14824976D02*
X10928929Y-14824976D01*
X10947976Y-14834500D01*
X10957500Y-14844024D01*
X10967024Y-14863071D01*
X10976548Y-14901167D01*
X10976548Y-14948786D01*
X10967024Y-14986881D01*
X10957500Y-15005928D01*
X10947976Y-15015452D01*
X10928929Y-15024976D01*
X10909881Y-15024976D01*
X10890833Y-15015452D01*
X10881310Y-15005928D01*
X10871786Y-14986881D01*
X10862262Y-14948786D01*
X10862262Y-14901167D01*
X10871786Y-14863071D01*
X10881310Y-14844024D01*
X10890833Y-14834500D01*
X10909881Y-14824976D01*
X11062262Y-15024976D02*
X11062262Y-14891643D01*
X11062262Y-14910690D02*
X11071786Y-14901167D01*
X11090833Y-14891643D01*
X11119405Y-14891643D01*
X11138452Y-14901167D01*
X11147976Y-14920214D01*
X11147976Y-15024976D01*
X11147976Y-14920214D02*
X11157500Y-14901167D01*
X11176548Y-14891643D01*
X11205119Y-14891643D01*
X11224167Y-14901167D01*
X11233690Y-14920214D01*
X11233690Y-15024976D01*
X11328928Y-15024976D02*
X11328928Y-14891643D01*
X11328928Y-14910690D02*
X11338452Y-14901167D01*
X11357500Y-14891643D01*
X11386071Y-14891643D01*
X11405119Y-14901167D01*
X11414643Y-14920214D01*
X11414643Y-15024976D01*
X11414643Y-14920214D02*
X11424167Y-14901167D01*
X11443214Y-14891643D01*
X11471786Y-14891643D01*
X11490833Y-14901167D01*
X11500357Y-14920214D01*
X11500357Y-15024976D01*
X11890833Y-14815452D02*
X11719405Y-15072595D01*
X12147976Y-14824976D02*
X12167024Y-14824976D01*
X12186071Y-14834500D01*
X12195595Y-14844024D01*
X12205119Y-14863071D01*
X12214643Y-14901167D01*
X12214643Y-14948786D01*
X12205119Y-14986881D01*
X12195595Y-15005928D01*
X12186071Y-15015452D01*
X12167024Y-15024976D01*
X12147976Y-15024976D01*
X12128928Y-15015452D01*
X12119405Y-15005928D01*
X12109881Y-14986881D01*
X12100357Y-14948786D01*
X12100357Y-14901167D01*
X12109881Y-14863071D01*
X12119405Y-14844024D01*
X12128928Y-14834500D01*
X12147976Y-14824976D01*
X12300357Y-15005928D02*
X12309881Y-15015452D01*
X12300357Y-15024976D01*
X12290833Y-15015452D01*
X12300357Y-15005928D01*
X12300357Y-15024976D01*
X12500357Y-15024976D02*
X12386071Y-15024976D01*
X12443214Y-15024976D02*
X12443214Y-14824976D01*
X12424167Y-14853548D01*
X12405119Y-14872595D01*
X12386071Y-14882119D01*
X12690833Y-15024976D02*
X12576548Y-15024976D01*
X12633690Y-15024976D02*
X12633690Y-14824976D01*
X12614643Y-14853548D01*
X12595595Y-14872595D01*
X12576548Y-14882119D01*
X12862262Y-14824976D02*
X12824167Y-14824976D01*
X12805119Y-14834500D01*
X12795595Y-14844024D01*
X12776548Y-14872595D01*
X12767024Y-14910690D01*
X12767024Y-14986881D01*
X12776548Y-15005928D01*
X12786071Y-15015452D01*
X12805119Y-15024976D01*
X12843214Y-15024976D01*
X12862262Y-15015452D01*
X12871786Y-15005928D01*
X12881309Y-14986881D01*
X12881309Y-14939262D01*
X12871786Y-14920214D01*
X12862262Y-14910690D01*
X12843214Y-14901167D01*
X12805119Y-14901167D01*
X12786071Y-14910690D01*
X12776548Y-14920214D01*
X12767024Y-14939262D01*
X13071786Y-15024976D02*
X12957500Y-15024976D01*
X13014643Y-15024976D02*
X13014643Y-14824976D01*
X12995595Y-14853548D01*
X12976548Y-14872595D01*
X12957500Y-14882119D01*
X13147976Y-14824976D02*
X13147976Y-14863071D01*
X13224167Y-14824976D02*
X13224167Y-14863071D01*
X13519405Y-15101167D02*
X13509881Y-15091643D01*
X13490833Y-15063071D01*
X13481309Y-15044024D01*
X13471786Y-15015452D01*
X13462262Y-14967833D01*
X13462262Y-14929738D01*
X13471786Y-14882119D01*
X13481309Y-14853548D01*
X13490833Y-14834500D01*
X13509881Y-14805928D01*
X13519405Y-14796405D01*
X13681309Y-14891643D02*
X13681309Y-15024976D01*
X13633690Y-14815452D02*
X13586071Y-14958309D01*
X13709881Y-14958309D01*
X13938452Y-15024976D02*
X13938452Y-14824976D01*
X14024167Y-15024976D02*
X14024167Y-14920214D01*
X14014643Y-14901167D01*
X13995595Y-14891643D01*
X13967024Y-14891643D01*
X13947976Y-14901167D01*
X13938452Y-14910690D01*
X14147976Y-15024976D02*
X14128928Y-15015452D01*
X14119405Y-15005928D01*
X14109881Y-14986881D01*
X14109881Y-14929738D01*
X14119405Y-14910690D01*
X14128928Y-14901167D01*
X14147976Y-14891643D01*
X14176548Y-14891643D01*
X14195595Y-14901167D01*
X14205119Y-14910690D01*
X14214643Y-14929738D01*
X14214643Y-14986881D01*
X14205119Y-15005928D01*
X14195595Y-15015452D01*
X14176548Y-15024976D01*
X14147976Y-15024976D01*
X14328928Y-15024976D02*
X14309881Y-15015452D01*
X14300357Y-14996405D01*
X14300357Y-14824976D01*
X14481309Y-15015452D02*
X14462262Y-15024976D01*
X14424167Y-15024976D01*
X14405119Y-15015452D01*
X14395595Y-14996405D01*
X14395595Y-14920214D01*
X14405119Y-14901167D01*
X14424167Y-14891643D01*
X14462262Y-14891643D01*
X14481309Y-14901167D01*
X14490833Y-14920214D01*
X14490833Y-14939262D01*
X14395595Y-14958309D01*
X14567024Y-15015452D02*
X14586071Y-15024976D01*
X14624167Y-15024976D01*
X14643214Y-15015452D01*
X14652738Y-14996405D01*
X14652738Y-14986881D01*
X14643214Y-14967833D01*
X14624167Y-14958309D01*
X14595595Y-14958309D01*
X14576548Y-14948786D01*
X14567024Y-14929738D01*
X14567024Y-14920214D01*
X14576548Y-14901167D01*
X14595595Y-14891643D01*
X14624167Y-14891643D01*
X14643214Y-14901167D01*
X14719405Y-15101167D02*
X14728928Y-15091643D01*
X14747976Y-15063071D01*
X14757500Y-15044024D01*
X14767024Y-15015452D01*
X14776548Y-14967833D01*
X14776548Y-14929738D01*
X14767024Y-14882119D01*
X14757500Y-14853548D01*
X14747976Y-14834500D01*
X14728928Y-14805928D01*
X14719405Y-14796405D01*
M02*
