%TF.GenerationSoftware,KiCad,Pcbnew,(6.0.9)*%
%TF.CreationDate,2023-01-30T21:02:38-08:00*%
%TF.ProjectId,solar-panel-side-Z,736f6c61-722d-4706-916e-656c2d736964,2.0*%
%TF.SameCoordinates,Original*%
%TF.FileFunction,Copper,L4,Bot*%
%TF.FilePolarity,Positive*%
%FSLAX46Y46*%
G04 Gerber Fmt 4.6, Leading zero omitted, Abs format (unit mm)*
G04 Created by KiCad (PCBNEW (6.0.9)) date 2023-01-30 21:02:38*
%MOMM*%
%LPD*%
G01*
G04 APERTURE LIST*
G04 Aperture macros list*
%AMRoundRect*
0 Rectangle with rounded corners*
0 $1 Rounding radius*
0 $2 $3 $4 $5 $6 $7 $8 $9 X,Y pos of 4 corners*
0 Add a 4 corners polygon primitive as box body*
4,1,4,$2,$3,$4,$5,$6,$7,$8,$9,$2,$3,0*
0 Add four circle primitives for the rounded corners*
1,1,$1+$1,$2,$3*
1,1,$1+$1,$4,$5*
1,1,$1+$1,$6,$7*
1,1,$1+$1,$8,$9*
0 Add four rect primitives between the rounded corners*
20,1,$1+$1,$2,$3,$4,$5,0*
20,1,$1+$1,$4,$5,$6,$7,0*
20,1,$1+$1,$6,$7,$8,$9,0*
20,1,$1+$1,$8,$9,$2,$3,0*%
%AMFreePoly0*
4,1,5,0.190000,-0.275000,-0.190000,-0.275000,-0.190000,0.275000,0.190000,0.275000,0.190000,-0.275000,0.190000,-0.275000,$1*%
%AMFreePoly1*
4,1,5,1.660000,-1.660000,-1.660000,-1.660000,-1.660000,1.660000,1.660000,1.660000,1.660000,-1.660000,1.660000,-1.660000,$1*%
G04 Aperture macros list end*
%TA.AperFunction,Profile*%
%ADD10C,0.050000*%
%TD*%
%TA.AperFunction,ComponentPad*%
%ADD11C,5.250000*%
%TD*%
%TA.AperFunction,SMDPad,CuDef*%
%ADD12R,0.600000X1.000000*%
%TD*%
%TA.AperFunction,SMDPad,CuDef*%
%ADD13R,1.250000X1.800000*%
%TD*%
%TA.AperFunction,SMDPad,CuDef*%
%ADD14RoundRect,0.200000X-0.200000X-0.275000X0.200000X-0.275000X0.200000X0.275000X-0.200000X0.275000X0*%
%TD*%
%TA.AperFunction,SMDPad,CuDef*%
%ADD15RoundRect,0.200000X0.200000X0.275000X-0.200000X0.275000X-0.200000X-0.275000X0.200000X-0.275000X0*%
%TD*%
%TA.AperFunction,SMDPad,CuDef*%
%ADD16R,0.650000X0.400000*%
%TD*%
%TA.AperFunction,SMDPad,CuDef*%
%ADD17RoundRect,0.200000X0.275000X-0.200000X0.275000X0.200000X-0.275000X0.200000X-0.275000X-0.200000X0*%
%TD*%
%TA.AperFunction,SMDPad,CuDef*%
%ADD18RoundRect,0.250000X-0.475000X0.250000X-0.475000X-0.250000X0.475000X-0.250000X0.475000X0.250000X0*%
%TD*%
%TA.AperFunction,SMDPad,CuDef*%
%ADD19FreePoly0,270.000000*%
%TD*%
%TA.AperFunction,SMDPad,CuDef*%
%ADD20FreePoly0,180.000000*%
%TD*%
%TA.AperFunction,SMDPad,CuDef*%
%ADD21FreePoly0,0.000000*%
%TD*%
%TA.AperFunction,SMDPad,CuDef*%
%ADD22FreePoly1,0.000000*%
%TD*%
%TA.AperFunction,ComponentPad*%
%ADD23C,1.800000*%
%TD*%
%TA.AperFunction,ViaPad*%
%ADD24C,0.800000*%
%TD*%
%TA.AperFunction,ViaPad*%
%ADD25C,0.450000*%
%TD*%
%TA.AperFunction,Conductor*%
%ADD26C,0.250000*%
%TD*%
%TA.AperFunction,Conductor*%
%ADD27C,0.500000*%
%TD*%
G04 APERTURE END LIST*
D10*
X99500000Y-45500000D02*
X110000000Y-45500000D01*
X189000000Y-135000000D02*
X110000000Y-135000000D01*
X199500000Y-124500000D02*
X189000000Y-124500000D01*
X189000000Y-45500000D02*
X199500000Y-45500000D01*
X99500000Y-124500000D02*
X99500000Y-45500000D01*
X110000000Y-135000000D02*
X110000000Y-124500000D01*
X110000000Y-35000000D02*
X189000000Y-35000000D01*
X110000000Y-124500000D02*
X99500000Y-124500000D01*
X199500000Y-45500000D02*
X199500000Y-124500000D01*
X189000000Y-35000000D02*
X189000000Y-45500000D01*
X110000000Y-45500000D02*
X110000000Y-35000000D01*
X189000000Y-124500000D02*
X189000000Y-135000000D01*
D11*
%TO.P,J3,1,Pin_1*%
%TO.N,unconnected-(J3-Pad1)*%
X110500000Y-85000000D03*
%TD*%
%TO.P,J4,1,Pin_1*%
%TO.N,unconnected-(J4-Pad1)*%
X141750000Y-124000000D03*
%TD*%
%TO.P,J5,1,Pin_1*%
%TO.N,unconnected-(J5-Pad1)*%
X157250000Y-46000000D03*
%TD*%
%TO.P,J6,1,Pin_1*%
%TO.N,unconnected-(J6-Pad1)*%
X188500000Y-85000000D03*
%TD*%
D12*
%TO.P,J1,1,1*%
%TO.N,VSOLAR*%
X141750000Y-99750000D03*
%TO.P,J1,2,2*%
%TO.N,GND*%
X140250000Y-99750000D03*
%TO.P,J1,3,3*%
%TO.N,+3V3*%
X138750001Y-99750000D03*
%TO.P,J1,4,4*%
%TO.N,SCL*%
X137249999Y-99750000D03*
%TO.P,J1,5,5*%
%TO.N,SDA*%
X135749999Y-99750000D03*
D13*
%TO.P,J1,6,6*%
%TO.N,unconnected-(J1-Pad6)*%
X144354999Y-104940000D03*
%TO.P,J1,7,7*%
%TO.N,unconnected-(J1-Pad7)*%
X133145001Y-104940000D03*
%TD*%
D14*
%TO.P,R4,1*%
%TO.N,VSense*%
X163939922Y-86470000D03*
%TO.P,R4,2*%
%TO.N,Net-(C6-Pad2)*%
X165589922Y-86470000D03*
%TD*%
D15*
%TO.P,R5,1*%
%TO.N,Net-(C6-Pad1)*%
X165629922Y-83250000D03*
%TO.P,R5,2*%
%TO.N,Net-(D1-Pad3)*%
X163979922Y-83250000D03*
%TD*%
D16*
%TO.P,D1,1,A1*%
%TO.N,GND*%
X160489922Y-85430000D03*
%TO.P,D1,2,K2*%
%TO.N,+3V3*%
X160489922Y-84780000D03*
%TO.P,D1,3,K1A2*%
%TO.N,Net-(D1-Pad3)*%
X160489922Y-84130000D03*
%TO.P,D1,4,A3*%
%TO.N,GND*%
X162389922Y-84130000D03*
%TO.P,D1,5,K4*%
%TO.N,+3V3*%
X162389922Y-84780000D03*
%TO.P,D1,6,K3A4*%
%TO.N,VSense*%
X162389922Y-85430000D03*
%TD*%
D17*
%TO.P,R6,1*%
%TO.N,GND*%
X157169922Y-85630000D03*
%TO.P,R6,2*%
%TO.N,Net-(D1-Pad3)*%
X157169922Y-83980000D03*
%TD*%
D18*
%TO.P,C6,1*%
%TO.N,Net-(C6-Pad1)*%
X167559922Y-83980000D03*
%TO.P,C6,2*%
%TO.N,Net-(C6-Pad2)*%
X167559922Y-85880000D03*
%TD*%
D15*
%TO.P,R1,1*%
%TO.N,VSense*%
X162379922Y-87190000D03*
%TO.P,R1,2*%
%TO.N,GND*%
X160729922Y-87190000D03*
%TD*%
D14*
%TO.P,FB1,1*%
%TO.N,Net-(FB1-Pad1)*%
X157599922Y-87210000D03*
%TO.P,FB1,2*%
%TO.N,VSense*%
X159249922Y-87210000D03*
%TD*%
D19*
%TO.P,U4,1,GND*%
%TO.N,GND*%
X170520000Y-86330000D03*
%TO.P,U4,2,VIN+*%
%TO.N,Net-(C6-Pad2)*%
X170520000Y-85680000D03*
%TO.P,U4,3,GND*%
%TO.N,GND*%
X170520000Y-85030000D03*
%TO.P,U4,4,VIN-*%
%TO.N,Net-(C6-Pad1)*%
X170520000Y-84380000D03*
%TO.P,U4,5,GND*%
%TO.N,GND*%
X170520000Y-83730000D03*
D20*
%TO.P,U4,6,VSENSE*%
%TO.N,VSense*%
X171470000Y-82780000D03*
%TO.P,U4,7,SC_Alert*%
%TO.N,unconnected-(U4-Pad7)*%
X172120000Y-82780000D03*
%TO.P,U4,8,VDD*%
%TO.N,+3V3*%
X172770000Y-82780000D03*
%TO.P,U4,9,OC_ALERT*%
%TO.N,unconnected-(U4-Pad9)*%
X173420000Y-82780000D03*
%TO.P,U4,10,GND*%
%TO.N,GND*%
X174070000Y-82780000D03*
D19*
%TO.P,U4,11,A1*%
%TO.N,unconnected-(U4-Pad11)*%
X175020000Y-83730000D03*
%TO.P,U4,12,A2*%
%TO.N,unconnected-(U4-Pad12)*%
X175020000Y-84380000D03*
%TO.P,U4,13,GND*%
%TO.N,GND*%
X175020000Y-85030000D03*
%TO.P,U4,14,A3*%
%TO.N,unconnected-(U4-Pad14)*%
X175020000Y-85680000D03*
%TO.P,U4,15,A4*%
%TO.N,unconnected-(U4-Pad15)*%
X175020000Y-86330000D03*
D21*
%TO.P,U4,16,ADDR*%
%TO.N,GND*%
X174070000Y-87280000D03*
%TO.P,U4,17,GND*%
X173420000Y-87280000D03*
%TO.P,U4,18,GND*%
X172770000Y-87280000D03*
%TO.P,U4,19,SCL*%
%TO.N,SCL*%
X172120000Y-87280000D03*
%TO.P,U4,20,SDA*%
%TO.N,SDA*%
X171470000Y-87280000D03*
D22*
%TO.P,U4,21,EP*%
%TO.N,GND*%
X172770000Y-85030000D03*
%TD*%
D14*
%TO.P,R3,1*%
%TO.N,+3V3*%
X160759922Y-82330000D03*
%TO.P,R3,2*%
%TO.N,VSense*%
X162409922Y-82330000D03*
%TD*%
%TO.P,FB2,1*%
%TO.N,Net-(FB2-Pad1)*%
X157639922Y-82330000D03*
%TO.P,FB2,2*%
%TO.N,Net-(D1-Pad3)*%
X159289922Y-82330000D03*
%TD*%
D23*
%TO.P,J2,1,Pin_1*%
%TO.N,Net-(FB2-Pad1)*%
X150689922Y-83020000D03*
%TO.P,J2,2,Pin_2*%
%TO.N,Net-(FB1-Pad1)*%
X150689922Y-86520000D03*
%TD*%
D24*
%TO.N,GND*%
X107150000Y-112590000D03*
D25*
X172770000Y-85950000D03*
X173710000Y-85030000D03*
D24*
X149060000Y-96220000D03*
D25*
X173690000Y-85950000D03*
D24*
X157310000Y-72510000D03*
D25*
X172860000Y-84120000D03*
X173760000Y-84100000D03*
D24*
X145330000Y-69850000D03*
X144270000Y-99550000D03*
D25*
X171850000Y-85030000D03*
X171840000Y-84130000D03*
D24*
X167400000Y-76940000D03*
D25*
X171845000Y-85955000D03*
X172830000Y-85030000D03*
D24*
X153500000Y-68760000D03*
%TO.N,+3V3*%
X159299922Y-84780000D03*
X141210000Y-95190000D03*
X150340000Y-102880000D03*
X171980000Y-81020000D03*
X164009922Y-85100000D03*
X154250000Y-99940000D03*
X138815000Y-101955000D03*
%TO.N,VSOLAR*%
X141590000Y-102830000D03*
%TO.N,SDA*%
X135670000Y-98200000D03*
X150940000Y-100960000D03*
X143340000Y-88410000D03*
%TO.N,SCL*%
X143775000Y-89605000D03*
X137270000Y-98240000D03*
X150070000Y-100390000D03*
%TO.N,Net-(D1-Pad3)*%
X161239922Y-83380000D03*
X159309922Y-81070000D03*
%TO.N,VSense*%
X162404922Y-81085000D03*
X165349922Y-85060000D03*
%TO.N,Net-(U2-Pad7)*%
X151020000Y-121610000D03*
X150850000Y-109290000D03*
X151910000Y-121620000D03*
%TD*%
D26*
%TO.N,GND*%
X171470000Y-86330000D02*
X171845000Y-85955000D01*
X170520000Y-85030000D02*
X171850000Y-85030000D01*
X170520000Y-86330000D02*
X172470000Y-86330000D01*
X160729922Y-85670000D02*
X160489922Y-85430000D01*
X173840000Y-85030000D02*
X172830000Y-85030000D01*
X174070000Y-86330000D02*
X173690000Y-85950000D01*
X172770000Y-85950000D02*
X172770000Y-85030000D01*
X166171749Y-84130000D02*
X167071749Y-85030000D01*
X162389922Y-84130000D02*
X166171749Y-84130000D01*
X160729922Y-87190000D02*
X160729922Y-85670000D01*
X141160000Y-98840000D02*
X143560000Y-98840000D01*
X174070000Y-82780000D02*
X174070000Y-83730000D01*
X160289922Y-85630000D02*
X157169922Y-85630000D01*
X173420000Y-87280000D02*
X173420000Y-85680000D01*
X173885000Y-83915000D02*
X172770000Y-85030000D01*
X140250000Y-99750000D02*
X141160000Y-98840000D01*
X161939922Y-84130000D02*
X161459922Y-84610000D01*
X175020000Y-85030000D02*
X173840000Y-85030000D01*
X170654922Y-83865000D02*
X171605000Y-83865000D01*
X172830000Y-85030000D02*
X172770000Y-85030000D01*
X167071749Y-85030000D02*
X170520000Y-85030000D01*
X170520000Y-83730078D02*
X170654922Y-83865000D01*
X170520000Y-83730000D02*
X170520000Y-83730078D01*
X174070000Y-83730000D02*
X173885000Y-83915000D01*
X172470000Y-86330000D02*
X173420000Y-87280000D01*
X171850000Y-85030000D02*
X172770000Y-85030000D01*
X161064922Y-85430000D02*
X161459922Y-85035000D01*
X173690000Y-85950000D02*
X172770000Y-85030000D01*
X172770000Y-87280000D02*
X174070000Y-87280000D01*
X171845000Y-85955000D02*
X172770000Y-85030000D01*
X170520000Y-86330000D02*
X171470000Y-86330000D01*
X160489922Y-85430000D02*
X161064922Y-85430000D01*
X173420000Y-85680000D02*
X172770000Y-85030000D01*
X162389922Y-84130000D02*
X161939922Y-84130000D01*
X160489922Y-85430000D02*
X160289922Y-85630000D01*
X143560000Y-98840000D02*
X144270000Y-99550000D01*
X161459922Y-85035000D02*
X161459922Y-84610000D01*
X174070000Y-87280000D02*
X174070000Y-86330000D01*
X172770000Y-87280000D02*
X172770000Y-85950000D01*
%TO.N,+3V3*%
X159299922Y-84780000D02*
X160489922Y-84780000D01*
X150340000Y-102880000D02*
X153270000Y-99950000D01*
X162389922Y-84780000D02*
X163689922Y-84780000D01*
X153270000Y-99950000D02*
X154240000Y-99950000D01*
D27*
X138750001Y-101720001D02*
X138900000Y-101870000D01*
D26*
X172770000Y-82780000D02*
X172770000Y-81810000D01*
X159299922Y-84780000D02*
X159299922Y-83790000D01*
X159299922Y-83790000D02*
X160759922Y-82330000D01*
X172770000Y-81810000D02*
X171980000Y-81020000D01*
X163689922Y-84780000D02*
X164009922Y-85100000D01*
D27*
X138750001Y-99750000D02*
X138750001Y-101720001D01*
%TO.N,VSOLAR*%
X141750000Y-102670000D02*
X141590000Y-102830000D01*
X141750000Y-99750000D02*
X141750000Y-102670000D01*
D26*
%TO.N,SDA*%
X143330000Y-88410000D02*
X135670000Y-96070000D01*
X135749999Y-101119999D02*
X135749999Y-99750000D01*
X143590000Y-88660000D02*
X143340000Y-88410000D01*
X171470000Y-87280000D02*
X170090000Y-88660000D01*
X148345000Y-103555000D02*
X138185000Y-103555000D01*
X138185000Y-103555000D02*
X135749999Y-101119999D01*
X135670000Y-98200000D02*
X135670000Y-99670001D01*
X150940000Y-100960000D02*
X148345000Y-103555000D01*
X170090000Y-88660000D02*
X143590000Y-88660000D01*
X143340000Y-88410000D02*
X143330000Y-88410000D01*
X135670000Y-99670001D02*
X135749999Y-99750000D01*
X135670000Y-96070000D02*
X135670000Y-98200000D01*
%TO.N,SCL*%
X150070000Y-100390000D02*
X147920000Y-98240000D01*
X172120000Y-88410000D02*
X170925000Y-89605000D01*
X137270000Y-98240000D02*
X137270000Y-99729999D01*
X147920000Y-98240000D02*
X137270000Y-98240000D01*
X143710000Y-89650000D02*
X137270000Y-96090000D01*
X137270000Y-99729999D02*
X137249999Y-99750000D01*
X170925000Y-89605000D02*
X143775000Y-89605000D01*
X137270000Y-96090000D02*
X137270000Y-98240000D01*
X172120000Y-87280000D02*
X172120000Y-88410000D01*
%TO.N,Net-(C6-Pad1)*%
X167959922Y-84380000D02*
X167559922Y-83980000D01*
X170520000Y-84380000D02*
X167959922Y-84380000D01*
X166829922Y-83250000D02*
X165629922Y-83250000D01*
X167559922Y-83980000D02*
X166829922Y-83250000D01*
%TO.N,Net-(C6-Pad2)*%
X170520000Y-85680000D02*
X167759922Y-85680000D01*
X167759922Y-85680000D02*
X167559922Y-85880000D01*
X166969922Y-86470000D02*
X167559922Y-85880000D01*
X165589922Y-86470000D02*
X166969922Y-86470000D01*
%TO.N,Net-(D1-Pad3)*%
X163979922Y-83250000D02*
X161369922Y-83250000D01*
X161239922Y-83380000D02*
X160489922Y-84130000D01*
X159289922Y-82330000D02*
X157639922Y-83980000D01*
X159289922Y-81090000D02*
X159309922Y-81070000D01*
X157639922Y-83980000D02*
X157169922Y-83980000D01*
X159289922Y-82330000D02*
X159289922Y-81090000D01*
X161369922Y-83250000D02*
X161239922Y-83380000D01*
%TO.N,VSense*%
X162379922Y-87190000D02*
X163219922Y-87190000D01*
X162379922Y-87190000D02*
X161359922Y-88210000D01*
X163939922Y-86470000D02*
X165349922Y-85060000D01*
X162899922Y-85430000D02*
X163939922Y-86470000D01*
X162409922Y-82330000D02*
X162399922Y-82320000D01*
X161359922Y-88210000D02*
X160249922Y-88210000D01*
X169775000Y-81085000D02*
X171470000Y-82780000D01*
X162399922Y-82320000D02*
X162399922Y-81150000D01*
X160249922Y-88210000D02*
X159249922Y-87210000D01*
X162404922Y-81085000D02*
X169775000Y-81085000D01*
X163219922Y-87190000D02*
X163939922Y-86470000D01*
X162389922Y-85430000D02*
X162899922Y-85430000D01*
%TO.N,Net-(FB1-Pad1)*%
X150689922Y-86520000D02*
X156909922Y-86520000D01*
X156909922Y-86520000D02*
X157599922Y-87210000D01*
%TO.N,Net-(FB2-Pad1)*%
X157639922Y-82330000D02*
X156939922Y-83030000D01*
X150689922Y-83020000D02*
X156929922Y-83020000D01*
X156929922Y-83020000D02*
X156939922Y-83030000D01*
%TD*%
%TA.AperFunction,Conductor*%
%TO.N,GND*%
G36*
X188433621Y-35528502D02*
G01*
X188480114Y-35582158D01*
X188491500Y-35634500D01*
X188491500Y-45491377D01*
X188491498Y-45492147D01*
X188491024Y-45569721D01*
X188493491Y-45578352D01*
X188499150Y-45598153D01*
X188502728Y-45614915D01*
X188506920Y-45644187D01*
X188510634Y-45652355D01*
X188510634Y-45652356D01*
X188517548Y-45667562D01*
X188523996Y-45685086D01*
X188531051Y-45709771D01*
X188535843Y-45717365D01*
X188535844Y-45717368D01*
X188546830Y-45734780D01*
X188554969Y-45749863D01*
X188567208Y-45776782D01*
X188573069Y-45783584D01*
X188583970Y-45796235D01*
X188595073Y-45811239D01*
X188608776Y-45832958D01*
X188615501Y-45838897D01*
X188615504Y-45838901D01*
X188630938Y-45852532D01*
X188642982Y-45864724D01*
X188656427Y-45880327D01*
X188656430Y-45880329D01*
X188662287Y-45887127D01*
X188669816Y-45892007D01*
X188669817Y-45892008D01*
X188683835Y-45901094D01*
X188698709Y-45912385D01*
X188711217Y-45923431D01*
X188717951Y-45929378D01*
X188744711Y-45941942D01*
X188759691Y-45950263D01*
X188776983Y-45961471D01*
X188776988Y-45961473D01*
X188784515Y-45966352D01*
X188793108Y-45968922D01*
X188793113Y-45968924D01*
X188809120Y-45973711D01*
X188826564Y-45980372D01*
X188841676Y-45987467D01*
X188841678Y-45987468D01*
X188849800Y-45991281D01*
X188858667Y-45992662D01*
X188858668Y-45992662D01*
X188861353Y-45993080D01*
X188879017Y-45995830D01*
X188895732Y-45999613D01*
X188915466Y-46005515D01*
X188915472Y-46005516D01*
X188924066Y-46008086D01*
X188933037Y-46008141D01*
X188933038Y-46008141D01*
X188943097Y-46008202D01*
X188958506Y-46008296D01*
X188959289Y-46008329D01*
X188960386Y-46008500D01*
X188991377Y-46008500D01*
X188992147Y-46008502D01*
X189065785Y-46008952D01*
X189065786Y-46008952D01*
X189069721Y-46008976D01*
X189071065Y-46008592D01*
X189072410Y-46008500D01*
X198865500Y-46008500D01*
X198933621Y-46028502D01*
X198980114Y-46082158D01*
X198991500Y-46134500D01*
X198991500Y-123865500D01*
X198971498Y-123933621D01*
X198917842Y-123980114D01*
X198865500Y-123991500D01*
X189008623Y-123991500D01*
X189007853Y-123991498D01*
X189007037Y-123991493D01*
X188930279Y-123991024D01*
X188907918Y-123997415D01*
X188901847Y-123999150D01*
X188885085Y-124002728D01*
X188855813Y-124006920D01*
X188847645Y-124010634D01*
X188847644Y-124010634D01*
X188832438Y-124017548D01*
X188814914Y-124023996D01*
X188790229Y-124031051D01*
X188782635Y-124035843D01*
X188782632Y-124035844D01*
X188765220Y-124046830D01*
X188750137Y-124054969D01*
X188723218Y-124067208D01*
X188716416Y-124073069D01*
X188703765Y-124083970D01*
X188688761Y-124095073D01*
X188667042Y-124108776D01*
X188661103Y-124115501D01*
X188661099Y-124115504D01*
X188647468Y-124130938D01*
X188635276Y-124142982D01*
X188619673Y-124156427D01*
X188619671Y-124156430D01*
X188612873Y-124162287D01*
X188607993Y-124169816D01*
X188607992Y-124169817D01*
X188598906Y-124183835D01*
X188587615Y-124198709D01*
X188576569Y-124211217D01*
X188570622Y-124217951D01*
X188564312Y-124231391D01*
X188558058Y-124244711D01*
X188549737Y-124259691D01*
X188538529Y-124276983D01*
X188538527Y-124276988D01*
X188533648Y-124284515D01*
X188531078Y-124293108D01*
X188531076Y-124293113D01*
X188526289Y-124309120D01*
X188519628Y-124326564D01*
X188512533Y-124341676D01*
X188508719Y-124349800D01*
X188507338Y-124358667D01*
X188507338Y-124358668D01*
X188504170Y-124379015D01*
X188500387Y-124395732D01*
X188494485Y-124415466D01*
X188494484Y-124415472D01*
X188491914Y-124424066D01*
X188491859Y-124433037D01*
X188491859Y-124433038D01*
X188491704Y-124458497D01*
X188491671Y-124459289D01*
X188491500Y-124460386D01*
X188491500Y-124491377D01*
X188491498Y-124492147D01*
X188491024Y-124569721D01*
X188491408Y-124571065D01*
X188491500Y-124572410D01*
X188491500Y-134365500D01*
X188471498Y-134433621D01*
X188417842Y-134480114D01*
X188365500Y-134491500D01*
X110634500Y-134491500D01*
X110566379Y-134471498D01*
X110519886Y-134417842D01*
X110508500Y-134365500D01*
X110508500Y-124508623D01*
X110508502Y-124507853D01*
X110508800Y-124459102D01*
X110508976Y-124430279D01*
X110500850Y-124401847D01*
X110497272Y-124385085D01*
X110494352Y-124364698D01*
X110493080Y-124355813D01*
X110482451Y-124332436D01*
X110476004Y-124314913D01*
X110471416Y-124298862D01*
X110468949Y-124290229D01*
X110464156Y-124282632D01*
X110453170Y-124265220D01*
X110445030Y-124250135D01*
X110442564Y-124244711D01*
X110432792Y-124223218D01*
X110416030Y-124203765D01*
X110404927Y-124188761D01*
X110391224Y-124167042D01*
X110384499Y-124161103D01*
X110384496Y-124161099D01*
X110369062Y-124147468D01*
X110357018Y-124135276D01*
X110343573Y-124119673D01*
X110343570Y-124119671D01*
X110337713Y-124112873D01*
X110324009Y-124103990D01*
X110316165Y-124098906D01*
X110301291Y-124087615D01*
X110288783Y-124076569D01*
X110288782Y-124076568D01*
X110282049Y-124070622D01*
X110255287Y-124058057D01*
X110240309Y-124049737D01*
X110223017Y-124038529D01*
X110223012Y-124038527D01*
X110215485Y-124033648D01*
X110206892Y-124031078D01*
X110206887Y-124031076D01*
X110190880Y-124026289D01*
X110173436Y-124019628D01*
X110158324Y-124012533D01*
X110158322Y-124012532D01*
X110150200Y-124008719D01*
X110141333Y-124007338D01*
X110141332Y-124007338D01*
X110130478Y-124005648D01*
X110120983Y-124004170D01*
X110104268Y-124000387D01*
X110084534Y-123994485D01*
X110084528Y-123994484D01*
X110075934Y-123991914D01*
X110066963Y-123991859D01*
X110066962Y-123991859D01*
X110056903Y-123991798D01*
X110041494Y-123991704D01*
X110040711Y-123991671D01*
X110039614Y-123991500D01*
X110008623Y-123991500D01*
X110007853Y-123991498D01*
X109934215Y-123991048D01*
X109934214Y-123991048D01*
X109930279Y-123991024D01*
X109928935Y-123991408D01*
X109927590Y-123991500D01*
X100134500Y-123991500D01*
X100066379Y-123971498D01*
X100053107Y-123956181D01*
X138611869Y-123956181D01*
X138626542Y-124306258D01*
X138647131Y-124439254D01*
X138667328Y-124569721D01*
X138680145Y-124652518D01*
X138772012Y-124990645D01*
X138773302Y-124993904D01*
X138773304Y-124993909D01*
X138822316Y-125117698D01*
X138900998Y-125316424D01*
X139065493Y-125625795D01*
X139067483Y-125628701D01*
X139067484Y-125628703D01*
X139141490Y-125736785D01*
X139263449Y-125914902D01*
X139492397Y-126180142D01*
X139749485Y-126418207D01*
X140031507Y-126626132D01*
X140034544Y-126627886D01*
X140034548Y-126627888D01*
X140195060Y-126720559D01*
X140334949Y-126801324D01*
X140338170Y-126802731D01*
X140652807Y-126940193D01*
X140652817Y-126940197D01*
X140656029Y-126941600D01*
X140659387Y-126942639D01*
X140659391Y-126942641D01*
X140795685Y-126984831D01*
X140990743Y-127045212D01*
X140994199Y-127045871D01*
X140994198Y-127045871D01*
X141331471Y-127110210D01*
X141331477Y-127110211D01*
X141334922Y-127110868D01*
X141566253Y-127128668D01*
X141680777Y-127137480D01*
X141680778Y-127137480D01*
X141684274Y-127137749D01*
X141916291Y-127129646D01*
X142030929Y-127125643D01*
X142030933Y-127125643D01*
X142034445Y-127125520D01*
X142037924Y-127125006D01*
X142037927Y-127125006D01*
X142377578Y-127074851D01*
X142377584Y-127074850D01*
X142381070Y-127074335D01*
X142384474Y-127073436D01*
X142384477Y-127073435D01*
X142716439Y-126985727D01*
X142716440Y-126985727D01*
X142719830Y-126984831D01*
X143046502Y-126858123D01*
X143357014Y-126695792D01*
X143647496Y-126499859D01*
X143914327Y-126272768D01*
X143999069Y-126182527D01*
X144151771Y-126019916D01*
X144151775Y-126019911D01*
X144154182Y-126017348D01*
X144364071Y-125736785D01*
X144541377Y-125434573D01*
X144542809Y-125431357D01*
X144682459Y-125117698D01*
X144682461Y-125117693D01*
X144683891Y-125114481D01*
X144789837Y-124780498D01*
X144857894Y-124436786D01*
X144877886Y-124198709D01*
X144887030Y-124089814D01*
X144887031Y-124089803D01*
X144887213Y-124087630D01*
X144887265Y-124083970D01*
X144888407Y-124002178D01*
X144888407Y-124002166D01*
X144888437Y-124000000D01*
X144888074Y-123993491D01*
X144869074Y-123653671D01*
X144868878Y-123650162D01*
X144810445Y-123304684D01*
X144713866Y-122967873D01*
X144666818Y-122853726D01*
X144581683Y-122647171D01*
X144581679Y-122647163D01*
X144580345Y-122643926D01*
X144411546Y-122336882D01*
X144209573Y-122050567D01*
X144162262Y-121997279D01*
X143979274Y-121791175D01*
X143979270Y-121791171D01*
X143976943Y-121788550D01*
X143974342Y-121786208D01*
X143974337Y-121786203D01*
X143778644Y-121610000D01*
X150106496Y-121610000D01*
X150126458Y-121799928D01*
X150185473Y-121981556D01*
X150188776Y-121987278D01*
X150188777Y-121987279D01*
X150194551Y-121997279D01*
X150280960Y-122146944D01*
X150408747Y-122288866D01*
X150563248Y-122401118D01*
X150569276Y-122403802D01*
X150569278Y-122403803D01*
X150731679Y-122476108D01*
X150737712Y-122478794D01*
X150831112Y-122498647D01*
X150918056Y-122517128D01*
X150918061Y-122517128D01*
X150924513Y-122518500D01*
X151115487Y-122518500D01*
X151121939Y-122517128D01*
X151121944Y-122517128D01*
X151208888Y-122498647D01*
X151302288Y-122478794D01*
X151308315Y-122476111D01*
X151308323Y-122476108D01*
X151402522Y-122434168D01*
X151472889Y-122424734D01*
X151505018Y-122434168D01*
X151621677Y-122486108D01*
X151621685Y-122486111D01*
X151627712Y-122488794D01*
X151721113Y-122508647D01*
X151808056Y-122527128D01*
X151808061Y-122527128D01*
X151814513Y-122528500D01*
X152005487Y-122528500D01*
X152011939Y-122527128D01*
X152011944Y-122527128D01*
X152098887Y-122508647D01*
X152192288Y-122488794D01*
X152211667Y-122480166D01*
X152360722Y-122413803D01*
X152360724Y-122413802D01*
X152366752Y-122411118D01*
X152385858Y-122397237D01*
X152464689Y-122339962D01*
X152521253Y-122298866D01*
X152649040Y-122156944D01*
X152744527Y-121991556D01*
X152803542Y-121809928D01*
X152823504Y-121620000D01*
X152803542Y-121430072D01*
X152744527Y-121248444D01*
X152738754Y-121238444D01*
X152652341Y-121088774D01*
X152649040Y-121083056D01*
X152613345Y-121043412D01*
X152525675Y-120946045D01*
X152525674Y-120946044D01*
X152521253Y-120941134D01*
X152366752Y-120828882D01*
X152360724Y-120826198D01*
X152360722Y-120826197D01*
X152198319Y-120753891D01*
X152198318Y-120753891D01*
X152192288Y-120751206D01*
X152098888Y-120731353D01*
X152011944Y-120712872D01*
X152011939Y-120712872D01*
X152005487Y-120711500D01*
X151814513Y-120711500D01*
X151808061Y-120712872D01*
X151808056Y-120712872D01*
X151721112Y-120731353D01*
X151627712Y-120751206D01*
X151621685Y-120753889D01*
X151621677Y-120753892D01*
X151527478Y-120795832D01*
X151457111Y-120805266D01*
X151424982Y-120795832D01*
X151308323Y-120743892D01*
X151308315Y-120743889D01*
X151302288Y-120741206D01*
X151208888Y-120721353D01*
X151121944Y-120702872D01*
X151121939Y-120702872D01*
X151115487Y-120701500D01*
X150924513Y-120701500D01*
X150918061Y-120702872D01*
X150918056Y-120702872D01*
X150831112Y-120721353D01*
X150737712Y-120741206D01*
X150731682Y-120743891D01*
X150731681Y-120743891D01*
X150569278Y-120816197D01*
X150569276Y-120816198D01*
X150563248Y-120818882D01*
X150557907Y-120822762D01*
X150557906Y-120822763D01*
X150507843Y-120859136D01*
X150408747Y-120931134D01*
X150404326Y-120936044D01*
X150404325Y-120936045D01*
X150307652Y-121043412D01*
X150280960Y-121073056D01*
X150185473Y-121238444D01*
X150126458Y-121420072D01*
X150106496Y-121610000D01*
X143778644Y-121610000D01*
X143719167Y-121556447D01*
X143719166Y-121556447D01*
X143716557Y-121554097D01*
X143678538Y-121526878D01*
X143434513Y-121352173D01*
X143434510Y-121352171D01*
X143431659Y-121350130D01*
X143125800Y-121179192D01*
X142802794Y-121043412D01*
X142799425Y-121042421D01*
X142799421Y-121042419D01*
X142651053Y-120998752D01*
X142466665Y-120944484D01*
X142190895Y-120895858D01*
X142125063Y-120884250D01*
X142125061Y-120884250D01*
X142121603Y-120883640D01*
X142118094Y-120883419D01*
X142118092Y-120883419D01*
X141775428Y-120861860D01*
X141775422Y-120861860D01*
X141771910Y-120861639D01*
X141674516Y-120866403D01*
X141425451Y-120878584D01*
X141425443Y-120878585D01*
X141421944Y-120878756D01*
X141418476Y-120879318D01*
X141418473Y-120879318D01*
X141079542Y-120934213D01*
X141079539Y-120934214D01*
X141076067Y-120934776D01*
X141072684Y-120935721D01*
X141072682Y-120935721D01*
X141037747Y-120945475D01*
X140738589Y-121029001D01*
X140735341Y-121030313D01*
X140735333Y-121030316D01*
X140416983Y-121158938D01*
X140416979Y-121158940D01*
X140413719Y-121160257D01*
X140410632Y-121161926D01*
X140410628Y-121161928D01*
X140381220Y-121177829D01*
X140105503Y-121326909D01*
X139817785Y-121526878D01*
X139815143Y-121529191D01*
X139815139Y-121529194D01*
X139711413Y-121620000D01*
X139554151Y-121757673D01*
X139317886Y-122016416D01*
X139111935Y-122299883D01*
X138938865Y-122604541D01*
X138800834Y-122926591D01*
X138699562Y-123262021D01*
X138636311Y-123606650D01*
X138611869Y-123956181D01*
X100053107Y-123956181D01*
X100019886Y-123917842D01*
X100008500Y-123865500D01*
X100008500Y-109290000D01*
X149936496Y-109290000D01*
X149956458Y-109479928D01*
X150015473Y-109661556D01*
X150110960Y-109826944D01*
X150238747Y-109968866D01*
X150393248Y-110081118D01*
X150399276Y-110083802D01*
X150399278Y-110083803D01*
X150561681Y-110156109D01*
X150567712Y-110158794D01*
X150661112Y-110178647D01*
X150748056Y-110197128D01*
X150748061Y-110197128D01*
X150754513Y-110198500D01*
X150945487Y-110198500D01*
X150951939Y-110197128D01*
X150951944Y-110197128D01*
X151038888Y-110178647D01*
X151132288Y-110158794D01*
X151138319Y-110156109D01*
X151300722Y-110083803D01*
X151300724Y-110083802D01*
X151306752Y-110081118D01*
X151461253Y-109968866D01*
X151589040Y-109826944D01*
X151684527Y-109661556D01*
X151743542Y-109479928D01*
X151763504Y-109290000D01*
X151743542Y-109100072D01*
X151684527Y-108918444D01*
X151589040Y-108753056D01*
X151461253Y-108611134D01*
X151306752Y-108498882D01*
X151300724Y-108496198D01*
X151300722Y-108496197D01*
X151138319Y-108423891D01*
X151138318Y-108423891D01*
X151132288Y-108421206D01*
X151038888Y-108401353D01*
X150951944Y-108382872D01*
X150951939Y-108382872D01*
X150945487Y-108381500D01*
X150754513Y-108381500D01*
X150748061Y-108382872D01*
X150748056Y-108382872D01*
X150661113Y-108401353D01*
X150567712Y-108421206D01*
X150561682Y-108423891D01*
X150561681Y-108423891D01*
X150399278Y-108496197D01*
X150399276Y-108496198D01*
X150393248Y-108498882D01*
X150238747Y-108611134D01*
X150110960Y-108753056D01*
X150015473Y-108918444D01*
X149956458Y-109100072D01*
X149936496Y-109290000D01*
X100008500Y-109290000D01*
X100008500Y-105888134D01*
X132011501Y-105888134D01*
X132018256Y-105950316D01*
X132069386Y-106086705D01*
X132156740Y-106203261D01*
X132273296Y-106290615D01*
X132409685Y-106341745D01*
X132471867Y-106348500D01*
X133818135Y-106348500D01*
X133880317Y-106341745D01*
X134016706Y-106290615D01*
X134133262Y-106203261D01*
X134220616Y-106086705D01*
X134271746Y-105950316D01*
X134278501Y-105888134D01*
X134278501Y-103991866D01*
X134271746Y-103929684D01*
X134220616Y-103793295D01*
X134133262Y-103676739D01*
X134016706Y-103589385D01*
X133880317Y-103538255D01*
X133818135Y-103531500D01*
X132471867Y-103531500D01*
X132409685Y-103538255D01*
X132273296Y-103589385D01*
X132156740Y-103676739D01*
X132069386Y-103793295D01*
X132018256Y-103929684D01*
X132011501Y-103991866D01*
X132011501Y-105888134D01*
X100008500Y-105888134D01*
X100008500Y-98200000D01*
X134756496Y-98200000D01*
X134776458Y-98389928D01*
X134835473Y-98571556D01*
X134930960Y-98736944D01*
X135004137Y-98818215D01*
X135034853Y-98882221D01*
X135036500Y-98902524D01*
X135036500Y-98911796D01*
X135016498Y-98979917D01*
X135011338Y-98987345D01*
X134999384Y-99003295D01*
X134948254Y-99139684D01*
X134941499Y-99201866D01*
X134941499Y-100298134D01*
X134948254Y-100360316D01*
X134999384Y-100496705D01*
X135056838Y-100573365D01*
X135086738Y-100613261D01*
X135085134Y-100614463D01*
X135113620Y-100666630D01*
X135116499Y-100693413D01*
X135116499Y-101041232D01*
X135115972Y-101052415D01*
X135114297Y-101059908D01*
X135114546Y-101067834D01*
X135114546Y-101067835D01*
X135116437Y-101127985D01*
X135116499Y-101131944D01*
X135116499Y-101159855D01*
X135116996Y-101163789D01*
X135116996Y-101163790D01*
X135117004Y-101163855D01*
X135117937Y-101175692D01*
X135119326Y-101219888D01*
X135124977Y-101239338D01*
X135128986Y-101258699D01*
X135131525Y-101278796D01*
X135134444Y-101286167D01*
X135134444Y-101286169D01*
X135147803Y-101319911D01*
X135151648Y-101331141D01*
X135163981Y-101373592D01*
X135168014Y-101380411D01*
X135168016Y-101380416D01*
X135174292Y-101391027D01*
X135182987Y-101408775D01*
X135190447Y-101427616D01*
X135195109Y-101434032D01*
X135195109Y-101434033D01*
X135216435Y-101463386D01*
X135222951Y-101473306D01*
X135245457Y-101511361D01*
X135259778Y-101525682D01*
X135272618Y-101540715D01*
X135284527Y-101557106D01*
X135290633Y-101562157D01*
X135318604Y-101585297D01*
X135327383Y-101593287D01*
X137681343Y-103947247D01*
X137688887Y-103955537D01*
X137693000Y-103962018D01*
X137698777Y-103967443D01*
X137742667Y-104008658D01*
X137745509Y-104011413D01*
X137765230Y-104031134D01*
X137768425Y-104033612D01*
X137777447Y-104041318D01*
X137809679Y-104071586D01*
X137816628Y-104075406D01*
X137827432Y-104081346D01*
X137843956Y-104092199D01*
X137859959Y-104104613D01*
X137900543Y-104122176D01*
X137911173Y-104127383D01*
X137949940Y-104148695D01*
X137957617Y-104150666D01*
X137957622Y-104150668D01*
X137969558Y-104153732D01*
X137988266Y-104160137D01*
X138006855Y-104168181D01*
X138014680Y-104169420D01*
X138014682Y-104169421D01*
X138050519Y-104175097D01*
X138062140Y-104177504D01*
X138093959Y-104185673D01*
X138104970Y-104188500D01*
X138125231Y-104188500D01*
X138144940Y-104190051D01*
X138164943Y-104193219D01*
X138172835Y-104192473D01*
X138178062Y-104191979D01*
X138208954Y-104189059D01*
X138220811Y-104188500D01*
X143095499Y-104188500D01*
X143163620Y-104208502D01*
X143210113Y-104262158D01*
X143221499Y-104314500D01*
X143221499Y-105888134D01*
X143228254Y-105950316D01*
X143279384Y-106086705D01*
X143366738Y-106203261D01*
X143483294Y-106290615D01*
X143619683Y-106341745D01*
X143681865Y-106348500D01*
X145028133Y-106348500D01*
X145090315Y-106341745D01*
X145226704Y-106290615D01*
X145343260Y-106203261D01*
X145430614Y-106086705D01*
X145481744Y-105950316D01*
X145488499Y-105888134D01*
X145488499Y-104314500D01*
X145508501Y-104246379D01*
X145562157Y-104199886D01*
X145614499Y-104188500D01*
X148266233Y-104188500D01*
X148277416Y-104189027D01*
X148284909Y-104190702D01*
X148292835Y-104190453D01*
X148292836Y-104190453D01*
X148352986Y-104188562D01*
X148356945Y-104188500D01*
X148384856Y-104188500D01*
X148388791Y-104188003D01*
X148388856Y-104187995D01*
X148400693Y-104187062D01*
X148432951Y-104186048D01*
X148436970Y-104185922D01*
X148444889Y-104185673D01*
X148464343Y-104180021D01*
X148483700Y-104176013D01*
X148495930Y-104174468D01*
X148495931Y-104174468D01*
X148503797Y-104173474D01*
X148511168Y-104170555D01*
X148511170Y-104170555D01*
X148544912Y-104157196D01*
X148556142Y-104153351D01*
X148590983Y-104143229D01*
X148590984Y-104143229D01*
X148598593Y-104141018D01*
X148605412Y-104136985D01*
X148605417Y-104136983D01*
X148616028Y-104130707D01*
X148633776Y-104122012D01*
X148652617Y-104114552D01*
X148672987Y-104099753D01*
X148688387Y-104088564D01*
X148698307Y-104082048D01*
X148729535Y-104063580D01*
X148729538Y-104063578D01*
X148736362Y-104059542D01*
X148750683Y-104045221D01*
X148765717Y-104032380D01*
X148767432Y-104031134D01*
X148782107Y-104020472D01*
X148810298Y-103986395D01*
X148818288Y-103977616D01*
X149403718Y-103392186D01*
X149466030Y-103358160D01*
X149536845Y-103363225D01*
X149594750Y-103407221D01*
X149597654Y-103411218D01*
X149600960Y-103416944D01*
X149605383Y-103421856D01*
X149712687Y-103541029D01*
X149728747Y-103558866D01*
X149883248Y-103671118D01*
X149889276Y-103673802D01*
X149889278Y-103673803D01*
X150051681Y-103746109D01*
X150057712Y-103748794D01*
X150151112Y-103768647D01*
X150238056Y-103787128D01*
X150238061Y-103787128D01*
X150244513Y-103788500D01*
X150435487Y-103788500D01*
X150441939Y-103787128D01*
X150441944Y-103787128D01*
X150528888Y-103768647D01*
X150622288Y-103748794D01*
X150628319Y-103746109D01*
X150790722Y-103673803D01*
X150790724Y-103673802D01*
X150796752Y-103671118D01*
X150951253Y-103558866D01*
X150955675Y-103553955D01*
X151074621Y-103421852D01*
X151074622Y-103421851D01*
X151079040Y-103416944D01*
X151174527Y-103251556D01*
X151233542Y-103069928D01*
X151250907Y-102904706D01*
X151277920Y-102839050D01*
X151287122Y-102828782D01*
X153480576Y-100635329D01*
X153542888Y-100601303D01*
X153613704Y-100606368D01*
X153643732Y-100622488D01*
X153756188Y-100704192D01*
X153793248Y-100731118D01*
X153799276Y-100733802D01*
X153799278Y-100733803D01*
X153860317Y-100760979D01*
X153967712Y-100808794D01*
X154061112Y-100828647D01*
X154148056Y-100847128D01*
X154148061Y-100847128D01*
X154154513Y-100848500D01*
X154345487Y-100848500D01*
X154351939Y-100847128D01*
X154351944Y-100847128D01*
X154438887Y-100828647D01*
X154532288Y-100808794D01*
X154639683Y-100760979D01*
X154700722Y-100733803D01*
X154700724Y-100733802D01*
X154706752Y-100731118D01*
X154861253Y-100618866D01*
X154880222Y-100597799D01*
X154984621Y-100481852D01*
X154984622Y-100481851D01*
X154989040Y-100476944D01*
X155084527Y-100311556D01*
X155143542Y-100129928D01*
X155163504Y-99940000D01*
X155143542Y-99750072D01*
X155084527Y-99568444D01*
X154989040Y-99403056D01*
X154981886Y-99395110D01*
X154865675Y-99266045D01*
X154865674Y-99266044D01*
X154861253Y-99261134D01*
X154706752Y-99148882D01*
X154700724Y-99146198D01*
X154700722Y-99146197D01*
X154538319Y-99073891D01*
X154538318Y-99073891D01*
X154532288Y-99071206D01*
X154438888Y-99051353D01*
X154351944Y-99032872D01*
X154351939Y-99032872D01*
X154345487Y-99031500D01*
X154154513Y-99031500D01*
X154148061Y-99032872D01*
X154148056Y-99032872D01*
X154061112Y-99051353D01*
X153967712Y-99071206D01*
X153961682Y-99073891D01*
X153961681Y-99073891D01*
X153799278Y-99146197D01*
X153799276Y-99146198D01*
X153793248Y-99148882D01*
X153787907Y-99152762D01*
X153787906Y-99152763D01*
X153720322Y-99201866D01*
X153638747Y-99261134D01*
X153634334Y-99266036D01*
X153634332Y-99266037D01*
X153626432Y-99274811D01*
X153565985Y-99312050D01*
X153532796Y-99316500D01*
X153348768Y-99316500D01*
X153337585Y-99315973D01*
X153330092Y-99314298D01*
X153322166Y-99314547D01*
X153322165Y-99314547D01*
X153262002Y-99316438D01*
X153258044Y-99316500D01*
X153230144Y-99316500D01*
X153226154Y-99317004D01*
X153214320Y-99317936D01*
X153170111Y-99319326D01*
X153162497Y-99321538D01*
X153162492Y-99321539D01*
X153150659Y-99324977D01*
X153131296Y-99328988D01*
X153111203Y-99331526D01*
X153103836Y-99334443D01*
X153103831Y-99334444D01*
X153070092Y-99347802D01*
X153058865Y-99351646D01*
X153016407Y-99363982D01*
X153009581Y-99368019D01*
X152998972Y-99374293D01*
X152981224Y-99382988D01*
X152962383Y-99390448D01*
X152955967Y-99395110D01*
X152955966Y-99395110D01*
X152926613Y-99416436D01*
X152916693Y-99422952D01*
X152885465Y-99441420D01*
X152885462Y-99441422D01*
X152878638Y-99445458D01*
X152864317Y-99459779D01*
X152849284Y-99472619D01*
X152832893Y-99484528D01*
X152827842Y-99490634D01*
X152804702Y-99518605D01*
X152796712Y-99527384D01*
X151876282Y-100447814D01*
X151813970Y-100481840D01*
X151743155Y-100476775D01*
X151685250Y-100432779D01*
X151682346Y-100428782D01*
X151679040Y-100423056D01*
X151551253Y-100281134D01*
X151396752Y-100168882D01*
X151390724Y-100166198D01*
X151390722Y-100166197D01*
X151228319Y-100093891D01*
X151228318Y-100093891D01*
X151222288Y-100091206D01*
X151128888Y-100071353D01*
X151041944Y-100052872D01*
X151041939Y-100052872D01*
X151035487Y-100051500D01*
X150996358Y-100051500D01*
X150928237Y-100031498D01*
X150887239Y-99988500D01*
X150812341Y-99858774D01*
X150809040Y-99853056D01*
X150681253Y-99711134D01*
X150526752Y-99598882D01*
X150520724Y-99596198D01*
X150520722Y-99596197D01*
X150358319Y-99523891D01*
X150358318Y-99523891D01*
X150352288Y-99521206D01*
X150233704Y-99496000D01*
X150171944Y-99482872D01*
X150171939Y-99482872D01*
X150165487Y-99481500D01*
X150109595Y-99481500D01*
X150041474Y-99461498D01*
X150020500Y-99444595D01*
X148423652Y-97847747D01*
X148416112Y-97839461D01*
X148412000Y-97832982D01*
X148362348Y-97786356D01*
X148359507Y-97783602D01*
X148339770Y-97763865D01*
X148336573Y-97761385D01*
X148327551Y-97753680D01*
X148301100Y-97728841D01*
X148295321Y-97723414D01*
X148288375Y-97719595D01*
X148288372Y-97719593D01*
X148277566Y-97713652D01*
X148261047Y-97702801D01*
X148260583Y-97702441D01*
X148245041Y-97690386D01*
X148237772Y-97687241D01*
X148237768Y-97687238D01*
X148204463Y-97672826D01*
X148193813Y-97667609D01*
X148155060Y-97646305D01*
X148135437Y-97641267D01*
X148116734Y-97634863D01*
X148105420Y-97629967D01*
X148105419Y-97629967D01*
X148098145Y-97626819D01*
X148090322Y-97625580D01*
X148090312Y-97625577D01*
X148054476Y-97619901D01*
X148042856Y-97617495D01*
X148007711Y-97608472D01*
X148007710Y-97608472D01*
X148000030Y-97606500D01*
X147979776Y-97606500D01*
X147960065Y-97604949D01*
X147947886Y-97603020D01*
X147940057Y-97601780D01*
X147932165Y-97602526D01*
X147896039Y-97605941D01*
X147884181Y-97606500D01*
X138029500Y-97606500D01*
X137961379Y-97586498D01*
X137914886Y-97532842D01*
X137903500Y-97480500D01*
X137903500Y-96404594D01*
X137923502Y-96336473D01*
X137940405Y-96315499D01*
X139065904Y-95190000D01*
X140296496Y-95190000D01*
X140316458Y-95379928D01*
X140375473Y-95561556D01*
X140470960Y-95726944D01*
X140475378Y-95731851D01*
X140475379Y-95731852D01*
X140561950Y-95827999D01*
X140598747Y-95868866D01*
X140753248Y-95981118D01*
X140759276Y-95983802D01*
X140759278Y-95983803D01*
X140890248Y-96042114D01*
X140927712Y-96058794D01*
X141021112Y-96078647D01*
X141108056Y-96097128D01*
X141108061Y-96097128D01*
X141114513Y-96098500D01*
X141305487Y-96098500D01*
X141311939Y-96097128D01*
X141311944Y-96097128D01*
X141398888Y-96078647D01*
X141492288Y-96058794D01*
X141529752Y-96042114D01*
X141660722Y-95983803D01*
X141660724Y-95983802D01*
X141666752Y-95981118D01*
X141821253Y-95868866D01*
X141858050Y-95827999D01*
X141944621Y-95731852D01*
X141944622Y-95731851D01*
X141949040Y-95726944D01*
X142044527Y-95561556D01*
X142103542Y-95379928D01*
X142123504Y-95190000D01*
X142103542Y-95000072D01*
X142044527Y-94818444D01*
X141949040Y-94653056D01*
X141821253Y-94511134D01*
X141666752Y-94398882D01*
X141660724Y-94396198D01*
X141660722Y-94396197D01*
X141498319Y-94323891D01*
X141498318Y-94323891D01*
X141492288Y-94321206D01*
X141398888Y-94301353D01*
X141311944Y-94282872D01*
X141311939Y-94282872D01*
X141305487Y-94281500D01*
X141114513Y-94281500D01*
X141108061Y-94282872D01*
X141108056Y-94282872D01*
X141021113Y-94301353D01*
X140927712Y-94321206D01*
X140921682Y-94323891D01*
X140921681Y-94323891D01*
X140759278Y-94396197D01*
X140759276Y-94396198D01*
X140753248Y-94398882D01*
X140598747Y-94511134D01*
X140470960Y-94653056D01*
X140375473Y-94818444D01*
X140316458Y-95000072D01*
X140296496Y-95190000D01*
X139065904Y-95190000D01*
X143705499Y-90550405D01*
X143767811Y-90516379D01*
X143794594Y-90513500D01*
X143870487Y-90513500D01*
X143876939Y-90512128D01*
X143876944Y-90512128D01*
X143963888Y-90493647D01*
X144057288Y-90473794D01*
X144063319Y-90471109D01*
X144225722Y-90398803D01*
X144225724Y-90398802D01*
X144231752Y-90396118D01*
X144386253Y-90283866D01*
X144390668Y-90278963D01*
X144395580Y-90274540D01*
X144396705Y-90275789D01*
X144450014Y-90242949D01*
X144483200Y-90238500D01*
X170846233Y-90238500D01*
X170857416Y-90239027D01*
X170864909Y-90240702D01*
X170872835Y-90240453D01*
X170872836Y-90240453D01*
X170932986Y-90238562D01*
X170936945Y-90238500D01*
X170964856Y-90238500D01*
X170968791Y-90238003D01*
X170968856Y-90237995D01*
X170980693Y-90237062D01*
X171012951Y-90236048D01*
X171016970Y-90235922D01*
X171024889Y-90235673D01*
X171044343Y-90230021D01*
X171063700Y-90226013D01*
X171075930Y-90224468D01*
X171075931Y-90224468D01*
X171083797Y-90223474D01*
X171091168Y-90220555D01*
X171091170Y-90220555D01*
X171124912Y-90207196D01*
X171136142Y-90203351D01*
X171170983Y-90193229D01*
X171170984Y-90193229D01*
X171178593Y-90191018D01*
X171185412Y-90186985D01*
X171185417Y-90186983D01*
X171196028Y-90180707D01*
X171213776Y-90172012D01*
X171232617Y-90164552D01*
X171268387Y-90138564D01*
X171278307Y-90132048D01*
X171309535Y-90113580D01*
X171309538Y-90113578D01*
X171316362Y-90109542D01*
X171330683Y-90095221D01*
X171345717Y-90082380D01*
X171355694Y-90075131D01*
X171362107Y-90070472D01*
X171390298Y-90036395D01*
X171398288Y-90027616D01*
X172512247Y-88913657D01*
X172520537Y-88906113D01*
X172527018Y-88902000D01*
X172573659Y-88852332D01*
X172576413Y-88849491D01*
X172596134Y-88829770D01*
X172598612Y-88826575D01*
X172606318Y-88817553D01*
X172631158Y-88791101D01*
X172636586Y-88785321D01*
X172646346Y-88767568D01*
X172657199Y-88751045D01*
X172664753Y-88741306D01*
X172669613Y-88735041D01*
X172687176Y-88694457D01*
X172692383Y-88683827D01*
X172713695Y-88645060D01*
X172715666Y-88637383D01*
X172715668Y-88637378D01*
X172718732Y-88625442D01*
X172725138Y-88606730D01*
X172730033Y-88595419D01*
X172733181Y-88588145D01*
X172734421Y-88580317D01*
X172734423Y-88580310D01*
X172740099Y-88544476D01*
X172742505Y-88532856D01*
X172751528Y-88497711D01*
X172751528Y-88497710D01*
X172753500Y-88490030D01*
X172753500Y-88469776D01*
X172755051Y-88450065D01*
X172756980Y-88437886D01*
X172758220Y-88430057D01*
X172754059Y-88386038D01*
X172753500Y-88374181D01*
X172753500Y-88194224D01*
X172773502Y-88126103D01*
X172827158Y-88079610D01*
X172879500Y-88068224D01*
X172957743Y-88068224D01*
X172962250Y-88068063D01*
X173026300Y-88063482D01*
X173039519Y-88061097D01*
X173059537Y-88055219D01*
X173112968Y-88051398D01*
X173212069Y-88065647D01*
X173226026Y-88063640D01*
X173229999Y-88050109D01*
X173610000Y-88050109D01*
X173614384Y-88065038D01*
X173625785Y-88067095D01*
X173676300Y-88063482D01*
X173689519Y-88061097D01*
X173709537Y-88055219D01*
X173762968Y-88051398D01*
X173862069Y-88065647D01*
X173876026Y-88063640D01*
X173879999Y-88050109D01*
X174260000Y-88050109D01*
X174264384Y-88065038D01*
X174275785Y-88067095D01*
X174326300Y-88063482D01*
X174339522Y-88061096D01*
X174464555Y-88024384D01*
X174480781Y-88016974D01*
X174588510Y-87947740D01*
X174601991Y-87936059D01*
X174685850Y-87839281D01*
X174695496Y-87824272D01*
X174748692Y-87707788D01*
X174753717Y-87690675D01*
X174772585Y-87559446D01*
X174773224Y-87550505D01*
X174773224Y-87488115D01*
X174768749Y-87472876D01*
X174767359Y-87471671D01*
X174759676Y-87470000D01*
X174278115Y-87470000D01*
X174262876Y-87474475D01*
X174261671Y-87475865D01*
X174260000Y-87483548D01*
X174260000Y-88050109D01*
X173879999Y-88050109D01*
X173880000Y-88050107D01*
X173880000Y-87488115D01*
X173875525Y-87472876D01*
X173874135Y-87471671D01*
X173866452Y-87470000D01*
X173628115Y-87470000D01*
X173612876Y-87474475D01*
X173611671Y-87475865D01*
X173610000Y-87483548D01*
X173610000Y-88050109D01*
X173229999Y-88050109D01*
X173230000Y-88050107D01*
X173230000Y-87488115D01*
X173225525Y-87472876D01*
X173224135Y-87471671D01*
X173216452Y-87470000D01*
X172949729Y-87470000D01*
X172881608Y-87449998D01*
X172835115Y-87396342D01*
X172823729Y-87344000D01*
X172823729Y-87185612D01*
X172843731Y-87117491D01*
X172897387Y-87070998D01*
X172967661Y-87060894D01*
X173025794Y-87087443D01*
X173037548Y-87090000D01*
X174755109Y-87090000D01*
X174770348Y-87085525D01*
X174777547Y-87077217D01*
X174837273Y-87038833D01*
X174872772Y-87033729D01*
X175295000Y-87033729D01*
X175326986Y-87031441D01*
X175361373Y-87028982D01*
X175361374Y-87028982D01*
X175368111Y-87028500D01*
X175464924Y-87000073D01*
X175499765Y-86989843D01*
X175499767Y-86989842D01*
X175508411Y-86987304D01*
X175570534Y-86947380D01*
X175623841Y-86913122D01*
X175623844Y-86913120D01*
X175631421Y-86908250D01*
X175643387Y-86894441D01*
X175721274Y-86804555D01*
X175721276Y-86804552D01*
X175727176Y-86797743D01*
X175787919Y-86664734D01*
X175808729Y-86520000D01*
X175808729Y-86140000D01*
X175804849Y-86085745D01*
X175803982Y-86073627D01*
X175803982Y-86073626D01*
X175803500Y-86066889D01*
X175795729Y-86040423D01*
X175791907Y-85986997D01*
X175808729Y-85870000D01*
X175808729Y-85490000D01*
X175804923Y-85436786D01*
X175803982Y-85423625D01*
X175803982Y-85423623D01*
X175803500Y-85416889D01*
X175801598Y-85410411D01*
X175801597Y-85410406D01*
X175795391Y-85389271D01*
X175791569Y-85335842D01*
X175805646Y-85237929D01*
X175803640Y-85223973D01*
X175772726Y-85214896D01*
X175773093Y-85213645D01*
X175726617Y-85199998D01*
X175694327Y-85167709D01*
X175694024Y-85167971D01*
X175690356Y-85163738D01*
X175688742Y-85162124D01*
X175688123Y-85161161D01*
X175688121Y-85161159D01*
X175683250Y-85153579D01*
X175652202Y-85126675D01*
X175613818Y-85066950D01*
X175613818Y-84995953D01*
X175635535Y-84956181D01*
X185361869Y-84956181D01*
X185376542Y-85306258D01*
X185397285Y-85440250D01*
X185429569Y-85648794D01*
X185430145Y-85652518D01*
X185431067Y-85655910D01*
X185431067Y-85655912D01*
X185439921Y-85688500D01*
X185522012Y-85990645D01*
X185523302Y-85993904D01*
X185523304Y-85993909D01*
X185580255Y-86137750D01*
X185650998Y-86316424D01*
X185652653Y-86319536D01*
X185652655Y-86319541D01*
X185721617Y-86449239D01*
X185815493Y-86625795D01*
X185817483Y-86628701D01*
X185817484Y-86628703D01*
X185988345Y-86878238D01*
X186013449Y-86914902D01*
X186242397Y-87180142D01*
X186499485Y-87418207D01*
X186502311Y-87420290D01*
X186502314Y-87420293D01*
X186539034Y-87447365D01*
X186781507Y-87626132D01*
X186784544Y-87627886D01*
X186784548Y-87627888D01*
X186906991Y-87698580D01*
X187084949Y-87801324D01*
X187129237Y-87820673D01*
X187402807Y-87940193D01*
X187402817Y-87940197D01*
X187406029Y-87941600D01*
X187409387Y-87942639D01*
X187409391Y-87942641D01*
X187545685Y-87984831D01*
X187740743Y-88045212D01*
X187766414Y-88050109D01*
X188081471Y-88110210D01*
X188081477Y-88110211D01*
X188084922Y-88110868D01*
X188282920Y-88126103D01*
X188430777Y-88137480D01*
X188430778Y-88137480D01*
X188434274Y-88137749D01*
X188666291Y-88129646D01*
X188780929Y-88125643D01*
X188780933Y-88125643D01*
X188784445Y-88125520D01*
X188787924Y-88125006D01*
X188787927Y-88125006D01*
X189127578Y-88074851D01*
X189127584Y-88074850D01*
X189131070Y-88074335D01*
X189134474Y-88073436D01*
X189134477Y-88073435D01*
X189466439Y-87985727D01*
X189466440Y-87985727D01*
X189469830Y-87984831D01*
X189796502Y-87858123D01*
X190107014Y-87695792D01*
X190348235Y-87533086D01*
X190394580Y-87501826D01*
X190394582Y-87501825D01*
X190397496Y-87499859D01*
X190416662Y-87483548D01*
X190661654Y-87275043D01*
X190661655Y-87275042D01*
X190664327Y-87272768D01*
X190730224Y-87202595D01*
X190901771Y-87019916D01*
X190901775Y-87019911D01*
X190904182Y-87017348D01*
X191114071Y-86736785D01*
X191121247Y-86724555D01*
X191210266Y-86572824D01*
X191291377Y-86434573D01*
X191308945Y-86395115D01*
X191432459Y-86117698D01*
X191432461Y-86117693D01*
X191433891Y-86114481D01*
X191539837Y-85780498D01*
X191607894Y-85436786D01*
X191624975Y-85233373D01*
X191637030Y-85089814D01*
X191637031Y-85089803D01*
X191637213Y-85087630D01*
X191637543Y-85064047D01*
X191638407Y-85002178D01*
X191638407Y-85002166D01*
X191638437Y-85000000D01*
X191638238Y-84996426D01*
X191620966Y-84687507D01*
X191618878Y-84650162D01*
X191597380Y-84523056D01*
X191561032Y-84308153D01*
X191561031Y-84308148D01*
X191560445Y-84304684D01*
X191463866Y-83967873D01*
X191415037Y-83849404D01*
X191331683Y-83647171D01*
X191331679Y-83647163D01*
X191330345Y-83643926D01*
X191161546Y-83336882D01*
X190959573Y-83050567D01*
X190900799Y-82984368D01*
X190729274Y-82791175D01*
X190729270Y-82791171D01*
X190726943Y-82788550D01*
X190724342Y-82786208D01*
X190724337Y-82786203D01*
X190469167Y-82556447D01*
X190469166Y-82556447D01*
X190466557Y-82554097D01*
X190442612Y-82536954D01*
X190184513Y-82352173D01*
X190184510Y-82352171D01*
X190181659Y-82350130D01*
X189875800Y-82179192D01*
X189552794Y-82043412D01*
X189549425Y-82042421D01*
X189549421Y-82042419D01*
X189348058Y-81983155D01*
X189216665Y-81944484D01*
X188900833Y-81888794D01*
X188875063Y-81884250D01*
X188875061Y-81884250D01*
X188871603Y-81883640D01*
X188868094Y-81883419D01*
X188868092Y-81883419D01*
X188525428Y-81861860D01*
X188525422Y-81861860D01*
X188521910Y-81861639D01*
X188424516Y-81866403D01*
X188175451Y-81878584D01*
X188175443Y-81878585D01*
X188171944Y-81878756D01*
X188168476Y-81879318D01*
X188168473Y-81879318D01*
X187829542Y-81934213D01*
X187829539Y-81934214D01*
X187826067Y-81934776D01*
X187822684Y-81935721D01*
X187822682Y-81935721D01*
X187787747Y-81945475D01*
X187488589Y-82029001D01*
X187485341Y-82030313D01*
X187485333Y-82030316D01*
X187166983Y-82158938D01*
X187166979Y-82158940D01*
X187163719Y-82160257D01*
X187160632Y-82161926D01*
X187160628Y-82161928D01*
X187062707Y-82214874D01*
X186855503Y-82326909D01*
X186567785Y-82526878D01*
X186565143Y-82529191D01*
X186565139Y-82529194D01*
X186442201Y-82636819D01*
X186304151Y-82757673D01*
X186301776Y-82760274D01*
X186086990Y-82995495D01*
X186067886Y-83016416D01*
X185861935Y-83299883D01*
X185688865Y-83604541D01*
X185636594Y-83726498D01*
X185554969Y-83916944D01*
X185550834Y-83926591D01*
X185520858Y-84025877D01*
X185455191Y-84243378D01*
X185449562Y-84262021D01*
X185436481Y-84333295D01*
X185389354Y-84590072D01*
X185386311Y-84606650D01*
X185361869Y-84956181D01*
X175635535Y-84956181D01*
X175639490Y-84948938D01*
X175696204Y-84883487D01*
X175755930Y-84845104D01*
X175788843Y-84840372D01*
X175805038Y-84835616D01*
X175807095Y-84824215D01*
X175803482Y-84773697D01*
X175801097Y-84760481D01*
X175795558Y-84741618D01*
X175791736Y-84688184D01*
X175791834Y-84687507D01*
X175808729Y-84570000D01*
X175808729Y-84190000D01*
X175803500Y-84116889D01*
X175795729Y-84090423D01*
X175791907Y-84036997D01*
X175808729Y-83920000D01*
X175808729Y-83540000D01*
X175803500Y-83466889D01*
X175766231Y-83339962D01*
X175764843Y-83335235D01*
X175764842Y-83335233D01*
X175762304Y-83326589D01*
X175720718Y-83261880D01*
X175688122Y-83211159D01*
X175688120Y-83211156D01*
X175683250Y-83203579D01*
X175631735Y-83158941D01*
X175579555Y-83113726D01*
X175579552Y-83113724D01*
X175572743Y-83107824D01*
X175439734Y-83047081D01*
X175295000Y-83026271D01*
X174877366Y-83026271D01*
X174809245Y-83006269D01*
X174794854Y-82995495D01*
X174767360Y-82971672D01*
X174759676Y-82970000D01*
X174249729Y-82970000D01*
X174181608Y-82949998D01*
X174135115Y-82896342D01*
X174123729Y-82844000D01*
X174123729Y-82713766D01*
X174143731Y-82645645D01*
X174197387Y-82599152D01*
X174260000Y-82590149D01*
X174260000Y-82590000D01*
X174261040Y-82590000D01*
X174267661Y-82589048D01*
X174272935Y-82590000D01*
X174755109Y-82590000D01*
X174770348Y-82585525D01*
X174771553Y-82584135D01*
X174773224Y-82576452D01*
X174773224Y-82507257D01*
X174773063Y-82502750D01*
X174768482Y-82438700D01*
X174766096Y-82425478D01*
X174729384Y-82300445D01*
X174721974Y-82284219D01*
X174652740Y-82176490D01*
X174641059Y-82163009D01*
X174544281Y-82079150D01*
X174529272Y-82069504D01*
X174412788Y-82016308D01*
X174395675Y-82011283D01*
X174277929Y-81994354D01*
X174263973Y-81996360D01*
X174260000Y-82009891D01*
X174260000Y-82146753D01*
X174239998Y-82214874D01*
X174186342Y-82261367D01*
X174116068Y-82271471D01*
X174051488Y-82241977D01*
X174028002Y-82214874D01*
X174006175Y-82180911D01*
X173998250Y-82168579D01*
X173981238Y-82153838D01*
X173923487Y-82103796D01*
X173885104Y-82044070D01*
X173880372Y-82011157D01*
X173875616Y-81994962D01*
X173864215Y-81992905D01*
X173813697Y-81996518D01*
X173800481Y-81998903D01*
X173781618Y-82004442D01*
X173728186Y-82008264D01*
X173610000Y-81991271D01*
X173531613Y-81991271D01*
X173463492Y-81971269D01*
X173416999Y-81917613D01*
X173405675Y-81869229D01*
X173403562Y-81802002D01*
X173403500Y-81798044D01*
X173403500Y-81770144D01*
X173402996Y-81766153D01*
X173402063Y-81754311D01*
X173401953Y-81750784D01*
X173400674Y-81710111D01*
X173398462Y-81702497D01*
X173398461Y-81702492D01*
X173395023Y-81690659D01*
X173391012Y-81671295D01*
X173389467Y-81659064D01*
X173388474Y-81651203D01*
X173385557Y-81643836D01*
X173385556Y-81643831D01*
X173372198Y-81610092D01*
X173368354Y-81598865D01*
X173358230Y-81564022D01*
X173356018Y-81556407D01*
X173345707Y-81538972D01*
X173337012Y-81521224D01*
X173329552Y-81502383D01*
X173303564Y-81466613D01*
X173297048Y-81456693D01*
X173278580Y-81425465D01*
X173278578Y-81425462D01*
X173274542Y-81418638D01*
X173260221Y-81404317D01*
X173247380Y-81389283D01*
X173240131Y-81379306D01*
X173235472Y-81372893D01*
X173229367Y-81367842D01*
X173229362Y-81367837D01*
X173201402Y-81344706D01*
X173192624Y-81336719D01*
X172927122Y-81071218D01*
X172893097Y-81008905D01*
X172890907Y-80995292D01*
X172874232Y-80836635D01*
X172874232Y-80836633D01*
X172873542Y-80830072D01*
X172814527Y-80648444D01*
X172719040Y-80483056D01*
X172692403Y-80453472D01*
X172595675Y-80346045D01*
X172595674Y-80346044D01*
X172591253Y-80341134D01*
X172436752Y-80228882D01*
X172430724Y-80226198D01*
X172430722Y-80226197D01*
X172268319Y-80153891D01*
X172268318Y-80153891D01*
X172262288Y-80151206D01*
X172168888Y-80131353D01*
X172081944Y-80112872D01*
X172081939Y-80112872D01*
X172075487Y-80111500D01*
X171884513Y-80111500D01*
X171878061Y-80112872D01*
X171878056Y-80112872D01*
X171791112Y-80131353D01*
X171697712Y-80151206D01*
X171691682Y-80153891D01*
X171691681Y-80153891D01*
X171529278Y-80226197D01*
X171529276Y-80226198D01*
X171523248Y-80228882D01*
X171368747Y-80341134D01*
X171364326Y-80346044D01*
X171364325Y-80346045D01*
X171267598Y-80453472D01*
X171240960Y-80483056D01*
X171145473Y-80648444D01*
X171086458Y-80830072D01*
X171085768Y-80836633D01*
X171085768Y-80836635D01*
X171069093Y-80995292D01*
X171066496Y-81020000D01*
X171067186Y-81026565D01*
X171083399Y-81180825D01*
X171070627Y-81250663D01*
X171022125Y-81302510D01*
X170953292Y-81319904D01*
X170885982Y-81297323D01*
X170869003Y-81283098D01*
X170278641Y-80692736D01*
X170271112Y-80684462D01*
X170267000Y-80677982D01*
X170217348Y-80631356D01*
X170214507Y-80628602D01*
X170194770Y-80608865D01*
X170191573Y-80606385D01*
X170182551Y-80598680D01*
X170156100Y-80573841D01*
X170150321Y-80568414D01*
X170143375Y-80564595D01*
X170143372Y-80564593D01*
X170132566Y-80558652D01*
X170116047Y-80547801D01*
X170110048Y-80543148D01*
X170100041Y-80535386D01*
X170092772Y-80532241D01*
X170092768Y-80532238D01*
X170059463Y-80517826D01*
X170048813Y-80512609D01*
X170010060Y-80491305D01*
X170000203Y-80488774D01*
X169990438Y-80486267D01*
X169971734Y-80479863D01*
X169960420Y-80474967D01*
X169960419Y-80474967D01*
X169953145Y-80471819D01*
X169945322Y-80470580D01*
X169945312Y-80470577D01*
X169909476Y-80464901D01*
X169897856Y-80462495D01*
X169862711Y-80453472D01*
X169862710Y-80453472D01*
X169855030Y-80451500D01*
X169834776Y-80451500D01*
X169815065Y-80449949D01*
X169802886Y-80448020D01*
X169795057Y-80446780D01*
X169787165Y-80447526D01*
X169751039Y-80450941D01*
X169739181Y-80451500D01*
X163113122Y-80451500D01*
X163045001Y-80431498D01*
X163025775Y-80415157D01*
X163025502Y-80415460D01*
X163020590Y-80411037D01*
X163016175Y-80406134D01*
X162861674Y-80293882D01*
X162855646Y-80291198D01*
X162855644Y-80291197D01*
X162693241Y-80218891D01*
X162693240Y-80218891D01*
X162687210Y-80216206D01*
X162593810Y-80196353D01*
X162506866Y-80177872D01*
X162506861Y-80177872D01*
X162500409Y-80176500D01*
X162309435Y-80176500D01*
X162302983Y-80177872D01*
X162302978Y-80177872D01*
X162216035Y-80196353D01*
X162122634Y-80216206D01*
X162116604Y-80218891D01*
X162116603Y-80218891D01*
X161954200Y-80291197D01*
X161954198Y-80291198D01*
X161948170Y-80293882D01*
X161793669Y-80406134D01*
X161789248Y-80411044D01*
X161789247Y-80411045D01*
X161674240Y-80538774D01*
X161665882Y-80548056D01*
X161650995Y-80573841D01*
X161575427Y-80704729D01*
X161570395Y-80713444D01*
X161511380Y-80895072D01*
X161510690Y-80901633D01*
X161510690Y-80901635D01*
X161499416Y-81008905D01*
X161491418Y-81085000D01*
X161492108Y-81091565D01*
X161509114Y-81253365D01*
X161511380Y-81274928D01*
X161513420Y-81281206D01*
X161522257Y-81308404D01*
X161524284Y-81379372D01*
X161487622Y-81440169D01*
X161423910Y-81471495D01*
X161353376Y-81463402D01*
X161337153Y-81455116D01*
X161260119Y-81408463D01*
X161260117Y-81408462D01*
X161253621Y-81404528D01*
X161246374Y-81402257D01*
X161246372Y-81402256D01*
X161180086Y-81381483D01*
X161089984Y-81353247D01*
X161016557Y-81346500D01*
X161013659Y-81346500D01*
X160759257Y-81346501D01*
X160503288Y-81346501D01*
X160500430Y-81346764D01*
X160500421Y-81346764D01*
X160464918Y-81350026D01*
X160429860Y-81353247D01*
X160423482Y-81355246D01*
X160423481Y-81355246D01*
X160368650Y-81372429D01*
X160297665Y-81373713D01*
X160237254Y-81336416D01*
X160206598Y-81272379D01*
X160205661Y-81239025D01*
X160222736Y-81076565D01*
X160223426Y-81070000D01*
X160215574Y-80995292D01*
X160204154Y-80886635D01*
X160204154Y-80886633D01*
X160203464Y-80880072D01*
X160144449Y-80698444D01*
X160048962Y-80533056D01*
X160009091Y-80488774D01*
X159925597Y-80396045D01*
X159925596Y-80396044D01*
X159921175Y-80391134D01*
X159822079Y-80319136D01*
X159772016Y-80282763D01*
X159772015Y-80282762D01*
X159766674Y-80278882D01*
X159760646Y-80276198D01*
X159760644Y-80276197D01*
X159598241Y-80203891D01*
X159598240Y-80203891D01*
X159592210Y-80201206D01*
X159482433Y-80177872D01*
X159411866Y-80162872D01*
X159411861Y-80162872D01*
X159405409Y-80161500D01*
X159214435Y-80161500D01*
X159207983Y-80162872D01*
X159207978Y-80162872D01*
X159137411Y-80177872D01*
X159027634Y-80201206D01*
X159021604Y-80203891D01*
X159021603Y-80203891D01*
X158859200Y-80276197D01*
X158859198Y-80276198D01*
X158853170Y-80278882D01*
X158847829Y-80282762D01*
X158847828Y-80282763D01*
X158797765Y-80319136D01*
X158698669Y-80391134D01*
X158694248Y-80396044D01*
X158694247Y-80396045D01*
X158610754Y-80488774D01*
X158570882Y-80533056D01*
X158475395Y-80698444D01*
X158416380Y-80880072D01*
X158415690Y-80886633D01*
X158415690Y-80886635D01*
X158404270Y-80995292D01*
X158396418Y-81070000D01*
X158416380Y-81259928D01*
X158439450Y-81330930D01*
X158441478Y-81401896D01*
X158404815Y-81462694D01*
X158341103Y-81494019D01*
X158270570Y-81485927D01*
X158254346Y-81477641D01*
X158168192Y-81425465D01*
X158133621Y-81404528D01*
X158126374Y-81402257D01*
X158126372Y-81402256D01*
X158060086Y-81381483D01*
X157969984Y-81353247D01*
X157896557Y-81346500D01*
X157893659Y-81346500D01*
X157639257Y-81346501D01*
X157383288Y-81346501D01*
X157380430Y-81346764D01*
X157380421Y-81346764D01*
X157344918Y-81350026D01*
X157309860Y-81353247D01*
X157303482Y-81355246D01*
X157303481Y-81355246D01*
X157153472Y-81402256D01*
X157153470Y-81402257D01*
X157146223Y-81404528D01*
X156999541Y-81493361D01*
X156878283Y-81614619D01*
X156789450Y-81761301D01*
X156787179Y-81768548D01*
X156787178Y-81768550D01*
X156785436Y-81774110D01*
X156738169Y-81924938D01*
X156731422Y-81998365D01*
X156731423Y-82168579D01*
X156731423Y-82260500D01*
X156711421Y-82328620D01*
X156657766Y-82375113D01*
X156605423Y-82386500D01*
X152026281Y-82386500D01*
X151958160Y-82366498D01*
X151920489Y-82328940D01*
X151902055Y-82300445D01*
X151809686Y-82157665D01*
X151653809Y-81986358D01*
X151649758Y-81983159D01*
X151649754Y-81983155D01*
X151476099Y-81846011D01*
X151476094Y-81846008D01*
X151472045Y-81842810D01*
X151467529Y-81840317D01*
X151467526Y-81840315D01*
X151273801Y-81733373D01*
X151273797Y-81733371D01*
X151269277Y-81730876D01*
X151264408Y-81729152D01*
X151264404Y-81729150D01*
X151055825Y-81655288D01*
X151055821Y-81655287D01*
X151050950Y-81653562D01*
X151045857Y-81652655D01*
X151045854Y-81652654D01*
X150828017Y-81613851D01*
X150828011Y-81613850D01*
X150822928Y-81612945D01*
X150750018Y-81612054D01*
X150596503Y-81610179D01*
X150596501Y-81610179D01*
X150591333Y-81610116D01*
X150362386Y-81645150D01*
X150142236Y-81717106D01*
X150137648Y-81719494D01*
X150137644Y-81719496D01*
X149961640Y-81811118D01*
X149936794Y-81824052D01*
X149932661Y-81827155D01*
X149932658Y-81827157D01*
X149755712Y-81960012D01*
X149751577Y-81963117D01*
X149591561Y-82130564D01*
X149588647Y-82134836D01*
X149588646Y-82134837D01*
X149539996Y-82206155D01*
X149461041Y-82321899D01*
X149363524Y-82531981D01*
X149301629Y-82755169D01*
X149277017Y-82985469D01*
X149277314Y-82990622D01*
X149277314Y-82990625D01*
X149283856Y-83104080D01*
X149290349Y-83216697D01*
X149291486Y-83221743D01*
X149291487Y-83221749D01*
X149317063Y-83335235D01*
X149341268Y-83442642D01*
X149343210Y-83447424D01*
X149343211Y-83447428D01*
X149426462Y-83652450D01*
X149428406Y-83657237D01*
X149549423Y-83854719D01*
X149701069Y-84029784D01*
X149798179Y-84110406D01*
X149872513Y-84172119D01*
X149879271Y-84177730D01*
X150079244Y-84294584D01*
X150084069Y-84296426D01*
X150084070Y-84296427D01*
X150136481Y-84316441D01*
X150295616Y-84377209D01*
X150300682Y-84378240D01*
X150300683Y-84378240D01*
X150314908Y-84381134D01*
X150522578Y-84423385D01*
X150653246Y-84428176D01*
X150748871Y-84431683D01*
X150748875Y-84431683D01*
X150754035Y-84431872D01*
X150759155Y-84431216D01*
X150759157Y-84431216D01*
X150837857Y-84421134D01*
X150983769Y-84402442D01*
X150988717Y-84400957D01*
X150988724Y-84400956D01*
X151200669Y-84337369D01*
X151205612Y-84335886D01*
X151241659Y-84318227D01*
X151408971Y-84236262D01*
X151408974Y-84236260D01*
X151413606Y-84233991D01*
X151602165Y-84099494D01*
X151766225Y-83936005D01*
X151901380Y-83747917D01*
X151913362Y-83723672D01*
X151961475Y-83671466D01*
X152026319Y-83653500D01*
X156060422Y-83653500D01*
X156128543Y-83673502D01*
X156175036Y-83727158D01*
X156186422Y-83779500D01*
X156186423Y-84025877D01*
X156186423Y-84236634D01*
X156186686Y-84239492D01*
X156186686Y-84239501D01*
X156188445Y-84258645D01*
X156193169Y-84310062D01*
X156195168Y-84316440D01*
X156195168Y-84316441D01*
X156231137Y-84431216D01*
X156244450Y-84473699D01*
X156333283Y-84620381D01*
X156429161Y-84716259D01*
X156463187Y-84778571D01*
X156458122Y-84849386D01*
X156429161Y-84894449D01*
X156339053Y-84984557D01*
X156329746Y-84996426D01*
X156248843Y-85130012D01*
X156242637Y-85143757D01*
X156195666Y-85293644D01*
X156193053Y-85306694D01*
X156188009Y-85361586D01*
X156191397Y-85373124D01*
X156192787Y-85374329D01*
X156200470Y-85376000D01*
X158134806Y-85376000D01*
X158150045Y-85371525D01*
X158151250Y-85370135D01*
X158152213Y-85365706D01*
X158146790Y-85306685D01*
X158144179Y-85293649D01*
X158097207Y-85143757D01*
X158091001Y-85130012D01*
X158010098Y-84996426D01*
X158000791Y-84984557D01*
X157910683Y-84894449D01*
X157876657Y-84832137D01*
X157881722Y-84761322D01*
X157910683Y-84716259D01*
X158006561Y-84620381D01*
X158095394Y-84473699D01*
X158110451Y-84425651D01*
X158141590Y-84374236D01*
X158277705Y-84238121D01*
X158340017Y-84204095D01*
X158410832Y-84209160D01*
X158467668Y-84251707D01*
X158492479Y-84318227D01*
X158475919Y-84390216D01*
X158465395Y-84408444D01*
X158406380Y-84590072D01*
X158405690Y-84596633D01*
X158405690Y-84596635D01*
X158388381Y-84761322D01*
X158386418Y-84780000D01*
X158387108Y-84786565D01*
X158405332Y-84959953D01*
X158406380Y-84969928D01*
X158465395Y-85151556D01*
X158468698Y-85157278D01*
X158468699Y-85157279D01*
X158491777Y-85197251D01*
X158560882Y-85316944D01*
X158565300Y-85321851D01*
X158565301Y-85321852D01*
X158614056Y-85376000D01*
X158688669Y-85458866D01*
X158734628Y-85492257D01*
X158830838Y-85562158D01*
X158843170Y-85571118D01*
X158849198Y-85573802D01*
X158849200Y-85573803D01*
X159007073Y-85644092D01*
X159017634Y-85648794D01*
X159105441Y-85667458D01*
X159197978Y-85687128D01*
X159197983Y-85687128D01*
X159204435Y-85688500D01*
X159395409Y-85688500D01*
X159401861Y-85687128D01*
X159401866Y-85687128D01*
X159494403Y-85667458D01*
X159519817Y-85662056D01*
X159590606Y-85667458D01*
X159647239Y-85710275D01*
X159663995Y-85741074D01*
X159711597Y-85868052D01*
X159720136Y-85883649D01*
X159796637Y-85985724D01*
X159809198Y-85998285D01*
X159911273Y-86074786D01*
X159926868Y-86083324D01*
X160054715Y-86131252D01*
X160054261Y-86132463D01*
X160108912Y-86163685D01*
X160141731Y-86226640D01*
X160135304Y-86297346D01*
X160095869Y-86350199D01*
X160084480Y-86359130D01*
X160069371Y-86374239D01*
X160007059Y-86408265D01*
X159936244Y-86403200D01*
X159902928Y-86381789D01*
X159901650Y-86383419D01*
X159895679Y-86378737D01*
X159890303Y-86373361D01*
X159743621Y-86284528D01*
X159736374Y-86282257D01*
X159736372Y-86282256D01*
X159649937Y-86255169D01*
X159579984Y-86233247D01*
X159506557Y-86226500D01*
X159503659Y-86226500D01*
X159249257Y-86226501D01*
X158993288Y-86226501D01*
X158990430Y-86226764D01*
X158990421Y-86226764D01*
X158954918Y-86230026D01*
X158919860Y-86233247D01*
X158913482Y-86235246D01*
X158913481Y-86235246D01*
X158763472Y-86282256D01*
X158763470Y-86282257D01*
X158756223Y-86284528D01*
X158609541Y-86373361D01*
X158514017Y-86468885D01*
X158451705Y-86502911D01*
X158380890Y-86497846D01*
X158335827Y-86468885D01*
X158240303Y-86373361D01*
X158131003Y-86307167D01*
X158083096Y-86254770D01*
X158071123Y-86184790D01*
X158088500Y-86134116D01*
X158091002Y-86129985D01*
X158097207Y-86116243D01*
X158144178Y-85966356D01*
X158146791Y-85953306D01*
X158151835Y-85898414D01*
X158148447Y-85886876D01*
X158147057Y-85885671D01*
X158139374Y-85884000D01*
X156953913Y-85884000D01*
X156943887Y-85883211D01*
X156937808Y-85883020D01*
X156929979Y-85881780D01*
X156922087Y-85882526D01*
X156912408Y-85883441D01*
X156900550Y-85884000D01*
X156195797Y-85884000D01*
X156178409Y-85886500D01*
X152026281Y-85886500D01*
X151958160Y-85866498D01*
X151920489Y-85828940D01*
X151829133Y-85687725D01*
X151809686Y-85657665D01*
X151802863Y-85650166D01*
X151738652Y-85579600D01*
X151653809Y-85486358D01*
X151649758Y-85483159D01*
X151649754Y-85483155D01*
X151476099Y-85346011D01*
X151476094Y-85346008D01*
X151472045Y-85342810D01*
X151467529Y-85340317D01*
X151467526Y-85340315D01*
X151273801Y-85233373D01*
X151273797Y-85233371D01*
X151269277Y-85230876D01*
X151264408Y-85229152D01*
X151264404Y-85229150D01*
X151055825Y-85155288D01*
X151055821Y-85155287D01*
X151050950Y-85153562D01*
X151045857Y-85152655D01*
X151045854Y-85152654D01*
X150828017Y-85113851D01*
X150828011Y-85113850D01*
X150822928Y-85112945D01*
X150750018Y-85112054D01*
X150596503Y-85110179D01*
X150596501Y-85110179D01*
X150591333Y-85110116D01*
X150362386Y-85145150D01*
X150142236Y-85217106D01*
X150137648Y-85219494D01*
X150137644Y-85219496D01*
X149950448Y-85316944D01*
X149936794Y-85324052D01*
X149932661Y-85327155D01*
X149932658Y-85327157D01*
X149755712Y-85460012D01*
X149751577Y-85463117D01*
X149591561Y-85630564D01*
X149588647Y-85634836D01*
X149588646Y-85634837D01*
X149564329Y-85670484D01*
X149461041Y-85821899D01*
X149363524Y-86031981D01*
X149301629Y-86255169D01*
X149277017Y-86485469D01*
X149277314Y-86490622D01*
X149277314Y-86490625D01*
X149283223Y-86593111D01*
X149290349Y-86716697D01*
X149291486Y-86721743D01*
X149291487Y-86721749D01*
X149310235Y-86804938D01*
X149341268Y-86942642D01*
X149343210Y-86947424D01*
X149343211Y-86947428D01*
X149407480Y-87105702D01*
X149428406Y-87157237D01*
X149549423Y-87354719D01*
X149701069Y-87529784D01*
X149879271Y-87677730D01*
X150007172Y-87752469D01*
X150074329Y-87791712D01*
X150123053Y-87843350D01*
X150136124Y-87913133D01*
X150109393Y-87978905D01*
X150051346Y-88019784D01*
X150010759Y-88026500D01*
X144240377Y-88026500D01*
X144172256Y-88006498D01*
X144131258Y-87963500D01*
X144096006Y-87902442D01*
X144079040Y-87873056D01*
X144044982Y-87835230D01*
X143955675Y-87736045D01*
X143955674Y-87736044D01*
X143951253Y-87731134D01*
X143806731Y-87626132D01*
X143802094Y-87622763D01*
X143802093Y-87622762D01*
X143796752Y-87618882D01*
X143790724Y-87616198D01*
X143790722Y-87616197D01*
X143628319Y-87543891D01*
X143628318Y-87543891D01*
X143622288Y-87541206D01*
X143528888Y-87521353D01*
X143441944Y-87502872D01*
X143441939Y-87502872D01*
X143435487Y-87501500D01*
X143244513Y-87501500D01*
X143238061Y-87502872D01*
X143238056Y-87502872D01*
X143151113Y-87521353D01*
X143057712Y-87541206D01*
X143051682Y-87543891D01*
X143051681Y-87543891D01*
X142889278Y-87616197D01*
X142889276Y-87616198D01*
X142883248Y-87618882D01*
X142877907Y-87622762D01*
X142877906Y-87622763D01*
X142873269Y-87626132D01*
X142728747Y-87731134D01*
X142724326Y-87736044D01*
X142724325Y-87736045D01*
X142635019Y-87835230D01*
X142600960Y-87873056D01*
X142548742Y-87963500D01*
X142513591Y-88024384D01*
X142505473Y-88038444D01*
X142446458Y-88220072D01*
X142445769Y-88226631D01*
X142445768Y-88226634D01*
X142430267Y-88374120D01*
X142403254Y-88439776D01*
X142394052Y-88450044D01*
X135277747Y-95566348D01*
X135269461Y-95573888D01*
X135262982Y-95578000D01*
X135257557Y-95583777D01*
X135216357Y-95627651D01*
X135213602Y-95630493D01*
X135193865Y-95650230D01*
X135191385Y-95653427D01*
X135183682Y-95662447D01*
X135153414Y-95694679D01*
X135149595Y-95701625D01*
X135149593Y-95701628D01*
X135143652Y-95712434D01*
X135132801Y-95728953D01*
X135120386Y-95744959D01*
X135117241Y-95752228D01*
X135117238Y-95752232D01*
X135102826Y-95785537D01*
X135097609Y-95796187D01*
X135076305Y-95834940D01*
X135074334Y-95842615D01*
X135074334Y-95842616D01*
X135071267Y-95854562D01*
X135064863Y-95873266D01*
X135056819Y-95891855D01*
X135055580Y-95899678D01*
X135055577Y-95899688D01*
X135049901Y-95935524D01*
X135047495Y-95947144D01*
X135036500Y-95989970D01*
X135036500Y-96010224D01*
X135034949Y-96029934D01*
X135031780Y-96049943D01*
X135032526Y-96057835D01*
X135035941Y-96093961D01*
X135036500Y-96105819D01*
X135036500Y-97497476D01*
X135016498Y-97565597D01*
X135004142Y-97581779D01*
X134930960Y-97663056D01*
X134835473Y-97828444D01*
X134776458Y-98010072D01*
X134756496Y-98200000D01*
X100008500Y-98200000D01*
X100008500Y-84956181D01*
X107361869Y-84956181D01*
X107376542Y-85306258D01*
X107397285Y-85440250D01*
X107429569Y-85648794D01*
X107430145Y-85652518D01*
X107431067Y-85655910D01*
X107431067Y-85655912D01*
X107439921Y-85688500D01*
X107522012Y-85990645D01*
X107523302Y-85993904D01*
X107523304Y-85993909D01*
X107580255Y-86137750D01*
X107650998Y-86316424D01*
X107652653Y-86319536D01*
X107652655Y-86319541D01*
X107721617Y-86449239D01*
X107815493Y-86625795D01*
X107817483Y-86628701D01*
X107817484Y-86628703D01*
X107988345Y-86878238D01*
X108013449Y-86914902D01*
X108242397Y-87180142D01*
X108499485Y-87418207D01*
X108502311Y-87420290D01*
X108502314Y-87420293D01*
X108539034Y-87447365D01*
X108781507Y-87626132D01*
X108784544Y-87627886D01*
X108784548Y-87627888D01*
X108906991Y-87698580D01*
X109084949Y-87801324D01*
X109129237Y-87820673D01*
X109402807Y-87940193D01*
X109402817Y-87940197D01*
X109406029Y-87941600D01*
X109409387Y-87942639D01*
X109409391Y-87942641D01*
X109545685Y-87984831D01*
X109740743Y-88045212D01*
X109766414Y-88050109D01*
X110081471Y-88110210D01*
X110081477Y-88110211D01*
X110084922Y-88110868D01*
X110282920Y-88126103D01*
X110430777Y-88137480D01*
X110430778Y-88137480D01*
X110434274Y-88137749D01*
X110666291Y-88129646D01*
X110780929Y-88125643D01*
X110780933Y-88125643D01*
X110784445Y-88125520D01*
X110787924Y-88125006D01*
X110787927Y-88125006D01*
X111127578Y-88074851D01*
X111127584Y-88074850D01*
X111131070Y-88074335D01*
X111134474Y-88073436D01*
X111134477Y-88073435D01*
X111466439Y-87985727D01*
X111466440Y-87985727D01*
X111469830Y-87984831D01*
X111796502Y-87858123D01*
X112107014Y-87695792D01*
X112348235Y-87533086D01*
X112394580Y-87501826D01*
X112394582Y-87501825D01*
X112397496Y-87499859D01*
X112416662Y-87483548D01*
X112661654Y-87275043D01*
X112661655Y-87275042D01*
X112664327Y-87272768D01*
X112730224Y-87202595D01*
X112901771Y-87019916D01*
X112901775Y-87019911D01*
X112904182Y-87017348D01*
X113114071Y-86736785D01*
X113121247Y-86724555D01*
X113210266Y-86572824D01*
X113291377Y-86434573D01*
X113308945Y-86395115D01*
X113432459Y-86117698D01*
X113432461Y-86117693D01*
X113433891Y-86114481D01*
X113539837Y-85780498D01*
X113607894Y-85436786D01*
X113624975Y-85233373D01*
X113637030Y-85089814D01*
X113637031Y-85089803D01*
X113637213Y-85087630D01*
X113637543Y-85064047D01*
X113638407Y-85002178D01*
X113638407Y-85002166D01*
X113638437Y-85000000D01*
X113638238Y-84996426D01*
X113620966Y-84687507D01*
X113618878Y-84650162D01*
X113597380Y-84523056D01*
X113561032Y-84308153D01*
X113561031Y-84308148D01*
X113560445Y-84304684D01*
X113463866Y-83967873D01*
X113415037Y-83849404D01*
X113331683Y-83647171D01*
X113331679Y-83647163D01*
X113330345Y-83643926D01*
X113161546Y-83336882D01*
X112959573Y-83050567D01*
X112900799Y-82984368D01*
X112729274Y-82791175D01*
X112729270Y-82791171D01*
X112726943Y-82788550D01*
X112724342Y-82786208D01*
X112724337Y-82786203D01*
X112469167Y-82556447D01*
X112469166Y-82556447D01*
X112466557Y-82554097D01*
X112442612Y-82536954D01*
X112184513Y-82352173D01*
X112184510Y-82352171D01*
X112181659Y-82350130D01*
X111875800Y-82179192D01*
X111552794Y-82043412D01*
X111549425Y-82042421D01*
X111549421Y-82042419D01*
X111348058Y-81983155D01*
X111216665Y-81944484D01*
X110900833Y-81888794D01*
X110875063Y-81884250D01*
X110875061Y-81884250D01*
X110871603Y-81883640D01*
X110868094Y-81883419D01*
X110868092Y-81883419D01*
X110525428Y-81861860D01*
X110525422Y-81861860D01*
X110521910Y-81861639D01*
X110424516Y-81866403D01*
X110175451Y-81878584D01*
X110175443Y-81878585D01*
X110171944Y-81878756D01*
X110168476Y-81879318D01*
X110168473Y-81879318D01*
X109829542Y-81934213D01*
X109829539Y-81934214D01*
X109826067Y-81934776D01*
X109822684Y-81935721D01*
X109822682Y-81935721D01*
X109787747Y-81945475D01*
X109488589Y-82029001D01*
X109485341Y-82030313D01*
X109485333Y-82030316D01*
X109166983Y-82158938D01*
X109166979Y-82158940D01*
X109163719Y-82160257D01*
X109160632Y-82161926D01*
X109160628Y-82161928D01*
X109062707Y-82214874D01*
X108855503Y-82326909D01*
X108567785Y-82526878D01*
X108565143Y-82529191D01*
X108565139Y-82529194D01*
X108442201Y-82636819D01*
X108304151Y-82757673D01*
X108301776Y-82760274D01*
X108086990Y-82995495D01*
X108067886Y-83016416D01*
X107861935Y-83299883D01*
X107688865Y-83604541D01*
X107636594Y-83726498D01*
X107554969Y-83916944D01*
X107550834Y-83926591D01*
X107520858Y-84025877D01*
X107455191Y-84243378D01*
X107449562Y-84262021D01*
X107436481Y-84333295D01*
X107389354Y-84590072D01*
X107386311Y-84606650D01*
X107361869Y-84956181D01*
X100008500Y-84956181D01*
X100008500Y-46134500D01*
X100028502Y-46066379D01*
X100082158Y-46019886D01*
X100134500Y-46008500D01*
X109991377Y-46008500D01*
X109992148Y-46008502D01*
X110069721Y-46008976D01*
X110098152Y-46000850D01*
X110114915Y-45997272D01*
X110115753Y-45997152D01*
X110144187Y-45993080D01*
X110167564Y-45982451D01*
X110185087Y-45976004D01*
X110209771Y-45968949D01*
X110217365Y-45964157D01*
X110217368Y-45964156D01*
X110230008Y-45956181D01*
X154111869Y-45956181D01*
X154126542Y-46306258D01*
X154180145Y-46652518D01*
X154272012Y-46990645D01*
X154273302Y-46993904D01*
X154273304Y-46993909D01*
X154322316Y-47117698D01*
X154400998Y-47316424D01*
X154565493Y-47625795D01*
X154567483Y-47628701D01*
X154567484Y-47628703D01*
X154641490Y-47736785D01*
X154763449Y-47914902D01*
X154992397Y-48180142D01*
X155249485Y-48418207D01*
X155531507Y-48626132D01*
X155534544Y-48627886D01*
X155534548Y-48627888D01*
X155695060Y-48720559D01*
X155834949Y-48801324D01*
X155838170Y-48802731D01*
X156152807Y-48940193D01*
X156152817Y-48940197D01*
X156156029Y-48941600D01*
X156159387Y-48942639D01*
X156159391Y-48942641D01*
X156295685Y-48984831D01*
X156490743Y-49045212D01*
X156494199Y-49045871D01*
X156494198Y-49045871D01*
X156831471Y-49110210D01*
X156831477Y-49110211D01*
X156834922Y-49110868D01*
X157066253Y-49128668D01*
X157180777Y-49137480D01*
X157180778Y-49137480D01*
X157184274Y-49137749D01*
X157416291Y-49129646D01*
X157530929Y-49125643D01*
X157530933Y-49125643D01*
X157534445Y-49125520D01*
X157537924Y-49125006D01*
X157537927Y-49125006D01*
X157877578Y-49074851D01*
X157877584Y-49074850D01*
X157881070Y-49074335D01*
X157884474Y-49073436D01*
X157884477Y-49073435D01*
X158216439Y-48985727D01*
X158216440Y-48985727D01*
X158219830Y-48984831D01*
X158546502Y-48858123D01*
X158857014Y-48695792D01*
X159147496Y-48499859D01*
X159414327Y-48272768D01*
X159499069Y-48182527D01*
X159651771Y-48019916D01*
X159651775Y-48019911D01*
X159654182Y-48017348D01*
X159864071Y-47736785D01*
X160041377Y-47434573D01*
X160042809Y-47431357D01*
X160182459Y-47117698D01*
X160182461Y-47117693D01*
X160183891Y-47114481D01*
X160289837Y-46780498D01*
X160357894Y-46436786D01*
X160371274Y-46277442D01*
X160387030Y-46089814D01*
X160387031Y-46089803D01*
X160387213Y-46087630D01*
X160387290Y-46082158D01*
X160388407Y-46002178D01*
X160388407Y-46002166D01*
X160388437Y-46000000D01*
X160388285Y-45997272D01*
X160371154Y-45690880D01*
X160368878Y-45650162D01*
X160363943Y-45620985D01*
X160311032Y-45308153D01*
X160311031Y-45308148D01*
X160310445Y-45304684D01*
X160213866Y-44967873D01*
X160166818Y-44853726D01*
X160081683Y-44647171D01*
X160081679Y-44647163D01*
X160080345Y-44643926D01*
X159911546Y-44336882D01*
X159709573Y-44050567D01*
X159476943Y-43788550D01*
X159474342Y-43786208D01*
X159474337Y-43786203D01*
X159219167Y-43556447D01*
X159219166Y-43556447D01*
X159216557Y-43554097D01*
X159178538Y-43526878D01*
X158934513Y-43352173D01*
X158934510Y-43352171D01*
X158931659Y-43350130D01*
X158625800Y-43179192D01*
X158302794Y-43043412D01*
X158299425Y-43042421D01*
X158299421Y-43042419D01*
X158151053Y-42998752D01*
X157966665Y-42944484D01*
X157690895Y-42895858D01*
X157625063Y-42884250D01*
X157625061Y-42884250D01*
X157621603Y-42883640D01*
X157618094Y-42883419D01*
X157618092Y-42883419D01*
X157275428Y-42861860D01*
X157275422Y-42861860D01*
X157271910Y-42861639D01*
X157174516Y-42866403D01*
X156925451Y-42878584D01*
X156925443Y-42878585D01*
X156921944Y-42878756D01*
X156918476Y-42879318D01*
X156918473Y-42879318D01*
X156579542Y-42934213D01*
X156579539Y-42934214D01*
X156576067Y-42934776D01*
X156572684Y-42935721D01*
X156572682Y-42935721D01*
X156537747Y-42945475D01*
X156238589Y-43029001D01*
X156235341Y-43030313D01*
X156235333Y-43030316D01*
X155916983Y-43158938D01*
X155916979Y-43158940D01*
X155913719Y-43160257D01*
X155910632Y-43161926D01*
X155910628Y-43161928D01*
X155881220Y-43177829D01*
X155605503Y-43326909D01*
X155317785Y-43526878D01*
X155315143Y-43529191D01*
X155315139Y-43529194D01*
X155076206Y-43738365D01*
X155054151Y-43757673D01*
X154817886Y-44016416D01*
X154611935Y-44299883D01*
X154438865Y-44604541D01*
X154300834Y-44926591D01*
X154281112Y-44991914D01*
X154200789Y-45257958D01*
X154199562Y-45262021D01*
X154183452Y-45349800D01*
X154141505Y-45578352D01*
X154136311Y-45606650D01*
X154111869Y-45956181D01*
X110230008Y-45956181D01*
X110234780Y-45953170D01*
X110249865Y-45945030D01*
X110276782Y-45932792D01*
X110296235Y-45916030D01*
X110311239Y-45904927D01*
X110332958Y-45891224D01*
X110338897Y-45884499D01*
X110338901Y-45884496D01*
X110352532Y-45869062D01*
X110364724Y-45857018D01*
X110380327Y-45843573D01*
X110380329Y-45843570D01*
X110387127Y-45837713D01*
X110401094Y-45816165D01*
X110412385Y-45801291D01*
X110423431Y-45788783D01*
X110423432Y-45788782D01*
X110429378Y-45782049D01*
X110441943Y-45755287D01*
X110450263Y-45740309D01*
X110461471Y-45723017D01*
X110461473Y-45723012D01*
X110466352Y-45715485D01*
X110468922Y-45706892D01*
X110468924Y-45706887D01*
X110473711Y-45690880D01*
X110480372Y-45673436D01*
X110487467Y-45658324D01*
X110487468Y-45658322D01*
X110491281Y-45650200D01*
X110495830Y-45620983D01*
X110499613Y-45604268D01*
X110505515Y-45584534D01*
X110505516Y-45584528D01*
X110508086Y-45575934D01*
X110508296Y-45541494D01*
X110508329Y-45540711D01*
X110508500Y-45539614D01*
X110508500Y-45508623D01*
X110508502Y-45507853D01*
X110508952Y-45434215D01*
X110508952Y-45434214D01*
X110508976Y-45430279D01*
X110508592Y-45428935D01*
X110508500Y-45427590D01*
X110508500Y-35634500D01*
X110528502Y-35566379D01*
X110582158Y-35519886D01*
X110634500Y-35508500D01*
X188365500Y-35508500D01*
X188433621Y-35528502D01*
G37*
%TD.AperFunction*%
%TA.AperFunction,Conductor*%
G36*
X147673527Y-98893502D02*
G01*
X147694501Y-98910405D01*
X149122878Y-100338782D01*
X149156904Y-100401094D01*
X149159092Y-100414703D01*
X149176458Y-100579928D01*
X149235473Y-100761556D01*
X149330960Y-100926944D01*
X149458747Y-101068866D01*
X149540117Y-101127985D01*
X149613248Y-101181118D01*
X149611877Y-101183005D01*
X149653500Y-101226652D01*
X149666940Y-101296365D01*
X149640557Y-101362277D01*
X149630605Y-101373490D01*
X148119500Y-102884595D01*
X148057188Y-102918621D01*
X148030405Y-102921500D01*
X142629913Y-102921500D01*
X142561792Y-102901498D01*
X142515299Y-102847842D01*
X142505195Y-102777568D01*
X142505677Y-102775081D01*
X142506474Y-102769840D01*
X142507808Y-102764390D01*
X142508500Y-102753236D01*
X142508536Y-102753238D01*
X142508775Y-102749245D01*
X142509149Y-102745053D01*
X142510640Y-102737885D01*
X142508546Y-102660479D01*
X142508500Y-102657072D01*
X142508500Y-100498513D01*
X142516518Y-100454284D01*
X142548973Y-100367711D01*
X142548973Y-100367709D01*
X142551745Y-100360316D01*
X142552599Y-100352460D01*
X142558131Y-100301531D01*
X142558500Y-100298134D01*
X142558500Y-99201866D01*
X142551745Y-99139684D01*
X142515773Y-99043729D01*
X142510590Y-98972923D01*
X142544511Y-98910554D01*
X142606766Y-98876424D01*
X142633755Y-98873500D01*
X147605406Y-98873500D01*
X147673527Y-98893502D01*
G37*
%TD.AperFunction*%
%TA.AperFunction,Conductor*%
G36*
X140446121Y-99516002D02*
G01*
X140492614Y-99569658D01*
X140504000Y-99622000D01*
X140504000Y-100739884D01*
X140508475Y-100755123D01*
X140509865Y-100756328D01*
X140517548Y-100757999D01*
X140594669Y-100757999D01*
X140601490Y-100757629D01*
X140652352Y-100752105D01*
X140667604Y-100748479D01*
X140788061Y-100703321D01*
X140804992Y-100694052D01*
X140874349Y-100678883D01*
X140940897Y-100703620D01*
X140983507Y-100760408D01*
X140991500Y-100804572D01*
X140991500Y-102088604D01*
X140971498Y-102156725D01*
X140959136Y-102172914D01*
X140850960Y-102293056D01*
X140755473Y-102458444D01*
X140696458Y-102640072D01*
X140695768Y-102646633D01*
X140695768Y-102646635D01*
X140678738Y-102808670D01*
X140651725Y-102874327D01*
X140593503Y-102914957D01*
X140553428Y-102921500D01*
X139418147Y-102921500D01*
X139350026Y-102901498D01*
X139303533Y-102847842D01*
X139293429Y-102777568D01*
X139322923Y-102712988D01*
X139344086Y-102693564D01*
X139420909Y-102637749D01*
X139420911Y-102637747D01*
X139426253Y-102633866D01*
X139554040Y-102491944D01*
X139649527Y-102326556D01*
X139708542Y-102144928D01*
X139728504Y-101955000D01*
X139708542Y-101765072D01*
X139649527Y-101583444D01*
X139554040Y-101418056D01*
X139549620Y-101413147D01*
X139549617Y-101413143D01*
X139540866Y-101403424D01*
X139510148Y-101339417D01*
X139508501Y-101319113D01*
X139508501Y-100804572D01*
X139528503Y-100736451D01*
X139582159Y-100689958D01*
X139652433Y-100679854D01*
X139695011Y-100694053D01*
X139711940Y-100703322D01*
X139832394Y-100748478D01*
X139847649Y-100752105D01*
X139898514Y-100757631D01*
X139905328Y-100758000D01*
X139977885Y-100758000D01*
X139993124Y-100753525D01*
X139994329Y-100752135D01*
X139996000Y-100744452D01*
X139996000Y-99622000D01*
X140016002Y-99553879D01*
X140069658Y-99507386D01*
X140122000Y-99496000D01*
X140378000Y-99496000D01*
X140446121Y-99516002D01*
G37*
%TD.AperFunction*%
%TA.AperFunction,Conductor*%
G36*
X169673897Y-86333502D02*
G01*
X169720390Y-86387158D01*
X169731776Y-86439500D01*
X169731776Y-86517743D01*
X169731937Y-86522250D01*
X169736518Y-86586300D01*
X169738904Y-86599522D01*
X169775616Y-86724555D01*
X169783026Y-86740781D01*
X169852260Y-86848510D01*
X169863941Y-86861991D01*
X169960719Y-86945850D01*
X169975728Y-86955496D01*
X170092212Y-87008692D01*
X170109325Y-87013717D01*
X170240554Y-87032585D01*
X170249495Y-87033224D01*
X170311885Y-87033224D01*
X170327124Y-87028749D01*
X170328329Y-87027359D01*
X170330000Y-87019676D01*
X170330000Y-86509729D01*
X170350002Y-86441608D01*
X170403658Y-86395115D01*
X170456000Y-86383729D01*
X170584000Y-86383729D01*
X170652121Y-86403731D01*
X170698614Y-86457387D01*
X170710000Y-86509729D01*
X170710000Y-87015110D01*
X170718215Y-87043089D01*
X170718215Y-87114085D01*
X170686414Y-87167682D01*
X170258245Y-87595850D01*
X169864499Y-87989596D01*
X169802187Y-88023621D01*
X169775404Y-88026500D01*
X163496671Y-88026500D01*
X163428550Y-88006498D01*
X163382057Y-87952842D01*
X163371953Y-87882568D01*
X163401447Y-87817988D01*
X163461520Y-87779503D01*
X163465901Y-87778230D01*
X163473515Y-87776018D01*
X163480334Y-87771985D01*
X163480339Y-87771983D01*
X163490950Y-87765707D01*
X163508698Y-87757012D01*
X163527539Y-87749552D01*
X163563309Y-87723564D01*
X163573229Y-87717048D01*
X163604457Y-87698580D01*
X163604460Y-87698578D01*
X163611284Y-87694542D01*
X163625605Y-87680221D01*
X163640639Y-87667380D01*
X163650615Y-87660132D01*
X163657029Y-87655472D01*
X163685210Y-87621407D01*
X163693199Y-87612627D01*
X163815423Y-87490404D01*
X163877735Y-87456379D01*
X163904518Y-87453500D01*
X164178536Y-87453499D01*
X164196556Y-87453499D01*
X164199414Y-87453236D01*
X164199423Y-87453236D01*
X164234926Y-87449974D01*
X164269984Y-87446753D01*
X164304281Y-87436005D01*
X164426372Y-87397744D01*
X164426374Y-87397743D01*
X164433621Y-87395472D01*
X164580303Y-87306639D01*
X164675827Y-87211115D01*
X164738139Y-87177089D01*
X164808954Y-87182154D01*
X164854017Y-87211115D01*
X164949541Y-87306639D01*
X165096223Y-87395472D01*
X165103470Y-87397743D01*
X165103472Y-87397744D01*
X165161134Y-87415814D01*
X165259860Y-87446753D01*
X165333287Y-87453500D01*
X165336185Y-87453500D01*
X165590587Y-87453499D01*
X165846556Y-87453499D01*
X165849414Y-87453236D01*
X165849423Y-87453236D01*
X165884926Y-87449974D01*
X165919984Y-87446753D01*
X165954281Y-87436005D01*
X166076372Y-87397744D01*
X166076374Y-87397743D01*
X166083621Y-87395472D01*
X166230303Y-87306639D01*
X166351561Y-87185381D01*
X166364371Y-87164229D01*
X166416768Y-87116322D01*
X166472147Y-87103500D01*
X166891155Y-87103500D01*
X166902338Y-87104027D01*
X166909831Y-87105702D01*
X166917757Y-87105453D01*
X166917758Y-87105453D01*
X166977908Y-87103562D01*
X166981867Y-87103500D01*
X167009778Y-87103500D01*
X167013713Y-87103003D01*
X167013778Y-87102995D01*
X167025615Y-87102062D01*
X167057873Y-87101048D01*
X167061892Y-87100922D01*
X167069811Y-87100673D01*
X167089265Y-87095021D01*
X167108622Y-87091013D01*
X167120852Y-87089468D01*
X167120853Y-87089468D01*
X167128719Y-87088474D01*
X167136090Y-87085555D01*
X167136092Y-87085555D01*
X167169834Y-87072196D01*
X167181064Y-87068351D01*
X167215905Y-87058229D01*
X167215906Y-87058229D01*
X167223515Y-87056018D01*
X167230334Y-87051985D01*
X167230339Y-87051983D01*
X167240950Y-87045707D01*
X167258698Y-87037012D01*
X167277539Y-87029552D01*
X167291133Y-87019676D01*
X167313309Y-87003564D01*
X167323229Y-86997048D01*
X167354457Y-86978580D01*
X167354460Y-86978578D01*
X167361284Y-86974542D01*
X167375605Y-86960221D01*
X167390639Y-86947380D01*
X167400615Y-86940132D01*
X167407029Y-86935472D01*
X167412083Y-86929363D01*
X167417861Y-86923937D01*
X167419957Y-86926169D01*
X167466945Y-86894441D01*
X167505179Y-86888500D01*
X168085322Y-86888500D01*
X168088568Y-86888163D01*
X168088572Y-86888163D01*
X168184230Y-86878238D01*
X168184234Y-86878237D01*
X168191088Y-86877526D01*
X168197624Y-86875345D01*
X168197626Y-86875345D01*
X168351920Y-86823868D01*
X168358868Y-86821550D01*
X168509270Y-86728478D01*
X168521031Y-86716697D01*
X168629056Y-86608483D01*
X168634227Y-86603303D01*
X168638068Y-86597072D01*
X168723197Y-86458968D01*
X168723198Y-86458966D01*
X168727037Y-86452738D01*
X168744585Y-86399832D01*
X168785016Y-86341473D01*
X168850580Y-86314236D01*
X168864178Y-86313500D01*
X169605776Y-86313500D01*
X169673897Y-86333502D01*
G37*
%TD.AperFunction*%
%TA.AperFunction,Conductor*%
G36*
X174272253Y-84796002D02*
G01*
X174310130Y-84833879D01*
X174356750Y-84906421D01*
X174363559Y-84912321D01*
X174387798Y-84933324D01*
X174426182Y-84993050D01*
X174426182Y-85064047D01*
X174400510Y-85111061D01*
X174318729Y-85205441D01*
X174318726Y-85205446D01*
X174312824Y-85212257D01*
X174309080Y-85220456D01*
X174305439Y-85226121D01*
X174251783Y-85272614D01*
X174199441Y-85284000D01*
X173042115Y-85284000D01*
X173026876Y-85288475D01*
X173025671Y-85289865D01*
X173024000Y-85297548D01*
X173024000Y-86755653D01*
X173003998Y-86823774D01*
X172950342Y-86870267D01*
X172880068Y-86880371D01*
X172815488Y-86850877D01*
X172783386Y-86807994D01*
X172779843Y-86800236D01*
X172777304Y-86791589D01*
X172743895Y-86739604D01*
X172703122Y-86676159D01*
X172703120Y-86676156D01*
X172698250Y-86668579D01*
X172587743Y-86572824D01*
X172579543Y-86569079D01*
X172573879Y-86565439D01*
X172527386Y-86511783D01*
X172516000Y-86459441D01*
X172516000Y-85302115D01*
X172511525Y-85286876D01*
X172510135Y-85285671D01*
X172502452Y-85284000D01*
X171335868Y-85284000D01*
X171267747Y-85263998D01*
X171229870Y-85226121D01*
X171192499Y-85167971D01*
X171183250Y-85153579D01*
X171152202Y-85126675D01*
X171113818Y-85066950D01*
X171113818Y-84995953D01*
X171139490Y-84948939D01*
X171221271Y-84854559D01*
X171221274Y-84854554D01*
X171227176Y-84847743D01*
X171230920Y-84839544D01*
X171234561Y-84833879D01*
X171288217Y-84787386D01*
X171340559Y-84776000D01*
X174204132Y-84776000D01*
X174272253Y-84796002D01*
G37*
%TD.AperFunction*%
%TA.AperFunction,Conductor*%
G36*
X160632043Y-85508502D02*
G01*
X160678536Y-85562158D01*
X160689922Y-85614500D01*
X160689922Y-86081001D01*
X160669920Y-86149122D01*
X160616264Y-86195615D01*
X160563922Y-86207001D01*
X160476217Y-86207001D01*
X160470449Y-86207265D01*
X160427451Y-86211216D01*
X160357786Y-86197531D01*
X160306578Y-86148355D01*
X160289922Y-86085745D01*
X160289922Y-85614500D01*
X160309924Y-85546379D01*
X160363580Y-85499886D01*
X160415922Y-85488500D01*
X160563922Y-85488500D01*
X160632043Y-85508502D01*
G37*
%TD.AperFunction*%
%TA.AperFunction,Conductor*%
G36*
X166271342Y-84172119D02*
G01*
X166316389Y-84226995D01*
X166325941Y-84273904D01*
X166326254Y-84273888D01*
X166326362Y-84275969D01*
X166326422Y-84276265D01*
X166326422Y-84280400D01*
X166326759Y-84283646D01*
X166326759Y-84283650D01*
X166336574Y-84378240D01*
X166337396Y-84386166D01*
X166339577Y-84392702D01*
X166339577Y-84392704D01*
X166391369Y-84547943D01*
X166391886Y-84562144D01*
X166400056Y-84567491D01*
X166411292Y-84582905D01*
X166453319Y-84650819D01*
X166486444Y-84704348D01*
X166611619Y-84829305D01*
X166615838Y-84831906D01*
X166656339Y-84889030D01*
X166659571Y-84959953D01*
X166623946Y-85021365D01*
X166616392Y-85027922D01*
X166610574Y-85031522D01*
X166485617Y-85156697D01*
X166485024Y-85157659D01*
X166429178Y-85197251D01*
X166358255Y-85200479D01*
X166296845Y-85164852D01*
X166264445Y-85101679D01*
X166263254Y-85073170D01*
X166262736Y-85073170D01*
X166262736Y-85066565D01*
X166263426Y-85060000D01*
X166256744Y-84996426D01*
X166244154Y-84876635D01*
X166244154Y-84876633D01*
X166243464Y-84870072D01*
X166184449Y-84688444D01*
X166187332Y-84687507D01*
X166185432Y-84673461D01*
X166168397Y-84659754D01*
X166162726Y-84650819D01*
X166158276Y-84643111D01*
X166088962Y-84523056D01*
X165983823Y-84406288D01*
X165953108Y-84342283D01*
X165961872Y-84271830D01*
X166007334Y-84217298D01*
X166039781Y-84201746D01*
X166116374Y-84177743D01*
X166116373Y-84177743D01*
X166123621Y-84175472D01*
X166135150Y-84168490D01*
X166203779Y-84150310D01*
X166271342Y-84172119D01*
G37*
%TD.AperFunction*%
%TA.AperFunction,Conductor*%
G36*
X169528527Y-81738502D02*
G01*
X169549501Y-81755405D01*
X170683579Y-82889484D01*
X170717605Y-82951796D01*
X170717605Y-83005361D01*
X170710000Y-83040323D01*
X170710000Y-83550271D01*
X170689998Y-83618392D01*
X170636342Y-83664885D01*
X170584000Y-83676271D01*
X170456000Y-83676271D01*
X170387879Y-83656269D01*
X170341386Y-83602613D01*
X170330000Y-83550271D01*
X170330000Y-83044891D01*
X170325525Y-83029652D01*
X170324135Y-83028447D01*
X170316452Y-83026776D01*
X170247257Y-83026776D01*
X170242750Y-83026937D01*
X170178700Y-83031518D01*
X170165478Y-83033904D01*
X170040445Y-83070616D01*
X170024219Y-83078026D01*
X169916490Y-83147260D01*
X169903009Y-83158941D01*
X169819150Y-83255719D01*
X169809504Y-83270728D01*
X169756308Y-83387212D01*
X169751283Y-83404325D01*
X169732415Y-83535554D01*
X169731776Y-83544495D01*
X169731776Y-83620500D01*
X169711774Y-83688621D01*
X169658118Y-83735114D01*
X169605776Y-83746500D01*
X168913966Y-83746500D01*
X168845845Y-83726498D01*
X168799352Y-83672842D01*
X168788639Y-83633503D01*
X168783160Y-83580693D01*
X168783159Y-83580690D01*
X168782448Y-83573834D01*
X168779001Y-83563500D01*
X168728790Y-83413002D01*
X168726472Y-83406054D01*
X168633400Y-83255652D01*
X168508225Y-83130695D01*
X168501994Y-83126854D01*
X168363890Y-83041725D01*
X168363888Y-83041724D01*
X168357660Y-83037885D01*
X168259603Y-83005361D01*
X168196311Y-82984368D01*
X168196309Y-82984368D01*
X168189783Y-82982203D01*
X168182947Y-82981503D01*
X168182944Y-82981502D01*
X168139891Y-82977091D01*
X168085322Y-82971500D01*
X167499517Y-82971500D01*
X167431396Y-82951498D01*
X167410422Y-82934595D01*
X167333574Y-82857747D01*
X167326034Y-82849461D01*
X167321922Y-82842982D01*
X167272270Y-82796356D01*
X167269429Y-82793602D01*
X167249692Y-82773865D01*
X167246495Y-82771385D01*
X167237473Y-82763680D01*
X167211022Y-82738841D01*
X167205243Y-82733414D01*
X167198297Y-82729595D01*
X167198294Y-82729593D01*
X167187488Y-82723652D01*
X167170969Y-82712801D01*
X167170505Y-82712441D01*
X167154963Y-82700386D01*
X167147694Y-82697241D01*
X167147690Y-82697238D01*
X167114385Y-82682826D01*
X167103735Y-82677609D01*
X167064982Y-82656305D01*
X167045359Y-82651267D01*
X167026656Y-82644863D01*
X167015342Y-82639967D01*
X167015341Y-82639967D01*
X167008067Y-82636819D01*
X167000244Y-82635580D01*
X167000234Y-82635577D01*
X166964398Y-82629901D01*
X166952778Y-82627495D01*
X166917633Y-82618472D01*
X166917632Y-82618472D01*
X166909952Y-82616500D01*
X166889698Y-82616500D01*
X166869987Y-82614949D01*
X166857808Y-82613020D01*
X166849979Y-82611780D01*
X166842087Y-82612526D01*
X166805961Y-82615941D01*
X166794103Y-82616500D01*
X166512147Y-82616500D01*
X166444026Y-82596498D01*
X166404371Y-82555771D01*
X166395498Y-82541120D01*
X166391561Y-82534619D01*
X166270303Y-82413361D01*
X166123621Y-82324528D01*
X166116374Y-82322257D01*
X166116372Y-82322256D01*
X166018513Y-82291589D01*
X165959984Y-82273247D01*
X165886557Y-82266500D01*
X165883659Y-82266500D01*
X165629257Y-82266501D01*
X165373288Y-82266501D01*
X165370430Y-82266764D01*
X165370421Y-82266764D01*
X165334918Y-82270026D01*
X165299860Y-82273247D01*
X165293482Y-82275246D01*
X165293481Y-82275246D01*
X165143472Y-82322256D01*
X165143470Y-82322257D01*
X165136223Y-82324528D01*
X164989541Y-82413361D01*
X164894017Y-82508885D01*
X164831705Y-82542911D01*
X164760890Y-82537846D01*
X164715827Y-82508885D01*
X164620303Y-82413361D01*
X164473621Y-82324528D01*
X164466374Y-82322257D01*
X164466372Y-82322256D01*
X164368513Y-82291589D01*
X164309984Y-82273247D01*
X164236557Y-82266500D01*
X164233659Y-82266500D01*
X163979257Y-82266501D01*
X163723288Y-82266501D01*
X163720430Y-82266764D01*
X163720421Y-82266764D01*
X163684918Y-82270026D01*
X163649860Y-82273247D01*
X163643482Y-82275246D01*
X163643481Y-82275246D01*
X163561253Y-82301015D01*
X163486223Y-82324528D01*
X163485583Y-82322485D01*
X163425940Y-82330792D01*
X163361490Y-82301015D01*
X163323370Y-82241120D01*
X163318421Y-82206155D01*
X163318421Y-81998366D01*
X163318156Y-81995474D01*
X163313415Y-81943875D01*
X163311675Y-81924938D01*
X163298275Y-81882179D01*
X163296991Y-81811195D01*
X163334287Y-81750784D01*
X163398324Y-81720127D01*
X163418509Y-81718500D01*
X169460406Y-81718500D01*
X169528527Y-81738502D01*
G37*
%TD.AperFunction*%
%TD*%
M02*
