M48
; DRILL file {KiCad (5.1.10)-1} date 04/02/22 15:52:21
; FORMAT={-:-/ absolute / inch / decimal}
; #@! TF.CreationDate,2022-04-02T15:52:21-07:00
; #@! TF.GenerationSoftware,Kicad,Pcbnew,(5.1.10)-1
; #@! TF.FileFunction,Plated,1,2,PTH
FMAT,2
INCH
T1C0.0157
T2C0.0394
T3C0.0787
%
G90
G05
T1
X4.7047Y-4.7539
T2
X4.8622Y-4.2126
X4.8622Y-4.3126
X4.8622Y-4.4126
X4.8622Y-4.5126
T3
X3.8386Y-4.311
X4.1929Y-4.311
X4.7835Y-2.5984
X4.7835Y-2.9528
X4.7835Y-3.4941
X4.7835Y-3.8484
X5.2362Y-3.2579
X5.2362Y-4.6654
X5.5906Y-3.2579
X5.5906Y-4.6654
X5.6693Y-5.128
X5.6693Y-5.4823
X6.122Y-3.8878
X6.122Y-5.3051
X6.4764Y-3.8878
X6.4764Y-5.3051
T0
M30
