%TF.GenerationSoftware,KiCad,Pcbnew,(5.1.10)-1*%
%TF.CreationDate,2022-06-07T21:04:52-07:00*%
%TF.ProjectId,solar-panel-side-Z,736f6c61-722d-4706-916e-656c2d736964,1.1*%
%TF.SameCoordinates,Original*%
%TF.FileFunction,Soldermask,Top*%
%TF.FilePolarity,Negative*%
%FSLAX46Y46*%
G04 Gerber Fmt 4.6, Leading zero omitted, Abs format (unit mm)*
G04 Created by KiCad (PCBNEW (5.1.10)-1) date 2022-06-07 21:04:52*
%MOMM*%
%LPD*%
G01*
G04 APERTURE LIST*
%ADD10C,3.000000*%
%ADD11R,2.000000X2.000000*%
%ADD12C,4.000000*%
%ADD13C,2.000000*%
%ADD14C,5.250000*%
%ADD15R,2.500000X1.700000*%
%ADD16R,2.500000X2.500000*%
G04 APERTURE END LIST*
D10*
%TO.C,SC5*%
X160000000Y-119000000D03*
X169000000Y-119000000D03*
%TD*%
D11*
%TO.C,J7*%
X130750000Y-95000000D03*
%TD*%
%TO.C,J6*%
X130750000Y-91000000D03*
%TD*%
D12*
%TO.C,U1*%
X128340000Y-105150000D03*
D13*
X137230000Y-105150000D03*
X134690000Y-105150000D03*
X132150000Y-105150000D03*
X144850000Y-105150000D03*
X139770000Y-105150000D03*
X142310000Y-105150000D03*
D12*
X148660000Y-105150000D03*
X128340000Y-117850000D03*
X148660000Y-117850000D03*
%TD*%
D14*
%TO.C,J5*%
X188500000Y-85000000D03*
%TD*%
%TO.C,J4*%
X157250000Y-46000000D03*
%TD*%
%TO.C,J3*%
X141750000Y-124000000D03*
%TD*%
%TO.C,J2*%
X110500000Y-85000000D03*
%TD*%
D15*
%TO.C,D2*%
X179500000Y-84750000D03*
X175500000Y-84750000D03*
%TD*%
%TO.C,D1*%
X118000000Y-85500000D03*
X122000000Y-85500000D03*
%TD*%
D12*
%TO.C,U3*%
X153380000Y-70190000D03*
X168620000Y-70190000D03*
D13*
X157190000Y-78064000D03*
X159730000Y-78064000D03*
X152110000Y-78064000D03*
X154650000Y-78064000D03*
X169890000Y-78064000D03*
X167350000Y-78064000D03*
X164810000Y-78064000D03*
X162270000Y-78064000D03*
%TD*%
D16*
%TO.C,U2*%
X162190000Y-51800000D03*
X157110000Y-51800000D03*
D12*
X166000000Y-52435000D03*
X153300000Y-52435000D03*
D13*
X154570000Y-64500000D03*
X157110000Y-64500000D03*
X164730000Y-64500000D03*
X162190000Y-64500000D03*
X159650000Y-64500000D03*
%TD*%
D10*
%TO.C,SC4*%
X191750000Y-119000000D03*
X182750000Y-119000000D03*
%TD*%
%TO.C,SC6*%
X115750000Y-119000000D03*
X106750000Y-119000000D03*
%TD*%
%TO.C,SC3*%
X183000000Y-51000000D03*
X192000000Y-51000000D03*
%TD*%
%TO.C,SC2*%
X138750000Y-51000000D03*
X129750000Y-51000000D03*
%TD*%
%TO.C,SC1*%
X116006000Y-51008000D03*
X107006000Y-51008000D03*
%TD*%
M02*
