%TF.GenerationSoftware,KiCad,Pcbnew,(5.1.10)-1*%
%TF.CreationDate,2022-06-07T21:04:52-07:00*%
%TF.ProjectId,solar-panel-side-Z,736f6c61-722d-4706-916e-656c2d736964,1.1*%
%TF.SameCoordinates,Original*%
%TF.FileFunction,Soldermask,Bot*%
%TF.FilePolarity,Negative*%
%FSLAX46Y46*%
G04 Gerber Fmt 4.6, Leading zero omitted, Abs format (unit mm)*
G04 Created by KiCad (PCBNEW (5.1.10)-1) date 2022-06-07 21:04:52*
%MOMM*%
%LPD*%
G01*
G04 APERTURE LIST*
%ADD10C,3.000000*%
%ADD11C,5.250000*%
%ADD12C,2.000000*%
%ADD13C,4.000000*%
%ADD14R,1.800000X1.250000*%
%ADD15R,1.000000X0.600000*%
G04 APERTURE END LIST*
D10*
%TO.C,SC5*%
X160000000Y-119000000D03*
X169000000Y-119000000D03*
%TD*%
D11*
%TO.C,J5*%
X188500000Y-85000000D03*
%TD*%
%TO.C,J4*%
X157250000Y-46000000D03*
%TD*%
%TO.C,J3*%
X141750000Y-124000000D03*
%TD*%
%TO.C,J2*%
X110500000Y-85000000D03*
%TD*%
D12*
%TO.C,U4*%
X147190000Y-76610000D03*
X144650000Y-76610000D03*
D13*
X140840000Y-76610000D03*
D12*
X157350000Y-76610000D03*
D13*
X161160000Y-76610000D03*
D12*
X154810000Y-76610000D03*
X152270000Y-76610000D03*
X149730000Y-76610000D03*
D13*
X161160000Y-94390000D03*
D12*
X154810000Y-94390000D03*
X152270000Y-94390000D03*
X157350000Y-94390000D03*
X144650000Y-94390000D03*
X147190000Y-94390000D03*
X149730000Y-94390000D03*
D13*
X140840000Y-94390000D03*
%TD*%
D14*
%TO.C,J1*%
X128668000Y-92360001D03*
X128668000Y-103569999D03*
D15*
X133858000Y-94964999D03*
X133858000Y-96464999D03*
X133858000Y-97965001D03*
X133858000Y-99465000D03*
X133858000Y-100965000D03*
%TD*%
D12*
%TO.C,U5*%
X121650000Y-75790000D03*
X121650000Y-73250000D03*
X121650000Y-70710000D03*
X121650000Y-83410000D03*
X121650000Y-78330000D03*
X121650000Y-80870000D03*
D13*
X134350000Y-63090000D03*
X134350000Y-83410000D03*
D12*
X121650000Y-65630000D03*
X121650000Y-68170000D03*
X121650000Y-63090000D03*
%TD*%
D10*
%TO.C,SC4*%
X191750000Y-119000000D03*
X182750000Y-119000000D03*
%TD*%
%TO.C,SC6*%
X115750000Y-119000000D03*
X106750000Y-119000000D03*
%TD*%
%TO.C,SC3*%
X183000000Y-51000000D03*
X192000000Y-51000000D03*
%TD*%
%TO.C,SC2*%
X138750000Y-51000000D03*
X129750000Y-51000000D03*
%TD*%
%TO.C,SC1*%
X116006000Y-51008000D03*
X107006000Y-51008000D03*
%TD*%
M02*
