%FSLAX45Y45*%
G04 Gerber Fmt 4.5, Leading zero omitted, Abs format (unit mm)*
G04 Created by KiCad (PCBNEW (5.1.10)-1) date 2022-05-09 17:44:12*
%MOMM*%
%LPD*%
G01*
G04 APERTURE LIST*
%TA.AperFunction,Profile*%
%ADD10C,0.050000*%
%TD*%
%ADD11C,0.200000*%
%ADD12C,0.300000*%
G04 APERTURE END LIST*
D10*
X13535000Y-6925000D02*
X13535000Y-7725000D01*
X13035000Y-7725000D02*
X13035000Y-6925000D01*
X13035000Y-7725000D02*
X13535000Y-7725000D01*
X13035000Y-6925000D02*
X13535000Y-6925000D01*
X9950000Y-4550000D02*
X11000000Y-4550000D01*
X9950000Y-12450000D02*
X9950000Y-4550000D01*
X11000000Y-12450000D02*
X9950000Y-12450000D01*
X11000000Y-13500000D02*
X11000000Y-12450000D01*
X18900000Y-13500000D02*
X11000000Y-13500000D01*
X18900000Y-12450000D02*
X18900000Y-13500000D01*
X19950000Y-12450000D02*
X18900000Y-12450000D01*
X19950000Y-4550000D02*
X19950000Y-12450000D01*
X18900000Y-4550000D02*
X19950000Y-4550000D01*
X18900000Y-3500000D02*
X18900000Y-4550000D01*
X11000000Y-3500000D02*
X18900000Y-3500000D01*
X11000000Y-4550000D02*
X11000000Y-3500000D01*
D11*
X12772400Y-9358200D02*
X12812400Y-9398200D01*
X12812400Y-9358200D02*
X12772400Y-9398200D01*
X13555000Y-10080000D02*
X13595000Y-10120000D01*
X13595000Y-10080000D02*
X13555000Y-10120000D01*
X13705000Y-10080000D02*
X13745000Y-10120000D01*
X13745000Y-10080000D02*
X13705000Y-10120000D01*
X13780000Y-10155000D02*
X13820000Y-10195000D01*
X13820000Y-10155000D02*
X13780000Y-10195000D01*
X13855000Y-10080000D02*
X13895000Y-10120000D01*
X13895000Y-10080000D02*
X13855000Y-10120000D01*
X14380000Y-9955000D02*
X14420000Y-9995000D01*
X14420000Y-9955000D02*
X14380000Y-9995000D01*
X14530000Y-9580000D02*
X14570000Y-9620000D01*
X14570000Y-9580000D02*
X14530000Y-9620000D01*
X14655000Y-9705000D02*
X14695000Y-9745000D01*
X14695000Y-9705000D02*
X14655000Y-9745000D01*
X14680000Y-8580000D02*
X14720000Y-8620000D01*
X14720000Y-8580000D02*
X14680000Y-8620000D01*
X14780000Y-8705000D02*
X14820000Y-8745000D01*
X14820000Y-8705000D02*
X14780000Y-8745000D01*
X14880000Y-9155000D02*
X14920000Y-9195000D01*
X14920000Y-9155000D02*
X14880000Y-9195000D01*
X14880000Y-9775001D02*
X14920000Y-9815001D01*
X14920000Y-9775001D02*
X14880000Y-9815001D01*
X15355000Y-8030000D02*
X15395000Y-8070000D01*
X15395000Y-8030000D02*
X15355000Y-8070000D01*
X15683000Y-5415200D02*
X15723000Y-5455200D01*
X15723000Y-5415200D02*
X15683000Y-5455200D01*
X15691000Y-6919000D02*
X15731000Y-6959000D01*
X15731000Y-6919000D02*
X15691000Y-6959000D01*
X15755000Y-9955000D02*
X15795000Y-9995000D01*
X15795000Y-9955000D02*
X15755000Y-9995000D01*
X16191000Y-5415200D02*
X16231000Y-5455200D01*
X16231000Y-5415200D02*
X16191000Y-5455200D01*
X10800600Y-5100800D02*
G75*
G03*
X10800600Y-5100800I-100000J0D01*
G01*
X10800600Y-11925000D02*
G75*
G03*
X10800600Y-11925000I-100000J0D01*
G01*
X11700600Y-5100800D02*
G75*
G03*
X11700600Y-5100800I-100000J0D01*
G01*
X11700600Y-11925000D02*
G75*
G03*
X11700600Y-11925000I-100000J0D01*
G01*
X13100000Y-5100000D02*
G75*
G03*
X13100000Y-5100000I-100000J0D01*
G01*
X14000000Y-5100000D02*
G75*
G03*
X14000000Y-5100000I-100000J0D01*
G01*
X16100000Y-11925000D02*
G75*
G03*
X16100000Y-11925000I-100000J0D01*
G01*
X17000000Y-11925000D02*
G75*
G03*
X17000000Y-11925000I-100000J0D01*
G01*
X18395200Y-5100800D02*
G75*
G03*
X18395200Y-5100800I-100000J0D01*
G01*
X18395200Y-11917200D02*
G75*
G03*
X18395200Y-11917200I-100000J0D01*
G01*
X19295200Y-5100800D02*
G75*
G03*
X19295200Y-5100800I-100000J0D01*
G01*
X19295200Y-11917200D02*
G75*
G03*
X19295200Y-11917200I-100000J0D01*
G01*
X11050000Y-8352500D02*
X11050000Y-8647500D01*
X10902500Y-8500000D02*
X11197500Y-8500000D01*
X14175000Y-12252500D02*
X14175000Y-12547500D01*
X14027500Y-12400000D02*
X14322500Y-12400000D01*
X15725000Y-4452500D02*
X15725000Y-4747500D01*
X15577500Y-4600000D02*
X15872500Y-4600000D01*
X18850000Y-8352500D02*
X18850000Y-8647500D01*
X18702500Y-8500000D02*
X18997500Y-8500000D01*
D12*
X10233928Y-13968214D02*
X10233928Y-13668214D01*
X10305357Y-13668214D01*
X10348214Y-13682500D01*
X10376786Y-13711071D01*
X10391071Y-13739643D01*
X10405357Y-13796786D01*
X10405357Y-13839643D01*
X10391071Y-13896786D01*
X10376786Y-13925357D01*
X10348214Y-13953929D01*
X10305357Y-13968214D01*
X10233928Y-13968214D01*
X10533928Y-13968214D02*
X10533928Y-13768214D01*
X10533928Y-13825357D02*
X10548214Y-13796786D01*
X10562500Y-13782500D01*
X10591071Y-13768214D01*
X10619643Y-13768214D01*
X10719643Y-13968214D02*
X10719643Y-13768214D01*
X10719643Y-13668214D02*
X10705357Y-13682500D01*
X10719643Y-13696786D01*
X10733928Y-13682500D01*
X10719643Y-13668214D01*
X10719643Y-13696786D01*
X10905357Y-13968214D02*
X10876786Y-13953929D01*
X10862500Y-13925357D01*
X10862500Y-13668214D01*
X11062500Y-13968214D02*
X11033928Y-13953929D01*
X11019643Y-13925357D01*
X11019643Y-13668214D01*
X11405357Y-13968214D02*
X11405357Y-13668214D01*
X11505357Y-13882500D01*
X11605357Y-13668214D01*
X11605357Y-13968214D01*
X11876786Y-13968214D02*
X11876786Y-13811071D01*
X11862500Y-13782500D01*
X11833928Y-13768214D01*
X11776786Y-13768214D01*
X11748214Y-13782500D01*
X11876786Y-13953929D02*
X11848214Y-13968214D01*
X11776786Y-13968214D01*
X11748214Y-13953929D01*
X11733928Y-13925357D01*
X11733928Y-13896786D01*
X11748214Y-13868214D01*
X11776786Y-13853929D01*
X11848214Y-13853929D01*
X11876786Y-13839643D01*
X12019643Y-13768214D02*
X12019643Y-14068214D01*
X12019643Y-13782500D02*
X12048214Y-13768214D01*
X12105357Y-13768214D01*
X12133928Y-13782500D01*
X12148214Y-13796786D01*
X12162500Y-13825357D01*
X12162500Y-13911071D01*
X12148214Y-13939643D01*
X12133928Y-13953929D01*
X12105357Y-13968214D01*
X12048214Y-13968214D01*
X12019643Y-13953929D01*
X12291071Y-13939643D02*
X12305357Y-13953929D01*
X12291071Y-13968214D01*
X12276786Y-13953929D01*
X12291071Y-13939643D01*
X12291071Y-13968214D01*
X12291071Y-13782500D02*
X12305357Y-13796786D01*
X12291071Y-13811071D01*
X12276786Y-13796786D01*
X12291071Y-13782500D01*
X12291071Y-13811071D01*
X9907500Y-14442500D02*
X9947500Y-14482500D01*
X9947500Y-14442500D02*
X9907500Y-14482500D01*
X10291071Y-14298214D02*
X10319643Y-14298214D01*
X10348214Y-14312500D01*
X10362500Y-14326786D01*
X10376786Y-14355357D01*
X10391071Y-14412500D01*
X10391071Y-14483929D01*
X10376786Y-14541071D01*
X10362500Y-14569643D01*
X10348214Y-14583929D01*
X10319643Y-14598214D01*
X10291071Y-14598214D01*
X10262500Y-14583929D01*
X10248214Y-14569643D01*
X10233928Y-14541071D01*
X10219643Y-14483929D01*
X10219643Y-14412500D01*
X10233928Y-14355357D01*
X10248214Y-14326786D01*
X10262500Y-14312500D01*
X10291071Y-14298214D01*
X10519643Y-14569643D02*
X10533928Y-14583929D01*
X10519643Y-14598214D01*
X10505357Y-14583929D01*
X10519643Y-14569643D01*
X10519643Y-14598214D01*
X10791071Y-14398214D02*
X10791071Y-14598214D01*
X10719643Y-14283929D02*
X10648214Y-14498214D01*
X10833928Y-14498214D01*
X11005357Y-14298214D02*
X11033928Y-14298214D01*
X11062500Y-14312500D01*
X11076786Y-14326786D01*
X11091071Y-14355357D01*
X11105357Y-14412500D01*
X11105357Y-14483929D01*
X11091071Y-14541071D01*
X11076786Y-14569643D01*
X11062500Y-14583929D01*
X11033928Y-14598214D01*
X11005357Y-14598214D01*
X10976786Y-14583929D01*
X10962500Y-14569643D01*
X10948214Y-14541071D01*
X10933928Y-14483929D01*
X10933928Y-14412500D01*
X10948214Y-14355357D01*
X10962500Y-14326786D01*
X10976786Y-14312500D01*
X11005357Y-14298214D01*
X11291071Y-14298214D02*
X11319643Y-14298214D01*
X11348214Y-14312500D01*
X11362500Y-14326786D01*
X11376786Y-14355357D01*
X11391071Y-14412500D01*
X11391071Y-14483929D01*
X11376786Y-14541071D01*
X11362500Y-14569643D01*
X11348214Y-14583929D01*
X11319643Y-14598214D01*
X11291071Y-14598214D01*
X11262500Y-14583929D01*
X11248214Y-14569643D01*
X11233928Y-14541071D01*
X11219643Y-14483929D01*
X11219643Y-14412500D01*
X11233928Y-14355357D01*
X11248214Y-14326786D01*
X11262500Y-14312500D01*
X11291071Y-14298214D01*
X11519643Y-14598214D02*
X11519643Y-14398214D01*
X11519643Y-14426786D02*
X11533928Y-14412500D01*
X11562500Y-14398214D01*
X11605357Y-14398214D01*
X11633928Y-14412500D01*
X11648214Y-14441071D01*
X11648214Y-14598214D01*
X11648214Y-14441071D02*
X11662500Y-14412500D01*
X11691071Y-14398214D01*
X11733928Y-14398214D01*
X11762500Y-14412500D01*
X11776786Y-14441071D01*
X11776786Y-14598214D01*
X11919643Y-14598214D02*
X11919643Y-14398214D01*
X11919643Y-14426786D02*
X11933928Y-14412500D01*
X11962500Y-14398214D01*
X12005357Y-14398214D01*
X12033928Y-14412500D01*
X12048214Y-14441071D01*
X12048214Y-14598214D01*
X12048214Y-14441071D02*
X12062500Y-14412500D01*
X12091071Y-14398214D01*
X12133928Y-14398214D01*
X12162500Y-14412500D01*
X12176786Y-14441071D01*
X12176786Y-14598214D01*
X12762500Y-14283929D02*
X12505357Y-14669643D01*
X13148214Y-14298214D02*
X13176786Y-14298214D01*
X13205357Y-14312500D01*
X13219643Y-14326786D01*
X13233928Y-14355357D01*
X13248214Y-14412500D01*
X13248214Y-14483929D01*
X13233928Y-14541071D01*
X13219643Y-14569643D01*
X13205357Y-14583929D01*
X13176786Y-14598214D01*
X13148214Y-14598214D01*
X13119643Y-14583929D01*
X13105357Y-14569643D01*
X13091071Y-14541071D01*
X13076786Y-14483929D01*
X13076786Y-14412500D01*
X13091071Y-14355357D01*
X13105357Y-14326786D01*
X13119643Y-14312500D01*
X13148214Y-14298214D01*
X13376786Y-14569643D02*
X13391071Y-14583929D01*
X13376786Y-14598214D01*
X13362500Y-14583929D01*
X13376786Y-14569643D01*
X13376786Y-14598214D01*
X13576786Y-14298214D02*
X13605357Y-14298214D01*
X13633928Y-14312500D01*
X13648214Y-14326786D01*
X13662500Y-14355357D01*
X13676786Y-14412500D01*
X13676786Y-14483929D01*
X13662500Y-14541071D01*
X13648214Y-14569643D01*
X13633928Y-14583929D01*
X13605357Y-14598214D01*
X13576786Y-14598214D01*
X13548214Y-14583929D01*
X13533928Y-14569643D01*
X13519643Y-14541071D01*
X13505357Y-14483929D01*
X13505357Y-14412500D01*
X13519643Y-14355357D01*
X13533928Y-14326786D01*
X13548214Y-14312500D01*
X13576786Y-14298214D01*
X13962500Y-14598214D02*
X13791071Y-14598214D01*
X13876786Y-14598214D02*
X13876786Y-14298214D01*
X13848214Y-14341071D01*
X13819643Y-14369643D01*
X13791071Y-14383929D01*
X14233928Y-14298214D02*
X14091071Y-14298214D01*
X14076786Y-14441071D01*
X14091071Y-14426786D01*
X14119643Y-14412500D01*
X14191071Y-14412500D01*
X14219643Y-14426786D01*
X14233928Y-14441071D01*
X14248214Y-14469643D01*
X14248214Y-14541071D01*
X14233928Y-14569643D01*
X14219643Y-14583929D01*
X14191071Y-14598214D01*
X14119643Y-14598214D01*
X14091071Y-14583929D01*
X14076786Y-14569643D01*
X14348214Y-14298214D02*
X14548214Y-14298214D01*
X14419643Y-14598214D01*
X14648214Y-14298214D02*
X14648214Y-14355357D01*
X14762500Y-14298214D02*
X14762500Y-14355357D01*
X15205357Y-14712500D02*
X15191071Y-14698214D01*
X15162500Y-14655357D01*
X15148214Y-14626786D01*
X15133928Y-14583929D01*
X15119643Y-14512500D01*
X15119643Y-14455357D01*
X15133928Y-14383929D01*
X15148214Y-14341071D01*
X15162500Y-14312500D01*
X15191071Y-14269643D01*
X15205357Y-14255357D01*
X15476786Y-14598214D02*
X15305357Y-14598214D01*
X15391071Y-14598214D02*
X15391071Y-14298214D01*
X15362500Y-14341071D01*
X15333928Y-14369643D01*
X15305357Y-14383929D01*
X15576786Y-14298214D02*
X15776786Y-14298214D01*
X15648214Y-14598214D01*
X16119643Y-14598214D02*
X16119643Y-14298214D01*
X16248214Y-14598214D02*
X16248214Y-14441071D01*
X16233928Y-14412500D01*
X16205357Y-14398214D01*
X16162500Y-14398214D01*
X16133928Y-14412500D01*
X16119643Y-14426786D01*
X16433928Y-14598214D02*
X16405357Y-14583929D01*
X16391071Y-14569643D01*
X16376786Y-14541071D01*
X16376786Y-14455357D01*
X16391071Y-14426786D01*
X16405357Y-14412500D01*
X16433928Y-14398214D01*
X16476786Y-14398214D01*
X16505357Y-14412500D01*
X16519643Y-14426786D01*
X16533928Y-14455357D01*
X16533928Y-14541071D01*
X16519643Y-14569643D01*
X16505357Y-14583929D01*
X16476786Y-14598214D01*
X16433928Y-14598214D01*
X16705357Y-14598214D02*
X16676786Y-14583929D01*
X16662500Y-14555357D01*
X16662500Y-14298214D01*
X16933928Y-14583929D02*
X16905357Y-14598214D01*
X16848214Y-14598214D01*
X16819643Y-14583929D01*
X16805357Y-14555357D01*
X16805357Y-14441071D01*
X16819643Y-14412500D01*
X16848214Y-14398214D01*
X16905357Y-14398214D01*
X16933928Y-14412500D01*
X16948214Y-14441071D01*
X16948214Y-14469643D01*
X16805357Y-14498214D01*
X17062500Y-14583929D02*
X17091071Y-14598214D01*
X17148214Y-14598214D01*
X17176786Y-14583929D01*
X17191071Y-14555357D01*
X17191071Y-14541071D01*
X17176786Y-14512500D01*
X17148214Y-14498214D01*
X17105357Y-14498214D01*
X17076786Y-14483929D01*
X17062500Y-14455357D01*
X17062500Y-14441071D01*
X17076786Y-14412500D01*
X17105357Y-14398214D01*
X17148214Y-14398214D01*
X17176786Y-14412500D01*
X17291071Y-14712500D02*
X17305357Y-14698214D01*
X17333928Y-14655357D01*
X17348214Y-14626786D01*
X17362500Y-14583929D01*
X17376786Y-14512500D01*
X17376786Y-14455357D01*
X17362500Y-14383929D01*
X17348214Y-14341071D01*
X17333928Y-14312500D01*
X17305357Y-14269643D01*
X17291071Y-14255357D01*
X9947500Y-14858500D02*
G75*
G03*
X9947500Y-14858500I-100000J0D01*
G01*
X10219643Y-14722786D02*
X10233928Y-14708500D01*
X10262500Y-14694214D01*
X10333928Y-14694214D01*
X10362500Y-14708500D01*
X10376786Y-14722786D01*
X10391071Y-14751357D01*
X10391071Y-14779929D01*
X10376786Y-14822786D01*
X10205357Y-14994214D01*
X10391071Y-14994214D01*
X10519643Y-14965643D02*
X10533928Y-14979929D01*
X10519643Y-14994214D01*
X10505357Y-14979929D01*
X10519643Y-14965643D01*
X10519643Y-14994214D01*
X10719643Y-14694214D02*
X10748214Y-14694214D01*
X10776786Y-14708500D01*
X10791071Y-14722786D01*
X10805357Y-14751357D01*
X10819643Y-14808500D01*
X10819643Y-14879929D01*
X10805357Y-14937071D01*
X10791071Y-14965643D01*
X10776786Y-14979929D01*
X10748214Y-14994214D01*
X10719643Y-14994214D01*
X10691071Y-14979929D01*
X10676786Y-14965643D01*
X10662500Y-14937071D01*
X10648214Y-14879929D01*
X10648214Y-14808500D01*
X10662500Y-14751357D01*
X10676786Y-14722786D01*
X10691071Y-14708500D01*
X10719643Y-14694214D01*
X11005357Y-14694214D02*
X11033928Y-14694214D01*
X11062500Y-14708500D01*
X11076786Y-14722786D01*
X11091071Y-14751357D01*
X11105357Y-14808500D01*
X11105357Y-14879929D01*
X11091071Y-14937071D01*
X11076786Y-14965643D01*
X11062500Y-14979929D01*
X11033928Y-14994214D01*
X11005357Y-14994214D01*
X10976786Y-14979929D01*
X10962500Y-14965643D01*
X10948214Y-14937071D01*
X10933928Y-14879929D01*
X10933928Y-14808500D01*
X10948214Y-14751357D01*
X10962500Y-14722786D01*
X10976786Y-14708500D01*
X11005357Y-14694214D01*
X11291071Y-14694214D02*
X11319643Y-14694214D01*
X11348214Y-14708500D01*
X11362500Y-14722786D01*
X11376786Y-14751357D01*
X11391071Y-14808500D01*
X11391071Y-14879929D01*
X11376786Y-14937071D01*
X11362500Y-14965643D01*
X11348214Y-14979929D01*
X11319643Y-14994214D01*
X11291071Y-14994214D01*
X11262500Y-14979929D01*
X11248214Y-14965643D01*
X11233928Y-14937071D01*
X11219643Y-14879929D01*
X11219643Y-14808500D01*
X11233928Y-14751357D01*
X11248214Y-14722786D01*
X11262500Y-14708500D01*
X11291071Y-14694214D01*
X11519643Y-14994214D02*
X11519643Y-14794214D01*
X11519643Y-14822786D02*
X11533928Y-14808500D01*
X11562500Y-14794214D01*
X11605357Y-14794214D01*
X11633928Y-14808500D01*
X11648214Y-14837071D01*
X11648214Y-14994214D01*
X11648214Y-14837071D02*
X11662500Y-14808500D01*
X11691071Y-14794214D01*
X11733928Y-14794214D01*
X11762500Y-14808500D01*
X11776786Y-14837071D01*
X11776786Y-14994214D01*
X11919643Y-14994214D02*
X11919643Y-14794214D01*
X11919643Y-14822786D02*
X11933928Y-14808500D01*
X11962500Y-14794214D01*
X12005357Y-14794214D01*
X12033928Y-14808500D01*
X12048214Y-14837071D01*
X12048214Y-14994214D01*
X12048214Y-14837071D02*
X12062500Y-14808500D01*
X12091071Y-14794214D01*
X12133928Y-14794214D01*
X12162500Y-14808500D01*
X12176786Y-14837071D01*
X12176786Y-14994214D01*
X12762500Y-14679929D02*
X12505357Y-15065643D01*
X13148214Y-14694214D02*
X13176786Y-14694214D01*
X13205357Y-14708500D01*
X13219643Y-14722786D01*
X13233928Y-14751357D01*
X13248214Y-14808500D01*
X13248214Y-14879929D01*
X13233928Y-14937071D01*
X13219643Y-14965643D01*
X13205357Y-14979929D01*
X13176786Y-14994214D01*
X13148214Y-14994214D01*
X13119643Y-14979929D01*
X13105357Y-14965643D01*
X13091071Y-14937071D01*
X13076786Y-14879929D01*
X13076786Y-14808500D01*
X13091071Y-14751357D01*
X13105357Y-14722786D01*
X13119643Y-14708500D01*
X13148214Y-14694214D01*
X13376786Y-14965643D02*
X13391071Y-14979929D01*
X13376786Y-14994214D01*
X13362500Y-14979929D01*
X13376786Y-14965643D01*
X13376786Y-14994214D01*
X13576786Y-14694214D02*
X13605357Y-14694214D01*
X13633928Y-14708500D01*
X13648214Y-14722786D01*
X13662500Y-14751357D01*
X13676786Y-14808500D01*
X13676786Y-14879929D01*
X13662500Y-14937071D01*
X13648214Y-14965643D01*
X13633928Y-14979929D01*
X13605357Y-14994214D01*
X13576786Y-14994214D01*
X13548214Y-14979929D01*
X13533928Y-14965643D01*
X13519643Y-14937071D01*
X13505357Y-14879929D01*
X13505357Y-14808500D01*
X13519643Y-14751357D01*
X13533928Y-14722786D01*
X13548214Y-14708500D01*
X13576786Y-14694214D01*
X13776786Y-14694214D02*
X13976786Y-14694214D01*
X13848214Y-14994214D01*
X14133928Y-14822786D02*
X14105357Y-14808500D01*
X14091071Y-14794214D01*
X14076786Y-14765643D01*
X14076786Y-14751357D01*
X14091071Y-14722786D01*
X14105357Y-14708500D01*
X14133928Y-14694214D01*
X14191071Y-14694214D01*
X14219643Y-14708500D01*
X14233928Y-14722786D01*
X14248214Y-14751357D01*
X14248214Y-14765643D01*
X14233928Y-14794214D01*
X14219643Y-14808500D01*
X14191071Y-14822786D01*
X14133928Y-14822786D01*
X14105357Y-14837071D01*
X14091071Y-14851357D01*
X14076786Y-14879929D01*
X14076786Y-14937071D01*
X14091071Y-14965643D01*
X14105357Y-14979929D01*
X14133928Y-14994214D01*
X14191071Y-14994214D01*
X14219643Y-14979929D01*
X14233928Y-14965643D01*
X14248214Y-14937071D01*
X14248214Y-14879929D01*
X14233928Y-14851357D01*
X14219643Y-14837071D01*
X14191071Y-14822786D01*
X14348214Y-14694214D02*
X14548214Y-14694214D01*
X14419643Y-14994214D01*
X14648214Y-14694214D02*
X14648214Y-14751357D01*
X14762500Y-14694214D02*
X14762500Y-14751357D01*
X15205357Y-15108500D02*
X15191071Y-15094214D01*
X15162500Y-15051357D01*
X15148214Y-15022786D01*
X15133928Y-14979929D01*
X15119643Y-14908500D01*
X15119643Y-14851357D01*
X15133928Y-14779929D01*
X15148214Y-14737071D01*
X15162500Y-14708500D01*
X15191071Y-14665643D01*
X15205357Y-14651357D01*
X15476786Y-14994214D02*
X15305357Y-14994214D01*
X15391071Y-14994214D02*
X15391071Y-14694214D01*
X15362500Y-14737071D01*
X15333928Y-14765643D01*
X15305357Y-14779929D01*
X15591071Y-14722786D02*
X15605357Y-14708500D01*
X15633928Y-14694214D01*
X15705357Y-14694214D01*
X15733928Y-14708500D01*
X15748214Y-14722786D01*
X15762500Y-14751357D01*
X15762500Y-14779929D01*
X15748214Y-14822786D01*
X15576786Y-14994214D01*
X15762500Y-14994214D01*
X16119643Y-14994214D02*
X16119643Y-14694214D01*
X16248214Y-14994214D02*
X16248214Y-14837071D01*
X16233928Y-14808500D01*
X16205357Y-14794214D01*
X16162500Y-14794214D01*
X16133928Y-14808500D01*
X16119643Y-14822786D01*
X16433928Y-14994214D02*
X16405357Y-14979929D01*
X16391071Y-14965643D01*
X16376786Y-14937071D01*
X16376786Y-14851357D01*
X16391071Y-14822786D01*
X16405357Y-14808500D01*
X16433928Y-14794214D01*
X16476786Y-14794214D01*
X16505357Y-14808500D01*
X16519643Y-14822786D01*
X16533928Y-14851357D01*
X16533928Y-14937071D01*
X16519643Y-14965643D01*
X16505357Y-14979929D01*
X16476786Y-14994214D01*
X16433928Y-14994214D01*
X16705357Y-14994214D02*
X16676786Y-14979929D01*
X16662500Y-14951357D01*
X16662500Y-14694214D01*
X16933928Y-14979929D02*
X16905357Y-14994214D01*
X16848214Y-14994214D01*
X16819643Y-14979929D01*
X16805357Y-14951357D01*
X16805357Y-14837071D01*
X16819643Y-14808500D01*
X16848214Y-14794214D01*
X16905357Y-14794214D01*
X16933928Y-14808500D01*
X16948214Y-14837071D01*
X16948214Y-14865643D01*
X16805357Y-14894214D01*
X17062500Y-14979929D02*
X17091071Y-14994214D01*
X17148214Y-14994214D01*
X17176786Y-14979929D01*
X17191071Y-14951357D01*
X17191071Y-14937071D01*
X17176786Y-14908500D01*
X17148214Y-14894214D01*
X17105357Y-14894214D01*
X17076786Y-14879929D01*
X17062500Y-14851357D01*
X17062500Y-14837071D01*
X17076786Y-14808500D01*
X17105357Y-14794214D01*
X17148214Y-14794214D01*
X17176786Y-14808500D01*
X17291071Y-15108500D02*
X17305357Y-15094214D01*
X17333928Y-15051357D01*
X17348214Y-15022786D01*
X17362500Y-14979929D01*
X17376786Y-14908500D01*
X17376786Y-14851357D01*
X17362500Y-14779929D01*
X17348214Y-14737071D01*
X17333928Y-14708500D01*
X17305357Y-14665643D01*
X17291071Y-14651357D01*
X9800000Y-15107000D02*
X9800000Y-15402000D01*
X9652500Y-15254500D02*
X9947500Y-15254500D01*
X10219643Y-15118786D02*
X10233928Y-15104500D01*
X10262500Y-15090214D01*
X10333928Y-15090214D01*
X10362500Y-15104500D01*
X10376786Y-15118786D01*
X10391071Y-15147357D01*
X10391071Y-15175929D01*
X10376786Y-15218786D01*
X10205357Y-15390214D01*
X10391071Y-15390214D01*
X10519643Y-15361643D02*
X10533928Y-15375929D01*
X10519643Y-15390214D01*
X10505357Y-15375929D01*
X10519643Y-15361643D01*
X10519643Y-15390214D01*
X10676786Y-15390214D02*
X10733928Y-15390214D01*
X10762500Y-15375929D01*
X10776786Y-15361643D01*
X10805357Y-15318786D01*
X10819643Y-15261643D01*
X10819643Y-15147357D01*
X10805357Y-15118786D01*
X10791071Y-15104500D01*
X10762500Y-15090214D01*
X10705357Y-15090214D01*
X10676786Y-15104500D01*
X10662500Y-15118786D01*
X10648214Y-15147357D01*
X10648214Y-15218786D01*
X10662500Y-15247357D01*
X10676786Y-15261643D01*
X10705357Y-15275929D01*
X10762500Y-15275929D01*
X10791071Y-15261643D01*
X10805357Y-15247357D01*
X10819643Y-15218786D01*
X11091071Y-15090214D02*
X10948214Y-15090214D01*
X10933928Y-15233071D01*
X10948214Y-15218786D01*
X10976786Y-15204500D01*
X11048214Y-15204500D01*
X11076786Y-15218786D01*
X11091071Y-15233071D01*
X11105357Y-15261643D01*
X11105357Y-15333071D01*
X11091071Y-15361643D01*
X11076786Y-15375929D01*
X11048214Y-15390214D01*
X10976786Y-15390214D01*
X10948214Y-15375929D01*
X10933928Y-15361643D01*
X11291071Y-15090214D02*
X11319643Y-15090214D01*
X11348214Y-15104500D01*
X11362500Y-15118786D01*
X11376786Y-15147357D01*
X11391071Y-15204500D01*
X11391071Y-15275929D01*
X11376786Y-15333071D01*
X11362500Y-15361643D01*
X11348214Y-15375929D01*
X11319643Y-15390214D01*
X11291071Y-15390214D01*
X11262500Y-15375929D01*
X11248214Y-15361643D01*
X11233928Y-15333071D01*
X11219643Y-15275929D01*
X11219643Y-15204500D01*
X11233928Y-15147357D01*
X11248214Y-15118786D01*
X11262500Y-15104500D01*
X11291071Y-15090214D01*
X11519643Y-15390214D02*
X11519643Y-15190214D01*
X11519643Y-15218786D02*
X11533928Y-15204500D01*
X11562500Y-15190214D01*
X11605357Y-15190214D01*
X11633928Y-15204500D01*
X11648214Y-15233071D01*
X11648214Y-15390214D01*
X11648214Y-15233071D02*
X11662500Y-15204500D01*
X11691071Y-15190214D01*
X11733928Y-15190214D01*
X11762500Y-15204500D01*
X11776786Y-15233071D01*
X11776786Y-15390214D01*
X11919643Y-15390214D02*
X11919643Y-15190214D01*
X11919643Y-15218786D02*
X11933928Y-15204500D01*
X11962500Y-15190214D01*
X12005357Y-15190214D01*
X12033928Y-15204500D01*
X12048214Y-15233071D01*
X12048214Y-15390214D01*
X12048214Y-15233071D02*
X12062500Y-15204500D01*
X12091071Y-15190214D01*
X12133928Y-15190214D01*
X12162500Y-15204500D01*
X12176786Y-15233071D01*
X12176786Y-15390214D01*
X12762500Y-15075929D02*
X12505357Y-15461643D01*
X13148214Y-15090214D02*
X13176786Y-15090214D01*
X13205357Y-15104500D01*
X13219643Y-15118786D01*
X13233928Y-15147357D01*
X13248214Y-15204500D01*
X13248214Y-15275929D01*
X13233928Y-15333071D01*
X13219643Y-15361643D01*
X13205357Y-15375929D01*
X13176786Y-15390214D01*
X13148214Y-15390214D01*
X13119643Y-15375929D01*
X13105357Y-15361643D01*
X13091071Y-15333071D01*
X13076786Y-15275929D01*
X13076786Y-15204500D01*
X13091071Y-15147357D01*
X13105357Y-15118786D01*
X13119643Y-15104500D01*
X13148214Y-15090214D01*
X13376786Y-15361643D02*
X13391071Y-15375929D01*
X13376786Y-15390214D01*
X13362500Y-15375929D01*
X13376786Y-15361643D01*
X13376786Y-15390214D01*
X13676786Y-15390214D02*
X13505357Y-15390214D01*
X13591071Y-15390214D02*
X13591071Y-15090214D01*
X13562500Y-15133071D01*
X13533928Y-15161643D01*
X13505357Y-15175929D01*
X13962500Y-15390214D02*
X13791071Y-15390214D01*
X13876786Y-15390214D02*
X13876786Y-15090214D01*
X13848214Y-15133071D01*
X13819643Y-15161643D01*
X13791071Y-15175929D01*
X14219643Y-15090214D02*
X14162500Y-15090214D01*
X14133928Y-15104500D01*
X14119643Y-15118786D01*
X14091071Y-15161643D01*
X14076786Y-15218786D01*
X14076786Y-15333071D01*
X14091071Y-15361643D01*
X14105357Y-15375929D01*
X14133928Y-15390214D01*
X14191071Y-15390214D01*
X14219643Y-15375929D01*
X14233928Y-15361643D01*
X14248214Y-15333071D01*
X14248214Y-15261643D01*
X14233928Y-15233071D01*
X14219643Y-15218786D01*
X14191071Y-15204500D01*
X14133928Y-15204500D01*
X14105357Y-15218786D01*
X14091071Y-15233071D01*
X14076786Y-15261643D01*
X14533928Y-15390214D02*
X14362500Y-15390214D01*
X14448214Y-15390214D02*
X14448214Y-15090214D01*
X14419643Y-15133071D01*
X14391071Y-15161643D01*
X14362500Y-15175929D01*
X14648214Y-15090214D02*
X14648214Y-15147357D01*
X14762500Y-15090214D02*
X14762500Y-15147357D01*
X15205357Y-15504500D02*
X15191071Y-15490214D01*
X15162500Y-15447357D01*
X15148214Y-15418786D01*
X15133928Y-15375929D01*
X15119643Y-15304500D01*
X15119643Y-15247357D01*
X15133928Y-15175929D01*
X15148214Y-15133071D01*
X15162500Y-15104500D01*
X15191071Y-15061643D01*
X15205357Y-15047357D01*
X15448214Y-15190214D02*
X15448214Y-15390214D01*
X15376786Y-15075929D02*
X15305357Y-15290214D01*
X15491071Y-15290214D01*
X15833928Y-15390214D02*
X15833928Y-15090214D01*
X15962500Y-15390214D02*
X15962500Y-15233071D01*
X15948214Y-15204500D01*
X15919643Y-15190214D01*
X15876786Y-15190214D01*
X15848214Y-15204500D01*
X15833928Y-15218786D01*
X16148214Y-15390214D02*
X16119643Y-15375929D01*
X16105357Y-15361643D01*
X16091071Y-15333071D01*
X16091071Y-15247357D01*
X16105357Y-15218786D01*
X16119643Y-15204500D01*
X16148214Y-15190214D01*
X16191071Y-15190214D01*
X16219643Y-15204500D01*
X16233928Y-15218786D01*
X16248214Y-15247357D01*
X16248214Y-15333071D01*
X16233928Y-15361643D01*
X16219643Y-15375929D01*
X16191071Y-15390214D01*
X16148214Y-15390214D01*
X16419643Y-15390214D02*
X16391071Y-15375929D01*
X16376786Y-15347357D01*
X16376786Y-15090214D01*
X16648214Y-15375929D02*
X16619643Y-15390214D01*
X16562500Y-15390214D01*
X16533928Y-15375929D01*
X16519643Y-15347357D01*
X16519643Y-15233071D01*
X16533928Y-15204500D01*
X16562500Y-15190214D01*
X16619643Y-15190214D01*
X16648214Y-15204500D01*
X16662500Y-15233071D01*
X16662500Y-15261643D01*
X16519643Y-15290214D01*
X16776786Y-15375929D02*
X16805357Y-15390214D01*
X16862500Y-15390214D01*
X16891071Y-15375929D01*
X16905357Y-15347357D01*
X16905357Y-15333071D01*
X16891071Y-15304500D01*
X16862500Y-15290214D01*
X16819643Y-15290214D01*
X16791071Y-15275929D01*
X16776786Y-15247357D01*
X16776786Y-15233071D01*
X16791071Y-15204500D01*
X16819643Y-15190214D01*
X16862500Y-15190214D01*
X16891071Y-15204500D01*
X17005357Y-15504500D02*
X17019643Y-15490214D01*
X17048214Y-15447357D01*
X17062500Y-15418786D01*
X17076786Y-15375929D01*
X17091071Y-15304500D01*
X17091071Y-15247357D01*
X17076786Y-15175929D01*
X17062500Y-15133071D01*
X17048214Y-15104500D01*
X17019643Y-15061643D01*
X17005357Y-15047357D01*
M02*
