%TF.GenerationSoftware,KiCad,Pcbnew,(5.1.10)-1*%
%TF.CreationDate,2022-05-09T17:44:24-07:00*%
%TF.ProjectId,solar-panel-side-Z,736f6c61-722d-4706-916e-656c2d736964,1.0*%
%TF.SameCoordinates,Original*%
%TF.FileFunction,Legend,Bot*%
%TF.FilePolarity,Positive*%
%FSLAX46Y46*%
G04 Gerber Fmt 4.6, Leading zero omitted, Abs format (unit mm)*
G04 Created by KiCad (PCBNEW (5.1.10)-1) date 2022-05-09 17:44:24*
%MOMM*%
%LPD*%
G01*
G04 APERTURE LIST*
%ADD10C,0.250000*%
%ADD11C,0.120000*%
%ADD12C,0.150000*%
G04 APERTURE END LIST*
D10*
X122951413Y-114416666D02*
X122909747Y-114464285D01*
X122832366Y-114607142D01*
X122796651Y-114702380D01*
X122766889Y-114845238D01*
X122749032Y-115083333D01*
X122772842Y-115273809D01*
X122850223Y-115511904D01*
X122915699Y-115654761D01*
X122975223Y-115750000D01*
X123088318Y-115892857D01*
X123141889Y-115940476D01*
X123379985Y-114797619D02*
X123504985Y-115797619D01*
X123951413Y-114797619D01*
X124076413Y-115797619D01*
X124570461Y-114797619D02*
X124481175Y-114845238D01*
X124439508Y-114892857D01*
X124403794Y-114988095D01*
X124439508Y-115273809D01*
X124499032Y-115369047D01*
X124552604Y-115416666D01*
X124653794Y-115464285D01*
X124796651Y-115464285D01*
X124885937Y-115416666D01*
X124927604Y-115369047D01*
X124963318Y-115273809D01*
X124927604Y-114988095D01*
X124868080Y-114892857D01*
X124814508Y-114845238D01*
X124713318Y-114797619D01*
X124570461Y-114797619D01*
X125272842Y-115464285D02*
X125653794Y-115464285D01*
X125457366Y-115797619D02*
X125350223Y-114940476D01*
X125385937Y-114845238D01*
X125475223Y-114797619D01*
X125570461Y-114797619D01*
X127237127Y-114797619D02*
X126963318Y-115273809D01*
X126665699Y-114797619D02*
X126790699Y-115797619D01*
X127171651Y-115797619D01*
X127260937Y-115750000D01*
X127302604Y-115702380D01*
X127338318Y-115607142D01*
X127320461Y-115464285D01*
X127260937Y-115369047D01*
X127207366Y-115321428D01*
X127106175Y-115273809D01*
X126725223Y-115273809D01*
X128052604Y-114845238D02*
X127951413Y-114797619D01*
X127760937Y-114797619D01*
X127671651Y-114845238D01*
X127635937Y-114940476D01*
X127683556Y-115321428D01*
X127743080Y-115416666D01*
X127844270Y-115464285D01*
X128034747Y-115464285D01*
X128124032Y-115416666D01*
X128159747Y-115321428D01*
X128147842Y-115226190D01*
X127659747Y-115130952D01*
X128957366Y-114845238D02*
X128856175Y-114797619D01*
X128665699Y-114797619D01*
X128576413Y-114845238D01*
X128534747Y-114892857D01*
X128499032Y-114988095D01*
X128534747Y-115273809D01*
X128594270Y-115369047D01*
X128647842Y-115416666D01*
X128749032Y-115464285D01*
X128939508Y-115464285D01*
X129028794Y-115416666D01*
X129522842Y-114797619D02*
X129433556Y-114845238D01*
X129391889Y-114892857D01*
X129356175Y-114988095D01*
X129391889Y-115273809D01*
X129451413Y-115369047D01*
X129504985Y-115416666D01*
X129606175Y-115464285D01*
X129749032Y-115464285D01*
X129838318Y-115416666D01*
X129879985Y-115369047D01*
X129915699Y-115273809D01*
X129879985Y-114988095D01*
X129820461Y-114892857D01*
X129766889Y-114845238D01*
X129665699Y-114797619D01*
X129522842Y-114797619D01*
X130284747Y-114797619D02*
X130368080Y-115464285D01*
X130356175Y-115369047D02*
X130409747Y-115416666D01*
X130510937Y-115464285D01*
X130653794Y-115464285D01*
X130743080Y-115416666D01*
X130778794Y-115321428D01*
X130713318Y-114797619D01*
X130778794Y-115321428D02*
X130838318Y-115416666D01*
X130939508Y-115464285D01*
X131082366Y-115464285D01*
X131171651Y-115416666D01*
X131207366Y-115321428D01*
X131141889Y-114797619D01*
X131618080Y-114797619D02*
X131701413Y-115464285D01*
X131689508Y-115369047D02*
X131743080Y-115416666D01*
X131844270Y-115464285D01*
X131987127Y-115464285D01*
X132076413Y-115416666D01*
X132112127Y-115321428D01*
X132046651Y-114797619D01*
X132112127Y-115321428D02*
X132171651Y-115416666D01*
X132272842Y-115464285D01*
X132415699Y-115464285D01*
X132504985Y-115416666D01*
X132540699Y-115321428D01*
X132475223Y-114797619D01*
X133338318Y-114845238D02*
X133237127Y-114797619D01*
X133046651Y-114797619D01*
X132957366Y-114845238D01*
X132921651Y-114940476D01*
X132969270Y-115321428D01*
X133028794Y-115416666D01*
X133129985Y-115464285D01*
X133320461Y-115464285D01*
X133409747Y-115416666D01*
X133445461Y-115321428D01*
X133433556Y-115226190D01*
X132945461Y-115130952D01*
X133891889Y-115464285D02*
X133808556Y-114797619D01*
X133879985Y-115369047D02*
X133933556Y-115416666D01*
X134034747Y-115464285D01*
X134177604Y-115464285D01*
X134266889Y-115416666D01*
X134302604Y-115321428D01*
X134237127Y-114797619D01*
X135141889Y-114797619D02*
X135266889Y-115797619D01*
X135147842Y-114845238D02*
X135046651Y-114797619D01*
X134856175Y-114797619D01*
X134766889Y-114845238D01*
X134725223Y-114892857D01*
X134689508Y-114988095D01*
X134725223Y-115273809D01*
X134784747Y-115369047D01*
X134838318Y-115416666D01*
X134939508Y-115464285D01*
X135129985Y-115464285D01*
X135219270Y-115416666D01*
X136004985Y-114845238D02*
X135903794Y-114797619D01*
X135713318Y-114797619D01*
X135624032Y-114845238D01*
X135588318Y-114940476D01*
X135635937Y-115321428D01*
X135695461Y-115416666D01*
X135796651Y-115464285D01*
X135987127Y-115464285D01*
X136076413Y-115416666D01*
X136112127Y-115321428D01*
X136100223Y-115226190D01*
X135612127Y-115130952D01*
X136903794Y-114797619D02*
X137028794Y-115797619D01*
X136909747Y-114845238D02*
X136808556Y-114797619D01*
X136618080Y-114797619D01*
X136528794Y-114845238D01*
X136487127Y-114892857D01*
X136451413Y-114988095D01*
X136487127Y-115273809D01*
X136546651Y-115369047D01*
X136600223Y-115416666D01*
X136701413Y-115464285D01*
X136891889Y-115464285D01*
X136981175Y-115416666D01*
X137237127Y-114416666D02*
X137290699Y-114464285D01*
X137403794Y-114607142D01*
X137463318Y-114702380D01*
X137528794Y-114845238D01*
X137606175Y-115083333D01*
X137629985Y-115273809D01*
X137612127Y-115511904D01*
X137582366Y-115654761D01*
X137546651Y-115750000D01*
X137469270Y-115892857D01*
X137427604Y-115940476D01*
D11*
%TO.C,U4*%
X138300000Y-82960000D02*
X138300000Y-74070000D01*
X163700000Y-82960000D02*
X163700000Y-74070000D01*
X163700000Y-82960000D02*
X163700000Y-85500000D01*
X163700000Y-74070000D02*
X161922000Y-74070000D01*
X151000000Y-74070000D02*
X163700000Y-74070000D01*
X151000000Y-74070000D02*
X138300000Y-74070000D01*
X138300000Y-82960000D02*
X138300000Y-85500000D01*
X163700000Y-88040000D02*
X163700000Y-85500000D01*
X138300000Y-88040000D02*
X138300000Y-85500000D01*
X138300000Y-96930000D02*
X140078000Y-96930000D01*
X163700000Y-88040000D02*
X163700000Y-96930000D01*
X151000000Y-96930000D02*
X163700000Y-96930000D01*
X138300000Y-88040000D02*
X138300000Y-96930000D01*
X151000000Y-96930000D02*
X138300000Y-96930000D01*
%TO.C,J1*%
X136370039Y-99410000D02*
X136629959Y-99410000D01*
X137870039Y-99410000D02*
X138129961Y-99410000D01*
X139370041Y-99410000D02*
X139629960Y-99410000D01*
X140870040Y-99410000D02*
X141129960Y-99410000D01*
X142370040Y-99410000D02*
X144774988Y-99410000D01*
X143410115Y-105850000D02*
X134089884Y-105850000D01*
X144774988Y-99410000D02*
X144774988Y-103719960D01*
X132725011Y-99410000D02*
X135129959Y-99410000D01*
X132725011Y-103719960D02*
X132725011Y-99410000D01*
X146552987Y-99115000D02*
X145028987Y-99750000D01*
X146552987Y-100385000D02*
X146552987Y-99115000D01*
X145028987Y-99750000D02*
X146552987Y-100385000D01*
%TO.C,U5*%
X119110000Y-73250000D02*
X119110000Y-60550000D01*
X128000000Y-60550000D02*
X119110000Y-60550000D01*
X119110000Y-73250000D02*
X119110000Y-85950000D01*
X128000000Y-85950000D02*
X119110000Y-85950000D01*
X128000000Y-60550000D02*
X136890000Y-60550000D01*
X136890000Y-73250000D02*
X136890000Y-60550000D01*
X136890000Y-73250000D02*
X136890000Y-85950000D01*
X128000000Y-85950000D02*
X136890000Y-85950000D01*
X131302000Y-69186000D02*
X134858000Y-69186000D01*
X134858000Y-77314000D02*
X131302000Y-77314000D01*
X131302000Y-69186000D02*
X130286000Y-69186000D01*
X130286000Y-69186000D02*
X130286000Y-77314000D01*
X130286000Y-77314000D02*
X131302000Y-77314000D01*
X134858000Y-77314000D02*
X135366000Y-77314000D01*
X135366000Y-77314000D02*
X135366000Y-69186000D01*
X135366000Y-69186000D02*
X134858000Y-69186000D01*
%TO.C,U4*%
D12*
X151761904Y-85452380D02*
X151761904Y-86261904D01*
X151714285Y-86357142D01*
X151666666Y-86404761D01*
X151571428Y-86452380D01*
X151380952Y-86452380D01*
X151285714Y-86404761D01*
X151238095Y-86357142D01*
X151190476Y-86261904D01*
X151190476Y-85452380D01*
X150285714Y-85785714D02*
X150285714Y-86452380D01*
X150523809Y-85404761D02*
X150761904Y-86119047D01*
X150142857Y-86119047D01*
%TO.C,J1*%
X139543333Y-109362380D02*
X139543333Y-110076666D01*
X139590952Y-110219523D01*
X139686190Y-110314761D01*
X139829047Y-110362380D01*
X139924285Y-110362380D01*
X138543333Y-110362380D02*
X139114761Y-110362380D01*
X138829047Y-110362380D02*
X138829047Y-109362380D01*
X138924285Y-109505238D01*
X139019523Y-109600476D01*
X139114761Y-109648095D01*
X144869045Y-108997142D02*
X144916664Y-109044761D01*
X145059521Y-109092380D01*
X145154759Y-109092380D01*
X145297617Y-109044761D01*
X145392855Y-108949523D01*
X145440474Y-108854285D01*
X145488093Y-108663809D01*
X145488093Y-108520952D01*
X145440474Y-108330476D01*
X145392855Y-108235238D01*
X145297617Y-108140000D01*
X145154759Y-108092380D01*
X145059521Y-108092380D01*
X144916664Y-108140000D01*
X144869045Y-108187619D01*
X144249998Y-108092380D02*
X144059521Y-108092380D01*
X143964283Y-108140000D01*
X143869045Y-108235238D01*
X143821426Y-108425714D01*
X143821426Y-108759047D01*
X143869045Y-108949523D01*
X143964283Y-109044761D01*
X144059521Y-109092380D01*
X144249998Y-109092380D01*
X144345236Y-109044761D01*
X144440474Y-108949523D01*
X144488093Y-108759047D01*
X144488093Y-108425714D01*
X144440474Y-108235238D01*
X144345236Y-108140000D01*
X144249998Y-108092380D01*
X143392855Y-109092380D02*
X143392855Y-108092380D01*
X142821426Y-109092380D01*
X142821426Y-108092380D01*
X142345236Y-108711428D02*
X141583331Y-108711428D01*
X140630950Y-108092380D02*
X141107140Y-108092380D01*
X141154759Y-108568571D01*
X141107140Y-108520952D01*
X141011902Y-108473333D01*
X140773807Y-108473333D01*
X140678569Y-108520952D01*
X140630950Y-108568571D01*
X140583331Y-108663809D01*
X140583331Y-108901904D01*
X140630950Y-108997142D01*
X140678569Y-109044761D01*
X140773807Y-109092380D01*
X141011902Y-109092380D01*
X141107140Y-109044761D01*
X141154759Y-108997142D01*
X139964283Y-108092380D02*
X139869045Y-108092380D01*
X139773807Y-108140000D01*
X139726188Y-108187619D01*
X139678569Y-108282857D01*
X139630950Y-108473333D01*
X139630950Y-108711428D01*
X139678569Y-108901904D01*
X139726188Y-108997142D01*
X139773807Y-109044761D01*
X139869045Y-109092380D01*
X139964283Y-109092380D01*
X140059521Y-109044761D01*
X140107140Y-108997142D01*
X140154759Y-108901904D01*
X140202378Y-108711428D01*
X140202378Y-108473333D01*
X140154759Y-108282857D01*
X140107140Y-108187619D01*
X140059521Y-108140000D01*
X139964283Y-108092380D01*
X138773807Y-108425714D02*
X138773807Y-109092380D01*
X139011902Y-108044761D02*
X139249998Y-108759047D01*
X138630950Y-108759047D01*
X138059521Y-108092380D02*
X137964283Y-108092380D01*
X137869045Y-108140000D01*
X137821426Y-108187619D01*
X137773807Y-108282857D01*
X137726188Y-108473333D01*
X137726188Y-108711428D01*
X137773807Y-108901904D01*
X137821426Y-108997142D01*
X137869045Y-109044761D01*
X137964283Y-109092380D01*
X138059521Y-109092380D01*
X138154759Y-109044761D01*
X138202378Y-108997142D01*
X138249998Y-108901904D01*
X138297617Y-108711428D01*
X138297617Y-108473333D01*
X138249998Y-108282857D01*
X138202378Y-108187619D01*
X138154759Y-108140000D01*
X138059521Y-108092380D01*
X136821426Y-108092380D02*
X137297617Y-108092380D01*
X137345236Y-108568571D01*
X137297617Y-108520952D01*
X137202378Y-108473333D01*
X136964283Y-108473333D01*
X136869045Y-108520952D01*
X136821426Y-108568571D01*
X136773807Y-108663809D01*
X136773807Y-108901904D01*
X136821426Y-108997142D01*
X136869045Y-109044761D01*
X136964283Y-109092380D01*
X137202378Y-109092380D01*
X137297617Y-109044761D01*
X137345236Y-108997142D01*
X136154759Y-108092380D02*
X136059521Y-108092380D01*
X135964283Y-108140000D01*
X135916664Y-108187619D01*
X135869045Y-108282857D01*
X135821426Y-108473333D01*
X135821426Y-108711428D01*
X135869045Y-108901904D01*
X135916664Y-108997142D01*
X135964283Y-109044761D01*
X136059521Y-109092380D01*
X136154759Y-109092380D01*
X136249998Y-109044761D01*
X136297617Y-108997142D01*
X136345236Y-108901904D01*
X136392855Y-108711428D01*
X136392855Y-108473333D01*
X136345236Y-108282857D01*
X136297617Y-108187619D01*
X136249998Y-108140000D01*
X136154759Y-108092380D01*
X135202378Y-108092380D02*
X135107140Y-108092380D01*
X135011902Y-108140000D01*
X134964283Y-108187619D01*
X134916664Y-108282857D01*
X134869045Y-108473333D01*
X134869045Y-108711428D01*
X134916664Y-108901904D01*
X134964283Y-108997142D01*
X135011902Y-109044761D01*
X135107140Y-109092380D01*
X135202378Y-109092380D01*
X135297617Y-109044761D01*
X135345236Y-108997142D01*
X135392855Y-108901904D01*
X135440474Y-108711428D01*
X135440474Y-108473333D01*
X135392855Y-108282857D01*
X135345236Y-108187619D01*
X135297617Y-108140000D01*
X135202378Y-108092380D01*
X133964283Y-108092380D02*
X134440474Y-108092380D01*
X134488093Y-108568571D01*
X134440474Y-108520952D01*
X134345236Y-108473333D01*
X134107140Y-108473333D01*
X134011902Y-108520952D01*
X133964283Y-108568571D01*
X133916664Y-108663809D01*
X133916664Y-108901904D01*
X133964283Y-108997142D01*
X134011902Y-109044761D01*
X134107140Y-109092380D01*
X134345236Y-109092380D01*
X134440474Y-109044761D01*
X134488093Y-108997142D01*
X133440474Y-109092380D02*
X133249998Y-109092380D01*
X133154759Y-109044761D01*
X133107140Y-108997142D01*
X133011902Y-108854285D01*
X132964283Y-108663809D01*
X132964283Y-108282857D01*
X133011902Y-108187619D01*
X133059521Y-108140000D01*
X133154759Y-108092380D01*
X133345236Y-108092380D01*
X133440474Y-108140000D01*
X133488093Y-108187619D01*
X133535712Y-108282857D01*
X133535712Y-108520952D01*
X133488093Y-108616190D01*
X133440474Y-108663809D01*
X133345236Y-108711428D01*
X133154759Y-108711428D01*
X133059521Y-108663809D01*
X133011902Y-108616190D01*
X132964283Y-108520952D01*
X132011902Y-109092380D02*
X132583331Y-109092380D01*
X132297617Y-109092380D02*
X132297617Y-108092380D01*
X132392855Y-108235238D01*
X132488093Y-108330476D01*
X132583331Y-108378095D01*
X141750000Y-99202380D02*
X141750000Y-99440476D01*
X141988095Y-99345238D02*
X141750000Y-99440476D01*
X141511904Y-99345238D01*
X141892857Y-99630952D02*
X141750000Y-99440476D01*
X141607142Y-99630952D01*
%TO.C,U5*%
X126952380Y-72488095D02*
X127761904Y-72488095D01*
X127857142Y-72535714D01*
X127904761Y-72583333D01*
X127952380Y-72678571D01*
X127952380Y-72869047D01*
X127904761Y-72964285D01*
X127857142Y-73011904D01*
X127761904Y-73059523D01*
X126952380Y-73059523D01*
X126952380Y-74011904D02*
X126952380Y-73535714D01*
X127428571Y-73488095D01*
X127380952Y-73535714D01*
X127333333Y-73630952D01*
X127333333Y-73869047D01*
X127380952Y-73964285D01*
X127428571Y-74011904D01*
X127523809Y-74059523D01*
X127761904Y-74059523D01*
X127857142Y-74011904D01*
X127904761Y-73964285D01*
X127952380Y-73869047D01*
X127952380Y-73630952D01*
X127904761Y-73535714D01*
X127857142Y-73488095D01*
%TD*%
M02*
