%TF.GenerationSoftware,KiCad,Pcbnew,(6.0.7)*%
%TF.CreationDate,2023-01-31T02:36:04-08:00*%
%TF.ProjectId,solar-panel-side-Z,736f6c61-722d-4706-916e-656c2d736964,2.0*%
%TF.SameCoordinates,Original*%
%TF.FileFunction,Legend,Top*%
%TF.FilePolarity,Positive*%
%FSLAX46Y46*%
G04 Gerber Fmt 4.6, Leading zero omitted, Abs format (unit mm)*
G04 Created by KiCad (PCBNEW (6.0.7)) date 2023-01-31 02:36:04*
%MOMM*%
%LPD*%
G01*
G04 APERTURE LIST*
G04 Aperture macros list*
%AMRoundRect*
0 Rectangle with rounded corners*
0 $1 Rounding radius*
0 $2 $3 $4 $5 $6 $7 $8 $9 X,Y pos of 4 corners*
0 Add a 4 corners polygon primitive as box body*
4,1,4,$2,$3,$4,$5,$6,$7,$8,$9,$2,$3,0*
0 Add four circle primitives for the rounded corners*
1,1,$1+$1,$2,$3*
1,1,$1+$1,$4,$5*
1,1,$1+$1,$6,$7*
1,1,$1+$1,$8,$9*
0 Add four rect primitives between the rounded corners*
20,1,$1+$1,$2,$3,$4,$5,0*
20,1,$1+$1,$4,$5,$6,$7,0*
20,1,$1+$1,$6,$7,$8,$9,0*
20,1,$1+$1,$8,$9,$2,$3,0*%
G04 Aperture macros list end*
%ADD10C,0.150000*%
%ADD11C,0.500000*%
%ADD12C,0.100000*%
%ADD13C,0.120000*%
%ADD14C,0.200000*%
%ADD15C,0.127000*%
%ADD16C,5.250000*%
%ADD17R,2.500000X1.700000*%
%ADD18RoundRect,0.750000X-0.750000X-0.750000X0.750000X-0.750000X0.750000X0.750000X-0.750000X0.750000X0*%
%ADD19RoundRect,0.218750X0.256250X-0.218750X0.256250X0.218750X-0.256250X0.218750X-0.256250X-0.218750X0*%
%ADD20RoundRect,0.250000X0.250000X0.475000X-0.250000X0.475000X-0.250000X-0.475000X0.250000X-0.475000X0*%
%ADD21R,1.750000X1.450000*%
%ADD22R,0.750000X0.300000*%
%ADD23R,3.000000X13.000000*%
%ADD24R,13.000000X3.000000*%
%ADD25RoundRect,0.200000X-0.275000X0.200000X-0.275000X-0.200000X0.275000X-0.200000X0.275000X0.200000X0*%
%ADD26RoundRect,0.075000X-0.650000X-0.075000X0.650000X-0.075000X0.650000X0.075000X-0.650000X0.075000X0*%
%ADD27R,1.600000X0.700000*%
%ADD28R,1.700000X2.500000*%
%ADD29C,1.800000*%
G04 APERTURE END LIST*
D10*
X103428095Y-114830000D02*
X103332857Y-114782380D01*
X103190000Y-114782380D01*
X103047142Y-114830000D01*
X102951904Y-114925238D01*
X102904285Y-115020476D01*
X102856666Y-115210952D01*
X102856666Y-115353809D01*
X102904285Y-115544285D01*
X102951904Y-115639523D01*
X103047142Y-115734761D01*
X103190000Y-115782380D01*
X103285238Y-115782380D01*
X103428095Y-115734761D01*
X103475714Y-115687142D01*
X103475714Y-115353809D01*
X103285238Y-115353809D01*
X103904285Y-115782380D02*
X103904285Y-114782380D01*
X104475714Y-115782380D01*
X104475714Y-114782380D01*
X104951904Y-115782380D02*
X104951904Y-114782380D01*
X105190000Y-114782380D01*
X105332857Y-114830000D01*
X105428095Y-114925238D01*
X105475714Y-115020476D01*
X105523333Y-115210952D01*
X105523333Y-115353809D01*
X105475714Y-115544285D01*
X105428095Y-115639523D01*
X105332857Y-115734761D01*
X105190000Y-115782380D01*
X104951904Y-115782380D01*
X118155238Y-84992380D02*
X118155238Y-83992380D01*
X119298095Y-84325714D02*
X119488571Y-84992380D01*
X119679047Y-84516190D01*
X119869523Y-84992380D01*
X120060000Y-84325714D01*
X120869523Y-84992380D02*
X120869523Y-84468571D01*
X120821904Y-84373333D01*
X120726666Y-84325714D01*
X120536190Y-84325714D01*
X120440952Y-84373333D01*
X120869523Y-84944761D02*
X120774285Y-84992380D01*
X120536190Y-84992380D01*
X120440952Y-84944761D01*
X120393333Y-84849523D01*
X120393333Y-84754285D01*
X120440952Y-84659047D01*
X120536190Y-84611428D01*
X120774285Y-84611428D01*
X120869523Y-84563809D01*
X121345714Y-84325714D02*
X121345714Y-84992380D01*
X121345714Y-84420952D02*
X121393333Y-84373333D01*
X121488571Y-84325714D01*
X121631428Y-84325714D01*
X121726666Y-84373333D01*
X121774285Y-84468571D01*
X121774285Y-84992380D01*
X122107619Y-84325714D02*
X122488571Y-84325714D01*
X122250476Y-83992380D02*
X122250476Y-84849523D01*
X122298095Y-84944761D01*
X122393333Y-84992380D01*
X122488571Y-84992380D01*
X123440952Y-84325714D02*
X123821904Y-84325714D01*
X123583809Y-83992380D02*
X123583809Y-84849523D01*
X123631428Y-84944761D01*
X123726666Y-84992380D01*
X123821904Y-84992380D01*
X124298095Y-84992380D02*
X124202857Y-84944761D01*
X124155238Y-84897142D01*
X124107619Y-84801904D01*
X124107619Y-84516190D01*
X124155238Y-84420952D01*
X124202857Y-84373333D01*
X124298095Y-84325714D01*
X124440952Y-84325714D01*
X124536190Y-84373333D01*
X124583809Y-84420952D01*
X124631428Y-84516190D01*
X124631428Y-84801904D01*
X124583809Y-84897142D01*
X124536190Y-84944761D01*
X124440952Y-84992380D01*
X124298095Y-84992380D01*
X126155238Y-84468571D02*
X126298095Y-84516190D01*
X126345714Y-84563809D01*
X126393333Y-84659047D01*
X126393333Y-84801904D01*
X126345714Y-84897142D01*
X126298095Y-84944761D01*
X126202857Y-84992380D01*
X125821904Y-84992380D01*
X125821904Y-83992380D01*
X126155238Y-83992380D01*
X126250476Y-84040000D01*
X126298095Y-84087619D01*
X126345714Y-84182857D01*
X126345714Y-84278095D01*
X126298095Y-84373333D01*
X126250476Y-84420952D01*
X126155238Y-84468571D01*
X125821904Y-84468571D01*
X126821904Y-84992380D02*
X126821904Y-84325714D01*
X126821904Y-84516190D02*
X126869523Y-84420952D01*
X126917142Y-84373333D01*
X127012380Y-84325714D01*
X127107619Y-84325714D01*
X127821904Y-84944761D02*
X127726666Y-84992380D01*
X127536190Y-84992380D01*
X127440952Y-84944761D01*
X127393333Y-84849523D01*
X127393333Y-84468571D01*
X127440952Y-84373333D01*
X127536190Y-84325714D01*
X127726666Y-84325714D01*
X127821904Y-84373333D01*
X127869523Y-84468571D01*
X127869523Y-84563809D01*
X127393333Y-84659047D01*
X128726666Y-84992380D02*
X128726666Y-84468571D01*
X128679047Y-84373333D01*
X128583809Y-84325714D01*
X128393333Y-84325714D01*
X128298095Y-84373333D01*
X128726666Y-84944761D02*
X128631428Y-84992380D01*
X128393333Y-84992380D01*
X128298095Y-84944761D01*
X128250476Y-84849523D01*
X128250476Y-84754285D01*
X128298095Y-84659047D01*
X128393333Y-84611428D01*
X128631428Y-84611428D01*
X128726666Y-84563809D01*
X129202857Y-84992380D02*
X129202857Y-83992380D01*
X129298095Y-84611428D02*
X129583809Y-84992380D01*
X129583809Y-84325714D02*
X129202857Y-84706666D01*
X131107619Y-84468571D02*
X130774285Y-84468571D01*
X130774285Y-84992380D02*
X130774285Y-83992380D01*
X131250476Y-83992380D01*
X131631428Y-84992380D02*
X131631428Y-84325714D01*
X131631428Y-84516190D02*
X131679047Y-84420952D01*
X131726666Y-84373333D01*
X131821904Y-84325714D01*
X131917142Y-84325714D01*
X132631428Y-84944761D02*
X132536190Y-84992380D01*
X132345714Y-84992380D01*
X132250476Y-84944761D01*
X132202857Y-84849523D01*
X132202857Y-84468571D01*
X132250476Y-84373333D01*
X132345714Y-84325714D01*
X132536190Y-84325714D01*
X132631428Y-84373333D01*
X132679047Y-84468571D01*
X132679047Y-84563809D01*
X132202857Y-84659047D01*
X133488571Y-84944761D02*
X133393333Y-84992380D01*
X133202857Y-84992380D01*
X133107619Y-84944761D01*
X133060000Y-84849523D01*
X133060000Y-84468571D01*
X133107619Y-84373333D01*
X133202857Y-84325714D01*
X133393333Y-84325714D01*
X133488571Y-84373333D01*
X133536190Y-84468571D01*
X133536190Y-84563809D01*
X133060000Y-84659047D01*
X134583809Y-84611428D02*
X134631428Y-84563809D01*
X134726666Y-84516190D01*
X134917142Y-84611428D01*
X135012380Y-84563809D01*
X135060000Y-84516190D01*
X101443333Y-102732380D02*
X101776666Y-103732380D01*
X102110000Y-102732380D01*
X102395714Y-103684761D02*
X102538571Y-103732380D01*
X102776666Y-103732380D01*
X102871904Y-103684761D01*
X102919523Y-103637142D01*
X102967142Y-103541904D01*
X102967142Y-103446666D01*
X102919523Y-103351428D01*
X102871904Y-103303809D01*
X102776666Y-103256190D01*
X102586190Y-103208571D01*
X102490952Y-103160952D01*
X102443333Y-103113333D01*
X102395714Y-103018095D01*
X102395714Y-102922857D01*
X102443333Y-102827619D01*
X102490952Y-102780000D01*
X102586190Y-102732380D01*
X102824285Y-102732380D01*
X102967142Y-102780000D01*
X103586190Y-102732380D02*
X103776666Y-102732380D01*
X103871904Y-102780000D01*
X103967142Y-102875238D01*
X104014761Y-103065714D01*
X104014761Y-103399047D01*
X103967142Y-103589523D01*
X103871904Y-103684761D01*
X103776666Y-103732380D01*
X103586190Y-103732380D01*
X103490952Y-103684761D01*
X103395714Y-103589523D01*
X103348095Y-103399047D01*
X103348095Y-103065714D01*
X103395714Y-102875238D01*
X103490952Y-102780000D01*
X103586190Y-102732380D01*
X104919523Y-103732380D02*
X104443333Y-103732380D01*
X104443333Y-102732380D01*
X105205238Y-103446666D02*
X105681428Y-103446666D01*
X105110000Y-103732380D02*
X105443333Y-102732380D01*
X105776666Y-103732380D01*
X106681428Y-103732380D02*
X106348095Y-103256190D01*
X106110000Y-103732380D02*
X106110000Y-102732380D01*
X106490952Y-102732380D01*
X106586190Y-102780000D01*
X106633809Y-102827619D01*
X106681428Y-102922857D01*
X106681428Y-103065714D01*
X106633809Y-103160952D01*
X106586190Y-103208571D01*
X106490952Y-103256190D01*
X106110000Y-103256190D01*
%TO.C,J3*%
X110166666Y-84952380D02*
X110166666Y-85666666D01*
X110119047Y-85809523D01*
X110023809Y-85904761D01*
X109880952Y-85952380D01*
X109785714Y-85952380D01*
X110547619Y-84952380D02*
X111166666Y-84952380D01*
X110833333Y-85333333D01*
X110976190Y-85333333D01*
X111071428Y-85380952D01*
X111119047Y-85428571D01*
X111166666Y-85523809D01*
X111166666Y-85761904D01*
X111119047Y-85857142D01*
X111071428Y-85904761D01*
X110976190Y-85952380D01*
X110690476Y-85952380D01*
X110595238Y-85904761D01*
X110547619Y-85857142D01*
%TO.C,J4*%
X141416666Y-123952380D02*
X141416666Y-124666666D01*
X141369047Y-124809523D01*
X141273809Y-124904761D01*
X141130952Y-124952380D01*
X141035714Y-124952380D01*
X142321428Y-124285714D02*
X142321428Y-124952380D01*
X142083333Y-123904761D02*
X141845238Y-124619047D01*
X142464285Y-124619047D01*
%TO.C,J5*%
X156916666Y-45952380D02*
X156916666Y-46666666D01*
X156869047Y-46809523D01*
X156773809Y-46904761D01*
X156630952Y-46952380D01*
X156535714Y-46952380D01*
X157869047Y-45952380D02*
X157392857Y-45952380D01*
X157345238Y-46428571D01*
X157392857Y-46380952D01*
X157488095Y-46333333D01*
X157726190Y-46333333D01*
X157821428Y-46380952D01*
X157869047Y-46428571D01*
X157916666Y-46523809D01*
X157916666Y-46761904D01*
X157869047Y-46857142D01*
X157821428Y-46904761D01*
X157726190Y-46952380D01*
X157488095Y-46952380D01*
X157392857Y-46904761D01*
X157345238Y-46857142D01*
%TO.C,J6*%
X188166666Y-84952380D02*
X188166666Y-85666666D01*
X188119047Y-85809523D01*
X188023809Y-85904761D01*
X187880952Y-85952380D01*
X187785714Y-85952380D01*
X189071428Y-84952380D02*
X188880952Y-84952380D01*
X188785714Y-85000000D01*
X188738095Y-85047619D01*
X188642857Y-85190476D01*
X188595238Y-85380952D01*
X188595238Y-85761904D01*
X188642857Y-85857142D01*
X188690476Y-85904761D01*
X188785714Y-85952380D01*
X188976190Y-85952380D01*
X189071428Y-85904761D01*
X189119047Y-85857142D01*
X189166666Y-85761904D01*
X189166666Y-85523809D01*
X189119047Y-85428571D01*
X189071428Y-85380952D01*
X188976190Y-85333333D01*
X188785714Y-85333333D01*
X188690476Y-85380952D01*
X188642857Y-85428571D01*
X188595238Y-85523809D01*
%TO.C,D3*%
X138851904Y-105682380D02*
X138851904Y-104682380D01*
X139090000Y-104682380D01*
X139232857Y-104730000D01*
X139328095Y-104825238D01*
X139375714Y-104920476D01*
X139423333Y-105110952D01*
X139423333Y-105253809D01*
X139375714Y-105444285D01*
X139328095Y-105539523D01*
X139232857Y-105634761D01*
X139090000Y-105682380D01*
X138851904Y-105682380D01*
X139756666Y-104682380D02*
X140375714Y-104682380D01*
X140042380Y-105063333D01*
X140185238Y-105063333D01*
X140280476Y-105110952D01*
X140328095Y-105158571D01*
X140375714Y-105253809D01*
X140375714Y-105491904D01*
X140328095Y-105587142D01*
X140280476Y-105634761D01*
X140185238Y-105682380D01*
X139899523Y-105682380D01*
X139804285Y-105634761D01*
X139756666Y-105587142D01*
%TO.C,TP1*%
X106228095Y-105752380D02*
X106799523Y-105752380D01*
X106513809Y-106752380D02*
X106513809Y-105752380D01*
X107132857Y-106752380D02*
X107132857Y-105752380D01*
X107513809Y-105752380D01*
X107609047Y-105800000D01*
X107656666Y-105847619D01*
X107704285Y-105942857D01*
X107704285Y-106085714D01*
X107656666Y-106180952D01*
X107609047Y-106228571D01*
X107513809Y-106276190D01*
X107132857Y-106276190D01*
X108656666Y-106752380D02*
X108085238Y-106752380D01*
X108370952Y-106752380D02*
X108370952Y-105752380D01*
X108275714Y-105895238D01*
X108180476Y-105990476D01*
X108085238Y-106038095D01*
%TO.C,D5*%
X161927380Y-70338095D02*
X160927380Y-70338095D01*
X160927380Y-70100000D01*
X160975000Y-69957142D01*
X161070238Y-69861904D01*
X161165476Y-69814285D01*
X161355952Y-69766666D01*
X161498809Y-69766666D01*
X161689285Y-69814285D01*
X161784523Y-69861904D01*
X161879761Y-69957142D01*
X161927380Y-70100000D01*
X161927380Y-70338095D01*
X160927380Y-68861904D02*
X160927380Y-69338095D01*
X161403571Y-69385714D01*
X161355952Y-69338095D01*
X161308333Y-69242857D01*
X161308333Y-69004761D01*
X161355952Y-68909523D01*
X161403571Y-68861904D01*
X161498809Y-68814285D01*
X161736904Y-68814285D01*
X161832142Y-68861904D01*
X161879761Y-68909523D01*
X161927380Y-69004761D01*
X161927380Y-69242857D01*
X161879761Y-69338095D01*
X161832142Y-69385714D01*
%TO.C,C5*%
X147313333Y-97227142D02*
X147265714Y-97274761D01*
X147122857Y-97322380D01*
X147027619Y-97322380D01*
X146884761Y-97274761D01*
X146789523Y-97179523D01*
X146741904Y-97084285D01*
X146694285Y-96893809D01*
X146694285Y-96750952D01*
X146741904Y-96560476D01*
X146789523Y-96465238D01*
X146884761Y-96370000D01*
X147027619Y-96322380D01*
X147122857Y-96322380D01*
X147265714Y-96370000D01*
X147313333Y-96417619D01*
X148218095Y-96322380D02*
X147741904Y-96322380D01*
X147694285Y-96798571D01*
X147741904Y-96750952D01*
X147837142Y-96703333D01*
X148075238Y-96703333D01*
X148170476Y-96750952D01*
X148218095Y-96798571D01*
X148265714Y-96893809D01*
X148265714Y-97131904D01*
X148218095Y-97227142D01*
X148170476Y-97274761D01*
X148075238Y-97322380D01*
X147837142Y-97322380D01*
X147741904Y-97274761D01*
X147694285Y-97227142D01*
%TO.C,U3*%
X155768095Y-66312380D02*
X155768095Y-67121904D01*
X155815714Y-67217142D01*
X155863333Y-67264761D01*
X155958571Y-67312380D01*
X156149047Y-67312380D01*
X156244285Y-67264761D01*
X156291904Y-67217142D01*
X156339523Y-67121904D01*
X156339523Y-66312380D01*
X156720476Y-66312380D02*
X157339523Y-66312380D01*
X157006190Y-66693333D01*
X157149047Y-66693333D01*
X157244285Y-66740952D01*
X157291904Y-66788571D01*
X157339523Y-66883809D01*
X157339523Y-67121904D01*
X157291904Y-67217142D01*
X157244285Y-67264761D01*
X157149047Y-67312380D01*
X156863333Y-67312380D01*
X156768095Y-67264761D01*
X156720476Y-67217142D01*
%TO.C,SC5*%
X167834761Y-124501904D02*
X167882380Y-124359047D01*
X167882380Y-124120952D01*
X167834761Y-124025714D01*
X167787142Y-123978095D01*
X167691904Y-123930476D01*
X167596666Y-123930476D01*
X167501428Y-123978095D01*
X167453809Y-124025714D01*
X167406190Y-124120952D01*
X167358571Y-124311428D01*
X167310952Y-124406666D01*
X167263333Y-124454285D01*
X167168095Y-124501904D01*
X167072857Y-124501904D01*
X166977619Y-124454285D01*
X166930000Y-124406666D01*
X166882380Y-124311428D01*
X166882380Y-124073333D01*
X166930000Y-123930476D01*
X167787142Y-122930476D02*
X167834761Y-122978095D01*
X167882380Y-123120952D01*
X167882380Y-123216190D01*
X167834761Y-123359047D01*
X167739523Y-123454285D01*
X167644285Y-123501904D01*
X167453809Y-123549523D01*
X167310952Y-123549523D01*
X167120476Y-123501904D01*
X167025238Y-123454285D01*
X166930000Y-123359047D01*
X166882380Y-123216190D01*
X166882380Y-123120952D01*
X166930000Y-122978095D01*
X166977619Y-122930476D01*
X166882380Y-122025714D02*
X166882380Y-122501904D01*
X167358571Y-122549523D01*
X167310952Y-122501904D01*
X167263333Y-122406666D01*
X167263333Y-122168571D01*
X167310952Y-122073333D01*
X167358571Y-122025714D01*
X167453809Y-121978095D01*
X167691904Y-121978095D01*
X167787142Y-122025714D01*
X167834761Y-122073333D01*
X167882380Y-122168571D01*
X167882380Y-122406666D01*
X167834761Y-122501904D01*
X167787142Y-122549523D01*
D11*
X182894285Y-124382857D02*
X182894285Y-122097142D01*
X151144285Y-124382857D02*
X151144285Y-122097142D01*
X152287142Y-123240000D02*
X150001428Y-123240000D01*
D10*
%TO.C,TP2*%
X106028095Y-112112380D02*
X106599523Y-112112380D01*
X106313809Y-113112380D02*
X106313809Y-112112380D01*
X106932857Y-113112380D02*
X106932857Y-112112380D01*
X107313809Y-112112380D01*
X107409047Y-112160000D01*
X107456666Y-112207619D01*
X107504285Y-112302857D01*
X107504285Y-112445714D01*
X107456666Y-112540952D01*
X107409047Y-112588571D01*
X107313809Y-112636190D01*
X106932857Y-112636190D01*
X107885238Y-112207619D02*
X107932857Y-112160000D01*
X108028095Y-112112380D01*
X108266190Y-112112380D01*
X108361428Y-112160000D01*
X108409047Y-112207619D01*
X108456666Y-112302857D01*
X108456666Y-112398095D01*
X108409047Y-112540952D01*
X107837619Y-113112380D01*
X108456666Y-113112380D01*
%TO.C,SC3*%
X120458095Y-112994761D02*
X120600952Y-113042380D01*
X120839047Y-113042380D01*
X120934285Y-112994761D01*
X120981904Y-112947142D01*
X121029523Y-112851904D01*
X121029523Y-112756666D01*
X120981904Y-112661428D01*
X120934285Y-112613809D01*
X120839047Y-112566190D01*
X120648571Y-112518571D01*
X120553333Y-112470952D01*
X120505714Y-112423333D01*
X120458095Y-112328095D01*
X120458095Y-112232857D01*
X120505714Y-112137619D01*
X120553333Y-112090000D01*
X120648571Y-112042380D01*
X120886666Y-112042380D01*
X121029523Y-112090000D01*
X122029523Y-112947142D02*
X121981904Y-112994761D01*
X121839047Y-113042380D01*
X121743809Y-113042380D01*
X121600952Y-112994761D01*
X121505714Y-112899523D01*
X121458095Y-112804285D01*
X121410476Y-112613809D01*
X121410476Y-112470952D01*
X121458095Y-112280476D01*
X121505714Y-112185238D01*
X121600952Y-112090000D01*
X121743809Y-112042380D01*
X121839047Y-112042380D01*
X121981904Y-112090000D01*
X122029523Y-112137619D01*
X122362857Y-112042380D02*
X122981904Y-112042380D01*
X122648571Y-112423333D01*
X122791428Y-112423333D01*
X122886666Y-112470952D01*
X122934285Y-112518571D01*
X122981904Y-112613809D01*
X122981904Y-112851904D01*
X122934285Y-112947142D01*
X122886666Y-112994761D01*
X122791428Y-113042380D01*
X122505714Y-113042380D01*
X122410476Y-112994761D01*
X122362857Y-112947142D01*
D11*
X120577142Y-129304285D02*
X122862857Y-129304285D01*
X121720000Y-130447142D02*
X121720000Y-128161428D01*
X120577142Y-97554285D02*
X122862857Y-97554285D01*
D10*
%TO.C,R2*%
X158977380Y-63891666D02*
X158501190Y-64225000D01*
X158977380Y-64463095D02*
X157977380Y-64463095D01*
X157977380Y-64082142D01*
X158025000Y-63986904D01*
X158072619Y-63939285D01*
X158167857Y-63891666D01*
X158310714Y-63891666D01*
X158405952Y-63939285D01*
X158453571Y-63986904D01*
X158501190Y-64082142D01*
X158501190Y-64463095D01*
X158072619Y-63510714D02*
X158025000Y-63463095D01*
X157977380Y-63367857D01*
X157977380Y-63129761D01*
X158025000Y-63034523D01*
X158072619Y-62986904D01*
X158167857Y-62939285D01*
X158263095Y-62939285D01*
X158405952Y-62986904D01*
X158977380Y-63558333D01*
X158977380Y-62939285D01*
%TO.C,C3*%
X147343333Y-106577142D02*
X147295714Y-106624761D01*
X147152857Y-106672380D01*
X147057619Y-106672380D01*
X146914761Y-106624761D01*
X146819523Y-106529523D01*
X146771904Y-106434285D01*
X146724285Y-106243809D01*
X146724285Y-106100952D01*
X146771904Y-105910476D01*
X146819523Y-105815238D01*
X146914761Y-105720000D01*
X147057619Y-105672380D01*
X147152857Y-105672380D01*
X147295714Y-105720000D01*
X147343333Y-105767619D01*
X147676666Y-105672380D02*
X148295714Y-105672380D01*
X147962380Y-106053333D01*
X148105238Y-106053333D01*
X148200476Y-106100952D01*
X148248095Y-106148571D01*
X148295714Y-106243809D01*
X148295714Y-106481904D01*
X148248095Y-106577142D01*
X148200476Y-106624761D01*
X148105238Y-106672380D01*
X147819523Y-106672380D01*
X147724285Y-106624761D01*
X147676666Y-106577142D01*
%TO.C,U2*%
X149878095Y-98612380D02*
X149878095Y-99421904D01*
X149925714Y-99517142D01*
X149973333Y-99564761D01*
X150068571Y-99612380D01*
X150259047Y-99612380D01*
X150354285Y-99564761D01*
X150401904Y-99517142D01*
X150449523Y-99421904D01*
X150449523Y-98612380D01*
X150878095Y-98707619D02*
X150925714Y-98660000D01*
X151020952Y-98612380D01*
X151259047Y-98612380D01*
X151354285Y-98660000D01*
X151401904Y-98707619D01*
X151449523Y-98802857D01*
X151449523Y-98898095D01*
X151401904Y-99040952D01*
X150830476Y-99612380D01*
X151449523Y-99612380D01*
%TO.C,D4*%
X138941904Y-116082380D02*
X138941904Y-115082380D01*
X139180000Y-115082380D01*
X139322857Y-115130000D01*
X139418095Y-115225238D01*
X139465714Y-115320476D01*
X139513333Y-115510952D01*
X139513333Y-115653809D01*
X139465714Y-115844285D01*
X139418095Y-115939523D01*
X139322857Y-116034761D01*
X139180000Y-116082380D01*
X138941904Y-116082380D01*
X140370476Y-115415714D02*
X140370476Y-116082380D01*
X140132380Y-115034761D02*
X139894285Y-115749047D01*
X140513333Y-115749047D01*
%TO.C,C2*%
X153363333Y-62752142D02*
X153315714Y-62799761D01*
X153172857Y-62847380D01*
X153077619Y-62847380D01*
X152934761Y-62799761D01*
X152839523Y-62704523D01*
X152791904Y-62609285D01*
X152744285Y-62418809D01*
X152744285Y-62275952D01*
X152791904Y-62085476D01*
X152839523Y-61990238D01*
X152934761Y-61895000D01*
X153077619Y-61847380D01*
X153172857Y-61847380D01*
X153315714Y-61895000D01*
X153363333Y-61942619D01*
X153744285Y-61942619D02*
X153791904Y-61895000D01*
X153887142Y-61847380D01*
X154125238Y-61847380D01*
X154220476Y-61895000D01*
X154268095Y-61942619D01*
X154315714Y-62037857D01*
X154315714Y-62133095D01*
X154268095Y-62275952D01*
X153696666Y-62847380D01*
X154315714Y-62847380D01*
%TO.C,IC1*%
X154707238Y-70033123D02*
X154707238Y-69393123D01*
X155377714Y-69972171D02*
X155347238Y-70002647D01*
X155255809Y-70033123D01*
X155194857Y-70033123D01*
X155103428Y-70002647D01*
X155042476Y-69941695D01*
X155012000Y-69880742D01*
X154981523Y-69758838D01*
X154981523Y-69667409D01*
X155012000Y-69545504D01*
X155042476Y-69484552D01*
X155103428Y-69423600D01*
X155194857Y-69393123D01*
X155255809Y-69393123D01*
X155347238Y-69423600D01*
X155377714Y-69454076D01*
X155987238Y-70033123D02*
X155621523Y-70033123D01*
X155804380Y-70033123D02*
X155804380Y-69393123D01*
X155743428Y-69484552D01*
X155682476Y-69545504D01*
X155621523Y-69575980D01*
%TO.C,SC4*%
X122524761Y-71111904D02*
X122572380Y-70969047D01*
X122572380Y-70730952D01*
X122524761Y-70635714D01*
X122477142Y-70588095D01*
X122381904Y-70540476D01*
X122286666Y-70540476D01*
X122191428Y-70588095D01*
X122143809Y-70635714D01*
X122096190Y-70730952D01*
X122048571Y-70921428D01*
X122000952Y-71016666D01*
X121953333Y-71064285D01*
X121858095Y-71111904D01*
X121762857Y-71111904D01*
X121667619Y-71064285D01*
X121620000Y-71016666D01*
X121572380Y-70921428D01*
X121572380Y-70683333D01*
X121620000Y-70540476D01*
X122477142Y-69540476D02*
X122524761Y-69588095D01*
X122572380Y-69730952D01*
X122572380Y-69826190D01*
X122524761Y-69969047D01*
X122429523Y-70064285D01*
X122334285Y-70111904D01*
X122143809Y-70159523D01*
X122000952Y-70159523D01*
X121810476Y-70111904D01*
X121715238Y-70064285D01*
X121620000Y-69969047D01*
X121572380Y-69826190D01*
X121572380Y-69730952D01*
X121620000Y-69588095D01*
X121667619Y-69540476D01*
X121905714Y-68683333D02*
X122572380Y-68683333D01*
X121524761Y-68921428D02*
X122239047Y-69159523D01*
X122239047Y-68540476D01*
D11*
X137584285Y-70992857D02*
X137584285Y-68707142D01*
X105834285Y-70992857D02*
X105834285Y-68707142D01*
X106977142Y-69850000D02*
X104691428Y-69850000D01*
D10*
%TO.C,SC6*%
X177344761Y-101181904D02*
X177392380Y-101039047D01*
X177392380Y-100800952D01*
X177344761Y-100705714D01*
X177297142Y-100658095D01*
X177201904Y-100610476D01*
X177106666Y-100610476D01*
X177011428Y-100658095D01*
X176963809Y-100705714D01*
X176916190Y-100800952D01*
X176868571Y-100991428D01*
X176820952Y-101086666D01*
X176773333Y-101134285D01*
X176678095Y-101181904D01*
X176582857Y-101181904D01*
X176487619Y-101134285D01*
X176440000Y-101086666D01*
X176392380Y-100991428D01*
X176392380Y-100753333D01*
X176440000Y-100610476D01*
X177297142Y-99610476D02*
X177344761Y-99658095D01*
X177392380Y-99800952D01*
X177392380Y-99896190D01*
X177344761Y-100039047D01*
X177249523Y-100134285D01*
X177154285Y-100181904D01*
X176963809Y-100229523D01*
X176820952Y-100229523D01*
X176630476Y-100181904D01*
X176535238Y-100134285D01*
X176440000Y-100039047D01*
X176392380Y-99896190D01*
X176392380Y-99800952D01*
X176440000Y-99658095D01*
X176487619Y-99610476D01*
X176392380Y-98753333D02*
X176392380Y-98943809D01*
X176440000Y-99039047D01*
X176487619Y-99086666D01*
X176630476Y-99181904D01*
X176820952Y-99229523D01*
X177201904Y-99229523D01*
X177297142Y-99181904D01*
X177344761Y-99134285D01*
X177392380Y-99039047D01*
X177392380Y-98848571D01*
X177344761Y-98753333D01*
X177297142Y-98705714D01*
X177201904Y-98658095D01*
X176963809Y-98658095D01*
X176868571Y-98705714D01*
X176820952Y-98753333D01*
X176773333Y-98848571D01*
X176773333Y-99039047D01*
X176820952Y-99134285D01*
X176868571Y-99181904D01*
X176963809Y-99229523D01*
D11*
X161904285Y-101062857D02*
X161904285Y-98777142D01*
X193654285Y-101062857D02*
X193654285Y-98777142D01*
X194797142Y-99920000D02*
X192511428Y-99920000D01*
D10*
%TO.C,SC2*%
X175498095Y-57844761D02*
X175640952Y-57892380D01*
X175879047Y-57892380D01*
X175974285Y-57844761D01*
X176021904Y-57797142D01*
X176069523Y-57701904D01*
X176069523Y-57606666D01*
X176021904Y-57511428D01*
X175974285Y-57463809D01*
X175879047Y-57416190D01*
X175688571Y-57368571D01*
X175593333Y-57320952D01*
X175545714Y-57273333D01*
X175498095Y-57178095D01*
X175498095Y-57082857D01*
X175545714Y-56987619D01*
X175593333Y-56940000D01*
X175688571Y-56892380D01*
X175926666Y-56892380D01*
X176069523Y-56940000D01*
X177069523Y-57797142D02*
X177021904Y-57844761D01*
X176879047Y-57892380D01*
X176783809Y-57892380D01*
X176640952Y-57844761D01*
X176545714Y-57749523D01*
X176498095Y-57654285D01*
X176450476Y-57463809D01*
X176450476Y-57320952D01*
X176498095Y-57130476D01*
X176545714Y-57035238D01*
X176640952Y-56940000D01*
X176783809Y-56892380D01*
X176879047Y-56892380D01*
X177021904Y-56940000D01*
X177069523Y-56987619D01*
X177450476Y-56987619D02*
X177498095Y-56940000D01*
X177593333Y-56892380D01*
X177831428Y-56892380D01*
X177926666Y-56940000D01*
X177974285Y-56987619D01*
X178021904Y-57082857D01*
X178021904Y-57178095D01*
X177974285Y-57320952D01*
X177402857Y-57892380D01*
X178021904Y-57892380D01*
D11*
X175617142Y-72904285D02*
X177902857Y-72904285D01*
X175617142Y-41154285D02*
X177902857Y-41154285D01*
X176760000Y-42297142D02*
X176760000Y-40011428D01*
D10*
%TO.C,D2*%
X108642380Y-53328095D02*
X107642380Y-53328095D01*
X107642380Y-53090000D01*
X107690000Y-52947142D01*
X107785238Y-52851904D01*
X107880476Y-52804285D01*
X108070952Y-52756666D01*
X108213809Y-52756666D01*
X108404285Y-52804285D01*
X108499523Y-52851904D01*
X108594761Y-52947142D01*
X108642380Y-53090000D01*
X108642380Y-53328095D01*
X107737619Y-52375714D02*
X107690000Y-52328095D01*
X107642380Y-52232857D01*
X107642380Y-51994761D01*
X107690000Y-51899523D01*
X107737619Y-51851904D01*
X107832857Y-51804285D01*
X107928095Y-51804285D01*
X108070952Y-51851904D01*
X108642380Y-52423333D01*
X108642380Y-51804285D01*
%TO.C,SC1*%
X132774761Y-47891904D02*
X132822380Y-47749047D01*
X132822380Y-47510952D01*
X132774761Y-47415714D01*
X132727142Y-47368095D01*
X132631904Y-47320476D01*
X132536666Y-47320476D01*
X132441428Y-47368095D01*
X132393809Y-47415714D01*
X132346190Y-47510952D01*
X132298571Y-47701428D01*
X132250952Y-47796666D01*
X132203333Y-47844285D01*
X132108095Y-47891904D01*
X132012857Y-47891904D01*
X131917619Y-47844285D01*
X131870000Y-47796666D01*
X131822380Y-47701428D01*
X131822380Y-47463333D01*
X131870000Y-47320476D01*
X132727142Y-46320476D02*
X132774761Y-46368095D01*
X132822380Y-46510952D01*
X132822380Y-46606190D01*
X132774761Y-46749047D01*
X132679523Y-46844285D01*
X132584285Y-46891904D01*
X132393809Y-46939523D01*
X132250952Y-46939523D01*
X132060476Y-46891904D01*
X131965238Y-46844285D01*
X131870000Y-46749047D01*
X131822380Y-46606190D01*
X131822380Y-46510952D01*
X131870000Y-46368095D01*
X131917619Y-46320476D01*
X132822380Y-45368095D02*
X132822380Y-45939523D01*
X132822380Y-45653809D02*
X131822380Y-45653809D01*
X131965238Y-45749047D01*
X132060476Y-45844285D01*
X132108095Y-45939523D01*
D11*
X116084285Y-47772857D02*
X116084285Y-45487142D01*
X117227142Y-46630000D02*
X114941428Y-46630000D01*
X147834285Y-47772857D02*
X147834285Y-45487142D01*
%TO.C,D3*%
G36*
X139894800Y-107795400D02*
G01*
X139082000Y-108405000D01*
X139082000Y-107058800D01*
X139894800Y-107795400D01*
G37*
D12*
X139894800Y-107795400D02*
X139082000Y-108405000D01*
X139082000Y-107058800D01*
X139894800Y-107795400D01*
D13*
X141965000Y-106320000D02*
X137215000Y-106320000D01*
X137215000Y-106320000D02*
X137215000Y-109220000D01*
X140021800Y-108582800D02*
X140021800Y-107033400D01*
X141965000Y-106320000D02*
X141965000Y-109220000D01*
X141965000Y-109220000D02*
X137215000Y-109220000D01*
%TO.C,D5*%
X159235000Y-71610000D02*
X159235000Y-69325000D01*
X157765000Y-69325000D02*
X157765000Y-71610000D01*
X157765000Y-71610000D02*
X159235000Y-71610000D01*
%TO.C,C5*%
X147741252Y-99485000D02*
X147218748Y-99485000D01*
X147741252Y-98015000D02*
X147218748Y-98015000D01*
%TO.C,U3*%
X151480000Y-65480000D02*
G75*
G03*
X151480000Y-65480000I-50000J0D01*
G01*
X151580000Y-65780000D02*
X151680000Y-65780000D01*
X151530000Y-67880000D02*
X151230000Y-67880000D01*
X151530000Y-67880000D02*
X151630000Y-67880000D01*
X154930000Y-65780000D02*
X155230000Y-65780000D01*
X151230000Y-67880000D02*
X151530000Y-67880000D01*
X155230000Y-65780000D02*
X155230000Y-66030000D01*
X154880000Y-67880000D02*
X154780000Y-67880000D01*
X151280000Y-65780000D02*
X151580000Y-65780000D01*
X151230000Y-67880000D02*
X151230000Y-67630000D01*
X155230000Y-65780000D02*
X154930000Y-65780000D01*
X151280000Y-65780000D02*
X151280000Y-66030000D01*
X154930000Y-65780000D02*
X154830000Y-65780000D01*
X155180000Y-67880000D02*
X155180000Y-67630000D01*
X155180000Y-67880000D02*
X154880000Y-67880000D01*
X154880000Y-67880000D02*
X155180000Y-67880000D01*
X151580000Y-65780000D02*
X151280000Y-65780000D01*
%TO.C,SC5*%
X145930000Y-111740000D02*
X150680000Y-111740000D01*
X187930000Y-116490000D02*
X187930000Y-111740000D01*
X156930000Y-111740000D02*
X175180000Y-111740000D01*
X166930000Y-111740000D02*
X176930000Y-111740000D01*
X175180000Y-111740000D02*
X166930000Y-111740000D01*
X187930000Y-134740000D02*
X187930000Y-129990000D01*
X187930000Y-111740000D02*
X183180000Y-111740000D01*
X145930000Y-134740000D02*
X150680000Y-134740000D01*
X166930000Y-111740000D02*
X156930000Y-111740000D01*
X145930000Y-116490000D02*
X145930000Y-111740000D01*
X145930000Y-134740000D02*
X145930000Y-129990000D01*
X187930000Y-134740000D02*
X183180000Y-134740000D01*
X145930000Y-129990000D02*
X145930000Y-134740000D01*
X156930000Y-134740000D02*
X176930000Y-134740000D01*
X166930000Y-134740000D02*
X156930000Y-134740000D01*
%TO.C,SC3*%
X110220000Y-92090000D02*
X110220000Y-96840000D01*
X110220000Y-123090000D02*
X110220000Y-104840000D01*
X133220000Y-92090000D02*
X128470000Y-92090000D01*
X110220000Y-134090000D02*
X110220000Y-129340000D01*
X110220000Y-113090000D02*
X110220000Y-103090000D01*
X133220000Y-92090000D02*
X133220000Y-96840000D01*
X133220000Y-123090000D02*
X133220000Y-103090000D01*
X110220000Y-104840000D02*
X110220000Y-113090000D01*
X128470000Y-134090000D02*
X133220000Y-134090000D01*
X114970000Y-134090000D02*
X110220000Y-134090000D01*
X114970000Y-92090000D02*
X110220000Y-92090000D01*
X133220000Y-134090000D02*
X133220000Y-129340000D01*
X133220000Y-113090000D02*
X133220000Y-123090000D01*
X110220000Y-113090000D02*
X110220000Y-123090000D01*
X133220000Y-134090000D02*
X128470000Y-134090000D01*
%TO.C,R2*%
X158982500Y-65877742D02*
X158982500Y-66352258D01*
X157937500Y-65877742D02*
X157937500Y-66352258D01*
%TO.C,C3*%
X147771252Y-105275000D02*
X147248748Y-105275000D01*
X147771252Y-103805000D02*
X147248748Y-103805000D01*
%TO.C,U2*%
X150640000Y-103220000D02*
X149140000Y-103220000D01*
X150640000Y-100000000D02*
X152140000Y-100000000D01*
X150640000Y-100000000D02*
X147715000Y-100000000D01*
X150640000Y-103220000D02*
X152140000Y-103220000D01*
%TO.C,D4*%
G36*
X140188000Y-113801200D02*
G01*
X139375200Y-113064600D01*
X140188000Y-112455000D01*
X140188000Y-113801200D01*
G37*
D12*
X140188000Y-113801200D02*
X139375200Y-113064600D01*
X140188000Y-112455000D01*
X140188000Y-113801200D01*
D13*
X142055000Y-114540000D02*
X142055000Y-111640000D01*
X137305000Y-111640000D02*
X142055000Y-111640000D01*
X137305000Y-114540000D02*
X137305000Y-111640000D01*
X137305000Y-114540000D02*
X142055000Y-114540000D01*
X139248200Y-112277200D02*
X139248200Y-113826600D01*
%TO.C,C2*%
X153811252Y-65020000D02*
X153288748Y-65020000D01*
X153811252Y-63550000D02*
X153288748Y-63550000D01*
D14*
%TO.C,IC1*%
X152650000Y-72095000D02*
G75*
G03*
X152650000Y-72095000I-100000J0D01*
G01*
D15*
X153750000Y-77400000D02*
X153750000Y-76575000D01*
X156750000Y-70600000D02*
X156750000Y-77400000D01*
X156750000Y-77400000D02*
X153750000Y-77400000D01*
X153750000Y-70600000D02*
X156750000Y-70600000D01*
X153750000Y-71425000D02*
X153750000Y-70600000D01*
D13*
%TO.C,SC4*%
X129870000Y-58350000D02*
X121620000Y-58350000D01*
X100620000Y-81350000D02*
X100620000Y-76600000D01*
X100620000Y-63100000D02*
X100620000Y-58350000D01*
X142620000Y-81350000D02*
X137870000Y-81350000D01*
X121620000Y-81350000D02*
X111620000Y-81350000D01*
X111620000Y-58350000D02*
X129870000Y-58350000D01*
X121620000Y-58350000D02*
X131620000Y-58350000D01*
X100620000Y-58350000D02*
X105370000Y-58350000D01*
X100620000Y-76600000D02*
X100620000Y-81350000D01*
X142620000Y-58350000D02*
X137870000Y-58350000D01*
X100620000Y-81350000D02*
X105370000Y-81350000D01*
X111620000Y-81350000D02*
X131620000Y-81350000D01*
X142620000Y-63100000D02*
X142620000Y-58350000D01*
X121620000Y-58350000D02*
X111620000Y-58350000D01*
X142620000Y-81350000D02*
X142620000Y-76600000D01*
%TO.C,SC6*%
X156440000Y-111420000D02*
X161190000Y-111420000D01*
X156440000Y-106670000D02*
X156440000Y-111420000D01*
X198440000Y-88420000D02*
X198440000Y-93170000D01*
X198440000Y-88420000D02*
X193690000Y-88420000D01*
X198440000Y-93170000D02*
X198440000Y-88420000D01*
X177440000Y-111420000D02*
X187440000Y-111420000D01*
X198440000Y-106670000D02*
X198440000Y-111420000D01*
X177440000Y-88420000D02*
X187440000Y-88420000D01*
X187440000Y-88420000D02*
X167440000Y-88420000D01*
X177440000Y-111420000D02*
X167440000Y-111420000D01*
X156440000Y-88420000D02*
X161190000Y-88420000D01*
X198440000Y-111420000D02*
X193690000Y-111420000D01*
X156440000Y-88420000D02*
X156440000Y-93170000D01*
X187440000Y-111420000D02*
X169190000Y-111420000D01*
X169190000Y-111420000D02*
X177440000Y-111420000D01*
%TO.C,SC2*%
X183510000Y-77940000D02*
X188260000Y-77940000D01*
X165260000Y-35940000D02*
X165260000Y-40690000D01*
X165260000Y-46940000D02*
X165260000Y-66940000D01*
X165260000Y-77940000D02*
X165260000Y-73190000D01*
X188260000Y-56940000D02*
X188260000Y-46940000D01*
X170010000Y-35940000D02*
X165260000Y-35940000D01*
X165260000Y-56940000D02*
X165260000Y-46940000D01*
X183510000Y-35940000D02*
X188260000Y-35940000D01*
X165260000Y-77940000D02*
X170010000Y-77940000D01*
X188260000Y-35940000D02*
X188260000Y-40690000D01*
X188260000Y-46940000D02*
X188260000Y-65190000D01*
X188260000Y-77940000D02*
X188260000Y-73190000D01*
X188260000Y-65190000D02*
X188260000Y-56940000D01*
X165260000Y-35940000D02*
X170010000Y-35940000D01*
X188260000Y-56940000D02*
X188260000Y-66940000D01*
%TO.C,D2*%
G36*
X105624600Y-52894800D02*
G01*
X105015000Y-52082000D01*
X106361200Y-52082000D01*
X105624600Y-52894800D01*
G37*
D12*
X105624600Y-52894800D02*
X105015000Y-52082000D01*
X106361200Y-52082000D01*
X105624600Y-52894800D01*
D13*
X104200000Y-54965000D02*
X104200000Y-50215000D01*
X107100000Y-50215000D02*
X104200000Y-50215000D01*
X107100000Y-54965000D02*
X107100000Y-50215000D01*
X107100000Y-54965000D02*
X104200000Y-54965000D01*
X104837200Y-53021800D02*
X106386600Y-53021800D01*
%TO.C,SC1*%
X110870000Y-58130000D02*
X110870000Y-53380000D01*
X131870000Y-35130000D02*
X141870000Y-35130000D01*
X140120000Y-35130000D02*
X131870000Y-35130000D01*
X110870000Y-35130000D02*
X115620000Y-35130000D01*
X110870000Y-58130000D02*
X115620000Y-58130000D01*
X152870000Y-35130000D02*
X148120000Y-35130000D01*
X152870000Y-58130000D02*
X148120000Y-58130000D01*
X152870000Y-58130000D02*
X152870000Y-53380000D01*
X110870000Y-39880000D02*
X110870000Y-35130000D01*
X121870000Y-35130000D02*
X140120000Y-35130000D01*
X131870000Y-58130000D02*
X121870000Y-58130000D01*
X152870000Y-39880000D02*
X152870000Y-35130000D01*
X121870000Y-58130000D02*
X141870000Y-58130000D01*
X131870000Y-35130000D02*
X121870000Y-35130000D01*
X110870000Y-53380000D02*
X110870000Y-58130000D01*
%TD*%
%LPC*%
D16*
%TO.C,J3*%
X110500000Y-85000000D03*
%TD*%
%TO.C,J4*%
X141750000Y-124000000D03*
%TD*%
%TO.C,J5*%
X157250000Y-46000000D03*
%TD*%
%TO.C,J6*%
X188500000Y-85000000D03*
%TD*%
D17*
%TO.C,D3*%
X137590000Y-107770000D03*
X141590000Y-107770000D03*
%TD*%
D18*
%TO.C,TP1*%
X104050000Y-106110000D03*
%TD*%
D19*
%TO.C,D5*%
X158500000Y-69337500D03*
X158500000Y-70912500D03*
%TD*%
D20*
%TO.C,C5*%
X146530000Y-98750000D03*
X148430000Y-98750000D03*
%TD*%
D21*
%TO.C,U3*%
X153230000Y-66830000D03*
D22*
X154680000Y-66080000D03*
X154680000Y-66580000D03*
X154680000Y-67080000D03*
X154680000Y-67580000D03*
X151780000Y-67580000D03*
X151780000Y-67080000D03*
X151780000Y-66580000D03*
X151780000Y-66080000D03*
%TD*%
D23*
%TO.C,SC5*%
X186930000Y-123240000D03*
X146930000Y-123240000D03*
%TD*%
D18*
%TO.C,TP2*%
X104080000Y-112590000D03*
%TD*%
D24*
%TO.C,SC3*%
X121720000Y-93090000D03*
X121720000Y-133090000D03*
%TD*%
D25*
%TO.C,R2*%
X158460000Y-66940000D03*
X158460000Y-65290000D03*
%TD*%
D20*
%TO.C,C3*%
X146560000Y-104540000D03*
X148460000Y-104540000D03*
%TD*%
D26*
%TO.C,U2*%
X152840000Y-100610000D03*
X152840000Y-101110000D03*
X152840000Y-101610000D03*
X152840000Y-102110000D03*
X152840000Y-102610000D03*
X148440000Y-102610000D03*
X148440000Y-102110000D03*
X148440000Y-101610000D03*
X148440000Y-101110000D03*
X148440000Y-100610000D03*
%TD*%
D17*
%TO.C,D4*%
X141680000Y-113090000D03*
X137680000Y-113090000D03*
%TD*%
D20*
%TO.C,C2*%
X152600000Y-64285000D03*
X154500000Y-64285000D03*
%TD*%
D27*
%TO.C,IC1*%
X154350000Y-75905000D03*
X154350000Y-74635000D03*
X154350000Y-73365000D03*
X154350000Y-72095000D03*
%TD*%
D23*
%TO.C,SC4*%
X141620000Y-69850000D03*
X101620000Y-69850000D03*
%TD*%
%TO.C,SC6*%
X157440000Y-99920000D03*
X197440000Y-99920000D03*
%TD*%
D24*
%TO.C,SC2*%
X176760000Y-76940000D03*
X176760000Y-36940000D03*
%TD*%
D28*
%TO.C,D2*%
X105650000Y-50590000D03*
X105650000Y-54590000D03*
%TD*%
D23*
%TO.C,SC1*%
X151870000Y-46630000D03*
X111870000Y-46630000D03*
%TD*%
D29*
%TO.C,J2*%
X150689922Y-86520000D03*
X150689922Y-83020000D03*
%TD*%
M02*
