%TF.GenerationSoftware,KiCad,Pcbnew,(6.0.7)*%
%TF.CreationDate,2023-01-31T02:36:05-08:00*%
%TF.ProjectId,solar-panel-side-Z,736f6c61-722d-4706-916e-656c2d736964,2.0*%
%TF.SameCoordinates,Original*%
%TF.FileFunction,Paste,Bot*%
%TF.FilePolarity,Positive*%
%FSLAX46Y46*%
G04 Gerber Fmt 4.6, Leading zero omitted, Abs format (unit mm)*
G04 Created by KiCad (PCBNEW (6.0.7)) date 2023-01-31 02:36:05*
%MOMM*%
%LPD*%
G01*
G04 APERTURE LIST*
G04 Aperture macros list*
%AMRoundRect*
0 Rectangle with rounded corners*
0 $1 Rounding radius*
0 $2 $3 $4 $5 $6 $7 $8 $9 X,Y pos of 4 corners*
0 Add a 4 corners polygon primitive as box body*
4,1,4,$2,$3,$4,$5,$6,$7,$8,$9,$2,$3,0*
0 Add four circle primitives for the rounded corners*
1,1,$1+$1,$2,$3*
1,1,$1+$1,$4,$5*
1,1,$1+$1,$6,$7*
1,1,$1+$1,$8,$9*
0 Add four rect primitives between the rounded corners*
20,1,$1+$1,$2,$3,$4,$5,0*
20,1,$1+$1,$4,$5,$6,$7,0*
20,1,$1+$1,$6,$7,$8,$9,0*
20,1,$1+$1,$8,$9,$2,$3,0*%
%AMFreePoly0*
4,1,5,1.660000,-1.660000,-1.660000,-1.660000,-1.660000,1.660000,1.660000,1.660000,1.660000,-1.660000,1.660000,-1.660000,$1*%
%AMFreePoly1*
4,1,5,0.190000,-0.275000,-0.190000,-0.275000,-0.190000,0.275000,0.190000,0.275000,0.190000,-0.275000,0.190000,-0.275000,$1*%
G04 Aperture macros list end*
%ADD10R,1.250000X1.800000*%
%ADD11R,0.600000X1.000000*%
%ADD12RoundRect,0.200000X-0.200000X-0.275000X0.200000X-0.275000X0.200000X0.275000X-0.200000X0.275000X0*%
%ADD13RoundRect,0.200000X0.200000X0.275000X-0.200000X0.275000X-0.200000X-0.275000X0.200000X-0.275000X0*%
%ADD14R,0.650000X0.400000*%
%ADD15RoundRect,0.200000X0.275000X-0.200000X0.275000X0.200000X-0.275000X0.200000X-0.275000X-0.200000X0*%
%ADD16RoundRect,0.250000X-0.475000X0.250000X-0.475000X-0.250000X0.475000X-0.250000X0.475000X0.250000X0*%
%ADD17FreePoly0,0.000000*%
%ADD18FreePoly1,0.000000*%
%ADD19FreePoly1,270.000000*%
%ADD20FreePoly1,180.000000*%
G04 APERTURE END LIST*
D10*
%TO.C,J1*%
X133145001Y-104940000D03*
X144354999Y-104940000D03*
D11*
X135749999Y-99750000D03*
X137249999Y-99750000D03*
X138750001Y-99750000D03*
X140250000Y-99750000D03*
X141750000Y-99750000D03*
%TD*%
D12*
%TO.C,R4*%
X165589922Y-86470000D03*
X163939922Y-86470000D03*
%TD*%
D13*
%TO.C,R5*%
X163979922Y-83250000D03*
X165629922Y-83250000D03*
%TD*%
D14*
%TO.C,D1*%
X162389922Y-85430000D03*
X162389922Y-84780000D03*
X162389922Y-84130000D03*
X160489922Y-84130000D03*
X160489922Y-84780000D03*
X160489922Y-85430000D03*
%TD*%
D15*
%TO.C,R6*%
X157169922Y-83980000D03*
X157169922Y-85630000D03*
%TD*%
D16*
%TO.C,C6*%
X167559922Y-85880000D03*
X167559922Y-83980000D03*
%TD*%
D13*
%TO.C,R1*%
X160729922Y-87190000D03*
X162379922Y-87190000D03*
%TD*%
D12*
%TO.C,FB1*%
X159249922Y-87210000D03*
X157599922Y-87210000D03*
%TD*%
D17*
%TO.C,U4*%
X172770000Y-85030000D03*
D18*
X171470000Y-87280000D03*
X172120000Y-87280000D03*
X172770000Y-87280000D03*
X173420000Y-87280000D03*
X174070000Y-87280000D03*
D19*
X175020000Y-86330000D03*
X175020000Y-85680000D03*
X175020000Y-85030000D03*
X175020000Y-84380000D03*
X175020000Y-83730000D03*
D20*
X174070000Y-82780000D03*
X173420000Y-82780000D03*
X172770000Y-82780000D03*
X172120000Y-82780000D03*
X171470000Y-82780000D03*
D19*
X170520000Y-83730000D03*
X170520000Y-84380000D03*
X170520000Y-85030000D03*
X170520000Y-85680000D03*
X170520000Y-86330000D03*
%TD*%
D12*
%TO.C,R3*%
X162409922Y-82330000D03*
X160759922Y-82330000D03*
%TD*%
%TO.C,FB2*%
X159289922Y-82330000D03*
X157639922Y-82330000D03*
%TD*%
M02*
