M48
; DRILL file {KiCad (6.0.7)} date Tue Jan 31 02:36:05 2023
; FORMAT={-:-/ absolute / inch / decimal}
; #@! TF.CreationDate,2023-01-31T02:36:05-08:00
; #@! TF.GenerationSoftware,Kicad,Pcbnew,(6.0.7)
; #@! TF.FileFunction,Plated,1,4,PTH
FMAT,2
INCH
; #@! TA.AperFunction,Plated,PTH,ViaDrill
T1C0.0157
; #@! TA.AperFunction,Plated,PTH,ComponentDrill
T2C0.0433
; #@! TA.AperFunction,Plated,PTH,ComponentDrill
T3C0.1161
%
G90
G05
T1
X4.2185Y-4.4327
X5.4652Y-4.014
X5.5594Y-3.7476
X5.5744Y-4.0484
X5.6433Y-3.4807
X5.6604Y-3.5278
X5.6799Y-3.9193
X5.7217Y-2.75
X5.8685Y-3.7882
X5.9035Y-2.9911
X5.9083Y-3.9524
X5.9189Y-4.0504
X5.937Y-4.7862
X5.939Y-4.3028
X5.9425Y-3.9748
X5.9807Y-4.7882
X6.0112Y-2.9921
X6.0433Y-2.7071
X6.0728Y-3.9346
X6.1933Y-2.8547
X6.2717Y-3.3378
X6.272Y-3.1917
X6.348Y-3.2827
X6.3939Y-3.1923
X6.4571Y-3.3504
X6.5098Y-3.3488
X6.5906Y-3.0291
X6.7657Y-3.3476
X6.7709Y-3.1898
X6.8016Y-3.3087
X6.802Y-3.3476
X6.802Y-3.3839
X6.8386Y-3.3476
T2
X5.9327Y-3.2685
X5.9327Y-3.4063
T3
X4.3504Y-3.3465
X5.5807Y-4.8819
X6.1909Y-1.811
X7.4213Y-3.3465
T0
M30
