%TF.GenerationSoftware,KiCad,Pcbnew,(6.0.7)*%
%TF.CreationDate,2023-01-31T02:36:04-08:00*%
%TF.ProjectId,solar-panel-side-Z,736f6c61-722d-4706-916e-656c2d736964,2.0*%
%TF.SameCoordinates,Original*%
%TF.FileFunction,Copper,L2,Inr*%
%TF.FilePolarity,Positive*%
%FSLAX46Y46*%
G04 Gerber Fmt 4.6, Leading zero omitted, Abs format (unit mm)*
G04 Created by KiCad (PCBNEW (6.0.7)) date 2023-01-31 02:36:05*
%MOMM*%
%LPD*%
G01*
G04 APERTURE LIST*
%TA.AperFunction,ComponentPad*%
%ADD10C,5.250000*%
%TD*%
%TA.AperFunction,ComponentPad*%
%ADD11C,1.800000*%
%TD*%
%TA.AperFunction,ViaPad*%
%ADD12C,0.800000*%
%TD*%
%TA.AperFunction,Conductor*%
%ADD13C,0.500000*%
%TD*%
%TA.AperFunction,Conductor*%
%ADD14C,0.250000*%
%TD*%
G04 APERTURE END LIST*
D10*
%TO.N,unconnected-(J3-Pad1)*%
%TO.C,J3*%
X110500000Y-85000000D03*
%TD*%
%TO.N,unconnected-(J4-Pad1)*%
%TO.C,J4*%
X141750000Y-124000000D03*
%TD*%
%TO.N,unconnected-(J5-Pad1)*%
%TO.C,J5*%
X157250000Y-46000000D03*
%TD*%
%TO.N,unconnected-(J6-Pad1)*%
%TO.C,J6*%
X188500000Y-85000000D03*
%TD*%
D11*
%TO.N,Net-(FB1-Pad1)*%
%TO.C,J2*%
X150689922Y-86520000D03*
%TO.N,Net-(FB2-Pad1)*%
X150689922Y-83020000D03*
%TD*%
D12*
%TO.N,+3V3*%
X138815000Y-101955000D03*
%TO.N,GND*%
X172760000Y-84040000D03*
X173700000Y-85030000D03*
X171850000Y-85030000D03*
X172770000Y-85950000D03*
X172770000Y-85030000D03*
X107150000Y-112590000D03*
X149060000Y-96220000D03*
X157310000Y-72510000D03*
X145330000Y-69850000D03*
X144270000Y-99550000D03*
X167400000Y-76940000D03*
X153500000Y-68760000D03*
%TO.N,+3V3*%
X159299922Y-84780000D03*
X141210000Y-95190000D03*
X150340000Y-102880000D03*
X171980000Y-81020000D03*
X164009922Y-85100000D03*
X154250000Y-99940000D03*
%TO.N,VSOLAR*%
X141590000Y-102830000D03*
%TO.N,SDA*%
X149950000Y-75975000D03*
X150940000Y-100960000D03*
X143340000Y-88410000D03*
X152684500Y-76000000D03*
%TO.N,SCL*%
X143775000Y-89605000D03*
X150070000Y-100390000D03*
%TO.N,Net-(D1-Pad3)*%
X161239922Y-83380000D03*
X159309922Y-81070000D03*
%TO.N,VSense*%
X162404922Y-81085000D03*
X165349922Y-85060000D03*
%TO.N,Net-(U2-Pad7)*%
X150800000Y-121570000D03*
X150850000Y-109290000D03*
X151910000Y-121620000D03*
%TD*%
D13*
%TO.N,+3V3*%
X138815000Y-101955000D02*
X138815000Y-97585000D01*
X138815000Y-97585000D02*
X141210000Y-95190000D01*
D14*
%TO.N,Net-(U2-Pad7)*%
X183785000Y-78225000D02*
X182865000Y-74615000D01*
X142125000Y-114665000D02*
X145575000Y-115315000D01*
X137445000Y-106875000D02*
X140295000Y-108225000D01*
X172435000Y-103335000D02*
X174405000Y-100555000D01*
X176855000Y-84895000D02*
X176635000Y-81575000D01*
X142435000Y-110605000D02*
X145645000Y-111285000D01*
X117325000Y-87065000D02*
X117765000Y-90615000D01*
X171225000Y-58705000D02*
X168265000Y-56535000D01*
X128905000Y-61105000D02*
X126365000Y-63575000D01*
X149425000Y-57365000D02*
X146105000Y-57595000D01*
X162075000Y-54195000D02*
X158645000Y-53015000D01*
X119845000Y-96505000D02*
X121305000Y-99725000D01*
X122715000Y-88655000D02*
X123375000Y-91895000D01*
X120775000Y-94375000D02*
X122055000Y-97625000D01*
X138975000Y-61245000D02*
X136115000Y-62745000D01*
X173725000Y-59305000D02*
X170805000Y-56855000D01*
X117425000Y-92845000D02*
X118495000Y-96335000D01*
X147405000Y-120305000D02*
X151155000Y-120325000D01*
X173035000Y-62565000D02*
X170415000Y-60115000D01*
X123875000Y-105775000D02*
X126275000Y-108425000D01*
X123385000Y-90205000D02*
X124215000Y-93325000D01*
X140055000Y-115335000D02*
X143515000Y-116195000D01*
X152175000Y-120665000D02*
X155945000Y-120175000D01*
X150095000Y-54965000D02*
X146625000Y-55115000D01*
X138635000Y-111425000D02*
X141815000Y-112515000D01*
X131535000Y-58565000D02*
X128725000Y-60735000D01*
X176735000Y-69515000D02*
X174825000Y-66565000D01*
X176255000Y-61335000D02*
X173595000Y-58645000D01*
X162615000Y-112605000D02*
X165675000Y-110935000D01*
X148975000Y-50175000D02*
X145275000Y-50435000D01*
X132005000Y-112955000D02*
X135195000Y-114705000D01*
X121985000Y-103925000D02*
X124235000Y-106835000D01*
X125645000Y-92505000D02*
X126815000Y-95495000D01*
X129715000Y-114325000D02*
X132965000Y-116275000D01*
X174665000Y-109275000D02*
X177115000Y-106445000D01*
X155365000Y-53485000D02*
X151875000Y-53045000D01*
X178555000Y-80865000D02*
X177865000Y-77485000D01*
X172595000Y-63845000D02*
X170055000Y-61385000D01*
X184505000Y-90015000D02*
X184835000Y-86265000D01*
X178775000Y-100145000D02*
X180265000Y-96835000D01*
X181235000Y-83875000D02*
X180905000Y-80325000D01*
X143325000Y-109195000D02*
X146405000Y-109775000D01*
X131125000Y-104215000D02*
X133655000Y-106345000D01*
X158895000Y-54755000D02*
X155445000Y-53905000D01*
X159415000Y-117275000D02*
X162845000Y-116015000D01*
X166755000Y-64885000D02*
X164175000Y-62945000D01*
X132785000Y-54965000D02*
X129665000Y-56945000D01*
X139825000Y-110605000D02*
X143005000Y-111585000D01*
X145055000Y-114435000D02*
X148495000Y-114745000D01*
X158765000Y-53465000D02*
X155215000Y-52645000D01*
X176955000Y-103245000D02*
X178775000Y-100145000D01*
X127215000Y-98785000D02*
X129055000Y-101375000D01*
X156055000Y-60195000D02*
X152955000Y-59585000D01*
X129565000Y-111775000D02*
X132625000Y-113795000D01*
X177145000Y-79705000D02*
X176325000Y-76485000D01*
X170045000Y-112795000D02*
X172905000Y-110435000D01*
X162765000Y-108475000D02*
X165525000Y-106685000D01*
X120215000Y-93945000D02*
X121445000Y-97245000D01*
X173465000Y-93235000D02*
X174315000Y-90125000D01*
X137925000Y-56905000D02*
X134775000Y-58435000D01*
X133535000Y-112475000D02*
X136735000Y-114095000D01*
X142725000Y-113165000D02*
X146085000Y-113765000D01*
X182055000Y-85475000D02*
X181895000Y-81835000D01*
X140665000Y-56755000D02*
X137485000Y-57965000D01*
X128375000Y-56405000D02*
X125495000Y-58795000D01*
X145605000Y-117735000D02*
X149215000Y-117965000D01*
X130155000Y-63745000D02*
X127785000Y-66195000D01*
X143215000Y-55655000D02*
X139885000Y-56585000D01*
X140225000Y-55215000D02*
X136945000Y-56455000D01*
X181915000Y-92885000D02*
X182575000Y-89345000D01*
X116115000Y-86855000D02*
X116515000Y-90435000D01*
X136695000Y-61035000D02*
X133905000Y-62765000D01*
X120055000Y-94745000D02*
X121355000Y-98015000D01*
X173135000Y-60955000D02*
X170365000Y-58535000D01*
X166545000Y-113215000D02*
X169525000Y-111185000D01*
X155875000Y-58495000D02*
X152655000Y-57935000D01*
X119385000Y-75845000D02*
X118555000Y-79325000D01*
X115655000Y-85575000D02*
X115935000Y-89245000D01*
X127115000Y-101475000D02*
X129245000Y-104025000D01*
X126335000Y-95445000D02*
X127855000Y-98285000D01*
X175385000Y-71195000D02*
X173565000Y-68245000D01*
X174775000Y-106165000D02*
X176955000Y-103245000D01*
X140295000Y-118735000D02*
X143945000Y-119525000D01*
X124465000Y-67205000D02*
X122605000Y-70195000D01*
X163255000Y-111845000D02*
X166255000Y-110085000D01*
X115905000Y-78245000D02*
X115385000Y-81915000D01*
X161665000Y-57055000D02*
X158385000Y-55855000D01*
X146555000Y-59555000D02*
X143425000Y-60125000D01*
X122275000Y-88365000D02*
X122875000Y-91565000D01*
X164905000Y-62465000D02*
X162055000Y-60775000D01*
X151995000Y-111045000D02*
X155205000Y-110535000D01*
X120745000Y-78575000D02*
X120205000Y-81975000D01*
X125465000Y-96405000D02*
X127035000Y-99245000D01*
X148135000Y-57005000D02*
X144805000Y-57385000D01*
X153115000Y-110505000D02*
X156255000Y-109865000D01*
X181695000Y-73635000D02*
X180275000Y-70225000D01*
X174075000Y-68275000D02*
X171965000Y-65545000D01*
X177625000Y-102955000D02*
X179415000Y-99775000D01*
X150300000Y-109840000D02*
X150850000Y-109290000D01*
X143545000Y-56405000D02*
X140265000Y-57305000D01*
X175495000Y-107785000D02*
X177795000Y-104855000D01*
X123305000Y-86535000D02*
X123705000Y-89735000D01*
X177145000Y-107055000D02*
X179335000Y-103985000D01*
X131275000Y-65985000D02*
X129095000Y-68375000D01*
X147095000Y-116675000D02*
X150605000Y-116745000D01*
X120855000Y-84825000D02*
X121045000Y-88235000D01*
X116105000Y-83165000D02*
X116115000Y-86855000D01*
X121775000Y-95955000D02*
X123245000Y-99105000D01*
X120055000Y-100775000D02*
X121985000Y-103925000D01*
X142395000Y-59575000D02*
X139335000Y-60655000D01*
X129615000Y-107175000D02*
X132325000Y-109335000D01*
X177115000Y-106445000D02*
X179245000Y-103375000D01*
X168935000Y-114065000D02*
X171925000Y-111825000D01*
X118735000Y-93135000D02*
X119845000Y-96505000D01*
X165455000Y-57155000D02*
X162255000Y-55565000D01*
X155365000Y-112545000D02*
X158625000Y-111645000D01*
X150565000Y-50575000D02*
X146885000Y-50675000D01*
X160765000Y-53265000D02*
X157225000Y-52235000D01*
X125285000Y-98655000D02*
X127115000Y-101475000D01*
X128145000Y-109075000D02*
X130935000Y-111285000D01*
X160255000Y-56915000D02*
X156935000Y-55875000D01*
X145935000Y-110115000D02*
X149155000Y-110365000D01*
X182435000Y-86135000D02*
X182365000Y-82585000D01*
X161955000Y-56745000D02*
X158605000Y-55505000D01*
X119205000Y-93335000D02*
X120355000Y-96715000D01*
X176385000Y-63985000D02*
X173965000Y-61225000D01*
X142495000Y-116805000D02*
X146035000Y-117385000D01*
X131705000Y-106335000D02*
X134355000Y-108285000D01*
X178545000Y-96835000D02*
X179685000Y-93505000D01*
X171965000Y-65545000D02*
X169565000Y-63095000D01*
X177105000Y-87925000D02*
X177255000Y-84625000D01*
X171245000Y-71255000D02*
X169375000Y-68675000D01*
X141685000Y-113725000D02*
X145055000Y-114435000D01*
X139285000Y-109095000D02*
X142405000Y-110185000D01*
X121645000Y-91585000D02*
X122615000Y-94795000D01*
X122075000Y-78145000D02*
X121465000Y-81455000D01*
X119675000Y-85845000D02*
X119985000Y-89325000D01*
X184315000Y-81925000D02*
X183785000Y-78225000D01*
X152175000Y-120665000D02*
X151910000Y-120930000D01*
X122905000Y-62675000D02*
X120665000Y-65675000D01*
X118455000Y-84335000D02*
X118595000Y-87845000D01*
X156175000Y-60645000D02*
X153145000Y-60035000D01*
X161395000Y-61335000D02*
X158395000Y-60065000D01*
X169895000Y-66825000D02*
X167535000Y-64495000D01*
X126435000Y-96575000D02*
X128065000Y-99355000D01*
X149215000Y-117965000D02*
X152845000Y-117795000D01*
X120975000Y-92205000D02*
X122015000Y-95465000D01*
X119385000Y-90575000D02*
X120215000Y-93945000D01*
X164175000Y-62945000D02*
X161395000Y-61335000D01*
X176325000Y-76485000D02*
X175105000Y-73335000D01*
X181805000Y-89045000D02*
X182055000Y-85475000D01*
X121675000Y-85945000D02*
X121995000Y-89255000D01*
X122995000Y-94675000D02*
X124345000Y-97755000D01*
X130865000Y-60035000D02*
X128145000Y-62335000D01*
X175115000Y-94615000D02*
X176085000Y-91475000D01*
X117655000Y-96375000D02*
X119095000Y-99775000D01*
X134815000Y-57955000D02*
X131855000Y-59805000D01*
X122605000Y-70195000D02*
X121105000Y-73365000D01*
X147785000Y-51815000D02*
X144175000Y-52215000D01*
X167535000Y-54195000D02*
X164195000Y-52485000D01*
X115995000Y-74615000D02*
X115095000Y-78225000D01*
X165715000Y-115975000D02*
X168935000Y-114065000D01*
X124495000Y-76925000D02*
X123705000Y-80065000D01*
X129105000Y-62535000D02*
X126695000Y-65005000D01*
X172595000Y-74615000D02*
X171095000Y-71815000D01*
X182715000Y-82045000D02*
X182195000Y-78435000D01*
X162055000Y-60775000D02*
X159055000Y-59455000D01*
X179805000Y-91335000D02*
X180325000Y-87875000D01*
X155445000Y-53905000D02*
X151925000Y-53445000D01*
X139135000Y-58565000D02*
X136075000Y-60005000D01*
X183505000Y-88225000D02*
X183655000Y-84505000D01*
X128925000Y-101845000D02*
X131125000Y-104215000D01*
X123025000Y-72945000D02*
X121815000Y-76105000D01*
X180405000Y-74805000D02*
X179095000Y-71475000D01*
X124345000Y-97755000D02*
X126035000Y-100635000D01*
X121405000Y-100735000D02*
X123345000Y-103775000D01*
X169075000Y-63185000D02*
X166275000Y-60985000D01*
X142035000Y-50185000D02*
X138415000Y-51175000D01*
X171095000Y-71815000D02*
X169265000Y-69195000D01*
X163615000Y-114345000D02*
X166765000Y-112615000D01*
X143205000Y-51165000D02*
X139595000Y-52055000D01*
X158705000Y-113305000D02*
X161925000Y-112045000D01*
X124525000Y-83145000D02*
X124505000Y-86335000D01*
X176555000Y-91215000D02*
X177105000Y-87925000D01*
X178575000Y-91335000D02*
X179115000Y-87905000D01*
X118375000Y-75035000D02*
X117475000Y-78545000D01*
X140265000Y-57305000D02*
X137085000Y-58595000D01*
X147985000Y-52205000D02*
X144395000Y-52585000D01*
X156775000Y-111795000D02*
X159925000Y-110735000D01*
X164945000Y-110445000D02*
X167805000Y-108475000D01*
X135885000Y-109665000D02*
X138915000Y-111105000D01*
X149875000Y-49765000D02*
X146145000Y-49935000D01*
X116515000Y-90435000D02*
X117325000Y-94035000D01*
X171625000Y-106665000D02*
X173945000Y-104005000D01*
X131565000Y-61515000D02*
X129005000Y-63725000D01*
X136645000Y-60605000D02*
X133805000Y-62345000D01*
X176885000Y-76945000D02*
X175735000Y-73765000D01*
X121445000Y-97245000D02*
X123025000Y-100345000D01*
X130045000Y-57165000D02*
X127145000Y-59455000D01*
X128245000Y-66275000D02*
X126185000Y-68935000D01*
X154175000Y-116415000D02*
X157695000Y-115685000D01*
X178315000Y-68245000D02*
X176315000Y-65215000D01*
X179125000Y-77565000D02*
X178085000Y-74245000D01*
X152875000Y-112155000D02*
X156155000Y-111545000D01*
X172385000Y-72385000D02*
X170665000Y-69685000D01*
X114585000Y-81905000D02*
X114465000Y-85675000D01*
X174735000Y-99215000D02*
X176225000Y-96165000D01*
X155835000Y-118165000D02*
X159415000Y-117275000D01*
X173945000Y-104005000D02*
X175935000Y-101125000D01*
X148715000Y-113155000D02*
X152065000Y-113045000D01*
X166915000Y-114855000D02*
X170045000Y-112795000D01*
X125055000Y-102035000D02*
X127185000Y-104725000D01*
X150925000Y-50985000D02*
X147235000Y-51045000D01*
X123025000Y-100345000D02*
X124965000Y-103275000D01*
X119985000Y-69155000D02*
X118445000Y-72475000D01*
X126185000Y-68935000D02*
X124445000Y-71845000D01*
X120955000Y-64545000D02*
X118955000Y-67705000D01*
X174655000Y-109855000D02*
X177145000Y-107055000D01*
X141575000Y-58145000D02*
X138425000Y-59305000D01*
X139645000Y-59235000D02*
X136645000Y-60605000D01*
X129035000Y-103195000D02*
X131375000Y-105525000D01*
X156565000Y-118835000D02*
X160155000Y-117885000D01*
X178945000Y-101525000D02*
X180575000Y-98205000D01*
X183435000Y-75115000D02*
X182185000Y-71565000D01*
X118875000Y-101115000D02*
X120795000Y-104315000D01*
X149505000Y-115965000D02*
X153035000Y-115765000D01*
X160985000Y-51655000D02*
X157355000Y-50625000D01*
X135635000Y-114475000D02*
X138955000Y-115815000D01*
X176425000Y-83855000D02*
X176095000Y-80635000D01*
X164845000Y-105695000D02*
X167345000Y-103585000D01*
X160675000Y-51125000D02*
X156985000Y-50135000D01*
X160085000Y-113245000D02*
X163255000Y-111845000D01*
X137485000Y-57965000D02*
X134415000Y-59565000D01*
X122975000Y-72105000D02*
X121665000Y-75285000D01*
X176675000Y-71075000D02*
X174885000Y-68045000D01*
X120835000Y-89605000D02*
X121585000Y-92925000D01*
X114685000Y-78235000D02*
X114175000Y-81965000D01*
X167355000Y-111275000D02*
X170175000Y-109115000D01*
X173765000Y-63955000D02*
X171295000Y-61415000D01*
X115585000Y-74585000D02*
X114685000Y-78235000D01*
X125895000Y-58965000D02*
X123295000Y-61605000D01*
X180095000Y-103515000D02*
X181875000Y-100195000D01*
X169195000Y-102825000D02*
X171235000Y-100275000D01*
X118885000Y-83575000D02*
X118935000Y-87105000D01*
X153495000Y-112475000D02*
X156775000Y-111795000D01*
X126055000Y-102055000D02*
X128215000Y-104675000D01*
X148215000Y-119145000D02*
X151925000Y-119075000D01*
X168505000Y-58145000D02*
X165485000Y-56255000D01*
X158925000Y-58135000D02*
X155665000Y-57215000D01*
X120065000Y-85405000D02*
X120315000Y-88835000D01*
X177585000Y-83045000D02*
X177145000Y-79705000D01*
X149755000Y-59365000D02*
X146555000Y-59555000D01*
X167345000Y-107305000D02*
X169845000Y-105045000D01*
X172255000Y-96155000D02*
X173465000Y-93235000D01*
X133225000Y-61775000D02*
X130615000Y-63865000D01*
X151535000Y-54625000D02*
X148055000Y-54605000D01*
X171355000Y-60395000D02*
X168505000Y-58145000D01*
X173395000Y-106535000D02*
X175635000Y-103745000D01*
X120205000Y-81975000D02*
X120065000Y-85405000D01*
X157655000Y-54815000D02*
X154215000Y-54105000D01*
X164705000Y-112435000D02*
X167705000Y-110545000D01*
X148615000Y-56185000D02*
X145225000Y-56505000D01*
X145145000Y-59355000D02*
X141995000Y-60115000D01*
X160815000Y-116385000D02*
X164175000Y-114965000D01*
X168265000Y-56535000D02*
X165085000Y-54685000D01*
X166905000Y-60935000D02*
X163995000Y-59085000D01*
X119795000Y-67845000D02*
X118125000Y-71165000D01*
X171555000Y-105575000D02*
X173755000Y-102935000D01*
X175565000Y-61765000D02*
X172875000Y-59075000D01*
X122915000Y-66635000D02*
X121035000Y-69735000D01*
X164995000Y-113185000D02*
X168035000Y-111285000D01*
X115095000Y-78225000D02*
X114585000Y-81905000D01*
X130105000Y-114105000D02*
X133335000Y-116015000D01*
X166575000Y-116425000D02*
X169815000Y-114435000D01*
X175755000Y-67185000D02*
X173575000Y-64345000D01*
X125335000Y-105655000D02*
X127825000Y-108245000D01*
X128485000Y-71285000D02*
X126925000Y-74095000D01*
X137515000Y-109165000D02*
X140535000Y-110435000D01*
X174015000Y-62435000D02*
X171335000Y-59845000D01*
X177205000Y-96925000D02*
X178395000Y-93645000D01*
X124085000Y-86195000D02*
X124445000Y-89355000D01*
X179795000Y-72065000D02*
X178175000Y-68805000D01*
X185255000Y-85645000D02*
X185105000Y-81785000D01*
X184345000Y-93045000D02*
X184995000Y-89345000D01*
X130825000Y-61585000D02*
X128255000Y-63905000D01*
X143425000Y-60125000D02*
X140395000Y-61085000D01*
X132325000Y-109335000D02*
X135295000Y-111165000D01*
X136595000Y-55295000D02*
X133405000Y-56905000D01*
X131535000Y-54305000D02*
X128375000Y-56405000D01*
X119925000Y-99645000D02*
X121725000Y-102815000D01*
X128965000Y-69185000D02*
X127175000Y-71865000D01*
X178425000Y-86265000D02*
X178375000Y-82865000D01*
X164195000Y-52485000D02*
X160675000Y-51125000D01*
X169235000Y-112395000D02*
X172085000Y-110105000D01*
X164165000Y-61035000D02*
X161205000Y-59475000D01*
X163385000Y-58305000D02*
X160255000Y-56915000D01*
X120795000Y-104315000D02*
X123025000Y-107265000D01*
X118455000Y-89895000D02*
X119205000Y-93335000D01*
X167705000Y-110545000D02*
X170485000Y-108315000D01*
X168005000Y-60255000D02*
X165055000Y-58315000D01*
X178085000Y-89635000D02*
X178425000Y-86265000D01*
X167475000Y-57935000D02*
X164405000Y-56135000D01*
X168485000Y-59115000D02*
X165455000Y-57155000D01*
X129695000Y-100885000D02*
X131835000Y-103235000D01*
X138565000Y-116105000D02*
X142055000Y-117115000D01*
X168935000Y-102515000D02*
X170955000Y-99975000D01*
X118215000Y-78965000D02*
X117745000Y-82515000D01*
X135245000Y-110685000D02*
X138355000Y-112175000D01*
X158615000Y-57605000D02*
X155365000Y-56745000D01*
X155255000Y-54685000D02*
X151715000Y-54235000D01*
X178545000Y-66335000D02*
X176355000Y-63315000D01*
X133895000Y-55725000D02*
X130755000Y-57645000D01*
X130365000Y-58915000D02*
X127595000Y-61205000D01*
X128875000Y-66765000D02*
X126835000Y-69405000D01*
X165675000Y-110935000D02*
X168545000Y-108905000D01*
X158445000Y-112125000D02*
X161605000Y-110875000D01*
X181875000Y-72965000D02*
X180395000Y-69565000D01*
X162925000Y-109305000D02*
X165735000Y-107525000D01*
X128195000Y-111215000D02*
X131145000Y-113355000D01*
X133025000Y-63925000D02*
X130575000Y-66115000D01*
X173535000Y-70385000D02*
X171645000Y-67665000D01*
X131165000Y-110465000D02*
X134155000Y-112365000D01*
X133745000Y-105905000D02*
X136445000Y-107685000D01*
X149515000Y-49365000D02*
X145785000Y-49575000D01*
X144965000Y-114015000D02*
X148365000Y-114345000D01*
X175985000Y-66825000D02*
X173765000Y-63955000D01*
X125165000Y-93615000D02*
X126435000Y-96575000D01*
X126665000Y-66285000D02*
X124635000Y-69105000D01*
X170175000Y-109115000D02*
X172755000Y-106635000D01*
X121585000Y-92925000D02*
X122715000Y-96145000D01*
X175045000Y-93625000D02*
X175905000Y-90445000D01*
X161465000Y-108715000D02*
X164245000Y-107095000D01*
X171115000Y-58105000D02*
X168075000Y-55935000D01*
X153145000Y-60035000D02*
X149885000Y-59785000D01*
X123085000Y-76075000D02*
X122215000Y-79345000D01*
X172875000Y-59075000D02*
X169995000Y-56755000D01*
X130525000Y-110495000D02*
X133535000Y-112475000D01*
X122825000Y-78445000D02*
X122235000Y-81785000D01*
X123305000Y-83275000D02*
X123305000Y-86535000D01*
X161725000Y-110375000D02*
X164645000Y-108745000D01*
X123795000Y-75275000D02*
X122825000Y-78445000D01*
X168035000Y-111285000D02*
X170845000Y-109065000D01*
X170365000Y-58535000D02*
X167375000Y-56435000D01*
X183515000Y-93075000D02*
X184185000Y-89365000D01*
X122765000Y-70745000D02*
X121305000Y-73955000D01*
X144395000Y-52585000D02*
X140875000Y-53355000D01*
X181565000Y-71125000D02*
X179895000Y-67785000D01*
X146855000Y-112635000D02*
X150185000Y-112755000D01*
X127045000Y-69805000D02*
X125375000Y-72665000D01*
X174245000Y-74355000D02*
X172775000Y-71455000D01*
X125975000Y-66515000D02*
X123995000Y-69385000D01*
X131855000Y-59805000D02*
X129095000Y-62005000D01*
X180815000Y-86575000D02*
X180785000Y-82965000D01*
X176675000Y-88145000D02*
X176855000Y-84895000D01*
X176225000Y-96165000D02*
X177345000Y-92965000D01*
X151395000Y-119915000D02*
X155135000Y-119505000D01*
X128245000Y-57505000D02*
X125435000Y-59945000D01*
X151525000Y-59035000D02*
X148315000Y-58995000D01*
X137335000Y-113915000D02*
X140675000Y-115105000D01*
X173925000Y-71855000D02*
X172165000Y-69035000D01*
X133405000Y-56905000D02*
X130365000Y-58915000D01*
X143685000Y-60505000D02*
X140615000Y-61465000D01*
X165555000Y-109105000D02*
X168265000Y-107065000D01*
X158485000Y-109995000D02*
X161465000Y-108715000D01*
X120435000Y-73975000D02*
X119385000Y-77345000D01*
X177345000Y-92965000D02*
X178085000Y-89635000D01*
X155175000Y-112995000D02*
X158445000Y-112125000D01*
X130935000Y-111285000D02*
X134015000Y-113205000D01*
X118605000Y-94135000D02*
X119825000Y-97525000D01*
X137525000Y-107825000D02*
X140465000Y-109135000D01*
X123965000Y-80915000D02*
X123665000Y-84145000D01*
X129905000Y-108995000D02*
X132825000Y-111105000D01*
X144585000Y-54985000D02*
X141195000Y-55755000D01*
X180355000Y-79465000D02*
X179525000Y-76015000D01*
X135895000Y-112825000D02*
X139135000Y-114185000D01*
X120355000Y-96715000D02*
X121865000Y-99915000D01*
X158315000Y-109635000D02*
X161295000Y-108355000D01*
X182575000Y-89345000D02*
X182845000Y-85665000D01*
X170665000Y-69685000D02*
X168585000Y-67175000D01*
X118525000Y-71245000D02*
X117235000Y-74675000D01*
X119975000Y-76685000D02*
X119235000Y-80085000D01*
X176505000Y-92985000D02*
X177255000Y-89745000D01*
X176365000Y-97815000D02*
X177655000Y-94635000D01*
X133335000Y-116015000D02*
X136735000Y-117555000D01*
X183295000Y-96695000D02*
X184345000Y-93045000D01*
X177875000Y-64635000D02*
X175565000Y-61765000D01*
X116975000Y-82115000D02*
X116865000Y-85715000D01*
X166385000Y-64055000D02*
X163715000Y-62175000D01*
X180345000Y-94105000D02*
X181165000Y-90625000D01*
X176065000Y-97505000D02*
X177325000Y-94375000D01*
X139885000Y-56585000D02*
X136665000Y-57905000D01*
X130545000Y-108485000D02*
X133395000Y-110515000D01*
X175615000Y-63675000D02*
X173135000Y-60955000D01*
X118935000Y-87105000D02*
X119385000Y-90575000D01*
X178495000Y-66995000D02*
X176385000Y-63985000D01*
X142985000Y-114455000D02*
X146395000Y-115005000D01*
X158485000Y-112955000D02*
X161715000Y-111705000D01*
X119655000Y-71665000D02*
X118375000Y-75035000D01*
X157315000Y-117435000D02*
X160815000Y-116385000D01*
X134275000Y-105305000D02*
X136955000Y-107055000D01*
X124605000Y-69925000D02*
X123025000Y-72945000D01*
X170275000Y-102185000D02*
X172215000Y-99525000D01*
X175365000Y-96145000D02*
X176505000Y-92985000D01*
X157225000Y-52235000D02*
X153635000Y-51605000D01*
X143635000Y-119875000D02*
X147405000Y-120305000D01*
X184995000Y-89345000D02*
X185255000Y-85645000D01*
X175245000Y-78535000D02*
X174275000Y-75475000D01*
X175105000Y-73335000D02*
X173535000Y-70385000D01*
X159275000Y-108835000D02*
X162195000Y-107415000D01*
X138405000Y-112625000D02*
X141685000Y-113725000D01*
X172955000Y-105825000D02*
X175175000Y-103015000D01*
X127825000Y-108245000D02*
X130525000Y-110495000D01*
X122185000Y-102785000D02*
X124325000Y-105695000D01*
X142795000Y-117685000D02*
X146435000Y-118225000D01*
X166765000Y-112615000D02*
X169715000Y-110535000D01*
X116825000Y-74655000D02*
X115905000Y-78245000D01*
X127185000Y-104725000D02*
X129615000Y-107175000D01*
X174795000Y-78385000D02*
X173775000Y-75305000D01*
X171925000Y-111825000D02*
X174665000Y-109275000D01*
X121305000Y-73955000D02*
X120235000Y-77245000D01*
X175215000Y-86525000D02*
X175195000Y-83305000D01*
X148785000Y-111155000D02*
X151995000Y-111045000D01*
X123965000Y-97905000D02*
X125675000Y-100815000D01*
X162145000Y-118025000D02*
X165615000Y-116475000D01*
X136425000Y-112195000D02*
X139615000Y-113505000D01*
X121865000Y-70735000D02*
X120435000Y-73975000D01*
X145975000Y-115765000D02*
X149505000Y-115965000D01*
X182745000Y-77195000D02*
X181695000Y-73635000D01*
X177325000Y-94375000D02*
X178225000Y-91065000D01*
X179685000Y-93505000D02*
X180445000Y-90085000D01*
X156475000Y-115165000D02*
X159875000Y-114175000D01*
X116595000Y-92835000D02*
X117655000Y-96375000D01*
X151795000Y-114275000D02*
X155245000Y-113795000D01*
X173765000Y-97645000D02*
X175115000Y-94615000D01*
X115535000Y-89275000D02*
X116205000Y-92915000D01*
X181585000Y-87075000D02*
X181615000Y-83485000D01*
X161925000Y-112045000D02*
X164945000Y-110445000D01*
X165085000Y-62105000D02*
X162215000Y-60405000D01*
X179135000Y-97495000D02*
X180345000Y-94105000D01*
X122215000Y-79345000D02*
X121755000Y-82575000D01*
X152735000Y-50305000D02*
X148975000Y-50175000D01*
X143695000Y-111335000D02*
X146965000Y-111845000D01*
X177275000Y-73295000D02*
X175735000Y-70175000D01*
X165055000Y-58315000D02*
X161955000Y-56745000D01*
X158605000Y-55505000D02*
X155255000Y-54685000D01*
X135035000Y-64445000D02*
X132575000Y-66445000D01*
X177795000Y-104855000D02*
X179765000Y-101695000D01*
X175485000Y-88005000D02*
X175655000Y-84795000D01*
X123635000Y-67715000D02*
X121865000Y-70735000D01*
X178845000Y-84285000D02*
X178555000Y-80865000D01*
X133965000Y-107545000D02*
X136855000Y-109275000D01*
X175735000Y-73765000D02*
X174225000Y-70765000D01*
X170415000Y-62785000D02*
X167705000Y-60525000D01*
X124885000Y-89455000D02*
X125645000Y-92505000D01*
X117635000Y-79955000D02*
X117285000Y-83485000D01*
X174875000Y-105405000D02*
X176945000Y-102525000D01*
X121815000Y-76105000D02*
X120975000Y-79415000D01*
X153035000Y-115765000D02*
X156475000Y-115165000D01*
X126275000Y-108425000D02*
X129025000Y-110855000D01*
X155355000Y-114185000D02*
X158705000Y-113305000D01*
X161035000Y-114595000D02*
X164315000Y-113095000D01*
X124965000Y-103275000D02*
X127225000Y-105965000D01*
X129095000Y-68375000D02*
X127205000Y-71035000D01*
X127095000Y-111865000D02*
X130105000Y-114105000D01*
X167125000Y-66865000D02*
X164705000Y-64825000D01*
X165385000Y-57575000D02*
X162225000Y-55985000D01*
X170055000Y-61385000D02*
X167255000Y-59225000D01*
X144865000Y-118445000D02*
X148505000Y-118755000D01*
X122655000Y-74905000D02*
X121655000Y-78165000D01*
X121725000Y-102815000D02*
X123875000Y-105775000D01*
X119555000Y-80645000D02*
X119265000Y-84095000D01*
X151355000Y-58225000D02*
X148105000Y-58205000D01*
X140615000Y-61465000D02*
X137785000Y-62745000D01*
X126815000Y-95495000D02*
X128325000Y-98275000D01*
X128365000Y-108195000D02*
X131165000Y-110465000D01*
X124505000Y-86335000D02*
X124885000Y-89455000D01*
X164175000Y-114965000D02*
X167375000Y-113175000D01*
X179215000Y-79905000D02*
X178435000Y-76545000D01*
X173775000Y-75305000D02*
X172385000Y-72385000D01*
X168025000Y-104585000D02*
X170275000Y-102185000D01*
X172795000Y-112135000D02*
X175525000Y-109525000D01*
X129765000Y-108365000D02*
X132575000Y-110465000D01*
X178995000Y-81055000D02*
X178315000Y-77635000D01*
X114355000Y-89525000D02*
X115035000Y-93195000D01*
X174045000Y-92825000D02*
X174825000Y-89715000D01*
X164865000Y-54125000D02*
X161475000Y-52675000D01*
X142335000Y-57515000D02*
X139135000Y-58565000D01*
X146775000Y-59965000D02*
X143685000Y-60505000D01*
X166875000Y-105095000D02*
X169195000Y-102825000D01*
X169845000Y-105045000D02*
X172065000Y-102515000D01*
X145635000Y-56845000D02*
X142335000Y-57515000D01*
X184035000Y-83855000D02*
X183715000Y-80185000D01*
X169025000Y-107995000D02*
X171555000Y-105575000D01*
X177025000Y-105235000D02*
X179045000Y-102155000D01*
X162225000Y-55985000D02*
X158895000Y-54755000D01*
X141815000Y-112515000D02*
X145105000Y-113225000D01*
X146965000Y-111845000D02*
X150245000Y-111955000D01*
X164055000Y-105725000D02*
X166555000Y-103735000D01*
X148325000Y-52995000D02*
X144755000Y-53335000D01*
X117285000Y-83485000D02*
X117325000Y-87065000D01*
X114065000Y-85745000D02*
X114355000Y-89525000D01*
X139335000Y-60655000D02*
X136435000Y-62095000D01*
X153745000Y-118095000D02*
X157315000Y-117435000D01*
X132255000Y-104165000D02*
X134785000Y-106165000D01*
X132825000Y-111105000D02*
X135895000Y-112825000D01*
X122015000Y-95465000D02*
X123415000Y-98575000D01*
X122195000Y-64885000D02*
X120195000Y-67955000D01*
X173835000Y-67245000D02*
X171635000Y-64575000D01*
X149155000Y-110365000D02*
X152335000Y-110195000D01*
X171155000Y-106565000D02*
X173495000Y-103925000D01*
X137995000Y-56445000D02*
X134815000Y-57955000D01*
X154195000Y-52885000D02*
X150615000Y-52575000D01*
X173695000Y-77555000D02*
X172595000Y-74615000D01*
X149915000Y-110765000D02*
X153115000Y-110505000D01*
X169095000Y-112985000D02*
X172015000Y-110695000D01*
X172905000Y-110435000D02*
X175495000Y-107785000D01*
X140605000Y-53015000D02*
X137175000Y-54185000D01*
X144195000Y-116725000D02*
X147715000Y-117115000D01*
X142425000Y-50505000D02*
X138805000Y-51465000D01*
X152845000Y-117795000D02*
X156445000Y-117225000D01*
X171295000Y-61415000D02*
X168485000Y-59115000D01*
X143945000Y-119525000D02*
X147655000Y-119915000D01*
X143545000Y-112125000D02*
X146855000Y-112635000D01*
X120245000Y-78975000D02*
X119765000Y-82405000D01*
X131205000Y-64415000D02*
X128875000Y-66765000D01*
X172085000Y-110105000D02*
X174685000Y-107485000D01*
X172895000Y-95785000D02*
X174045000Y-92825000D01*
X121445000Y-88165000D02*
X122015000Y-91425000D01*
X168405000Y-59555000D02*
X165385000Y-57575000D01*
X173975000Y-99725000D02*
X175545000Y-96725000D01*
X179065000Y-73455000D02*
X177585000Y-70225000D01*
X174685000Y-107485000D02*
X176985000Y-104615000D01*
X158765000Y-118715000D02*
X162335000Y-117525000D01*
X159875000Y-114175000D02*
X163105000Y-112815000D01*
X116315000Y-78255000D02*
X115785000Y-81935000D01*
X151865000Y-113465000D02*
X155175000Y-112995000D01*
X147035000Y-52665000D02*
X143455000Y-53155000D01*
X174225000Y-70765000D02*
X172365000Y-67945000D01*
X178435000Y-76545000D02*
X177275000Y-73295000D01*
X116115000Y-96815000D02*
X117565000Y-100285000D01*
X121495000Y-106645000D02*
X123975000Y-109505000D01*
X151910000Y-120930000D02*
X151910000Y-121620000D01*
X119065000Y-75525000D02*
X118215000Y-78965000D01*
X128255000Y-63905000D02*
X125975000Y-66515000D01*
X160845000Y-61515000D02*
X157815000Y-60295000D01*
X116495000Y-79505000D02*
X116105000Y-83165000D01*
X118445000Y-72475000D02*
X117275000Y-75935000D01*
X158625000Y-111645000D02*
X161725000Y-110375000D01*
X134575000Y-53585000D02*
X131315000Y-55375000D01*
X170075000Y-103035000D02*
X172075000Y-100465000D01*
X116125000Y-94215000D02*
X117315000Y-97725000D01*
X170085000Y-64695000D02*
X167575000Y-62445000D01*
X163715000Y-62175000D02*
X160785000Y-60605000D01*
X177985000Y-86925000D02*
X178015000Y-83545000D01*
X119885000Y-91045000D02*
X120775000Y-94375000D01*
X166165000Y-114365000D02*
X169235000Y-112395000D01*
X162155000Y-54655000D02*
X158765000Y-53465000D01*
X121705000Y-84595000D02*
X121675000Y-85945000D01*
X123375000Y-91895000D02*
X124405000Y-94995000D01*
X156935000Y-55875000D02*
X153555000Y-55225000D01*
X169525000Y-111185000D02*
X172285000Y-108825000D01*
X181245000Y-79925000D02*
X180485000Y-76445000D01*
X177655000Y-94635000D02*
X178575000Y-91335000D01*
X185105000Y-81785000D02*
X184565000Y-78055000D01*
X133035000Y-107865000D02*
X135885000Y-109665000D01*
X160785000Y-60605000D02*
X157725000Y-59425000D01*
X175505000Y-105905000D02*
X177625000Y-102955000D01*
X181085000Y-73135000D02*
X179595000Y-69765000D01*
X152315000Y-56695000D02*
X149005000Y-56575000D01*
X155205000Y-110535000D02*
X158315000Y-109635000D01*
X124445000Y-71845000D02*
X123075000Y-74915000D01*
X152655000Y-57935000D02*
X149365000Y-57765000D01*
X153555000Y-55225000D02*
X150095000Y-54965000D01*
X179245000Y-84405000D02*
X178995000Y-81055000D01*
X183155000Y-87545000D02*
X183235000Y-83895000D01*
X136345000Y-110815000D02*
X139485000Y-112185000D01*
X146335000Y-51525000D02*
X142695000Y-52085000D01*
X123145000Y-78815000D02*
X122605000Y-82065000D01*
X182865000Y-74615000D02*
X181565000Y-71125000D01*
X154215000Y-54105000D02*
X150685000Y-53785000D01*
X115785000Y-81935000D02*
X115655000Y-85575000D01*
X134745000Y-57085000D02*
X131705000Y-58935000D01*
X122175000Y-69325000D02*
X120595000Y-72505000D01*
X164065000Y-106735000D02*
X166655000Y-104755000D01*
X136945000Y-56455000D02*
X133815000Y-58065000D01*
X174285000Y-94545000D02*
X175275000Y-91415000D01*
X159155000Y-59065000D02*
X156015000Y-58115000D01*
X180855000Y-96395000D02*
X181915000Y-92885000D01*
X129025000Y-110855000D02*
X132005000Y-112955000D01*
X140875000Y-53355000D02*
X137455000Y-54505000D01*
X176995000Y-81255000D02*
X176355000Y-78025000D01*
X131255000Y-103785000D02*
X133745000Y-105905000D01*
X118955000Y-67705000D02*
X117295000Y-71075000D01*
X174455000Y-80645000D02*
X173695000Y-77555000D01*
X176025000Y-78355000D02*
X175015000Y-75185000D01*
X180575000Y-68185000D02*
X178635000Y-65015000D01*
X135295000Y-52815000D02*
X131945000Y-54525000D01*
X137375000Y-116945000D02*
X140925000Y-118075000D01*
X166275000Y-60985000D02*
X163425000Y-59235000D01*
X164405000Y-56135000D02*
X161155000Y-54685000D01*
X139345000Y-109555000D02*
X142435000Y-110605000D01*
X124215000Y-93325000D02*
X125465000Y-96405000D01*
X148055000Y-54605000D02*
X144585000Y-54985000D01*
X119265000Y-84095000D02*
X119375000Y-87595000D01*
X150835000Y-55395000D02*
X147395000Y-55445000D01*
X175845000Y-73025000D02*
X174245000Y-70015000D01*
X117995000Y-74915000D02*
X117095000Y-78425000D01*
X117275000Y-75935000D02*
X116495000Y-79505000D01*
X127205000Y-71035000D02*
X125675000Y-73885000D01*
X118725000Y-80795000D02*
X118455000Y-84335000D01*
X125385000Y-76765000D02*
X124555000Y-79875000D01*
X154565000Y-51325000D02*
X150925000Y-50985000D01*
X166265000Y-64985000D02*
X163665000Y-63085000D01*
X176315000Y-65215000D02*
X174015000Y-62435000D01*
X116205000Y-92915000D02*
X117265000Y-96475000D01*
X129425000Y-58115000D02*
X126645000Y-60445000D01*
X123415000Y-98575000D02*
X125175000Y-101505000D01*
X158645000Y-53015000D02*
X155065000Y-52215000D01*
X125185000Y-72165000D02*
X123795000Y-75275000D01*
X182845000Y-85665000D02*
X182715000Y-82045000D01*
X146945000Y-55885000D02*
X143545000Y-56405000D01*
X126785000Y-109465000D02*
X129565000Y-111775000D01*
X125915000Y-105715000D02*
X128365000Y-108195000D01*
X125605000Y-62625000D02*
X123295000Y-65415000D01*
X141275000Y-117755000D02*
X144865000Y-118445000D01*
X151645000Y-52225000D02*
X147985000Y-52205000D01*
X138245000Y-117685000D02*
X141795000Y-118695000D01*
X159055000Y-59455000D02*
X155875000Y-58495000D01*
X125375000Y-72665000D02*
X124075000Y-75675000D01*
X147685000Y-116315000D02*
X151225000Y-116315000D01*
X143005000Y-111585000D02*
X146275000Y-112175000D01*
X128215000Y-60115000D02*
X125605000Y-62625000D01*
X118125000Y-82785000D02*
X118095000Y-86415000D01*
X172075000Y-100465000D02*
X173765000Y-97645000D01*
X163155000Y-118055000D02*
X166575000Y-116425000D01*
X142495000Y-115165000D02*
X145975000Y-115765000D01*
X174665000Y-108105000D02*
X177025000Y-105235000D01*
X167695000Y-63055000D02*
X164975000Y-61075000D01*
X117225000Y-72295000D02*
X116065000Y-75815000D01*
X114465000Y-85675000D02*
X114745000Y-89415000D01*
X127565000Y-100735000D02*
X129675000Y-103305000D01*
X173645000Y-72185000D02*
X171925000Y-69385000D01*
X156255000Y-109865000D02*
X159275000Y-108835000D01*
X159605000Y-119305000D02*
X163155000Y-118055000D01*
X168265000Y-107065000D02*
X170725000Y-104705000D01*
X128055000Y-103295000D02*
X130385000Y-105715000D01*
X121665000Y-75285000D02*
X120745000Y-78575000D01*
X127855000Y-98285000D02*
X129695000Y-100885000D01*
X129675000Y-103305000D02*
X132065000Y-105595000D01*
X122375000Y-72435000D02*
X121125000Y-75635000D01*
X179605000Y-83345000D02*
X179215000Y-79905000D01*
X142085000Y-112175000D02*
X145385000Y-112865000D01*
X180395000Y-69565000D02*
X178545000Y-66335000D01*
X139615000Y-113505000D02*
X142985000Y-114455000D01*
X123015000Y-105985000D02*
X125435000Y-108715000D01*
X148505000Y-118755000D02*
X152125000Y-118665000D01*
X133745000Y-63875000D02*
X131275000Y-65985000D01*
X178615000Y-64295000D02*
X176255000Y-61335000D01*
X137725000Y-116655000D02*
X141275000Y-117755000D01*
X137235000Y-114745000D02*
X140595000Y-115915000D01*
X183645000Y-74425000D02*
X182315000Y-70845000D01*
X176355000Y-63315000D02*
X173885000Y-60575000D01*
X168485000Y-57645000D02*
X165345000Y-55725000D01*
X151395000Y-51815000D02*
X147785000Y-51815000D01*
X117325000Y-94035000D02*
X118495000Y-97455000D01*
X127175000Y-71865000D02*
X125725000Y-74755000D01*
X158055000Y-58265000D02*
X154775000Y-57445000D01*
X120955000Y-68235000D02*
X119285000Y-71505000D01*
X149365000Y-57765000D02*
X146035000Y-58005000D01*
X140395000Y-61085000D02*
X137525000Y-62415000D01*
X159515000Y-112175000D02*
X162635000Y-110815000D01*
X174405000Y-100555000D02*
X176065000Y-97505000D01*
X175275000Y-91415000D02*
X175865000Y-88225000D01*
X171145000Y-61825000D02*
X168405000Y-59555000D01*
X161025000Y-55925000D02*
X157655000Y-54815000D01*
X143455000Y-53155000D02*
X139975000Y-54035000D01*
X137525000Y-62415000D02*
X134785000Y-64105000D01*
X144755000Y-53335000D02*
X141245000Y-54085000D01*
X183655000Y-84505000D02*
X183395000Y-80815000D01*
X134345000Y-115185000D02*
X137725000Y-116655000D01*
X182035000Y-95415000D02*
X182965000Y-91855000D01*
X118395000Y-76395000D02*
X117635000Y-79955000D01*
X172165000Y-69035000D02*
X170085000Y-66435000D01*
X178395000Y-93645000D02*
X179195000Y-90275000D01*
X145585000Y-58875000D02*
X142395000Y-59575000D01*
X118495000Y-97455000D02*
X120055000Y-100775000D01*
X148355000Y-53395000D02*
X144805000Y-53735000D01*
X166555000Y-103735000D02*
X168775000Y-101445000D01*
X176055000Y-84975000D02*
X175855000Y-81745000D01*
X144055000Y-55895000D02*
X140665000Y-56755000D01*
X152895000Y-119395000D02*
X156565000Y-118835000D01*
X149635000Y-117565000D02*
X153245000Y-117345000D01*
X170485000Y-108315000D02*
X172955000Y-105825000D01*
X138025000Y-52155000D02*
X134575000Y-53585000D01*
X138955000Y-115815000D02*
X142495000Y-116805000D01*
X170805000Y-56855000D02*
X167735000Y-54785000D01*
X117765000Y-90615000D02*
X118605000Y-94135000D01*
X177625000Y-86375000D02*
X177585000Y-83045000D01*
X138355000Y-112175000D02*
X141595000Y-113285000D01*
X115265000Y-85635000D02*
X115535000Y-89275000D01*
X170665000Y-56255000D02*
X167535000Y-54195000D01*
X164775000Y-60475000D02*
X161825000Y-58875000D01*
X170085000Y-66435000D02*
X167675000Y-64085000D01*
X162845000Y-116015000D02*
X166165000Y-114365000D01*
X127975000Y-106165000D02*
X130545000Y-108485000D01*
X158385000Y-55855000D02*
X154995000Y-55045000D01*
X154915000Y-119945000D02*
X158565000Y-119185000D01*
X170395000Y-106195000D02*
X172725000Y-103615000D01*
X120535000Y-82745000D02*
X120485000Y-86215000D01*
X126035000Y-100635000D02*
X128055000Y-103295000D01*
X173965000Y-94265000D02*
X174925000Y-91155000D01*
X171235000Y-100275000D02*
X172935000Y-97505000D01*
X133995000Y-115455000D02*
X137375000Y-116945000D01*
X133645000Y-59575000D02*
X130825000Y-61585000D01*
X172725000Y-103615000D02*
X174705000Y-100825000D01*
X130615000Y-63865000D02*
X128245000Y-66275000D01*
X158395000Y-60065000D02*
X155275000Y-59175000D01*
X174805000Y-83845000D02*
X174455000Y-80645000D01*
X172905000Y-72495000D02*
X171165000Y-69695000D01*
X172775000Y-71455000D02*
X170915000Y-68685000D01*
X167735000Y-54785000D02*
X164395000Y-53015000D01*
X139135000Y-114185000D02*
X142495000Y-115165000D01*
X133815000Y-58065000D02*
X130865000Y-60035000D01*
X168795000Y-66235000D02*
X166385000Y-64055000D01*
X183495000Y-91235000D02*
X183965000Y-87545000D01*
X181385000Y-98335000D02*
X182625000Y-94885000D01*
X156985000Y-50135000D02*
X153295000Y-49555000D01*
X131315000Y-55375000D02*
X128245000Y-57505000D01*
X129245000Y-104025000D02*
X131705000Y-106335000D01*
X173595000Y-58645000D02*
X170665000Y-56255000D01*
X177025000Y-70875000D02*
X175235000Y-67845000D01*
X129095000Y-62005000D02*
X126635000Y-64475000D01*
X182915000Y-80235000D02*
X182185000Y-76615000D01*
X114175000Y-81965000D02*
X114065000Y-85745000D01*
X134095000Y-60235000D02*
X131345000Y-62195000D01*
X136855000Y-109275000D02*
X139825000Y-110605000D01*
X149885000Y-59785000D02*
X146775000Y-59965000D01*
X116865000Y-71055000D02*
X115585000Y-74585000D01*
X141345000Y-55295000D02*
X137995000Y-56445000D01*
X172645000Y-100335000D02*
X174305000Y-97475000D01*
X157355000Y-50625000D02*
X153625000Y-49995000D01*
X167535000Y-64495000D02*
X164905000Y-62465000D01*
X141995000Y-60115000D02*
X138975000Y-61245000D01*
X142695000Y-52085000D02*
X139125000Y-53045000D01*
X166865000Y-54735000D02*
X163505000Y-53055000D01*
X149005000Y-56575000D02*
X145635000Y-56845000D01*
X174305000Y-97475000D02*
X175615000Y-94415000D01*
X117265000Y-96475000D02*
X118705000Y-99895000D01*
X126535000Y-67095000D02*
X124605000Y-69925000D01*
X178015000Y-83545000D02*
X177645000Y-80225000D01*
X133655000Y-106345000D02*
X136425000Y-108135000D01*
X126925000Y-74095000D02*
X125755000Y-76955000D01*
X124555000Y-79875000D02*
X124125000Y-83005000D01*
X161715000Y-111705000D02*
X164715000Y-110115000D01*
X147395000Y-55445000D02*
X144055000Y-55895000D01*
X159925000Y-110735000D02*
X162925000Y-109305000D01*
X126695000Y-65005000D02*
X124565000Y-67765000D01*
X177255000Y-89745000D02*
X177625000Y-86375000D01*
X132425000Y-103195000D02*
X134775000Y-105195000D01*
X125745000Y-68875000D02*
X124015000Y-71805000D01*
X124085000Y-66365000D02*
X122175000Y-69325000D01*
X134605000Y-56705000D02*
X131535000Y-58565000D01*
X161605000Y-110875000D02*
X164585000Y-109255000D01*
X135735000Y-54365000D02*
X132515000Y-56045000D01*
X139485000Y-112185000D02*
X142725000Y-113165000D01*
X158175000Y-115145000D02*
X161535000Y-113965000D01*
X122875000Y-91565000D02*
X123875000Y-94735000D01*
X151935000Y-114665000D02*
X155355000Y-114185000D01*
X135295000Y-111165000D02*
X138405000Y-112625000D01*
X180325000Y-87875000D02*
X180445000Y-84365000D01*
X162195000Y-107415000D02*
X164845000Y-105695000D01*
X177915000Y-79475000D02*
X177065000Y-76175000D01*
X126365000Y-63575000D02*
X124085000Y-66365000D01*
X178175000Y-68805000D02*
X176205000Y-65735000D01*
X121915000Y-68975000D02*
X120305000Y-72165000D01*
X121255000Y-84765000D02*
X121445000Y-88165000D01*
X150325000Y-55775000D02*
X146945000Y-55885000D01*
X166365000Y-60075000D02*
X163385000Y-58305000D01*
X166175000Y-111095000D02*
X169035000Y-109025000D01*
X179605000Y-86835000D02*
X179605000Y-83345000D01*
X182465000Y-96655000D02*
X183515000Y-93075000D01*
X135595000Y-112225000D02*
X138795000Y-113635000D01*
X141345000Y-54465000D02*
X137985000Y-55585000D01*
X127035000Y-99245000D02*
X128925000Y-101845000D01*
X131875000Y-60285000D02*
X129105000Y-62535000D01*
X177275000Y-74365000D02*
X175845000Y-71215000D01*
X175485000Y-101095000D02*
X177135000Y-98055000D01*
X181275000Y-74895000D02*
X179965000Y-71465000D01*
X164705000Y-64825000D02*
X162005000Y-63045000D01*
X117475000Y-78545000D02*
X116975000Y-82115000D01*
X161705000Y-53185000D02*
X158205000Y-52065000D01*
X153365000Y-114915000D02*
X156765000Y-114275000D01*
X182665000Y-97265000D02*
X183785000Y-93665000D01*
X153245000Y-117345000D02*
X156805000Y-116735000D01*
X146145000Y-49935000D02*
X142425000Y-50505000D01*
X167545000Y-108165000D02*
X170145000Y-105885000D01*
X124115000Y-63095000D02*
X121905000Y-65985000D01*
X123975000Y-109505000D02*
X126745000Y-112095000D01*
X177975000Y-106635000D02*
X180095000Y-103515000D01*
X181165000Y-90625000D02*
X181585000Y-87075000D01*
X164245000Y-107095000D02*
X166875000Y-105095000D01*
X175735000Y-70175000D02*
X173835000Y-67245000D01*
X152665000Y-57535000D02*
X149425000Y-57365000D01*
X176355000Y-78025000D02*
X175325000Y-74875000D01*
X149515000Y-113965000D02*
X152895000Y-113765000D01*
X172655000Y-97175000D02*
X173965000Y-94265000D01*
X171165000Y-69695000D02*
X169125000Y-67165000D01*
X167255000Y-59225000D02*
X164285000Y-57425000D01*
X134355000Y-108285000D02*
X137285000Y-109945000D01*
X128325000Y-98275000D02*
X130205000Y-100875000D01*
X172815000Y-65305000D02*
X170415000Y-62785000D01*
X150245000Y-111955000D02*
X153505000Y-111665000D01*
X183965000Y-87545000D02*
X184035000Y-83855000D01*
X177565000Y-100715000D02*
X179135000Y-97495000D01*
X175035000Y-103895000D02*
X176985000Y-100925000D01*
X117565000Y-100285000D02*
X119335000Y-103535000D01*
X120665000Y-65675000D02*
X118775000Y-68875000D01*
X146105000Y-57595000D02*
X142845000Y-58205000D01*
X134645000Y-107525000D02*
X137515000Y-109165000D01*
X161535000Y-113965000D02*
X164705000Y-112435000D01*
X131345000Y-62195000D02*
X128785000Y-64515000D01*
X157925000Y-51585000D02*
X154295000Y-50885000D01*
X154235000Y-55725000D02*
X150835000Y-55395000D01*
X123705000Y-89735000D02*
X124495000Y-92885000D01*
X124125000Y-83005000D02*
X124085000Y-86195000D01*
X115315000Y-90555000D02*
X116125000Y-94215000D01*
X142835000Y-109475000D02*
X145935000Y-110115000D01*
X120975000Y-79415000D02*
X120535000Y-82745000D01*
X125435000Y-59945000D02*
X122905000Y-62675000D01*
X184565000Y-78055000D02*
X183645000Y-74425000D01*
X153505000Y-111665000D02*
X156705000Y-110985000D01*
X131145000Y-113355000D02*
X134345000Y-115185000D01*
X169715000Y-110535000D02*
X172405000Y-108145000D01*
X172285000Y-108825000D02*
X174775000Y-106165000D01*
X184185000Y-89365000D02*
X184445000Y-85665000D01*
X176985000Y-100925000D02*
X178595000Y-97745000D01*
X122835000Y-61525000D02*
X120525000Y-64465000D01*
X180785000Y-82965000D02*
X180355000Y-79465000D01*
X139275000Y-116765000D02*
X142795000Y-117685000D01*
X132965000Y-116275000D02*
X136425000Y-117865000D01*
X123345000Y-103775000D02*
X125615000Y-106575000D01*
X181355000Y-78315000D02*
X180405000Y-74805000D01*
X125945000Y-70035000D02*
X124325000Y-72985000D01*
X122465000Y-85445000D02*
X122715000Y-88655000D01*
X127145000Y-59455000D02*
X124555000Y-61995000D01*
X142805000Y-58635000D02*
X139685000Y-59645000D01*
X146395000Y-115005000D02*
X149865000Y-115165000D01*
X119095000Y-99775000D02*
X120885000Y-102995000D01*
X161475000Y-52675000D02*
X157925000Y-51585000D01*
X136135000Y-53315000D02*
X132785000Y-54965000D01*
X181035000Y-100095000D02*
X182465000Y-96655000D01*
X127785000Y-66195000D02*
X125745000Y-68875000D01*
X176205000Y-65735000D02*
X173965000Y-62975000D01*
X173965000Y-61225000D02*
X171225000Y-58705000D01*
X173815000Y-96655000D02*
X175045000Y-93625000D01*
X163665000Y-63085000D02*
X160845000Y-61515000D01*
X116065000Y-75815000D02*
X115285000Y-79455000D01*
X150685000Y-53785000D02*
X147155000Y-53865000D01*
X173885000Y-60575000D02*
X171115000Y-58105000D01*
X122715000Y-92515000D02*
X123825000Y-95685000D01*
X181185000Y-100705000D02*
X182665000Y-97265000D01*
X173085000Y-108595000D02*
X175505000Y-105905000D01*
X136115000Y-62745000D02*
X133455000Y-64605000D01*
X116465000Y-85635000D02*
X116735000Y-89275000D01*
X134415000Y-59565000D02*
X131565000Y-61515000D01*
X125815000Y-97965000D02*
X127565000Y-100735000D01*
X158335000Y-115925000D02*
X161745000Y-114745000D01*
X122635000Y-106155000D02*
X125085000Y-108925000D01*
X134785000Y-64105000D02*
X132275000Y-66145000D01*
X164645000Y-108745000D02*
X167365000Y-106775000D01*
X172755000Y-106635000D02*
X175035000Y-103895000D01*
X180735000Y-98835000D02*
X182035000Y-95415000D01*
X137785000Y-62745000D02*
X135035000Y-64445000D01*
X181045000Y-75495000D02*
X179795000Y-72065000D01*
X139805000Y-108445000D02*
X142835000Y-109475000D01*
X176945000Y-102525000D02*
X178725000Y-99365000D01*
X127305000Y-104265000D02*
X129685000Y-106695000D01*
X120485000Y-86215000D02*
X120835000Y-89605000D01*
X152955000Y-59585000D02*
X149755000Y-59365000D01*
X176365000Y-87235000D02*
X176425000Y-83855000D01*
X159175000Y-117765000D02*
X162665000Y-116525000D01*
X180275000Y-70225000D02*
X178495000Y-66995000D01*
X157625000Y-56465000D02*
X154235000Y-55725000D01*
X120595000Y-72505000D02*
X119385000Y-75845000D01*
X177605000Y-97985000D02*
X178885000Y-94755000D01*
X167805000Y-108475000D02*
X170395000Y-106195000D01*
X125675000Y-100815000D02*
X127725000Y-103525000D01*
X126645000Y-60445000D02*
X124115000Y-63095000D01*
X145785000Y-49575000D02*
X142035000Y-50185000D01*
X123705000Y-100705000D02*
X125665000Y-103535000D01*
X184295000Y-78765000D02*
X183435000Y-75115000D01*
X181165000Y-87445000D02*
X181235000Y-83875000D01*
X171875000Y-112385000D02*
X174655000Y-109855000D01*
X145105000Y-113225000D02*
X148465000Y-113545000D01*
X157695000Y-115685000D02*
X161035000Y-114595000D01*
X145535000Y-110865000D02*
X148785000Y-111155000D01*
X151225000Y-116315000D02*
X154715000Y-115925000D01*
X119125000Y-91325000D02*
X120055000Y-94745000D01*
X138415000Y-51175000D02*
X134875000Y-52565000D01*
X132515000Y-56045000D02*
X129425000Y-58115000D01*
X145645000Y-111285000D02*
X148885000Y-111555000D01*
X166865000Y-62905000D02*
X164165000Y-61035000D01*
X121105000Y-73365000D02*
X119975000Y-76685000D01*
X122715000Y-96145000D02*
X124205000Y-99185000D01*
X152585000Y-115405000D02*
X156005000Y-114865000D01*
X118095000Y-86415000D02*
X118455000Y-89895000D01*
X174755000Y-87005000D02*
X174805000Y-83845000D01*
X121905000Y-65985000D02*
X119985000Y-69155000D01*
X125435000Y-108715000D02*
X128195000Y-111215000D01*
X173495000Y-103925000D02*
X175485000Y-101095000D01*
X143575000Y-51505000D02*
X139985000Y-52355000D01*
X147155000Y-53865000D02*
X143675000Y-54335000D01*
X160365000Y-57815000D02*
X157085000Y-56735000D01*
X134775000Y-58435000D02*
X131875000Y-60285000D01*
X151305000Y-117115000D02*
X154865000Y-116715000D01*
X122885000Y-83695000D02*
X122935000Y-86975000D01*
X132065000Y-105595000D02*
X134645000Y-107525000D01*
X179835000Y-94415000D02*
X180695000Y-90965000D01*
X121755000Y-82575000D02*
X121705000Y-84595000D01*
X179525000Y-76015000D02*
X178325000Y-72705000D01*
X140925000Y-118075000D02*
X144535000Y-118805000D01*
X124405000Y-94995000D02*
X125815000Y-97965000D01*
X134765000Y-116275000D02*
X138245000Y-117685000D01*
X173985000Y-77055000D02*
X172795000Y-74065000D01*
X140465000Y-109135000D02*
X143555000Y-110075000D01*
X165525000Y-106685000D02*
X168025000Y-104585000D01*
X161155000Y-54685000D02*
X157695000Y-53585000D01*
X132575000Y-110465000D02*
X135595000Y-112225000D01*
X155245000Y-113795000D02*
X158485000Y-112955000D01*
X115285000Y-79455000D02*
X114905000Y-83165000D01*
X164715000Y-110115000D02*
X167545000Y-108165000D01*
X178325000Y-72705000D02*
X176735000Y-69515000D01*
X170845000Y-109065000D02*
X173395000Y-106535000D01*
X164395000Y-53015000D02*
X160985000Y-51655000D01*
X175615000Y-94415000D02*
X176555000Y-91215000D01*
X123995000Y-69385000D02*
X122375000Y-72435000D01*
X170915000Y-68685000D02*
X168795000Y-66235000D01*
X161355000Y-107385000D02*
X164055000Y-105725000D01*
X144805000Y-57385000D02*
X141575000Y-58145000D01*
X178085000Y-74245000D02*
X176675000Y-71075000D01*
X173575000Y-64345000D02*
X171145000Y-61825000D01*
X136665000Y-57905000D02*
X133645000Y-59575000D01*
X152005000Y-58675000D02*
X148825000Y-58575000D01*
X180125000Y-96065000D02*
X181165000Y-92595000D01*
X125085000Y-108925000D02*
X127815000Y-111425000D01*
X151975000Y-56265000D02*
X148615000Y-56185000D01*
X164975000Y-61075000D02*
X162035000Y-59425000D01*
X137985000Y-55585000D02*
X134745000Y-57085000D01*
X179335000Y-103985000D02*
X181185000Y-100705000D01*
X177065000Y-76175000D02*
X175845000Y-73025000D01*
X179505000Y-77415000D02*
X178445000Y-74065000D01*
X128425000Y-68575000D02*
X126585000Y-71285000D01*
X175325000Y-74875000D02*
X173925000Y-71855000D01*
X127725000Y-103525000D02*
X130105000Y-105995000D01*
X126975000Y-100595000D02*
X129035000Y-103195000D01*
X141245000Y-54085000D02*
X137855000Y-55205000D01*
X182685000Y-91195000D02*
X183155000Y-87545000D01*
X182365000Y-82585000D02*
X181895000Y-78985000D01*
X174825000Y-66565000D02*
X172595000Y-63845000D01*
X118555000Y-79325000D02*
X118125000Y-82785000D01*
X179895000Y-67785000D02*
X177875000Y-64635000D01*
X149955000Y-51365000D02*
X146335000Y-51525000D01*
X163325000Y-114925000D02*
X166545000Y-113215000D01*
X182315000Y-70845000D02*
X180645000Y-67475000D01*
X123075000Y-74915000D02*
X122075000Y-78145000D01*
X172365000Y-67945000D02*
X170165000Y-65355000D01*
X143675000Y-54335000D02*
X140225000Y-55215000D01*
X134125000Y-56055000D02*
X131065000Y-57925000D01*
X178595000Y-97745000D02*
X179835000Y-94415000D01*
X148365000Y-114345000D02*
X151795000Y-114275000D01*
X123765000Y-87335000D02*
X124275000Y-90525000D01*
X155135000Y-119505000D02*
X158765000Y-118715000D01*
X135685000Y-62075000D02*
X133025000Y-63925000D01*
X122955000Y-65195000D02*
X120955000Y-68235000D01*
X132465000Y-112765000D02*
X135635000Y-114475000D01*
X169265000Y-69195000D02*
X167125000Y-66865000D01*
X173965000Y-62975000D02*
X171355000Y-60395000D01*
X175855000Y-81745000D02*
X175245000Y-78535000D01*
X125175000Y-101505000D02*
X127305000Y-104265000D01*
X134785000Y-106165000D02*
X137525000Y-107825000D01*
X172405000Y-108145000D02*
X174875000Y-105405000D01*
X159945000Y-116265000D02*
X163325000Y-114925000D01*
X119285000Y-71505000D02*
X117995000Y-74915000D01*
X134015000Y-113205000D02*
X137235000Y-114745000D01*
X120695000Y-92715000D02*
X121775000Y-95955000D01*
X132775000Y-61605000D02*
X130155000Y-63745000D01*
X122235000Y-81785000D02*
X122055000Y-84995000D01*
X117315000Y-97725000D02*
X118875000Y-101115000D01*
X130135000Y-64865000D02*
X127875000Y-67335000D01*
X155365000Y-56745000D02*
X151975000Y-56265000D01*
X178725000Y-99365000D02*
X180125000Y-96065000D01*
X178445000Y-94815000D02*
X179375000Y-91435000D01*
X155275000Y-59175000D02*
X152005000Y-58675000D01*
X177645000Y-80225000D02*
X176885000Y-76945000D01*
X137285000Y-109945000D02*
X140335000Y-111215000D01*
X179965000Y-71465000D02*
X178315000Y-68245000D01*
X175865000Y-88225000D02*
X176055000Y-84975000D01*
X176985000Y-104615000D02*
X178945000Y-101525000D01*
X157815000Y-60295000D02*
X154735000Y-59475000D01*
X176635000Y-81575000D02*
X176025000Y-78355000D01*
X151925000Y-53445000D02*
X148355000Y-53395000D01*
X180695000Y-90965000D02*
X181165000Y-87445000D01*
X129005000Y-63725000D02*
X126665000Y-66285000D01*
X153625000Y-49995000D02*
X149875000Y-49765000D01*
X132715000Y-108125000D02*
X135545000Y-109935000D01*
X136445000Y-107685000D02*
X139285000Y-109095000D01*
X146735000Y-110615000D02*
X149915000Y-110765000D01*
X154295000Y-50885000D02*
X150565000Y-50575000D01*
X163995000Y-59085000D02*
X160865000Y-57585000D01*
X119385000Y-77345000D02*
X118725000Y-80795000D01*
X125595000Y-109995000D02*
X128425000Y-112415000D01*
X179415000Y-99775000D02*
X180855000Y-96395000D01*
X146405000Y-109775000D02*
X148857095Y-109922905D01*
X181815000Y-94775000D02*
X182685000Y-91195000D01*
X132275000Y-66145000D02*
X130065000Y-68455000D01*
X156765000Y-114275000D02*
X160085000Y-113245000D01*
X115425000Y-93095000D02*
X116485000Y-96665000D01*
X156705000Y-110985000D02*
X159785000Y-109925000D01*
X120385000Y-99675000D02*
X122185000Y-102785000D01*
X123725000Y-102925000D02*
X125915000Y-105715000D01*
X144535000Y-118805000D02*
X148215000Y-119145000D01*
X125725000Y-74755000D02*
X124665000Y-77755000D01*
X128065000Y-99355000D02*
X130005000Y-101885000D01*
X177825000Y-69825000D02*
X175985000Y-66825000D01*
X150605000Y-116745000D02*
X154175000Y-116415000D01*
X125615000Y-106575000D02*
X128145000Y-109075000D01*
X126795000Y-59235000D02*
X124135000Y-61865000D01*
X122015000Y-91425000D02*
X122995000Y-94675000D01*
X182965000Y-91855000D02*
X183505000Y-88225000D01*
X139685000Y-59645000D02*
X136695000Y-61035000D01*
X175935000Y-101125000D02*
X177605000Y-97985000D01*
X152065000Y-113045000D02*
X155365000Y-112545000D01*
X165085000Y-54685000D02*
X161705000Y-53185000D01*
X124635000Y-69105000D02*
X122975000Y-72105000D01*
X138425000Y-59305000D02*
X135455000Y-60815000D01*
X125105000Y-63785000D02*
X122915000Y-66635000D01*
X124355000Y-109325000D02*
X127095000Y-111865000D01*
X119985000Y-89325000D02*
X120695000Y-92715000D01*
X154555000Y-58625000D02*
X151355000Y-58225000D01*
X133805000Y-62345000D02*
X131205000Y-64415000D01*
X174245000Y-70015000D02*
X172305000Y-67215000D01*
X168545000Y-108905000D02*
X171155000Y-106565000D01*
X169815000Y-114435000D02*
X172795000Y-112135000D01*
X177755000Y-66585000D02*
X175615000Y-63675000D01*
X131375000Y-105525000D02*
X133965000Y-107545000D01*
X148465000Y-113545000D02*
X151865000Y-113465000D01*
X156805000Y-116735000D02*
X160255000Y-115735000D01*
X116485000Y-96665000D02*
X117935000Y-100135000D01*
X165615000Y-116475000D02*
X168845000Y-114605000D01*
X156275000Y-113165000D02*
X159515000Y-112175000D01*
X129665000Y-56945000D02*
X126795000Y-59235000D01*
X129685000Y-106695000D02*
X132355000Y-108855000D01*
X127895000Y-59865000D02*
X125295000Y-62375000D01*
X114915000Y-86905000D02*
X115315000Y-90555000D01*
X163105000Y-112815000D02*
X166175000Y-111095000D01*
X147235000Y-51045000D02*
X143575000Y-51505000D01*
X159155000Y-61665000D02*
X156175000Y-60645000D01*
X176085000Y-91475000D02*
X176675000Y-88145000D01*
X154995000Y-55045000D02*
X151535000Y-54625000D01*
X125755000Y-76955000D02*
X124945000Y-79995000D01*
X136075000Y-60005000D02*
X133225000Y-61775000D01*
X161205000Y-59475000D02*
X158055000Y-58265000D01*
X139995000Y-119065000D02*
X143635000Y-119875000D01*
X149565000Y-112365000D02*
X152875000Y-112155000D01*
X135855000Y-115455000D02*
X139275000Y-116765000D01*
X183235000Y-83895000D02*
X182915000Y-80235000D01*
X128165000Y-71015000D02*
X126595000Y-73815000D01*
X151715000Y-54235000D02*
X148255000Y-54195000D01*
X164315000Y-113095000D02*
X167355000Y-111275000D01*
X130575000Y-66115000D02*
X128425000Y-68575000D01*
X123825000Y-95685000D02*
X125285000Y-98655000D01*
X150615000Y-52575000D02*
X147035000Y-52665000D01*
X158865000Y-54325000D02*
X155365000Y-53485000D01*
X161295000Y-108355000D02*
X164065000Y-106735000D01*
X155065000Y-52215000D02*
X151395000Y-51815000D01*
X177565000Y-90295000D02*
X177985000Y-86925000D01*
X175655000Y-100025000D02*
X177205000Y-96925000D01*
X169375000Y-68675000D02*
X167205000Y-66355000D01*
X169565000Y-63095000D02*
X166905000Y-60935000D01*
X170675000Y-62485000D02*
X168005000Y-60255000D01*
X121035000Y-69735000D02*
X119535000Y-72975000D01*
X119375000Y-87595000D02*
X119885000Y-91045000D01*
X152155000Y-111425000D02*
X155355000Y-110915000D01*
X135545000Y-109935000D02*
X138635000Y-111425000D01*
X121125000Y-75635000D02*
X120245000Y-78975000D01*
X162635000Y-110815000D02*
X165555000Y-109105000D01*
X126815000Y-108385000D02*
X129485000Y-110705000D01*
X130385000Y-105715000D02*
X133035000Y-107865000D01*
X169145000Y-62185000D02*
X166365000Y-60075000D01*
X174825000Y-89715000D02*
X175215000Y-86525000D01*
X170685000Y-98905000D02*
X172255000Y-96155000D01*
X164735000Y-64305000D02*
X161995000Y-62555000D01*
X137175000Y-54185000D02*
X133895000Y-55725000D01*
X175015000Y-75185000D02*
X173645000Y-72185000D01*
X116585000Y-81995000D02*
X116465000Y-85635000D01*
X141915000Y-57215000D02*
X138695000Y-58315000D01*
X167715000Y-105425000D02*
X170075000Y-103035000D01*
X116865000Y-85715000D02*
X117155000Y-89335000D01*
X123965000Y-77285000D02*
X123225000Y-80485000D01*
X159085000Y-61185000D02*
X156055000Y-60195000D01*
X179375000Y-91435000D02*
X179905000Y-87985000D01*
X128725000Y-60735000D02*
X126145000Y-63225000D01*
X152335000Y-110195000D02*
X155395000Y-109665000D01*
X137855000Y-55205000D02*
X134605000Y-56705000D01*
X184765000Y-82505000D02*
X184295000Y-78765000D01*
X128425000Y-112415000D02*
X131505000Y-114525000D01*
X172935000Y-97505000D02*
X174285000Y-94545000D01*
X123025000Y-101125000D02*
X125025000Y-104015000D01*
X174275000Y-75475000D02*
X172905000Y-72495000D01*
X172305000Y-67215000D02*
X170085000Y-64695000D01*
X165115000Y-107475000D02*
X167715000Y-105425000D01*
X145225000Y-56505000D02*
X141915000Y-57215000D01*
X170345000Y-111055000D02*
X173085000Y-108595000D01*
X118515000Y-67675000D02*
X116865000Y-71055000D01*
X174885000Y-68045000D02*
X172815000Y-65305000D01*
X149865000Y-115165000D02*
X153365000Y-114915000D01*
X130205000Y-100875000D02*
X132425000Y-103195000D01*
X140595000Y-115915000D02*
X144195000Y-116725000D01*
X131355000Y-64815000D02*
X129025000Y-67205000D01*
X157085000Y-56735000D02*
X153735000Y-56055000D01*
X115035000Y-93195000D02*
X116115000Y-96815000D01*
X126585000Y-71285000D02*
X125095000Y-74195000D01*
X166255000Y-110085000D02*
X169025000Y-107995000D01*
X123665000Y-84145000D02*
X123765000Y-87335000D01*
X165985000Y-114925000D02*
X169095000Y-112985000D01*
X146625000Y-55115000D02*
X143215000Y-55655000D01*
X181895000Y-81835000D02*
X181355000Y-78315000D01*
X176815000Y-74295000D02*
X175385000Y-71195000D01*
X129025000Y-67205000D02*
X127045000Y-69805000D01*
X177585000Y-70225000D02*
X175755000Y-67185000D01*
X115385000Y-81915000D02*
X115265000Y-85635000D01*
X133455000Y-64605000D02*
X131075000Y-66745000D01*
X154865000Y-116715000D02*
X158335000Y-115925000D01*
X118125000Y-71165000D02*
X116825000Y-74655000D01*
X168845000Y-114605000D02*
X171875000Y-112385000D01*
X123705000Y-80065000D02*
X123305000Y-83275000D01*
X180905000Y-80325000D02*
X180175000Y-76825000D01*
X180575000Y-98205000D02*
X181815000Y-94775000D01*
X172065000Y-102515000D02*
X173975000Y-99725000D01*
X125765000Y-64865000D02*
X123635000Y-67715000D01*
X121995000Y-89255000D02*
X122715000Y-92515000D01*
X153735000Y-56055000D02*
X150325000Y-55775000D01*
X124075000Y-75675000D02*
X123145000Y-78815000D01*
X135455000Y-60815000D02*
X132665000Y-62685000D01*
X179095000Y-71475000D02*
X177435000Y-68325000D01*
X137455000Y-54505000D02*
X134125000Y-56055000D01*
X178735000Y-87675000D02*
X178845000Y-84285000D01*
X124325000Y-105695000D02*
X126815000Y-108385000D01*
X124495000Y-92885000D02*
X125665000Y-95895000D01*
X123875000Y-65965000D02*
X121915000Y-68975000D01*
X148315000Y-58995000D02*
X145145000Y-59355000D01*
X130755000Y-57645000D02*
X127895000Y-59865000D01*
X120495000Y-103115000D02*
X122635000Y-106155000D01*
X139975000Y-54035000D02*
X136595000Y-55295000D01*
X147715000Y-117115000D02*
X151305000Y-117115000D01*
X169855000Y-104455000D02*
X172025000Y-101905000D01*
X122055000Y-84995000D02*
X122275000Y-88365000D01*
X168345000Y-105395000D02*
X170635000Y-103005000D01*
X114905000Y-83165000D02*
X114915000Y-86905000D01*
X127225000Y-105965000D02*
X129765000Y-108365000D01*
X164585000Y-109255000D02*
X167345000Y-107305000D01*
X125255000Y-97775000D02*
X126975000Y-100595000D01*
X170165000Y-65355000D02*
X167695000Y-63055000D01*
X129055000Y-101375000D02*
X131255000Y-103785000D01*
X166655000Y-104755000D02*
X168935000Y-102515000D01*
X179765000Y-101695000D02*
X181385000Y-98335000D01*
X170725000Y-104705000D02*
X172895000Y-102075000D01*
X171335000Y-59845000D02*
X168485000Y-57645000D01*
X118915000Y-96315000D02*
X120385000Y-99675000D01*
X175845000Y-71215000D02*
X174075000Y-68275000D01*
X152125000Y-118665000D02*
X155835000Y-118165000D01*
X138695000Y-58315000D02*
X135635000Y-59785000D01*
X163425000Y-59235000D02*
X160365000Y-57815000D01*
X167705000Y-60525000D02*
X164815000Y-58635000D01*
X178315000Y-77635000D02*
X177275000Y-74365000D01*
X149245000Y-119565000D02*
X152895000Y-119395000D01*
X119765000Y-82405000D02*
X119675000Y-85845000D01*
X152895000Y-113765000D02*
X156275000Y-113165000D01*
X141195000Y-55755000D02*
X137925000Y-56905000D01*
X172795000Y-74065000D02*
X171245000Y-71255000D01*
X164145000Y-54665000D02*
X160765000Y-53265000D01*
X117295000Y-71075000D02*
X115995000Y-74615000D01*
X123875000Y-94735000D02*
X125255000Y-97775000D01*
X130005000Y-101885000D02*
X132255000Y-104165000D01*
X130065000Y-68455000D02*
X128165000Y-71015000D01*
X146435000Y-118225000D02*
X150055000Y-118355000D01*
X179595000Y-69765000D02*
X177755000Y-66585000D01*
X117745000Y-82515000D02*
X117675000Y-86075000D01*
X172015000Y-110695000D02*
X174665000Y-108105000D01*
X178445000Y-74065000D02*
X177025000Y-70875000D01*
X131705000Y-58935000D02*
X128905000Y-61105000D01*
X171635000Y-64575000D02*
X169145000Y-62185000D01*
X165735000Y-107525000D02*
X168345000Y-105395000D01*
X183785000Y-93665000D02*
X184505000Y-90015000D01*
X123295000Y-61605000D02*
X120955000Y-64545000D01*
X170955000Y-99975000D02*
X172655000Y-97175000D01*
X115935000Y-89245000D02*
X116595000Y-92835000D01*
X167375000Y-56435000D02*
X164145000Y-54665000D01*
X122615000Y-94795000D02*
X123965000Y-97905000D01*
X148885000Y-111555000D02*
X152155000Y-111425000D01*
X175905000Y-90445000D02*
X176365000Y-87235000D01*
X140535000Y-110435000D02*
X143695000Y-111335000D01*
X181165000Y-92595000D02*
X181805000Y-89045000D01*
X133905000Y-62765000D02*
X131355000Y-64815000D01*
X176095000Y-80635000D02*
X175365000Y-77445000D01*
X179045000Y-102155000D02*
X180735000Y-98835000D01*
X163505000Y-53055000D02*
X160025000Y-51755000D01*
X124325000Y-72985000D02*
X123085000Y-76075000D01*
X162215000Y-60405000D02*
X159155000Y-59065000D01*
X121045000Y-88235000D02*
X121645000Y-91585000D01*
X171925000Y-69385000D02*
X169895000Y-66825000D01*
X175365000Y-77445000D02*
X174245000Y-74355000D01*
X162335000Y-109165000D02*
X165115000Y-107475000D01*
X182985000Y-76505000D02*
X181875000Y-72965000D01*
X119235000Y-80085000D02*
X118885000Y-83575000D01*
X120305000Y-72165000D02*
X119065000Y-75525000D01*
X179905000Y-87985000D02*
X180045000Y-84425000D01*
X118015000Y-89665000D02*
X118735000Y-93135000D01*
X121865000Y-99915000D02*
X123725000Y-102925000D01*
X179335000Y-73045000D02*
X177825000Y-69825000D01*
X167205000Y-66355000D02*
X164735000Y-64305000D01*
X117155000Y-89335000D02*
X117845000Y-92895000D01*
X124275000Y-90525000D02*
X125165000Y-93615000D01*
X125665000Y-95895000D02*
X127215000Y-98785000D01*
X148857095Y-109922905D02*
X150300000Y-109840000D01*
X138915000Y-111105000D02*
X142085000Y-112175000D01*
X130105000Y-105995000D02*
X132715000Y-108125000D01*
X114745000Y-89415000D02*
X115425000Y-93095000D01*
X148255000Y-54195000D02*
X144735000Y-54555000D01*
X159785000Y-109925000D02*
X162765000Y-108475000D01*
X158565000Y-119185000D02*
X162145000Y-118025000D01*
X128785000Y-64515000D02*
X126535000Y-67095000D01*
X176745000Y-93575000D02*
X177565000Y-90295000D01*
X119335000Y-103535000D02*
X121495000Y-106645000D01*
X142405000Y-110185000D02*
X145535000Y-110865000D01*
X175635000Y-103745000D02*
X177565000Y-100715000D01*
X173145000Y-65075000D02*
X170675000Y-62485000D01*
X162335000Y-117525000D02*
X165715000Y-115975000D01*
X144175000Y-52215000D02*
X140605000Y-53015000D01*
X163625000Y-116545000D02*
X166915000Y-114855000D01*
X182625000Y-94885000D02*
X183495000Y-91235000D01*
X183395000Y-80815000D02*
X182745000Y-77195000D01*
X179245000Y-103375000D02*
X181035000Y-100095000D01*
X182185000Y-76615000D02*
X181085000Y-73135000D01*
X136735000Y-114095000D02*
X140055000Y-115335000D01*
X175385000Y-65315000D02*
X173035000Y-62565000D01*
X130385000Y-68715000D02*
X128485000Y-71285000D01*
X151155000Y-120325000D02*
X154915000Y-119945000D01*
X130795000Y-113605000D02*
X133995000Y-115455000D01*
X124235000Y-106835000D02*
X126785000Y-109465000D01*
X156015000Y-58115000D02*
X152665000Y-57535000D01*
X127595000Y-61205000D02*
X125105000Y-63785000D01*
X146085000Y-113765000D02*
X149515000Y-113965000D01*
X145385000Y-112865000D02*
X148715000Y-113155000D01*
X121655000Y-78165000D02*
X121065000Y-81455000D01*
X161995000Y-62555000D02*
X159085000Y-61185000D01*
X117235000Y-74675000D02*
X116315000Y-78255000D01*
X145275000Y-50435000D02*
X141585000Y-51105000D01*
X169995000Y-56755000D02*
X166865000Y-54735000D01*
X173755000Y-102935000D02*
X175655000Y-100025000D01*
X139985000Y-52355000D02*
X136505000Y-53595000D01*
X125495000Y-58795000D02*
X122835000Y-61525000D01*
X136435000Y-62095000D02*
X133745000Y-63875000D01*
X137085000Y-58595000D02*
X134095000Y-60235000D01*
X181895000Y-78985000D02*
X181045000Y-75495000D01*
X150185000Y-112755000D02*
X153495000Y-112475000D01*
X124015000Y-71805000D02*
X122655000Y-74905000D01*
X126595000Y-73815000D02*
X125385000Y-76765000D01*
X172025000Y-101905000D02*
X173865000Y-99125000D01*
X142055000Y-117115000D02*
X145605000Y-117735000D01*
X179115000Y-87905000D02*
X179245000Y-84405000D01*
X150055000Y-118355000D02*
X153745000Y-118095000D01*
X156005000Y-114865000D02*
X159365000Y-113925000D01*
X138565000Y-60555000D02*
X135685000Y-62075000D01*
X124555000Y-61995000D02*
X122195000Y-64885000D01*
X122935000Y-86975000D02*
X123385000Y-90205000D01*
X136425000Y-108135000D02*
X139345000Y-109555000D01*
X116735000Y-89275000D02*
X117425000Y-92845000D01*
X174705000Y-100825000D02*
X176365000Y-97815000D01*
X177255000Y-84625000D02*
X176995000Y-81255000D01*
X136955000Y-107055000D02*
X139805000Y-108445000D01*
X155395000Y-109665000D02*
X158545000Y-108685000D01*
X131835000Y-103235000D02*
X134275000Y-105305000D01*
X148825000Y-58575000D02*
X145585000Y-58875000D01*
X140335000Y-111215000D02*
X143545000Y-112125000D01*
X177865000Y-77485000D02*
X176815000Y-74295000D01*
X167365000Y-106775000D02*
X169855000Y-104455000D01*
X153295000Y-49555000D02*
X149515000Y-49365000D01*
X138805000Y-51465000D02*
X135295000Y-52815000D01*
X119825000Y-97525000D02*
X121405000Y-100735000D01*
X121305000Y-99725000D02*
X123175000Y-102825000D01*
X131065000Y-57925000D02*
X128215000Y-60115000D01*
X125025000Y-104015000D02*
X127365000Y-106685000D01*
X121065000Y-81455000D02*
X120855000Y-84825000D01*
X156405000Y-50835000D02*
X152735000Y-50305000D01*
X124945000Y-79995000D02*
X124525000Y-83145000D01*
X141585000Y-51105000D02*
X138025000Y-52155000D01*
X168775000Y-101445000D02*
X170685000Y-98905000D01*
X118595000Y-87845000D02*
X119125000Y-91325000D01*
X128815000Y-56575000D02*
X125895000Y-58965000D01*
X179795000Y-81045000D02*
X179125000Y-77565000D01*
X155665000Y-57215000D02*
X152315000Y-56695000D01*
X131945000Y-54525000D02*
X128815000Y-56575000D01*
X123175000Y-102825000D02*
X125335000Y-105655000D01*
X181385000Y-93365000D02*
X182105000Y-89815000D01*
X162665000Y-116525000D02*
X165985000Y-114925000D01*
X162255000Y-55565000D02*
X158865000Y-54325000D01*
X165345000Y-55725000D02*
X162075000Y-54195000D01*
X132625000Y-113795000D02*
X135855000Y-115455000D01*
X124665000Y-77755000D02*
X123965000Y-80915000D01*
X146035000Y-117385000D02*
X149635000Y-117565000D01*
X135195000Y-114705000D02*
X138565000Y-116105000D01*
X151925000Y-119075000D02*
X155595000Y-118615000D01*
X151485000Y-57025000D02*
X148135000Y-57005000D01*
X141655000Y-59375000D02*
X138565000Y-60555000D01*
X171455000Y-65575000D02*
X169075000Y-63185000D01*
X125675000Y-73885000D02*
X124495000Y-76925000D01*
X124135000Y-61865000D02*
X121795000Y-64755000D01*
X141595000Y-113285000D02*
X144965000Y-114015000D01*
X121355000Y-98015000D02*
X123025000Y-101125000D01*
X144805000Y-53735000D02*
X141345000Y-54465000D01*
X178225000Y-91065000D02*
X178735000Y-87675000D01*
X149045000Y-115565000D02*
X152585000Y-115405000D01*
X125095000Y-74195000D02*
X123965000Y-77285000D01*
X180265000Y-96835000D02*
X181385000Y-93365000D01*
X164815000Y-58635000D02*
X161665000Y-57055000D01*
X142845000Y-58205000D02*
X139645000Y-59235000D01*
X181875000Y-100195000D02*
X183295000Y-96695000D01*
X126145000Y-63225000D02*
X123875000Y-65965000D01*
X159285000Y-110555000D02*
X162335000Y-109165000D01*
X144735000Y-54555000D02*
X141345000Y-55295000D01*
X176305000Y-62005000D02*
X173725000Y-59305000D01*
X117845000Y-92895000D02*
X118915000Y-96315000D01*
X132575000Y-66445000D02*
X130385000Y-68715000D01*
X169415000Y-65155000D02*
X166865000Y-62905000D01*
X184835000Y-86265000D02*
X184765000Y-82505000D01*
X180185000Y-80915000D02*
X179505000Y-77415000D01*
X127815000Y-111425000D02*
X130795000Y-113605000D01*
X148495000Y-114745000D02*
X151935000Y-114665000D01*
X172895000Y-102075000D02*
X174735000Y-99215000D01*
X161825000Y-58875000D02*
X158615000Y-57605000D01*
X183715000Y-80185000D02*
X182985000Y-76505000D01*
X179195000Y-90275000D02*
X179605000Y-86835000D01*
X117935000Y-100135000D02*
X119745000Y-103435000D01*
X175235000Y-67845000D02*
X173145000Y-65075000D01*
X129485000Y-110705000D02*
X132465000Y-112765000D01*
X123225000Y-80485000D02*
X122885000Y-83695000D01*
X125665000Y-103535000D02*
X127975000Y-106165000D01*
X151875000Y-53045000D02*
X148325000Y-52995000D01*
X178375000Y-82865000D02*
X177915000Y-79475000D01*
X120525000Y-64465000D02*
X118515000Y-67675000D01*
X156445000Y-117225000D02*
X159945000Y-116265000D01*
X143515000Y-116195000D02*
X147095000Y-116675000D01*
X167575000Y-62445000D02*
X164775000Y-60475000D01*
X160155000Y-117885000D02*
X163625000Y-116545000D01*
X123025000Y-107265000D02*
X125595000Y-109995000D01*
X155595000Y-118615000D02*
X159175000Y-117765000D01*
X139595000Y-52055000D02*
X136135000Y-53315000D01*
X144835000Y-58595000D02*
X141655000Y-59375000D01*
X140675000Y-115105000D02*
X144125000Y-115905000D01*
X157725000Y-59425000D02*
X154555000Y-58625000D01*
X138795000Y-113635000D02*
X142125000Y-114665000D01*
X118775000Y-68875000D02*
X117225000Y-72295000D01*
X121795000Y-64755000D02*
X119795000Y-67845000D01*
X154735000Y-59475000D02*
X151525000Y-59035000D01*
X168585000Y-67175000D02*
X166265000Y-64985000D01*
X182185000Y-71565000D02*
X180575000Y-68185000D01*
X167675000Y-64085000D02*
X165085000Y-62105000D01*
X173865000Y-99125000D02*
X175365000Y-96145000D01*
X174315000Y-90125000D02*
X174755000Y-87005000D01*
X119745000Y-103435000D02*
X121895000Y-106505000D01*
X171365000Y-98625000D02*
X172895000Y-95785000D01*
X153635000Y-51605000D02*
X149955000Y-51365000D01*
X146885000Y-50675000D02*
X143205000Y-51165000D01*
X164285000Y-57425000D02*
X161025000Y-55925000D01*
X167345000Y-103585000D02*
X169505000Y-101235000D01*
X178885000Y-94755000D02*
X179805000Y-91335000D01*
X131075000Y-66745000D02*
X128965000Y-69185000D01*
X158545000Y-108685000D02*
X161355000Y-107385000D01*
X122605000Y-82065000D02*
X122465000Y-85445000D01*
X160865000Y-57585000D02*
X157625000Y-56465000D01*
X182105000Y-89815000D02*
X182435000Y-86135000D01*
X125205000Y-92475000D02*
X126335000Y-95445000D01*
X162005000Y-63045000D02*
X159155000Y-61665000D01*
X145495000Y-119335000D02*
X149245000Y-119565000D01*
X169035000Y-109025000D02*
X171625000Y-106665000D01*
X135635000Y-59785000D02*
X132775000Y-61605000D01*
X155215000Y-52645000D02*
X151645000Y-52225000D01*
X125295000Y-62375000D02*
X122955000Y-65195000D01*
X177435000Y-68325000D02*
X175385000Y-65315000D01*
X159365000Y-113925000D02*
X162615000Y-112605000D01*
X133395000Y-110515000D02*
X136425000Y-112195000D01*
X117095000Y-78425000D02*
X116585000Y-81995000D01*
X144125000Y-115905000D02*
X147685000Y-116315000D01*
X165485000Y-56255000D02*
X162155000Y-54655000D01*
X158205000Y-52065000D02*
X154565000Y-51325000D01*
X170635000Y-103005000D02*
X172645000Y-100335000D01*
X140295000Y-108225000D02*
X143325000Y-109195000D01*
X182195000Y-78435000D02*
X181275000Y-74895000D01*
X126835000Y-69405000D02*
X125185000Y-72165000D01*
X169505000Y-101235000D02*
X171365000Y-98625000D01*
X133385000Y-109085000D02*
X136345000Y-110815000D01*
X160025000Y-51755000D02*
X156405000Y-50835000D01*
X174925000Y-91155000D02*
X175485000Y-88005000D01*
X123295000Y-65415000D02*
X121305000Y-68435000D01*
X133255000Y-55165000D02*
X130045000Y-57165000D01*
X141795000Y-118695000D02*
X145495000Y-119335000D01*
X175425000Y-81565000D02*
X174795000Y-78385000D01*
X180645000Y-67475000D02*
X178615000Y-64295000D01*
X121895000Y-106505000D02*
X124355000Y-109325000D01*
X120195000Y-67955000D02*
X118525000Y-71245000D01*
X177025000Y-100035000D02*
X178545000Y-96835000D01*
X127875000Y-67335000D02*
X125945000Y-70035000D01*
X131505000Y-114525000D02*
X134765000Y-116275000D01*
X169125000Y-67165000D02*
X166755000Y-64885000D01*
X126745000Y-112095000D02*
X129715000Y-114325000D01*
X180175000Y-76825000D02*
X179065000Y-73455000D01*
X139125000Y-53045000D02*
X135735000Y-54365000D01*
X143555000Y-110075000D02*
X146735000Y-110615000D01*
X145575000Y-115315000D02*
X149045000Y-115565000D01*
X178635000Y-65015000D02*
X176305000Y-62005000D01*
X180485000Y-76445000D02*
X179335000Y-73045000D01*
X155355000Y-110915000D02*
X158485000Y-109995000D01*
X175525000Y-109525000D02*
X177975000Y-106635000D01*
X126635000Y-64475000D02*
X124465000Y-67205000D01*
X155945000Y-120175000D02*
X159605000Y-119305000D01*
X173565000Y-68245000D02*
X171455000Y-65575000D01*
X175545000Y-96725000D02*
X176745000Y-93575000D01*
X177135000Y-98055000D02*
X178445000Y-94815000D01*
X172215000Y-99525000D02*
X173815000Y-96655000D01*
X132665000Y-62685000D02*
X130135000Y-64865000D01*
X168075000Y-55935000D02*
X164865000Y-54125000D01*
X175175000Y-103015000D02*
X177025000Y-100035000D01*
X136505000Y-53595000D02*
X133255000Y-55165000D01*
X122055000Y-97625000D02*
X123705000Y-100705000D01*
X181615000Y-83485000D02*
X181245000Y-79925000D01*
X118705000Y-99895000D02*
X120495000Y-103115000D01*
X134775000Y-105195000D02*
X137445000Y-106875000D01*
X128145000Y-62335000D02*
X125765000Y-64865000D01*
X170145000Y-105885000D02*
X172435000Y-103335000D01*
X180445000Y-90085000D02*
X180815000Y-86575000D01*
X120315000Y-88835000D02*
X120975000Y-92205000D01*
X124565000Y-67765000D02*
X122765000Y-70745000D01*
X117675000Y-86075000D02*
X118015000Y-89665000D01*
X132355000Y-108855000D02*
X135245000Y-110685000D01*
X171645000Y-67665000D02*
X169415000Y-65155000D01*
X146035000Y-58005000D02*
X142805000Y-58635000D01*
X175655000Y-84795000D02*
X175425000Y-81565000D01*
X146275000Y-112175000D02*
X149565000Y-112365000D01*
X134875000Y-52565000D02*
X131535000Y-54305000D01*
X156155000Y-111545000D02*
X159285000Y-110555000D01*
X128215000Y-104675000D02*
X130685000Y-107045000D01*
X119535000Y-72975000D02*
X118395000Y-76395000D01*
X160255000Y-115735000D02*
X163615000Y-114345000D01*
X130685000Y-107045000D02*
X133385000Y-109085000D01*
X170415000Y-60115000D02*
X167475000Y-57935000D01*
X180045000Y-84425000D02*
X179795000Y-81045000D01*
X123245000Y-99105000D02*
X125055000Y-102035000D01*
X147655000Y-119915000D02*
X151395000Y-119915000D01*
X136425000Y-117865000D02*
X139995000Y-119065000D01*
X175195000Y-83305000D02*
X174785000Y-80145000D01*
X180445000Y-84365000D02*
X180185000Y-80915000D01*
X157695000Y-53585000D02*
X154195000Y-52885000D01*
X167375000Y-113175000D02*
X170345000Y-111055000D01*
X124445000Y-89355000D02*
X125205000Y-92475000D01*
X154715000Y-115925000D02*
X158175000Y-115145000D01*
X120885000Y-102995000D02*
X123015000Y-105985000D01*
X134155000Y-112365000D02*
X137335000Y-113915000D01*
X118495000Y-96335000D02*
X119925000Y-99645000D01*
X124205000Y-99185000D02*
X126055000Y-102055000D01*
X136735000Y-117555000D02*
X140295000Y-118735000D01*
X121305000Y-68435000D02*
X119655000Y-71665000D01*
X154775000Y-57445000D02*
X151485000Y-57025000D01*
X148105000Y-58205000D02*
X144835000Y-58595000D01*
X127365000Y-106685000D02*
X129905000Y-108995000D01*
X162035000Y-59425000D02*
X158925000Y-58135000D01*
X121465000Y-81455000D02*
X121255000Y-84765000D01*
X120235000Y-77245000D02*
X119555000Y-80645000D01*
X184445000Y-85665000D02*
X184315000Y-81925000D01*
X174785000Y-80145000D02*
X173985000Y-77055000D01*
X161745000Y-114745000D02*
X164995000Y-113185000D01*
%TD*%
M02*
