  0
SECTION
  2
HEADER
  9
$ANGBASE
  50
0.0
  9
$ANGDIR
  70
1
  9
$MEASUREMENT
  70
1
  0
ENDSEC
  0
SECTION
  2
TABLES
  0
TABLE
  2
LTYPE
  70
4
  0
LTYPE
  5
40F
  2
CONTINUOUS
  70
0
  3
Solid line
  72
65
  73
0
  40
0.0
  0
LTYPE
  5
410
  2
DASHDOT
 70
0
  3
Dash Dot ____ _ ____ _
 72
65
 73
4
 40
2.0
 49
1.25
 49
-0.25
 49
0.25
 49
-0.25
  0
LTYPE
  5
411
  2
DASHED
 70
0
  3
Dashed __ __ __ __ __
 72
65
 73
2
 40
0.75
 49
0.5
 49
-0.25
  0
LTYPE
  5
43B
  2
DOTTED
 70
0
  3
Dotted .  .  .  .
 72
65
 73
2
 40
0.2
 49
0.0
 49
-0.2
  0
ENDTAB
  0
TABLE
  2
STYLE
  70
4
  0
STYLE
  2
KICAD
  70
0
  40
0
  41
1
  42
1
  50
0
  71
0
  3
isocp.shx
  0
STYLE
  2
KICADB
  70
0
  40
0
  41
1
  42
1
  50
0
  71
0
  3
isocp.shx
  0
STYLE
  2
KICADI
  70
0
  40
0
  41
1
  42
1
  50
15
  71
0
  3
isocp.shx
  0
STYLE
  2
KICADBI
  70
0
  40
0
  41
1
  42
1
  50
15
  71
0
  3
isocp.shx
  0
ENDTAB
  0
TABLE
  2
LAYER
  70
1
  0
LAYER
  2
BLACK
  70
0
  62
7
  6
CONTINUOUS
  0
ENDTAB
  0
ENDSEC
  0
SECTION
  2
ENTITIES
0
LINE
8
BLACK
6
CONTINUOUS
10
111
20
-108.25
11
110.75
21
-108.25
0
LINE
8
BLACK
6
CONTINUOUS
10
111
20
-100.25
11
111
21
-108.25
0
LINE
8
BLACK
6
CONTINUOUS
10
110.75
20
-100.25
11
111
21
-100.25
0
LINE
8
BLACK
6
CONTINUOUS
10
106
20
-108.25
11
106
21
-100.25
0
LINE
8
BLACK
6
CONTINUOUS
10
110.75
20
-108.25
11
106
21
-108.25
0
LINE
8
BLACK
6
CONTINUOUS
10
106
20
-100.25
11
110.75
21
-100.25
0
CIRCLE
8
BLACK
10
188.5
20
-85
40
1.34629
0
CIRCLE
8
BLACK
10
157.25
20
-124
40
1.34629
0
CIRCLE
8
BLACK
10
110.5
20
-85
40
1.34629
0
CIRCLE
8
BLACK
10
141.75
20
-46
40
1.34629
0
LINE
8
BLACK
6
CONTINUOUS
10
99.5
20
-45.5
11
110
21
-45.5
0
LINE
8
BLACK
6
CONTINUOUS
10
99.5
20
-124.5
11
99.5
21
-45.5
0
LINE
8
BLACK
6
CONTINUOUS
10
110
20
-124.5
11
99.5
21
-124.5
0
LINE
8
BLACK
6
CONTINUOUS
10
110
20
-135
11
110
21
-124.5
0
LINE
8
BLACK
6
CONTINUOUS
10
189
20
-135
11
110
21
-135
0
LINE
8
BLACK
6
CONTINUOUS
10
189
20
-124.5
11
189
21
-135
0
LINE
8
BLACK
6
CONTINUOUS
10
199.5
20
-124.5
11
189
21
-124.5
0
LINE
8
BLACK
6
CONTINUOUS
10
199.5
20
-45.5
11
199.5
21
-124.5
0
LINE
8
BLACK
6
CONTINUOUS
10
189
20
-45.5
11
199.5
21
-45.5
0
LINE
8
BLACK
6
CONTINUOUS
10
189
20
-35
11
189
21
-45.5
0
LINE
8
BLACK
6
CONTINUOUS
10
110
20
-35
11
189
21
-35
0
LINE
8
BLACK
6
CONTINUOUS
10
110
20
-45.5
11
110
21
-35
0
LINE
8
BLACK
6
CONTINUOUS
10
131.55
20
-81.8
11
131.95
21
-82.2
0
LINE
8
BLACK
6
CONTINUOUS
10
131.95
20
-81.8
11
131.55
21
-82.2
0
LINE
8
BLACK
6
CONTINUOUS
10
135.05
20
-71.8
11
135.45
21
-72.2
0
LINE
8
BLACK
6
CONTINUOUS
10
135.45
20
-71.8
11
135.05
21
-72.2
0
LINE
8
BLACK
6
CONTINUOUS
10
135.69
20
-53.902
11
136.09
21
-54.302
0
LINE
8
BLACK
6
CONTINUOUS
10
136.09
20
-53.902
11
135.69
21
-54.302
0
LINE
8
BLACK
6
CONTINUOUS
10
140.77
20
-53.902
11
141.17
21
-54.302
0
LINE
8
BLACK
6
CONTINUOUS
10
141.17
20
-53.902
11
140.77
21
-54.302
0
LINE
8
BLACK
6
CONTINUOUS
10
142.8
20
-99.55
11
143.2
21
-99.95
0
LINE
8
BLACK
6
CONTINUOUS
10
143.2
20
-99.55
11
142.8
21
-99.95
0
LINE
8
BLACK
6
CONTINUOUS
10
142.965
20
-95.965
11
143.365
21
-96.365
0
LINE
8
BLACK
6
CONTINUOUS
10
143.365
20
-95.965
11
142.965
21
-96.365
0
LINE
8
BLACK
6
CONTINUOUS
10
143.075
20
-92.525
11
143.475
21
-92.925
0
LINE
8
BLACK
6
CONTINUOUS
10
143.475
20
-92.525
11
143.075
21
-92.925
0
LINE
8
BLACK
6
CONTINUOUS
10
144.735
20
-96.735
11
145.135
21
-97.135
0
LINE
8
BLACK
6
CONTINUOUS
10
145.135
20
-96.735
11
144.735
21
-97.135
0
LINE
8
BLACK
6
CONTINUOUS
10
144.845
20
-91.755
11
145.245
21
-92.155
0
LINE
8
BLACK
6
CONTINUOUS
10
145.245
20
-91.755
11
144.845
21
-92.155
0
LINE
8
BLACK
6
CONTINUOUS
10
146.1
20
-97.75
11
146.5
21
-98.15
0
LINE
8
BLACK
6
CONTINUOUS
10
146.5
20
-97.75
11
146.1
21
-98.15
0
LINE
8
BLACK
6
CONTINUOUS
10
152.67
20
-96.42
11
153.07
21
-96.82
0
LINE
8
BLACK
6
CONTINUOUS
10
153.07
20
-96.42
11
152.67
21
-96.82
0
LINE
8
BLACK
6
CONTINUOUS
10
156.55
20
-101.05
11
156.95
21
-101.45
0
LINE
8
BLACK
6
CONTINUOUS
10
156.95
20
-101.05
11
156.55
21
-101.45
0
LINE
8
BLACK
6
CONTINUOUS
10
157.55
20
-99.55
11
157.95
21
-99.95
0
LINE
8
BLACK
6
CONTINUOUS
10
157.95
20
-99.55
11
157.55
21
-99.95
0
LINE
8
BLACK
6
CONTINUOUS
10
169.876
20
-93.332
11
170.276
21
-93.732
0
LINE
8
BLACK
6
CONTINUOUS
10
170.276
20
-93.332
11
169.876
21
-93.732
0
CIRCLE
8
BLACK
10
107.006
20
-51.008
40
1
0
CIRCLE
8
BLACK
10
107.006
20
-119.25
40
1
0
CIRCLE
8
BLACK
10
116.006
20
-51.008
40
1
0
CIRCLE
8
BLACK
10
116.006
20
-119.25
40
1
0
CIRCLE
8
BLACK
10
129.5
20
-119.25
40
1
0
CIRCLE
8
BLACK
10
138.5
20
-119.25
40
1
0
CIRCLE
8
BLACK
10
160.25
20
-51.008
40
1
0
CIRCLE
8
BLACK
10
169.25
20
-51.008
40
1
0
CIRCLE
8
BLACK
10
182.952
20
-51.008
40
1
0
CIRCLE
8
BLACK
10
182.952
20
-119.172
40
1
0
CIRCLE
8
BLACK
10
191.952
20
-51.008
40
1
0
CIRCLE
8
BLACK
10
191.952
20
-119.172
40
1
0
LINE
8
BLACK
6
CONTINUOUS
10
102.339
20
-139.682
11
102.339
21
-136.682
0
LINE
8
BLACK
6
CONTINUOUS
10
102.339
20
-136.682
11
103.054
21
-136.682
0
LINE
8
BLACK
6
CONTINUOUS
10
103.054
20
-136.682
11
103.482
21
-136.825
0
LINE
8
BLACK
6
CONTINUOUS
10
103.482
20
-136.825
11
103.768
21
-137.111
0
LINE
8
BLACK
6
CONTINUOUS
10
103.768
20
-137.111
11
103.911
21
-137.396
0
LINE
8
BLACK
6
CONTINUOUS
10
103.911
20
-137.396
11
104.054
21
-137.968
0
LINE
8
BLACK
6
CONTINUOUS
10
104.054
20
-137.968
11
104.054
21
-138.396
0
LINE
8
BLACK
6
CONTINUOUS
10
104.054
20
-138.396
11
103.911
21
-138.968
0
LINE
8
BLACK
6
CONTINUOUS
10
103.911
20
-138.968
11
103.768
21
-139.254
0
LINE
8
BLACK
6
CONTINUOUS
10
103.768
20
-139.254
11
103.482
21
-139.539
0
LINE
8
BLACK
6
CONTINUOUS
10
103.482
20
-139.539
11
103.054
21
-139.682
0
LINE
8
BLACK
6
CONTINUOUS
10
103.054
20
-139.682
11
102.339
21
-139.682
0
LINE
8
BLACK
6
CONTINUOUS
10
105.339
20
-139.682
11
105.339
21
-137.682
0
LINE
8
BLACK
6
CONTINUOUS
10
105.339
20
-138.254
11
105.482
21
-137.968
0
LINE
8
BLACK
6
CONTINUOUS
10
105.482
20
-137.968
11
105.625
21
-137.825
0
LINE
8
BLACK
6
CONTINUOUS
10
105.625
20
-137.825
11
105.911
21
-137.682
0
LINE
8
BLACK
6
CONTINUOUS
10
105.911
20
-137.682
11
106.196
21
-137.682
0
LINE
8
BLACK
6
CONTINUOUS
10
107.196
20
-139.682
11
107.196
21
-137.682
0
LINE
8
BLACK
6
CONTINUOUS
10
107.196
20
-136.682
11
107.054
21
-136.825
0
LINE
8
BLACK
6
CONTINUOUS
10
107.054
20
-136.825
11
107.196
21
-136.968
0
LINE
8
BLACK
6
CONTINUOUS
10
107.196
20
-136.968
11
107.339
21
-136.825
0
LINE
8
BLACK
6
CONTINUOUS
10
107.339
20
-136.825
11
107.196
21
-136.682
0
LINE
8
BLACK
6
CONTINUOUS
10
107.196
20
-136.682
11
107.196
21
-136.968
0
LINE
8
BLACK
6
CONTINUOUS
10
109.054
20
-139.682
11
108.768
21
-139.539
0
LINE
8
BLACK
6
CONTINUOUS
10
108.768
20
-139.539
11
108.625
21
-139.254
0
LINE
8
BLACK
6
CONTINUOUS
10
108.625
20
-139.254
11
108.625
21
-136.682
0
LINE
8
BLACK
6
CONTINUOUS
10
110.625
20
-139.682
11
110.339
21
-139.539
0
LINE
8
BLACK
6
CONTINUOUS
10
110.339
20
-139.539
11
110.196
21
-139.254
0
LINE
8
BLACK
6
CONTINUOUS
10
110.196
20
-139.254
11
110.196
21
-136.682
0
LINE
8
BLACK
6
CONTINUOUS
10
114.054
20
-139.682
11
114.054
21
-136.682
0
LINE
8
BLACK
6
CONTINUOUS
10
114.054
20
-136.682
11
115.054
21
-138.825
0
LINE
8
BLACK
6
CONTINUOUS
10
115.054
20
-138.825
11
116.054
21
-136.682
0
LINE
8
BLACK
6
CONTINUOUS
10
116.054
20
-136.682
11
116.054
21
-139.682
0
LINE
8
BLACK
6
CONTINUOUS
10
118.768
20
-139.682
11
118.768
21
-138.111
0
LINE
8
BLACK
6
CONTINUOUS
10
118.768
20
-138.111
11
118.625
21
-137.825
0
LINE
8
BLACK
6
CONTINUOUS
10
118.625
20
-137.825
11
118.339
21
-137.682
0
LINE
8
BLACK
6
CONTINUOUS
10
118.339
20
-137.682
11
117.768
21
-137.682
0
LINE
8
BLACK
6
CONTINUOUS
10
117.768
20
-137.682
11
117.482
21
-137.825
0
LINE
8
BLACK
6
CONTINUOUS
10
118.768
20
-139.539
11
118.482
21
-139.682
0
LINE
8
BLACK
6
CONTINUOUS
10
118.482
20
-139.682
11
117.768
21
-139.682
0
LINE
8
BLACK
6
CONTINUOUS
10
117.768
20
-139.682
11
117.482
21
-139.539
0
LINE
8
BLACK
6
CONTINUOUS
10
117.482
20
-139.539
11
117.339
21
-139.254
0
LINE
8
BLACK
6
CONTINUOUS
10
117.339
20
-139.254
11
117.339
21
-138.968
0
LINE
8
BLACK
6
CONTINUOUS
10
117.339
20
-138.968
11
117.482
21
-138.682
0
LINE
8
BLACK
6
CONTINUOUS
10
117.482
20
-138.682
11
117.768
21
-138.539
0
LINE
8
BLACK
6
CONTINUOUS
10
117.768
20
-138.539
11
118.482
21
-138.539
0
LINE
8
BLACK
6
CONTINUOUS
10
118.482
20
-138.539
11
118.768
21
-138.396
0
LINE
8
BLACK
6
CONTINUOUS
10
120.196
20
-137.682
11
120.196
21
-140.682
0
LINE
8
BLACK
6
CONTINUOUS
10
120.196
20
-137.825
11
120.482
21
-137.682
0
LINE
8
BLACK
6
CONTINUOUS
10
120.482
20
-137.682
11
121.054
21
-137.682
0
LINE
8
BLACK
6
CONTINUOUS
10
121.054
20
-137.682
11
121.339
21
-137.825
0
LINE
8
BLACK
6
CONTINUOUS
10
121.339
20
-137.825
11
121.482
21
-137.968
0
LINE
8
BLACK
6
CONTINUOUS
10
121.482
20
-137.968
11
121.625
21
-138.254
0
LINE
8
BLACK
6
CONTINUOUS
10
121.625
20
-138.254
11
121.625
21
-139.111
0
LINE
8
BLACK
6
CONTINUOUS
10
121.625
20
-139.111
11
121.482
21
-139.396
0
LINE
8
BLACK
6
CONTINUOUS
10
121.482
20
-139.396
11
121.339
21
-139.539
0
LINE
8
BLACK
6
CONTINUOUS
10
121.339
20
-139.539
11
121.054
21
-139.682
0
LINE
8
BLACK
6
CONTINUOUS
10
121.054
20
-139.682
11
120.482
21
-139.682
0
LINE
8
BLACK
6
CONTINUOUS
10
120.482
20
-139.682
11
120.196
21
-139.539
0
LINE
8
BLACK
6
CONTINUOUS
10
122.911
20
-139.396
11
123.054
21
-139.539
0
LINE
8
BLACK
6
CONTINUOUS
10
123.054
20
-139.539
11
122.911
21
-139.682
0
LINE
8
BLACK
6
CONTINUOUS
10
122.911
20
-139.682
11
122.768
21
-139.539
0
LINE
8
BLACK
6
CONTINUOUS
10
122.768
20
-139.539
11
122.911
21
-139.396
0
LINE
8
BLACK
6
CONTINUOUS
10
122.911
20
-139.396
11
122.911
21
-139.682
0
LINE
8
BLACK
6
CONTINUOUS
10
122.911
20
-137.825
11
123.054
21
-137.968
0
LINE
8
BLACK
6
CONTINUOUS
10
123.054
20
-137.968
11
122.911
21
-138.111
0
LINE
8
BLACK
6
CONTINUOUS
10
122.911
20
-138.111
11
122.768
21
-137.968
0
LINE
8
BLACK
6
CONTINUOUS
10
122.768
20
-137.968
11
122.911
21
-137.825
0
LINE
8
BLACK
6
CONTINUOUS
10
122.911
20
-137.825
11
122.911
21
-138.111
0
LINE
8
BLACK
6
CONTINUOUS
10
99.075
20
-144.425
11
99.475
21
-144.825
0
LINE
8
BLACK
6
CONTINUOUS
10
99.475
20
-144.425
11
99.075
21
-144.825
0
LINE
8
BLACK
6
CONTINUOUS
10
102.911
20
-142.982
11
103.196
21
-142.982
0
LINE
8
BLACK
6
CONTINUOUS
10
103.196
20
-142.982
11
103.482
21
-143.125
0
LINE
8
BLACK
6
CONTINUOUS
10
103.482
20
-143.125
11
103.625
21
-143.268
0
LINE
8
BLACK
6
CONTINUOUS
10
103.625
20
-143.268
11
103.768
21
-143.554
0
LINE
8
BLACK
6
CONTINUOUS
10
103.768
20
-143.554
11
103.911
21
-144.125
0
LINE
8
BLACK
6
CONTINUOUS
10
103.911
20
-144.125
11
103.911
21
-144.839
0
LINE
8
BLACK
6
CONTINUOUS
10
103.911
20
-144.839
11
103.768
21
-145.411
0
LINE
8
BLACK
6
CONTINUOUS
10
103.768
20
-145.411
11
103.625
21
-145.696
0
LINE
8
BLACK
6
CONTINUOUS
10
103.625
20
-145.696
11
103.482
21
-145.839
0
LINE
8
BLACK
6
CONTINUOUS
10
103.482
20
-145.839
11
103.196
21
-145.982
0
LINE
8
BLACK
6
CONTINUOUS
10
103.196
20
-145.982
11
102.911
21
-145.982
0
LINE
8
BLACK
6
CONTINUOUS
10
102.911
20
-145.982
11
102.625
21
-145.839
0
LINE
8
BLACK
6
CONTINUOUS
10
102.625
20
-145.839
11
102.482
21
-145.696
0
LINE
8
BLACK
6
CONTINUOUS
10
102.482
20
-145.696
11
102.339
21
-145.411
0
LINE
8
BLACK
6
CONTINUOUS
10
102.339
20
-145.411
11
102.196
21
-144.839
0
LINE
8
BLACK
6
CONTINUOUS
10
102.196
20
-144.839
11
102.196
21
-144.125
0
LINE
8
BLACK
6
CONTINUOUS
10
102.196
20
-144.125
11
102.339
21
-143.554
0
LINE
8
BLACK
6
CONTINUOUS
10
102.339
20
-143.554
11
102.482
21
-143.268
0
LINE
8
BLACK
6
CONTINUOUS
10
102.482
20
-143.268
11
102.625
21
-143.125
0
LINE
8
BLACK
6
CONTINUOUS
10
102.625
20
-143.125
11
102.911
21
-142.982
0
LINE
8
BLACK
6
CONTINUOUS
10
105.196
20
-145.696
11
105.339
21
-145.839
0
LINE
8
BLACK
6
CONTINUOUS
10
105.339
20
-145.839
11
105.196
21
-145.982
0
LINE
8
BLACK
6
CONTINUOUS
10
105.196
20
-145.982
11
105.054
21
-145.839
0
LINE
8
BLACK
6
CONTINUOUS
10
105.054
20
-145.839
11
105.196
21
-145.696
0
LINE
8
BLACK
6
CONTINUOUS
10
105.196
20
-145.696
11
105.196
21
-145.982
0
LINE
8
BLACK
6
CONTINUOUS
10
107.911
20
-143.982
11
107.911
21
-145.982
0
LINE
8
BLACK
6
CONTINUOUS
10
107.196
20
-142.839
11
106.482
21
-144.982
0
LINE
8
BLACK
6
CONTINUOUS
10
106.482
20
-144.982
11
108.339
21
-144.982
0
LINE
8
BLACK
6
CONTINUOUS
10
110.054
20
-142.982
11
110.339
21
-142.982
0
LINE
8
BLACK
6
CONTINUOUS
10
110.339
20
-142.982
11
110.625
21
-143.125
0
LINE
8
BLACK
6
CONTINUOUS
10
110.625
20
-143.125
11
110.768
21
-143.268
0
LINE
8
BLACK
6
CONTINUOUS
10
110.768
20
-143.268
11
110.911
21
-143.554
0
LINE
8
BLACK
6
CONTINUOUS
10
110.911
20
-143.554
11
111.054
21
-144.125
0
LINE
8
BLACK
6
CONTINUOUS
10
111.054
20
-144.125
11
111.054
21
-144.839
0
LINE
8
BLACK
6
CONTINUOUS
10
111.054
20
-144.839
11
110.911
21
-145.411
0
LINE
8
BLACK
6
CONTINUOUS
10
110.911
20
-145.411
11
110.768
21
-145.696
0
LINE
8
BLACK
6
CONTINUOUS
10
110.768
20
-145.696
11
110.625
21
-145.839
0
LINE
8
BLACK
6
CONTINUOUS
10
110.625
20
-145.839
11
110.339
21
-145.982
0
LINE
8
BLACK
6
CONTINUOUS
10
110.339
20
-145.982
11
110.054
21
-145.982
0
LINE
8
BLACK
6
CONTINUOUS
10
110.054
20
-145.982
11
109.768
21
-145.839
0
LINE
8
BLACK
6
CONTINUOUS
10
109.768
20
-145.839
11
109.625
21
-145.696
0
LINE
8
BLACK
6
CONTINUOUS
10
109.625
20
-145.696
11
109.482
21
-145.411
0
LINE
8
BLACK
6
CONTINUOUS
10
109.482
20
-145.411
11
109.339
21
-144.839
0
LINE
8
BLACK
6
CONTINUOUS
10
109.339
20
-144.839
11
109.339
21
-144.125
0
LINE
8
BLACK
6
CONTINUOUS
10
109.339
20
-144.125
11
109.482
21
-143.554
0
LINE
8
BLACK
6
CONTINUOUS
10
109.482
20
-143.554
11
109.625
21
-143.268
0
LINE
8
BLACK
6
CONTINUOUS
10
109.625
20
-143.268
11
109.768
21
-143.125
0
LINE
8
BLACK
6
CONTINUOUS
10
109.768
20
-143.125
11
110.054
21
-142.982
0
LINE
8
BLACK
6
CONTINUOUS
10
112.911
20
-142.982
11
113.196
21
-142.982
0
LINE
8
BLACK
6
CONTINUOUS
10
113.196
20
-142.982
11
113.482
21
-143.125
0
LINE
8
BLACK
6
CONTINUOUS
10
113.482
20
-143.125
11
113.625
21
-143.268
0
LINE
8
BLACK
6
CONTINUOUS
10
113.625
20
-143.268
11
113.768
21
-143.554
0
LINE
8
BLACK
6
CONTINUOUS
10
113.768
20
-143.554
11
113.911
21
-144.125
0
LINE
8
BLACK
6
CONTINUOUS
10
113.911
20
-144.125
11
113.911
21
-144.839
0
LINE
8
BLACK
6
CONTINUOUS
10
113.911
20
-144.839
11
113.768
21
-145.411
0
LINE
8
BLACK
6
CONTINUOUS
10
113.768
20
-145.411
11
113.625
21
-145.696
0
LINE
8
BLACK
6
CONTINUOUS
10
113.625
20
-145.696
11
113.482
21
-145.839
0
LINE
8
BLACK
6
CONTINUOUS
10
113.482
20
-145.839
11
113.196
21
-145.982
0
LINE
8
BLACK
6
CONTINUOUS
10
113.196
20
-145.982
11
112.911
21
-145.982
0
LINE
8
BLACK
6
CONTINUOUS
10
112.911
20
-145.982
11
112.625
21
-145.839
0
LINE
8
BLACK
6
CONTINUOUS
10
112.625
20
-145.839
11
112.482
21
-145.696
0
LINE
8
BLACK
6
CONTINUOUS
10
112.482
20
-145.696
11
112.339
21
-145.411
0
LINE
8
BLACK
6
CONTINUOUS
10
112.339
20
-145.411
11
112.196
21
-144.839
0
LINE
8
BLACK
6
CONTINUOUS
10
112.196
20
-144.839
11
112.196
21
-144.125
0
LINE
8
BLACK
6
CONTINUOUS
10
112.196
20
-144.125
11
112.339
21
-143.554
0
LINE
8
BLACK
6
CONTINUOUS
10
112.339
20
-143.554
11
112.482
21
-143.268
0
LINE
8
BLACK
6
CONTINUOUS
10
112.482
20
-143.268
11
112.625
21
-143.125
0
LINE
8
BLACK
6
CONTINUOUS
10
112.625
20
-143.125
11
112.911
21
-142.982
0
LINE
8
BLACK
6
CONTINUOUS
10
115.196
20
-145.982
11
115.196
21
-143.982
0
LINE
8
BLACK
6
CONTINUOUS
10
115.196
20
-144.268
11
115.339
21
-144.125
0
LINE
8
BLACK
6
CONTINUOUS
10
115.339
20
-144.125
11
115.625
21
-143.982
0
LINE
8
BLACK
6
CONTINUOUS
10
115.625
20
-143.982
11
116.054
21
-143.982
0
LINE
8
BLACK
6
CONTINUOUS
10
116.054
20
-143.982
11
116.339
21
-144.125
0
LINE
8
BLACK
6
CONTINUOUS
10
116.339
20
-144.125
11
116.482
21
-144.411
0
LINE
8
BLACK
6
CONTINUOUS
10
116.482
20
-144.411
11
116.482
21
-145.982
0
LINE
8
BLACK
6
CONTINUOUS
10
116.482
20
-144.411
11
116.625
21
-144.125
0
LINE
8
BLACK
6
CONTINUOUS
10
116.625
20
-144.125
11
116.911
21
-143.982
0
LINE
8
BLACK
6
CONTINUOUS
10
116.911
20
-143.982
11
117.339
21
-143.982
0
LINE
8
BLACK
6
CONTINUOUS
10
117.339
20
-143.982
11
117.625
21
-144.125
0
LINE
8
BLACK
6
CONTINUOUS
10
117.625
20
-144.125
11
117.768
21
-144.411
0
LINE
8
BLACK
6
CONTINUOUS
10
117.768
20
-144.411
11
117.768
21
-145.982
0
LINE
8
BLACK
6
CONTINUOUS
10
119.196
20
-145.982
11
119.196
21
-143.982
0
LINE
8
BLACK
6
CONTINUOUS
10
119.196
20
-144.268
11
119.339
21
-144.125
0
LINE
8
BLACK
6
CONTINUOUS
10
119.339
20
-144.125
11
119.625
21
-143.982
0
LINE
8
BLACK
6
CONTINUOUS
10
119.625
20
-143.982
11
120.054
21
-143.982
0
LINE
8
BLACK
6
CONTINUOUS
10
120.054
20
-143.982
11
120.339
21
-144.125
0
LINE
8
BLACK
6
CONTINUOUS
10
120.339
20
-144.125
11
120.482
21
-144.411
0
LINE
8
BLACK
6
CONTINUOUS
10
120.482
20
-144.411
11
120.482
21
-145.982
0
LINE
8
BLACK
6
CONTINUOUS
10
120.482
20
-144.411
11
120.625
21
-144.125
0
LINE
8
BLACK
6
CONTINUOUS
10
120.625
20
-144.125
11
120.911
21
-143.982
0
LINE
8
BLACK
6
CONTINUOUS
10
120.911
20
-143.982
11
121.339
21
-143.982
0
LINE
8
BLACK
6
CONTINUOUS
10
121.339
20
-143.982
11
121.625
21
-144.125
0
LINE
8
BLACK
6
CONTINUOUS
10
121.625
20
-144.125
11
121.768
21
-144.411
0
LINE
8
BLACK
6
CONTINUOUS
10
121.768
20
-144.411
11
121.768
21
-145.982
0
LINE
8
BLACK
6
CONTINUOUS
10
127.625
20
-142.839
11
125.054
21
-146.696
0
LINE
8
BLACK
6
CONTINUOUS
10
131.482
20
-142.982
11
131.768
21
-142.982
0
LINE
8
BLACK
6
CONTINUOUS
10
131.768
20
-142.982
11
132.054
21
-143.125
0
LINE
8
BLACK
6
CONTINUOUS
10
132.054
20
-143.125
11
132.196
21
-143.268
0
LINE
8
BLACK
6
CONTINUOUS
10
132.196
20
-143.268
11
132.339
21
-143.554
0
LINE
8
BLACK
6
CONTINUOUS
10
132.339
20
-143.554
11
132.482
21
-144.125
0
LINE
8
BLACK
6
CONTINUOUS
10
132.482
20
-144.125
11
132.482
21
-144.839
0
LINE
8
BLACK
6
CONTINUOUS
10
132.482
20
-144.839
11
132.339
21
-145.411
0
LINE
8
BLACK
6
CONTINUOUS
10
132.339
20
-145.411
11
132.196
21
-145.696
0
LINE
8
BLACK
6
CONTINUOUS
10
132.196
20
-145.696
11
132.054
21
-145.839
0
LINE
8
BLACK
6
CONTINUOUS
10
132.054
20
-145.839
11
131.768
21
-145.982
0
LINE
8
BLACK
6
CONTINUOUS
10
131.768
20
-145.982
11
131.482
21
-145.982
0
LINE
8
BLACK
6
CONTINUOUS
10
131.482
20
-145.982
11
131.196
21
-145.839
0
LINE
8
BLACK
6
CONTINUOUS
10
131.196
20
-145.839
11
131.054
21
-145.696
0
LINE
8
BLACK
6
CONTINUOUS
10
131.054
20
-145.696
11
130.911
21
-145.411
0
LINE
8
BLACK
6
CONTINUOUS
10
130.911
20
-145.411
11
130.768
21
-144.839
0
LINE
8
BLACK
6
CONTINUOUS
10
130.768
20
-144.839
11
130.768
21
-144.125
0
LINE
8
BLACK
6
CONTINUOUS
10
130.768
20
-144.125
11
130.911
21
-143.554
0
LINE
8
BLACK
6
CONTINUOUS
10
130.911
20
-143.554
11
131.054
21
-143.268
0
LINE
8
BLACK
6
CONTINUOUS
10
131.054
20
-143.268
11
131.196
21
-143.125
0
LINE
8
BLACK
6
CONTINUOUS
10
131.196
20
-143.125
11
131.482
21
-142.982
0
LINE
8
BLACK
6
CONTINUOUS
10
133.768
20
-145.696
11
133.911
21
-145.839
0
LINE
8
BLACK
6
CONTINUOUS
10
133.911
20
-145.839
11
133.768
21
-145.982
0
LINE
8
BLACK
6
CONTINUOUS
10
133.768
20
-145.982
11
133.625
21
-145.839
0
LINE
8
BLACK
6
CONTINUOUS
10
133.625
20
-145.839
11
133.768
21
-145.696
0
LINE
8
BLACK
6
CONTINUOUS
10
133.768
20
-145.696
11
133.768
21
-145.982
0
LINE
8
BLACK
6
CONTINUOUS
10
135.768
20
-142.982
11
136.054
21
-142.982
0
LINE
8
BLACK
6
CONTINUOUS
10
136.054
20
-142.982
11
136.339
21
-143.125
0
LINE
8
BLACK
6
CONTINUOUS
10
136.339
20
-143.125
11
136.482
21
-143.268
0
LINE
8
BLACK
6
CONTINUOUS
10
136.482
20
-143.268
11
136.625
21
-143.554
0
LINE
8
BLACK
6
CONTINUOUS
10
136.625
20
-143.554
11
136.768
21
-144.125
0
LINE
8
BLACK
6
CONTINUOUS
10
136.768
20
-144.125
11
136.768
21
-144.839
0
LINE
8
BLACK
6
CONTINUOUS
10
136.768
20
-144.839
11
136.625
21
-145.411
0
LINE
8
BLACK
6
CONTINUOUS
10
136.625
20
-145.411
11
136.482
21
-145.696
0
LINE
8
BLACK
6
CONTINUOUS
10
136.482
20
-145.696
11
136.339
21
-145.839
0
LINE
8
BLACK
6
CONTINUOUS
10
136.339
20
-145.839
11
136.054
21
-145.982
0
LINE
8
BLACK
6
CONTINUOUS
10
136.054
20
-145.982
11
135.768
21
-145.982
0
LINE
8
BLACK
6
CONTINUOUS
10
135.768
20
-145.982
11
135.482
21
-145.839
0
LINE
8
BLACK
6
CONTINUOUS
10
135.482
20
-145.839
11
135.339
21
-145.696
0
LINE
8
BLACK
6
CONTINUOUS
10
135.339
20
-145.696
11
135.196
21
-145.411
0
LINE
8
BLACK
6
CONTINUOUS
10
135.196
20
-145.411
11
135.054
21
-144.839
0
LINE
8
BLACK
6
CONTINUOUS
10
135.054
20
-144.839
11
135.054
21
-144.125
0
LINE
8
BLACK
6
CONTINUOUS
10
135.054
20
-144.125
11
135.196
21
-143.554
0
LINE
8
BLACK
6
CONTINUOUS
10
135.196
20
-143.554
11
135.339
21
-143.268
0
LINE
8
BLACK
6
CONTINUOUS
10
135.339
20
-143.268
11
135.482
21
-143.125
0
LINE
8
BLACK
6
CONTINUOUS
10
135.482
20
-143.125
11
135.768
21
-142.982
0
LINE
8
BLACK
6
CONTINUOUS
10
139.625
20
-145.982
11
137.911
21
-145.982
0
LINE
8
BLACK
6
CONTINUOUS
10
138.768
20
-145.982
11
138.768
21
-142.982
0
LINE
8
BLACK
6
CONTINUOUS
10
138.768
20
-142.982
11
138.482
21
-143.411
0
LINE
8
BLACK
6
CONTINUOUS
10
138.482
20
-143.411
11
138.196
21
-143.696
0
LINE
8
BLACK
6
CONTINUOUS
10
138.196
20
-143.696
11
137.911
21
-143.839
0
LINE
8
BLACK
6
CONTINUOUS
10
142.339
20
-142.982
11
140.911
21
-142.982
0
LINE
8
BLACK
6
CONTINUOUS
10
140.911
20
-142.982
11
140.768
21
-144.411
0
LINE
8
BLACK
6
CONTINUOUS
10
140.768
20
-144.411
11
140.911
21
-144.268
0
LINE
8
BLACK
6
CONTINUOUS
10
140.911
20
-144.268
11
141.196
21
-144.125
0
LINE
8
BLACK
6
CONTINUOUS
10
141.196
20
-144.125
11
141.911
21
-144.125
0
LINE
8
BLACK
6
CONTINUOUS
10
141.911
20
-144.125
11
142.196
21
-144.268
0
LINE
8
BLACK
6
CONTINUOUS
10
142.196
20
-144.268
11
142.339
21
-144.411
0
LINE
8
BLACK
6
CONTINUOUS
10
142.339
20
-144.411
11
142.482
21
-144.696
0
LINE
8
BLACK
6
CONTINUOUS
10
142.482
20
-144.696
11
142.482
21
-145.411
0
LINE
8
BLACK
6
CONTINUOUS
10
142.482
20
-145.411
11
142.339
21
-145.696
0
LINE
8
BLACK
6
CONTINUOUS
10
142.339
20
-145.696
11
142.196
21
-145.839
0
LINE
8
BLACK
6
CONTINUOUS
10
142.196
20
-145.839
11
141.911
21
-145.982
0
LINE
8
BLACK
6
CONTINUOUS
10
141.911
20
-145.982
11
141.196
21
-145.982
0
LINE
8
BLACK
6
CONTINUOUS
10
141.196
20
-145.982
11
140.911
21
-145.839
0
LINE
8
BLACK
6
CONTINUOUS
10
140.911
20
-145.839
11
140.768
21
-145.696
0
LINE
8
BLACK
6
CONTINUOUS
10
143.482
20
-142.982
11
145.482
21
-142.982
0
LINE
8
BLACK
6
CONTINUOUS
10
145.482
20
-142.982
11
144.196
21
-145.982
0
LINE
8
BLACK
6
CONTINUOUS
10
146.482
20
-142.982
11
146.482
21
-143.554
0
LINE
8
BLACK
6
CONTINUOUS
10
147.625
20
-142.982
11
147.625
21
-143.554
0
LINE
8
BLACK
6
CONTINUOUS
10
152.054
20
-147.125
11
151.911
21
-146.982
0
LINE
8
BLACK
6
CONTINUOUS
10
151.911
20
-146.982
11
151.625
21
-146.554
0
LINE
8
BLACK
6
CONTINUOUS
10
151.625
20
-146.554
11
151.482
21
-146.268
0
LINE
8
BLACK
6
CONTINUOUS
10
151.482
20
-146.268
11
151.339
21
-145.839
0
LINE
8
BLACK
6
CONTINUOUS
10
151.339
20
-145.839
11
151.196
21
-145.125
0
LINE
8
BLACK
6
CONTINUOUS
10
151.196
20
-145.125
11
151.196
21
-144.554
0
LINE
8
BLACK
6
CONTINUOUS
10
151.196
20
-144.554
11
151.339
21
-143.839
0
LINE
8
BLACK
6
CONTINUOUS
10
151.339
20
-143.839
11
151.482
21
-143.411
0
LINE
8
BLACK
6
CONTINUOUS
10
151.482
20
-143.411
11
151.625
21
-143.125
0
LINE
8
BLACK
6
CONTINUOUS
10
151.625
20
-143.125
11
151.911
21
-142.696
0
LINE
8
BLACK
6
CONTINUOUS
10
151.911
20
-142.696
11
152.054
21
-142.554
0
LINE
8
BLACK
6
CONTINUOUS
10
154.768
20
-145.982
11
153.054
21
-145.982
0
LINE
8
BLACK
6
CONTINUOUS
10
153.911
20
-145.982
11
153.911
21
-142.982
0
LINE
8
BLACK
6
CONTINUOUS
10
153.911
20
-142.982
11
153.625
21
-143.411
0
LINE
8
BLACK
6
CONTINUOUS
10
153.625
20
-143.411
11
153.339
21
-143.696
0
LINE
8
BLACK
6
CONTINUOUS
10
153.339
20
-143.696
11
153.054
21
-143.839
0
LINE
8
BLACK
6
CONTINUOUS
10
157.339
20
-143.982
11
157.339
21
-145.982
0
LINE
8
BLACK
6
CONTINUOUS
10
156.625
20
-142.839
11
155.911
21
-144.982
0
LINE
8
BLACK
6
CONTINUOUS
10
155.911
20
-144.982
11
157.768
21
-144.982
0
LINE
8
BLACK
6
CONTINUOUS
10
161.196
20
-145.982
11
161.196
21
-142.982
0
LINE
8
BLACK
6
CONTINUOUS
10
162.482
20
-145.982
11
162.482
21
-144.411
0
LINE
8
BLACK
6
CONTINUOUS
10
162.482
20
-144.411
11
162.339
21
-144.125
0
LINE
8
BLACK
6
CONTINUOUS
10
162.339
20
-144.125
11
162.054
21
-143.982
0
LINE
8
BLACK
6
CONTINUOUS
10
162.054
20
-143.982
11
161.625
21
-143.982
0
LINE
8
BLACK
6
CONTINUOUS
10
161.625
20
-143.982
11
161.339
21
-144.125
0
LINE
8
BLACK
6
CONTINUOUS
10
161.339
20
-144.125
11
161.196
21
-144.268
0
LINE
8
BLACK
6
CONTINUOUS
10
164.339
20
-145.982
11
164.054
21
-145.839
0
LINE
8
BLACK
6
CONTINUOUS
10
164.054
20
-145.839
11
163.911
21
-145.696
0
LINE
8
BLACK
6
CONTINUOUS
10
163.911
20
-145.696
11
163.768
21
-145.411
0
LINE
8
BLACK
6
CONTINUOUS
10
163.768
20
-145.411
11
163.768
21
-144.554
0
LINE
8
BLACK
6
CONTINUOUS
10
163.768
20
-144.554
11
163.911
21
-144.268
0
LINE
8
BLACK
6
CONTINUOUS
10
163.911
20
-144.268
11
164.054
21
-144.125
0
LINE
8
BLACK
6
CONTINUOUS
10
164.054
20
-144.125
11
164.339
21
-143.982
0
LINE
8
BLACK
6
CONTINUOUS
10
164.339
20
-143.982
11
164.768
21
-143.982
0
LINE
8
BLACK
6
CONTINUOUS
10
164.768
20
-143.982
11
165.054
21
-144.125
0
LINE
8
BLACK
6
CONTINUOUS
10
165.054
20
-144.125
11
165.196
21
-144.268
0
LINE
8
BLACK
6
CONTINUOUS
10
165.196
20
-144.268
11
165.339
21
-144.554
0
LINE
8
BLACK
6
CONTINUOUS
10
165.339
20
-144.554
11
165.339
21
-145.411
0
LINE
8
BLACK
6
CONTINUOUS
10
165.339
20
-145.411
11
165.196
21
-145.696
0
LINE
8
BLACK
6
CONTINUOUS
10
165.196
20
-145.696
11
165.054
21
-145.839
0
LINE
8
BLACK
6
CONTINUOUS
10
165.054
20
-145.839
11
164.768
21
-145.982
0
LINE
8
BLACK
6
CONTINUOUS
10
164.768
20
-145.982
11
164.339
21
-145.982
0
LINE
8
BLACK
6
CONTINUOUS
10
167.054
20
-145.982
11
166.768
21
-145.839
0
LINE
8
BLACK
6
CONTINUOUS
10
166.768
20
-145.839
11
166.625
21
-145.554
0
LINE
8
BLACK
6
CONTINUOUS
10
166.625
20
-145.554
11
166.625
21
-142.982
0
LINE
8
BLACK
6
CONTINUOUS
10
169.339
20
-145.839
11
169.054
21
-145.982
0
LINE
8
BLACK
6
CONTINUOUS
10
169.054
20
-145.982
11
168.482
21
-145.982
0
LINE
8
BLACK
6
CONTINUOUS
10
168.482
20
-145.982
11
168.196
21
-145.839
0
LINE
8
BLACK
6
CONTINUOUS
10
168.196
20
-145.839
11
168.054
21
-145.554
0
LINE
8
BLACK
6
CONTINUOUS
10
168.054
20
-145.554
11
168.054
21
-144.411
0
LINE
8
BLACK
6
CONTINUOUS
10
168.054
20
-144.411
11
168.196
21
-144.125
0
LINE
8
BLACK
6
CONTINUOUS
10
168.196
20
-144.125
11
168.482
21
-143.982
0
LINE
8
BLACK
6
CONTINUOUS
10
168.482
20
-143.982
11
169.054
21
-143.982
0
LINE
8
BLACK
6
CONTINUOUS
10
169.054
20
-143.982
11
169.339
21
-144.125
0
LINE
8
BLACK
6
CONTINUOUS
10
169.339
20
-144.125
11
169.482
21
-144.411
0
LINE
8
BLACK
6
CONTINUOUS
10
169.482
20
-144.411
11
169.482
21
-144.696
0
LINE
8
BLACK
6
CONTINUOUS
10
169.482
20
-144.696
11
168.054
21
-144.982
0
LINE
8
BLACK
6
CONTINUOUS
10
170.625
20
-145.839
11
170.911
21
-145.982
0
LINE
8
BLACK
6
CONTINUOUS
10
170.911
20
-145.982
11
171.482
21
-145.982
0
LINE
8
BLACK
6
CONTINUOUS
10
171.482
20
-145.982
11
171.768
21
-145.839
0
LINE
8
BLACK
6
CONTINUOUS
10
171.768
20
-145.839
11
171.911
21
-145.554
0
LINE
8
BLACK
6
CONTINUOUS
10
171.911
20
-145.554
11
171.911
21
-145.411
0
LINE
8
BLACK
6
CONTINUOUS
10
171.911
20
-145.411
11
171.768
21
-145.125
0
LINE
8
BLACK
6
CONTINUOUS
10
171.768
20
-145.125
11
171.482
21
-144.982
0
LINE
8
BLACK
6
CONTINUOUS
10
171.482
20
-144.982
11
171.054
21
-144.982
0
LINE
8
BLACK
6
CONTINUOUS
10
171.054
20
-144.982
11
170.768
21
-144.839
0
LINE
8
BLACK
6
CONTINUOUS
10
170.768
20
-144.839
11
170.625
21
-144.554
0
LINE
8
BLACK
6
CONTINUOUS
10
170.625
20
-144.554
11
170.625
21
-144.411
0
LINE
8
BLACK
6
CONTINUOUS
10
170.625
20
-144.411
11
170.768
21
-144.125
0
LINE
8
BLACK
6
CONTINUOUS
10
170.768
20
-144.125
11
171.054
21
-143.982
0
LINE
8
BLACK
6
CONTINUOUS
10
171.054
20
-143.982
11
171.482
21
-143.982
0
LINE
8
BLACK
6
CONTINUOUS
10
171.482
20
-143.982
11
171.768
21
-144.125
0
LINE
8
BLACK
6
CONTINUOUS
10
172.911
20
-147.125
11
173.054
21
-146.982
0
LINE
8
BLACK
6
CONTINUOUS
10
173.054
20
-146.982
11
173.339
21
-146.554
0
LINE
8
BLACK
6
CONTINUOUS
10
173.339
20
-146.554
11
173.482
21
-146.268
0
LINE
8
BLACK
6
CONTINUOUS
10
173.482
20
-146.268
11
173.625
21
-145.839
0
LINE
8
BLACK
6
CONTINUOUS
10
173.625
20
-145.839
11
173.768
21
-145.125
0
LINE
8
BLACK
6
CONTINUOUS
10
173.768
20
-145.125
11
173.768
21
-144.554
0
LINE
8
BLACK
6
CONTINUOUS
10
173.768
20
-144.554
11
173.625
21
-143.839
0
LINE
8
BLACK
6
CONTINUOUS
10
173.625
20
-143.839
11
173.482
21
-143.411
0
LINE
8
BLACK
6
CONTINUOUS
10
173.482
20
-143.411
11
173.339
21
-143.125
0
LINE
8
BLACK
6
CONTINUOUS
10
173.339
20
-143.125
11
173.054
21
-142.696
0
LINE
8
BLACK
6
CONTINUOUS
10
173.054
20
-142.696
11
172.911
21
-142.554
0
CIRCLE
8
BLACK
10
98.475
20
-148.585
40
1
0
LINE
8
BLACK
6
CONTINUOUS
10
102.196
20
-147.228
11
102.339
21
-147.085
0
LINE
8
BLACK
6
CONTINUOUS
10
102.339
20
-147.085
11
102.625
21
-146.942
0
LINE
8
BLACK
6
CONTINUOUS
10
102.625
20
-146.942
11
103.339
21
-146.942
0
LINE
8
BLACK
6
CONTINUOUS
10
103.339
20
-146.942
11
103.625
21
-147.085
0
LINE
8
BLACK
6
CONTINUOUS
10
103.625
20
-147.085
11
103.768
21
-147.228
0
LINE
8
BLACK
6
CONTINUOUS
10
103.768
20
-147.228
11
103.911
21
-147.514
0
LINE
8
BLACK
6
CONTINUOUS
10
103.911
20
-147.514
11
103.911
21
-147.799
0
LINE
8
BLACK
6
CONTINUOUS
10
103.911
20
-147.799
11
103.768
21
-148.228
0
LINE
8
BLACK
6
CONTINUOUS
10
103.768
20
-148.228
11
102.054
21
-149.942
0
LINE
8
BLACK
6
CONTINUOUS
10
102.054
20
-149.942
11
103.911
21
-149.942
0
LINE
8
BLACK
6
CONTINUOUS
10
105.196
20
-149.656
11
105.339
21
-149.799
0
LINE
8
BLACK
6
CONTINUOUS
10
105.339
20
-149.799
11
105.196
21
-149.942
0
LINE
8
BLACK
6
CONTINUOUS
10
105.196
20
-149.942
11
105.054
21
-149.799
0
LINE
8
BLACK
6
CONTINUOUS
10
105.054
20
-149.799
11
105.196
21
-149.656
0
LINE
8
BLACK
6
CONTINUOUS
10
105.196
20
-149.656
11
105.196
21
-149.942
0
LINE
8
BLACK
6
CONTINUOUS
10
107.196
20
-146.942
11
107.482
21
-146.942
0
LINE
8
BLACK
6
CONTINUOUS
10
107.482
20
-146.942
11
107.768
21
-147.085
0
LINE
8
BLACK
6
CONTINUOUS
10
107.768
20
-147.085
11
107.911
21
-147.228
0
LINE
8
BLACK
6
CONTINUOUS
10
107.911
20
-147.228
11
108.054
21
-147.514
0
LINE
8
BLACK
6
CONTINUOUS
10
108.054
20
-147.514
11
108.196
21
-148.085
0
LINE
8
BLACK
6
CONTINUOUS
10
108.196
20
-148.085
11
108.196
21
-148.799
0
LINE
8
BLACK
6
CONTINUOUS
10
108.196
20
-148.799
11
108.054
21
-149.371
0
LINE
8
BLACK
6
CONTINUOUS
10
108.054
20
-149.371
11
107.911
21
-149.656
0
LINE
8
BLACK
6
CONTINUOUS
10
107.911
20
-149.656
11
107.768
21
-149.799
0
LINE
8
BLACK
6
CONTINUOUS
10
107.768
20
-149.799
11
107.482
21
-149.942
0
LINE
8
BLACK
6
CONTINUOUS
10
107.482
20
-149.942
11
107.196
21
-149.942
0
LINE
8
BLACK
6
CONTINUOUS
10
107.196
20
-149.942
11
106.911
21
-149.799
0
LINE
8
BLACK
6
CONTINUOUS
10
106.911
20
-149.799
11
106.768
21
-149.656
0
LINE
8
BLACK
6
CONTINUOUS
10
106.768
20
-149.656
11
106.625
21
-149.371
0
LINE
8
BLACK
6
CONTINUOUS
10
106.625
20
-149.371
11
106.482
21
-148.799
0
LINE
8
BLACK
6
CONTINUOUS
10
106.482
20
-148.799
11
106.482
21
-148.085
0
LINE
8
BLACK
6
CONTINUOUS
10
106.482
20
-148.085
11
106.625
21
-147.514
0
LINE
8
BLACK
6
CONTINUOUS
10
106.625
20
-147.514
11
106.768
21
-147.228
0
LINE
8
BLACK
6
CONTINUOUS
10
106.768
20
-147.228
11
106.911
21
-147.085
0
LINE
8
BLACK
6
CONTINUOUS
10
106.911
20
-147.085
11
107.196
21
-146.942
0
LINE
8
BLACK
6
CONTINUOUS
10
110.054
20
-146.942
11
110.339
21
-146.942
0
LINE
8
BLACK
6
CONTINUOUS
10
110.339
20
-146.942
11
110.625
21
-147.085
0
LINE
8
BLACK
6
CONTINUOUS
10
110.625
20
-147.085
11
110.768
21
-147.228
0
LINE
8
BLACK
6
CONTINUOUS
10
110.768
20
-147.228
11
110.911
21
-147.514
0
LINE
8
BLACK
6
CONTINUOUS
10
110.911
20
-147.514
11
111.054
21
-148.085
0
LINE
8
BLACK
6
CONTINUOUS
10
111.054
20
-148.085
11
111.054
21
-148.799
0
LINE
8
BLACK
6
CONTINUOUS
10
111.054
20
-148.799
11
110.911
21
-149.371
0
LINE
8
BLACK
6
CONTINUOUS
10
110.911
20
-149.371
11
110.768
21
-149.656
0
LINE
8
BLACK
6
CONTINUOUS
10
110.768
20
-149.656
11
110.625
21
-149.799
0
LINE
8
BLACK
6
CONTINUOUS
10
110.625
20
-149.799
11
110.339
21
-149.942
0
LINE
8
BLACK
6
CONTINUOUS
10
110.339
20
-149.942
11
110.054
21
-149.942
0
LINE
8
BLACK
6
CONTINUOUS
10
110.054
20
-149.942
11
109.768
21
-149.799
0
LINE
8
BLACK
6
CONTINUOUS
10
109.768
20
-149.799
11
109.625
21
-149.656
0
LINE
8
BLACK
6
CONTINUOUS
10
109.625
20
-149.656
11
109.482
21
-149.371
0
LINE
8
BLACK
6
CONTINUOUS
10
109.482
20
-149.371
11
109.339
21
-148.799
0
LINE
8
BLACK
6
CONTINUOUS
10
109.339
20
-148.799
11
109.339
21
-148.085
0
LINE
8
BLACK
6
CONTINUOUS
10
109.339
20
-148.085
11
109.482
21
-147.514
0
LINE
8
BLACK
6
CONTINUOUS
10
109.482
20
-147.514
11
109.625
21
-147.228
0
LINE
8
BLACK
6
CONTINUOUS
10
109.625
20
-147.228
11
109.768
21
-147.085
0
LINE
8
BLACK
6
CONTINUOUS
10
109.768
20
-147.085
11
110.054
21
-146.942
0
LINE
8
BLACK
6
CONTINUOUS
10
112.911
20
-146.942
11
113.196
21
-146.942
0
LINE
8
BLACK
6
CONTINUOUS
10
113.196
20
-146.942
11
113.482
21
-147.085
0
LINE
8
BLACK
6
CONTINUOUS
10
113.482
20
-147.085
11
113.625
21
-147.228
0
LINE
8
BLACK
6
CONTINUOUS
10
113.625
20
-147.228
11
113.768
21
-147.514
0
LINE
8
BLACK
6
CONTINUOUS
10
113.768
20
-147.514
11
113.911
21
-148.085
0
LINE
8
BLACK
6
CONTINUOUS
10
113.911
20
-148.085
11
113.911
21
-148.799
0
LINE
8
BLACK
6
CONTINUOUS
10
113.911
20
-148.799
11
113.768
21
-149.371
0
LINE
8
BLACK
6
CONTINUOUS
10
113.768
20
-149.371
11
113.625
21
-149.656
0
LINE
8
BLACK
6
CONTINUOUS
10
113.625
20
-149.656
11
113.482
21
-149.799
0
LINE
8
BLACK
6
CONTINUOUS
10
113.482
20
-149.799
11
113.196
21
-149.942
0
LINE
8
BLACK
6
CONTINUOUS
10
113.196
20
-149.942
11
112.911
21
-149.942
0
LINE
8
BLACK
6
CONTINUOUS
10
112.911
20
-149.942
11
112.625
21
-149.799
0
LINE
8
BLACK
6
CONTINUOUS
10
112.625
20
-149.799
11
112.482
21
-149.656
0
LINE
8
BLACK
6
CONTINUOUS
10
112.482
20
-149.656
11
112.339
21
-149.371
0
LINE
8
BLACK
6
CONTINUOUS
10
112.339
20
-149.371
11
112.196
21
-148.799
0
LINE
8
BLACK
6
CONTINUOUS
10
112.196
20
-148.799
11
112.196
21
-148.085
0
LINE
8
BLACK
6
CONTINUOUS
10
112.196
20
-148.085
11
112.339
21
-147.514
0
LINE
8
BLACK
6
CONTINUOUS
10
112.339
20
-147.514
11
112.482
21
-147.228
0
LINE
8
BLACK
6
CONTINUOUS
10
112.482
20
-147.228
11
112.625
21
-147.085
0
LINE
8
BLACK
6
CONTINUOUS
10
112.625
20
-147.085
11
112.911
21
-146.942
0
LINE
8
BLACK
6
CONTINUOUS
10
115.196
20
-149.942
11
115.196
21
-147.942
0
LINE
8
BLACK
6
CONTINUOUS
10
115.196
20
-148.228
11
115.339
21
-148.085
0
LINE
8
BLACK
6
CONTINUOUS
10
115.339
20
-148.085
11
115.625
21
-147.942
0
LINE
8
BLACK
6
CONTINUOUS
10
115.625
20
-147.942
11
116.054
21
-147.942
0
LINE
8
BLACK
6
CONTINUOUS
10
116.054
20
-147.942
11
116.339
21
-148.085
0
LINE
8
BLACK
6
CONTINUOUS
10
116.339
20
-148.085
11
116.482
21
-148.371
0
LINE
8
BLACK
6
CONTINUOUS
10
116.482
20
-148.371
11
116.482
21
-149.942
0
LINE
8
BLACK
6
CONTINUOUS
10
116.482
20
-148.371
11
116.625
21
-148.085
0
LINE
8
BLACK
6
CONTINUOUS
10
116.625
20
-148.085
11
116.911
21
-147.942
0
LINE
8
BLACK
6
CONTINUOUS
10
116.911
20
-147.942
11
117.339
21
-147.942
0
LINE
8
BLACK
6
CONTINUOUS
10
117.339
20
-147.942
11
117.625
21
-148.085
0
LINE
8
BLACK
6
CONTINUOUS
10
117.625
20
-148.085
11
117.768
21
-148.371
0
LINE
8
BLACK
6
CONTINUOUS
10
117.768
20
-148.371
11
117.768
21
-149.942
0
LINE
8
BLACK
6
CONTINUOUS
10
119.196
20
-149.942
11
119.196
21
-147.942
0
LINE
8
BLACK
6
CONTINUOUS
10
119.196
20
-148.228
11
119.339
21
-148.085
0
LINE
8
BLACK
6
CONTINUOUS
10
119.339
20
-148.085
11
119.625
21
-147.942
0
LINE
8
BLACK
6
CONTINUOUS
10
119.625
20
-147.942
11
120.054
21
-147.942
0
LINE
8
BLACK
6
CONTINUOUS
10
120.054
20
-147.942
11
120.339
21
-148.085
0
LINE
8
BLACK
6
CONTINUOUS
10
120.339
20
-148.085
11
120.482
21
-148.371
0
LINE
8
BLACK
6
CONTINUOUS
10
120.482
20
-148.371
11
120.482
21
-149.942
0
LINE
8
BLACK
6
CONTINUOUS
10
120.482
20
-148.371
11
120.625
21
-148.085
0
LINE
8
BLACK
6
CONTINUOUS
10
120.625
20
-148.085
11
120.911
21
-147.942
0
LINE
8
BLACK
6
CONTINUOUS
10
120.911
20
-147.942
11
121.339
21
-147.942
0
LINE
8
BLACK
6
CONTINUOUS
10
121.339
20
-147.942
11
121.625
21
-148.085
0
LINE
8
BLACK
6
CONTINUOUS
10
121.625
20
-148.085
11
121.768
21
-148.371
0
LINE
8
BLACK
6
CONTINUOUS
10
121.768
20
-148.371
11
121.768
21
-149.942
0
LINE
8
BLACK
6
CONTINUOUS
10
127.625
20
-146.799
11
125.054
21
-150.656
0
LINE
8
BLACK
6
CONTINUOUS
10
131.482
20
-146.942
11
131.768
21
-146.942
0
LINE
8
BLACK
6
CONTINUOUS
10
131.768
20
-146.942
11
132.054
21
-147.085
0
LINE
8
BLACK
6
CONTINUOUS
10
132.054
20
-147.085
11
132.196
21
-147.228
0
LINE
8
BLACK
6
CONTINUOUS
10
132.196
20
-147.228
11
132.339
21
-147.514
0
LINE
8
BLACK
6
CONTINUOUS
10
132.339
20
-147.514
11
132.482
21
-148.085
0
LINE
8
BLACK
6
CONTINUOUS
10
132.482
20
-148.085
11
132.482
21
-148.799
0
LINE
8
BLACK
6
CONTINUOUS
10
132.482
20
-148.799
11
132.339
21
-149.371
0
LINE
8
BLACK
6
CONTINUOUS
10
132.339
20
-149.371
11
132.196
21
-149.656
0
LINE
8
BLACK
6
CONTINUOUS
10
132.196
20
-149.656
11
132.054
21
-149.799
0
LINE
8
BLACK
6
CONTINUOUS
10
132.054
20
-149.799
11
131.768
21
-149.942
0
LINE
8
BLACK
6
CONTINUOUS
10
131.768
20
-149.942
11
131.482
21
-149.942
0
LINE
8
BLACK
6
CONTINUOUS
10
131.482
20
-149.942
11
131.196
21
-149.799
0
LINE
8
BLACK
6
CONTINUOUS
10
131.196
20
-149.799
11
131.054
21
-149.656
0
LINE
8
BLACK
6
CONTINUOUS
10
131.054
20
-149.656
11
130.911
21
-149.371
0
LINE
8
BLACK
6
CONTINUOUS
10
130.911
20
-149.371
11
130.768
21
-148.799
0
LINE
8
BLACK
6
CONTINUOUS
10
130.768
20
-148.799
11
130.768
21
-148.085
0
LINE
8
BLACK
6
CONTINUOUS
10
130.768
20
-148.085
11
130.911
21
-147.514
0
LINE
8
BLACK
6
CONTINUOUS
10
130.911
20
-147.514
11
131.054
21
-147.228
0
LINE
8
BLACK
6
CONTINUOUS
10
131.054
20
-147.228
11
131.196
21
-147.085
0
LINE
8
BLACK
6
CONTINUOUS
10
131.196
20
-147.085
11
131.482
21
-146.942
0
LINE
8
BLACK
6
CONTINUOUS
10
133.768
20
-149.656
11
133.911
21
-149.799
0
LINE
8
BLACK
6
CONTINUOUS
10
133.911
20
-149.799
11
133.768
21
-149.942
0
LINE
8
BLACK
6
CONTINUOUS
10
133.768
20
-149.942
11
133.625
21
-149.799
0
LINE
8
BLACK
6
CONTINUOUS
10
133.625
20
-149.799
11
133.768
21
-149.656
0
LINE
8
BLACK
6
CONTINUOUS
10
133.768
20
-149.656
11
133.768
21
-149.942
0
LINE
8
BLACK
6
CONTINUOUS
10
135.768
20
-146.942
11
136.054
21
-146.942
0
LINE
8
BLACK
6
CONTINUOUS
10
136.054
20
-146.942
11
136.339
21
-147.085
0
LINE
8
BLACK
6
CONTINUOUS
10
136.339
20
-147.085
11
136.482
21
-147.228
0
LINE
8
BLACK
6
CONTINUOUS
10
136.482
20
-147.228
11
136.625
21
-147.514
0
LINE
8
BLACK
6
CONTINUOUS
10
136.625
20
-147.514
11
136.768
21
-148.085
0
LINE
8
BLACK
6
CONTINUOUS
10
136.768
20
-148.085
11
136.768
21
-148.799
0
LINE
8
BLACK
6
CONTINUOUS
10
136.768
20
-148.799
11
136.625
21
-149.371
0
LINE
8
BLACK
6
CONTINUOUS
10
136.625
20
-149.371
11
136.482
21
-149.656
0
LINE
8
BLACK
6
CONTINUOUS
10
136.482
20
-149.656
11
136.339
21
-149.799
0
LINE
8
BLACK
6
CONTINUOUS
10
136.339
20
-149.799
11
136.054
21
-149.942
0
LINE
8
BLACK
6
CONTINUOUS
10
136.054
20
-149.942
11
135.768
21
-149.942
0
LINE
8
BLACK
6
CONTINUOUS
10
135.768
20
-149.942
11
135.482
21
-149.799
0
LINE
8
BLACK
6
CONTINUOUS
10
135.482
20
-149.799
11
135.339
21
-149.656
0
LINE
8
BLACK
6
CONTINUOUS
10
135.339
20
-149.656
11
135.196
21
-149.371
0
LINE
8
BLACK
6
CONTINUOUS
10
135.196
20
-149.371
11
135.054
21
-148.799
0
LINE
8
BLACK
6
CONTINUOUS
10
135.054
20
-148.799
11
135.054
21
-148.085
0
LINE
8
BLACK
6
CONTINUOUS
10
135.054
20
-148.085
11
135.196
21
-147.514
0
LINE
8
BLACK
6
CONTINUOUS
10
135.196
20
-147.514
11
135.339
21
-147.228
0
LINE
8
BLACK
6
CONTINUOUS
10
135.339
20
-147.228
11
135.482
21
-147.085
0
LINE
8
BLACK
6
CONTINUOUS
10
135.482
20
-147.085
11
135.768
21
-146.942
0
LINE
8
BLACK
6
CONTINUOUS
10
137.768
20
-146.942
11
139.768
21
-146.942
0
LINE
8
BLACK
6
CONTINUOUS
10
139.768
20
-146.942
11
138.482
21
-149.942
0
LINE
8
BLACK
6
CONTINUOUS
10
141.339
20
-148.228
11
141.054
21
-148.085
0
LINE
8
BLACK
6
CONTINUOUS
10
141.054
20
-148.085
11
140.911
21
-147.942
0
LINE
8
BLACK
6
CONTINUOUS
10
140.911
20
-147.942
11
140.768
21
-147.656
0
LINE
8
BLACK
6
CONTINUOUS
10
140.768
20
-147.656
11
140.768
21
-147.514
0
LINE
8
BLACK
6
CONTINUOUS
10
140.768
20
-147.514
11
140.911
21
-147.228
0
LINE
8
BLACK
6
CONTINUOUS
10
140.911
20
-147.228
11
141.054
21
-147.085
0
LINE
8
BLACK
6
CONTINUOUS
10
141.054
20
-147.085
11
141.339
21
-146.942
0
LINE
8
BLACK
6
CONTINUOUS
10
141.339
20
-146.942
11
141.911
21
-146.942
0
LINE
8
BLACK
6
CONTINUOUS
10
141.911
20
-146.942
11
142.196
21
-147.085
0
LINE
8
BLACK
6
CONTINUOUS
10
142.196
20
-147.085
11
142.339
21
-147.228
0
LINE
8
BLACK
6
CONTINUOUS
10
142.339
20
-147.228
11
142.482
21
-147.514
0
LINE
8
BLACK
6
CONTINUOUS
10
142.482
20
-147.514
11
142.482
21
-147.656
0
LINE
8
BLACK
6
CONTINUOUS
10
142.482
20
-147.656
11
142.339
21
-147.942
0
LINE
8
BLACK
6
CONTINUOUS
10
142.339
20
-147.942
11
142.196
21
-148.085
0
LINE
8
BLACK
6
CONTINUOUS
10
142.196
20
-148.085
11
141.911
21
-148.228
0
LINE
8
BLACK
6
CONTINUOUS
10
141.911
20
-148.228
11
141.339
21
-148.228
0
LINE
8
BLACK
6
CONTINUOUS
10
141.339
20
-148.228
11
141.054
21
-148.371
0
LINE
8
BLACK
6
CONTINUOUS
10
141.054
20
-148.371
11
140.911
21
-148.514
0
LINE
8
BLACK
6
CONTINUOUS
10
140.911
20
-148.514
11
140.768
21
-148.799
0
LINE
8
BLACK
6
CONTINUOUS
10
140.768
20
-148.799
11
140.768
21
-149.371
0
LINE
8
BLACK
6
CONTINUOUS
10
140.768
20
-149.371
11
140.911
21
-149.656
0
LINE
8
BLACK
6
CONTINUOUS
10
140.911
20
-149.656
11
141.054
21
-149.799
0
LINE
8
BLACK
6
CONTINUOUS
10
141.054
20
-149.799
11
141.339
21
-149.942
0
LINE
8
BLACK
6
CONTINUOUS
10
141.339
20
-149.942
11
141.911
21
-149.942
0
LINE
8
BLACK
6
CONTINUOUS
10
141.911
20
-149.942
11
142.196
21
-149.799
0
LINE
8
BLACK
6
CONTINUOUS
10
142.196
20
-149.799
11
142.339
21
-149.656
0
LINE
8
BLACK
6
CONTINUOUS
10
142.339
20
-149.656
11
142.482
21
-149.371
0
LINE
8
BLACK
6
CONTINUOUS
10
142.482
20
-149.371
11
142.482
21
-148.799
0
LINE
8
BLACK
6
CONTINUOUS
10
142.482
20
-148.799
11
142.339
21
-148.514
0
LINE
8
BLACK
6
CONTINUOUS
10
142.339
20
-148.514
11
142.196
21
-148.371
0
LINE
8
BLACK
6
CONTINUOUS
10
142.196
20
-148.371
11
141.911
21
-148.228
0
LINE
8
BLACK
6
CONTINUOUS
10
143.482
20
-146.942
11
145.482
21
-146.942
0
LINE
8
BLACK
6
CONTINUOUS
10
145.482
20
-146.942
11
144.196
21
-149.942
0
LINE
8
BLACK
6
CONTINUOUS
10
146.482
20
-146.942
11
146.482
21
-147.514
0
LINE
8
BLACK
6
CONTINUOUS
10
147.625
20
-146.942
11
147.625
21
-147.514
0
LINE
8
BLACK
6
CONTINUOUS
10
152.054
20
-151.085
11
151.911
21
-150.942
0
LINE
8
BLACK
6
CONTINUOUS
10
151.911
20
-150.942
11
151.625
21
-150.514
0
LINE
8
BLACK
6
CONTINUOUS
10
151.625
20
-150.514
11
151.482
21
-150.228
0
LINE
8
BLACK
6
CONTINUOUS
10
151.482
20
-150.228
11
151.339
21
-149.799
0
LINE
8
BLACK
6
CONTINUOUS
10
151.339
20
-149.799
11
151.196
21
-149.085
0
LINE
8
BLACK
6
CONTINUOUS
10
151.196
20
-149.085
11
151.196
21
-148.514
0
LINE
8
BLACK
6
CONTINUOUS
10
151.196
20
-148.514
11
151.339
21
-147.799
0
LINE
8
BLACK
6
CONTINUOUS
10
151.339
20
-147.799
11
151.482
21
-147.371
0
LINE
8
BLACK
6
CONTINUOUS
10
151.482
20
-147.371
11
151.625
21
-147.085
0
LINE
8
BLACK
6
CONTINUOUS
10
151.625
20
-147.085
11
151.911
21
-146.656
0
LINE
8
BLACK
6
CONTINUOUS
10
151.911
20
-146.656
11
152.054
21
-146.514
0
LINE
8
BLACK
6
CONTINUOUS
10
154.768
20
-149.942
11
153.054
21
-149.942
0
LINE
8
BLACK
6
CONTINUOUS
10
153.911
20
-149.942
11
153.911
21
-146.942
0
LINE
8
BLACK
6
CONTINUOUS
10
153.911
20
-146.942
11
153.625
21
-147.371
0
LINE
8
BLACK
6
CONTINUOUS
10
153.625
20
-147.371
11
153.339
21
-147.656
0
LINE
8
BLACK
6
CONTINUOUS
10
153.339
20
-147.656
11
153.054
21
-147.799
0
LINE
8
BLACK
6
CONTINUOUS
10
155.911
20
-147.228
11
156.054
21
-147.085
0
LINE
8
BLACK
6
CONTINUOUS
10
156.054
20
-147.085
11
156.339
21
-146.942
0
LINE
8
BLACK
6
CONTINUOUS
10
156.339
20
-146.942
11
157.054
21
-146.942
0
LINE
8
BLACK
6
CONTINUOUS
10
157.054
20
-146.942
11
157.339
21
-147.085
0
LINE
8
BLACK
6
CONTINUOUS
10
157.339
20
-147.085
11
157.482
21
-147.228
0
LINE
8
BLACK
6
CONTINUOUS
10
157.482
20
-147.228
11
157.625
21
-147.514
0
LINE
8
BLACK
6
CONTINUOUS
10
157.625
20
-147.514
11
157.625
21
-147.799
0
LINE
8
BLACK
6
CONTINUOUS
10
157.625
20
-147.799
11
157.482
21
-148.228
0
LINE
8
BLACK
6
CONTINUOUS
10
157.482
20
-148.228
11
155.768
21
-149.942
0
LINE
8
BLACK
6
CONTINUOUS
10
155.768
20
-149.942
11
157.625
21
-149.942
0
LINE
8
BLACK
6
CONTINUOUS
10
161.196
20
-149.942
11
161.196
21
-146.942
0
LINE
8
BLACK
6
CONTINUOUS
10
162.482
20
-149.942
11
162.482
21
-148.371
0
LINE
8
BLACK
6
CONTINUOUS
10
162.482
20
-148.371
11
162.339
21
-148.085
0
LINE
8
BLACK
6
CONTINUOUS
10
162.339
20
-148.085
11
162.054
21
-147.942
0
LINE
8
BLACK
6
CONTINUOUS
10
162.054
20
-147.942
11
161.625
21
-147.942
0
LINE
8
BLACK
6
CONTINUOUS
10
161.625
20
-147.942
11
161.339
21
-148.085
0
LINE
8
BLACK
6
CONTINUOUS
10
161.339
20
-148.085
11
161.196
21
-148.228
0
LINE
8
BLACK
6
CONTINUOUS
10
164.339
20
-149.942
11
164.054
21
-149.799
0
LINE
8
BLACK
6
CONTINUOUS
10
164.054
20
-149.799
11
163.911
21
-149.656
0
LINE
8
BLACK
6
CONTINUOUS
10
163.911
20
-149.656
11
163.768
21
-149.371
0
LINE
8
BLACK
6
CONTINUOUS
10
163.768
20
-149.371
11
163.768
21
-148.514
0
LINE
8
BLACK
6
CONTINUOUS
10
163.768
20
-148.514
11
163.911
21
-148.228
0
LINE
8
BLACK
6
CONTINUOUS
10
163.911
20
-148.228
11
164.054
21
-148.085
0
LINE
8
BLACK
6
CONTINUOUS
10
164.054
20
-148.085
11
164.339
21
-147.942
0
LINE
8
BLACK
6
CONTINUOUS
10
164.339
20
-147.942
11
164.768
21
-147.942
0
LINE
8
BLACK
6
CONTINUOUS
10
164.768
20
-147.942
11
165.054
21
-148.085
0
LINE
8
BLACK
6
CONTINUOUS
10
165.054
20
-148.085
11
165.196
21
-148.228
0
LINE
8
BLACK
6
CONTINUOUS
10
165.196
20
-148.228
11
165.339
21
-148.514
0
LINE
8
BLACK
6
CONTINUOUS
10
165.339
20
-148.514
11
165.339
21
-149.371
0
LINE
8
BLACK
6
CONTINUOUS
10
165.339
20
-149.371
11
165.196
21
-149.656
0
LINE
8
BLACK
6
CONTINUOUS
10
165.196
20
-149.656
11
165.054
21
-149.799
0
LINE
8
BLACK
6
CONTINUOUS
10
165.054
20
-149.799
11
164.768
21
-149.942
0
LINE
8
BLACK
6
CONTINUOUS
10
164.768
20
-149.942
11
164.339
21
-149.942
0
LINE
8
BLACK
6
CONTINUOUS
10
167.054
20
-149.942
11
166.768
21
-149.799
0
LINE
8
BLACK
6
CONTINUOUS
10
166.768
20
-149.799
11
166.625
21
-149.514
0
LINE
8
BLACK
6
CONTINUOUS
10
166.625
20
-149.514
11
166.625
21
-146.942
0
LINE
8
BLACK
6
CONTINUOUS
10
169.339
20
-149.799
11
169.054
21
-149.942
0
LINE
8
BLACK
6
CONTINUOUS
10
169.054
20
-149.942
11
168.482
21
-149.942
0
LINE
8
BLACK
6
CONTINUOUS
10
168.482
20
-149.942
11
168.196
21
-149.799
0
LINE
8
BLACK
6
CONTINUOUS
10
168.196
20
-149.799
11
168.054
21
-149.514
0
LINE
8
BLACK
6
CONTINUOUS
10
168.054
20
-149.514
11
168.054
21
-148.371
0
LINE
8
BLACK
6
CONTINUOUS
10
168.054
20
-148.371
11
168.196
21
-148.085
0
LINE
8
BLACK
6
CONTINUOUS
10
168.196
20
-148.085
11
168.482
21
-147.942
0
LINE
8
BLACK
6
CONTINUOUS
10
168.482
20
-147.942
11
169.054
21
-147.942
0
LINE
8
BLACK
6
CONTINUOUS
10
169.054
20
-147.942
11
169.339
21
-148.085
0
LINE
8
BLACK
6
CONTINUOUS
10
169.339
20
-148.085
11
169.482
21
-148.371
0
LINE
8
BLACK
6
CONTINUOUS
10
169.482
20
-148.371
11
169.482
21
-148.656
0
LINE
8
BLACK
6
CONTINUOUS
10
169.482
20
-148.656
11
168.054
21
-148.942
0
LINE
8
BLACK
6
CONTINUOUS
10
170.625
20
-149.799
11
170.911
21
-149.942
0
LINE
8
BLACK
6
CONTINUOUS
10
170.911
20
-149.942
11
171.482
21
-149.942
0
LINE
8
BLACK
6
CONTINUOUS
10
171.482
20
-149.942
11
171.768
21
-149.799
0
LINE
8
BLACK
6
CONTINUOUS
10
171.768
20
-149.799
11
171.911
21
-149.514
0
LINE
8
BLACK
6
CONTINUOUS
10
171.911
20
-149.514
11
171.911
21
-149.371
0
LINE
8
BLACK
6
CONTINUOUS
10
171.911
20
-149.371
11
171.768
21
-149.085
0
LINE
8
BLACK
6
CONTINUOUS
10
171.768
20
-149.085
11
171.482
21
-148.942
0
LINE
8
BLACK
6
CONTINUOUS
10
171.482
20
-148.942
11
171.054
21
-148.942
0
LINE
8
BLACK
6
CONTINUOUS
10
171.054
20
-148.942
11
170.768
21
-148.799
0
LINE
8
BLACK
6
CONTINUOUS
10
170.768
20
-148.799
11
170.625
21
-148.514
0
LINE
8
BLACK
6
CONTINUOUS
10
170.625
20
-148.514
11
170.625
21
-148.371
0
LINE
8
BLACK
6
CONTINUOUS
10
170.625
20
-148.371
11
170.768
21
-148.085
0
LINE
8
BLACK
6
CONTINUOUS
10
170.768
20
-148.085
11
171.054
21
-147.942
0
LINE
8
BLACK
6
CONTINUOUS
10
171.054
20
-147.942
11
171.482
21
-147.942
0
LINE
8
BLACK
6
CONTINUOUS
10
171.482
20
-147.942
11
171.768
21
-148.085
0
LINE
8
BLACK
6
CONTINUOUS
10
172.911
20
-151.085
11
173.054
21
-150.942
0
LINE
8
BLACK
6
CONTINUOUS
10
173.054
20
-150.942
11
173.339
21
-150.514
0
LINE
8
BLACK
6
CONTINUOUS
10
173.339
20
-150.514
11
173.482
21
-150.228
0
LINE
8
BLACK
6
CONTINUOUS
10
173.482
20
-150.228
11
173.625
21
-149.799
0
LINE
8
BLACK
6
CONTINUOUS
10
173.625
20
-149.799
11
173.768
21
-149.085
0
LINE
8
BLACK
6
CONTINUOUS
10
173.768
20
-149.085
11
173.768
21
-148.514
0
LINE
8
BLACK
6
CONTINUOUS
10
173.768
20
-148.514
11
173.625
21
-147.799
0
LINE
8
BLACK
6
CONTINUOUS
10
173.625
20
-147.799
11
173.482
21
-147.371
0
LINE
8
BLACK
6
CONTINUOUS
10
173.482
20
-147.371
11
173.339
21
-147.085
0
LINE
8
BLACK
6
CONTINUOUS
10
173.339
20
-147.085
11
173.054
21
-146.656
0
LINE
8
BLACK
6
CONTINUOUS
10
173.054
20
-146.656
11
172.911
21
-146.514
  0
ENDSEC
  0
EOF
