  0
SECTION
  2
HEADER
  9
$ANGBASE
  50
0.0
  9
$ANGDIR
  70
1
  9
$MEASUREMENT
  70
1
  0
ENDSEC
  0
SECTION
  2
TABLES
  0
TABLE
  2
LTYPE
  70
4
  0
LTYPE
  5
40F
  2
CONTINUOUS
  70
0
  3
Solid line
  72
65
  73
0
  40
0.0
  0
LTYPE
  5
410
  2
DASHDOT
 70
0
  3
Dash Dot ____ _ ____ _
 72
65
 73
4
 40
2.0
 49
1.25
 49
-0.25
 49
0.25
 49
-0.25
  0
LTYPE
  5
411
  2
DASHED
 70
0
  3
Dashed __ __ __ __ __
 72
65
 73
2
 40
0.75
 49
0.5
 49
-0.25
  0
LTYPE
  5
43B
  2
DOTTED
 70
0
  3
Dotted .  .  .  .
 72
65
 73
2
 40
0.2
 49
0.0
 49
-0.2
  0
ENDTAB
  0
TABLE
  2
STYLE
  70
4
  0
STYLE
  2
KICAD
  70
0
  40
0
  41
1
  42
1
  50
0
  71
0
  3
isocp.shx
  0
STYLE
  2
KICADB
  70
0
  40
0
  41
1
  42
1
  50
0
  71
0
  3
isocp.shx
  0
STYLE
  2
KICADI
  70
0
  40
0
  41
1
  42
1
  50
15
  71
0
  3
isocp.shx
  0
STYLE
  2
KICADBI
  70
0
  40
0
  41
1
  42
1
  50
15
  71
0
  3
isocp.shx
  0
ENDTAB
  0
TABLE
  2
LAYER
  70
1
  0
LAYER
  2
BLACK
  70
0
  62
7
  6
CONTINUOUS
  0
ENDTAB
  0
ENDSEC
  0
SECTION
  2
ENTITIES
0
LINE
8
BLACK
6
CONTINUOUS
10
164
20
-75
11
164
21
-83
0
LINE
8
BLACK
6
CONTINUOUS
10
169
20
-75
11
164
21
-75
0
LINE
8
BLACK
6
CONTINUOUS
10
169
20
-83
11
169
21
-75
0
LINE
8
BLACK
6
CONTINUOUS
10
164
20
-83
11
169
21
-83
0
CIRCLE
8
BLACK
10
188.5
20
-85
40
1.34629
0
CIRCLE
8
BLACK
10
157.25
20
-124
40
1.34629
0
CIRCLE
8
BLACK
10
110.5
20
-85
40
1.34629
0
CIRCLE
8
BLACK
10
141.75
20
-46
40
1.34629
0
LINE
8
BLACK
6
CONTINUOUS
10
99.5
20
-45.5
11
110
21
-45.5
0
LINE
8
BLACK
6
CONTINUOUS
10
99.5
20
-124.5
11
99.5
21
-45.5
0
LINE
8
BLACK
6
CONTINUOUS
10
110
20
-124.5
11
99.5
21
-124.5
0
LINE
8
BLACK
6
CONTINUOUS
10
110
20
-135
11
110
21
-124.5
0
LINE
8
BLACK
6
CONTINUOUS
10
189
20
-135
11
110
21
-135
0
LINE
8
BLACK
6
CONTINUOUS
10
189
20
-124.5
11
189
21
-135
0
LINE
8
BLACK
6
CONTINUOUS
10
199.5
20
-124.5
11
189
21
-124.5
0
LINE
8
BLACK
6
CONTINUOUS
10
199.5
20
-45.5
11
199.5
21
-124.5
0
LINE
8
BLACK
6
CONTINUOUS
10
189
20
-45.5
11
199.5
21
-45.5
0
LINE
8
BLACK
6
CONTINUOUS
10
189
20
-35
11
189
21
-45.5
0
LINE
8
BLACK
6
CONTINUOUS
10
110
20
-35
11
189
21
-35
0
LINE
8
BLACK
6
CONTINUOUS
10
110
20
-45.5
11
110
21
-35
0
LINE
8
BLACK
6
CONTINUOUS
10
102.339
20
-139.682
11
102.339
21
-136.682
0
LINE
8
BLACK
6
CONTINUOUS
10
102.339
20
-136.682
11
103.054
21
-136.682
0
LINE
8
BLACK
6
CONTINUOUS
10
103.054
20
-136.682
11
103.482
21
-136.825
0
LINE
8
BLACK
6
CONTINUOUS
10
103.482
20
-136.825
11
103.768
21
-137.111
0
LINE
8
BLACK
6
CONTINUOUS
10
103.768
20
-137.111
11
103.911
21
-137.396
0
LINE
8
BLACK
6
CONTINUOUS
10
103.911
20
-137.396
11
104.054
21
-137.968
0
LINE
8
BLACK
6
CONTINUOUS
10
104.054
20
-137.968
11
104.054
21
-138.396
0
LINE
8
BLACK
6
CONTINUOUS
10
104.054
20
-138.396
11
103.911
21
-138.968
0
LINE
8
BLACK
6
CONTINUOUS
10
103.911
20
-138.968
11
103.768
21
-139.254
0
LINE
8
BLACK
6
CONTINUOUS
10
103.768
20
-139.254
11
103.482
21
-139.539
0
LINE
8
BLACK
6
CONTINUOUS
10
103.482
20
-139.539
11
103.054
21
-139.682
0
LINE
8
BLACK
6
CONTINUOUS
10
103.054
20
-139.682
11
102.339
21
-139.682
0
LINE
8
BLACK
6
CONTINUOUS
10
105.339
20
-139.682
11
105.339
21
-137.682
0
LINE
8
BLACK
6
CONTINUOUS
10
105.339
20
-138.254
11
105.482
21
-137.968
0
LINE
8
BLACK
6
CONTINUOUS
10
105.482
20
-137.968
11
105.625
21
-137.825
0
LINE
8
BLACK
6
CONTINUOUS
10
105.625
20
-137.825
11
105.911
21
-137.682
0
LINE
8
BLACK
6
CONTINUOUS
10
105.911
20
-137.682
11
106.196
21
-137.682
0
LINE
8
BLACK
6
CONTINUOUS
10
107.196
20
-139.682
11
107.196
21
-137.682
0
LINE
8
BLACK
6
CONTINUOUS
10
107.196
20
-136.682
11
107.054
21
-136.825
0
LINE
8
BLACK
6
CONTINUOUS
10
107.054
20
-136.825
11
107.196
21
-136.968
0
LINE
8
BLACK
6
CONTINUOUS
10
107.196
20
-136.968
11
107.339
21
-136.825
0
LINE
8
BLACK
6
CONTINUOUS
10
107.339
20
-136.825
11
107.196
21
-136.682
0
LINE
8
BLACK
6
CONTINUOUS
10
107.196
20
-136.682
11
107.196
21
-136.968
0
LINE
8
BLACK
6
CONTINUOUS
10
109.054
20
-139.682
11
108.768
21
-139.539
0
LINE
8
BLACK
6
CONTINUOUS
10
108.768
20
-139.539
11
108.625
21
-139.254
0
LINE
8
BLACK
6
CONTINUOUS
10
108.625
20
-139.254
11
108.625
21
-136.682
0
LINE
8
BLACK
6
CONTINUOUS
10
110.625
20
-139.682
11
110.339
21
-139.539
0
LINE
8
BLACK
6
CONTINUOUS
10
110.339
20
-139.539
11
110.196
21
-139.254
0
LINE
8
BLACK
6
CONTINUOUS
10
110.196
20
-139.254
11
110.196
21
-136.682
0
LINE
8
BLACK
6
CONTINUOUS
10
114.054
20
-139.682
11
114.054
21
-136.682
0
LINE
8
BLACK
6
CONTINUOUS
10
114.054
20
-136.682
11
115.054
21
-138.825
0
LINE
8
BLACK
6
CONTINUOUS
10
115.054
20
-138.825
11
116.054
21
-136.682
0
LINE
8
BLACK
6
CONTINUOUS
10
116.054
20
-136.682
11
116.054
21
-139.682
0
LINE
8
BLACK
6
CONTINUOUS
10
118.768
20
-139.682
11
118.768
21
-138.111
0
LINE
8
BLACK
6
CONTINUOUS
10
118.768
20
-138.111
11
118.625
21
-137.825
0
LINE
8
BLACK
6
CONTINUOUS
10
118.625
20
-137.825
11
118.339
21
-137.682
0
LINE
8
BLACK
6
CONTINUOUS
10
118.339
20
-137.682
11
117.768
21
-137.682
0
LINE
8
BLACK
6
CONTINUOUS
10
117.768
20
-137.682
11
117.482
21
-137.825
0
LINE
8
BLACK
6
CONTINUOUS
10
118.768
20
-139.539
11
118.482
21
-139.682
0
LINE
8
BLACK
6
CONTINUOUS
10
118.482
20
-139.682
11
117.768
21
-139.682
0
LINE
8
BLACK
6
CONTINUOUS
10
117.768
20
-139.682
11
117.482
21
-139.539
0
LINE
8
BLACK
6
CONTINUOUS
10
117.482
20
-139.539
11
117.339
21
-139.254
0
LINE
8
BLACK
6
CONTINUOUS
10
117.339
20
-139.254
11
117.339
21
-138.968
0
LINE
8
BLACK
6
CONTINUOUS
10
117.339
20
-138.968
11
117.482
21
-138.682
0
LINE
8
BLACK
6
CONTINUOUS
10
117.482
20
-138.682
11
117.768
21
-138.539
0
LINE
8
BLACK
6
CONTINUOUS
10
117.768
20
-138.539
11
118.482
21
-138.539
0
LINE
8
BLACK
6
CONTINUOUS
10
118.482
20
-138.539
11
118.768
21
-138.396
0
LINE
8
BLACK
6
CONTINUOUS
10
120.196
20
-137.682
11
120.196
21
-140.682
0
LINE
8
BLACK
6
CONTINUOUS
10
120.196
20
-137.825
11
120.482
21
-137.682
0
LINE
8
BLACK
6
CONTINUOUS
10
120.482
20
-137.682
11
121.054
21
-137.682
0
LINE
8
BLACK
6
CONTINUOUS
10
121.054
20
-137.682
11
121.339
21
-137.825
0
LINE
8
BLACK
6
CONTINUOUS
10
121.339
20
-137.825
11
121.482
21
-137.968
0
LINE
8
BLACK
6
CONTINUOUS
10
121.482
20
-137.968
11
121.625
21
-138.254
0
LINE
8
BLACK
6
CONTINUOUS
10
121.625
20
-138.254
11
121.625
21
-139.111
0
LINE
8
BLACK
6
CONTINUOUS
10
121.625
20
-139.111
11
121.482
21
-139.396
0
LINE
8
BLACK
6
CONTINUOUS
10
121.482
20
-139.396
11
121.339
21
-139.539
0
LINE
8
BLACK
6
CONTINUOUS
10
121.339
20
-139.539
11
121.054
21
-139.682
0
LINE
8
BLACK
6
CONTINUOUS
10
121.054
20
-139.682
11
120.482
21
-139.682
0
LINE
8
BLACK
6
CONTINUOUS
10
120.482
20
-139.682
11
120.196
21
-139.539
0
LINE
8
BLACK
6
CONTINUOUS
10
122.911
20
-139.396
11
123.054
21
-139.539
0
LINE
8
BLACK
6
CONTINUOUS
10
123.054
20
-139.539
11
122.911
21
-139.682
0
LINE
8
BLACK
6
CONTINUOUS
10
122.911
20
-139.682
11
122.768
21
-139.539
0
LINE
8
BLACK
6
CONTINUOUS
10
122.768
20
-139.539
11
122.911
21
-139.396
0
LINE
8
BLACK
6
CONTINUOUS
10
122.911
20
-139.396
11
122.911
21
-139.682
0
LINE
8
BLACK
6
CONTINUOUS
10
122.911
20
-137.825
11
123.054
21
-137.968
0
LINE
8
BLACK
6
CONTINUOUS
10
123.054
20
-137.968
11
122.911
21
-138.111
0
LINE
8
BLACK
6
CONTINUOUS
10
122.911
20
-138.111
11
122.768
21
-137.968
0
LINE
8
BLACK
6
CONTINUOUS
10
122.768
20
-137.968
11
122.911
21
-137.825
0
LINE
8
BLACK
6
CONTINUOUS
10
122.911
20
-137.825
11
122.911
21
-138.111
  0
ENDSEC
  0
EOF
