%TF.GenerationSoftware,KiCad,Pcbnew,(5.1.10)-1*%
%TF.CreationDate,2022-05-08T17:14:08-07:00*%
%TF.ProjectId,solar-panel-side-Z,736f6c61-722d-4706-916e-656c2d736964,1.0*%
%TF.SameCoordinates,Original*%
%TF.FileFunction,Soldermask,Bot*%
%TF.FilePolarity,Negative*%
%FSLAX46Y46*%
G04 Gerber Fmt 4.6, Leading zero omitted, Abs format (unit mm)*
G04 Created by KiCad (PCBNEW (5.1.10)-1) date 2022-05-08 17:14:08*
%MOMM*%
%LPD*%
G01*
G04 APERTURE LIST*
%ADD10C,2.000000*%
%ADD11C,4.000000*%
%ADD12R,1.250000X1.800000*%
%ADD13R,0.600000X1.000000*%
%ADD14C,3.000000*%
G04 APERTURE END LIST*
D10*
%TO.C,U4*%
X147190000Y-76610000D03*
X144650000Y-76610000D03*
D11*
X140840000Y-76610000D03*
D10*
X157350000Y-76610000D03*
D11*
X161160000Y-76610000D03*
D10*
X154810000Y-76610000D03*
X152270000Y-76610000D03*
X149730000Y-76610000D03*
D11*
X161160000Y-94390000D03*
D10*
X154810000Y-94390000D03*
X152270000Y-94390000D03*
X157350000Y-94390000D03*
X144650000Y-94390000D03*
X147190000Y-94390000D03*
X149730000Y-94390000D03*
D11*
X140840000Y-94390000D03*
%TD*%
D12*
%TO.C,J1*%
X133145001Y-104940000D03*
X144354999Y-104940000D03*
D13*
X135749999Y-99750000D03*
X137249999Y-99750000D03*
X138750001Y-99750000D03*
X140250000Y-99750000D03*
X141750000Y-99750000D03*
%TD*%
D10*
%TO.C,U5*%
X121650000Y-75790000D03*
X121650000Y-73250000D03*
X121650000Y-70710000D03*
X121650000Y-83410000D03*
X121650000Y-78330000D03*
X121650000Y-80870000D03*
D11*
X134350000Y-63090000D03*
X134350000Y-83410000D03*
D10*
X121650000Y-65630000D03*
X121650000Y-68170000D03*
X121650000Y-63090000D03*
%TD*%
D14*
%TO.C,SC5*%
X191952000Y-51008000D03*
X182952000Y-51008000D03*
%TD*%
%TO.C,SC4*%
X169000000Y-119250000D03*
X160000000Y-119250000D03*
%TD*%
%TO.C,SC6*%
X191952000Y-119172000D03*
X182952000Y-119172000D03*
%TD*%
%TO.C,SC3*%
X130000000Y-51000000D03*
X139000000Y-51000000D03*
%TD*%
%TO.C,SC2*%
X107006000Y-119250000D03*
X116006000Y-119250000D03*
%TD*%
%TO.C,SC1*%
X116006000Y-51008000D03*
X107006000Y-51008000D03*
%TD*%
M02*
