M48
; DRILL file {KiCad (5.1.10)-1} date 05/06/22 13:19:54
; FORMAT={-:-/ absolute / metric / decimal}
; #@! TF.CreationDate,2022-05-06T13:19:54-07:00
; #@! TF.GenerationSoftware,Kicad,Pcbnew,(5.1.10)-1
; #@! TF.FileFunction,Plated,1,4,PTH
FMAT,2
METRIC
T1C0.400
T2C2.000
%
G90
G05
T1
X131.75Y-82.0
X135.0Y-69.0
X135.89Y-54.102
X140.97Y-54.102
X143.0Y-99.75
X143.165Y-96.165
X143.275Y-92.725
X144.935Y-96.935
X145.045Y-91.955
X146.3Y-97.95
X152.87Y-96.62
X156.75Y-101.25
X157.75Y-99.75
X170.076Y-93.532
T2
X107.006Y-51.008
X107.006Y-119.25
X116.006Y-51.008
X116.006Y-119.25
X129.5Y-119.25
X138.5Y-119.25
X160.25Y-51.008
X169.25Y-51.008
X182.952Y-51.008
X182.952Y-119.172
X191.952Y-51.008
X191.952Y-119.172
T0
M30
