M48
; DRILL file {KiCad (5.1.10)-1} date 05/08/22 17:13:51
; FORMAT={-:-/ absolute / metric / decimal}
; #@! TF.CreationDate,2022-05-08T17:13:51-07:00
; #@! TF.GenerationSoftware,Kicad,Pcbnew,(5.1.10)-1
; #@! TF.FileFunction,Plated,1,4,PTH
FMAT,2
METRIC
T1C0.400
T2C2.000
%
G90
G05
T1
X127.924Y-93.782
X135.75Y-101.0
X137.25Y-101.0
X138.0Y-101.75
X138.75Y-101.0
X143.0Y-99.75
X145.5Y-96.0
X146.75Y-97.25
X147.0Y-86.0
X148.0Y-87.25
X149.0Y-91.75
X149.0Y-97.95
X153.75Y-80.5
X157.03Y-54.352
X157.11Y-69.39
X157.75Y-99.75
X162.11Y-54.352
T2
X107.006Y-51.008
X107.006Y-119.25
X116.006Y-51.008
X116.006Y-119.25
X130.0Y-51.0
X139.0Y-51.0
X160.0Y-119.25
X169.0Y-119.25
X182.952Y-51.008
X182.952Y-119.172
X191.952Y-51.008
X191.952Y-119.172
T0
M30
