%TF.GenerationSoftware,KiCad,Pcbnew,(5.1.10)-1*%
%TF.CreationDate,2022-05-08T17:14:08-07:00*%
%TF.ProjectId,solar-panel-side-Z,736f6c61-722d-4706-916e-656c2d736964,1.0*%
%TF.SameCoordinates,Original*%
%TF.FileFunction,Copper,L3,Inr*%
%TF.FilePolarity,Positive*%
%FSLAX46Y46*%
G04 Gerber Fmt 4.6, Leading zero omitted, Abs format (unit mm)*
G04 Created by KiCad (PCBNEW (5.1.10)-1) date 2022-05-08 17:14:08*
%MOMM*%
%LPD*%
G01*
G04 APERTURE LIST*
%TA.AperFunction,ComponentPad*%
%ADD10C,3.000000*%
%TD*%
%TA.AperFunction,ViaPad*%
%ADD11C,0.800000*%
%TD*%
%TA.AperFunction,Conductor*%
%ADD12C,0.250000*%
%TD*%
G04 APERTURE END LIST*
D10*
%TO.N,Net-(SC5-Pad2)*%
%TO.C,SC5*%
X191952000Y-51008000D03*
%TO.N,Net-(D3-Pad2)*%
X182952000Y-51008000D03*
%TD*%
%TO.N,Net-(SC3-Pad2)*%
%TO.C,SC4*%
X169000000Y-119250000D03*
%TO.N,GND*%
X160000000Y-119250000D03*
%TD*%
%TO.N,Net-(SC5-Pad2)*%
%TO.C,SC6*%
X191952000Y-119172000D03*
%TO.N,GND*%
X182952000Y-119172000D03*
%TD*%
%TO.N,Net-(D2-Pad2)*%
%TO.C,SC3*%
X130000000Y-51000000D03*
%TO.N,Net-(SC3-Pad2)*%
X139000000Y-51000000D03*
%TD*%
%TO.N,GND*%
%TO.C,SC2*%
X107006000Y-119250000D03*
%TO.N,Net-(SC1-Pad2)*%
X116006000Y-119250000D03*
%TD*%
%TO.N,Net-(SC1-Pad2)*%
%TO.C,SC1*%
X116006000Y-51008000D03*
%TO.N,Net-(D1-Pad2)*%
X107006000Y-51008000D03*
%TD*%
D11*
%TO.N,GND*%
X138000000Y-101750000D03*
X157110000Y-69390000D03*
X153750000Y-80500000D03*
%TO.N,+3V3*%
X138750000Y-101000000D03*
X149000000Y-97950010D03*
X149000000Y-91750000D03*
%TO.N,VSOLAR*%
X157750000Y-99750000D03*
X143000000Y-99750000D03*
%TO.N,SDA*%
X135750000Y-101000000D03*
X145500000Y-96000000D03*
X147000000Y-86000000D03*
%TO.N,SCL*%
X146750000Y-97250000D03*
X137250000Y-101000000D03*
X148000000Y-87250000D03*
%TO.N,Net-(U2-Pad6)*%
X162110000Y-54352000D03*
X157030000Y-54352000D03*
X127924000Y-93782000D03*
%TD*%
D12*
%TO.N,Net-(U2-Pad6)*%
X127924000Y-93782000D02*
X127924000Y-93782000D01*
X122424000Y-65532000D02*
X125424000Y-62532000D01*
X123924000Y-59532000D02*
X173924000Y-59532000D01*
X124924000Y-66782000D02*
X126674000Y-65032000D01*
X171174000Y-65032000D02*
X172924000Y-66782000D01*
X178924000Y-63782000D02*
X178924000Y-106782000D01*
X173924000Y-111032000D02*
X123424000Y-111032000D01*
X172424000Y-67032000D02*
X172424000Y-103532000D01*
X179924000Y-63282000D02*
X179924000Y-107282000D01*
X122424000Y-104782000D02*
X122424000Y-65532000D01*
X119424000Y-106282000D02*
X119424000Y-64032000D01*
X120924000Y-64782000D02*
X124674000Y-61032000D01*
X175924000Y-105282000D02*
X172674000Y-108532000D01*
X124174000Y-60032000D02*
X173674000Y-60032000D01*
X116924000Y-62782000D02*
X122674000Y-57032000D01*
X123924000Y-110032000D02*
X119924000Y-106032000D01*
X179924000Y-107282000D02*
X174674000Y-112532000D01*
X125174000Y-107532000D02*
X122424000Y-104782000D01*
X122924000Y-112032000D02*
X117924000Y-107032000D01*
X178424000Y-64032000D02*
X178424000Y-106532000D01*
X173924000Y-59532000D02*
X178424000Y-64032000D01*
X126174000Y-105532000D02*
X124424000Y-103782000D01*
X119924000Y-106032000D02*
X119924000Y-64282000D01*
X177924000Y-106282000D02*
X173674000Y-110532000D01*
X172424000Y-103532000D02*
X170924000Y-105032000D01*
X124924000Y-103532000D02*
X124924000Y-66782000D01*
X180924000Y-107782000D02*
X175174000Y-113532000D01*
X123674000Y-110532000D02*
X119424000Y-106282000D01*
X117924000Y-63282000D02*
X123174000Y-58032000D01*
X172924000Y-103782000D02*
X171174000Y-105532000D01*
X122674000Y-57032000D02*
X175174000Y-57032000D01*
X173174000Y-61032000D02*
X176924000Y-64782000D01*
X174924000Y-65782000D02*
X174924000Y-104782000D01*
X170924000Y-65532000D02*
X172424000Y-67032000D01*
X170924000Y-105032000D02*
X126424000Y-105032000D01*
X174424000Y-58532000D02*
X179424000Y-63532000D01*
X126674000Y-65032000D02*
X171174000Y-65032000D01*
X122174000Y-113532000D02*
X116424000Y-107782000D01*
X126174000Y-64032000D02*
X171674000Y-64032000D01*
X122674000Y-112532000D02*
X117424000Y-107282000D01*
X126424000Y-105032000D02*
X124924000Y-103532000D01*
X126924000Y-65532000D02*
X170924000Y-65532000D01*
X171924000Y-67282000D02*
X171924000Y-103282000D01*
X116424000Y-62532000D02*
X122424000Y-56532000D01*
X121424000Y-105282000D02*
X121424000Y-65032000D01*
X125424000Y-67032000D02*
X126924000Y-65532000D01*
X177924000Y-64282000D02*
X177924000Y-106282000D01*
X123424000Y-66032000D02*
X125924000Y-63532000D01*
X119424000Y-64032000D02*
X123924000Y-59532000D01*
X125424000Y-103282000D02*
X125424000Y-67032000D01*
X170674000Y-104532000D02*
X126674000Y-104532000D01*
X118924000Y-63782000D02*
X123674000Y-59032000D01*
X173674000Y-60032000D02*
X177924000Y-64282000D01*
X127924000Y-67532000D02*
X169924000Y-67532000D01*
X175424000Y-105032000D02*
X172424000Y-108032000D01*
X126924000Y-104032000D02*
X125924000Y-103032000D01*
X174424000Y-104532000D02*
X171924000Y-107032000D01*
X127424000Y-102282000D02*
X127424000Y-68032000D01*
X169924000Y-68282000D02*
X169924000Y-102282000D01*
X173924000Y-66282000D02*
X173924000Y-104282000D01*
X178424000Y-106532000D02*
X173924000Y-111032000D01*
X127924000Y-68282000D02*
X128174000Y-68032000D01*
X118924000Y-106532000D02*
X118924000Y-63782000D01*
X124424000Y-60532000D02*
X173424000Y-60532000D01*
X127424000Y-68032000D02*
X127924000Y-67532000D01*
X169924000Y-67532000D02*
X170424000Y-68032000D01*
X170924000Y-67782000D02*
X170924000Y-102782000D01*
X118424000Y-106782000D02*
X118424000Y-63532000D01*
X171674000Y-106532000D02*
X125674000Y-106532000D01*
X123174000Y-58032000D02*
X174674000Y-58032000D01*
X178924000Y-106782000D02*
X174174000Y-111532000D01*
X170674000Y-66032000D02*
X171924000Y-67282000D01*
X126924000Y-67782000D02*
X127674000Y-67032000D01*
X179424000Y-107032000D02*
X174424000Y-112032000D01*
X171924000Y-63532000D02*
X174424000Y-66032000D01*
X174174000Y-111532000D02*
X123174000Y-111532000D01*
X172674000Y-108532000D02*
X124674000Y-108532000D01*
X128174000Y-68032000D02*
X169674000Y-68032000D01*
X170424000Y-104032000D02*
X126924000Y-104032000D01*
X127174000Y-66032000D02*
X170674000Y-66032000D01*
X123424000Y-104282000D02*
X123424000Y-66032000D01*
X174674000Y-112532000D02*
X122674000Y-112532000D01*
X180924000Y-62782000D02*
X180924000Y-107782000D01*
X169924000Y-102282000D02*
X169674000Y-102532000D01*
X172924000Y-66782000D02*
X172924000Y-103782000D01*
X173924000Y-104282000D02*
X171674000Y-106532000D01*
X177424000Y-106032000D02*
X173424000Y-110032000D01*
X116924000Y-107532000D02*
X116924000Y-62782000D01*
X171674000Y-64032000D02*
X173924000Y-66282000D01*
X180424000Y-63032000D02*
X180424000Y-107532000D01*
X175424000Y-65532000D02*
X175424000Y-105032000D01*
X123424000Y-58532000D02*
X174424000Y-58532000D01*
X122924000Y-104532000D02*
X122924000Y-65782000D01*
X171424000Y-106032000D02*
X125924000Y-106032000D01*
X174424000Y-112032000D02*
X122924000Y-112032000D01*
X174674000Y-58032000D02*
X179924000Y-63282000D01*
X169674000Y-102532000D02*
X127674000Y-102532000D01*
X179424000Y-63532000D02*
X179424000Y-107032000D01*
X174924000Y-57532000D02*
X180424000Y-63032000D01*
X170424000Y-68032000D02*
X170424000Y-102532000D01*
X127674000Y-102532000D02*
X127424000Y-102282000D01*
X126424000Y-64532000D02*
X171424000Y-64532000D01*
X173424000Y-66532000D02*
X173424000Y-104032000D01*
X127174000Y-103532000D02*
X126424000Y-102782000D01*
X124924000Y-108032000D02*
X121924000Y-105032000D01*
X125174000Y-62032000D02*
X172674000Y-62032000D01*
X175174000Y-113532000D02*
X122174000Y-113532000D01*
X122424000Y-113032000D02*
X116924000Y-107532000D01*
X125924000Y-67282000D02*
X127174000Y-66032000D01*
X171174000Y-105532000D02*
X126174000Y-105532000D01*
X125924000Y-63532000D02*
X171924000Y-63532000D01*
X124424000Y-66532000D02*
X126424000Y-64532000D01*
X124424000Y-103782000D02*
X124424000Y-66532000D01*
X171424000Y-103032000D02*
X170424000Y-104032000D01*
X117924000Y-107032000D02*
X117924000Y-63282000D01*
X173424000Y-110032000D02*
X123924000Y-110032000D01*
X169924000Y-103032000D02*
X127424000Y-103032000D01*
X124674000Y-61032000D02*
X173174000Y-61032000D01*
X125424000Y-62532000D02*
X172424000Y-62532000D01*
X127424000Y-103032000D02*
X126924000Y-102532000D01*
X122924000Y-57532000D02*
X174924000Y-57532000D01*
X121924000Y-105032000D02*
X121924000Y-65282000D01*
X174174000Y-59032000D02*
X178924000Y-63782000D01*
X171424000Y-67532000D02*
X171424000Y-103032000D01*
X124424000Y-109032000D02*
X120924000Y-105532000D01*
X125674000Y-106532000D02*
X123424000Y-104282000D01*
X127674000Y-67032000D02*
X170174000Y-67032000D01*
X126924000Y-102532000D02*
X126924000Y-67782000D01*
X125924000Y-106032000D02*
X123924000Y-104032000D01*
X175174000Y-57032000D02*
X180924000Y-62782000D01*
X172174000Y-107532000D02*
X125174000Y-107532000D01*
X172174000Y-63032000D02*
X174924000Y-65782000D01*
X125424000Y-107032000D02*
X122924000Y-104532000D01*
X170174000Y-67032000D02*
X170924000Y-67782000D01*
X172424000Y-108032000D02*
X124924000Y-108032000D01*
X180424000Y-107532000D02*
X174924000Y-113032000D01*
X126424000Y-67532000D02*
X127424000Y-66532000D01*
X122924000Y-65782000D02*
X125674000Y-63032000D01*
X127424000Y-66532000D02*
X170424000Y-66532000D01*
X170424000Y-66532000D02*
X171424000Y-67532000D01*
X169674000Y-68032000D02*
X169924000Y-68282000D01*
X123174000Y-111532000D02*
X118424000Y-106782000D01*
X177424000Y-64532000D02*
X177424000Y-106032000D01*
X123424000Y-111032000D02*
X118924000Y-106532000D01*
X171424000Y-64532000D02*
X173424000Y-66532000D01*
X120424000Y-105782000D02*
X120424000Y-64532000D01*
X123924000Y-104032000D02*
X123924000Y-66282000D01*
X123924000Y-66282000D02*
X126174000Y-64032000D01*
X126674000Y-104532000D02*
X125424000Y-103282000D01*
X173674000Y-110532000D02*
X123674000Y-110532000D01*
X176924000Y-105782000D02*
X173174000Y-109532000D01*
X173424000Y-60532000D02*
X177424000Y-64532000D01*
X126424000Y-102782000D02*
X126424000Y-67532000D01*
X172924000Y-109032000D02*
X124424000Y-109032000D01*
X171924000Y-107032000D02*
X125424000Y-107032000D01*
X173174000Y-109532000D02*
X124174000Y-109532000D01*
X121924000Y-65282000D02*
X125174000Y-62032000D01*
X172924000Y-61532000D02*
X176424000Y-65032000D01*
X117424000Y-63032000D02*
X122924000Y-57532000D01*
X171924000Y-103282000D02*
X170674000Y-104532000D01*
X127924000Y-93782000D02*
X127924000Y-68282000D01*
X121424000Y-65032000D02*
X124924000Y-61532000D01*
X176924000Y-64782000D02*
X176924000Y-105782000D01*
X174924000Y-104782000D02*
X172174000Y-107532000D01*
X174424000Y-66032000D02*
X174424000Y-104532000D01*
X125674000Y-63032000D02*
X172174000Y-63032000D01*
X170924000Y-102782000D02*
X170174000Y-103532000D01*
X123674000Y-59032000D02*
X174174000Y-59032000D01*
X120924000Y-105532000D02*
X120924000Y-64782000D01*
X118424000Y-63532000D02*
X123424000Y-58532000D01*
X119924000Y-64282000D02*
X124174000Y-60032000D01*
X120424000Y-64532000D02*
X124424000Y-60532000D01*
X173424000Y-104032000D02*
X171424000Y-106032000D01*
X116424000Y-107782000D02*
X116424000Y-62532000D01*
X172424000Y-62532000D02*
X175424000Y-65532000D01*
X174924000Y-113032000D02*
X122424000Y-113032000D01*
X170174000Y-103532000D02*
X127174000Y-103532000D01*
X117424000Y-107282000D02*
X117424000Y-63032000D01*
X170424000Y-102532000D02*
X169924000Y-103032000D01*
X124924000Y-61532000D02*
X172924000Y-61532000D01*
X124174000Y-109532000D02*
X120424000Y-105782000D01*
X153622000Y-56532000D02*
X154850000Y-56532000D01*
X175924000Y-65282000D02*
X175924000Y-105282000D01*
X176424000Y-65032000D02*
X176424000Y-105532000D01*
X172674000Y-62032000D02*
X175924000Y-65282000D01*
X152818000Y-56532000D02*
X153622000Y-56532000D01*
X154850000Y-56532000D02*
X157030000Y-54352000D01*
X124674000Y-108532000D02*
X121424000Y-105282000D01*
X125924000Y-103032000D02*
X125924000Y-67282000D01*
X176424000Y-105532000D02*
X172924000Y-109032000D01*
X122424000Y-56532000D02*
X153622000Y-56532000D01*
X127924000Y-93782000D02*
X127924000Y-93782000D01*
%TD*%
M02*
