M48
; DRILL file {KiCad (5.1.10)-1} date 05/07/22 18:32:47
; FORMAT={-:-/ absolute / metric / decimal}
; #@! TF.CreationDate,2022-05-07T18:32:47-07:00
; #@! TF.GenerationSoftware,Kicad,Pcbnew,(5.1.10)-1
; #@! TF.FileFunction,Plated,1,4,PTH
FMAT,2
METRIC
T1C0.400
T2C2.000
%
G90
G05
T1
X131.75Y-82.0
X133.25Y-71.25
X134.75Y-73.25
X135.75Y-101.0
X135.89Y-54.102
X137.25Y-101.0
X138.43Y-72.57
X138.75Y-101.0
X140.97Y-54.102
X140.97Y-73.28
X143.0Y-99.75
X143.165Y-96.165
X144.935Y-96.935
X146.3Y-97.95
X153.0Y-96.5
X157.75Y-99.75
X159.5Y-101.25
X170.076Y-93.532
T2
X107.006Y-51.008
X107.006Y-119.25
X116.006Y-51.008
X116.006Y-119.25
X129.5Y-119.25
X138.5Y-119.25
X160.25Y-51.008
X169.25Y-51.008
X182.952Y-51.008
X182.952Y-119.172
X191.952Y-51.008
X191.952Y-119.172
T0
M30
