%TF.GenerationSoftware,KiCad,Pcbnew,(5.1.10)-1*%
%TF.CreationDate,2022-05-08T17:14:08-07:00*%
%TF.ProjectId,solar-panel-side-Z,736f6c61-722d-4706-916e-656c2d736964,1.0*%
%TF.SameCoordinates,Original*%
%TF.FileFunction,Copper,L4,Bot*%
%TF.FilePolarity,Positive*%
%FSLAX46Y46*%
G04 Gerber Fmt 4.6, Leading zero omitted, Abs format (unit mm)*
G04 Created by KiCad (PCBNEW (5.1.10)-1) date 2022-05-08 17:14:08*
%MOMM*%
%LPD*%
G01*
G04 APERTURE LIST*
%TA.AperFunction,SMDPad,CuDef*%
%ADD10C,2.000000*%
%TD*%
%TA.AperFunction,SMDPad,CuDef*%
%ADD11C,4.000000*%
%TD*%
%TA.AperFunction,SMDPad,CuDef*%
%ADD12R,1.250000X1.800000*%
%TD*%
%TA.AperFunction,SMDPad,CuDef*%
%ADD13R,0.600000X1.000000*%
%TD*%
%TA.AperFunction,ComponentPad*%
%ADD14C,3.000000*%
%TD*%
%TA.AperFunction,ViaPad*%
%ADD15C,0.800000*%
%TD*%
%TA.AperFunction,Conductor*%
%ADD16C,0.250000*%
%TD*%
%TA.AperFunction,Conductor*%
%ADD17C,0.500000*%
%TD*%
%TA.AperFunction,Conductor*%
%ADD18C,0.254000*%
%TD*%
%TA.AperFunction,Conductor*%
%ADD19C,0.100000*%
%TD*%
G04 APERTURE END LIST*
D10*
%TO.P,U4,11*%
%TO.N,Net-(U4-Pad11)*%
X147190000Y-76610000D03*
%TO.P,U4,12*%
%TO.N,Net-(U4-Pad12)*%
X144650000Y-76610000D03*
D11*
%TO.P,U4,16*%
%TO.N,Net-(U4-Pad16)*%
X140840000Y-76610000D03*
D10*
%TO.P,U4,7*%
%TO.N,Net-(U4-Pad7)*%
X157350000Y-76610000D03*
D11*
%TO.P,U4,15*%
%TO.N,Net-(U4-Pad15)*%
X161160000Y-76610000D03*
D10*
%TO.P,U4,8*%
%TO.N,Net-(U4-Pad8)*%
X154810000Y-76610000D03*
%TO.P,U4,9*%
%TO.N,Net-(U4-Pad9)*%
X152270000Y-76610000D03*
%TO.P,U4,10*%
%TO.N,Net-(U4-Pad10)*%
X149730000Y-76610000D03*
D11*
%TO.P,U4,13*%
%TO.N,Net-(U4-Pad13)*%
X161160000Y-94390000D03*
D10*
%TO.P,U4,2*%
%TO.N,Net-(U4-Pad2)*%
X154810000Y-94390000D03*
%TO.P,U4,3*%
%TO.N,GND*%
X152270000Y-94390000D03*
%TO.P,U4,1*%
%TO.N,+3V3*%
X157350000Y-94390000D03*
%TO.P,U4,6*%
%TO.N,Net-(U4-Pad6)*%
X144650000Y-94390000D03*
%TO.P,U4,5*%
%TO.N,SDA*%
X147190000Y-94390000D03*
%TO.P,U4,4*%
%TO.N,SCL*%
X149730000Y-94390000D03*
D11*
%TO.P,U4,14*%
%TO.N,Net-(U4-Pad14)*%
X140840000Y-94390000D03*
%TD*%
D12*
%TO.P,J1,7*%
%TO.N,Net-(J1-Pad7)*%
X133145001Y-104940000D03*
%TO.P,J1,6*%
%TO.N,Net-(J1-Pad6)*%
X144354999Y-104940000D03*
D13*
%TO.P,J1,5*%
%TO.N,SDA*%
X135749999Y-99750000D03*
%TO.P,J1,4*%
%TO.N,SCL*%
X137249999Y-99750000D03*
%TO.P,J1,3*%
%TO.N,+3V3*%
X138750001Y-99750000D03*
%TO.P,J1,2*%
%TO.N,GND*%
X140250000Y-99750000D03*
%TO.P,J1,1*%
%TO.N,VSOLAR*%
X141750000Y-99750000D03*
%TD*%
D10*
%TO.P,U5,4*%
%TO.N,SDA*%
X121650000Y-75790000D03*
%TO.P,U5,5*%
%TO.N,Net-(U5-Pad5)*%
X121650000Y-73250000D03*
%TO.P,U5,6*%
%TO.N,Net-(U5-Pad6)*%
X121650000Y-70710000D03*
%TO.P,U5,1*%
%TO.N,+3V3*%
X121650000Y-83410000D03*
%TO.P,U5,3*%
%TO.N,SCL*%
X121650000Y-78330000D03*
%TO.P,U5,2*%
%TO.N,GND*%
X121650000Y-80870000D03*
D11*
%TO.P,U5,11*%
%TO.N,Net-(U5-Pad11)*%
X134350000Y-63090000D03*
%TO.P,U5,10*%
%TO.N,Net-(U5-Pad10)*%
X134350000Y-83410000D03*
D10*
%TO.P,U5,8*%
%TO.N,Net-(U5-Pad8)*%
X121650000Y-65630000D03*
%TO.P,U5,7*%
%TO.N,Net-(U5-Pad7)*%
X121650000Y-68170000D03*
%TO.P,U5,9*%
%TO.N,Net-(U5-Pad9)*%
X121650000Y-63090000D03*
%TD*%
D14*
%TO.P,SC5,2*%
%TO.N,Net-(SC5-Pad2)*%
X191952000Y-51008000D03*
%TO.P,SC5,1*%
%TO.N,Net-(D3-Pad2)*%
X182952000Y-51008000D03*
%TD*%
%TO.P,SC4,1*%
%TO.N,Net-(SC3-Pad2)*%
X169000000Y-119250000D03*
%TO.P,SC4,2*%
%TO.N,GND*%
X160000000Y-119250000D03*
%TD*%
%TO.P,SC6,1*%
%TO.N,Net-(SC5-Pad2)*%
X191952000Y-119172000D03*
%TO.P,SC6,2*%
%TO.N,GND*%
X182952000Y-119172000D03*
%TD*%
%TO.P,SC3,1*%
%TO.N,Net-(D2-Pad2)*%
X130000000Y-51000000D03*
%TO.P,SC3,2*%
%TO.N,Net-(SC3-Pad2)*%
X139000000Y-51000000D03*
%TD*%
%TO.P,SC2,2*%
%TO.N,GND*%
X107006000Y-119250000D03*
%TO.P,SC2,1*%
%TO.N,Net-(SC1-Pad2)*%
X116006000Y-119250000D03*
%TD*%
%TO.P,SC1,2*%
%TO.N,Net-(SC1-Pad2)*%
X116006000Y-51008000D03*
%TO.P,SC1,1*%
%TO.N,Net-(D1-Pad2)*%
X107006000Y-51008000D03*
%TD*%
D15*
%TO.N,GND*%
X138000000Y-101750000D03*
X157110000Y-69390000D03*
X153750000Y-80500000D03*
%TO.N,+3V3*%
X138750000Y-101000000D03*
X149000000Y-97950010D03*
X149000000Y-91750000D03*
%TO.N,VSOLAR*%
X157750000Y-99750000D03*
X143000000Y-99750000D03*
%TO.N,SDA*%
X135750000Y-101000000D03*
X145500000Y-96000000D03*
X147000000Y-86000000D03*
%TO.N,SCL*%
X146750000Y-97250000D03*
X137250000Y-101000000D03*
X148000000Y-87250000D03*
%TO.N,Net-(U2-Pad6)*%
X162110000Y-54352000D03*
X157030000Y-54352000D03*
X127924000Y-93782000D03*
%TD*%
D16*
%TO.N,GND*%
X121650000Y-80870000D02*
X129120000Y-80870000D01*
X129120000Y-80870000D02*
X129120000Y-80870000D01*
%TO.N,+3V3*%
X140549991Y-97950010D02*
X138750001Y-99750000D01*
X138750001Y-99750000D02*
X138750000Y-100500001D01*
X138750000Y-100500001D02*
X138750000Y-101000000D01*
X138750000Y-101000000D02*
X138750000Y-101000000D01*
X153789990Y-97950010D02*
X157350000Y-94390000D01*
X140549991Y-97950010D02*
X153789990Y-97950010D01*
X121650000Y-83410000D02*
X128090000Y-83410000D01*
X128090000Y-83410000D02*
X136430000Y-91750000D01*
X136430000Y-91750000D02*
X149000000Y-91750000D01*
D17*
%TO.N,VSOLAR*%
X143000000Y-99750000D02*
X157176002Y-99750000D01*
X157176002Y-99750000D02*
X157750000Y-99750000D01*
X141750000Y-99750000D02*
X143000000Y-99750000D01*
%TO.N,Net-(SC1-Pad2)*%
X116006000Y-51008000D02*
X116006000Y-119426000D01*
%TO.N,Net-(SC3-Pad2)*%
X139000000Y-51000000D02*
X161750000Y-51000000D01*
X169000000Y-58250000D02*
X169000000Y-119250000D01*
X161750000Y-51000000D02*
X169000000Y-58250000D01*
D16*
%TO.N,SDA*%
X135749999Y-99750000D02*
X135750000Y-100500001D01*
X135750000Y-100500001D02*
X135750000Y-101000000D01*
X135750000Y-101000000D02*
X135750000Y-101000000D01*
X144580000Y-97000000D02*
X147190000Y-94390000D01*
X138499999Y-97000000D02*
X144580000Y-97000000D01*
X135749999Y-99750000D02*
X138499999Y-97000000D01*
X136000000Y-79250000D02*
X142750000Y-86000000D01*
X142750000Y-86000000D02*
X147000000Y-86000000D01*
X125110000Y-79250000D02*
X136000000Y-79250000D01*
X121650000Y-75790000D02*
X125110000Y-79250000D01*
%TO.N,SCL*%
X137249999Y-99750000D02*
X137250000Y-100500001D01*
X137250000Y-100500001D02*
X137250000Y-101000000D01*
X137250000Y-101000000D02*
X137250000Y-101000000D01*
X146620000Y-97500000D02*
X149730000Y-94390000D01*
X139499999Y-97500000D02*
X146620000Y-97500000D01*
X137249999Y-99750000D02*
X139499999Y-97500000D01*
X123143002Y-79823002D02*
X121650000Y-78330000D01*
X123143002Y-79823002D02*
X135573002Y-79823002D01*
X143000000Y-87250000D02*
X148000000Y-87250000D01*
X135573002Y-79823002D02*
X143000000Y-87250000D01*
D17*
%TO.N,Net-(SC5-Pad2)*%
X191952000Y-51008000D02*
X191952000Y-119172000D01*
%TD*%
D18*
%TO.N,GND*%
X188340001Y-45467571D02*
X188336807Y-45500000D01*
X188349550Y-45629383D01*
X188387290Y-45753793D01*
X188448575Y-45868450D01*
X188531052Y-45968948D01*
X188631550Y-46051425D01*
X188746207Y-46112710D01*
X188870617Y-46150450D01*
X188967581Y-46160000D01*
X189000000Y-46163193D01*
X189032419Y-46160000D01*
X198840000Y-46160000D01*
X198840001Y-123840000D01*
X189032419Y-123840000D01*
X189000000Y-123836807D01*
X188967581Y-123840000D01*
X188870617Y-123849550D01*
X188746207Y-123887290D01*
X188631550Y-123948575D01*
X188531052Y-124031052D01*
X188448575Y-124131550D01*
X188387290Y-124246207D01*
X188349550Y-124370617D01*
X188336807Y-124500000D01*
X188340000Y-124532418D01*
X188340001Y-134340000D01*
X110660000Y-134340000D01*
X110660000Y-124532418D01*
X110663193Y-124500000D01*
X110650450Y-124370617D01*
X110612710Y-124246207D01*
X110551425Y-124131550D01*
X110468948Y-124031052D01*
X110368450Y-123948575D01*
X110253793Y-123887290D01*
X110129383Y-123849550D01*
X110032419Y-123840000D01*
X110000000Y-123836807D01*
X109967581Y-123840000D01*
X100160000Y-123840000D01*
X100160000Y-123801389D01*
X139733466Y-123801389D01*
X139733466Y-124198611D01*
X139810960Y-124588201D01*
X139962971Y-124955187D01*
X140183656Y-125285465D01*
X140464535Y-125566344D01*
X140794813Y-125787029D01*
X141161799Y-125939040D01*
X141551389Y-126016534D01*
X141948611Y-126016534D01*
X142338201Y-125939040D01*
X142705187Y-125787029D01*
X143035465Y-125566344D01*
X143316344Y-125285465D01*
X143537029Y-124955187D01*
X143689040Y-124588201D01*
X143766534Y-124198611D01*
X143766534Y-123801389D01*
X143689040Y-123411799D01*
X143537029Y-123044813D01*
X143316344Y-122714535D01*
X143035465Y-122433656D01*
X142705187Y-122212971D01*
X142338201Y-122060960D01*
X141948611Y-121983466D01*
X141551389Y-121983466D01*
X141161799Y-122060960D01*
X140794813Y-122212971D01*
X140464535Y-122433656D01*
X140183656Y-122714535D01*
X139962971Y-123044813D01*
X139810960Y-123411799D01*
X139733466Y-123801389D01*
X100160000Y-123801389D01*
X100160000Y-120741653D01*
X105693952Y-120741653D01*
X105849962Y-121057214D01*
X106224745Y-121248020D01*
X106629551Y-121362044D01*
X107048824Y-121394902D01*
X107466451Y-121345334D01*
X107866383Y-121215243D01*
X108162038Y-121057214D01*
X108318048Y-120741653D01*
X107006000Y-119429605D01*
X105693952Y-120741653D01*
X100160000Y-120741653D01*
X100160000Y-119292824D01*
X104861098Y-119292824D01*
X104910666Y-119710451D01*
X105040757Y-120110383D01*
X105198786Y-120406038D01*
X105514347Y-120562048D01*
X106826395Y-119250000D01*
X107185605Y-119250000D01*
X108497653Y-120562048D01*
X108813214Y-120406038D01*
X109004020Y-120031255D01*
X109118044Y-119626449D01*
X109150902Y-119207176D01*
X109101334Y-118789549D01*
X108971243Y-118389617D01*
X108813214Y-118093962D01*
X108497653Y-117937952D01*
X107185605Y-119250000D01*
X106826395Y-119250000D01*
X105514347Y-117937952D01*
X105198786Y-118093962D01*
X105007980Y-118468745D01*
X104893956Y-118873551D01*
X104861098Y-119292824D01*
X100160000Y-119292824D01*
X100160000Y-117758347D01*
X105693952Y-117758347D01*
X107006000Y-119070395D01*
X108318048Y-117758347D01*
X108162038Y-117442786D01*
X107787255Y-117251980D01*
X107382449Y-117137956D01*
X106963176Y-117105098D01*
X106545549Y-117154666D01*
X106145617Y-117284757D01*
X105849962Y-117442786D01*
X105693952Y-117758347D01*
X100160000Y-117758347D01*
X100160000Y-84801389D01*
X108483466Y-84801389D01*
X108483466Y-85198611D01*
X108560960Y-85588201D01*
X108712971Y-85955187D01*
X108933656Y-86285465D01*
X109214535Y-86566344D01*
X109544813Y-86787029D01*
X109911799Y-86939040D01*
X110301389Y-87016534D01*
X110698611Y-87016534D01*
X111088201Y-86939040D01*
X111455187Y-86787029D01*
X111785465Y-86566344D01*
X112066344Y-86285465D01*
X112287029Y-85955187D01*
X112439040Y-85588201D01*
X112516534Y-85198611D01*
X112516534Y-84801389D01*
X112439040Y-84411799D01*
X112287029Y-84044813D01*
X112066344Y-83714535D01*
X111785465Y-83433656D01*
X111455187Y-83212971D01*
X111088201Y-83060960D01*
X110698611Y-82983466D01*
X110301389Y-82983466D01*
X109911799Y-83060960D01*
X109544813Y-83212971D01*
X109214535Y-83433656D01*
X108933656Y-83714535D01*
X108712971Y-84044813D01*
X108560960Y-84411799D01*
X108483466Y-84801389D01*
X100160000Y-84801389D01*
X100160000Y-50797721D01*
X104871000Y-50797721D01*
X104871000Y-51218279D01*
X104953047Y-51630756D01*
X105113988Y-52019302D01*
X105347637Y-52368983D01*
X105645017Y-52666363D01*
X105994698Y-52900012D01*
X106383244Y-53060953D01*
X106795721Y-53143000D01*
X107216279Y-53143000D01*
X107628756Y-53060953D01*
X108017302Y-52900012D01*
X108366983Y-52666363D01*
X108664363Y-52368983D01*
X108898012Y-52019302D01*
X109058953Y-51630756D01*
X109141000Y-51218279D01*
X109141000Y-50797721D01*
X113871000Y-50797721D01*
X113871000Y-51218279D01*
X113953047Y-51630756D01*
X114113988Y-52019302D01*
X114347637Y-52368983D01*
X114645017Y-52666363D01*
X114994698Y-52900012D01*
X115121000Y-52952328D01*
X115121001Y-117305672D01*
X114994698Y-117357988D01*
X114645017Y-117591637D01*
X114347637Y-117889017D01*
X114113988Y-118238698D01*
X113953047Y-118627244D01*
X113871000Y-119039721D01*
X113871000Y-119460279D01*
X113953047Y-119872756D01*
X114113988Y-120261302D01*
X114347637Y-120610983D01*
X114645017Y-120908363D01*
X114994698Y-121142012D01*
X115383244Y-121302953D01*
X115795721Y-121385000D01*
X116216279Y-121385000D01*
X116628756Y-121302953D01*
X117017302Y-121142012D01*
X117366983Y-120908363D01*
X117533693Y-120741653D01*
X158687952Y-120741653D01*
X158843962Y-121057214D01*
X159218745Y-121248020D01*
X159623551Y-121362044D01*
X160042824Y-121394902D01*
X160460451Y-121345334D01*
X160860383Y-121215243D01*
X161156038Y-121057214D01*
X161312048Y-120741653D01*
X160000000Y-119429605D01*
X158687952Y-120741653D01*
X117533693Y-120741653D01*
X117664363Y-120610983D01*
X117898012Y-120261302D01*
X118058953Y-119872756D01*
X118141000Y-119460279D01*
X118141000Y-119292824D01*
X157855098Y-119292824D01*
X157904666Y-119710451D01*
X158034757Y-120110383D01*
X158192786Y-120406038D01*
X158508347Y-120562048D01*
X159820395Y-119250000D01*
X160179605Y-119250000D01*
X161491653Y-120562048D01*
X161807214Y-120406038D01*
X161998020Y-120031255D01*
X162112044Y-119626449D01*
X162144902Y-119207176D01*
X162095334Y-118789549D01*
X161965243Y-118389617D01*
X161807214Y-118093962D01*
X161491653Y-117937952D01*
X160179605Y-119250000D01*
X159820395Y-119250000D01*
X158508347Y-117937952D01*
X158192786Y-118093962D01*
X158001980Y-118468745D01*
X157887956Y-118873551D01*
X157855098Y-119292824D01*
X118141000Y-119292824D01*
X118141000Y-119039721D01*
X118058953Y-118627244D01*
X117898012Y-118238698D01*
X117664363Y-117889017D01*
X117533693Y-117758347D01*
X158687952Y-117758347D01*
X160000000Y-119070395D01*
X161312048Y-117758347D01*
X161156038Y-117442786D01*
X160781255Y-117251980D01*
X160376449Y-117137956D01*
X159957176Y-117105098D01*
X159539549Y-117154666D01*
X159139617Y-117284757D01*
X158843962Y-117442786D01*
X158687952Y-117758347D01*
X117533693Y-117758347D01*
X117366983Y-117591637D01*
X117017302Y-117357988D01*
X116891000Y-117305672D01*
X116891000Y-104040000D01*
X131881929Y-104040000D01*
X131881929Y-105840000D01*
X131894189Y-105964482D01*
X131930499Y-106084180D01*
X131989464Y-106194494D01*
X132068816Y-106291185D01*
X132165507Y-106370537D01*
X132275821Y-106429502D01*
X132395519Y-106465812D01*
X132520001Y-106478072D01*
X133770001Y-106478072D01*
X133894483Y-106465812D01*
X134014181Y-106429502D01*
X134124495Y-106370537D01*
X134221186Y-106291185D01*
X134300538Y-106194494D01*
X134359503Y-106084180D01*
X134395813Y-105964482D01*
X134408073Y-105840000D01*
X134408073Y-104040000D01*
X143091927Y-104040000D01*
X143091927Y-105840000D01*
X143104187Y-105964482D01*
X143140497Y-106084180D01*
X143199462Y-106194494D01*
X143278814Y-106291185D01*
X143375505Y-106370537D01*
X143485819Y-106429502D01*
X143605517Y-106465812D01*
X143729999Y-106478072D01*
X144979999Y-106478072D01*
X145104481Y-106465812D01*
X145224179Y-106429502D01*
X145334493Y-106370537D01*
X145431184Y-106291185D01*
X145510536Y-106194494D01*
X145569501Y-106084180D01*
X145605811Y-105964482D01*
X145618071Y-105840000D01*
X145618071Y-104040000D01*
X145605811Y-103915518D01*
X145569501Y-103795820D01*
X145510536Y-103685506D01*
X145431184Y-103588815D01*
X145334493Y-103509463D01*
X145224179Y-103450498D01*
X145104481Y-103414188D01*
X144979999Y-103401928D01*
X143729999Y-103401928D01*
X143605517Y-103414188D01*
X143485819Y-103450498D01*
X143375505Y-103509463D01*
X143278814Y-103588815D01*
X143199462Y-103685506D01*
X143140497Y-103795820D01*
X143104187Y-103915518D01*
X143091927Y-104040000D01*
X134408073Y-104040000D01*
X134395813Y-103915518D01*
X134359503Y-103795820D01*
X134300538Y-103685506D01*
X134221186Y-103588815D01*
X134124495Y-103509463D01*
X134014181Y-103450498D01*
X133894483Y-103414188D01*
X133770001Y-103401928D01*
X132520001Y-103401928D01*
X132395519Y-103414188D01*
X132275821Y-103450498D01*
X132165507Y-103509463D01*
X132068816Y-103588815D01*
X131989464Y-103685506D01*
X131930499Y-103795820D01*
X131894189Y-103915518D01*
X131881929Y-104040000D01*
X116891000Y-104040000D01*
X116891000Y-93680061D01*
X126889000Y-93680061D01*
X126889000Y-93883939D01*
X126928774Y-94083898D01*
X127006795Y-94272256D01*
X127120063Y-94441774D01*
X127264226Y-94585937D01*
X127433744Y-94699205D01*
X127622102Y-94777226D01*
X127822061Y-94817000D01*
X128025939Y-94817000D01*
X128225898Y-94777226D01*
X128414256Y-94699205D01*
X128583774Y-94585937D01*
X128727937Y-94441774D01*
X128841205Y-94272256D01*
X128919226Y-94083898D01*
X128959000Y-93883939D01*
X128959000Y-93680061D01*
X128919226Y-93480102D01*
X128841205Y-93291744D01*
X128727937Y-93122226D01*
X128583774Y-92978063D01*
X128414256Y-92864795D01*
X128225898Y-92786774D01*
X128025939Y-92747000D01*
X127822061Y-92747000D01*
X127622102Y-92786774D01*
X127433744Y-92864795D01*
X127264226Y-92978063D01*
X127120063Y-93122226D01*
X127006795Y-93291744D01*
X126928774Y-93480102D01*
X126889000Y-93680061D01*
X116891000Y-93680061D01*
X116891000Y-83248967D01*
X120015000Y-83248967D01*
X120015000Y-83571033D01*
X120077832Y-83886912D01*
X120201082Y-84184463D01*
X120380013Y-84452252D01*
X120607748Y-84679987D01*
X120875537Y-84858918D01*
X121173088Y-84982168D01*
X121488967Y-85045000D01*
X121811033Y-85045000D01*
X122126912Y-84982168D01*
X122424463Y-84858918D01*
X122692252Y-84679987D01*
X122919987Y-84452252D01*
X123098918Y-84184463D01*
X123104909Y-84170000D01*
X127775199Y-84170000D01*
X135866201Y-92261003D01*
X135889999Y-92290001D01*
X135918997Y-92313799D01*
X136005723Y-92384974D01*
X136137753Y-92455546D01*
X136281014Y-92499003D01*
X136392667Y-92510000D01*
X136392676Y-92510000D01*
X136429999Y-92513676D01*
X136467322Y-92510000D01*
X138993547Y-92510000D01*
X138793262Y-92710285D01*
X138504893Y-93141859D01*
X138306261Y-93621399D01*
X138205000Y-94130475D01*
X138205000Y-94649525D01*
X138306261Y-95158601D01*
X138504893Y-95638141D01*
X138793262Y-96069715D01*
X138963547Y-96240000D01*
X138537321Y-96240000D01*
X138499998Y-96236324D01*
X138462675Y-96240000D01*
X138462666Y-96240000D01*
X138351013Y-96250997D01*
X138207752Y-96294454D01*
X138075723Y-96365026D01*
X137959998Y-96459999D01*
X137936200Y-96488997D01*
X135813270Y-98611928D01*
X135449999Y-98611928D01*
X135325517Y-98624188D01*
X135205819Y-98660498D01*
X135095505Y-98719463D01*
X134998814Y-98798815D01*
X134919462Y-98895506D01*
X134860497Y-99005820D01*
X134824187Y-99125518D01*
X134811927Y-99250000D01*
X134811927Y-100250000D01*
X134824187Y-100374482D01*
X134855095Y-100476370D01*
X134832795Y-100509744D01*
X134754774Y-100698102D01*
X134715000Y-100898061D01*
X134715000Y-101101939D01*
X134754774Y-101301898D01*
X134832795Y-101490256D01*
X134946063Y-101659774D01*
X135090226Y-101803937D01*
X135259744Y-101917205D01*
X135448102Y-101995226D01*
X135648061Y-102035000D01*
X135851939Y-102035000D01*
X136051898Y-101995226D01*
X136240256Y-101917205D01*
X136409774Y-101803937D01*
X136500000Y-101713711D01*
X136590226Y-101803937D01*
X136759744Y-101917205D01*
X136948102Y-101995226D01*
X137148061Y-102035000D01*
X137351939Y-102035000D01*
X137551898Y-101995226D01*
X137740256Y-101917205D01*
X137909774Y-101803937D01*
X138000000Y-101713711D01*
X138090226Y-101803937D01*
X138259744Y-101917205D01*
X138448102Y-101995226D01*
X138648061Y-102035000D01*
X138851939Y-102035000D01*
X139051898Y-101995226D01*
X139240256Y-101917205D01*
X139409774Y-101803937D01*
X139553937Y-101659774D01*
X139667205Y-101490256D01*
X139745226Y-101301898D01*
X139785000Y-101101939D01*
X139785000Y-100898061D01*
X139777688Y-100861303D01*
X139825518Y-100875812D01*
X139950000Y-100888072D01*
X139964250Y-100885000D01*
X140123000Y-100726250D01*
X140123000Y-99877000D01*
X140103000Y-99877000D01*
X140103000Y-99623000D01*
X140123000Y-99623000D01*
X140123000Y-99603000D01*
X140377000Y-99603000D01*
X140377000Y-99623000D01*
X140397000Y-99623000D01*
X140397000Y-99877000D01*
X140377000Y-99877000D01*
X140377000Y-100726250D01*
X140535750Y-100885000D01*
X140550000Y-100888072D01*
X140674482Y-100875812D01*
X140794180Y-100839502D01*
X140904494Y-100780537D01*
X141000000Y-100702158D01*
X141095506Y-100780537D01*
X141205820Y-100839502D01*
X141325518Y-100875812D01*
X141450000Y-100888072D01*
X142050000Y-100888072D01*
X142174482Y-100875812D01*
X142294180Y-100839502D01*
X142404494Y-100780537D01*
X142501185Y-100701185D01*
X142524168Y-100673180D01*
X142698102Y-100745226D01*
X142898061Y-100785000D01*
X143101939Y-100785000D01*
X143301898Y-100745226D01*
X143490256Y-100667205D01*
X143538454Y-100635000D01*
X157211546Y-100635000D01*
X157259744Y-100667205D01*
X157448102Y-100745226D01*
X157648061Y-100785000D01*
X157851939Y-100785000D01*
X158051898Y-100745226D01*
X158240256Y-100667205D01*
X158409774Y-100553937D01*
X158553937Y-100409774D01*
X158667205Y-100240256D01*
X158745226Y-100051898D01*
X158785000Y-99851939D01*
X158785000Y-99648061D01*
X158745226Y-99448102D01*
X158667205Y-99259744D01*
X158553937Y-99090226D01*
X158409774Y-98946063D01*
X158240256Y-98832795D01*
X158051898Y-98754774D01*
X157851939Y-98715000D01*
X157648061Y-98715000D01*
X157448102Y-98754774D01*
X157259744Y-98832795D01*
X157211546Y-98865000D01*
X149493571Y-98865000D01*
X149659774Y-98753947D01*
X149703711Y-98710010D01*
X153752668Y-98710010D01*
X153789990Y-98713686D01*
X153827312Y-98710010D01*
X153827323Y-98710010D01*
X153938976Y-98699013D01*
X154082237Y-98655556D01*
X154214266Y-98584984D01*
X154329991Y-98490011D01*
X154353794Y-98461007D01*
X156858625Y-95956177D01*
X156873088Y-95962168D01*
X157188967Y-96025000D01*
X157511033Y-96025000D01*
X157826912Y-95962168D01*
X158124463Y-95838918D01*
X158392252Y-95659987D01*
X158619987Y-95432252D01*
X158693833Y-95321734D01*
X158824893Y-95638141D01*
X159113262Y-96069715D01*
X159480285Y-96436738D01*
X159911859Y-96725107D01*
X160391399Y-96923739D01*
X160900475Y-97025000D01*
X161419525Y-97025000D01*
X161928601Y-96923739D01*
X162408141Y-96725107D01*
X162839715Y-96436738D01*
X163206738Y-96069715D01*
X163495107Y-95638141D01*
X163693739Y-95158601D01*
X163795000Y-94649525D01*
X163795000Y-94130475D01*
X163693739Y-93621399D01*
X163495107Y-93141859D01*
X163206738Y-92710285D01*
X162839715Y-92343262D01*
X162408141Y-92054893D01*
X161928601Y-91856261D01*
X161419525Y-91755000D01*
X160900475Y-91755000D01*
X160391399Y-91856261D01*
X159911859Y-92054893D01*
X159480285Y-92343262D01*
X159113262Y-92710285D01*
X158824893Y-93141859D01*
X158693833Y-93458266D01*
X158619987Y-93347748D01*
X158392252Y-93120013D01*
X158124463Y-92941082D01*
X157826912Y-92817832D01*
X157511033Y-92755000D01*
X157188967Y-92755000D01*
X156873088Y-92817832D01*
X156575537Y-92941082D01*
X156307748Y-93120013D01*
X156080013Y-93347748D01*
X156080000Y-93347767D01*
X156079987Y-93347748D01*
X155852252Y-93120013D01*
X155584463Y-92941082D01*
X155286912Y-92817832D01*
X154971033Y-92755000D01*
X154648967Y-92755000D01*
X154333088Y-92817832D01*
X154035537Y-92941082D01*
X153767748Y-93120013D01*
X153540013Y-93347748D01*
X153467280Y-93456600D01*
X153405413Y-93434192D01*
X152449605Y-94390000D01*
X153405413Y-95345808D01*
X153467280Y-95323400D01*
X153540013Y-95432252D01*
X153767748Y-95659987D01*
X154035537Y-95838918D01*
X154333088Y-95962168D01*
X154641653Y-96023545D01*
X153475189Y-97190010D01*
X149703711Y-97190010D01*
X149659774Y-97146073D01*
X149490256Y-97032805D01*
X149301898Y-96954784D01*
X149101939Y-96915010D01*
X148898061Y-96915010D01*
X148698102Y-96954784D01*
X148509744Y-97032805D01*
X148340226Y-97146073D01*
X148296289Y-97190010D01*
X148004791Y-97190010D01*
X149238625Y-95956177D01*
X149253088Y-95962168D01*
X149568967Y-96025000D01*
X149891033Y-96025000D01*
X150206912Y-95962168D01*
X150504463Y-95838918D01*
X150772252Y-95659987D01*
X150906826Y-95525413D01*
X151314192Y-95525413D01*
X151409956Y-95789814D01*
X151699571Y-95930704D01*
X152011108Y-96012384D01*
X152332595Y-96031718D01*
X152651675Y-95987961D01*
X152956088Y-95882795D01*
X153130044Y-95789814D01*
X153225808Y-95525413D01*
X152270000Y-94569605D01*
X151314192Y-95525413D01*
X150906826Y-95525413D01*
X150999987Y-95432252D01*
X151072720Y-95323400D01*
X151134587Y-95345808D01*
X152090395Y-94390000D01*
X151134587Y-93434192D01*
X151072720Y-93456600D01*
X150999987Y-93347748D01*
X150906826Y-93254587D01*
X151314192Y-93254587D01*
X152270000Y-94210395D01*
X153225808Y-93254587D01*
X153130044Y-92990186D01*
X152840429Y-92849296D01*
X152528892Y-92767616D01*
X152207405Y-92748282D01*
X151888325Y-92792039D01*
X151583912Y-92897205D01*
X151409956Y-92990186D01*
X151314192Y-93254587D01*
X150906826Y-93254587D01*
X150772252Y-93120013D01*
X150504463Y-92941082D01*
X150206912Y-92817832D01*
X149891033Y-92755000D01*
X149568967Y-92755000D01*
X149253088Y-92817832D01*
X148955537Y-92941082D01*
X148687748Y-93120013D01*
X148460013Y-93347748D01*
X148460000Y-93347767D01*
X148459987Y-93347748D01*
X148232252Y-93120013D01*
X147964463Y-92941082D01*
X147666912Y-92817832D01*
X147351033Y-92755000D01*
X147028967Y-92755000D01*
X146713088Y-92817832D01*
X146415537Y-92941082D01*
X146147748Y-93120013D01*
X145920013Y-93347748D01*
X145920000Y-93347767D01*
X145919987Y-93347748D01*
X145692252Y-93120013D01*
X145424463Y-92941082D01*
X145126912Y-92817832D01*
X144811033Y-92755000D01*
X144488967Y-92755000D01*
X144173088Y-92817832D01*
X143875537Y-92941082D01*
X143607748Y-93120013D01*
X143380013Y-93347748D01*
X143306167Y-93458266D01*
X143175107Y-93141859D01*
X142886738Y-92710285D01*
X142686453Y-92510000D01*
X148296289Y-92510000D01*
X148340226Y-92553937D01*
X148509744Y-92667205D01*
X148698102Y-92745226D01*
X148898061Y-92785000D01*
X149101939Y-92785000D01*
X149301898Y-92745226D01*
X149490256Y-92667205D01*
X149659774Y-92553937D01*
X149803937Y-92409774D01*
X149917205Y-92240256D01*
X149995226Y-92051898D01*
X150035000Y-91851939D01*
X150035000Y-91648061D01*
X149995226Y-91448102D01*
X149917205Y-91259744D01*
X149803937Y-91090226D01*
X149659774Y-90946063D01*
X149490256Y-90832795D01*
X149301898Y-90754774D01*
X149101939Y-90715000D01*
X148898061Y-90715000D01*
X148698102Y-90754774D01*
X148509744Y-90832795D01*
X148340226Y-90946063D01*
X148296289Y-90990000D01*
X136744802Y-90990000D01*
X128905277Y-83150475D01*
X131715000Y-83150475D01*
X131715000Y-83669525D01*
X131816261Y-84178601D01*
X132014893Y-84658141D01*
X132303262Y-85089715D01*
X132670285Y-85456738D01*
X133101859Y-85745107D01*
X133581399Y-85943739D01*
X134090475Y-86045000D01*
X134609525Y-86045000D01*
X135118601Y-85943739D01*
X135598141Y-85745107D01*
X136029715Y-85456738D01*
X136396738Y-85089715D01*
X136685107Y-84658141D01*
X136883739Y-84178601D01*
X136985000Y-83669525D01*
X136985000Y-83150475D01*
X136883739Y-82641399D01*
X136685107Y-82161859D01*
X136396738Y-81730285D01*
X136029715Y-81363262D01*
X135598141Y-81074893D01*
X135118601Y-80876261D01*
X134609525Y-80775000D01*
X134090475Y-80775000D01*
X133581399Y-80876261D01*
X133101859Y-81074893D01*
X132670285Y-81363262D01*
X132303262Y-81730285D01*
X132014893Y-82161859D01*
X131816261Y-82641399D01*
X131715000Y-83150475D01*
X128905277Y-83150475D01*
X128653804Y-82899003D01*
X128630001Y-82869999D01*
X128514276Y-82775026D01*
X128382247Y-82704454D01*
X128238986Y-82660997D01*
X128127333Y-82650000D01*
X128127322Y-82650000D01*
X128090000Y-82646324D01*
X128052678Y-82650000D01*
X123104909Y-82650000D01*
X123098918Y-82635537D01*
X122919987Y-82367748D01*
X122692252Y-82140013D01*
X122583400Y-82067280D01*
X122605808Y-82005413D01*
X121650000Y-81049605D01*
X120694192Y-82005413D01*
X120716600Y-82067280D01*
X120607748Y-82140013D01*
X120380013Y-82367748D01*
X120201082Y-82635537D01*
X120077832Y-82933088D01*
X120015000Y-83248967D01*
X116891000Y-83248967D01*
X116891000Y-80932595D01*
X120008282Y-80932595D01*
X120052039Y-81251675D01*
X120157205Y-81556088D01*
X120250186Y-81730044D01*
X120514587Y-81825808D01*
X121470395Y-80870000D01*
X120514587Y-79914192D01*
X120250186Y-80009956D01*
X120109296Y-80299571D01*
X120027616Y-80611108D01*
X120008282Y-80932595D01*
X116891000Y-80932595D01*
X116891000Y-62928967D01*
X120015000Y-62928967D01*
X120015000Y-63251033D01*
X120077832Y-63566912D01*
X120201082Y-63864463D01*
X120380013Y-64132252D01*
X120607748Y-64359987D01*
X120607767Y-64360000D01*
X120607748Y-64360013D01*
X120380013Y-64587748D01*
X120201082Y-64855537D01*
X120077832Y-65153088D01*
X120015000Y-65468967D01*
X120015000Y-65791033D01*
X120077832Y-66106912D01*
X120201082Y-66404463D01*
X120380013Y-66672252D01*
X120607748Y-66899987D01*
X120607767Y-66900000D01*
X120607748Y-66900013D01*
X120380013Y-67127748D01*
X120201082Y-67395537D01*
X120077832Y-67693088D01*
X120015000Y-68008967D01*
X120015000Y-68331033D01*
X120077832Y-68646912D01*
X120201082Y-68944463D01*
X120380013Y-69212252D01*
X120607748Y-69439987D01*
X120607767Y-69440000D01*
X120607748Y-69440013D01*
X120380013Y-69667748D01*
X120201082Y-69935537D01*
X120077832Y-70233088D01*
X120015000Y-70548967D01*
X120015000Y-70871033D01*
X120077832Y-71186912D01*
X120201082Y-71484463D01*
X120380013Y-71752252D01*
X120607748Y-71979987D01*
X120607767Y-71980000D01*
X120607748Y-71980013D01*
X120380013Y-72207748D01*
X120201082Y-72475537D01*
X120077832Y-72773088D01*
X120015000Y-73088967D01*
X120015000Y-73411033D01*
X120077832Y-73726912D01*
X120201082Y-74024463D01*
X120380013Y-74292252D01*
X120607748Y-74519987D01*
X120607767Y-74520000D01*
X120607748Y-74520013D01*
X120380013Y-74747748D01*
X120201082Y-75015537D01*
X120077832Y-75313088D01*
X120015000Y-75628967D01*
X120015000Y-75951033D01*
X120077832Y-76266912D01*
X120201082Y-76564463D01*
X120380013Y-76832252D01*
X120607748Y-77059987D01*
X120607767Y-77060000D01*
X120607748Y-77060013D01*
X120380013Y-77287748D01*
X120201082Y-77555537D01*
X120077832Y-77853088D01*
X120015000Y-78168967D01*
X120015000Y-78491033D01*
X120077832Y-78806912D01*
X120201082Y-79104463D01*
X120380013Y-79372252D01*
X120607748Y-79599987D01*
X120716600Y-79672720D01*
X120694192Y-79734587D01*
X121650000Y-80690395D01*
X121664143Y-80676253D01*
X121843748Y-80855858D01*
X121829605Y-80870000D01*
X122785413Y-81825808D01*
X123049814Y-81730044D01*
X123190704Y-81440429D01*
X123272384Y-81128892D01*
X123291718Y-80807405D01*
X123260945Y-80583002D01*
X135258201Y-80583002D01*
X142436201Y-87761003D01*
X142459999Y-87790001D01*
X142575724Y-87884974D01*
X142707753Y-87955546D01*
X142851014Y-87999003D01*
X142962667Y-88010000D01*
X142962676Y-88010000D01*
X142999999Y-88013676D01*
X143037322Y-88010000D01*
X147296289Y-88010000D01*
X147340226Y-88053937D01*
X147509744Y-88167205D01*
X147698102Y-88245226D01*
X147898061Y-88285000D01*
X148101939Y-88285000D01*
X148301898Y-88245226D01*
X148490256Y-88167205D01*
X148659774Y-88053937D01*
X148803937Y-87909774D01*
X148917205Y-87740256D01*
X148995226Y-87551898D01*
X149035000Y-87351939D01*
X149035000Y-87148061D01*
X148995226Y-86948102D01*
X148917205Y-86759744D01*
X148803937Y-86590226D01*
X148659774Y-86446063D01*
X148490256Y-86332795D01*
X148301898Y-86254774D01*
X148101939Y-86215000D01*
X148012511Y-86215000D01*
X148035000Y-86101939D01*
X148035000Y-85898061D01*
X147995226Y-85698102D01*
X147917205Y-85509744D01*
X147803937Y-85340226D01*
X147659774Y-85196063D01*
X147490256Y-85082795D01*
X147301898Y-85004774D01*
X147101939Y-84965000D01*
X146898061Y-84965000D01*
X146698102Y-85004774D01*
X146509744Y-85082795D01*
X146340226Y-85196063D01*
X146296289Y-85240000D01*
X143064802Y-85240000D01*
X136563804Y-78739003D01*
X136540001Y-78709999D01*
X136424276Y-78615026D01*
X136292247Y-78544454D01*
X136148986Y-78500997D01*
X136037333Y-78490000D01*
X136037322Y-78490000D01*
X136000000Y-78486324D01*
X135962678Y-78490000D01*
X125424802Y-78490000D01*
X123216177Y-76281376D01*
X123222168Y-76266912D01*
X123285000Y-75951033D01*
X123285000Y-75628967D01*
X123222168Y-75313088D01*
X123098918Y-75015537D01*
X122919987Y-74747748D01*
X122692252Y-74520013D01*
X122692233Y-74520000D01*
X122692252Y-74519987D01*
X122919987Y-74292252D01*
X123098918Y-74024463D01*
X123222168Y-73726912D01*
X123285000Y-73411033D01*
X123285000Y-73088967D01*
X123222168Y-72773088D01*
X123098918Y-72475537D01*
X122919987Y-72207748D01*
X122692252Y-71980013D01*
X122692233Y-71980000D01*
X122692252Y-71979987D01*
X122919987Y-71752252D01*
X123098918Y-71484463D01*
X123222168Y-71186912D01*
X123285000Y-70871033D01*
X123285000Y-70548967D01*
X123222168Y-70233088D01*
X123098918Y-69935537D01*
X122919987Y-69667748D01*
X122692252Y-69440013D01*
X122692233Y-69440000D01*
X122692252Y-69439987D01*
X122882239Y-69250000D01*
X129686807Y-69250000D01*
X129690001Y-69282429D01*
X129690000Y-77217581D01*
X129686807Y-77250000D01*
X129699550Y-77379383D01*
X129737290Y-77503793D01*
X129798575Y-77618450D01*
X129826316Y-77652252D01*
X129881052Y-77718948D01*
X129981550Y-77801425D01*
X130096207Y-77862710D01*
X130220617Y-77900450D01*
X130350000Y-77913193D01*
X130382419Y-77910000D01*
X135317581Y-77910000D01*
X135350000Y-77913193D01*
X135382419Y-77910000D01*
X135479383Y-77900450D01*
X135603793Y-77862710D01*
X135718450Y-77801425D01*
X135818948Y-77718948D01*
X135901425Y-77618450D01*
X135962710Y-77503793D01*
X136000450Y-77379383D01*
X136013193Y-77250000D01*
X136010000Y-77217581D01*
X136010000Y-76350475D01*
X138205000Y-76350475D01*
X138205000Y-76869525D01*
X138306261Y-77378601D01*
X138504893Y-77858141D01*
X138793262Y-78289715D01*
X139160285Y-78656738D01*
X139591859Y-78945107D01*
X140071399Y-79143739D01*
X140580475Y-79245000D01*
X141099525Y-79245000D01*
X141608601Y-79143739D01*
X142088141Y-78945107D01*
X142519715Y-78656738D01*
X142886738Y-78289715D01*
X143175107Y-77858141D01*
X143306167Y-77541734D01*
X143380013Y-77652252D01*
X143607748Y-77879987D01*
X143875537Y-78058918D01*
X144173088Y-78182168D01*
X144488967Y-78245000D01*
X144811033Y-78245000D01*
X145126912Y-78182168D01*
X145424463Y-78058918D01*
X145692252Y-77879987D01*
X145919987Y-77652252D01*
X145920000Y-77652233D01*
X145920013Y-77652252D01*
X146147748Y-77879987D01*
X146415537Y-78058918D01*
X146713088Y-78182168D01*
X147028967Y-78245000D01*
X147351033Y-78245000D01*
X147666912Y-78182168D01*
X147964463Y-78058918D01*
X148232252Y-77879987D01*
X148459987Y-77652252D01*
X148460000Y-77652233D01*
X148460013Y-77652252D01*
X148687748Y-77879987D01*
X148955537Y-78058918D01*
X149253088Y-78182168D01*
X149568967Y-78245000D01*
X149891033Y-78245000D01*
X150206912Y-78182168D01*
X150504463Y-78058918D01*
X150772252Y-77879987D01*
X150999987Y-77652252D01*
X151000000Y-77652233D01*
X151000013Y-77652252D01*
X151227748Y-77879987D01*
X151495537Y-78058918D01*
X151793088Y-78182168D01*
X152108967Y-78245000D01*
X152431033Y-78245000D01*
X152746912Y-78182168D01*
X153044463Y-78058918D01*
X153312252Y-77879987D01*
X153539987Y-77652252D01*
X153540000Y-77652233D01*
X153540013Y-77652252D01*
X153767748Y-77879987D01*
X154035537Y-78058918D01*
X154333088Y-78182168D01*
X154648967Y-78245000D01*
X154971033Y-78245000D01*
X155286912Y-78182168D01*
X155584463Y-78058918D01*
X155852252Y-77879987D01*
X156079987Y-77652252D01*
X156080000Y-77652233D01*
X156080013Y-77652252D01*
X156307748Y-77879987D01*
X156575537Y-78058918D01*
X156873088Y-78182168D01*
X157188967Y-78245000D01*
X157511033Y-78245000D01*
X157826912Y-78182168D01*
X158124463Y-78058918D01*
X158392252Y-77879987D01*
X158619987Y-77652252D01*
X158693833Y-77541734D01*
X158824893Y-77858141D01*
X159113262Y-78289715D01*
X159480285Y-78656738D01*
X159911859Y-78945107D01*
X160391399Y-79143739D01*
X160900475Y-79245000D01*
X161419525Y-79245000D01*
X161928601Y-79143739D01*
X162408141Y-78945107D01*
X162839715Y-78656738D01*
X163206738Y-78289715D01*
X163495107Y-77858141D01*
X163693739Y-77378601D01*
X163795000Y-76869525D01*
X163795000Y-76350475D01*
X163693739Y-75841399D01*
X163495107Y-75361859D01*
X163206738Y-74930285D01*
X162839715Y-74563262D01*
X162408141Y-74274893D01*
X161928601Y-74076261D01*
X161419525Y-73975000D01*
X160900475Y-73975000D01*
X160391399Y-74076261D01*
X159911859Y-74274893D01*
X159480285Y-74563262D01*
X159113262Y-74930285D01*
X158824893Y-75361859D01*
X158693833Y-75678266D01*
X158619987Y-75567748D01*
X158392252Y-75340013D01*
X158124463Y-75161082D01*
X157826912Y-75037832D01*
X157511033Y-74975000D01*
X157188967Y-74975000D01*
X156873088Y-75037832D01*
X156575537Y-75161082D01*
X156307748Y-75340013D01*
X156080013Y-75567748D01*
X156080000Y-75567767D01*
X156079987Y-75567748D01*
X155852252Y-75340013D01*
X155584463Y-75161082D01*
X155286912Y-75037832D01*
X154971033Y-74975000D01*
X154648967Y-74975000D01*
X154333088Y-75037832D01*
X154035537Y-75161082D01*
X153767748Y-75340013D01*
X153540013Y-75567748D01*
X153540000Y-75567767D01*
X153539987Y-75567748D01*
X153312252Y-75340013D01*
X153044463Y-75161082D01*
X152746912Y-75037832D01*
X152431033Y-74975000D01*
X152108967Y-74975000D01*
X151793088Y-75037832D01*
X151495537Y-75161082D01*
X151227748Y-75340013D01*
X151000013Y-75567748D01*
X151000000Y-75567767D01*
X150999987Y-75567748D01*
X150772252Y-75340013D01*
X150504463Y-75161082D01*
X150206912Y-75037832D01*
X149891033Y-74975000D01*
X149568967Y-74975000D01*
X149253088Y-75037832D01*
X148955537Y-75161082D01*
X148687748Y-75340013D01*
X148460013Y-75567748D01*
X148460000Y-75567767D01*
X148459987Y-75567748D01*
X148232252Y-75340013D01*
X147964463Y-75161082D01*
X147666912Y-75037832D01*
X147351033Y-74975000D01*
X147028967Y-74975000D01*
X146713088Y-75037832D01*
X146415537Y-75161082D01*
X146147748Y-75340013D01*
X145920013Y-75567748D01*
X145920000Y-75567767D01*
X145919987Y-75567748D01*
X145692252Y-75340013D01*
X145424463Y-75161082D01*
X145126912Y-75037832D01*
X144811033Y-74975000D01*
X144488967Y-74975000D01*
X144173088Y-75037832D01*
X143875537Y-75161082D01*
X143607748Y-75340013D01*
X143380013Y-75567748D01*
X143306167Y-75678266D01*
X143175107Y-75361859D01*
X142886738Y-74930285D01*
X142519715Y-74563262D01*
X142088141Y-74274893D01*
X141608601Y-74076261D01*
X141099525Y-73975000D01*
X140580475Y-73975000D01*
X140071399Y-74076261D01*
X139591859Y-74274893D01*
X139160285Y-74563262D01*
X138793262Y-74930285D01*
X138504893Y-75361859D01*
X138306261Y-75841399D01*
X138205000Y-76350475D01*
X136010000Y-76350475D01*
X136010000Y-69282419D01*
X136013193Y-69250000D01*
X136000450Y-69120617D01*
X135962710Y-68996207D01*
X135901425Y-68881550D01*
X135818948Y-68781052D01*
X135718450Y-68698575D01*
X135603793Y-68637290D01*
X135479383Y-68599550D01*
X135382419Y-68590000D01*
X135350000Y-68586807D01*
X135317581Y-68590000D01*
X130382419Y-68590000D01*
X130350000Y-68586807D01*
X130317581Y-68590000D01*
X130220617Y-68599550D01*
X130096207Y-68637290D01*
X129981550Y-68698575D01*
X129881052Y-68781052D01*
X129798575Y-68881550D01*
X129737290Y-68996207D01*
X129699550Y-69120617D01*
X129686807Y-69250000D01*
X122882239Y-69250000D01*
X122919987Y-69212252D01*
X123098918Y-68944463D01*
X123222168Y-68646912D01*
X123285000Y-68331033D01*
X123285000Y-68008967D01*
X123222168Y-67693088D01*
X123098918Y-67395537D01*
X122919987Y-67127748D01*
X122692252Y-66900013D01*
X122692233Y-66900000D01*
X122692252Y-66899987D01*
X122919987Y-66672252D01*
X123098918Y-66404463D01*
X123222168Y-66106912D01*
X123285000Y-65791033D01*
X123285000Y-65468967D01*
X123222168Y-65153088D01*
X123098918Y-64855537D01*
X122919987Y-64587748D01*
X122692252Y-64360013D01*
X122692233Y-64360000D01*
X122692252Y-64359987D01*
X122919987Y-64132252D01*
X123098918Y-63864463D01*
X123222168Y-63566912D01*
X123285000Y-63251033D01*
X123285000Y-62928967D01*
X123265409Y-62830475D01*
X131715000Y-62830475D01*
X131715000Y-63349525D01*
X131816261Y-63858601D01*
X132014893Y-64338141D01*
X132303262Y-64769715D01*
X132670285Y-65136738D01*
X133101859Y-65425107D01*
X133581399Y-65623739D01*
X134090475Y-65725000D01*
X134609525Y-65725000D01*
X135118601Y-65623739D01*
X135598141Y-65425107D01*
X136029715Y-65136738D01*
X136396738Y-64769715D01*
X136685107Y-64338141D01*
X136883739Y-63858601D01*
X136985000Y-63349525D01*
X136985000Y-62830475D01*
X136883739Y-62321399D01*
X136685107Y-61841859D01*
X136396738Y-61410285D01*
X136029715Y-61043262D01*
X135598141Y-60754893D01*
X135118601Y-60556261D01*
X134609525Y-60455000D01*
X134090475Y-60455000D01*
X133581399Y-60556261D01*
X133101859Y-60754893D01*
X132670285Y-61043262D01*
X132303262Y-61410285D01*
X132014893Y-61841859D01*
X131816261Y-62321399D01*
X131715000Y-62830475D01*
X123265409Y-62830475D01*
X123222168Y-62613088D01*
X123098918Y-62315537D01*
X122919987Y-62047748D01*
X122692252Y-61820013D01*
X122424463Y-61641082D01*
X122126912Y-61517832D01*
X121811033Y-61455000D01*
X121488967Y-61455000D01*
X121173088Y-61517832D01*
X120875537Y-61641082D01*
X120607748Y-61820013D01*
X120380013Y-62047748D01*
X120201082Y-62315537D01*
X120077832Y-62613088D01*
X120015000Y-62928967D01*
X116891000Y-62928967D01*
X116891000Y-54250061D01*
X155995000Y-54250061D01*
X155995000Y-54453939D01*
X156034774Y-54653898D01*
X156112795Y-54842256D01*
X156226063Y-55011774D01*
X156370226Y-55155937D01*
X156539744Y-55269205D01*
X156728102Y-55347226D01*
X156928061Y-55387000D01*
X157131939Y-55387000D01*
X157331898Y-55347226D01*
X157520256Y-55269205D01*
X157689774Y-55155937D01*
X157833937Y-55011774D01*
X157947205Y-54842256D01*
X158025226Y-54653898D01*
X158065000Y-54453939D01*
X158065000Y-54250061D01*
X161075000Y-54250061D01*
X161075000Y-54453939D01*
X161114774Y-54653898D01*
X161192795Y-54842256D01*
X161306063Y-55011774D01*
X161450226Y-55155937D01*
X161619744Y-55269205D01*
X161808102Y-55347226D01*
X162008061Y-55387000D01*
X162211939Y-55387000D01*
X162411898Y-55347226D01*
X162600256Y-55269205D01*
X162769774Y-55155937D01*
X162913937Y-55011774D01*
X163027205Y-54842256D01*
X163105226Y-54653898D01*
X163145000Y-54453939D01*
X163145000Y-54250061D01*
X163105226Y-54050102D01*
X163027205Y-53861744D01*
X162913937Y-53692226D01*
X162769774Y-53548063D01*
X162600256Y-53434795D01*
X162411898Y-53356774D01*
X162211939Y-53317000D01*
X162008061Y-53317000D01*
X161808102Y-53356774D01*
X161619744Y-53434795D01*
X161450226Y-53548063D01*
X161306063Y-53692226D01*
X161192795Y-53861744D01*
X161114774Y-54050102D01*
X161075000Y-54250061D01*
X158065000Y-54250061D01*
X158025226Y-54050102D01*
X157947205Y-53861744D01*
X157833937Y-53692226D01*
X157689774Y-53548063D01*
X157520256Y-53434795D01*
X157331898Y-53356774D01*
X157131939Y-53317000D01*
X156928061Y-53317000D01*
X156728102Y-53356774D01*
X156539744Y-53434795D01*
X156370226Y-53548063D01*
X156226063Y-53692226D01*
X156112795Y-53861744D01*
X156034774Y-54050102D01*
X155995000Y-54250061D01*
X116891000Y-54250061D01*
X116891000Y-52952328D01*
X117017302Y-52900012D01*
X117366983Y-52666363D01*
X117664363Y-52368983D01*
X117898012Y-52019302D01*
X118058953Y-51630756D01*
X118141000Y-51218279D01*
X118141000Y-50797721D01*
X118139409Y-50789721D01*
X127865000Y-50789721D01*
X127865000Y-51210279D01*
X127947047Y-51622756D01*
X128107988Y-52011302D01*
X128341637Y-52360983D01*
X128639017Y-52658363D01*
X128988698Y-52892012D01*
X129377244Y-53052953D01*
X129789721Y-53135000D01*
X130210279Y-53135000D01*
X130622756Y-53052953D01*
X131011302Y-52892012D01*
X131360983Y-52658363D01*
X131658363Y-52360983D01*
X131892012Y-52011302D01*
X132052953Y-51622756D01*
X132135000Y-51210279D01*
X132135000Y-50789721D01*
X136865000Y-50789721D01*
X136865000Y-51210279D01*
X136947047Y-51622756D01*
X137107988Y-52011302D01*
X137341637Y-52360983D01*
X137639017Y-52658363D01*
X137988698Y-52892012D01*
X138377244Y-53052953D01*
X138789721Y-53135000D01*
X139210279Y-53135000D01*
X139622756Y-53052953D01*
X140011302Y-52892012D01*
X140360983Y-52658363D01*
X140658363Y-52360983D01*
X140892012Y-52011302D01*
X140944328Y-51885000D01*
X161383422Y-51885000D01*
X168115000Y-58616579D01*
X168115001Y-117305672D01*
X167988698Y-117357988D01*
X167639017Y-117591637D01*
X167341637Y-117889017D01*
X167107988Y-118238698D01*
X166947047Y-118627244D01*
X166865000Y-119039721D01*
X166865000Y-119460279D01*
X166947047Y-119872756D01*
X167107988Y-120261302D01*
X167341637Y-120610983D01*
X167639017Y-120908363D01*
X167988698Y-121142012D01*
X168377244Y-121302953D01*
X168789721Y-121385000D01*
X169210279Y-121385000D01*
X169622756Y-121302953D01*
X170011302Y-121142012D01*
X170360983Y-120908363D01*
X170605693Y-120663653D01*
X181639952Y-120663653D01*
X181795962Y-120979214D01*
X182170745Y-121170020D01*
X182575551Y-121284044D01*
X182994824Y-121316902D01*
X183412451Y-121267334D01*
X183812383Y-121137243D01*
X184108038Y-120979214D01*
X184264048Y-120663653D01*
X182952000Y-119351605D01*
X181639952Y-120663653D01*
X170605693Y-120663653D01*
X170658363Y-120610983D01*
X170892012Y-120261302D01*
X171052953Y-119872756D01*
X171135000Y-119460279D01*
X171135000Y-119214824D01*
X180807098Y-119214824D01*
X180856666Y-119632451D01*
X180986757Y-120032383D01*
X181144786Y-120328038D01*
X181460347Y-120484048D01*
X182772395Y-119172000D01*
X183131605Y-119172000D01*
X184443653Y-120484048D01*
X184759214Y-120328038D01*
X184950020Y-119953255D01*
X185064044Y-119548449D01*
X185096902Y-119129176D01*
X185047334Y-118711549D01*
X184917243Y-118311617D01*
X184759214Y-118015962D01*
X184443653Y-117859952D01*
X183131605Y-119172000D01*
X182772395Y-119172000D01*
X181460347Y-117859952D01*
X181144786Y-118015962D01*
X180953980Y-118390745D01*
X180839956Y-118795551D01*
X180807098Y-119214824D01*
X171135000Y-119214824D01*
X171135000Y-119039721D01*
X171052953Y-118627244D01*
X170892012Y-118238698D01*
X170658363Y-117889017D01*
X170449693Y-117680347D01*
X181639952Y-117680347D01*
X182952000Y-118992395D01*
X184264048Y-117680347D01*
X184108038Y-117364786D01*
X183733255Y-117173980D01*
X183328449Y-117059956D01*
X182909176Y-117027098D01*
X182491549Y-117076666D01*
X182091617Y-117206757D01*
X181795962Y-117364786D01*
X181639952Y-117680347D01*
X170449693Y-117680347D01*
X170360983Y-117591637D01*
X170011302Y-117357988D01*
X169885000Y-117305672D01*
X169885000Y-84801389D01*
X186483466Y-84801389D01*
X186483466Y-85198611D01*
X186560960Y-85588201D01*
X186712971Y-85955187D01*
X186933656Y-86285465D01*
X187214535Y-86566344D01*
X187544813Y-86787029D01*
X187911799Y-86939040D01*
X188301389Y-87016534D01*
X188698611Y-87016534D01*
X189088201Y-86939040D01*
X189455187Y-86787029D01*
X189785465Y-86566344D01*
X190066344Y-86285465D01*
X190287029Y-85955187D01*
X190439040Y-85588201D01*
X190516534Y-85198611D01*
X190516534Y-84801389D01*
X190439040Y-84411799D01*
X190287029Y-84044813D01*
X190066344Y-83714535D01*
X189785465Y-83433656D01*
X189455187Y-83212971D01*
X189088201Y-83060960D01*
X188698611Y-82983466D01*
X188301389Y-82983466D01*
X187911799Y-83060960D01*
X187544813Y-83212971D01*
X187214535Y-83433656D01*
X186933656Y-83714535D01*
X186712971Y-84044813D01*
X186560960Y-84411799D01*
X186483466Y-84801389D01*
X169885000Y-84801389D01*
X169885000Y-58293465D01*
X169889281Y-58249999D01*
X169885000Y-58206533D01*
X169885000Y-58206523D01*
X169872195Y-58076510D01*
X169821589Y-57909687D01*
X169739411Y-57755941D01*
X169628817Y-57621183D01*
X169595051Y-57593472D01*
X162799300Y-50797721D01*
X180817000Y-50797721D01*
X180817000Y-51218279D01*
X180899047Y-51630756D01*
X181059988Y-52019302D01*
X181293637Y-52368983D01*
X181591017Y-52666363D01*
X181940698Y-52900012D01*
X182329244Y-53060953D01*
X182741721Y-53143000D01*
X183162279Y-53143000D01*
X183574756Y-53060953D01*
X183963302Y-52900012D01*
X184312983Y-52666363D01*
X184610363Y-52368983D01*
X184844012Y-52019302D01*
X185004953Y-51630756D01*
X185087000Y-51218279D01*
X185087000Y-50797721D01*
X189817000Y-50797721D01*
X189817000Y-51218279D01*
X189899047Y-51630756D01*
X190059988Y-52019302D01*
X190293637Y-52368983D01*
X190591017Y-52666363D01*
X190940698Y-52900012D01*
X191067000Y-52952328D01*
X191067001Y-117227672D01*
X190940698Y-117279988D01*
X190591017Y-117513637D01*
X190293637Y-117811017D01*
X190059988Y-118160698D01*
X189899047Y-118549244D01*
X189817000Y-118961721D01*
X189817000Y-119382279D01*
X189899047Y-119794756D01*
X190059988Y-120183302D01*
X190293637Y-120532983D01*
X190591017Y-120830363D01*
X190940698Y-121064012D01*
X191329244Y-121224953D01*
X191741721Y-121307000D01*
X192162279Y-121307000D01*
X192574756Y-121224953D01*
X192963302Y-121064012D01*
X193312983Y-120830363D01*
X193610363Y-120532983D01*
X193844012Y-120183302D01*
X194004953Y-119794756D01*
X194087000Y-119382279D01*
X194087000Y-118961721D01*
X194004953Y-118549244D01*
X193844012Y-118160698D01*
X193610363Y-117811017D01*
X193312983Y-117513637D01*
X192963302Y-117279988D01*
X192837000Y-117227672D01*
X192837000Y-52952328D01*
X192963302Y-52900012D01*
X193312983Y-52666363D01*
X193610363Y-52368983D01*
X193844012Y-52019302D01*
X194004953Y-51630756D01*
X194087000Y-51218279D01*
X194087000Y-50797721D01*
X194004953Y-50385244D01*
X193844012Y-49996698D01*
X193610363Y-49647017D01*
X193312983Y-49349637D01*
X192963302Y-49115988D01*
X192574756Y-48955047D01*
X192162279Y-48873000D01*
X191741721Y-48873000D01*
X191329244Y-48955047D01*
X190940698Y-49115988D01*
X190591017Y-49349637D01*
X190293637Y-49647017D01*
X190059988Y-49996698D01*
X189899047Y-50385244D01*
X189817000Y-50797721D01*
X185087000Y-50797721D01*
X185004953Y-50385244D01*
X184844012Y-49996698D01*
X184610363Y-49647017D01*
X184312983Y-49349637D01*
X183963302Y-49115988D01*
X183574756Y-48955047D01*
X183162279Y-48873000D01*
X182741721Y-48873000D01*
X182329244Y-48955047D01*
X181940698Y-49115988D01*
X181591017Y-49349637D01*
X181293637Y-49647017D01*
X181059988Y-49996698D01*
X180899047Y-50385244D01*
X180817000Y-50797721D01*
X162799300Y-50797721D01*
X162406534Y-50404956D01*
X162378817Y-50371183D01*
X162244059Y-50260589D01*
X162090313Y-50178411D01*
X161923490Y-50127805D01*
X161793477Y-50115000D01*
X161793469Y-50115000D01*
X161750000Y-50110719D01*
X161706531Y-50115000D01*
X140944328Y-50115000D01*
X140892012Y-49988698D01*
X140658363Y-49639017D01*
X140360983Y-49341637D01*
X140011302Y-49107988D01*
X139622756Y-48947047D01*
X139210279Y-48865000D01*
X138789721Y-48865000D01*
X138377244Y-48947047D01*
X137988698Y-49107988D01*
X137639017Y-49341637D01*
X137341637Y-49639017D01*
X137107988Y-49988698D01*
X136947047Y-50377244D01*
X136865000Y-50789721D01*
X132135000Y-50789721D01*
X132052953Y-50377244D01*
X131892012Y-49988698D01*
X131658363Y-49639017D01*
X131360983Y-49341637D01*
X131011302Y-49107988D01*
X130622756Y-48947047D01*
X130210279Y-48865000D01*
X129789721Y-48865000D01*
X129377244Y-48947047D01*
X128988698Y-49107988D01*
X128639017Y-49341637D01*
X128341637Y-49639017D01*
X128107988Y-49988698D01*
X127947047Y-50377244D01*
X127865000Y-50789721D01*
X118139409Y-50789721D01*
X118058953Y-50385244D01*
X117898012Y-49996698D01*
X117664363Y-49647017D01*
X117366983Y-49349637D01*
X117017302Y-49115988D01*
X116628756Y-48955047D01*
X116216279Y-48873000D01*
X115795721Y-48873000D01*
X115383244Y-48955047D01*
X114994698Y-49115988D01*
X114645017Y-49349637D01*
X114347637Y-49647017D01*
X114113988Y-49996698D01*
X113953047Y-50385244D01*
X113871000Y-50797721D01*
X109141000Y-50797721D01*
X109058953Y-50385244D01*
X108898012Y-49996698D01*
X108664363Y-49647017D01*
X108366983Y-49349637D01*
X108017302Y-49115988D01*
X107628756Y-48955047D01*
X107216279Y-48873000D01*
X106795721Y-48873000D01*
X106383244Y-48955047D01*
X105994698Y-49115988D01*
X105645017Y-49349637D01*
X105347637Y-49647017D01*
X105113988Y-49996698D01*
X104953047Y-50385244D01*
X104871000Y-50797721D01*
X100160000Y-50797721D01*
X100160000Y-46160000D01*
X109967581Y-46160000D01*
X110000000Y-46163193D01*
X110032419Y-46160000D01*
X110129383Y-46150450D01*
X110253793Y-46112710D01*
X110368450Y-46051425D01*
X110468948Y-45968948D01*
X110551425Y-45868450D01*
X110587269Y-45801389D01*
X155233466Y-45801389D01*
X155233466Y-46198611D01*
X155310960Y-46588201D01*
X155462971Y-46955187D01*
X155683656Y-47285465D01*
X155964535Y-47566344D01*
X156294813Y-47787029D01*
X156661799Y-47939040D01*
X157051389Y-48016534D01*
X157448611Y-48016534D01*
X157838201Y-47939040D01*
X158205187Y-47787029D01*
X158535465Y-47566344D01*
X158816344Y-47285465D01*
X159037029Y-46955187D01*
X159189040Y-46588201D01*
X159266534Y-46198611D01*
X159266534Y-45801389D01*
X159189040Y-45411799D01*
X159037029Y-45044813D01*
X158816344Y-44714535D01*
X158535465Y-44433656D01*
X158205187Y-44212971D01*
X157838201Y-44060960D01*
X157448611Y-43983466D01*
X157051389Y-43983466D01*
X156661799Y-44060960D01*
X156294813Y-44212971D01*
X155964535Y-44433656D01*
X155683656Y-44714535D01*
X155462971Y-45044813D01*
X155310960Y-45411799D01*
X155233466Y-45801389D01*
X110587269Y-45801389D01*
X110612710Y-45753793D01*
X110650450Y-45629383D01*
X110663193Y-45500000D01*
X110660000Y-45467581D01*
X110660000Y-35660000D01*
X188340000Y-35660000D01*
X188340001Y-45467571D01*
%TA.AperFunction,Conductor*%
D19*
G36*
X188340001Y-45467571D02*
G01*
X188336807Y-45500000D01*
X188349550Y-45629383D01*
X188387290Y-45753793D01*
X188448575Y-45868450D01*
X188531052Y-45968948D01*
X188631550Y-46051425D01*
X188746207Y-46112710D01*
X188870617Y-46150450D01*
X188967581Y-46160000D01*
X189000000Y-46163193D01*
X189032419Y-46160000D01*
X198840000Y-46160000D01*
X198840001Y-123840000D01*
X189032419Y-123840000D01*
X189000000Y-123836807D01*
X188967581Y-123840000D01*
X188870617Y-123849550D01*
X188746207Y-123887290D01*
X188631550Y-123948575D01*
X188531052Y-124031052D01*
X188448575Y-124131550D01*
X188387290Y-124246207D01*
X188349550Y-124370617D01*
X188336807Y-124500000D01*
X188340000Y-124532418D01*
X188340001Y-134340000D01*
X110660000Y-134340000D01*
X110660000Y-124532418D01*
X110663193Y-124500000D01*
X110650450Y-124370617D01*
X110612710Y-124246207D01*
X110551425Y-124131550D01*
X110468948Y-124031052D01*
X110368450Y-123948575D01*
X110253793Y-123887290D01*
X110129383Y-123849550D01*
X110032419Y-123840000D01*
X110000000Y-123836807D01*
X109967581Y-123840000D01*
X100160000Y-123840000D01*
X100160000Y-123801389D01*
X139733466Y-123801389D01*
X139733466Y-124198611D01*
X139810960Y-124588201D01*
X139962971Y-124955187D01*
X140183656Y-125285465D01*
X140464535Y-125566344D01*
X140794813Y-125787029D01*
X141161799Y-125939040D01*
X141551389Y-126016534D01*
X141948611Y-126016534D01*
X142338201Y-125939040D01*
X142705187Y-125787029D01*
X143035465Y-125566344D01*
X143316344Y-125285465D01*
X143537029Y-124955187D01*
X143689040Y-124588201D01*
X143766534Y-124198611D01*
X143766534Y-123801389D01*
X143689040Y-123411799D01*
X143537029Y-123044813D01*
X143316344Y-122714535D01*
X143035465Y-122433656D01*
X142705187Y-122212971D01*
X142338201Y-122060960D01*
X141948611Y-121983466D01*
X141551389Y-121983466D01*
X141161799Y-122060960D01*
X140794813Y-122212971D01*
X140464535Y-122433656D01*
X140183656Y-122714535D01*
X139962971Y-123044813D01*
X139810960Y-123411799D01*
X139733466Y-123801389D01*
X100160000Y-123801389D01*
X100160000Y-120741653D01*
X105693952Y-120741653D01*
X105849962Y-121057214D01*
X106224745Y-121248020D01*
X106629551Y-121362044D01*
X107048824Y-121394902D01*
X107466451Y-121345334D01*
X107866383Y-121215243D01*
X108162038Y-121057214D01*
X108318048Y-120741653D01*
X107006000Y-119429605D01*
X105693952Y-120741653D01*
X100160000Y-120741653D01*
X100160000Y-119292824D01*
X104861098Y-119292824D01*
X104910666Y-119710451D01*
X105040757Y-120110383D01*
X105198786Y-120406038D01*
X105514347Y-120562048D01*
X106826395Y-119250000D01*
X107185605Y-119250000D01*
X108497653Y-120562048D01*
X108813214Y-120406038D01*
X109004020Y-120031255D01*
X109118044Y-119626449D01*
X109150902Y-119207176D01*
X109101334Y-118789549D01*
X108971243Y-118389617D01*
X108813214Y-118093962D01*
X108497653Y-117937952D01*
X107185605Y-119250000D01*
X106826395Y-119250000D01*
X105514347Y-117937952D01*
X105198786Y-118093962D01*
X105007980Y-118468745D01*
X104893956Y-118873551D01*
X104861098Y-119292824D01*
X100160000Y-119292824D01*
X100160000Y-117758347D01*
X105693952Y-117758347D01*
X107006000Y-119070395D01*
X108318048Y-117758347D01*
X108162038Y-117442786D01*
X107787255Y-117251980D01*
X107382449Y-117137956D01*
X106963176Y-117105098D01*
X106545549Y-117154666D01*
X106145617Y-117284757D01*
X105849962Y-117442786D01*
X105693952Y-117758347D01*
X100160000Y-117758347D01*
X100160000Y-84801389D01*
X108483466Y-84801389D01*
X108483466Y-85198611D01*
X108560960Y-85588201D01*
X108712971Y-85955187D01*
X108933656Y-86285465D01*
X109214535Y-86566344D01*
X109544813Y-86787029D01*
X109911799Y-86939040D01*
X110301389Y-87016534D01*
X110698611Y-87016534D01*
X111088201Y-86939040D01*
X111455187Y-86787029D01*
X111785465Y-86566344D01*
X112066344Y-86285465D01*
X112287029Y-85955187D01*
X112439040Y-85588201D01*
X112516534Y-85198611D01*
X112516534Y-84801389D01*
X112439040Y-84411799D01*
X112287029Y-84044813D01*
X112066344Y-83714535D01*
X111785465Y-83433656D01*
X111455187Y-83212971D01*
X111088201Y-83060960D01*
X110698611Y-82983466D01*
X110301389Y-82983466D01*
X109911799Y-83060960D01*
X109544813Y-83212971D01*
X109214535Y-83433656D01*
X108933656Y-83714535D01*
X108712971Y-84044813D01*
X108560960Y-84411799D01*
X108483466Y-84801389D01*
X100160000Y-84801389D01*
X100160000Y-50797721D01*
X104871000Y-50797721D01*
X104871000Y-51218279D01*
X104953047Y-51630756D01*
X105113988Y-52019302D01*
X105347637Y-52368983D01*
X105645017Y-52666363D01*
X105994698Y-52900012D01*
X106383244Y-53060953D01*
X106795721Y-53143000D01*
X107216279Y-53143000D01*
X107628756Y-53060953D01*
X108017302Y-52900012D01*
X108366983Y-52666363D01*
X108664363Y-52368983D01*
X108898012Y-52019302D01*
X109058953Y-51630756D01*
X109141000Y-51218279D01*
X109141000Y-50797721D01*
X113871000Y-50797721D01*
X113871000Y-51218279D01*
X113953047Y-51630756D01*
X114113988Y-52019302D01*
X114347637Y-52368983D01*
X114645017Y-52666363D01*
X114994698Y-52900012D01*
X115121000Y-52952328D01*
X115121001Y-117305672D01*
X114994698Y-117357988D01*
X114645017Y-117591637D01*
X114347637Y-117889017D01*
X114113988Y-118238698D01*
X113953047Y-118627244D01*
X113871000Y-119039721D01*
X113871000Y-119460279D01*
X113953047Y-119872756D01*
X114113988Y-120261302D01*
X114347637Y-120610983D01*
X114645017Y-120908363D01*
X114994698Y-121142012D01*
X115383244Y-121302953D01*
X115795721Y-121385000D01*
X116216279Y-121385000D01*
X116628756Y-121302953D01*
X117017302Y-121142012D01*
X117366983Y-120908363D01*
X117533693Y-120741653D01*
X158687952Y-120741653D01*
X158843962Y-121057214D01*
X159218745Y-121248020D01*
X159623551Y-121362044D01*
X160042824Y-121394902D01*
X160460451Y-121345334D01*
X160860383Y-121215243D01*
X161156038Y-121057214D01*
X161312048Y-120741653D01*
X160000000Y-119429605D01*
X158687952Y-120741653D01*
X117533693Y-120741653D01*
X117664363Y-120610983D01*
X117898012Y-120261302D01*
X118058953Y-119872756D01*
X118141000Y-119460279D01*
X118141000Y-119292824D01*
X157855098Y-119292824D01*
X157904666Y-119710451D01*
X158034757Y-120110383D01*
X158192786Y-120406038D01*
X158508347Y-120562048D01*
X159820395Y-119250000D01*
X160179605Y-119250000D01*
X161491653Y-120562048D01*
X161807214Y-120406038D01*
X161998020Y-120031255D01*
X162112044Y-119626449D01*
X162144902Y-119207176D01*
X162095334Y-118789549D01*
X161965243Y-118389617D01*
X161807214Y-118093962D01*
X161491653Y-117937952D01*
X160179605Y-119250000D01*
X159820395Y-119250000D01*
X158508347Y-117937952D01*
X158192786Y-118093962D01*
X158001980Y-118468745D01*
X157887956Y-118873551D01*
X157855098Y-119292824D01*
X118141000Y-119292824D01*
X118141000Y-119039721D01*
X118058953Y-118627244D01*
X117898012Y-118238698D01*
X117664363Y-117889017D01*
X117533693Y-117758347D01*
X158687952Y-117758347D01*
X160000000Y-119070395D01*
X161312048Y-117758347D01*
X161156038Y-117442786D01*
X160781255Y-117251980D01*
X160376449Y-117137956D01*
X159957176Y-117105098D01*
X159539549Y-117154666D01*
X159139617Y-117284757D01*
X158843962Y-117442786D01*
X158687952Y-117758347D01*
X117533693Y-117758347D01*
X117366983Y-117591637D01*
X117017302Y-117357988D01*
X116891000Y-117305672D01*
X116891000Y-104040000D01*
X131881929Y-104040000D01*
X131881929Y-105840000D01*
X131894189Y-105964482D01*
X131930499Y-106084180D01*
X131989464Y-106194494D01*
X132068816Y-106291185D01*
X132165507Y-106370537D01*
X132275821Y-106429502D01*
X132395519Y-106465812D01*
X132520001Y-106478072D01*
X133770001Y-106478072D01*
X133894483Y-106465812D01*
X134014181Y-106429502D01*
X134124495Y-106370537D01*
X134221186Y-106291185D01*
X134300538Y-106194494D01*
X134359503Y-106084180D01*
X134395813Y-105964482D01*
X134408073Y-105840000D01*
X134408073Y-104040000D01*
X143091927Y-104040000D01*
X143091927Y-105840000D01*
X143104187Y-105964482D01*
X143140497Y-106084180D01*
X143199462Y-106194494D01*
X143278814Y-106291185D01*
X143375505Y-106370537D01*
X143485819Y-106429502D01*
X143605517Y-106465812D01*
X143729999Y-106478072D01*
X144979999Y-106478072D01*
X145104481Y-106465812D01*
X145224179Y-106429502D01*
X145334493Y-106370537D01*
X145431184Y-106291185D01*
X145510536Y-106194494D01*
X145569501Y-106084180D01*
X145605811Y-105964482D01*
X145618071Y-105840000D01*
X145618071Y-104040000D01*
X145605811Y-103915518D01*
X145569501Y-103795820D01*
X145510536Y-103685506D01*
X145431184Y-103588815D01*
X145334493Y-103509463D01*
X145224179Y-103450498D01*
X145104481Y-103414188D01*
X144979999Y-103401928D01*
X143729999Y-103401928D01*
X143605517Y-103414188D01*
X143485819Y-103450498D01*
X143375505Y-103509463D01*
X143278814Y-103588815D01*
X143199462Y-103685506D01*
X143140497Y-103795820D01*
X143104187Y-103915518D01*
X143091927Y-104040000D01*
X134408073Y-104040000D01*
X134395813Y-103915518D01*
X134359503Y-103795820D01*
X134300538Y-103685506D01*
X134221186Y-103588815D01*
X134124495Y-103509463D01*
X134014181Y-103450498D01*
X133894483Y-103414188D01*
X133770001Y-103401928D01*
X132520001Y-103401928D01*
X132395519Y-103414188D01*
X132275821Y-103450498D01*
X132165507Y-103509463D01*
X132068816Y-103588815D01*
X131989464Y-103685506D01*
X131930499Y-103795820D01*
X131894189Y-103915518D01*
X131881929Y-104040000D01*
X116891000Y-104040000D01*
X116891000Y-93680061D01*
X126889000Y-93680061D01*
X126889000Y-93883939D01*
X126928774Y-94083898D01*
X127006795Y-94272256D01*
X127120063Y-94441774D01*
X127264226Y-94585937D01*
X127433744Y-94699205D01*
X127622102Y-94777226D01*
X127822061Y-94817000D01*
X128025939Y-94817000D01*
X128225898Y-94777226D01*
X128414256Y-94699205D01*
X128583774Y-94585937D01*
X128727937Y-94441774D01*
X128841205Y-94272256D01*
X128919226Y-94083898D01*
X128959000Y-93883939D01*
X128959000Y-93680061D01*
X128919226Y-93480102D01*
X128841205Y-93291744D01*
X128727937Y-93122226D01*
X128583774Y-92978063D01*
X128414256Y-92864795D01*
X128225898Y-92786774D01*
X128025939Y-92747000D01*
X127822061Y-92747000D01*
X127622102Y-92786774D01*
X127433744Y-92864795D01*
X127264226Y-92978063D01*
X127120063Y-93122226D01*
X127006795Y-93291744D01*
X126928774Y-93480102D01*
X126889000Y-93680061D01*
X116891000Y-93680061D01*
X116891000Y-83248967D01*
X120015000Y-83248967D01*
X120015000Y-83571033D01*
X120077832Y-83886912D01*
X120201082Y-84184463D01*
X120380013Y-84452252D01*
X120607748Y-84679987D01*
X120875537Y-84858918D01*
X121173088Y-84982168D01*
X121488967Y-85045000D01*
X121811033Y-85045000D01*
X122126912Y-84982168D01*
X122424463Y-84858918D01*
X122692252Y-84679987D01*
X122919987Y-84452252D01*
X123098918Y-84184463D01*
X123104909Y-84170000D01*
X127775199Y-84170000D01*
X135866201Y-92261003D01*
X135889999Y-92290001D01*
X135918997Y-92313799D01*
X136005723Y-92384974D01*
X136137753Y-92455546D01*
X136281014Y-92499003D01*
X136392667Y-92510000D01*
X136392676Y-92510000D01*
X136429999Y-92513676D01*
X136467322Y-92510000D01*
X138993547Y-92510000D01*
X138793262Y-92710285D01*
X138504893Y-93141859D01*
X138306261Y-93621399D01*
X138205000Y-94130475D01*
X138205000Y-94649525D01*
X138306261Y-95158601D01*
X138504893Y-95638141D01*
X138793262Y-96069715D01*
X138963547Y-96240000D01*
X138537321Y-96240000D01*
X138499998Y-96236324D01*
X138462675Y-96240000D01*
X138462666Y-96240000D01*
X138351013Y-96250997D01*
X138207752Y-96294454D01*
X138075723Y-96365026D01*
X137959998Y-96459999D01*
X137936200Y-96488997D01*
X135813270Y-98611928D01*
X135449999Y-98611928D01*
X135325517Y-98624188D01*
X135205819Y-98660498D01*
X135095505Y-98719463D01*
X134998814Y-98798815D01*
X134919462Y-98895506D01*
X134860497Y-99005820D01*
X134824187Y-99125518D01*
X134811927Y-99250000D01*
X134811927Y-100250000D01*
X134824187Y-100374482D01*
X134855095Y-100476370D01*
X134832795Y-100509744D01*
X134754774Y-100698102D01*
X134715000Y-100898061D01*
X134715000Y-101101939D01*
X134754774Y-101301898D01*
X134832795Y-101490256D01*
X134946063Y-101659774D01*
X135090226Y-101803937D01*
X135259744Y-101917205D01*
X135448102Y-101995226D01*
X135648061Y-102035000D01*
X135851939Y-102035000D01*
X136051898Y-101995226D01*
X136240256Y-101917205D01*
X136409774Y-101803937D01*
X136500000Y-101713711D01*
X136590226Y-101803937D01*
X136759744Y-101917205D01*
X136948102Y-101995226D01*
X137148061Y-102035000D01*
X137351939Y-102035000D01*
X137551898Y-101995226D01*
X137740256Y-101917205D01*
X137909774Y-101803937D01*
X138000000Y-101713711D01*
X138090226Y-101803937D01*
X138259744Y-101917205D01*
X138448102Y-101995226D01*
X138648061Y-102035000D01*
X138851939Y-102035000D01*
X139051898Y-101995226D01*
X139240256Y-101917205D01*
X139409774Y-101803937D01*
X139553937Y-101659774D01*
X139667205Y-101490256D01*
X139745226Y-101301898D01*
X139785000Y-101101939D01*
X139785000Y-100898061D01*
X139777688Y-100861303D01*
X139825518Y-100875812D01*
X139950000Y-100888072D01*
X139964250Y-100885000D01*
X140123000Y-100726250D01*
X140123000Y-99877000D01*
X140103000Y-99877000D01*
X140103000Y-99623000D01*
X140123000Y-99623000D01*
X140123000Y-99603000D01*
X140377000Y-99603000D01*
X140377000Y-99623000D01*
X140397000Y-99623000D01*
X140397000Y-99877000D01*
X140377000Y-99877000D01*
X140377000Y-100726250D01*
X140535750Y-100885000D01*
X140550000Y-100888072D01*
X140674482Y-100875812D01*
X140794180Y-100839502D01*
X140904494Y-100780537D01*
X141000000Y-100702158D01*
X141095506Y-100780537D01*
X141205820Y-100839502D01*
X141325518Y-100875812D01*
X141450000Y-100888072D01*
X142050000Y-100888072D01*
X142174482Y-100875812D01*
X142294180Y-100839502D01*
X142404494Y-100780537D01*
X142501185Y-100701185D01*
X142524168Y-100673180D01*
X142698102Y-100745226D01*
X142898061Y-100785000D01*
X143101939Y-100785000D01*
X143301898Y-100745226D01*
X143490256Y-100667205D01*
X143538454Y-100635000D01*
X157211546Y-100635000D01*
X157259744Y-100667205D01*
X157448102Y-100745226D01*
X157648061Y-100785000D01*
X157851939Y-100785000D01*
X158051898Y-100745226D01*
X158240256Y-100667205D01*
X158409774Y-100553937D01*
X158553937Y-100409774D01*
X158667205Y-100240256D01*
X158745226Y-100051898D01*
X158785000Y-99851939D01*
X158785000Y-99648061D01*
X158745226Y-99448102D01*
X158667205Y-99259744D01*
X158553937Y-99090226D01*
X158409774Y-98946063D01*
X158240256Y-98832795D01*
X158051898Y-98754774D01*
X157851939Y-98715000D01*
X157648061Y-98715000D01*
X157448102Y-98754774D01*
X157259744Y-98832795D01*
X157211546Y-98865000D01*
X149493571Y-98865000D01*
X149659774Y-98753947D01*
X149703711Y-98710010D01*
X153752668Y-98710010D01*
X153789990Y-98713686D01*
X153827312Y-98710010D01*
X153827323Y-98710010D01*
X153938976Y-98699013D01*
X154082237Y-98655556D01*
X154214266Y-98584984D01*
X154329991Y-98490011D01*
X154353794Y-98461007D01*
X156858625Y-95956177D01*
X156873088Y-95962168D01*
X157188967Y-96025000D01*
X157511033Y-96025000D01*
X157826912Y-95962168D01*
X158124463Y-95838918D01*
X158392252Y-95659987D01*
X158619987Y-95432252D01*
X158693833Y-95321734D01*
X158824893Y-95638141D01*
X159113262Y-96069715D01*
X159480285Y-96436738D01*
X159911859Y-96725107D01*
X160391399Y-96923739D01*
X160900475Y-97025000D01*
X161419525Y-97025000D01*
X161928601Y-96923739D01*
X162408141Y-96725107D01*
X162839715Y-96436738D01*
X163206738Y-96069715D01*
X163495107Y-95638141D01*
X163693739Y-95158601D01*
X163795000Y-94649525D01*
X163795000Y-94130475D01*
X163693739Y-93621399D01*
X163495107Y-93141859D01*
X163206738Y-92710285D01*
X162839715Y-92343262D01*
X162408141Y-92054893D01*
X161928601Y-91856261D01*
X161419525Y-91755000D01*
X160900475Y-91755000D01*
X160391399Y-91856261D01*
X159911859Y-92054893D01*
X159480285Y-92343262D01*
X159113262Y-92710285D01*
X158824893Y-93141859D01*
X158693833Y-93458266D01*
X158619987Y-93347748D01*
X158392252Y-93120013D01*
X158124463Y-92941082D01*
X157826912Y-92817832D01*
X157511033Y-92755000D01*
X157188967Y-92755000D01*
X156873088Y-92817832D01*
X156575537Y-92941082D01*
X156307748Y-93120013D01*
X156080013Y-93347748D01*
X156080000Y-93347767D01*
X156079987Y-93347748D01*
X155852252Y-93120013D01*
X155584463Y-92941082D01*
X155286912Y-92817832D01*
X154971033Y-92755000D01*
X154648967Y-92755000D01*
X154333088Y-92817832D01*
X154035537Y-92941082D01*
X153767748Y-93120013D01*
X153540013Y-93347748D01*
X153467280Y-93456600D01*
X153405413Y-93434192D01*
X152449605Y-94390000D01*
X153405413Y-95345808D01*
X153467280Y-95323400D01*
X153540013Y-95432252D01*
X153767748Y-95659987D01*
X154035537Y-95838918D01*
X154333088Y-95962168D01*
X154641653Y-96023545D01*
X153475189Y-97190010D01*
X149703711Y-97190010D01*
X149659774Y-97146073D01*
X149490256Y-97032805D01*
X149301898Y-96954784D01*
X149101939Y-96915010D01*
X148898061Y-96915010D01*
X148698102Y-96954784D01*
X148509744Y-97032805D01*
X148340226Y-97146073D01*
X148296289Y-97190010D01*
X148004791Y-97190010D01*
X149238625Y-95956177D01*
X149253088Y-95962168D01*
X149568967Y-96025000D01*
X149891033Y-96025000D01*
X150206912Y-95962168D01*
X150504463Y-95838918D01*
X150772252Y-95659987D01*
X150906826Y-95525413D01*
X151314192Y-95525413D01*
X151409956Y-95789814D01*
X151699571Y-95930704D01*
X152011108Y-96012384D01*
X152332595Y-96031718D01*
X152651675Y-95987961D01*
X152956088Y-95882795D01*
X153130044Y-95789814D01*
X153225808Y-95525413D01*
X152270000Y-94569605D01*
X151314192Y-95525413D01*
X150906826Y-95525413D01*
X150999987Y-95432252D01*
X151072720Y-95323400D01*
X151134587Y-95345808D01*
X152090395Y-94390000D01*
X151134587Y-93434192D01*
X151072720Y-93456600D01*
X150999987Y-93347748D01*
X150906826Y-93254587D01*
X151314192Y-93254587D01*
X152270000Y-94210395D01*
X153225808Y-93254587D01*
X153130044Y-92990186D01*
X152840429Y-92849296D01*
X152528892Y-92767616D01*
X152207405Y-92748282D01*
X151888325Y-92792039D01*
X151583912Y-92897205D01*
X151409956Y-92990186D01*
X151314192Y-93254587D01*
X150906826Y-93254587D01*
X150772252Y-93120013D01*
X150504463Y-92941082D01*
X150206912Y-92817832D01*
X149891033Y-92755000D01*
X149568967Y-92755000D01*
X149253088Y-92817832D01*
X148955537Y-92941082D01*
X148687748Y-93120013D01*
X148460013Y-93347748D01*
X148460000Y-93347767D01*
X148459987Y-93347748D01*
X148232252Y-93120013D01*
X147964463Y-92941082D01*
X147666912Y-92817832D01*
X147351033Y-92755000D01*
X147028967Y-92755000D01*
X146713088Y-92817832D01*
X146415537Y-92941082D01*
X146147748Y-93120013D01*
X145920013Y-93347748D01*
X145920000Y-93347767D01*
X145919987Y-93347748D01*
X145692252Y-93120013D01*
X145424463Y-92941082D01*
X145126912Y-92817832D01*
X144811033Y-92755000D01*
X144488967Y-92755000D01*
X144173088Y-92817832D01*
X143875537Y-92941082D01*
X143607748Y-93120013D01*
X143380013Y-93347748D01*
X143306167Y-93458266D01*
X143175107Y-93141859D01*
X142886738Y-92710285D01*
X142686453Y-92510000D01*
X148296289Y-92510000D01*
X148340226Y-92553937D01*
X148509744Y-92667205D01*
X148698102Y-92745226D01*
X148898061Y-92785000D01*
X149101939Y-92785000D01*
X149301898Y-92745226D01*
X149490256Y-92667205D01*
X149659774Y-92553937D01*
X149803937Y-92409774D01*
X149917205Y-92240256D01*
X149995226Y-92051898D01*
X150035000Y-91851939D01*
X150035000Y-91648061D01*
X149995226Y-91448102D01*
X149917205Y-91259744D01*
X149803937Y-91090226D01*
X149659774Y-90946063D01*
X149490256Y-90832795D01*
X149301898Y-90754774D01*
X149101939Y-90715000D01*
X148898061Y-90715000D01*
X148698102Y-90754774D01*
X148509744Y-90832795D01*
X148340226Y-90946063D01*
X148296289Y-90990000D01*
X136744802Y-90990000D01*
X128905277Y-83150475D01*
X131715000Y-83150475D01*
X131715000Y-83669525D01*
X131816261Y-84178601D01*
X132014893Y-84658141D01*
X132303262Y-85089715D01*
X132670285Y-85456738D01*
X133101859Y-85745107D01*
X133581399Y-85943739D01*
X134090475Y-86045000D01*
X134609525Y-86045000D01*
X135118601Y-85943739D01*
X135598141Y-85745107D01*
X136029715Y-85456738D01*
X136396738Y-85089715D01*
X136685107Y-84658141D01*
X136883739Y-84178601D01*
X136985000Y-83669525D01*
X136985000Y-83150475D01*
X136883739Y-82641399D01*
X136685107Y-82161859D01*
X136396738Y-81730285D01*
X136029715Y-81363262D01*
X135598141Y-81074893D01*
X135118601Y-80876261D01*
X134609525Y-80775000D01*
X134090475Y-80775000D01*
X133581399Y-80876261D01*
X133101859Y-81074893D01*
X132670285Y-81363262D01*
X132303262Y-81730285D01*
X132014893Y-82161859D01*
X131816261Y-82641399D01*
X131715000Y-83150475D01*
X128905277Y-83150475D01*
X128653804Y-82899003D01*
X128630001Y-82869999D01*
X128514276Y-82775026D01*
X128382247Y-82704454D01*
X128238986Y-82660997D01*
X128127333Y-82650000D01*
X128127322Y-82650000D01*
X128090000Y-82646324D01*
X128052678Y-82650000D01*
X123104909Y-82650000D01*
X123098918Y-82635537D01*
X122919987Y-82367748D01*
X122692252Y-82140013D01*
X122583400Y-82067280D01*
X122605808Y-82005413D01*
X121650000Y-81049605D01*
X120694192Y-82005413D01*
X120716600Y-82067280D01*
X120607748Y-82140013D01*
X120380013Y-82367748D01*
X120201082Y-82635537D01*
X120077832Y-82933088D01*
X120015000Y-83248967D01*
X116891000Y-83248967D01*
X116891000Y-80932595D01*
X120008282Y-80932595D01*
X120052039Y-81251675D01*
X120157205Y-81556088D01*
X120250186Y-81730044D01*
X120514587Y-81825808D01*
X121470395Y-80870000D01*
X120514587Y-79914192D01*
X120250186Y-80009956D01*
X120109296Y-80299571D01*
X120027616Y-80611108D01*
X120008282Y-80932595D01*
X116891000Y-80932595D01*
X116891000Y-62928967D01*
X120015000Y-62928967D01*
X120015000Y-63251033D01*
X120077832Y-63566912D01*
X120201082Y-63864463D01*
X120380013Y-64132252D01*
X120607748Y-64359987D01*
X120607767Y-64360000D01*
X120607748Y-64360013D01*
X120380013Y-64587748D01*
X120201082Y-64855537D01*
X120077832Y-65153088D01*
X120015000Y-65468967D01*
X120015000Y-65791033D01*
X120077832Y-66106912D01*
X120201082Y-66404463D01*
X120380013Y-66672252D01*
X120607748Y-66899987D01*
X120607767Y-66900000D01*
X120607748Y-66900013D01*
X120380013Y-67127748D01*
X120201082Y-67395537D01*
X120077832Y-67693088D01*
X120015000Y-68008967D01*
X120015000Y-68331033D01*
X120077832Y-68646912D01*
X120201082Y-68944463D01*
X120380013Y-69212252D01*
X120607748Y-69439987D01*
X120607767Y-69440000D01*
X120607748Y-69440013D01*
X120380013Y-69667748D01*
X120201082Y-69935537D01*
X120077832Y-70233088D01*
X120015000Y-70548967D01*
X120015000Y-70871033D01*
X120077832Y-71186912D01*
X120201082Y-71484463D01*
X120380013Y-71752252D01*
X120607748Y-71979987D01*
X120607767Y-71980000D01*
X120607748Y-71980013D01*
X120380013Y-72207748D01*
X120201082Y-72475537D01*
X120077832Y-72773088D01*
X120015000Y-73088967D01*
X120015000Y-73411033D01*
X120077832Y-73726912D01*
X120201082Y-74024463D01*
X120380013Y-74292252D01*
X120607748Y-74519987D01*
X120607767Y-74520000D01*
X120607748Y-74520013D01*
X120380013Y-74747748D01*
X120201082Y-75015537D01*
X120077832Y-75313088D01*
X120015000Y-75628967D01*
X120015000Y-75951033D01*
X120077832Y-76266912D01*
X120201082Y-76564463D01*
X120380013Y-76832252D01*
X120607748Y-77059987D01*
X120607767Y-77060000D01*
X120607748Y-77060013D01*
X120380013Y-77287748D01*
X120201082Y-77555537D01*
X120077832Y-77853088D01*
X120015000Y-78168967D01*
X120015000Y-78491033D01*
X120077832Y-78806912D01*
X120201082Y-79104463D01*
X120380013Y-79372252D01*
X120607748Y-79599987D01*
X120716600Y-79672720D01*
X120694192Y-79734587D01*
X121650000Y-80690395D01*
X121664143Y-80676253D01*
X121843748Y-80855858D01*
X121829605Y-80870000D01*
X122785413Y-81825808D01*
X123049814Y-81730044D01*
X123190704Y-81440429D01*
X123272384Y-81128892D01*
X123291718Y-80807405D01*
X123260945Y-80583002D01*
X135258201Y-80583002D01*
X142436201Y-87761003D01*
X142459999Y-87790001D01*
X142575724Y-87884974D01*
X142707753Y-87955546D01*
X142851014Y-87999003D01*
X142962667Y-88010000D01*
X142962676Y-88010000D01*
X142999999Y-88013676D01*
X143037322Y-88010000D01*
X147296289Y-88010000D01*
X147340226Y-88053937D01*
X147509744Y-88167205D01*
X147698102Y-88245226D01*
X147898061Y-88285000D01*
X148101939Y-88285000D01*
X148301898Y-88245226D01*
X148490256Y-88167205D01*
X148659774Y-88053937D01*
X148803937Y-87909774D01*
X148917205Y-87740256D01*
X148995226Y-87551898D01*
X149035000Y-87351939D01*
X149035000Y-87148061D01*
X148995226Y-86948102D01*
X148917205Y-86759744D01*
X148803937Y-86590226D01*
X148659774Y-86446063D01*
X148490256Y-86332795D01*
X148301898Y-86254774D01*
X148101939Y-86215000D01*
X148012511Y-86215000D01*
X148035000Y-86101939D01*
X148035000Y-85898061D01*
X147995226Y-85698102D01*
X147917205Y-85509744D01*
X147803937Y-85340226D01*
X147659774Y-85196063D01*
X147490256Y-85082795D01*
X147301898Y-85004774D01*
X147101939Y-84965000D01*
X146898061Y-84965000D01*
X146698102Y-85004774D01*
X146509744Y-85082795D01*
X146340226Y-85196063D01*
X146296289Y-85240000D01*
X143064802Y-85240000D01*
X136563804Y-78739003D01*
X136540001Y-78709999D01*
X136424276Y-78615026D01*
X136292247Y-78544454D01*
X136148986Y-78500997D01*
X136037333Y-78490000D01*
X136037322Y-78490000D01*
X136000000Y-78486324D01*
X135962678Y-78490000D01*
X125424802Y-78490000D01*
X123216177Y-76281376D01*
X123222168Y-76266912D01*
X123285000Y-75951033D01*
X123285000Y-75628967D01*
X123222168Y-75313088D01*
X123098918Y-75015537D01*
X122919987Y-74747748D01*
X122692252Y-74520013D01*
X122692233Y-74520000D01*
X122692252Y-74519987D01*
X122919987Y-74292252D01*
X123098918Y-74024463D01*
X123222168Y-73726912D01*
X123285000Y-73411033D01*
X123285000Y-73088967D01*
X123222168Y-72773088D01*
X123098918Y-72475537D01*
X122919987Y-72207748D01*
X122692252Y-71980013D01*
X122692233Y-71980000D01*
X122692252Y-71979987D01*
X122919987Y-71752252D01*
X123098918Y-71484463D01*
X123222168Y-71186912D01*
X123285000Y-70871033D01*
X123285000Y-70548967D01*
X123222168Y-70233088D01*
X123098918Y-69935537D01*
X122919987Y-69667748D01*
X122692252Y-69440013D01*
X122692233Y-69440000D01*
X122692252Y-69439987D01*
X122882239Y-69250000D01*
X129686807Y-69250000D01*
X129690001Y-69282429D01*
X129690000Y-77217581D01*
X129686807Y-77250000D01*
X129699550Y-77379383D01*
X129737290Y-77503793D01*
X129798575Y-77618450D01*
X129826316Y-77652252D01*
X129881052Y-77718948D01*
X129981550Y-77801425D01*
X130096207Y-77862710D01*
X130220617Y-77900450D01*
X130350000Y-77913193D01*
X130382419Y-77910000D01*
X135317581Y-77910000D01*
X135350000Y-77913193D01*
X135382419Y-77910000D01*
X135479383Y-77900450D01*
X135603793Y-77862710D01*
X135718450Y-77801425D01*
X135818948Y-77718948D01*
X135901425Y-77618450D01*
X135962710Y-77503793D01*
X136000450Y-77379383D01*
X136013193Y-77250000D01*
X136010000Y-77217581D01*
X136010000Y-76350475D01*
X138205000Y-76350475D01*
X138205000Y-76869525D01*
X138306261Y-77378601D01*
X138504893Y-77858141D01*
X138793262Y-78289715D01*
X139160285Y-78656738D01*
X139591859Y-78945107D01*
X140071399Y-79143739D01*
X140580475Y-79245000D01*
X141099525Y-79245000D01*
X141608601Y-79143739D01*
X142088141Y-78945107D01*
X142519715Y-78656738D01*
X142886738Y-78289715D01*
X143175107Y-77858141D01*
X143306167Y-77541734D01*
X143380013Y-77652252D01*
X143607748Y-77879987D01*
X143875537Y-78058918D01*
X144173088Y-78182168D01*
X144488967Y-78245000D01*
X144811033Y-78245000D01*
X145126912Y-78182168D01*
X145424463Y-78058918D01*
X145692252Y-77879987D01*
X145919987Y-77652252D01*
X145920000Y-77652233D01*
X145920013Y-77652252D01*
X146147748Y-77879987D01*
X146415537Y-78058918D01*
X146713088Y-78182168D01*
X147028967Y-78245000D01*
X147351033Y-78245000D01*
X147666912Y-78182168D01*
X147964463Y-78058918D01*
X148232252Y-77879987D01*
X148459987Y-77652252D01*
X148460000Y-77652233D01*
X148460013Y-77652252D01*
X148687748Y-77879987D01*
X148955537Y-78058918D01*
X149253088Y-78182168D01*
X149568967Y-78245000D01*
X149891033Y-78245000D01*
X150206912Y-78182168D01*
X150504463Y-78058918D01*
X150772252Y-77879987D01*
X150999987Y-77652252D01*
X151000000Y-77652233D01*
X151000013Y-77652252D01*
X151227748Y-77879987D01*
X151495537Y-78058918D01*
X151793088Y-78182168D01*
X152108967Y-78245000D01*
X152431033Y-78245000D01*
X152746912Y-78182168D01*
X153044463Y-78058918D01*
X153312252Y-77879987D01*
X153539987Y-77652252D01*
X153540000Y-77652233D01*
X153540013Y-77652252D01*
X153767748Y-77879987D01*
X154035537Y-78058918D01*
X154333088Y-78182168D01*
X154648967Y-78245000D01*
X154971033Y-78245000D01*
X155286912Y-78182168D01*
X155584463Y-78058918D01*
X155852252Y-77879987D01*
X156079987Y-77652252D01*
X156080000Y-77652233D01*
X156080013Y-77652252D01*
X156307748Y-77879987D01*
X156575537Y-78058918D01*
X156873088Y-78182168D01*
X157188967Y-78245000D01*
X157511033Y-78245000D01*
X157826912Y-78182168D01*
X158124463Y-78058918D01*
X158392252Y-77879987D01*
X158619987Y-77652252D01*
X158693833Y-77541734D01*
X158824893Y-77858141D01*
X159113262Y-78289715D01*
X159480285Y-78656738D01*
X159911859Y-78945107D01*
X160391399Y-79143739D01*
X160900475Y-79245000D01*
X161419525Y-79245000D01*
X161928601Y-79143739D01*
X162408141Y-78945107D01*
X162839715Y-78656738D01*
X163206738Y-78289715D01*
X163495107Y-77858141D01*
X163693739Y-77378601D01*
X163795000Y-76869525D01*
X163795000Y-76350475D01*
X163693739Y-75841399D01*
X163495107Y-75361859D01*
X163206738Y-74930285D01*
X162839715Y-74563262D01*
X162408141Y-74274893D01*
X161928601Y-74076261D01*
X161419525Y-73975000D01*
X160900475Y-73975000D01*
X160391399Y-74076261D01*
X159911859Y-74274893D01*
X159480285Y-74563262D01*
X159113262Y-74930285D01*
X158824893Y-75361859D01*
X158693833Y-75678266D01*
X158619987Y-75567748D01*
X158392252Y-75340013D01*
X158124463Y-75161082D01*
X157826912Y-75037832D01*
X157511033Y-74975000D01*
X157188967Y-74975000D01*
X156873088Y-75037832D01*
X156575537Y-75161082D01*
X156307748Y-75340013D01*
X156080013Y-75567748D01*
X156080000Y-75567767D01*
X156079987Y-75567748D01*
X155852252Y-75340013D01*
X155584463Y-75161082D01*
X155286912Y-75037832D01*
X154971033Y-74975000D01*
X154648967Y-74975000D01*
X154333088Y-75037832D01*
X154035537Y-75161082D01*
X153767748Y-75340013D01*
X153540013Y-75567748D01*
X153540000Y-75567767D01*
X153539987Y-75567748D01*
X153312252Y-75340013D01*
X153044463Y-75161082D01*
X152746912Y-75037832D01*
X152431033Y-74975000D01*
X152108967Y-74975000D01*
X151793088Y-75037832D01*
X151495537Y-75161082D01*
X151227748Y-75340013D01*
X151000013Y-75567748D01*
X151000000Y-75567767D01*
X150999987Y-75567748D01*
X150772252Y-75340013D01*
X150504463Y-75161082D01*
X150206912Y-75037832D01*
X149891033Y-74975000D01*
X149568967Y-74975000D01*
X149253088Y-75037832D01*
X148955537Y-75161082D01*
X148687748Y-75340013D01*
X148460013Y-75567748D01*
X148460000Y-75567767D01*
X148459987Y-75567748D01*
X148232252Y-75340013D01*
X147964463Y-75161082D01*
X147666912Y-75037832D01*
X147351033Y-74975000D01*
X147028967Y-74975000D01*
X146713088Y-75037832D01*
X146415537Y-75161082D01*
X146147748Y-75340013D01*
X145920013Y-75567748D01*
X145920000Y-75567767D01*
X145919987Y-75567748D01*
X145692252Y-75340013D01*
X145424463Y-75161082D01*
X145126912Y-75037832D01*
X144811033Y-74975000D01*
X144488967Y-74975000D01*
X144173088Y-75037832D01*
X143875537Y-75161082D01*
X143607748Y-75340013D01*
X143380013Y-75567748D01*
X143306167Y-75678266D01*
X143175107Y-75361859D01*
X142886738Y-74930285D01*
X142519715Y-74563262D01*
X142088141Y-74274893D01*
X141608601Y-74076261D01*
X141099525Y-73975000D01*
X140580475Y-73975000D01*
X140071399Y-74076261D01*
X139591859Y-74274893D01*
X139160285Y-74563262D01*
X138793262Y-74930285D01*
X138504893Y-75361859D01*
X138306261Y-75841399D01*
X138205000Y-76350475D01*
X136010000Y-76350475D01*
X136010000Y-69282419D01*
X136013193Y-69250000D01*
X136000450Y-69120617D01*
X135962710Y-68996207D01*
X135901425Y-68881550D01*
X135818948Y-68781052D01*
X135718450Y-68698575D01*
X135603793Y-68637290D01*
X135479383Y-68599550D01*
X135382419Y-68590000D01*
X135350000Y-68586807D01*
X135317581Y-68590000D01*
X130382419Y-68590000D01*
X130350000Y-68586807D01*
X130317581Y-68590000D01*
X130220617Y-68599550D01*
X130096207Y-68637290D01*
X129981550Y-68698575D01*
X129881052Y-68781052D01*
X129798575Y-68881550D01*
X129737290Y-68996207D01*
X129699550Y-69120617D01*
X129686807Y-69250000D01*
X122882239Y-69250000D01*
X122919987Y-69212252D01*
X123098918Y-68944463D01*
X123222168Y-68646912D01*
X123285000Y-68331033D01*
X123285000Y-68008967D01*
X123222168Y-67693088D01*
X123098918Y-67395537D01*
X122919987Y-67127748D01*
X122692252Y-66900013D01*
X122692233Y-66900000D01*
X122692252Y-66899987D01*
X122919987Y-66672252D01*
X123098918Y-66404463D01*
X123222168Y-66106912D01*
X123285000Y-65791033D01*
X123285000Y-65468967D01*
X123222168Y-65153088D01*
X123098918Y-64855537D01*
X122919987Y-64587748D01*
X122692252Y-64360013D01*
X122692233Y-64360000D01*
X122692252Y-64359987D01*
X122919987Y-64132252D01*
X123098918Y-63864463D01*
X123222168Y-63566912D01*
X123285000Y-63251033D01*
X123285000Y-62928967D01*
X123265409Y-62830475D01*
X131715000Y-62830475D01*
X131715000Y-63349525D01*
X131816261Y-63858601D01*
X132014893Y-64338141D01*
X132303262Y-64769715D01*
X132670285Y-65136738D01*
X133101859Y-65425107D01*
X133581399Y-65623739D01*
X134090475Y-65725000D01*
X134609525Y-65725000D01*
X135118601Y-65623739D01*
X135598141Y-65425107D01*
X136029715Y-65136738D01*
X136396738Y-64769715D01*
X136685107Y-64338141D01*
X136883739Y-63858601D01*
X136985000Y-63349525D01*
X136985000Y-62830475D01*
X136883739Y-62321399D01*
X136685107Y-61841859D01*
X136396738Y-61410285D01*
X136029715Y-61043262D01*
X135598141Y-60754893D01*
X135118601Y-60556261D01*
X134609525Y-60455000D01*
X134090475Y-60455000D01*
X133581399Y-60556261D01*
X133101859Y-60754893D01*
X132670285Y-61043262D01*
X132303262Y-61410285D01*
X132014893Y-61841859D01*
X131816261Y-62321399D01*
X131715000Y-62830475D01*
X123265409Y-62830475D01*
X123222168Y-62613088D01*
X123098918Y-62315537D01*
X122919987Y-62047748D01*
X122692252Y-61820013D01*
X122424463Y-61641082D01*
X122126912Y-61517832D01*
X121811033Y-61455000D01*
X121488967Y-61455000D01*
X121173088Y-61517832D01*
X120875537Y-61641082D01*
X120607748Y-61820013D01*
X120380013Y-62047748D01*
X120201082Y-62315537D01*
X120077832Y-62613088D01*
X120015000Y-62928967D01*
X116891000Y-62928967D01*
X116891000Y-54250061D01*
X155995000Y-54250061D01*
X155995000Y-54453939D01*
X156034774Y-54653898D01*
X156112795Y-54842256D01*
X156226063Y-55011774D01*
X156370226Y-55155937D01*
X156539744Y-55269205D01*
X156728102Y-55347226D01*
X156928061Y-55387000D01*
X157131939Y-55387000D01*
X157331898Y-55347226D01*
X157520256Y-55269205D01*
X157689774Y-55155937D01*
X157833937Y-55011774D01*
X157947205Y-54842256D01*
X158025226Y-54653898D01*
X158065000Y-54453939D01*
X158065000Y-54250061D01*
X161075000Y-54250061D01*
X161075000Y-54453939D01*
X161114774Y-54653898D01*
X161192795Y-54842256D01*
X161306063Y-55011774D01*
X161450226Y-55155937D01*
X161619744Y-55269205D01*
X161808102Y-55347226D01*
X162008061Y-55387000D01*
X162211939Y-55387000D01*
X162411898Y-55347226D01*
X162600256Y-55269205D01*
X162769774Y-55155937D01*
X162913937Y-55011774D01*
X163027205Y-54842256D01*
X163105226Y-54653898D01*
X163145000Y-54453939D01*
X163145000Y-54250061D01*
X163105226Y-54050102D01*
X163027205Y-53861744D01*
X162913937Y-53692226D01*
X162769774Y-53548063D01*
X162600256Y-53434795D01*
X162411898Y-53356774D01*
X162211939Y-53317000D01*
X162008061Y-53317000D01*
X161808102Y-53356774D01*
X161619744Y-53434795D01*
X161450226Y-53548063D01*
X161306063Y-53692226D01*
X161192795Y-53861744D01*
X161114774Y-54050102D01*
X161075000Y-54250061D01*
X158065000Y-54250061D01*
X158025226Y-54050102D01*
X157947205Y-53861744D01*
X157833937Y-53692226D01*
X157689774Y-53548063D01*
X157520256Y-53434795D01*
X157331898Y-53356774D01*
X157131939Y-53317000D01*
X156928061Y-53317000D01*
X156728102Y-53356774D01*
X156539744Y-53434795D01*
X156370226Y-53548063D01*
X156226063Y-53692226D01*
X156112795Y-53861744D01*
X156034774Y-54050102D01*
X155995000Y-54250061D01*
X116891000Y-54250061D01*
X116891000Y-52952328D01*
X117017302Y-52900012D01*
X117366983Y-52666363D01*
X117664363Y-52368983D01*
X117898012Y-52019302D01*
X118058953Y-51630756D01*
X118141000Y-51218279D01*
X118141000Y-50797721D01*
X118139409Y-50789721D01*
X127865000Y-50789721D01*
X127865000Y-51210279D01*
X127947047Y-51622756D01*
X128107988Y-52011302D01*
X128341637Y-52360983D01*
X128639017Y-52658363D01*
X128988698Y-52892012D01*
X129377244Y-53052953D01*
X129789721Y-53135000D01*
X130210279Y-53135000D01*
X130622756Y-53052953D01*
X131011302Y-52892012D01*
X131360983Y-52658363D01*
X131658363Y-52360983D01*
X131892012Y-52011302D01*
X132052953Y-51622756D01*
X132135000Y-51210279D01*
X132135000Y-50789721D01*
X136865000Y-50789721D01*
X136865000Y-51210279D01*
X136947047Y-51622756D01*
X137107988Y-52011302D01*
X137341637Y-52360983D01*
X137639017Y-52658363D01*
X137988698Y-52892012D01*
X138377244Y-53052953D01*
X138789721Y-53135000D01*
X139210279Y-53135000D01*
X139622756Y-53052953D01*
X140011302Y-52892012D01*
X140360983Y-52658363D01*
X140658363Y-52360983D01*
X140892012Y-52011302D01*
X140944328Y-51885000D01*
X161383422Y-51885000D01*
X168115000Y-58616579D01*
X168115001Y-117305672D01*
X167988698Y-117357988D01*
X167639017Y-117591637D01*
X167341637Y-117889017D01*
X167107988Y-118238698D01*
X166947047Y-118627244D01*
X166865000Y-119039721D01*
X166865000Y-119460279D01*
X166947047Y-119872756D01*
X167107988Y-120261302D01*
X167341637Y-120610983D01*
X167639017Y-120908363D01*
X167988698Y-121142012D01*
X168377244Y-121302953D01*
X168789721Y-121385000D01*
X169210279Y-121385000D01*
X169622756Y-121302953D01*
X170011302Y-121142012D01*
X170360983Y-120908363D01*
X170605693Y-120663653D01*
X181639952Y-120663653D01*
X181795962Y-120979214D01*
X182170745Y-121170020D01*
X182575551Y-121284044D01*
X182994824Y-121316902D01*
X183412451Y-121267334D01*
X183812383Y-121137243D01*
X184108038Y-120979214D01*
X184264048Y-120663653D01*
X182952000Y-119351605D01*
X181639952Y-120663653D01*
X170605693Y-120663653D01*
X170658363Y-120610983D01*
X170892012Y-120261302D01*
X171052953Y-119872756D01*
X171135000Y-119460279D01*
X171135000Y-119214824D01*
X180807098Y-119214824D01*
X180856666Y-119632451D01*
X180986757Y-120032383D01*
X181144786Y-120328038D01*
X181460347Y-120484048D01*
X182772395Y-119172000D01*
X183131605Y-119172000D01*
X184443653Y-120484048D01*
X184759214Y-120328038D01*
X184950020Y-119953255D01*
X185064044Y-119548449D01*
X185096902Y-119129176D01*
X185047334Y-118711549D01*
X184917243Y-118311617D01*
X184759214Y-118015962D01*
X184443653Y-117859952D01*
X183131605Y-119172000D01*
X182772395Y-119172000D01*
X181460347Y-117859952D01*
X181144786Y-118015962D01*
X180953980Y-118390745D01*
X180839956Y-118795551D01*
X180807098Y-119214824D01*
X171135000Y-119214824D01*
X171135000Y-119039721D01*
X171052953Y-118627244D01*
X170892012Y-118238698D01*
X170658363Y-117889017D01*
X170449693Y-117680347D01*
X181639952Y-117680347D01*
X182952000Y-118992395D01*
X184264048Y-117680347D01*
X184108038Y-117364786D01*
X183733255Y-117173980D01*
X183328449Y-117059956D01*
X182909176Y-117027098D01*
X182491549Y-117076666D01*
X182091617Y-117206757D01*
X181795962Y-117364786D01*
X181639952Y-117680347D01*
X170449693Y-117680347D01*
X170360983Y-117591637D01*
X170011302Y-117357988D01*
X169885000Y-117305672D01*
X169885000Y-84801389D01*
X186483466Y-84801389D01*
X186483466Y-85198611D01*
X186560960Y-85588201D01*
X186712971Y-85955187D01*
X186933656Y-86285465D01*
X187214535Y-86566344D01*
X187544813Y-86787029D01*
X187911799Y-86939040D01*
X188301389Y-87016534D01*
X188698611Y-87016534D01*
X189088201Y-86939040D01*
X189455187Y-86787029D01*
X189785465Y-86566344D01*
X190066344Y-86285465D01*
X190287029Y-85955187D01*
X190439040Y-85588201D01*
X190516534Y-85198611D01*
X190516534Y-84801389D01*
X190439040Y-84411799D01*
X190287029Y-84044813D01*
X190066344Y-83714535D01*
X189785465Y-83433656D01*
X189455187Y-83212971D01*
X189088201Y-83060960D01*
X188698611Y-82983466D01*
X188301389Y-82983466D01*
X187911799Y-83060960D01*
X187544813Y-83212971D01*
X187214535Y-83433656D01*
X186933656Y-83714535D01*
X186712971Y-84044813D01*
X186560960Y-84411799D01*
X186483466Y-84801389D01*
X169885000Y-84801389D01*
X169885000Y-58293465D01*
X169889281Y-58249999D01*
X169885000Y-58206533D01*
X169885000Y-58206523D01*
X169872195Y-58076510D01*
X169821589Y-57909687D01*
X169739411Y-57755941D01*
X169628817Y-57621183D01*
X169595051Y-57593472D01*
X162799300Y-50797721D01*
X180817000Y-50797721D01*
X180817000Y-51218279D01*
X180899047Y-51630756D01*
X181059988Y-52019302D01*
X181293637Y-52368983D01*
X181591017Y-52666363D01*
X181940698Y-52900012D01*
X182329244Y-53060953D01*
X182741721Y-53143000D01*
X183162279Y-53143000D01*
X183574756Y-53060953D01*
X183963302Y-52900012D01*
X184312983Y-52666363D01*
X184610363Y-52368983D01*
X184844012Y-52019302D01*
X185004953Y-51630756D01*
X185087000Y-51218279D01*
X185087000Y-50797721D01*
X189817000Y-50797721D01*
X189817000Y-51218279D01*
X189899047Y-51630756D01*
X190059988Y-52019302D01*
X190293637Y-52368983D01*
X190591017Y-52666363D01*
X190940698Y-52900012D01*
X191067000Y-52952328D01*
X191067001Y-117227672D01*
X190940698Y-117279988D01*
X190591017Y-117513637D01*
X190293637Y-117811017D01*
X190059988Y-118160698D01*
X189899047Y-118549244D01*
X189817000Y-118961721D01*
X189817000Y-119382279D01*
X189899047Y-119794756D01*
X190059988Y-120183302D01*
X190293637Y-120532983D01*
X190591017Y-120830363D01*
X190940698Y-121064012D01*
X191329244Y-121224953D01*
X191741721Y-121307000D01*
X192162279Y-121307000D01*
X192574756Y-121224953D01*
X192963302Y-121064012D01*
X193312983Y-120830363D01*
X193610363Y-120532983D01*
X193844012Y-120183302D01*
X194004953Y-119794756D01*
X194087000Y-119382279D01*
X194087000Y-118961721D01*
X194004953Y-118549244D01*
X193844012Y-118160698D01*
X193610363Y-117811017D01*
X193312983Y-117513637D01*
X192963302Y-117279988D01*
X192837000Y-117227672D01*
X192837000Y-52952328D01*
X192963302Y-52900012D01*
X193312983Y-52666363D01*
X193610363Y-52368983D01*
X193844012Y-52019302D01*
X194004953Y-51630756D01*
X194087000Y-51218279D01*
X194087000Y-50797721D01*
X194004953Y-50385244D01*
X193844012Y-49996698D01*
X193610363Y-49647017D01*
X193312983Y-49349637D01*
X192963302Y-49115988D01*
X192574756Y-48955047D01*
X192162279Y-48873000D01*
X191741721Y-48873000D01*
X191329244Y-48955047D01*
X190940698Y-49115988D01*
X190591017Y-49349637D01*
X190293637Y-49647017D01*
X190059988Y-49996698D01*
X189899047Y-50385244D01*
X189817000Y-50797721D01*
X185087000Y-50797721D01*
X185004953Y-50385244D01*
X184844012Y-49996698D01*
X184610363Y-49647017D01*
X184312983Y-49349637D01*
X183963302Y-49115988D01*
X183574756Y-48955047D01*
X183162279Y-48873000D01*
X182741721Y-48873000D01*
X182329244Y-48955047D01*
X181940698Y-49115988D01*
X181591017Y-49349637D01*
X181293637Y-49647017D01*
X181059988Y-49996698D01*
X180899047Y-50385244D01*
X180817000Y-50797721D01*
X162799300Y-50797721D01*
X162406534Y-50404956D01*
X162378817Y-50371183D01*
X162244059Y-50260589D01*
X162090313Y-50178411D01*
X161923490Y-50127805D01*
X161793477Y-50115000D01*
X161793469Y-50115000D01*
X161750000Y-50110719D01*
X161706531Y-50115000D01*
X140944328Y-50115000D01*
X140892012Y-49988698D01*
X140658363Y-49639017D01*
X140360983Y-49341637D01*
X140011302Y-49107988D01*
X139622756Y-48947047D01*
X139210279Y-48865000D01*
X138789721Y-48865000D01*
X138377244Y-48947047D01*
X137988698Y-49107988D01*
X137639017Y-49341637D01*
X137341637Y-49639017D01*
X137107988Y-49988698D01*
X136947047Y-50377244D01*
X136865000Y-50789721D01*
X132135000Y-50789721D01*
X132052953Y-50377244D01*
X131892012Y-49988698D01*
X131658363Y-49639017D01*
X131360983Y-49341637D01*
X131011302Y-49107988D01*
X130622756Y-48947047D01*
X130210279Y-48865000D01*
X129789721Y-48865000D01*
X129377244Y-48947047D01*
X128988698Y-49107988D01*
X128639017Y-49341637D01*
X128341637Y-49639017D01*
X128107988Y-49988698D01*
X127947047Y-50377244D01*
X127865000Y-50789721D01*
X118139409Y-50789721D01*
X118058953Y-50385244D01*
X117898012Y-49996698D01*
X117664363Y-49647017D01*
X117366983Y-49349637D01*
X117017302Y-49115988D01*
X116628756Y-48955047D01*
X116216279Y-48873000D01*
X115795721Y-48873000D01*
X115383244Y-48955047D01*
X114994698Y-49115988D01*
X114645017Y-49349637D01*
X114347637Y-49647017D01*
X114113988Y-49996698D01*
X113953047Y-50385244D01*
X113871000Y-50797721D01*
X109141000Y-50797721D01*
X109058953Y-50385244D01*
X108898012Y-49996698D01*
X108664363Y-49647017D01*
X108366983Y-49349637D01*
X108017302Y-49115988D01*
X107628756Y-48955047D01*
X107216279Y-48873000D01*
X106795721Y-48873000D01*
X106383244Y-48955047D01*
X105994698Y-49115988D01*
X105645017Y-49349637D01*
X105347637Y-49647017D01*
X105113988Y-49996698D01*
X104953047Y-50385244D01*
X104871000Y-50797721D01*
X100160000Y-50797721D01*
X100160000Y-46160000D01*
X109967581Y-46160000D01*
X110000000Y-46163193D01*
X110032419Y-46160000D01*
X110129383Y-46150450D01*
X110253793Y-46112710D01*
X110368450Y-46051425D01*
X110468948Y-45968948D01*
X110551425Y-45868450D01*
X110587269Y-45801389D01*
X155233466Y-45801389D01*
X155233466Y-46198611D01*
X155310960Y-46588201D01*
X155462971Y-46955187D01*
X155683656Y-47285465D01*
X155964535Y-47566344D01*
X156294813Y-47787029D01*
X156661799Y-47939040D01*
X157051389Y-48016534D01*
X157448611Y-48016534D01*
X157838201Y-47939040D01*
X158205187Y-47787029D01*
X158535465Y-47566344D01*
X158816344Y-47285465D01*
X159037029Y-46955187D01*
X159189040Y-46588201D01*
X159266534Y-46198611D01*
X159266534Y-45801389D01*
X159189040Y-45411799D01*
X159037029Y-45044813D01*
X158816344Y-44714535D01*
X158535465Y-44433656D01*
X158205187Y-44212971D01*
X157838201Y-44060960D01*
X157448611Y-43983466D01*
X157051389Y-43983466D01*
X156661799Y-44060960D01*
X156294813Y-44212971D01*
X155964535Y-44433656D01*
X155683656Y-44714535D01*
X155462971Y-45044813D01*
X155310960Y-45411799D01*
X155233466Y-45801389D01*
X110587269Y-45801389D01*
X110612710Y-45753793D01*
X110650450Y-45629383D01*
X110663193Y-45500000D01*
X110660000Y-45467581D01*
X110660000Y-35660000D01*
X188340000Y-35660000D01*
X188340001Y-45467571D01*
G37*
%TD.AperFunction*%
%TD*%
M02*
