  0
SECTION
  2
HEADER
  9
$ANGBASE
  50
0.0
  9
$ANGDIR
  70
1
  9
$MEASUREMENT
  70
1
  0
ENDSEC
  0
SECTION
  2
TABLES
  0
TABLE
  2
LTYPE
  70
4
  0
LTYPE
  5
40F
  2
CONTINUOUS
  70
0
  3
Solid line
  72
65
  73
0
  40
0.0
  0
LTYPE
  5
410
  2
DASHDOT
 70
0
  3
Dash Dot ____ _ ____ _
 72
65
 73
4
 40
2.0
 49
1.25
 49
-0.25
 49
0.25
 49
-0.25
  0
LTYPE
  5
411
  2
DASHED
 70
0
  3
Dashed __ __ __ __ __
 72
65
 73
2
 40
0.75
 49
0.5
 49
-0.25
  0
LTYPE
  5
43B
  2
DOTTED
 70
0
  3
Dotted .  .  .  .
 72
65
 73
2
 40
0.2
 49
0.0
 49
-0.2
  0
ENDTAB
  0
TABLE
  2
STYLE
  70
4
  0
STYLE
  2
KICAD
  70
0
  40
0
  41
1
  42
1
  50
0
  71
0
  3
isocp.shx
  0
STYLE
  2
KICADB
  70
0
  40
0
  41
1
  42
1
  50
0
  71
0
  3
isocp.shx
  0
STYLE
  2
KICADI
  70
0
  40
0
  41
1
  42
1
  50
15
  71
0
  3
isocp.shx
  0
STYLE
  2
KICADBI
  70
0
  40
0
  41
1
  42
1
  50
15
  71
0
  3
isocp.shx
  0
ENDTAB
  0
TABLE
  2
LAYER
  70
1
  0
LAYER
  2
BLACK
  70
0
  62
7
  6
CONTINUOUS
  0
ENDTAB
  0
ENDSEC
  0
SECTION
  2
ENTITIES
0
LINE
8
BLACK
6
CONTINUOUS
10
136.85
20
-153
11
136.85
21
-147
0
LINE
8
BLACK
6
CONTINUOUS
10
142.15
20
-153
11
142.15
21
-147
0
LINE
8
BLACK
6
CONTINUOUS
10
146.85
20
-147
11
146.85
21
-153
0
LINE
8
BLACK
6
CONTINUOUS
10
152.15
20
-153
11
152.15
21
-147
0
LINE
8
BLACK
6
CONTINUOUS
10
142.15
20
-76.6
11
142.15
21
-82.6
0
LINE
8
BLACK
6
CONTINUOUS
10
136.85
20
-76.6
11
136.85
21
-82.6
0
LINE
8
BLACK
6
CONTINUOUS
10
146.85
20
-76.6
11
146.85
21
-82.6
0
LINE
8
BLACK
6
CONTINUOUS
10
152.15
20
-76.6
11
152.15
21
-82.6
0
LINE
8
BLACK
6
CONTINUOUS
10
186
20
-65.75
11
103
21
-65.75
0
CIRCLE
8
BLACK
10
180.5
20
-114.65
40
2.625
0
LINE
8
BLACK
6
CONTINUOUS
10
108.745
20
-139.557
11
103
21
-139.557
0
ARC
8
BLACK
10
180.5
20
-142.15
40
2.60462
50
-264.492
51
-93.3015
0
LINE
8
BLACK
6
CONTINUOUS
10
186
20
-163.75
11
186
21
-156.45
0
LINE
8
BLACK
6
CONTINUOUS
10
186
20
-73.1
11
186
21
-65.75
0
LINE
8
BLACK
6
CONTINUOUS
10
106
20
-75.1
11
103
21
-75.1
0
ARC
8
BLACK
10
106
20
-77.75
40
2.65
50
-0
51
90
0
ARC
8
BLACK
10
106
20
-86.35
40
2.65
50
-90
51
-0
0
LINE
8
BLACK
6
CONTINUOUS
10
106
20
-89
11
103
21
-89
0
LINE
8
BLACK
6
CONTINUOUS
10
108.65
20
-77.75
11
108.65
21
-86.35
0
ARC
8
BLACK
10
183
20
-77.75
40
2.65
50
90
51
180
0
ARC
8
BLACK
10
183
20
-86.35
40
2.65
50
-180
51
-90
0
LINE
8
BLACK
6
CONTINUOUS
10
183
20
-75.1
11
186
21
-75.1
0
LINE
8
BLACK
6
CONTINUOUS
10
180.35
20
-77.75
11
180.35
21
-86.35
0
LINE
8
BLACK
6
CONTINUOUS
10
183
20
-89
11
186
21
-89
0
LINE
8
BLACK
6
CONTINUOUS
10
103
20
-65.75
11
103
21
-75.1
0
LINE
8
BLACK
6
CONTINUOUS
10
103
20
-89
11
103
21
-139.557
0
LINE
8
BLACK
6
CONTINUOUS
10
103
20
-154.4
11
103
21
-163.75
0
LINE
8
BLACK
6
CONTINUOUS
10
186
20
-156.45
11
186
21
-154.4
0
LINE
8
BLACK
6
CONTINUOUS
10
186
20
-75.1
11
186
21
-73.1
0
LINE
8
BLACK
6
CONTINUOUS
10
185.995
20
-139.557
11
180.25
21
-139.557
0
ARC
8
BLACK
10
139.5
20
-82.6
40
2.65
50
-180
51
-0
0
ARC
8
BLACK
10
108.5
20
-142.15
40
2.60432
50
-86.6982
51
84.6107
0
LINE
8
BLACK
6
CONTINUOUS
10
108.65
20
-151.75
11
108.65
21
-144.75
0
ARC
8
BLACK
10
149.5
20
-76.6
40
2.65
50
-0
51
180
0
ARC
8
BLACK
10
139.5
20
-76.6
40
2.65
50
-0
51
180
0
LINE
8
BLACK
6
CONTINUOUS
10
103
20
-163.75
11
186
21
-163.75
0
ARC
8
BLACK
10
139.5
20
-147
40
2.65
50
-0
51
180
0
LINE
8
BLACK
6
CONTINUOUS
10
180.35
20
-151.75
11
180.35
21
-144.75
0
LINE
8
BLACK
6
CONTINUOUS
10
106
20
-154.4
11
103
21
-154.4
0
ARC
8
BLACK
10
139.5
20
-153
40
2.65
50
-180
51
-0
0
ARC
8
BLACK
10
149.5
20
-147
40
2.65
50
-0
51
180
0
ARC
8
BLACK
10
106
20
-151.75
40
2.65
50
-90
51
-0
0
ARC
8
BLACK
10
183
20
-151.75
40
2.65
50
-180
51
-90
0
ARC
8
BLACK
10
149.5
20
-153
40
2.65
50
-180
51
-0
0
LINE
8
BLACK
6
CONTINUOUS
10
183
20
-154.4
11
186
21
-154.4
0
LINE
8
BLACK
6
CONTINUOUS
10
186
20
-89
11
185.995
21
-139.557
0
ARC
8
BLACK
10
149.5
20
-82.6
40
2.65
50
-180
51
-0
0
CIRCLE
8
BLACK
10
108.5
20
-114.65
40
2.625
0
LINE
8
BLACK
6
CONTINUOUS
10
109.2
20
-129.83
11
109.6
21
-130.23
0
LINE
8
BLACK
6
CONTINUOUS
10
109.6
20
-129.83
11
109.2
21
-130.23
0
LINE
8
BLACK
6
CONTINUOUS
10
110.46
20
-124.55
11
110.86
21
-124.95
0
LINE
8
BLACK
6
CONTINUOUS
10
110.86
20
-124.55
11
110.46
21
-124.95
0
LINE
8
BLACK
6
CONTINUOUS
10
120.92
20
-156.02
11
121.32
21
-156.42
0
LINE
8
BLACK
6
CONTINUOUS
10
121.32
20
-156.02
11
120.92
21
-156.42
0
LINE
8
BLACK
6
CONTINUOUS
10
124.07
20
-117.8
11
124.47
21
-118.2
0
LINE
8
BLACK
6
CONTINUOUS
10
124.47
20
-117.8
11
124.07
21
-118.2
0
LINE
8
BLACK
6
CONTINUOUS
10
126.31
20
-125.9
11
126.71
21
-126.3
0
LINE
8
BLACK
6
CONTINUOUS
10
126.71
20
-125.9
11
126.31
21
-126.3
0
LINE
8
BLACK
6
CONTINUOUS
10
127.8
20
-125.8
11
128.2
21
-126.2
0
LINE
8
BLACK
6
CONTINUOUS
10
128.2
20
-125.8
11
127.8
21
-126.2
0
LINE
8
BLACK
6
CONTINUOUS
10
129.3
20
-120.445
11
129.7
21
-120.845
0
LINE
8
BLACK
6
CONTINUOUS
10
129.7
20
-120.445
11
129.3
21
-120.845
0
LINE
8
BLACK
6
CONTINUOUS
10
144.25
20
-156.05
11
144.65
21
-156.45
0
LINE
8
BLACK
6
CONTINUOUS
10
144.65
20
-156.05
11
144.25
21
-156.45
0
LINE
8
BLACK
6
CONTINUOUS
10
146.83
20
-118.31
11
147.23
21
-118.71
0
LINE
8
BLACK
6
CONTINUOUS
10
147.23
20
-118.31
11
146.83
21
-118.71
0
LINE
8
BLACK
6
CONTINUOUS
10
147.275
20
-112.905
11
147.675
21
-113.305
0
LINE
8
BLACK
6
CONTINUOUS
10
147.675
20
-112.905
11
147.275
21
-113.305
0
LINE
8
BLACK
6
CONTINUOUS
10
149.79
20
-115.79
11
150.19
21
-116.19
0
LINE
8
BLACK
6
CONTINUOUS
10
150.19
20
-115.79
11
149.79
21
-116.19
0
LINE
8
BLACK
6
CONTINUOUS
10
150.34
20
-113.51
11
150.74
21
-113.91
0
LINE
8
BLACK
6
CONTINUOUS
10
150.74
20
-113.51
11
150.34
21
-113.91
0
LINE
8
BLACK
6
CONTINUOUS
10
151.19
20
-117.24
11
151.59
21
-117.64
0
LINE
8
BLACK
6
CONTINUOUS
10
151.59
20
-117.24
11
151.19
21
-117.64
0
LINE
8
BLACK
6
CONTINUOUS
10
151.33
20
-119.42
11
151.73
21
-119.82
0
LINE
8
BLACK
6
CONTINUOUS
10
151.73
20
-119.42
11
151.33
21
-119.82
0
LINE
8
BLACK
6
CONTINUOUS
10
156.66
20
-113.47
11
157.06
21
-113.87
0
LINE
8
BLACK
6
CONTINUOUS
10
157.06
20
-113.47
11
156.66
21
-113.87
0
LINE
8
BLACK
6
CONTINUOUS
10
159.27
20
-115.93
11
159.67
21
-116.33
0
LINE
8
BLACK
6
CONTINUOUS
10
159.67
20
-115.93
11
159.27
21
-116.33
0
LINE
8
BLACK
6
CONTINUOUS
10
160.37
20
-109.76
11
160.77
21
-110.16
0
LINE
8
BLACK
6
CONTINUOUS
10
160.77
20
-109.76
11
160.37
21
-110.16
0
LINE
8
BLACK
6
CONTINUOUS
10
160.55
20
-114.3
11
160.95
21
-114.7
0
LINE
8
BLACK
6
CONTINUOUS
10
160.95
20
-114.3
11
160.55
21
-114.7
0
LINE
8
BLACK
6
CONTINUOUS
10
161.62
20
-113.15
11
162.02
21
-113.55
0
LINE
8
BLACK
6
CONTINUOUS
10
162.02
20
-113.15
11
161.62
21
-113.55
0
LINE
8
BLACK
6
CONTINUOUS
10
161.69
20
-115.13
11
162.09
21
-115.53
0
LINE
8
BLACK
6
CONTINUOUS
10
162.09
20
-115.13
11
161.69
21
-115.53
0
LINE
8
BLACK
6
CONTINUOUS
10
162.06
20
-111.37
11
162.46
21
-111.77
0
LINE
8
BLACK
6
CONTINUOUS
10
162.46
20
-111.37
11
162.06
21
-111.77
0
LINE
8
BLACK
6
CONTINUOUS
10
164.6
20
-126.99
11
165
21
-127.39
0
LINE
8
BLACK
6
CONTINUOUS
10
165
20
-126.99
11
164.6
21
-127.39
0
LINE
8
BLACK
6
CONTINUOUS
10
167.8
20
-156.19
11
168.2
21
-156.59
0
LINE
8
BLACK
6
CONTINUOUS
10
168.2
20
-156.19
11
167.8
21
-156.59
0
LINE
8
BLACK
6
CONTINUOUS
10
177.92
20
-121.42
11
178.32
21
-121.82
0
LINE
8
BLACK
6
CONTINUOUS
10
178.32
20
-121.42
11
177.92
21
-121.82
0
LINE
8
BLACK
6
CONTINUOUS
10
178
20
-123.6
11
178.4
21
-124
0
LINE
8
BLACK
6
CONTINUOUS
10
178.4
20
-123.6
11
178
21
-124
0
CIRCLE
8
BLACK
10
106.5
20
-70.3
40
1.475
0
CIRCLE
8
BLACK
10
106.5
20
-159.3
40
1.475
0
CIRCLE
8
BLACK
10
182.5
20
-70.3
40
1.475
0
CIRCLE
8
BLACK
10
182.5
20
-159.3
40
1.475
0
LINE
8
BLACK
6
CONTINUOUS
10
105.551
20
-166.88
11
105.551
21
-164.88
0
LINE
8
BLACK
6
CONTINUOUS
10
105.551
20
-164.88
11
106.027
21
-164.88
0
LINE
8
BLACK
6
CONTINUOUS
10
106.027
20
-164.88
11
106.313
21
-164.975
0
LINE
8
BLACK
6
CONTINUOUS
10
106.313
20
-164.975
11
106.504
21
-165.165
0
LINE
8
BLACK
6
CONTINUOUS
10
106.504
20
-165.165
11
106.599
21
-165.356
0
LINE
8
BLACK
6
CONTINUOUS
10
106.599
20
-165.356
11
106.694
21
-165.737
0
LINE
8
BLACK
6
CONTINUOUS
10
106.694
20
-165.737
11
106.694
21
-166.023
0
LINE
8
BLACK
6
CONTINUOUS
10
106.694
20
-166.023
11
106.599
21
-166.404
0
LINE
8
BLACK
6
CONTINUOUS
10
106.599
20
-166.404
11
106.504
21
-166.594
0
LINE
8
BLACK
6
CONTINUOUS
10
106.504
20
-166.594
11
106.313
21
-166.785
0
LINE
8
BLACK
6
CONTINUOUS
10
106.313
20
-166.785
11
106.027
21
-166.88
0
LINE
8
BLACK
6
CONTINUOUS
10
106.027
20
-166.88
11
105.551
21
-166.88
0
LINE
8
BLACK
6
CONTINUOUS
10
107.551
20
-166.88
11
107.551
21
-165.546
0
LINE
8
BLACK
6
CONTINUOUS
10
107.551
20
-165.927
11
107.646
21
-165.737
0
LINE
8
BLACK
6
CONTINUOUS
10
107.646
20
-165.737
11
107.742
21
-165.642
0
LINE
8
BLACK
6
CONTINUOUS
10
107.742
20
-165.642
11
107.932
21
-165.546
0
LINE
8
BLACK
6
CONTINUOUS
10
107.932
20
-165.546
11
108.123
21
-165.546
0
LINE
8
BLACK
6
CONTINUOUS
10
108.789
20
-166.88
11
108.789
21
-165.546
0
LINE
8
BLACK
6
CONTINUOUS
10
108.789
20
-164.88
11
108.694
21
-164.975
0
LINE
8
BLACK
6
CONTINUOUS
10
108.694
20
-164.975
11
108.789
21
-165.07
0
LINE
8
BLACK
6
CONTINUOUS
10
108.789
20
-165.07
11
108.885
21
-164.975
0
LINE
8
BLACK
6
CONTINUOUS
10
108.885
20
-164.975
11
108.789
21
-164.88
0
LINE
8
BLACK
6
CONTINUOUS
10
108.789
20
-164.88
11
108.789
21
-165.07
0
LINE
8
BLACK
6
CONTINUOUS
10
110.027
20
-166.88
11
109.837
21
-166.785
0
LINE
8
BLACK
6
CONTINUOUS
10
109.837
20
-166.785
11
109.742
21
-166.594
0
LINE
8
BLACK
6
CONTINUOUS
10
109.742
20
-166.594
11
109.742
21
-164.88
0
LINE
8
BLACK
6
CONTINUOUS
10
111.075
20
-166.88
11
110.885
21
-166.785
0
LINE
8
BLACK
6
CONTINUOUS
10
110.885
20
-166.785
11
110.789
21
-166.594
0
LINE
8
BLACK
6
CONTINUOUS
10
110.789
20
-166.594
11
110.789
21
-164.88
0
LINE
8
BLACK
6
CONTINUOUS
10
113.361
20
-166.88
11
113.361
21
-164.88
0
LINE
8
BLACK
6
CONTINUOUS
10
113.361
20
-164.88
11
114.027
21
-166.308
0
LINE
8
BLACK
6
CONTINUOUS
10
114.027
20
-166.308
11
114.694
21
-164.88
0
LINE
8
BLACK
6
CONTINUOUS
10
114.694
20
-164.88
11
114.694
21
-166.88
0
LINE
8
BLACK
6
CONTINUOUS
10
116.504
20
-166.88
11
116.504
21
-165.832
0
LINE
8
BLACK
6
CONTINUOUS
10
116.504
20
-165.832
11
116.408
21
-165.642
0
LINE
8
BLACK
6
CONTINUOUS
10
116.408
20
-165.642
11
116.218
21
-165.546
0
LINE
8
BLACK
6
CONTINUOUS
10
116.218
20
-165.546
11
115.837
21
-165.546
0
LINE
8
BLACK
6
CONTINUOUS
10
115.837
20
-165.546
11
115.646
21
-165.642
0
LINE
8
BLACK
6
CONTINUOUS
10
116.504
20
-166.785
11
116.313
21
-166.88
0
LINE
8
BLACK
6
CONTINUOUS
10
116.313
20
-166.88
11
115.837
21
-166.88
0
LINE
8
BLACK
6
CONTINUOUS
10
115.837
20
-166.88
11
115.646
21
-166.785
0
LINE
8
BLACK
6
CONTINUOUS
10
115.646
20
-166.785
11
115.551
21
-166.594
0
LINE
8
BLACK
6
CONTINUOUS
10
115.551
20
-166.594
11
115.551
21
-166.404
0
LINE
8
BLACK
6
CONTINUOUS
10
115.551
20
-166.404
11
115.646
21
-166.213
0
LINE
8
BLACK
6
CONTINUOUS
10
115.646
20
-166.213
11
115.837
21
-166.118
0
LINE
8
BLACK
6
CONTINUOUS
10
115.837
20
-166.118
11
116.313
21
-166.118
0
LINE
8
BLACK
6
CONTINUOUS
10
116.313
20
-166.118
11
116.504
21
-166.023
0
LINE
8
BLACK
6
CONTINUOUS
10
117.456
20
-165.546
11
117.456
21
-167.546
0
LINE
8
BLACK
6
CONTINUOUS
10
117.456
20
-165.642
11
117.646
21
-165.546
0
LINE
8
BLACK
6
CONTINUOUS
10
117.646
20
-165.546
11
118.027
21
-165.546
0
LINE
8
BLACK
6
CONTINUOUS
10
118.027
20
-165.546
11
118.218
21
-165.642
0
LINE
8
BLACK
6
CONTINUOUS
10
118.218
20
-165.642
11
118.313
21
-165.737
0
LINE
8
BLACK
6
CONTINUOUS
10
118.313
20
-165.737
11
118.408
21
-165.927
0
LINE
8
BLACK
6
CONTINUOUS
10
118.408
20
-165.927
11
118.408
21
-166.499
0
LINE
8
BLACK
6
CONTINUOUS
10
118.408
20
-166.499
11
118.313
21
-166.689
0
LINE
8
BLACK
6
CONTINUOUS
10
118.313
20
-166.689
11
118.218
21
-166.785
0
LINE
8
BLACK
6
CONTINUOUS
10
118.218
20
-166.785
11
118.027
21
-166.88
0
LINE
8
BLACK
6
CONTINUOUS
10
118.027
20
-166.88
11
117.646
21
-166.88
0
LINE
8
BLACK
6
CONTINUOUS
10
117.646
20
-166.88
11
117.456
21
-166.785
0
LINE
8
BLACK
6
CONTINUOUS
10
119.265
20
-166.689
11
119.361
21
-166.785
0
LINE
8
BLACK
6
CONTINUOUS
10
119.361
20
-166.785
11
119.265
21
-166.88
0
LINE
8
BLACK
6
CONTINUOUS
10
119.265
20
-166.88
11
119.17
21
-166.785
0
LINE
8
BLACK
6
CONTINUOUS
10
119.17
20
-166.785
11
119.265
21
-166.689
0
LINE
8
BLACK
6
CONTINUOUS
10
119.265
20
-166.689
11
119.265
21
-166.88
0
LINE
8
BLACK
6
CONTINUOUS
10
119.265
20
-165.642
11
119.361
21
-165.737
0
LINE
8
BLACK
6
CONTINUOUS
10
119.361
20
-165.737
11
119.265
21
-165.832
0
LINE
8
BLACK
6
CONTINUOUS
10
119.265
20
-165.832
11
119.17
21
-165.737
0
LINE
8
BLACK
6
CONTINUOUS
10
119.17
20
-165.737
11
119.265
21
-165.642
0
LINE
8
BLACK
6
CONTINUOUS
10
119.265
20
-165.642
11
119.265
21
-165.832
0
LINE
8
BLACK
6
CONTINUOUS
10
102.575
20
-169.975
11
102.975
21
-170.375
0
LINE
8
BLACK
6
CONTINUOUS
10
102.975
20
-169.975
11
102.575
21
-170.375
0
LINE
8
BLACK
6
CONTINUOUS
10
105.932
20
-169.08
11
106.123
21
-169.08
0
LINE
8
BLACK
6
CONTINUOUS
10
106.123
20
-169.08
11
106.313
21
-169.175
0
LINE
8
BLACK
6
CONTINUOUS
10
106.313
20
-169.175
11
106.408
21
-169.27
0
LINE
8
BLACK
6
CONTINUOUS
10
106.408
20
-169.27
11
106.504
21
-169.461
0
LINE
8
BLACK
6
CONTINUOUS
10
106.504
20
-169.461
11
106.599
21
-169.842
0
LINE
8
BLACK
6
CONTINUOUS
10
106.599
20
-169.842
11
106.599
21
-170.318
0
LINE
8
BLACK
6
CONTINUOUS
10
106.599
20
-170.318
11
106.504
21
-170.699
0
LINE
8
BLACK
6
CONTINUOUS
10
106.504
20
-170.699
11
106.408
21
-170.889
0
LINE
8
BLACK
6
CONTINUOUS
10
106.408
20
-170.889
11
106.313
21
-170.985
0
LINE
8
BLACK
6
CONTINUOUS
10
106.313
20
-170.985
11
106.123
21
-171.08
0
LINE
8
BLACK
6
CONTINUOUS
10
106.123
20
-171.08
11
105.932
21
-171.08
0
LINE
8
BLACK
6
CONTINUOUS
10
105.932
20
-171.08
11
105.742
21
-170.985
0
LINE
8
BLACK
6
CONTINUOUS
10
105.742
20
-170.985
11
105.646
21
-170.889
0
LINE
8
BLACK
6
CONTINUOUS
10
105.646
20
-170.889
11
105.551
21
-170.699
0
LINE
8
BLACK
6
CONTINUOUS
10
105.551
20
-170.699
11
105.456
21
-170.318
0
LINE
8
BLACK
6
CONTINUOUS
10
105.456
20
-170.318
11
105.456
21
-169.842
0
LINE
8
BLACK
6
CONTINUOUS
10
105.456
20
-169.842
11
105.551
21
-169.461
0
LINE
8
BLACK
6
CONTINUOUS
10
105.551
20
-169.461
11
105.646
21
-169.27
0
LINE
8
BLACK
6
CONTINUOUS
10
105.646
20
-169.27
11
105.742
21
-169.175
0
LINE
8
BLACK
6
CONTINUOUS
10
105.742
20
-169.175
11
105.932
21
-169.08
0
LINE
8
BLACK
6
CONTINUOUS
10
107.456
20
-170.889
11
107.551
21
-170.985
0
LINE
8
BLACK
6
CONTINUOUS
10
107.551
20
-170.985
11
107.456
21
-171.08
0
LINE
8
BLACK
6
CONTINUOUS
10
107.456
20
-171.08
11
107.361
21
-170.985
0
LINE
8
BLACK
6
CONTINUOUS
10
107.361
20
-170.985
11
107.456
21
-170.889
0
LINE
8
BLACK
6
CONTINUOUS
10
107.456
20
-170.889
11
107.456
21
-171.08
0
LINE
8
BLACK
6
CONTINUOUS
10
109.265
20
-169.746
11
109.265
21
-171.08
0
LINE
8
BLACK
6
CONTINUOUS
10
108.789
20
-168.985
11
108.313
21
-170.413
0
LINE
8
BLACK
6
CONTINUOUS
10
108.313
20
-170.413
11
109.551
21
-170.413
0
LINE
8
BLACK
6
CONTINUOUS
10
110.694
20
-169.08
11
110.885
21
-169.08
0
LINE
8
BLACK
6
CONTINUOUS
10
110.885
20
-169.08
11
111.075
21
-169.175
0
LINE
8
BLACK
6
CONTINUOUS
10
111.075
20
-169.175
11
111.17
21
-169.27
0
LINE
8
BLACK
6
CONTINUOUS
10
111.17
20
-169.27
11
111.265
21
-169.461
0
LINE
8
BLACK
6
CONTINUOUS
10
111.265
20
-169.461
11
111.361
21
-169.842
0
LINE
8
BLACK
6
CONTINUOUS
10
111.361
20
-169.842
11
111.361
21
-170.318
0
LINE
8
BLACK
6
CONTINUOUS
10
111.361
20
-170.318
11
111.265
21
-170.699
0
LINE
8
BLACK
6
CONTINUOUS
10
111.265
20
-170.699
11
111.17
21
-170.889
0
LINE
8
BLACK
6
CONTINUOUS
10
111.17
20
-170.889
11
111.075
21
-170.985
0
LINE
8
BLACK
6
CONTINUOUS
10
111.075
20
-170.985
11
110.885
21
-171.08
0
LINE
8
BLACK
6
CONTINUOUS
10
110.885
20
-171.08
11
110.694
21
-171.08
0
LINE
8
BLACK
6
CONTINUOUS
10
110.694
20
-171.08
11
110.504
21
-170.985
0
LINE
8
BLACK
6
CONTINUOUS
10
110.504
20
-170.985
11
110.408
21
-170.889
0
LINE
8
BLACK
6
CONTINUOUS
10
110.408
20
-170.889
11
110.313
21
-170.699
0
LINE
8
BLACK
6
CONTINUOUS
10
110.313
20
-170.699
11
110.218
21
-170.318
0
LINE
8
BLACK
6
CONTINUOUS
10
110.218
20
-170.318
11
110.218
21
-169.842
0
LINE
8
BLACK
6
CONTINUOUS
10
110.218
20
-169.842
11
110.313
21
-169.461
0
LINE
8
BLACK
6
CONTINUOUS
10
110.313
20
-169.461
11
110.408
21
-169.27
0
LINE
8
BLACK
6
CONTINUOUS
10
110.408
20
-169.27
11
110.504
21
-169.175
0
LINE
8
BLACK
6
CONTINUOUS
10
110.504
20
-169.175
11
110.694
21
-169.08
0
LINE
8
BLACK
6
CONTINUOUS
10
112.599
20
-169.08
11
112.789
21
-169.08
0
LINE
8
BLACK
6
CONTINUOUS
10
112.789
20
-169.08
11
112.98
21
-169.175
0
LINE
8
BLACK
6
CONTINUOUS
10
112.98
20
-169.175
11
113.075
21
-169.27
0
LINE
8
BLACK
6
CONTINUOUS
10
113.075
20
-169.27
11
113.17
21
-169.461
0
LINE
8
BLACK
6
CONTINUOUS
10
113.17
20
-169.461
11
113.265
21
-169.842
0
LINE
8
BLACK
6
CONTINUOUS
10
113.265
20
-169.842
11
113.265
21
-170.318
0
LINE
8
BLACK
6
CONTINUOUS
10
113.265
20
-170.318
11
113.17
21
-170.699
0
LINE
8
BLACK
6
CONTINUOUS
10
113.17
20
-170.699
11
113.075
21
-170.889
0
LINE
8
BLACK
6
CONTINUOUS
10
113.075
20
-170.889
11
112.98
21
-170.985
0
LINE
8
BLACK
6
CONTINUOUS
10
112.98
20
-170.985
11
112.789
21
-171.08
0
LINE
8
BLACK
6
CONTINUOUS
10
112.789
20
-171.08
11
112.599
21
-171.08
0
LINE
8
BLACK
6
CONTINUOUS
10
112.599
20
-171.08
11
112.408
21
-170.985
0
LINE
8
BLACK
6
CONTINUOUS
10
112.408
20
-170.985
11
112.313
21
-170.889
0
LINE
8
BLACK
6
CONTINUOUS
10
112.313
20
-170.889
11
112.218
21
-170.699
0
LINE
8
BLACK
6
CONTINUOUS
10
112.218
20
-170.699
11
112.123
21
-170.318
0
LINE
8
BLACK
6
CONTINUOUS
10
112.123
20
-170.318
11
112.123
21
-169.842
0
LINE
8
BLACK
6
CONTINUOUS
10
112.123
20
-169.842
11
112.218
21
-169.461
0
LINE
8
BLACK
6
CONTINUOUS
10
112.218
20
-169.461
11
112.313
21
-169.27
0
LINE
8
BLACK
6
CONTINUOUS
10
112.313
20
-169.27
11
112.408
21
-169.175
0
LINE
8
BLACK
6
CONTINUOUS
10
112.408
20
-169.175
11
112.599
21
-169.08
0
LINE
8
BLACK
6
CONTINUOUS
10
114.123
20
-171.08
11
114.123
21
-169.746
0
LINE
8
BLACK
6
CONTINUOUS
10
114.123
20
-169.937
11
114.218
21
-169.842
0
LINE
8
BLACK
6
CONTINUOUS
10
114.218
20
-169.842
11
114.408
21
-169.746
0
LINE
8
BLACK
6
CONTINUOUS
10
114.408
20
-169.746
11
114.694
21
-169.746
0
LINE
8
BLACK
6
CONTINUOUS
10
114.694
20
-169.746
11
114.885
21
-169.842
0
LINE
8
BLACK
6
CONTINUOUS
10
114.885
20
-169.842
11
114.98
21
-170.032
0
LINE
8
BLACK
6
CONTINUOUS
10
114.98
20
-170.032
11
114.98
21
-171.08
0
LINE
8
BLACK
6
CONTINUOUS
10
114.98
20
-170.032
11
115.075
21
-169.842
0
LINE
8
BLACK
6
CONTINUOUS
10
115.075
20
-169.842
11
115.265
21
-169.746
0
LINE
8
BLACK
6
CONTINUOUS
10
115.265
20
-169.746
11
115.551
21
-169.746
0
LINE
8
BLACK
6
CONTINUOUS
10
115.551
20
-169.746
11
115.742
21
-169.842
0
LINE
8
BLACK
6
CONTINUOUS
10
115.742
20
-169.842
11
115.837
21
-170.032
0
LINE
8
BLACK
6
CONTINUOUS
10
115.837
20
-170.032
11
115.837
21
-171.08
0
LINE
8
BLACK
6
CONTINUOUS
10
116.789
20
-171.08
11
116.789
21
-169.746
0
LINE
8
BLACK
6
CONTINUOUS
10
116.789
20
-169.937
11
116.885
21
-169.842
0
LINE
8
BLACK
6
CONTINUOUS
10
116.885
20
-169.842
11
117.075
21
-169.746
0
LINE
8
BLACK
6
CONTINUOUS
10
117.075
20
-169.746
11
117.361
21
-169.746
0
LINE
8
BLACK
6
CONTINUOUS
10
117.361
20
-169.746
11
117.551
21
-169.842
0
LINE
8
BLACK
6
CONTINUOUS
10
117.551
20
-169.842
11
117.646
21
-170.032
0
LINE
8
BLACK
6
CONTINUOUS
10
117.646
20
-170.032
11
117.646
21
-171.08
0
LINE
8
BLACK
6
CONTINUOUS
10
117.646
20
-170.032
11
117.742
21
-169.842
0
LINE
8
BLACK
6
CONTINUOUS
10
117.742
20
-169.842
11
117.932
21
-169.746
0
LINE
8
BLACK
6
CONTINUOUS
10
117.932
20
-169.746
11
118.218
21
-169.746
0
LINE
8
BLACK
6
CONTINUOUS
10
118.218
20
-169.746
11
118.408
21
-169.842
0
LINE
8
BLACK
6
CONTINUOUS
10
118.408
20
-169.842
11
118.504
21
-170.032
0
LINE
8
BLACK
6
CONTINUOUS
10
118.504
20
-170.032
11
118.504
21
-171.08
0
LINE
8
BLACK
6
CONTINUOUS
10
122.408
20
-168.985
11
120.694
21
-171.556
0
LINE
8
BLACK
6
CONTINUOUS
10
124.98
20
-169.08
11
125.17
21
-169.08
0
LINE
8
BLACK
6
CONTINUOUS
10
125.17
20
-169.08
11
125.361
21
-169.175
0
LINE
8
BLACK
6
CONTINUOUS
10
125.361
20
-169.175
11
125.456
21
-169.27
0
LINE
8
BLACK
6
CONTINUOUS
10
125.456
20
-169.27
11
125.551
21
-169.461
0
LINE
8
BLACK
6
CONTINUOUS
10
125.551
20
-169.461
11
125.646
21
-169.842
0
LINE
8
BLACK
6
CONTINUOUS
10
125.646
20
-169.842
11
125.646
21
-170.318
0
LINE
8
BLACK
6
CONTINUOUS
10
125.646
20
-170.318
11
125.551
21
-170.699
0
LINE
8
BLACK
6
CONTINUOUS
10
125.551
20
-170.699
11
125.456
21
-170.889
0
LINE
8
BLACK
6
CONTINUOUS
10
125.456
20
-170.889
11
125.361
21
-170.985
0
LINE
8
BLACK
6
CONTINUOUS
10
125.361
20
-170.985
11
125.17
21
-171.08
0
LINE
8
BLACK
6
CONTINUOUS
10
125.17
20
-171.08
11
124.98
21
-171.08
0
LINE
8
BLACK
6
CONTINUOUS
10
124.98
20
-171.08
11
124.789
21
-170.985
0
LINE
8
BLACK
6
CONTINUOUS
10
124.789
20
-170.985
11
124.694
21
-170.889
0
LINE
8
BLACK
6
CONTINUOUS
10
124.694
20
-170.889
11
124.599
21
-170.699
0
LINE
8
BLACK
6
CONTINUOUS
10
124.599
20
-170.699
11
124.504
21
-170.318
0
LINE
8
BLACK
6
CONTINUOUS
10
124.504
20
-170.318
11
124.504
21
-169.842
0
LINE
8
BLACK
6
CONTINUOUS
10
124.504
20
-169.842
11
124.599
21
-169.461
0
LINE
8
BLACK
6
CONTINUOUS
10
124.599
20
-169.461
11
124.694
21
-169.27
0
LINE
8
BLACK
6
CONTINUOUS
10
124.694
20
-169.27
11
124.789
21
-169.175
0
LINE
8
BLACK
6
CONTINUOUS
10
124.789
20
-169.175
11
124.98
21
-169.08
0
LINE
8
BLACK
6
CONTINUOUS
10
126.504
20
-170.889
11
126.599
21
-170.985
0
LINE
8
BLACK
6
CONTINUOUS
10
126.599
20
-170.985
11
126.504
21
-171.08
0
LINE
8
BLACK
6
CONTINUOUS
10
126.504
20
-171.08
11
126.408
21
-170.985
0
LINE
8
BLACK
6
CONTINUOUS
10
126.408
20
-170.985
11
126.504
21
-170.889
0
LINE
8
BLACK
6
CONTINUOUS
10
126.504
20
-170.889
11
126.504
21
-171.08
0
LINE
8
BLACK
6
CONTINUOUS
10
127.837
20
-169.08
11
128.027
21
-169.08
0
LINE
8
BLACK
6
CONTINUOUS
10
128.027
20
-169.08
11
128.218
21
-169.175
0
LINE
8
BLACK
6
CONTINUOUS
10
128.218
20
-169.175
11
128.313
21
-169.27
0
LINE
8
BLACK
6
CONTINUOUS
10
128.313
20
-169.27
11
128.408
21
-169.461
0
LINE
8
BLACK
6
CONTINUOUS
10
128.408
20
-169.461
11
128.504
21
-169.842
0
LINE
8
BLACK
6
CONTINUOUS
10
128.504
20
-169.842
11
128.504
21
-170.318
0
LINE
8
BLACK
6
CONTINUOUS
10
128.504
20
-170.318
11
128.408
21
-170.699
0
LINE
8
BLACK
6
CONTINUOUS
10
128.408
20
-170.699
11
128.313
21
-170.889
0
LINE
8
BLACK
6
CONTINUOUS
10
128.313
20
-170.889
11
128.218
21
-170.985
0
LINE
8
BLACK
6
CONTINUOUS
10
128.218
20
-170.985
11
128.027
21
-171.08
0
LINE
8
BLACK
6
CONTINUOUS
10
128.027
20
-171.08
11
127.837
21
-171.08
0
LINE
8
BLACK
6
CONTINUOUS
10
127.837
20
-171.08
11
127.646
21
-170.985
0
LINE
8
BLACK
6
CONTINUOUS
10
127.646
20
-170.985
11
127.551
21
-170.889
0
LINE
8
BLACK
6
CONTINUOUS
10
127.551
20
-170.889
11
127.456
21
-170.699
0
LINE
8
BLACK
6
CONTINUOUS
10
127.456
20
-170.699
11
127.361
21
-170.318
0
LINE
8
BLACK
6
CONTINUOUS
10
127.361
20
-170.318
11
127.361
21
-169.842
0
LINE
8
BLACK
6
CONTINUOUS
10
127.361
20
-169.842
11
127.456
21
-169.461
0
LINE
8
BLACK
6
CONTINUOUS
10
127.456
20
-169.461
11
127.551
21
-169.27
0
LINE
8
BLACK
6
CONTINUOUS
10
127.551
20
-169.27
11
127.646
21
-169.175
0
LINE
8
BLACK
6
CONTINUOUS
10
127.646
20
-169.175
11
127.837
21
-169.08
0
LINE
8
BLACK
6
CONTINUOUS
10
130.408
20
-171.08
11
129.265
21
-171.08
0
LINE
8
BLACK
6
CONTINUOUS
10
129.837
20
-171.08
11
129.837
21
-169.08
0
LINE
8
BLACK
6
CONTINUOUS
10
129.837
20
-169.08
11
129.646
21
-169.365
0
LINE
8
BLACK
6
CONTINUOUS
10
129.646
20
-169.365
11
129.456
21
-169.556
0
LINE
8
BLACK
6
CONTINUOUS
10
129.456
20
-169.556
11
129.265
21
-169.651
0
LINE
8
BLACK
6
CONTINUOUS
10
132.218
20
-169.08
11
131.265
21
-169.08
0
LINE
8
BLACK
6
CONTINUOUS
10
131.265
20
-169.08
11
131.17
21
-170.032
0
LINE
8
BLACK
6
CONTINUOUS
10
131.17
20
-170.032
11
131.265
21
-169.937
0
LINE
8
BLACK
6
CONTINUOUS
10
131.265
20
-169.937
11
131.456
21
-169.842
0
LINE
8
BLACK
6
CONTINUOUS
10
131.456
20
-169.842
11
131.932
21
-169.842
0
LINE
8
BLACK
6
CONTINUOUS
10
131.932
20
-169.842
11
132.123
21
-169.937
0
LINE
8
BLACK
6
CONTINUOUS
10
132.123
20
-169.937
11
132.218
21
-170.032
0
LINE
8
BLACK
6
CONTINUOUS
10
132.218
20
-170.032
11
132.313
21
-170.223
0
LINE
8
BLACK
6
CONTINUOUS
10
132.313
20
-170.223
11
132.313
21
-170.699
0
LINE
8
BLACK
6
CONTINUOUS
10
132.313
20
-170.699
11
132.218
21
-170.889
0
LINE
8
BLACK
6
CONTINUOUS
10
132.218
20
-170.889
11
132.123
21
-170.985
0
LINE
8
BLACK
6
CONTINUOUS
10
132.123
20
-170.985
11
131.932
21
-171.08
0
LINE
8
BLACK
6
CONTINUOUS
10
131.932
20
-171.08
11
131.456
21
-171.08
0
LINE
8
BLACK
6
CONTINUOUS
10
131.456
20
-171.08
11
131.265
21
-170.985
0
LINE
8
BLACK
6
CONTINUOUS
10
131.265
20
-170.985
11
131.17
21
-170.889
0
LINE
8
BLACK
6
CONTINUOUS
10
132.98
20
-169.08
11
134.313
21
-169.08
0
LINE
8
BLACK
6
CONTINUOUS
10
134.313
20
-169.08
11
133.456
21
-171.08
0
LINE
8
BLACK
6
CONTINUOUS
10
134.98
20
-169.08
11
134.98
21
-169.461
0
LINE
8
BLACK
6
CONTINUOUS
10
135.742
20
-169.08
11
135.742
21
-169.461
0
LINE
8
BLACK
6
CONTINUOUS
10
138.694
20
-171.842
11
138.599
21
-171.746
0
LINE
8
BLACK
6
CONTINUOUS
10
138.599
20
-171.746
11
138.408
21
-171.461
0
LINE
8
BLACK
6
CONTINUOUS
10
138.408
20
-171.461
11
138.313
21
-171.27
0
LINE
8
BLACK
6
CONTINUOUS
10
138.313
20
-171.27
11
138.218
21
-170.985
0
LINE
8
BLACK
6
CONTINUOUS
10
138.218
20
-170.985
11
138.123
21
-170.508
0
LINE
8
BLACK
6
CONTINUOUS
10
138.123
20
-170.508
11
138.123
21
-170.127
0
LINE
8
BLACK
6
CONTINUOUS
10
138.123
20
-170.127
11
138.218
21
-169.651
0
LINE
8
BLACK
6
CONTINUOUS
10
138.218
20
-169.651
11
138.313
21
-169.365
0
LINE
8
BLACK
6
CONTINUOUS
10
138.313
20
-169.365
11
138.408
21
-169.175
0
LINE
8
BLACK
6
CONTINUOUS
10
138.408
20
-169.175
11
138.599
21
-168.889
0
LINE
8
BLACK
6
CONTINUOUS
10
138.599
20
-168.889
11
138.694
21
-168.794
0
LINE
8
BLACK
6
CONTINUOUS
10
139.361
20
-169.27
11
139.456
21
-169.175
0
LINE
8
BLACK
6
CONTINUOUS
10
139.456
20
-169.175
11
139.646
21
-169.08
0
LINE
8
BLACK
6
CONTINUOUS
10
139.646
20
-169.08
11
140.123
21
-169.08
0
LINE
8
BLACK
6
CONTINUOUS
10
140.123
20
-169.08
11
140.313
21
-169.175
0
LINE
8
BLACK
6
CONTINUOUS
10
140.313
20
-169.175
11
140.408
21
-169.27
0
LINE
8
BLACK
6
CONTINUOUS
10
140.408
20
-169.27
11
140.504
21
-169.461
0
LINE
8
BLACK
6
CONTINUOUS
10
140.504
20
-169.461
11
140.504
21
-169.651
0
LINE
8
BLACK
6
CONTINUOUS
10
140.504
20
-169.651
11
140.408
21
-169.937
0
LINE
8
BLACK
6
CONTINUOUS
10
140.408
20
-169.937
11
139.265
21
-171.08
0
LINE
8
BLACK
6
CONTINUOUS
10
139.265
20
-171.08
11
140.504
21
-171.08
0
LINE
8
BLACK
6
CONTINUOUS
10
142.313
20
-169.08
11
141.361
21
-169.08
0
LINE
8
BLACK
6
CONTINUOUS
10
141.361
20
-169.08
11
141.265
21
-170.032
0
LINE
8
BLACK
6
CONTINUOUS
10
141.265
20
-170.032
11
141.361
21
-169.937
0
LINE
8
BLACK
6
CONTINUOUS
10
141.361
20
-169.937
11
141.551
21
-169.842
0
LINE
8
BLACK
6
CONTINUOUS
10
141.551
20
-169.842
11
142.027
21
-169.842
0
LINE
8
BLACK
6
CONTINUOUS
10
142.027
20
-169.842
11
142.218
21
-169.937
0
LINE
8
BLACK
6
CONTINUOUS
10
142.218
20
-169.937
11
142.313
21
-170.032
0
LINE
8
BLACK
6
CONTINUOUS
10
142.313
20
-170.032
11
142.408
21
-170.223
0
LINE
8
BLACK
6
CONTINUOUS
10
142.408
20
-170.223
11
142.408
21
-170.699
0
LINE
8
BLACK
6
CONTINUOUS
10
142.408
20
-170.699
11
142.313
21
-170.889
0
LINE
8
BLACK
6
CONTINUOUS
10
142.313
20
-170.889
11
142.218
21
-170.985
0
LINE
8
BLACK
6
CONTINUOUS
10
142.218
20
-170.985
11
142.027
21
-171.08
0
LINE
8
BLACK
6
CONTINUOUS
10
142.027
20
-171.08
11
141.551
21
-171.08
0
LINE
8
BLACK
6
CONTINUOUS
10
141.551
20
-171.08
11
141.361
21
-170.985
0
LINE
8
BLACK
6
CONTINUOUS
10
141.361
20
-170.985
11
141.265
21
-170.889
0
LINE
8
BLACK
6
CONTINUOUS
10
144.789
20
-171.08
11
144.789
21
-169.08
0
LINE
8
BLACK
6
CONTINUOUS
10
145.646
20
-171.08
11
145.646
21
-170.032
0
LINE
8
BLACK
6
CONTINUOUS
10
145.646
20
-170.032
11
145.551
21
-169.842
0
LINE
8
BLACK
6
CONTINUOUS
10
145.551
20
-169.842
11
145.361
21
-169.746
0
LINE
8
BLACK
6
CONTINUOUS
10
145.361
20
-169.746
11
145.075
21
-169.746
0
LINE
8
BLACK
6
CONTINUOUS
10
145.075
20
-169.746
11
144.885
21
-169.842
0
LINE
8
BLACK
6
CONTINUOUS
10
144.885
20
-169.842
11
144.789
21
-169.937
0
LINE
8
BLACK
6
CONTINUOUS
10
146.885
20
-171.08
11
146.694
21
-170.985
0
LINE
8
BLACK
6
CONTINUOUS
10
146.694
20
-170.985
11
146.599
21
-170.889
0
LINE
8
BLACK
6
CONTINUOUS
10
146.599
20
-170.889
11
146.504
21
-170.699
0
LINE
8
BLACK
6
CONTINUOUS
10
146.504
20
-170.699
11
146.504
21
-170.127
0
LINE
8
BLACK
6
CONTINUOUS
10
146.504
20
-170.127
11
146.599
21
-169.937
0
LINE
8
BLACK
6
CONTINUOUS
10
146.599
20
-169.937
11
146.694
21
-169.842
0
LINE
8
BLACK
6
CONTINUOUS
10
146.694
20
-169.842
11
146.885
21
-169.746
0
LINE
8
BLACK
6
CONTINUOUS
10
146.885
20
-169.746
11
147.17
21
-169.746
0
LINE
8
BLACK
6
CONTINUOUS
10
147.17
20
-169.746
11
147.361
21
-169.842
0
LINE
8
BLACK
6
CONTINUOUS
10
147.361
20
-169.842
11
147.456
21
-169.937
0
LINE
8
BLACK
6
CONTINUOUS
10
147.456
20
-169.937
11
147.551
21
-170.127
0
LINE
8
BLACK
6
CONTINUOUS
10
147.551
20
-170.127
11
147.551
21
-170.699
0
LINE
8
BLACK
6
CONTINUOUS
10
147.551
20
-170.699
11
147.456
21
-170.889
0
LINE
8
BLACK
6
CONTINUOUS
10
147.456
20
-170.889
11
147.361
21
-170.985
0
LINE
8
BLACK
6
CONTINUOUS
10
147.361
20
-170.985
11
147.17
21
-171.08
0
LINE
8
BLACK
6
CONTINUOUS
10
147.17
20
-171.08
11
146.885
21
-171.08
0
LINE
8
BLACK
6
CONTINUOUS
10
148.694
20
-171.08
11
148.504
21
-170.985
0
LINE
8
BLACK
6
CONTINUOUS
10
148.504
20
-170.985
11
148.408
21
-170.794
0
LINE
8
BLACK
6
CONTINUOUS
10
148.408
20
-170.794
11
148.408
21
-169.08
0
LINE
8
BLACK
6
CONTINUOUS
10
150.218
20
-170.985
11
150.027
21
-171.08
0
LINE
8
BLACK
6
CONTINUOUS
10
150.027
20
-171.08
11
149.646
21
-171.08
0
LINE
8
BLACK
6
CONTINUOUS
10
149.646
20
-171.08
11
149.456
21
-170.985
0
LINE
8
BLACK
6
CONTINUOUS
10
149.456
20
-170.985
11
149.361
21
-170.794
0
LINE
8
BLACK
6
CONTINUOUS
10
149.361
20
-170.794
11
149.361
21
-170.032
0
LINE
8
BLACK
6
CONTINUOUS
10
149.361
20
-170.032
11
149.456
21
-169.842
0
LINE
8
BLACK
6
CONTINUOUS
10
149.456
20
-169.842
11
149.646
21
-169.746
0
LINE
8
BLACK
6
CONTINUOUS
10
149.646
20
-169.746
11
150.027
21
-169.746
0
LINE
8
BLACK
6
CONTINUOUS
10
150.027
20
-169.746
11
150.218
21
-169.842
0
LINE
8
BLACK
6
CONTINUOUS
10
150.218
20
-169.842
11
150.313
21
-170.032
0
LINE
8
BLACK
6
CONTINUOUS
10
150.313
20
-170.032
11
150.313
21
-170.223
0
LINE
8
BLACK
6
CONTINUOUS
10
150.313
20
-170.223
11
149.361
21
-170.413
0
LINE
8
BLACK
6
CONTINUOUS
10
151.075
20
-170.985
11
151.265
21
-171.08
0
LINE
8
BLACK
6
CONTINUOUS
10
151.265
20
-171.08
11
151.646
21
-171.08
0
LINE
8
BLACK
6
CONTINUOUS
10
151.646
20
-171.08
11
151.837
21
-170.985
0
LINE
8
BLACK
6
CONTINUOUS
10
151.837
20
-170.985
11
151.932
21
-170.794
0
LINE
8
BLACK
6
CONTINUOUS
10
151.932
20
-170.794
11
151.932
21
-170.699
0
LINE
8
BLACK
6
CONTINUOUS
10
151.932
20
-170.699
11
151.837
21
-170.508
0
LINE
8
BLACK
6
CONTINUOUS
10
151.837
20
-170.508
11
151.646
21
-170.413
0
LINE
8
BLACK
6
CONTINUOUS
10
151.646
20
-170.413
11
151.361
21
-170.413
0
LINE
8
BLACK
6
CONTINUOUS
10
151.361
20
-170.413
11
151.17
21
-170.318
0
LINE
8
BLACK
6
CONTINUOUS
10
151.17
20
-170.318
11
151.075
21
-170.127
0
LINE
8
BLACK
6
CONTINUOUS
10
151.075
20
-170.127
11
151.075
21
-170.032
0
LINE
8
BLACK
6
CONTINUOUS
10
151.075
20
-170.032
11
151.17
21
-169.842
0
LINE
8
BLACK
6
CONTINUOUS
10
151.17
20
-169.842
11
151.361
21
-169.746
0
LINE
8
BLACK
6
CONTINUOUS
10
151.361
20
-169.746
11
151.646
21
-169.746
0
LINE
8
BLACK
6
CONTINUOUS
10
151.646
20
-169.746
11
151.837
21
-169.842
0
LINE
8
BLACK
6
CONTINUOUS
10
152.599
20
-171.842
11
152.694
21
-171.746
0
LINE
8
BLACK
6
CONTINUOUS
10
152.694
20
-171.746
11
152.885
21
-171.461
0
LINE
8
BLACK
6
CONTINUOUS
10
152.885
20
-171.461
11
152.98
21
-171.27
0
LINE
8
BLACK
6
CONTINUOUS
10
152.98
20
-171.27
11
153.075
21
-170.985
0
LINE
8
BLACK
6
CONTINUOUS
10
153.075
20
-170.985
11
153.17
21
-170.508
0
LINE
8
BLACK
6
CONTINUOUS
10
153.17
20
-170.508
11
153.17
21
-170.127
0
LINE
8
BLACK
6
CONTINUOUS
10
153.17
20
-170.127
11
153.075
21
-169.651
0
LINE
8
BLACK
6
CONTINUOUS
10
153.075
20
-169.651
11
152.98
21
-169.365
0
LINE
8
BLACK
6
CONTINUOUS
10
152.98
20
-169.365
11
152.885
21
-169.175
0
LINE
8
BLACK
6
CONTINUOUS
10
152.885
20
-169.175
11
152.694
21
-168.889
0
LINE
8
BLACK
6
CONTINUOUS
10
152.694
20
-168.889
11
152.599
21
-168.794
0
CIRCLE
8
BLACK
10
101.975
20
-172.815
40
1
0
LINE
8
BLACK
6
CONTINUOUS
10
105.456
20
-171.91
11
105.551
21
-171.815
0
LINE
8
BLACK
6
CONTINUOUS
10
105.551
20
-171.815
11
105.742
21
-171.72
0
LINE
8
BLACK
6
CONTINUOUS
10
105.742
20
-171.72
11
106.218
21
-171.72
0
LINE
8
BLACK
6
CONTINUOUS
10
106.218
20
-171.72
11
106.408
21
-171.815
0
LINE
8
BLACK
6
CONTINUOUS
10
106.408
20
-171.815
11
106.504
21
-171.91
0
LINE
8
BLACK
6
CONTINUOUS
10
106.504
20
-171.91
11
106.599
21
-172.101
0
LINE
8
BLACK
6
CONTINUOUS
10
106.599
20
-172.101
11
106.599
21
-172.291
0
LINE
8
BLACK
6
CONTINUOUS
10
106.599
20
-172.291
11
106.504
21
-172.577
0
LINE
8
BLACK
6
CONTINUOUS
10
106.504
20
-172.577
11
105.361
21
-173.72
0
LINE
8
BLACK
6
CONTINUOUS
10
105.361
20
-173.72
11
106.599
21
-173.72
0
LINE
8
BLACK
6
CONTINUOUS
10
107.456
20
-173.529
11
107.551
21
-173.625
0
LINE
8
BLACK
6
CONTINUOUS
10
107.551
20
-173.625
11
107.456
21
-173.72
0
LINE
8
BLACK
6
CONTINUOUS
10
107.456
20
-173.72
11
107.361
21
-173.625
0
LINE
8
BLACK
6
CONTINUOUS
10
107.361
20
-173.625
11
107.456
21
-173.529
0
LINE
8
BLACK
6
CONTINUOUS
10
107.456
20
-173.529
11
107.456
21
-173.72
0
LINE
8
BLACK
6
CONTINUOUS
10
108.504
20
-173.72
11
108.885
21
-173.72
0
LINE
8
BLACK
6
CONTINUOUS
10
108.885
20
-173.72
11
109.075
21
-173.625
0
LINE
8
BLACK
6
CONTINUOUS
10
109.075
20
-173.625
11
109.17
21
-173.529
0
LINE
8
BLACK
6
CONTINUOUS
10
109.17
20
-173.529
11
109.361
21
-173.244
0
LINE
8
BLACK
6
CONTINUOUS
10
109.361
20
-173.244
11
109.456
21
-172.863
0
LINE
8
BLACK
6
CONTINUOUS
10
109.456
20
-172.863
11
109.456
21
-172.101
0
LINE
8
BLACK
6
CONTINUOUS
10
109.456
20
-172.101
11
109.361
21
-171.91
0
LINE
8
BLACK
6
CONTINUOUS
10
109.361
20
-171.91
11
109.265
21
-171.815
0
LINE
8
BLACK
6
CONTINUOUS
10
109.265
20
-171.815
11
109.075
21
-171.72
0
LINE
8
BLACK
6
CONTINUOUS
10
109.075
20
-171.72
11
108.694
21
-171.72
0
LINE
8
BLACK
6
CONTINUOUS
10
108.694
20
-171.72
11
108.504
21
-171.815
0
LINE
8
BLACK
6
CONTINUOUS
10
108.504
20
-171.815
11
108.408
21
-171.91
0
LINE
8
BLACK
6
CONTINUOUS
10
108.408
20
-171.91
11
108.313
21
-172.101
0
LINE
8
BLACK
6
CONTINUOUS
10
108.313
20
-172.101
11
108.313
21
-172.577
0
LINE
8
BLACK
6
CONTINUOUS
10
108.313
20
-172.577
11
108.408
21
-172.767
0
LINE
8
BLACK
6
CONTINUOUS
10
108.408
20
-172.767
11
108.504
21
-172.863
0
LINE
8
BLACK
6
CONTINUOUS
10
108.504
20
-172.863
11
108.694
21
-172.958
0
LINE
8
BLACK
6
CONTINUOUS
10
108.694
20
-172.958
11
109.075
21
-172.958
0
LINE
8
BLACK
6
CONTINUOUS
10
109.075
20
-172.958
11
109.265
21
-172.863
0
LINE
8
BLACK
6
CONTINUOUS
10
109.265
20
-172.863
11
109.361
21
-172.767
0
LINE
8
BLACK
6
CONTINUOUS
10
109.361
20
-172.767
11
109.456
21
-172.577
0
LINE
8
BLACK
6
CONTINUOUS
10
111.265
20
-171.72
11
110.313
21
-171.72
0
LINE
8
BLACK
6
CONTINUOUS
10
110.313
20
-171.72
11
110.218
21
-172.672
0
LINE
8
BLACK
6
CONTINUOUS
10
110.218
20
-172.672
11
110.313
21
-172.577
0
LINE
8
BLACK
6
CONTINUOUS
10
110.313
20
-172.577
11
110.504
21
-172.482
0
LINE
8
BLACK
6
CONTINUOUS
10
110.504
20
-172.482
11
110.98
21
-172.482
0
LINE
8
BLACK
6
CONTINUOUS
10
110.98
20
-172.482
11
111.17
21
-172.577
0
LINE
8
BLACK
6
CONTINUOUS
10
111.17
20
-172.577
11
111.265
21
-172.672
0
LINE
8
BLACK
6
CONTINUOUS
10
111.265
20
-172.672
11
111.361
21
-172.863
0
LINE
8
BLACK
6
CONTINUOUS
10
111.361
20
-172.863
11
111.361
21
-173.339
0
LINE
8
BLACK
6
CONTINUOUS
10
111.361
20
-173.339
11
111.265
21
-173.529
0
LINE
8
BLACK
6
CONTINUOUS
10
111.265
20
-173.529
11
111.17
21
-173.625
0
LINE
8
BLACK
6
CONTINUOUS
10
111.17
20
-173.625
11
110.98
21
-173.72
0
LINE
8
BLACK
6
CONTINUOUS
10
110.98
20
-173.72
11
110.504
21
-173.72
0
LINE
8
BLACK
6
CONTINUOUS
10
110.504
20
-173.72
11
110.313
21
-173.625
0
LINE
8
BLACK
6
CONTINUOUS
10
110.313
20
-173.625
11
110.218
21
-173.529
0
LINE
8
BLACK
6
CONTINUOUS
10
112.599
20
-171.72
11
112.789
21
-171.72
0
LINE
8
BLACK
6
CONTINUOUS
10
112.789
20
-171.72
11
112.98
21
-171.815
0
LINE
8
BLACK
6
CONTINUOUS
10
112.98
20
-171.815
11
113.075
21
-171.91
0
LINE
8
BLACK
6
CONTINUOUS
10
113.075
20
-171.91
11
113.17
21
-172.101
0
LINE
8
BLACK
6
CONTINUOUS
10
113.17
20
-172.101
11
113.265
21
-172.482
0
LINE
8
BLACK
6
CONTINUOUS
10
113.265
20
-172.482
11
113.265
21
-172.958
0
LINE
8
BLACK
6
CONTINUOUS
10
113.265
20
-172.958
11
113.17
21
-173.339
0
LINE
8
BLACK
6
CONTINUOUS
10
113.17
20
-173.339
11
113.075
21
-173.529
0
LINE
8
BLACK
6
CONTINUOUS
10
113.075
20
-173.529
11
112.98
21
-173.625
0
LINE
8
BLACK
6
CONTINUOUS
10
112.98
20
-173.625
11
112.789
21
-173.72
0
LINE
8
BLACK
6
CONTINUOUS
10
112.789
20
-173.72
11
112.599
21
-173.72
0
LINE
8
BLACK
6
CONTINUOUS
10
112.599
20
-173.72
11
112.408
21
-173.625
0
LINE
8
BLACK
6
CONTINUOUS
10
112.408
20
-173.625
11
112.313
21
-173.529
0
LINE
8
BLACK
6
CONTINUOUS
10
112.313
20
-173.529
11
112.218
21
-173.339
0
LINE
8
BLACK
6
CONTINUOUS
10
112.218
20
-173.339
11
112.123
21
-172.958
0
LINE
8
BLACK
6
CONTINUOUS
10
112.123
20
-172.958
11
112.123
21
-172.482
0
LINE
8
BLACK
6
CONTINUOUS
10
112.123
20
-172.482
11
112.218
21
-172.101
0
LINE
8
BLACK
6
CONTINUOUS
10
112.218
20
-172.101
11
112.313
21
-171.91
0
LINE
8
BLACK
6
CONTINUOUS
10
112.313
20
-171.91
11
112.408
21
-171.815
0
LINE
8
BLACK
6
CONTINUOUS
10
112.408
20
-171.815
11
112.599
21
-171.72
0
LINE
8
BLACK
6
CONTINUOUS
10
114.123
20
-173.72
11
114.123
21
-172.386
0
LINE
8
BLACK
6
CONTINUOUS
10
114.123
20
-172.577
11
114.218
21
-172.482
0
LINE
8
BLACK
6
CONTINUOUS
10
114.218
20
-172.482
11
114.408
21
-172.386
0
LINE
8
BLACK
6
CONTINUOUS
10
114.408
20
-172.386
11
114.694
21
-172.386
0
LINE
8
BLACK
6
CONTINUOUS
10
114.694
20
-172.386
11
114.885
21
-172.482
0
LINE
8
BLACK
6
CONTINUOUS
10
114.885
20
-172.482
11
114.98
21
-172.672
0
LINE
8
BLACK
6
CONTINUOUS
10
114.98
20
-172.672
11
114.98
21
-173.72
0
LINE
8
BLACK
6
CONTINUOUS
10
114.98
20
-172.672
11
115.075
21
-172.482
0
LINE
8
BLACK
6
CONTINUOUS
10
115.075
20
-172.482
11
115.265
21
-172.386
0
LINE
8
BLACK
6
CONTINUOUS
10
115.265
20
-172.386
11
115.551
21
-172.386
0
LINE
8
BLACK
6
CONTINUOUS
10
115.551
20
-172.386
11
115.742
21
-172.482
0
LINE
8
BLACK
6
CONTINUOUS
10
115.742
20
-172.482
11
115.837
21
-172.672
0
LINE
8
BLACK
6
CONTINUOUS
10
115.837
20
-172.672
11
115.837
21
-173.72
0
LINE
8
BLACK
6
CONTINUOUS
10
116.789
20
-173.72
11
116.789
21
-172.386
0
LINE
8
BLACK
6
CONTINUOUS
10
116.789
20
-172.577
11
116.885
21
-172.482
0
LINE
8
BLACK
6
CONTINUOUS
10
116.885
20
-172.482
11
117.075
21
-172.386
0
LINE
8
BLACK
6
CONTINUOUS
10
117.075
20
-172.386
11
117.361
21
-172.386
0
LINE
8
BLACK
6
CONTINUOUS
10
117.361
20
-172.386
11
117.551
21
-172.482
0
LINE
8
BLACK
6
CONTINUOUS
10
117.551
20
-172.482
11
117.646
21
-172.672
0
LINE
8
BLACK
6
CONTINUOUS
10
117.646
20
-172.672
11
117.646
21
-173.72
0
LINE
8
BLACK
6
CONTINUOUS
10
117.646
20
-172.672
11
117.742
21
-172.482
0
LINE
8
BLACK
6
CONTINUOUS
10
117.742
20
-172.482
11
117.932
21
-172.386
0
LINE
8
BLACK
6
CONTINUOUS
10
117.932
20
-172.386
11
118.218
21
-172.386
0
LINE
8
BLACK
6
CONTINUOUS
10
118.218
20
-172.386
11
118.408
21
-172.482
0
LINE
8
BLACK
6
CONTINUOUS
10
118.408
20
-172.482
11
118.504
21
-172.672
0
LINE
8
BLACK
6
CONTINUOUS
10
118.504
20
-172.672
11
118.504
21
-173.72
0
LINE
8
BLACK
6
CONTINUOUS
10
122.408
20
-171.625
11
120.694
21
-174.196
0
LINE
8
BLACK
6
CONTINUOUS
10
124.98
20
-171.72
11
125.17
21
-171.72
0
LINE
8
BLACK
6
CONTINUOUS
10
125.17
20
-171.72
11
125.361
21
-171.815
0
LINE
8
BLACK
6
CONTINUOUS
10
125.361
20
-171.815
11
125.456
21
-171.91
0
LINE
8
BLACK
6
CONTINUOUS
10
125.456
20
-171.91
11
125.551
21
-172.101
0
LINE
8
BLACK
6
CONTINUOUS
10
125.551
20
-172.101
11
125.646
21
-172.482
0
LINE
8
BLACK
6
CONTINUOUS
10
125.646
20
-172.482
11
125.646
21
-172.958
0
LINE
8
BLACK
6
CONTINUOUS
10
125.646
20
-172.958
11
125.551
21
-173.339
0
LINE
8
BLACK
6
CONTINUOUS
10
125.551
20
-173.339
11
125.456
21
-173.529
0
LINE
8
BLACK
6
CONTINUOUS
10
125.456
20
-173.529
11
125.361
21
-173.625
0
LINE
8
BLACK
6
CONTINUOUS
10
125.361
20
-173.625
11
125.17
21
-173.72
0
LINE
8
BLACK
6
CONTINUOUS
10
125.17
20
-173.72
11
124.98
21
-173.72
0
LINE
8
BLACK
6
CONTINUOUS
10
124.98
20
-173.72
11
124.789
21
-173.625
0
LINE
8
BLACK
6
CONTINUOUS
10
124.789
20
-173.625
11
124.694
21
-173.529
0
LINE
8
BLACK
6
CONTINUOUS
10
124.694
20
-173.529
11
124.599
21
-173.339
0
LINE
8
BLACK
6
CONTINUOUS
10
124.599
20
-173.339
11
124.504
21
-172.958
0
LINE
8
BLACK
6
CONTINUOUS
10
124.504
20
-172.958
11
124.504
21
-172.482
0
LINE
8
BLACK
6
CONTINUOUS
10
124.504
20
-172.482
11
124.599
21
-172.101
0
LINE
8
BLACK
6
CONTINUOUS
10
124.599
20
-172.101
11
124.694
21
-171.91
0
LINE
8
BLACK
6
CONTINUOUS
10
124.694
20
-171.91
11
124.789
21
-171.815
0
LINE
8
BLACK
6
CONTINUOUS
10
124.789
20
-171.815
11
124.98
21
-171.72
0
LINE
8
BLACK
6
CONTINUOUS
10
126.504
20
-173.529
11
126.599
21
-173.625
0
LINE
8
BLACK
6
CONTINUOUS
10
126.599
20
-173.625
11
126.504
21
-173.72
0
LINE
8
BLACK
6
CONTINUOUS
10
126.504
20
-173.72
11
126.408
21
-173.625
0
LINE
8
BLACK
6
CONTINUOUS
10
126.408
20
-173.625
11
126.504
21
-173.529
0
LINE
8
BLACK
6
CONTINUOUS
10
126.504
20
-173.529
11
126.504
21
-173.72
0
LINE
8
BLACK
6
CONTINUOUS
10
128.504
20
-173.72
11
127.361
21
-173.72
0
LINE
8
BLACK
6
CONTINUOUS
10
127.932
20
-173.72
11
127.932
21
-171.72
0
LINE
8
BLACK
6
CONTINUOUS
10
127.932
20
-171.72
11
127.742
21
-172.005
0
LINE
8
BLACK
6
CONTINUOUS
10
127.742
20
-172.005
11
127.551
21
-172.196
0
LINE
8
BLACK
6
CONTINUOUS
10
127.551
20
-172.196
11
127.361
21
-172.291
0
LINE
8
BLACK
6
CONTINUOUS
10
130.408
20
-173.72
11
129.265
21
-173.72
0
LINE
8
BLACK
6
CONTINUOUS
10
129.837
20
-173.72
11
129.837
21
-171.72
0
LINE
8
BLACK
6
CONTINUOUS
10
129.837
20
-171.72
11
129.646
21
-172.005
0
LINE
8
BLACK
6
CONTINUOUS
10
129.646
20
-172.005
11
129.456
21
-172.196
0
LINE
8
BLACK
6
CONTINUOUS
10
129.456
20
-172.196
11
129.265
21
-172.291
0
LINE
8
BLACK
6
CONTINUOUS
10
132.123
20
-171.72
11
131.742
21
-171.72
0
LINE
8
BLACK
6
CONTINUOUS
10
131.742
20
-171.72
11
131.551
21
-171.815
0
LINE
8
BLACK
6
CONTINUOUS
10
131.551
20
-171.815
11
131.456
21
-171.91
0
LINE
8
BLACK
6
CONTINUOUS
10
131.456
20
-171.91
11
131.265
21
-172.196
0
LINE
8
BLACK
6
CONTINUOUS
10
131.265
20
-172.196
11
131.17
21
-172.577
0
LINE
8
BLACK
6
CONTINUOUS
10
131.17
20
-172.577
11
131.17
21
-173.339
0
LINE
8
BLACK
6
CONTINUOUS
10
131.17
20
-173.339
11
131.265
21
-173.529
0
LINE
8
BLACK
6
CONTINUOUS
10
131.265
20
-173.529
11
131.361
21
-173.625
0
LINE
8
BLACK
6
CONTINUOUS
10
131.361
20
-173.625
11
131.551
21
-173.72
0
LINE
8
BLACK
6
CONTINUOUS
10
131.551
20
-173.72
11
131.932
21
-173.72
0
LINE
8
BLACK
6
CONTINUOUS
10
131.932
20
-173.72
11
132.123
21
-173.625
0
LINE
8
BLACK
6
CONTINUOUS
10
132.123
20
-173.625
11
132.218
21
-173.529
0
LINE
8
BLACK
6
CONTINUOUS
10
132.218
20
-173.529
11
132.313
21
-173.339
0
LINE
8
BLACK
6
CONTINUOUS
10
132.313
20
-173.339
11
132.313
21
-172.863
0
LINE
8
BLACK
6
CONTINUOUS
10
132.313
20
-172.863
11
132.218
21
-172.672
0
LINE
8
BLACK
6
CONTINUOUS
10
132.218
20
-172.672
11
132.123
21
-172.577
0
LINE
8
BLACK
6
CONTINUOUS
10
132.123
20
-172.577
11
131.932
21
-172.482
0
LINE
8
BLACK
6
CONTINUOUS
10
131.932
20
-172.482
11
131.551
21
-172.482
0
LINE
8
BLACK
6
CONTINUOUS
10
131.551
20
-172.482
11
131.361
21
-172.577
0
LINE
8
BLACK
6
CONTINUOUS
10
131.361
20
-172.577
11
131.265
21
-172.672
0
LINE
8
BLACK
6
CONTINUOUS
10
131.265
20
-172.672
11
131.17
21
-172.863
0
LINE
8
BLACK
6
CONTINUOUS
10
134.218
20
-173.72
11
133.075
21
-173.72
0
LINE
8
BLACK
6
CONTINUOUS
10
133.646
20
-173.72
11
133.646
21
-171.72
0
LINE
8
BLACK
6
CONTINUOUS
10
133.646
20
-171.72
11
133.456
21
-172.005
0
LINE
8
BLACK
6
CONTINUOUS
10
133.456
20
-172.005
11
133.265
21
-172.196
0
LINE
8
BLACK
6
CONTINUOUS
10
133.265
20
-172.196
11
133.075
21
-172.291
0
LINE
8
BLACK
6
CONTINUOUS
10
134.98
20
-171.72
11
134.98
21
-172.101
0
LINE
8
BLACK
6
CONTINUOUS
10
135.742
20
-171.72
11
135.742
21
-172.101
0
LINE
8
BLACK
6
CONTINUOUS
10
138.694
20
-174.482
11
138.599
21
-174.386
0
LINE
8
BLACK
6
CONTINUOUS
10
138.599
20
-174.386
11
138.408
21
-174.101
0
LINE
8
BLACK
6
CONTINUOUS
10
138.408
20
-174.101
11
138.313
21
-173.91
0
LINE
8
BLACK
6
CONTINUOUS
10
138.313
20
-173.91
11
138.218
21
-173.625
0
LINE
8
BLACK
6
CONTINUOUS
10
138.218
20
-173.625
11
138.123
21
-173.148
0
LINE
8
BLACK
6
CONTINUOUS
10
138.123
20
-173.148
11
138.123
21
-172.767
0
LINE
8
BLACK
6
CONTINUOUS
10
138.123
20
-172.767
11
138.218
21
-172.291
0
LINE
8
BLACK
6
CONTINUOUS
10
138.218
20
-172.291
11
138.313
21
-172.005
0
LINE
8
BLACK
6
CONTINUOUS
10
138.313
20
-172.005
11
138.408
21
-171.815
0
LINE
8
BLACK
6
CONTINUOUS
10
138.408
20
-171.815
11
138.599
21
-171.529
0
LINE
8
BLACK
6
CONTINUOUS
10
138.599
20
-171.529
11
138.694
21
-171.434
0
LINE
8
BLACK
6
CONTINUOUS
10
140.313
20
-172.386
11
140.313
21
-173.72
0
LINE
8
BLACK
6
CONTINUOUS
10
139.837
20
-171.625
11
139.361
21
-173.053
0
LINE
8
BLACK
6
CONTINUOUS
10
139.361
20
-173.053
11
140.599
21
-173.053
0
LINE
8
BLACK
6
CONTINUOUS
10
142.885
20
-173.72
11
142.885
21
-171.72
0
LINE
8
BLACK
6
CONTINUOUS
10
143.742
20
-173.72
11
143.742
21
-172.672
0
LINE
8
BLACK
6
CONTINUOUS
10
143.742
20
-172.672
11
143.646
21
-172.482
0
LINE
8
BLACK
6
CONTINUOUS
10
143.646
20
-172.482
11
143.456
21
-172.386
0
LINE
8
BLACK
6
CONTINUOUS
10
143.456
20
-172.386
11
143.17
21
-172.386
0
LINE
8
BLACK
6
CONTINUOUS
10
143.17
20
-172.386
11
142.98
21
-172.482
0
LINE
8
BLACK
6
CONTINUOUS
10
142.98
20
-172.482
11
142.885
21
-172.577
0
LINE
8
BLACK
6
CONTINUOUS
10
144.98
20
-173.72
11
144.789
21
-173.625
0
LINE
8
BLACK
6
CONTINUOUS
10
144.789
20
-173.625
11
144.694
21
-173.529
0
LINE
8
BLACK
6
CONTINUOUS
10
144.694
20
-173.529
11
144.599
21
-173.339
0
LINE
8
BLACK
6
CONTINUOUS
10
144.599
20
-173.339
11
144.599
21
-172.767
0
LINE
8
BLACK
6
CONTINUOUS
10
144.599
20
-172.767
11
144.694
21
-172.577
0
LINE
8
BLACK
6
CONTINUOUS
10
144.694
20
-172.577
11
144.789
21
-172.482
0
LINE
8
BLACK
6
CONTINUOUS
10
144.789
20
-172.482
11
144.98
21
-172.386
0
LINE
8
BLACK
6
CONTINUOUS
10
144.98
20
-172.386
11
145.265
21
-172.386
0
LINE
8
BLACK
6
CONTINUOUS
10
145.265
20
-172.386
11
145.456
21
-172.482
0
LINE
8
BLACK
6
CONTINUOUS
10
145.456
20
-172.482
11
145.551
21
-172.577
0
LINE
8
BLACK
6
CONTINUOUS
10
145.551
20
-172.577
11
145.646
21
-172.767
0
LINE
8
BLACK
6
CONTINUOUS
10
145.646
20
-172.767
11
145.646
21
-173.339
0
LINE
8
BLACK
6
CONTINUOUS
10
145.646
20
-173.339
11
145.551
21
-173.529
0
LINE
8
BLACK
6
CONTINUOUS
10
145.551
20
-173.529
11
145.456
21
-173.625
0
LINE
8
BLACK
6
CONTINUOUS
10
145.456
20
-173.625
11
145.265
21
-173.72
0
LINE
8
BLACK
6
CONTINUOUS
10
145.265
20
-173.72
11
144.98
21
-173.72
0
LINE
8
BLACK
6
CONTINUOUS
10
146.789
20
-173.72
11
146.599
21
-173.625
0
LINE
8
BLACK
6
CONTINUOUS
10
146.599
20
-173.625
11
146.504
21
-173.434
0
LINE
8
BLACK
6
CONTINUOUS
10
146.504
20
-173.434
11
146.504
21
-171.72
0
LINE
8
BLACK
6
CONTINUOUS
10
148.313
20
-173.625
11
148.123
21
-173.72
0
LINE
8
BLACK
6
CONTINUOUS
10
148.123
20
-173.72
11
147.742
21
-173.72
0
LINE
8
BLACK
6
CONTINUOUS
10
147.742
20
-173.72
11
147.551
21
-173.625
0
LINE
8
BLACK
6
CONTINUOUS
10
147.551
20
-173.625
11
147.456
21
-173.434
0
LINE
8
BLACK
6
CONTINUOUS
10
147.456
20
-173.434
11
147.456
21
-172.672
0
LINE
8
BLACK
6
CONTINUOUS
10
147.456
20
-172.672
11
147.551
21
-172.482
0
LINE
8
BLACK
6
CONTINUOUS
10
147.551
20
-172.482
11
147.742
21
-172.386
0
LINE
8
BLACK
6
CONTINUOUS
10
147.742
20
-172.386
11
148.123
21
-172.386
0
LINE
8
BLACK
6
CONTINUOUS
10
148.123
20
-172.386
11
148.313
21
-172.482
0
LINE
8
BLACK
6
CONTINUOUS
10
148.313
20
-172.482
11
148.408
21
-172.672
0
LINE
8
BLACK
6
CONTINUOUS
10
148.408
20
-172.672
11
148.408
21
-172.863
0
LINE
8
BLACK
6
CONTINUOUS
10
148.408
20
-172.863
11
147.456
21
-173.053
0
LINE
8
BLACK
6
CONTINUOUS
10
149.17
20
-173.625
11
149.361
21
-173.72
0
LINE
8
BLACK
6
CONTINUOUS
10
149.361
20
-173.72
11
149.742
21
-173.72
0
LINE
8
BLACK
6
CONTINUOUS
10
149.742
20
-173.72
11
149.932
21
-173.625
0
LINE
8
BLACK
6
CONTINUOUS
10
149.932
20
-173.625
11
150.027
21
-173.434
0
LINE
8
BLACK
6
CONTINUOUS
10
150.027
20
-173.434
11
150.027
21
-173.339
0
LINE
8
BLACK
6
CONTINUOUS
10
150.027
20
-173.339
11
149.932
21
-173.148
0
LINE
8
BLACK
6
CONTINUOUS
10
149.932
20
-173.148
11
149.742
21
-173.053
0
LINE
8
BLACK
6
CONTINUOUS
10
149.742
20
-173.053
11
149.456
21
-173.053
0
LINE
8
BLACK
6
CONTINUOUS
10
149.456
20
-173.053
11
149.265
21
-172.958
0
LINE
8
BLACK
6
CONTINUOUS
10
149.265
20
-172.958
11
149.17
21
-172.767
0
LINE
8
BLACK
6
CONTINUOUS
10
149.17
20
-172.767
11
149.17
21
-172.672
0
LINE
8
BLACK
6
CONTINUOUS
10
149.17
20
-172.672
11
149.265
21
-172.482
0
LINE
8
BLACK
6
CONTINUOUS
10
149.265
20
-172.482
11
149.456
21
-172.386
0
LINE
8
BLACK
6
CONTINUOUS
10
149.456
20
-172.386
11
149.742
21
-172.386
0
LINE
8
BLACK
6
CONTINUOUS
10
149.742
20
-172.386
11
149.932
21
-172.482
0
LINE
8
BLACK
6
CONTINUOUS
10
150.694
20
-174.482
11
150.789
21
-174.386
0
LINE
8
BLACK
6
CONTINUOUS
10
150.789
20
-174.386
11
150.98
21
-174.101
0
LINE
8
BLACK
6
CONTINUOUS
10
150.98
20
-174.101
11
151.075
21
-173.91
0
LINE
8
BLACK
6
CONTINUOUS
10
151.075
20
-173.91
11
151.17
21
-173.625
0
LINE
8
BLACK
6
CONTINUOUS
10
151.17
20
-173.625
11
151.265
21
-173.148
0
LINE
8
BLACK
6
CONTINUOUS
10
151.265
20
-173.148
11
151.265
21
-172.767
0
LINE
8
BLACK
6
CONTINUOUS
10
151.265
20
-172.767
11
151.17
21
-172.291
0
LINE
8
BLACK
6
CONTINUOUS
10
151.17
20
-172.291
11
151.075
21
-172.005
0
LINE
8
BLACK
6
CONTINUOUS
10
151.075
20
-172.005
11
150.98
21
-171.815
0
LINE
8
BLACK
6
CONTINUOUS
10
150.98
20
-171.815
11
150.789
21
-171.529
0
LINE
8
BLACK
6
CONTINUOUS
10
150.789
20
-171.529
11
150.694
21
-171.434
  0
ENDSEC
  0
EOF
