  0
SECTION
  2
HEADER
  9
$ANGBASE
  50
0.0
  9
$ANGDIR
  70
1
  9
$MEASUREMENT
  70
1
  0
ENDSEC
  0
SECTION
  2
TABLES
  0
TABLE
  2
LTYPE
  70
4
  0
LTYPE
  5
40F
  2
CONTINUOUS
  70
0
  3
Solid line
  72
65
  73
0
  40
0.0
  0
LTYPE
  5
410
  2
DASHDOT
 70
0
  3
Dash Dot ____ _ ____ _
 72
65
 73
4
 40
2.0
 49
1.25
 49
-0.25
 49
0.25
 49
-0.25
  0
LTYPE
  5
411
  2
DASHED
 70
0
  3
Dashed __ __ __ __ __
 72
65
 73
2
 40
0.75
 49
0.5
 49
-0.25
  0
LTYPE
  5
43B
  2
DOTTED
 70
0
  3
Dotted .  .  .  .
 72
65
 73
2
 40
0.2
 49
0.0
 49
-0.2
  0
ENDTAB
  0
TABLE
  2
STYLE
  70
4
  0
STYLE
  2
KICAD
  70
0
  40
0
  41
1
  42
1
  50
0
  71
0
  3
isocp.shx
  0
STYLE
  2
KICADB
  70
0
  40
0
  41
1
  42
1
  50
0
  71
0
  3
isocp.shx
  0
STYLE
  2
KICADI
  70
0
  40
0
  41
1
  42
1
  50
15
  71
0
  3
isocp.shx
  0
STYLE
  2
KICADBI
  70
0
  40
0
  41
1
  42
1
  50
15
  71
0
  3
isocp.shx
  0
ENDTAB
  0
TABLE
  2
LAYER
  70
1
  0
LAYER
  2
BLACK
  70
0
  62
7
  6
CONTINUOUS
  0
ENDTAB
  0
ENDSEC
  0
SECTION
  2
ENTITIES
0
LINE
8
BLACK
6
CONTINUOUS
10
136.85
20
-153
11
136.85
21
-147
0
LINE
8
BLACK
6
CONTINUOUS
10
142.15
20
-153
11
142.15
21
-147
0
LINE
8
BLACK
6
CONTINUOUS
10
146.85
20
-147
11
146.85
21
-153
0
LINE
8
BLACK
6
CONTINUOUS
10
152.15
20
-153
11
152.15
21
-147
0
LINE
8
BLACK
6
CONTINUOUS
10
142.15
20
-76.6
11
142.15
21
-82.6
0
LINE
8
BLACK
6
CONTINUOUS
10
136.85
20
-76.6
11
136.85
21
-82.6
0
LINE
8
BLACK
6
CONTINUOUS
10
146.85
20
-76.6
11
146.85
21
-82.6
0
LINE
8
BLACK
6
CONTINUOUS
10
152.15
20
-76.6
11
152.15
21
-82.6
0
LINE
8
BLACK
6
CONTINUOUS
10
186
20
-65.75
11
103
21
-65.75
0
CIRCLE
8
BLACK
10
180.5
20
-114.65
40
2.625
0
LINE
8
BLACK
6
CONTINUOUS
10
108.745
20
-139.557
11
103
21
-139.557
0
ARC
8
BLACK
10
180.5
20
-142.15
40
2.60462
50
-264.492
51
-93.3015
0
LINE
8
BLACK
6
CONTINUOUS
10
186
20
-163.75
11
186
21
-156.45
0
LINE
8
BLACK
6
CONTINUOUS
10
186
20
-73.1
11
186
21
-65.75
0
LINE
8
BLACK
6
CONTINUOUS
10
106
20
-75.1
11
103
21
-75.1
0
ARC
8
BLACK
10
106
20
-77.75
40
2.65
50
-0
51
90
0
ARC
8
BLACK
10
106
20
-86.35
40
2.65
50
-90
51
-0
0
LINE
8
BLACK
6
CONTINUOUS
10
106
20
-89
11
103
21
-89
0
LINE
8
BLACK
6
CONTINUOUS
10
108.65
20
-77.75
11
108.65
21
-86.35
0
ARC
8
BLACK
10
183
20
-77.75
40
2.65
50
90
51
180
0
ARC
8
BLACK
10
183
20
-86.35
40
2.65
50
-180
51
-90
0
LINE
8
BLACK
6
CONTINUOUS
10
183
20
-75.1
11
186
21
-75.1
0
LINE
8
BLACK
6
CONTINUOUS
10
180.35
20
-77.75
11
180.35
21
-86.35
0
LINE
8
BLACK
6
CONTINUOUS
10
183
20
-89
11
186
21
-89
0
LINE
8
BLACK
6
CONTINUOUS
10
103
20
-65.75
11
103
21
-75.1
0
LINE
8
BLACK
6
CONTINUOUS
10
103
20
-89
11
103
21
-139.557
0
LINE
8
BLACK
6
CONTINUOUS
10
103
20
-154.4
11
103
21
-163.75
0
LINE
8
BLACK
6
CONTINUOUS
10
186
20
-156.45
11
186
21
-154.4
0
LINE
8
BLACK
6
CONTINUOUS
10
186
20
-75.1
11
186
21
-73.1
0
LINE
8
BLACK
6
CONTINUOUS
10
185.995
20
-139.557
11
180.25
21
-139.557
0
ARC
8
BLACK
10
139.5
20
-82.6
40
2.65
50
-180
51
-0
0
ARC
8
BLACK
10
108.5
20
-142.15
40
2.60432
50
-86.6982
51
84.6107
0
LINE
8
BLACK
6
CONTINUOUS
10
108.65
20
-151.75
11
108.65
21
-144.75
0
ARC
8
BLACK
10
149.5
20
-76.6
40
2.65
50
-0
51
180
0
ARC
8
BLACK
10
139.5
20
-76.6
40
2.65
50
-0
51
180
0
LINE
8
BLACK
6
CONTINUOUS
10
103
20
-163.75
11
186
21
-163.75
0
ARC
8
BLACK
10
139.5
20
-147
40
2.65
50
-0
51
180
0
LINE
8
BLACK
6
CONTINUOUS
10
180.35
20
-151.75
11
180.35
21
-144.75
0
LINE
8
BLACK
6
CONTINUOUS
10
106
20
-154.4
11
103
21
-154.4
0
ARC
8
BLACK
10
139.5
20
-153
40
2.65
50
-180
51
-0
0
ARC
8
BLACK
10
149.5
20
-147
40
2.65
50
-0
51
180
0
ARC
8
BLACK
10
106
20
-151.75
40
2.65
50
-90
51
-0
0
ARC
8
BLACK
10
183
20
-151.75
40
2.65
50
-180
51
-90
0
ARC
8
BLACK
10
149.5
20
-153
40
2.65
50
-180
51
-0
0
LINE
8
BLACK
6
CONTINUOUS
10
183
20
-154.4
11
186
21
-154.4
0
LINE
8
BLACK
6
CONTINUOUS
10
186
20
-89
11
185.995
21
-139.557
0
ARC
8
BLACK
10
149.5
20
-82.6
40
2.65
50
-180
51
-0
0
CIRCLE
8
BLACK
10
108.5
20
-114.65
40
2.625
0
LINE
8
BLACK
6
CONTINUOUS
10
105.551
20
-166.88
11
105.551
21
-164.88
0
LINE
8
BLACK
6
CONTINUOUS
10
105.551
20
-164.88
11
106.027
21
-164.88
0
LINE
8
BLACK
6
CONTINUOUS
10
106.027
20
-164.88
11
106.313
21
-164.975
0
LINE
8
BLACK
6
CONTINUOUS
10
106.313
20
-164.975
11
106.504
21
-165.165
0
LINE
8
BLACK
6
CONTINUOUS
10
106.504
20
-165.165
11
106.599
21
-165.356
0
LINE
8
BLACK
6
CONTINUOUS
10
106.599
20
-165.356
11
106.694
21
-165.737
0
LINE
8
BLACK
6
CONTINUOUS
10
106.694
20
-165.737
11
106.694
21
-166.023
0
LINE
8
BLACK
6
CONTINUOUS
10
106.694
20
-166.023
11
106.599
21
-166.404
0
LINE
8
BLACK
6
CONTINUOUS
10
106.599
20
-166.404
11
106.504
21
-166.594
0
LINE
8
BLACK
6
CONTINUOUS
10
106.504
20
-166.594
11
106.313
21
-166.785
0
LINE
8
BLACK
6
CONTINUOUS
10
106.313
20
-166.785
11
106.027
21
-166.88
0
LINE
8
BLACK
6
CONTINUOUS
10
106.027
20
-166.88
11
105.551
21
-166.88
0
LINE
8
BLACK
6
CONTINUOUS
10
107.551
20
-166.88
11
107.551
21
-165.546
0
LINE
8
BLACK
6
CONTINUOUS
10
107.551
20
-165.927
11
107.646
21
-165.737
0
LINE
8
BLACK
6
CONTINUOUS
10
107.646
20
-165.737
11
107.742
21
-165.642
0
LINE
8
BLACK
6
CONTINUOUS
10
107.742
20
-165.642
11
107.932
21
-165.546
0
LINE
8
BLACK
6
CONTINUOUS
10
107.932
20
-165.546
11
108.123
21
-165.546
0
LINE
8
BLACK
6
CONTINUOUS
10
108.789
20
-166.88
11
108.789
21
-165.546
0
LINE
8
BLACK
6
CONTINUOUS
10
108.789
20
-164.88
11
108.694
21
-164.975
0
LINE
8
BLACK
6
CONTINUOUS
10
108.694
20
-164.975
11
108.789
21
-165.07
0
LINE
8
BLACK
6
CONTINUOUS
10
108.789
20
-165.07
11
108.885
21
-164.975
0
LINE
8
BLACK
6
CONTINUOUS
10
108.885
20
-164.975
11
108.789
21
-164.88
0
LINE
8
BLACK
6
CONTINUOUS
10
108.789
20
-164.88
11
108.789
21
-165.07
0
LINE
8
BLACK
6
CONTINUOUS
10
110.027
20
-166.88
11
109.837
21
-166.785
0
LINE
8
BLACK
6
CONTINUOUS
10
109.837
20
-166.785
11
109.742
21
-166.594
0
LINE
8
BLACK
6
CONTINUOUS
10
109.742
20
-166.594
11
109.742
21
-164.88
0
LINE
8
BLACK
6
CONTINUOUS
10
111.075
20
-166.88
11
110.885
21
-166.785
0
LINE
8
BLACK
6
CONTINUOUS
10
110.885
20
-166.785
11
110.789
21
-166.594
0
LINE
8
BLACK
6
CONTINUOUS
10
110.789
20
-166.594
11
110.789
21
-164.88
0
LINE
8
BLACK
6
CONTINUOUS
10
113.361
20
-166.88
11
113.361
21
-164.88
0
LINE
8
BLACK
6
CONTINUOUS
10
113.361
20
-164.88
11
114.027
21
-166.308
0
LINE
8
BLACK
6
CONTINUOUS
10
114.027
20
-166.308
11
114.694
21
-164.88
0
LINE
8
BLACK
6
CONTINUOUS
10
114.694
20
-164.88
11
114.694
21
-166.88
0
LINE
8
BLACK
6
CONTINUOUS
10
116.504
20
-166.88
11
116.504
21
-165.832
0
LINE
8
BLACK
6
CONTINUOUS
10
116.504
20
-165.832
11
116.408
21
-165.642
0
LINE
8
BLACK
6
CONTINUOUS
10
116.408
20
-165.642
11
116.218
21
-165.546
0
LINE
8
BLACK
6
CONTINUOUS
10
116.218
20
-165.546
11
115.837
21
-165.546
0
LINE
8
BLACK
6
CONTINUOUS
10
115.837
20
-165.546
11
115.646
21
-165.642
0
LINE
8
BLACK
6
CONTINUOUS
10
116.504
20
-166.785
11
116.313
21
-166.88
0
LINE
8
BLACK
6
CONTINUOUS
10
116.313
20
-166.88
11
115.837
21
-166.88
0
LINE
8
BLACK
6
CONTINUOUS
10
115.837
20
-166.88
11
115.646
21
-166.785
0
LINE
8
BLACK
6
CONTINUOUS
10
115.646
20
-166.785
11
115.551
21
-166.594
0
LINE
8
BLACK
6
CONTINUOUS
10
115.551
20
-166.594
11
115.551
21
-166.404
0
LINE
8
BLACK
6
CONTINUOUS
10
115.551
20
-166.404
11
115.646
21
-166.213
0
LINE
8
BLACK
6
CONTINUOUS
10
115.646
20
-166.213
11
115.837
21
-166.118
0
LINE
8
BLACK
6
CONTINUOUS
10
115.837
20
-166.118
11
116.313
21
-166.118
0
LINE
8
BLACK
6
CONTINUOUS
10
116.313
20
-166.118
11
116.504
21
-166.023
0
LINE
8
BLACK
6
CONTINUOUS
10
117.456
20
-165.546
11
117.456
21
-167.546
0
LINE
8
BLACK
6
CONTINUOUS
10
117.456
20
-165.642
11
117.646
21
-165.546
0
LINE
8
BLACK
6
CONTINUOUS
10
117.646
20
-165.546
11
118.027
21
-165.546
0
LINE
8
BLACK
6
CONTINUOUS
10
118.027
20
-165.546
11
118.218
21
-165.642
0
LINE
8
BLACK
6
CONTINUOUS
10
118.218
20
-165.642
11
118.313
21
-165.737
0
LINE
8
BLACK
6
CONTINUOUS
10
118.313
20
-165.737
11
118.408
21
-165.927
0
LINE
8
BLACK
6
CONTINUOUS
10
118.408
20
-165.927
11
118.408
21
-166.499
0
LINE
8
BLACK
6
CONTINUOUS
10
118.408
20
-166.499
11
118.313
21
-166.689
0
LINE
8
BLACK
6
CONTINUOUS
10
118.313
20
-166.689
11
118.218
21
-166.785
0
LINE
8
BLACK
6
CONTINUOUS
10
118.218
20
-166.785
11
118.027
21
-166.88
0
LINE
8
BLACK
6
CONTINUOUS
10
118.027
20
-166.88
11
117.646
21
-166.88
0
LINE
8
BLACK
6
CONTINUOUS
10
117.646
20
-166.88
11
117.456
21
-166.785
0
LINE
8
BLACK
6
CONTINUOUS
10
119.265
20
-166.689
11
119.361
21
-166.785
0
LINE
8
BLACK
6
CONTINUOUS
10
119.361
20
-166.785
11
119.265
21
-166.88
0
LINE
8
BLACK
6
CONTINUOUS
10
119.265
20
-166.88
11
119.17
21
-166.785
0
LINE
8
BLACK
6
CONTINUOUS
10
119.17
20
-166.785
11
119.265
21
-166.689
0
LINE
8
BLACK
6
CONTINUOUS
10
119.265
20
-166.689
11
119.265
21
-166.88
0
LINE
8
BLACK
6
CONTINUOUS
10
119.265
20
-165.642
11
119.361
21
-165.737
0
LINE
8
BLACK
6
CONTINUOUS
10
119.361
20
-165.737
11
119.265
21
-165.832
0
LINE
8
BLACK
6
CONTINUOUS
10
119.265
20
-165.832
11
119.17
21
-165.737
0
LINE
8
BLACK
6
CONTINUOUS
10
119.17
20
-165.737
11
119.265
21
-165.642
0
LINE
8
BLACK
6
CONTINUOUS
10
119.265
20
-165.642
11
119.265
21
-165.832
  0
ENDSEC
  0
EOF
