%TF.GenerationSoftware,KiCad,Pcbnew,(6.0.9)*%
%TF.CreationDate,2023-01-30T20:43:42-08:00*%
%TF.ProjectId,solar-panel-NoCutout,736f6c61-722d-4706-916e-656c2d4e6f43,2.0*%
%TF.SameCoordinates,Original*%
%TF.FileFunction,Paste,Top*%
%TF.FilePolarity,Positive*%
%FSLAX46Y46*%
G04 Gerber Fmt 4.6, Leading zero omitted, Abs format (unit mm)*
G04 Created by KiCad (PCBNEW (6.0.9)) date 2023-01-30 20:43:42*
%MOMM*%
%LPD*%
G01*
G04 APERTURE LIST*
G04 Aperture macros list*
%AMRoundRect*
0 Rectangle with rounded corners*
0 $1 Rounding radius*
0 $2 $3 $4 $5 $6 $7 $8 $9 X,Y pos of 4 corners*
0 Add a 4 corners polygon primitive as box body*
4,1,4,$2,$3,$4,$5,$6,$7,$8,$9,$2,$3,0*
0 Add four circle primitives for the rounded corners*
1,1,$1+$1,$2,$3*
1,1,$1+$1,$4,$5*
1,1,$1+$1,$6,$7*
1,1,$1+$1,$8,$9*
0 Add four rect primitives between the rounded corners*
20,1,$1+$1,$2,$3,$4,$5,0*
20,1,$1+$1,$4,$5,$6,$7,0*
20,1,$1+$1,$6,$7,$8,$9,0*
20,1,$1+$1,$8,$9,$2,$3,0*%
G04 Aperture macros list end*
%TA.AperFunction,Profile*%
%ADD10C,0.050000*%
%TD*%
%ADD11R,0.750000X0.300000*%
%ADD12R,1.750000X1.450000*%
%ADD13R,13.000000X3.000000*%
%ADD14RoundRect,0.750000X0.750000X-0.750000X0.750000X0.750000X-0.750000X0.750000X-0.750000X-0.750000X0*%
%ADD15R,2.500000X1.700000*%
%ADD16RoundRect,0.250000X-0.475000X0.250000X-0.475000X-0.250000X0.475000X-0.250000X0.475000X0.250000X0*%
%ADD17RoundRect,0.250000X-0.250000X-0.475000X0.250000X-0.475000X0.250000X0.475000X-0.250000X0.475000X0*%
%ADD18RoundRect,0.250000X0.250000X0.475000X-0.250000X0.475000X-0.250000X-0.475000X0.250000X-0.475000X0*%
%ADD19R,0.600000X0.720000*%
%ADD20RoundRect,0.200000X0.275000X-0.200000X0.275000X0.200000X-0.275000X0.200000X-0.275000X-0.200000X0*%
%ADD21RoundRect,0.200000X0.200000X0.275000X-0.200000X0.275000X-0.200000X-0.275000X0.200000X-0.275000X0*%
%ADD22RoundRect,0.200000X-0.275000X0.200000X-0.275000X-0.200000X0.275000X-0.200000X0.275000X0.200000X0*%
%ADD23RoundRect,0.075000X-0.650000X-0.075000X0.650000X-0.075000X0.650000X0.075000X-0.650000X0.075000X0*%
G04 APERTURE END LIST*
D10*
X136850000Y-153000000D02*
X136850000Y-147000000D01*
X142150000Y-153000000D02*
X142150000Y-147000000D01*
X146850000Y-147000000D02*
X146850000Y-153000000D01*
X152150000Y-153000000D02*
X152150000Y-147000000D01*
X142150000Y-76600000D02*
X142150000Y-82600000D01*
X136850000Y-76600000D02*
X136850000Y-82600000D01*
X146850000Y-76600000D02*
X146850000Y-82600000D01*
X152150000Y-76600000D02*
X152150000Y-82600000D01*
X186000000Y-65750000D02*
X103000000Y-65750000D01*
X183125000Y-114650000D02*
G75*
G03*
X183125000Y-114650000I-2625000J0D01*
G01*
X108744606Y-139557190D02*
X103000000Y-139557190D01*
X180249992Y-139557104D02*
G75*
G03*
X180350001Y-144749999I250008J-2592596D01*
G01*
X186000000Y-163750000D02*
X186000000Y-156450000D01*
X186000000Y-73100000D02*
X186000000Y-65750000D01*
X106000000Y-75100000D02*
X103000000Y-75100000D01*
X108650000Y-77750000D02*
G75*
G03*
X106000000Y-75100000I-2650000J0D01*
G01*
X106000000Y-89000000D02*
G75*
G03*
X108650000Y-86350000I0J2650000D01*
G01*
X106000000Y-89000000D02*
X103000000Y-89000000D01*
X108650000Y-77750000D02*
X108650000Y-86350000D01*
X183000000Y-75100000D02*
G75*
G03*
X180350000Y-77750000I0J-2650000D01*
G01*
X180350000Y-86350000D02*
G75*
G03*
X183000000Y-89000000I2650000J0D01*
G01*
X183000000Y-75100000D02*
X186000000Y-75100000D01*
X180350000Y-77750000D02*
X180350000Y-86350000D01*
X183000000Y-89000000D02*
X186000000Y-89000000D01*
X103000000Y-65750000D02*
X103000000Y-75100000D01*
X103000000Y-89000000D02*
X103000000Y-139557190D01*
X103000000Y-154400000D02*
X103000000Y-163750000D01*
X186000000Y-156450000D02*
X186000000Y-154400000D01*
X186000000Y-75100000D02*
X186000000Y-73100000D01*
X185994606Y-139557190D02*
X180250000Y-139557190D01*
X136850000Y-82600000D02*
G75*
G03*
X142150000Y-82600000I2650000J0D01*
G01*
X108649999Y-144750000D02*
G75*
G03*
X108744606Y-139557190I-149999J2600000D01*
G01*
X108650000Y-151750000D02*
X108650000Y-144750000D01*
X152150000Y-76600000D02*
G75*
G03*
X146850000Y-76600000I-2650000J0D01*
G01*
X142150000Y-76600000D02*
G75*
G03*
X136850000Y-76600000I-2650000J0D01*
G01*
X103000000Y-163750000D02*
X186000000Y-163750000D01*
X142150000Y-147000000D02*
G75*
G03*
X136850000Y-147000000I-2650000J0D01*
G01*
X180350000Y-151750000D02*
X180350000Y-144750000D01*
X106000000Y-154400000D02*
X103000000Y-154400000D01*
X136850000Y-153000000D02*
G75*
G03*
X142150000Y-153000000I2650000J0D01*
G01*
X152150000Y-147000000D02*
G75*
G03*
X146850000Y-147000000I-2650000J0D01*
G01*
X106000000Y-154400000D02*
G75*
G03*
X108650000Y-151750000I0J2650000D01*
G01*
X180350000Y-151750000D02*
G75*
G03*
X183000000Y-154400000I2650000J0D01*
G01*
X146850000Y-153000000D02*
G75*
G03*
X152150000Y-153000000I2650000J0D01*
G01*
X183000000Y-154400000D02*
X186000000Y-154400000D01*
X186000000Y-89000000D02*
X185994606Y-139557190D01*
X146850000Y-82600000D02*
G75*
G03*
X152150000Y-82600000I2650000J0D01*
G01*
X111125000Y-114650000D02*
G75*
G03*
X111125000Y-114650000I-2625000J0D01*
G01*
D11*
%TO.C,U2*%
X155900000Y-115170000D03*
X155900000Y-114670000D03*
X155900000Y-114170000D03*
X155900000Y-113670000D03*
X153000000Y-113670000D03*
X153000000Y-114170000D03*
X153000000Y-114670000D03*
X153000000Y-115170000D03*
D12*
X154450000Y-114420000D03*
%TD*%
D13*
%TO.C,SC5*%
X167860000Y-67570000D03*
X167860000Y-107570000D03*
%TD*%
D14*
%TO.C,TP1*%
X106230000Y-123950000D03*
%TD*%
D15*
%TO.C,D3*%
X126400000Y-118000000D03*
X130400000Y-118000000D03*
%TD*%
D16*
%TO.C,C4*%
X149280000Y-112660000D03*
X149280000Y-114560000D03*
%TD*%
D14*
%TO.C,TP2*%
X106220000Y-130030000D03*
%TD*%
D15*
%TO.C,D1*%
X126360000Y-111540000D03*
X130360000Y-111540000D03*
%TD*%
D16*
%TO.C,C1*%
X149300000Y-117440000D03*
X149300000Y-119340000D03*
%TD*%
D13*
%TO.C,SC3*%
X144490000Y-67570000D03*
X144490000Y-107570000D03*
%TD*%
%TO.C,SC4*%
X144450000Y-121940000D03*
X144450000Y-161940000D03*
%TD*%
%TO.C,SC2*%
X121120000Y-121920000D03*
X121120000Y-161920000D03*
%TD*%
D15*
%TO.C,D2*%
X126360000Y-114750000D03*
X130360000Y-114750000D03*
%TD*%
D13*
%TO.C,SC6*%
X168000000Y-121970000D03*
X168000000Y-161970000D03*
%TD*%
D17*
%TO.C,C2*%
X153010000Y-116690000D03*
X154910000Y-116690000D03*
%TD*%
D18*
%TO.C,C5*%
X159050000Y-111450000D03*
X157150000Y-111450000D03*
%TD*%
D19*
%TO.C,U1*%
X145845000Y-117445000D03*
X145845000Y-116475000D03*
X145845000Y-115505000D03*
X145845000Y-114535000D03*
X147245000Y-114535000D03*
X147245000Y-115505000D03*
X147245000Y-116475000D03*
X147245000Y-117445000D03*
%TD*%
D20*
%TO.C,R2*%
X139870000Y-117940000D03*
X139870000Y-116290000D03*
%TD*%
D21*
%TO.C,R3*%
X161990000Y-116970000D03*
X160340000Y-116970000D03*
%TD*%
D22*
%TO.C,R1*%
X137250000Y-116290000D03*
X137250000Y-117940000D03*
%TD*%
D17*
%TO.C,C3*%
X163410000Y-111380000D03*
X165310000Y-111380000D03*
%TD*%
D13*
%TO.C,SC1*%
X121090000Y-67570000D03*
X121090000Y-107570000D03*
%TD*%
D23*
%TO.C,U3*%
X158980000Y-113350000D03*
X158980000Y-113850000D03*
X158980000Y-114350000D03*
X158980000Y-114850000D03*
X158980000Y-115350000D03*
X163380000Y-115350000D03*
X163380000Y-114850000D03*
X163380000Y-114350000D03*
X163380000Y-113850000D03*
X163380000Y-113350000D03*
%TD*%
M02*
