M48
; DRILL file {KiCad (6.0.9)} date Mon Jan 30 20:42:32 2023
; FORMAT={-:-/ absolute / metric / decimal}
; #@! TF.CreationDate,2023-01-30T20:42:32-08:00
; #@! TF.GenerationSoftware,Kicad,Pcbnew,(6.0.9)
; #@! TF.FileFunction,Plated,1,4,PTH
FMAT,2
METRIC
; #@! TA.AperFunction,Plated,PTH,ViaDrill
T1C0.400
; #@! TA.AperFunction,Plated,PTH,ComponentDrill
T2C2.950
%
G90
G05
T1
X109.4Y-130.03
X110.66Y-124.75
X121.12Y-156.22
X124.27Y-118.0
X126.51Y-126.1
X128.0Y-126.0
X129.5Y-120.645
X144.45Y-156.25
X147.03Y-118.51
X147.475Y-113.105
X149.99Y-115.99
X150.54Y-113.71
X151.39Y-117.44
X151.53Y-119.62
X156.86Y-113.67
X159.47Y-116.13
X160.57Y-109.96
X160.75Y-114.5
X161.82Y-113.35
X161.89Y-115.33
X162.26Y-111.57
X164.8Y-127.19
X168.0Y-156.39
X178.12Y-121.62
X178.2Y-123.8
T2
X106.5Y-70.3
X106.5Y-159.3
X182.5Y-70.3
X182.5Y-159.3
T0
M30
