%TF.GenerationSoftware,KiCad,Pcbnew,(6.0.9)*%
%TF.CreationDate,2023-01-30T20:42:36-08:00*%
%TF.ProjectId,solar-panel-NoCutout,736f6c61-722d-4706-916e-656c2d4e6f43,2.0*%
%TF.SameCoordinates,Original*%
%TF.FileFunction,Drillmap*%
%TF.FilePolarity,Positive*%
%FSLAX45Y45*%
G04 Gerber Fmt 4.5, Leading zero omitted, Abs format (unit mm)*
G04 Created by KiCad (PCBNEW (6.0.9)) date 2023-01-30 20:42:36*
%MOMM*%
%LPD*%
G01*
G04 APERTURE LIST*
%ADD10C,0.050000*%
%ADD11C,0.200000*%
%ADD12C,0.040000*%
%ADD13C,0.295000*%
G04 APERTURE END LIST*
D10*
X13685000Y-15300000D02*
X13685000Y-14700000D01*
X14215000Y-15300000D02*
X14215000Y-14700000D01*
X14685000Y-14700000D02*
X14685000Y-15300000D01*
X15215000Y-15300000D02*
X15215000Y-14700000D01*
X14215000Y-7660000D02*
X14215000Y-8260000D01*
X13685000Y-7660000D02*
X13685000Y-8260000D01*
X14685000Y-7660000D02*
X14685000Y-8260000D01*
X15215000Y-7660000D02*
X15215000Y-8260000D01*
X18600000Y-6575000D02*
X10300000Y-6575000D01*
X18312500Y-11465000D02*
G75*
G03*
X18312500Y-11465000I-262500J0D01*
G01*
X10874461Y-13955719D02*
X10300000Y-13955719D01*
X18024999Y-13955710D02*
G75*
G03*
X18035000Y-14475000I25001J-259260D01*
G01*
X18600000Y-16375000D02*
X18600000Y-15645000D01*
X18600000Y-7310000D02*
X18600000Y-6575000D01*
X10600000Y-7510000D02*
X10300000Y-7510000D01*
X10865000Y-7775000D02*
G75*
G03*
X10600000Y-7510000I-265000J0D01*
G01*
X10600000Y-8900000D02*
G75*
G03*
X10865000Y-8635000I0J265000D01*
G01*
X10600000Y-8900000D02*
X10300000Y-8900000D01*
X10865000Y-7775000D02*
X10865000Y-8635000D01*
X18300000Y-7510000D02*
G75*
G03*
X18035000Y-7775000I0J-265000D01*
G01*
X18035000Y-8635000D02*
G75*
G03*
X18300000Y-8900000I265000J0D01*
G01*
X18300000Y-7510000D02*
X18600000Y-7510000D01*
X18035000Y-7775000D02*
X18035000Y-8635000D01*
X18300000Y-8900000D02*
X18600000Y-8900000D01*
X10300000Y-6575000D02*
X10300000Y-7510000D01*
X10300000Y-8900000D02*
X10300000Y-13955719D01*
X10300000Y-15440000D02*
X10300000Y-16375000D01*
X18600000Y-15645000D02*
X18600000Y-15440000D01*
X18600000Y-7510000D02*
X18600000Y-7310000D01*
X18599461Y-13955719D02*
X18025000Y-13955719D01*
X13685000Y-8260000D02*
G75*
G03*
X14215000Y-8260000I265000J0D01*
G01*
X10865000Y-14475000D02*
G75*
G03*
X10874461Y-13955719I-15000J260000D01*
G01*
X10865000Y-15175000D02*
X10865000Y-14475000D01*
X15215000Y-7660000D02*
G75*
G03*
X14685000Y-7660000I-265000J0D01*
G01*
X14215000Y-7660000D02*
G75*
G03*
X13685000Y-7660000I-265000J0D01*
G01*
X10300000Y-16375000D02*
X18600000Y-16375000D01*
X14215000Y-14700000D02*
G75*
G03*
X13685000Y-14700000I-265000J0D01*
G01*
X18035000Y-15175000D02*
X18035000Y-14475000D01*
X10600000Y-15440000D02*
X10300000Y-15440000D01*
X13685000Y-15300000D02*
G75*
G03*
X14215000Y-15300000I265000J0D01*
G01*
X15215000Y-14700000D02*
G75*
G03*
X14685000Y-14700000I-265000J0D01*
G01*
X10600000Y-15440000D02*
G75*
G03*
X10865000Y-15175000I0J265000D01*
G01*
X18035000Y-15175000D02*
G75*
G03*
X18300000Y-15440000I265000J0D01*
G01*
X14685000Y-15300000D02*
G75*
G03*
X15215000Y-15300000I265000J0D01*
G01*
X18300000Y-15440000D02*
X18600000Y-15440000D01*
X18600000Y-8900000D02*
X18599461Y-13955719D01*
X14685000Y-8260000D02*
G75*
G03*
X15215000Y-8260000I265000J0D01*
G01*
X11112500Y-11465000D02*
G75*
G03*
X11112500Y-11465000I-262500J0D01*
G01*
D11*
D12*
X10920000Y-12983000D02*
X10960000Y-13023000D01*
X10960000Y-12983000D02*
X10920000Y-13023000D01*
X11046000Y-12455000D02*
X11086000Y-12495000D01*
X11086000Y-12455000D02*
X11046000Y-12495000D01*
X12092000Y-15602000D02*
X12132000Y-15642000D01*
X12132000Y-15602000D02*
X12092000Y-15642000D01*
X12407000Y-11780000D02*
X12447000Y-11820000D01*
X12447000Y-11780000D02*
X12407000Y-11820000D01*
X12631000Y-12590000D02*
X12671000Y-12630000D01*
X12671000Y-12590000D02*
X12631000Y-12630000D01*
X12780000Y-12580000D02*
X12820000Y-12620000D01*
X12820000Y-12580000D02*
X12780000Y-12620000D01*
X12930000Y-12044500D02*
X12970000Y-12084500D01*
X12970000Y-12044500D02*
X12930000Y-12084500D01*
X14425000Y-15605000D02*
X14465000Y-15645000D01*
X14465000Y-15605000D02*
X14425000Y-15645000D01*
X14683000Y-11831000D02*
X14723000Y-11871000D01*
X14723000Y-11831000D02*
X14683000Y-11871000D01*
X14727500Y-11290500D02*
X14767500Y-11330500D01*
X14767500Y-11290500D02*
X14727500Y-11330500D01*
X14979000Y-11579000D02*
X15019000Y-11619000D01*
X15019000Y-11579000D02*
X14979000Y-11619000D01*
X15034000Y-11351000D02*
X15074000Y-11391000D01*
X15074000Y-11351000D02*
X15034000Y-11391000D01*
X15119000Y-11724000D02*
X15159000Y-11764000D01*
X15159000Y-11724000D02*
X15119000Y-11764000D01*
X15133000Y-11942000D02*
X15173000Y-11982000D01*
X15173000Y-11942000D02*
X15133000Y-11982000D01*
X15666000Y-11347000D02*
X15706000Y-11387000D01*
X15706000Y-11347000D02*
X15666000Y-11387000D01*
X15927000Y-11593000D02*
X15967000Y-11633000D01*
X15967000Y-11593000D02*
X15927000Y-11633000D01*
X16037000Y-10976000D02*
X16077000Y-11016000D01*
X16077000Y-10976000D02*
X16037000Y-11016000D01*
X16055000Y-11430000D02*
X16095000Y-11470000D01*
X16095000Y-11430000D02*
X16055000Y-11470000D01*
X16162000Y-11315000D02*
X16202000Y-11355000D01*
X16202000Y-11315000D02*
X16162000Y-11355000D01*
X16169000Y-11513000D02*
X16209000Y-11553000D01*
X16209000Y-11513000D02*
X16169000Y-11553000D01*
X16206000Y-11137000D02*
X16246000Y-11177000D01*
X16246000Y-11137000D02*
X16206000Y-11177000D01*
X16460000Y-12699000D02*
X16500000Y-12739000D01*
X16500000Y-12699000D02*
X16460000Y-12739000D01*
X16780000Y-15619000D02*
X16820000Y-15659000D01*
X16820000Y-15619000D02*
X16780000Y-15659000D01*
X17792000Y-12142000D02*
X17832000Y-12182000D01*
X17832000Y-12142000D02*
X17792000Y-12182000D01*
X17800000Y-12360000D02*
X17840000Y-12400000D01*
X17840000Y-12360000D02*
X17800000Y-12400000D01*
D13*
X10797500Y-7030000D02*
G75*
G03*
X10797500Y-7030000I-147500J0D01*
G01*
X10797500Y-15930000D02*
G75*
G03*
X10797500Y-15930000I-147500J0D01*
G01*
X18397500Y-7030000D02*
G75*
G03*
X18397500Y-7030000I-147500J0D01*
G01*
X18397500Y-15930000D02*
G75*
G03*
X18397500Y-15930000I-147500J0D01*
G01*
D11*
X10555119Y-16687976D02*
X10555119Y-16487976D01*
X10602738Y-16487976D01*
X10631310Y-16497500D01*
X10650357Y-16516548D01*
X10659881Y-16535595D01*
X10669405Y-16573690D01*
X10669405Y-16602262D01*
X10659881Y-16640357D01*
X10650357Y-16659405D01*
X10631310Y-16678452D01*
X10602738Y-16687976D01*
X10555119Y-16687976D01*
X10755119Y-16687976D02*
X10755119Y-16554643D01*
X10755119Y-16592738D02*
X10764643Y-16573690D01*
X10774167Y-16564167D01*
X10793214Y-16554643D01*
X10812262Y-16554643D01*
X10878929Y-16687976D02*
X10878929Y-16554643D01*
X10878929Y-16487976D02*
X10869405Y-16497500D01*
X10878929Y-16507024D01*
X10888452Y-16497500D01*
X10878929Y-16487976D01*
X10878929Y-16507024D01*
X11002738Y-16687976D02*
X10983690Y-16678452D01*
X10974167Y-16659405D01*
X10974167Y-16487976D01*
X11107500Y-16687976D02*
X11088452Y-16678452D01*
X11078929Y-16659405D01*
X11078929Y-16487976D01*
X11336071Y-16687976D02*
X11336071Y-16487976D01*
X11402738Y-16630833D01*
X11469405Y-16487976D01*
X11469405Y-16687976D01*
X11650357Y-16687976D02*
X11650357Y-16583214D01*
X11640833Y-16564167D01*
X11621786Y-16554643D01*
X11583690Y-16554643D01*
X11564643Y-16564167D01*
X11650357Y-16678452D02*
X11631309Y-16687976D01*
X11583690Y-16687976D01*
X11564643Y-16678452D01*
X11555119Y-16659405D01*
X11555119Y-16640357D01*
X11564643Y-16621309D01*
X11583690Y-16611786D01*
X11631309Y-16611786D01*
X11650357Y-16602262D01*
X11745595Y-16554643D02*
X11745595Y-16754643D01*
X11745595Y-16564167D02*
X11764643Y-16554643D01*
X11802738Y-16554643D01*
X11821786Y-16564167D01*
X11831309Y-16573690D01*
X11840833Y-16592738D01*
X11840833Y-16649881D01*
X11831309Y-16668928D01*
X11821786Y-16678452D01*
X11802738Y-16687976D01*
X11764643Y-16687976D01*
X11745595Y-16678452D01*
X11926548Y-16668928D02*
X11936071Y-16678452D01*
X11926548Y-16687976D01*
X11917024Y-16678452D01*
X11926548Y-16668928D01*
X11926548Y-16687976D01*
X11926548Y-16564167D02*
X11936071Y-16573690D01*
X11926548Y-16583214D01*
X11917024Y-16573690D01*
X11926548Y-16564167D01*
X11926548Y-16583214D01*
D12*
X10257500Y-16997500D02*
X10297500Y-17037500D01*
X10297500Y-16997500D02*
X10257500Y-17037500D01*
D11*
X10593214Y-16907976D02*
X10612262Y-16907976D01*
X10631310Y-16917500D01*
X10640833Y-16927024D01*
X10650357Y-16946071D01*
X10659881Y-16984167D01*
X10659881Y-17031786D01*
X10650357Y-17069881D01*
X10640833Y-17088929D01*
X10631310Y-17098452D01*
X10612262Y-17107976D01*
X10593214Y-17107976D01*
X10574167Y-17098452D01*
X10564643Y-17088929D01*
X10555119Y-17069881D01*
X10545595Y-17031786D01*
X10545595Y-16984167D01*
X10555119Y-16946071D01*
X10564643Y-16927024D01*
X10574167Y-16917500D01*
X10593214Y-16907976D01*
X10745595Y-17088929D02*
X10755119Y-17098452D01*
X10745595Y-17107976D01*
X10736071Y-17098452D01*
X10745595Y-17088929D01*
X10745595Y-17107976D01*
X10926548Y-16974643D02*
X10926548Y-17107976D01*
X10878929Y-16898452D02*
X10831310Y-17041310D01*
X10955119Y-17041310D01*
X11069405Y-16907976D02*
X11088452Y-16907976D01*
X11107500Y-16917500D01*
X11117024Y-16927024D01*
X11126548Y-16946071D01*
X11136071Y-16984167D01*
X11136071Y-17031786D01*
X11126548Y-17069881D01*
X11117024Y-17088929D01*
X11107500Y-17098452D01*
X11088452Y-17107976D01*
X11069405Y-17107976D01*
X11050357Y-17098452D01*
X11040833Y-17088929D01*
X11031310Y-17069881D01*
X11021786Y-17031786D01*
X11021786Y-16984167D01*
X11031310Y-16946071D01*
X11040833Y-16927024D01*
X11050357Y-16917500D01*
X11069405Y-16907976D01*
X11259881Y-16907976D02*
X11278928Y-16907976D01*
X11297976Y-16917500D01*
X11307500Y-16927024D01*
X11317024Y-16946071D01*
X11326548Y-16984167D01*
X11326548Y-17031786D01*
X11317024Y-17069881D01*
X11307500Y-17088929D01*
X11297976Y-17098452D01*
X11278928Y-17107976D01*
X11259881Y-17107976D01*
X11240833Y-17098452D01*
X11231309Y-17088929D01*
X11221786Y-17069881D01*
X11212262Y-17031786D01*
X11212262Y-16984167D01*
X11221786Y-16946071D01*
X11231309Y-16927024D01*
X11240833Y-16917500D01*
X11259881Y-16907976D01*
X11412262Y-17107976D02*
X11412262Y-16974643D01*
X11412262Y-16993690D02*
X11421786Y-16984167D01*
X11440833Y-16974643D01*
X11469405Y-16974643D01*
X11488452Y-16984167D01*
X11497976Y-17003214D01*
X11497976Y-17107976D01*
X11497976Y-17003214D02*
X11507500Y-16984167D01*
X11526548Y-16974643D01*
X11555119Y-16974643D01*
X11574167Y-16984167D01*
X11583690Y-17003214D01*
X11583690Y-17107976D01*
X11678928Y-17107976D02*
X11678928Y-16974643D01*
X11678928Y-16993690D02*
X11688452Y-16984167D01*
X11707500Y-16974643D01*
X11736071Y-16974643D01*
X11755119Y-16984167D01*
X11764643Y-17003214D01*
X11764643Y-17107976D01*
X11764643Y-17003214D02*
X11774167Y-16984167D01*
X11793214Y-16974643D01*
X11821786Y-16974643D01*
X11840833Y-16984167D01*
X11850357Y-17003214D01*
X11850357Y-17107976D01*
X12240833Y-16898452D02*
X12069405Y-17155595D01*
X12497976Y-16907976D02*
X12517024Y-16907976D01*
X12536071Y-16917500D01*
X12545595Y-16927024D01*
X12555119Y-16946071D01*
X12564643Y-16984167D01*
X12564643Y-17031786D01*
X12555119Y-17069881D01*
X12545595Y-17088929D01*
X12536071Y-17098452D01*
X12517024Y-17107976D01*
X12497976Y-17107976D01*
X12478928Y-17098452D01*
X12469405Y-17088929D01*
X12459881Y-17069881D01*
X12450357Y-17031786D01*
X12450357Y-16984167D01*
X12459881Y-16946071D01*
X12469405Y-16927024D01*
X12478928Y-16917500D01*
X12497976Y-16907976D01*
X12650357Y-17088929D02*
X12659881Y-17098452D01*
X12650357Y-17107976D01*
X12640833Y-17098452D01*
X12650357Y-17088929D01*
X12650357Y-17107976D01*
X12783690Y-16907976D02*
X12802738Y-16907976D01*
X12821786Y-16917500D01*
X12831309Y-16927024D01*
X12840833Y-16946071D01*
X12850357Y-16984167D01*
X12850357Y-17031786D01*
X12840833Y-17069881D01*
X12831309Y-17088929D01*
X12821786Y-17098452D01*
X12802738Y-17107976D01*
X12783690Y-17107976D01*
X12764643Y-17098452D01*
X12755119Y-17088929D01*
X12745595Y-17069881D01*
X12736071Y-17031786D01*
X12736071Y-16984167D01*
X12745595Y-16946071D01*
X12755119Y-16927024D01*
X12764643Y-16917500D01*
X12783690Y-16907976D01*
X13040833Y-17107976D02*
X12926548Y-17107976D01*
X12983690Y-17107976D02*
X12983690Y-16907976D01*
X12964643Y-16936548D01*
X12945595Y-16955595D01*
X12926548Y-16965119D01*
X13221786Y-16907976D02*
X13126548Y-16907976D01*
X13117024Y-17003214D01*
X13126548Y-16993690D01*
X13145595Y-16984167D01*
X13193214Y-16984167D01*
X13212262Y-16993690D01*
X13221786Y-17003214D01*
X13231309Y-17022262D01*
X13231309Y-17069881D01*
X13221786Y-17088929D01*
X13212262Y-17098452D01*
X13193214Y-17107976D01*
X13145595Y-17107976D01*
X13126548Y-17098452D01*
X13117024Y-17088929D01*
X13297976Y-16907976D02*
X13431309Y-16907976D01*
X13345595Y-17107976D01*
X13497976Y-16907976D02*
X13497976Y-16946071D01*
X13574167Y-16907976D02*
X13574167Y-16946071D01*
X13869405Y-17184167D02*
X13859881Y-17174643D01*
X13840833Y-17146071D01*
X13831309Y-17127024D01*
X13821786Y-17098452D01*
X13812262Y-17050833D01*
X13812262Y-17012738D01*
X13821786Y-16965119D01*
X13831309Y-16936548D01*
X13840833Y-16917500D01*
X13859881Y-16888929D01*
X13869405Y-16879405D01*
X13936071Y-16927024D02*
X13945595Y-16917500D01*
X13964643Y-16907976D01*
X14012262Y-16907976D01*
X14031309Y-16917500D01*
X14040833Y-16927024D01*
X14050357Y-16946071D01*
X14050357Y-16965119D01*
X14040833Y-16993690D01*
X13926548Y-17107976D01*
X14050357Y-17107976D01*
X14231309Y-16907976D02*
X14136071Y-16907976D01*
X14126548Y-17003214D01*
X14136071Y-16993690D01*
X14155119Y-16984167D01*
X14202738Y-16984167D01*
X14221786Y-16993690D01*
X14231309Y-17003214D01*
X14240833Y-17022262D01*
X14240833Y-17069881D01*
X14231309Y-17088929D01*
X14221786Y-17098452D01*
X14202738Y-17107976D01*
X14155119Y-17107976D01*
X14136071Y-17098452D01*
X14126548Y-17088929D01*
X14478928Y-17107976D02*
X14478928Y-16907976D01*
X14564643Y-17107976D02*
X14564643Y-17003214D01*
X14555119Y-16984167D01*
X14536071Y-16974643D01*
X14507500Y-16974643D01*
X14488452Y-16984167D01*
X14478928Y-16993690D01*
X14688452Y-17107976D02*
X14669405Y-17098452D01*
X14659881Y-17088929D01*
X14650357Y-17069881D01*
X14650357Y-17012738D01*
X14659881Y-16993690D01*
X14669405Y-16984167D01*
X14688452Y-16974643D01*
X14717024Y-16974643D01*
X14736071Y-16984167D01*
X14745595Y-16993690D01*
X14755119Y-17012738D01*
X14755119Y-17069881D01*
X14745595Y-17088929D01*
X14736071Y-17098452D01*
X14717024Y-17107976D01*
X14688452Y-17107976D01*
X14869405Y-17107976D02*
X14850357Y-17098452D01*
X14840833Y-17079405D01*
X14840833Y-16907976D01*
X15021786Y-17098452D02*
X15002738Y-17107976D01*
X14964643Y-17107976D01*
X14945595Y-17098452D01*
X14936071Y-17079405D01*
X14936071Y-17003214D01*
X14945595Y-16984167D01*
X14964643Y-16974643D01*
X15002738Y-16974643D01*
X15021786Y-16984167D01*
X15031309Y-17003214D01*
X15031309Y-17022262D01*
X14936071Y-17041310D01*
X15107500Y-17098452D02*
X15126548Y-17107976D01*
X15164643Y-17107976D01*
X15183690Y-17098452D01*
X15193214Y-17079405D01*
X15193214Y-17069881D01*
X15183690Y-17050833D01*
X15164643Y-17041310D01*
X15136071Y-17041310D01*
X15117024Y-17031786D01*
X15107500Y-17012738D01*
X15107500Y-17003214D01*
X15117024Y-16984167D01*
X15136071Y-16974643D01*
X15164643Y-16974643D01*
X15183690Y-16984167D01*
X15259881Y-17184167D02*
X15269405Y-17174643D01*
X15288452Y-17146071D01*
X15297976Y-17127024D01*
X15307500Y-17098452D01*
X15317024Y-17050833D01*
X15317024Y-17012738D01*
X15307500Y-16965119D01*
X15297976Y-16936548D01*
X15288452Y-16917500D01*
X15269405Y-16888929D01*
X15259881Y-16879405D01*
X10297500Y-17281500D02*
G75*
G03*
X10297500Y-17281500I-100000J0D01*
G01*
X10545595Y-17191024D02*
X10555119Y-17181500D01*
X10574167Y-17171976D01*
X10621786Y-17171976D01*
X10640833Y-17181500D01*
X10650357Y-17191024D01*
X10659881Y-17210071D01*
X10659881Y-17229119D01*
X10650357Y-17257690D01*
X10536071Y-17371976D01*
X10659881Y-17371976D01*
X10745595Y-17352929D02*
X10755119Y-17362452D01*
X10745595Y-17371976D01*
X10736071Y-17362452D01*
X10745595Y-17352929D01*
X10745595Y-17371976D01*
X10850357Y-17371976D02*
X10888452Y-17371976D01*
X10907500Y-17362452D01*
X10917024Y-17352929D01*
X10936071Y-17324357D01*
X10945595Y-17286262D01*
X10945595Y-17210071D01*
X10936071Y-17191024D01*
X10926548Y-17181500D01*
X10907500Y-17171976D01*
X10869405Y-17171976D01*
X10850357Y-17181500D01*
X10840833Y-17191024D01*
X10831310Y-17210071D01*
X10831310Y-17257690D01*
X10840833Y-17276738D01*
X10850357Y-17286262D01*
X10869405Y-17295786D01*
X10907500Y-17295786D01*
X10926548Y-17286262D01*
X10936071Y-17276738D01*
X10945595Y-17257690D01*
X11126548Y-17171976D02*
X11031310Y-17171976D01*
X11021786Y-17267214D01*
X11031310Y-17257690D01*
X11050357Y-17248167D01*
X11097976Y-17248167D01*
X11117024Y-17257690D01*
X11126548Y-17267214D01*
X11136071Y-17286262D01*
X11136071Y-17333881D01*
X11126548Y-17352929D01*
X11117024Y-17362452D01*
X11097976Y-17371976D01*
X11050357Y-17371976D01*
X11031310Y-17362452D01*
X11021786Y-17352929D01*
X11259881Y-17171976D02*
X11278928Y-17171976D01*
X11297976Y-17181500D01*
X11307500Y-17191024D01*
X11317024Y-17210071D01*
X11326548Y-17248167D01*
X11326548Y-17295786D01*
X11317024Y-17333881D01*
X11307500Y-17352929D01*
X11297976Y-17362452D01*
X11278928Y-17371976D01*
X11259881Y-17371976D01*
X11240833Y-17362452D01*
X11231309Y-17352929D01*
X11221786Y-17333881D01*
X11212262Y-17295786D01*
X11212262Y-17248167D01*
X11221786Y-17210071D01*
X11231309Y-17191024D01*
X11240833Y-17181500D01*
X11259881Y-17171976D01*
X11412262Y-17371976D02*
X11412262Y-17238643D01*
X11412262Y-17257690D02*
X11421786Y-17248167D01*
X11440833Y-17238643D01*
X11469405Y-17238643D01*
X11488452Y-17248167D01*
X11497976Y-17267214D01*
X11497976Y-17371976D01*
X11497976Y-17267214D02*
X11507500Y-17248167D01*
X11526548Y-17238643D01*
X11555119Y-17238643D01*
X11574167Y-17248167D01*
X11583690Y-17267214D01*
X11583690Y-17371976D01*
X11678928Y-17371976D02*
X11678928Y-17238643D01*
X11678928Y-17257690D02*
X11688452Y-17248167D01*
X11707500Y-17238643D01*
X11736071Y-17238643D01*
X11755119Y-17248167D01*
X11764643Y-17267214D01*
X11764643Y-17371976D01*
X11764643Y-17267214D02*
X11774167Y-17248167D01*
X11793214Y-17238643D01*
X11821786Y-17238643D01*
X11840833Y-17248167D01*
X11850357Y-17267214D01*
X11850357Y-17371976D01*
X12240833Y-17162452D02*
X12069405Y-17419595D01*
X12497976Y-17171976D02*
X12517024Y-17171976D01*
X12536071Y-17181500D01*
X12545595Y-17191024D01*
X12555119Y-17210071D01*
X12564643Y-17248167D01*
X12564643Y-17295786D01*
X12555119Y-17333881D01*
X12545595Y-17352929D01*
X12536071Y-17362452D01*
X12517024Y-17371976D01*
X12497976Y-17371976D01*
X12478928Y-17362452D01*
X12469405Y-17352929D01*
X12459881Y-17333881D01*
X12450357Y-17295786D01*
X12450357Y-17248167D01*
X12459881Y-17210071D01*
X12469405Y-17191024D01*
X12478928Y-17181500D01*
X12497976Y-17171976D01*
X12650357Y-17352929D02*
X12659881Y-17362452D01*
X12650357Y-17371976D01*
X12640833Y-17362452D01*
X12650357Y-17352929D01*
X12650357Y-17371976D01*
X12850357Y-17371976D02*
X12736071Y-17371976D01*
X12793214Y-17371976D02*
X12793214Y-17171976D01*
X12774167Y-17200548D01*
X12755119Y-17219595D01*
X12736071Y-17229119D01*
X13040833Y-17371976D02*
X12926548Y-17371976D01*
X12983690Y-17371976D02*
X12983690Y-17171976D01*
X12964643Y-17200548D01*
X12945595Y-17219595D01*
X12926548Y-17229119D01*
X13212262Y-17171976D02*
X13174167Y-17171976D01*
X13155119Y-17181500D01*
X13145595Y-17191024D01*
X13126548Y-17219595D01*
X13117024Y-17257690D01*
X13117024Y-17333881D01*
X13126548Y-17352929D01*
X13136071Y-17362452D01*
X13155119Y-17371976D01*
X13193214Y-17371976D01*
X13212262Y-17362452D01*
X13221786Y-17352929D01*
X13231309Y-17333881D01*
X13231309Y-17286262D01*
X13221786Y-17267214D01*
X13212262Y-17257690D01*
X13193214Y-17248167D01*
X13155119Y-17248167D01*
X13136071Y-17257690D01*
X13126548Y-17267214D01*
X13117024Y-17286262D01*
X13421786Y-17371976D02*
X13307500Y-17371976D01*
X13364643Y-17371976D02*
X13364643Y-17171976D01*
X13345595Y-17200548D01*
X13326548Y-17219595D01*
X13307500Y-17229119D01*
X13497976Y-17171976D02*
X13497976Y-17210071D01*
X13574167Y-17171976D02*
X13574167Y-17210071D01*
X13869405Y-17448167D02*
X13859881Y-17438643D01*
X13840833Y-17410071D01*
X13831309Y-17391024D01*
X13821786Y-17362452D01*
X13812262Y-17314833D01*
X13812262Y-17276738D01*
X13821786Y-17229119D01*
X13831309Y-17200548D01*
X13840833Y-17181500D01*
X13859881Y-17152929D01*
X13869405Y-17143405D01*
X14031309Y-17238643D02*
X14031309Y-17371976D01*
X13983690Y-17162452D02*
X13936071Y-17305310D01*
X14059881Y-17305310D01*
X14288452Y-17371976D02*
X14288452Y-17171976D01*
X14374167Y-17371976D02*
X14374167Y-17267214D01*
X14364643Y-17248167D01*
X14345595Y-17238643D01*
X14317024Y-17238643D01*
X14297976Y-17248167D01*
X14288452Y-17257690D01*
X14497976Y-17371976D02*
X14478928Y-17362452D01*
X14469405Y-17352929D01*
X14459881Y-17333881D01*
X14459881Y-17276738D01*
X14469405Y-17257690D01*
X14478928Y-17248167D01*
X14497976Y-17238643D01*
X14526548Y-17238643D01*
X14545595Y-17248167D01*
X14555119Y-17257690D01*
X14564643Y-17276738D01*
X14564643Y-17333881D01*
X14555119Y-17352929D01*
X14545595Y-17362452D01*
X14526548Y-17371976D01*
X14497976Y-17371976D01*
X14678928Y-17371976D02*
X14659881Y-17362452D01*
X14650357Y-17343405D01*
X14650357Y-17171976D01*
X14831309Y-17362452D02*
X14812262Y-17371976D01*
X14774167Y-17371976D01*
X14755119Y-17362452D01*
X14745595Y-17343405D01*
X14745595Y-17267214D01*
X14755119Y-17248167D01*
X14774167Y-17238643D01*
X14812262Y-17238643D01*
X14831309Y-17248167D01*
X14840833Y-17267214D01*
X14840833Y-17286262D01*
X14745595Y-17305310D01*
X14917024Y-17362452D02*
X14936071Y-17371976D01*
X14974167Y-17371976D01*
X14993214Y-17362452D01*
X15002738Y-17343405D01*
X15002738Y-17333881D01*
X14993214Y-17314833D01*
X14974167Y-17305310D01*
X14945595Y-17305310D01*
X14926548Y-17295786D01*
X14917024Y-17276738D01*
X14917024Y-17267214D01*
X14926548Y-17248167D01*
X14945595Y-17238643D01*
X14974167Y-17238643D01*
X14993214Y-17248167D01*
X15069405Y-17448167D02*
X15078928Y-17438643D01*
X15097976Y-17410071D01*
X15107500Y-17391024D01*
X15117024Y-17362452D01*
X15126548Y-17314833D01*
X15126548Y-17276738D01*
X15117024Y-17229119D01*
X15107500Y-17200548D01*
X15097976Y-17181500D01*
X15078928Y-17152929D01*
X15069405Y-17143405D01*
M02*
