%TF.GenerationSoftware,KiCad,Pcbnew,(6.0.9)*%
%TF.CreationDate,2023-01-30T20:43:42-08:00*%
%TF.ProjectId,solar-panel-NoCutout,736f6c61-722d-4706-916e-656c2d4e6f43,2.0*%
%TF.SameCoordinates,Original*%
%TF.FileFunction,Legend,Top*%
%TF.FilePolarity,Positive*%
%FSLAX46Y46*%
G04 Gerber Fmt 4.6, Leading zero omitted, Abs format (unit mm)*
G04 Created by KiCad (PCBNEW (6.0.9)) date 2023-01-30 20:43:42*
%MOMM*%
%LPD*%
G01*
G04 APERTURE LIST*
%TA.AperFunction,Profile*%
%ADD10C,0.050000*%
%TD*%
%ADD11C,0.150000*%
%ADD12C,0.500000*%
%ADD13C,0.120000*%
%ADD14C,0.100000*%
G04 APERTURE END LIST*
D10*
X136850000Y-153000000D02*
X136850000Y-147000000D01*
X142150000Y-153000000D02*
X142150000Y-147000000D01*
X146850000Y-147000000D02*
X146850000Y-153000000D01*
X152150000Y-153000000D02*
X152150000Y-147000000D01*
X142150000Y-76600000D02*
X142150000Y-82600000D01*
X136850000Y-76600000D02*
X136850000Y-82600000D01*
X146850000Y-76600000D02*
X146850000Y-82600000D01*
X152150000Y-76600000D02*
X152150000Y-82600000D01*
X186000000Y-65750000D02*
X103000000Y-65750000D01*
X183125000Y-114650000D02*
G75*
G03*
X183125000Y-114650000I-2625000J0D01*
G01*
X108744606Y-139557190D02*
X103000000Y-139557190D01*
X180249992Y-139557104D02*
G75*
G03*
X180350001Y-144749999I250008J-2592596D01*
G01*
X186000000Y-163750000D02*
X186000000Y-156450000D01*
X186000000Y-73100000D02*
X186000000Y-65750000D01*
X106000000Y-75100000D02*
X103000000Y-75100000D01*
X108650000Y-77750000D02*
G75*
G03*
X106000000Y-75100000I-2650000J0D01*
G01*
X106000000Y-89000000D02*
G75*
G03*
X108650000Y-86350000I0J2650000D01*
G01*
X106000000Y-89000000D02*
X103000000Y-89000000D01*
X108650000Y-77750000D02*
X108650000Y-86350000D01*
X183000000Y-75100000D02*
G75*
G03*
X180350000Y-77750000I0J-2650000D01*
G01*
X180350000Y-86350000D02*
G75*
G03*
X183000000Y-89000000I2650000J0D01*
G01*
X183000000Y-75100000D02*
X186000000Y-75100000D01*
X180350000Y-77750000D02*
X180350000Y-86350000D01*
X183000000Y-89000000D02*
X186000000Y-89000000D01*
X103000000Y-65750000D02*
X103000000Y-75100000D01*
X103000000Y-89000000D02*
X103000000Y-139557190D01*
X103000000Y-154400000D02*
X103000000Y-163750000D01*
X186000000Y-156450000D02*
X186000000Y-154400000D01*
X186000000Y-75100000D02*
X186000000Y-73100000D01*
X185994606Y-139557190D02*
X180250000Y-139557190D01*
X136850000Y-82600000D02*
G75*
G03*
X142150000Y-82600000I2650000J0D01*
G01*
X108649999Y-144750000D02*
G75*
G03*
X108744606Y-139557190I-149999J2600000D01*
G01*
X108650000Y-151750000D02*
X108650000Y-144750000D01*
X152150000Y-76600000D02*
G75*
G03*
X146850000Y-76600000I-2650000J0D01*
G01*
X142150000Y-76600000D02*
G75*
G03*
X136850000Y-76600000I-2650000J0D01*
G01*
X103000000Y-163750000D02*
X186000000Y-163750000D01*
X142150000Y-147000000D02*
G75*
G03*
X136850000Y-147000000I-2650000J0D01*
G01*
X180350000Y-151750000D02*
X180350000Y-144750000D01*
X106000000Y-154400000D02*
X103000000Y-154400000D01*
X136850000Y-153000000D02*
G75*
G03*
X142150000Y-153000000I2650000J0D01*
G01*
X152150000Y-147000000D02*
G75*
G03*
X146850000Y-147000000I-2650000J0D01*
G01*
X106000000Y-154400000D02*
G75*
G03*
X108650000Y-151750000I0J2650000D01*
G01*
X180350000Y-151750000D02*
G75*
G03*
X183000000Y-154400000I2650000J0D01*
G01*
X146850000Y-153000000D02*
G75*
G03*
X152150000Y-153000000I2650000J0D01*
G01*
X183000000Y-154400000D02*
X186000000Y-154400000D01*
X186000000Y-89000000D02*
X185994606Y-139557190D01*
X146850000Y-82600000D02*
G75*
G03*
X152150000Y-82600000I2650000J0D01*
G01*
X111125000Y-114650000D02*
G75*
G03*
X111125000Y-114650000I-2625000J0D01*
G01*
D11*
X105428095Y-132010000D02*
X105332857Y-131962380D01*
X105190000Y-131962380D01*
X105047142Y-132010000D01*
X104951904Y-132105238D01*
X104904285Y-132200476D01*
X104856666Y-132390952D01*
X104856666Y-132533809D01*
X104904285Y-132724285D01*
X104951904Y-132819523D01*
X105047142Y-132914761D01*
X105190000Y-132962380D01*
X105285238Y-132962380D01*
X105428095Y-132914761D01*
X105475714Y-132867142D01*
X105475714Y-132533809D01*
X105285238Y-132533809D01*
X105904285Y-132962380D02*
X105904285Y-131962380D01*
X106475714Y-132962380D01*
X106475714Y-131962380D01*
X106951904Y-132962380D02*
X106951904Y-131962380D01*
X107190000Y-131962380D01*
X107332857Y-132010000D01*
X107428095Y-132105238D01*
X107475714Y-132200476D01*
X107523333Y-132390952D01*
X107523333Y-132533809D01*
X107475714Y-132724285D01*
X107428095Y-132819523D01*
X107332857Y-132914761D01*
X107190000Y-132962380D01*
X106951904Y-132962380D01*
X158695238Y-118902380D02*
X158695238Y-117902380D01*
X159076190Y-117902380D01*
X159171428Y-117950000D01*
X159219047Y-117997619D01*
X159266666Y-118092857D01*
X159266666Y-118235714D01*
X159219047Y-118330952D01*
X159171428Y-118378571D01*
X159076190Y-118426190D01*
X158695238Y-118426190D01*
X159885714Y-117902380D02*
X160076190Y-117902380D01*
X160171428Y-117950000D01*
X160266666Y-118045238D01*
X160314285Y-118235714D01*
X160314285Y-118569047D01*
X160266666Y-118759523D01*
X160171428Y-118854761D01*
X160076190Y-118902380D01*
X159885714Y-118902380D01*
X159790476Y-118854761D01*
X159695238Y-118759523D01*
X159647619Y-118569047D01*
X159647619Y-118235714D01*
X159695238Y-118045238D01*
X159790476Y-117950000D01*
X159885714Y-117902380D01*
X160742857Y-118902380D02*
X160742857Y-117902380D01*
X161123809Y-117902380D01*
X161219047Y-117950000D01*
X161266666Y-117997619D01*
X161314285Y-118092857D01*
X161314285Y-118235714D01*
X161266666Y-118330952D01*
X161219047Y-118378571D01*
X161123809Y-118426190D01*
X160742857Y-118426190D01*
X161742857Y-117902380D02*
X161742857Y-118711904D01*
X161790476Y-118807142D01*
X161838095Y-118854761D01*
X161933333Y-118902380D01*
X162123809Y-118902380D01*
X162219047Y-118854761D01*
X162266666Y-118807142D01*
X162314285Y-118711904D01*
X162314285Y-117902380D01*
X163266666Y-118902380D02*
X162790476Y-118902380D01*
X162790476Y-117902380D01*
X163552380Y-118616666D02*
X164028571Y-118616666D01*
X163457142Y-118902380D02*
X163790476Y-117902380D01*
X164123809Y-118902380D01*
X164314285Y-117902380D02*
X164885714Y-117902380D01*
X164600000Y-118902380D02*
X164600000Y-117902380D01*
X165219047Y-118378571D02*
X165552380Y-118378571D01*
X165695238Y-118902380D02*
X165219047Y-118902380D01*
X165219047Y-117902380D01*
X165695238Y-117902380D01*
X167457142Y-118902380D02*
X167123809Y-118426190D01*
X166885714Y-118902380D02*
X166885714Y-117902380D01*
X167266666Y-117902380D01*
X167361904Y-117950000D01*
X167409523Y-117997619D01*
X167457142Y-118092857D01*
X167457142Y-118235714D01*
X167409523Y-118330952D01*
X167361904Y-118378571D01*
X167266666Y-118426190D01*
X166885714Y-118426190D01*
X167790476Y-117902380D02*
X168409523Y-117902380D01*
X168076190Y-118283333D01*
X168219047Y-118283333D01*
X168314285Y-118330952D01*
X168361904Y-118378571D01*
X168409523Y-118473809D01*
X168409523Y-118711904D01*
X168361904Y-118807142D01*
X168314285Y-118854761D01*
X168219047Y-118902380D01*
X167933333Y-118902380D01*
X167838095Y-118854761D01*
X167790476Y-118807142D01*
X169933333Y-118378571D02*
X169600000Y-118378571D01*
X169600000Y-118902380D02*
X169600000Y-117902380D01*
X170076190Y-117902380D01*
X170647619Y-117902380D02*
X170838095Y-117902380D01*
X170933333Y-117950000D01*
X171028571Y-118045238D01*
X171076190Y-118235714D01*
X171076190Y-118569047D01*
X171028571Y-118759523D01*
X170933333Y-118854761D01*
X170838095Y-118902380D01*
X170647619Y-118902380D01*
X170552380Y-118854761D01*
X170457142Y-118759523D01*
X170409523Y-118569047D01*
X170409523Y-118235714D01*
X170457142Y-118045238D01*
X170552380Y-117950000D01*
X170647619Y-117902380D01*
X172076190Y-118902380D02*
X171742857Y-118426190D01*
X171504761Y-118902380D02*
X171504761Y-117902380D01*
X171885714Y-117902380D01*
X171980952Y-117950000D01*
X172028571Y-117997619D01*
X172076190Y-118092857D01*
X172076190Y-118235714D01*
X172028571Y-118330952D01*
X171980952Y-118378571D01*
X171885714Y-118426190D01*
X171504761Y-118426190D01*
X173266666Y-118902380D02*
X173266666Y-117902380D01*
X173600000Y-118616666D01*
X173933333Y-117902380D01*
X173933333Y-118902380D01*
X174361904Y-118616666D02*
X174838095Y-118616666D01*
X174266666Y-118902380D02*
X174600000Y-117902380D01*
X174933333Y-118902380D01*
X175790476Y-117950000D02*
X175695238Y-117902380D01*
X175552380Y-117902380D01*
X175409523Y-117950000D01*
X175314285Y-118045238D01*
X175266666Y-118140476D01*
X175219047Y-118330952D01*
X175219047Y-118473809D01*
X175266666Y-118664285D01*
X175314285Y-118759523D01*
X175409523Y-118854761D01*
X175552380Y-118902380D01*
X175647619Y-118902380D01*
X175790476Y-118854761D01*
X175838095Y-118807142D01*
X175838095Y-118473809D01*
X175647619Y-118473809D01*
X176266666Y-118902380D02*
X176266666Y-117902380D01*
X176838095Y-118902380D01*
X176838095Y-117902380D01*
X177314285Y-118378571D02*
X177647619Y-118378571D01*
X177790476Y-118902380D02*
X177314285Y-118902380D01*
X177314285Y-117902380D01*
X177790476Y-117902380D01*
X178076190Y-117902380D02*
X178647619Y-117902380D01*
X178361904Y-118902380D02*
X178361904Y-117902380D01*
X179171428Y-117902380D02*
X179361904Y-117902380D01*
X179457142Y-117950000D01*
X179552380Y-118045238D01*
X179600000Y-118235714D01*
X179600000Y-118569047D01*
X179552380Y-118759523D01*
X179457142Y-118854761D01*
X179361904Y-118902380D01*
X179171428Y-118902380D01*
X179076190Y-118854761D01*
X178980952Y-118759523D01*
X178933333Y-118569047D01*
X178933333Y-118235714D01*
X178980952Y-118045238D01*
X179076190Y-117950000D01*
X179171428Y-117902380D01*
X180600000Y-118902380D02*
X180266666Y-118426190D01*
X180028571Y-118902380D02*
X180028571Y-117902380D01*
X180409523Y-117902380D01*
X180504761Y-117950000D01*
X180552380Y-117997619D01*
X180600000Y-118092857D01*
X180600000Y-118235714D01*
X180552380Y-118330952D01*
X180504761Y-118378571D01*
X180409523Y-118426190D01*
X180028571Y-118426190D01*
X181695238Y-118997619D02*
X181600000Y-118950000D01*
X181504761Y-118854761D01*
X181361904Y-118711904D01*
X181266666Y-118664285D01*
X181171428Y-118664285D01*
X181219047Y-118902380D02*
X181123809Y-118854761D01*
X181028571Y-118759523D01*
X180980952Y-118569047D01*
X180980952Y-118235714D01*
X181028571Y-118045238D01*
X181123809Y-117950000D01*
X181219047Y-117902380D01*
X181409523Y-117902380D01*
X181504761Y-117950000D01*
X181600000Y-118045238D01*
X181647619Y-118235714D01*
X181647619Y-118569047D01*
X181600000Y-118759523D01*
X181504761Y-118854761D01*
X181409523Y-118902380D01*
X181219047Y-118902380D01*
X182076190Y-117902380D02*
X182076190Y-118711904D01*
X182123809Y-118807142D01*
X182171428Y-118854761D01*
X182266666Y-118902380D01*
X182457142Y-118902380D01*
X182552380Y-118854761D01*
X182600000Y-118807142D01*
X182647619Y-118711904D01*
X182647619Y-117902380D01*
X183123809Y-118378571D02*
X183457142Y-118378571D01*
X183600000Y-118902380D02*
X183123809Y-118902380D01*
X183123809Y-117902380D01*
X183600000Y-117902380D01*
X184600000Y-118902380D02*
X184266666Y-118426190D01*
X184028571Y-118902380D02*
X184028571Y-117902380D01*
X184409523Y-117902380D01*
X184504761Y-117950000D01*
X184552380Y-117997619D01*
X184600000Y-118092857D01*
X184600000Y-118235714D01*
X184552380Y-118330952D01*
X184504761Y-118378571D01*
X184409523Y-118426190D01*
X184028571Y-118426190D01*
X184980952Y-118854761D02*
X185123809Y-118902380D01*
X185361904Y-118902380D01*
X185457142Y-118854761D01*
X185504761Y-118807142D01*
X185552380Y-118711904D01*
X185552380Y-118616666D01*
X185504761Y-118521428D01*
X185457142Y-118473809D01*
X185361904Y-118426190D01*
X185171428Y-118378571D01*
X185076190Y-118330952D01*
X185028571Y-118283333D01*
X184980952Y-118188095D01*
X184980952Y-118092857D01*
X185028571Y-117997619D01*
X185076190Y-117950000D01*
X185171428Y-117902380D01*
X185409523Y-117902380D01*
X185552380Y-117950000D01*
X165652857Y-116635714D02*
X164890952Y-116921428D01*
X165652857Y-117207142D01*
X166129047Y-116921428D02*
X166890952Y-116921428D01*
X167367142Y-116921428D02*
X168129047Y-116921428D01*
X154911904Y-119232380D02*
X155102380Y-119232380D01*
X155197619Y-119280000D01*
X155292857Y-119375238D01*
X155340476Y-119565714D01*
X155340476Y-119899047D01*
X155292857Y-120089523D01*
X155197619Y-120184761D01*
X155102380Y-120232380D01*
X154911904Y-120232380D01*
X154816666Y-120184761D01*
X154721428Y-120089523D01*
X154673809Y-119899047D01*
X154673809Y-119565714D01*
X154721428Y-119375238D01*
X154816666Y-119280000D01*
X154911904Y-119232380D01*
X155769047Y-120232380D02*
X155769047Y-119232380D01*
X156340476Y-120232380D01*
X156340476Y-119232380D01*
X157292857Y-120232380D02*
X156816666Y-120232380D01*
X156816666Y-119232380D01*
X157816666Y-119756190D02*
X157816666Y-120232380D01*
X157483333Y-119232380D02*
X157816666Y-119756190D01*
X158150000Y-119232380D01*
X159102380Y-119232380D02*
X159673809Y-119232380D01*
X159388095Y-120232380D02*
X159388095Y-119232380D01*
X159911904Y-119232380D02*
X160150000Y-120232380D01*
X160340476Y-119518095D01*
X160530952Y-120232380D01*
X160769047Y-119232380D01*
X161340476Y-119232380D02*
X161530952Y-119232380D01*
X161626190Y-119280000D01*
X161721428Y-119375238D01*
X161769047Y-119565714D01*
X161769047Y-119899047D01*
X161721428Y-120089523D01*
X161626190Y-120184761D01*
X161530952Y-120232380D01*
X161340476Y-120232380D01*
X161245238Y-120184761D01*
X161150000Y-120089523D01*
X161102380Y-119899047D01*
X161102380Y-119565714D01*
X161150000Y-119375238D01*
X161245238Y-119280000D01*
X161340476Y-119232380D01*
X163292857Y-119708571D02*
X162959523Y-119708571D01*
X162959523Y-120232380D02*
X162959523Y-119232380D01*
X163435714Y-119232380D01*
X163769047Y-119946666D02*
X164245238Y-119946666D01*
X163673809Y-120232380D02*
X164007142Y-119232380D01*
X164340476Y-120232380D01*
X165245238Y-120137142D02*
X165197619Y-120184761D01*
X165054761Y-120232380D01*
X164959523Y-120232380D01*
X164816666Y-120184761D01*
X164721428Y-120089523D01*
X164673809Y-119994285D01*
X164626190Y-119803809D01*
X164626190Y-119660952D01*
X164673809Y-119470476D01*
X164721428Y-119375238D01*
X164816666Y-119280000D01*
X164959523Y-119232380D01*
X165054761Y-119232380D01*
X165197619Y-119280000D01*
X165245238Y-119327619D01*
X165673809Y-119708571D02*
X166007142Y-119708571D01*
X166150000Y-120232380D02*
X165673809Y-120232380D01*
X165673809Y-119232380D01*
X166150000Y-119232380D01*
X166530952Y-120184761D02*
X166673809Y-120232380D01*
X166911904Y-120232380D01*
X167007142Y-120184761D01*
X167054761Y-120137142D01*
X167102380Y-120041904D01*
X167102380Y-119946666D01*
X167054761Y-119851428D01*
X167007142Y-119803809D01*
X166911904Y-119756190D01*
X166721428Y-119708571D01*
X166626190Y-119660952D01*
X166578571Y-119613333D01*
X166530952Y-119518095D01*
X166530952Y-119422857D01*
X166578571Y-119327619D01*
X166626190Y-119280000D01*
X166721428Y-119232380D01*
X166959523Y-119232380D01*
X167102380Y-119280000D01*
X168245238Y-120184761D02*
X168388095Y-120232380D01*
X168626190Y-120232380D01*
X168721428Y-120184761D01*
X168769047Y-120137142D01*
X168816666Y-120041904D01*
X168816666Y-119946666D01*
X168769047Y-119851428D01*
X168721428Y-119803809D01*
X168626190Y-119756190D01*
X168435714Y-119708571D01*
X168340476Y-119660952D01*
X168292857Y-119613333D01*
X168245238Y-119518095D01*
X168245238Y-119422857D01*
X168292857Y-119327619D01*
X168340476Y-119280000D01*
X168435714Y-119232380D01*
X168673809Y-119232380D01*
X168816666Y-119280000D01*
X169245238Y-120232380D02*
X169245238Y-119232380D01*
X169245238Y-119708571D02*
X169816666Y-119708571D01*
X169816666Y-120232380D02*
X169816666Y-119232380D01*
X170483333Y-119232380D02*
X170673809Y-119232380D01*
X170769047Y-119280000D01*
X170864285Y-119375238D01*
X170911904Y-119565714D01*
X170911904Y-119899047D01*
X170864285Y-120089523D01*
X170769047Y-120184761D01*
X170673809Y-120232380D01*
X170483333Y-120232380D01*
X170388095Y-120184761D01*
X170292857Y-120089523D01*
X170245238Y-119899047D01*
X170245238Y-119565714D01*
X170292857Y-119375238D01*
X170388095Y-119280000D01*
X170483333Y-119232380D01*
X171340476Y-119232380D02*
X171340476Y-120041904D01*
X171388095Y-120137142D01*
X171435714Y-120184761D01*
X171530952Y-120232380D01*
X171721428Y-120232380D01*
X171816666Y-120184761D01*
X171864285Y-120137142D01*
X171911904Y-120041904D01*
X171911904Y-119232380D01*
X172864285Y-120232380D02*
X172388095Y-120232380D01*
X172388095Y-119232380D01*
X173197619Y-120232380D02*
X173197619Y-119232380D01*
X173435714Y-119232380D01*
X173578571Y-119280000D01*
X173673809Y-119375238D01*
X173721428Y-119470476D01*
X173769047Y-119660952D01*
X173769047Y-119803809D01*
X173721428Y-119994285D01*
X173673809Y-120089523D01*
X173578571Y-120184761D01*
X173435714Y-120232380D01*
X173197619Y-120232380D01*
X175292857Y-119708571D02*
X175435714Y-119756190D01*
X175483333Y-119803809D01*
X175530952Y-119899047D01*
X175530952Y-120041904D01*
X175483333Y-120137142D01*
X175435714Y-120184761D01*
X175340476Y-120232380D01*
X174959523Y-120232380D01*
X174959523Y-119232380D01*
X175292857Y-119232380D01*
X175388095Y-119280000D01*
X175435714Y-119327619D01*
X175483333Y-119422857D01*
X175483333Y-119518095D01*
X175435714Y-119613333D01*
X175388095Y-119660952D01*
X175292857Y-119708571D01*
X174959523Y-119708571D01*
X175959523Y-119708571D02*
X176292857Y-119708571D01*
X176435714Y-120232380D02*
X175959523Y-120232380D01*
X175959523Y-119232380D01*
X176435714Y-119232380D01*
X177626190Y-120232380D02*
X177626190Y-119232380D01*
X178007142Y-119232380D01*
X178102380Y-119280000D01*
X178150000Y-119327619D01*
X178197619Y-119422857D01*
X178197619Y-119565714D01*
X178150000Y-119660952D01*
X178102380Y-119708571D01*
X178007142Y-119756190D01*
X177626190Y-119756190D01*
X178816666Y-119232380D02*
X179007142Y-119232380D01*
X179102380Y-119280000D01*
X179197619Y-119375238D01*
X179245238Y-119565714D01*
X179245238Y-119899047D01*
X179197619Y-120089523D01*
X179102380Y-120184761D01*
X179007142Y-120232380D01*
X178816666Y-120232380D01*
X178721428Y-120184761D01*
X178626190Y-120089523D01*
X178578571Y-119899047D01*
X178578571Y-119565714D01*
X178626190Y-119375238D01*
X178721428Y-119280000D01*
X178816666Y-119232380D01*
X179673809Y-120232380D02*
X179673809Y-119232380D01*
X180054761Y-119232380D01*
X180150000Y-119280000D01*
X180197619Y-119327619D01*
X180245238Y-119422857D01*
X180245238Y-119565714D01*
X180197619Y-119660952D01*
X180150000Y-119708571D01*
X180054761Y-119756190D01*
X179673809Y-119756190D01*
X180673809Y-119232380D02*
X180673809Y-120041904D01*
X180721428Y-120137142D01*
X180769047Y-120184761D01*
X180864285Y-120232380D01*
X181054761Y-120232380D01*
X181150000Y-120184761D01*
X181197619Y-120137142D01*
X181245238Y-120041904D01*
X181245238Y-119232380D01*
X182197619Y-120232380D02*
X181721428Y-120232380D01*
X181721428Y-119232380D01*
X182483333Y-119946666D02*
X182959523Y-119946666D01*
X182388095Y-120232380D02*
X182721428Y-119232380D01*
X183054761Y-120232380D01*
X183245238Y-119232380D02*
X183816666Y-119232380D01*
X183530952Y-120232380D02*
X183530952Y-119232380D01*
X184150000Y-119708571D02*
X184483333Y-119708571D01*
X184626190Y-120232380D02*
X184150000Y-120232380D01*
X184150000Y-119232380D01*
X184626190Y-119232380D01*
X185054761Y-120232380D02*
X185054761Y-119232380D01*
X185292857Y-119232380D01*
X185435714Y-119280000D01*
X185530952Y-119375238D01*
X185578571Y-119470476D01*
X185626190Y-119660952D01*
X185626190Y-119803809D01*
X185578571Y-119994285D01*
X185530952Y-120089523D01*
X185435714Y-120184761D01*
X185292857Y-120232380D01*
X185054761Y-120232380D01*
X103733333Y-121002380D02*
X104066666Y-122002380D01*
X104400000Y-121002380D01*
X104685714Y-121954761D02*
X104828571Y-122002380D01*
X105066666Y-122002380D01*
X105161904Y-121954761D01*
X105209523Y-121907142D01*
X105257142Y-121811904D01*
X105257142Y-121716666D01*
X105209523Y-121621428D01*
X105161904Y-121573809D01*
X105066666Y-121526190D01*
X104876190Y-121478571D01*
X104780952Y-121430952D01*
X104733333Y-121383333D01*
X104685714Y-121288095D01*
X104685714Y-121192857D01*
X104733333Y-121097619D01*
X104780952Y-121050000D01*
X104876190Y-121002380D01*
X105114285Y-121002380D01*
X105257142Y-121050000D01*
X105876190Y-121002380D02*
X106066666Y-121002380D01*
X106161904Y-121050000D01*
X106257142Y-121145238D01*
X106304761Y-121335714D01*
X106304761Y-121669047D01*
X106257142Y-121859523D01*
X106161904Y-121954761D01*
X106066666Y-122002380D01*
X105876190Y-122002380D01*
X105780952Y-121954761D01*
X105685714Y-121859523D01*
X105638095Y-121669047D01*
X105638095Y-121335714D01*
X105685714Y-121145238D01*
X105780952Y-121050000D01*
X105876190Y-121002380D01*
X107209523Y-122002380D02*
X106733333Y-122002380D01*
X106733333Y-121002380D01*
X107495238Y-121716666D02*
X107971428Y-121716666D01*
X107400000Y-122002380D02*
X107733333Y-121002380D01*
X108066666Y-122002380D01*
X108971428Y-122002380D02*
X108638095Y-121526190D01*
X108400000Y-122002380D02*
X108400000Y-121002380D01*
X108780952Y-121002380D01*
X108876190Y-121050000D01*
X108923809Y-121097619D01*
X108971428Y-121192857D01*
X108971428Y-121335714D01*
X108923809Y-121430952D01*
X108876190Y-121478571D01*
X108780952Y-121526190D01*
X108400000Y-121526190D01*
%TO.C,J2*%
X106206666Y-69762380D02*
X106206666Y-70476666D01*
X106159047Y-70619523D01*
X106063809Y-70714761D01*
X105920952Y-70762380D01*
X105825714Y-70762380D01*
X106635238Y-69857619D02*
X106682857Y-69810000D01*
X106778095Y-69762380D01*
X107016190Y-69762380D01*
X107111428Y-69810000D01*
X107159047Y-69857619D01*
X107206666Y-69952857D01*
X107206666Y-70048095D01*
X107159047Y-70190952D01*
X106587619Y-70762380D01*
X107206666Y-70762380D01*
%TO.C,J3*%
X106086666Y-158882380D02*
X106086666Y-159596666D01*
X106039047Y-159739523D01*
X105943809Y-159834761D01*
X105800952Y-159882380D01*
X105705714Y-159882380D01*
X106467619Y-158882380D02*
X107086666Y-158882380D01*
X106753333Y-159263333D01*
X106896190Y-159263333D01*
X106991428Y-159310952D01*
X107039047Y-159358571D01*
X107086666Y-159453809D01*
X107086666Y-159691904D01*
X107039047Y-159787142D01*
X106991428Y-159834761D01*
X106896190Y-159882380D01*
X106610476Y-159882380D01*
X106515238Y-159834761D01*
X106467619Y-159787142D01*
%TO.C,J4*%
X182266666Y-69832380D02*
X182266666Y-70546666D01*
X182219047Y-70689523D01*
X182123809Y-70784761D01*
X181980952Y-70832380D01*
X181885714Y-70832380D01*
X183171428Y-70165714D02*
X183171428Y-70832380D01*
X182933333Y-69784761D02*
X182695238Y-70499047D01*
X183314285Y-70499047D01*
%TO.C,J5*%
X182046666Y-158822380D02*
X182046666Y-159536666D01*
X181999047Y-159679523D01*
X181903809Y-159774761D01*
X181760952Y-159822380D01*
X181665714Y-159822380D01*
X182999047Y-158822380D02*
X182522857Y-158822380D01*
X182475238Y-159298571D01*
X182522857Y-159250952D01*
X182618095Y-159203333D01*
X182856190Y-159203333D01*
X182951428Y-159250952D01*
X182999047Y-159298571D01*
X183046666Y-159393809D01*
X183046666Y-159631904D01*
X182999047Y-159727142D01*
X182951428Y-159774761D01*
X182856190Y-159822380D01*
X182618095Y-159822380D01*
X182522857Y-159774761D01*
X182475238Y-159727142D01*
%TO.C,U2*%
X153668095Y-112212380D02*
X153668095Y-113021904D01*
X153715714Y-113117142D01*
X153763333Y-113164761D01*
X153858571Y-113212380D01*
X154049047Y-113212380D01*
X154144285Y-113164761D01*
X154191904Y-113117142D01*
X154239523Y-113021904D01*
X154239523Y-112212380D01*
X154668095Y-112307619D02*
X154715714Y-112260000D01*
X154810952Y-112212380D01*
X155049047Y-112212380D01*
X155144285Y-112260000D01*
X155191904Y-112307619D01*
X155239523Y-112402857D01*
X155239523Y-112498095D01*
X155191904Y-112640952D01*
X154620476Y-113212380D01*
X155239523Y-113212380D01*
%TO.C,SC5*%
X166598095Y-88474761D02*
X166740952Y-88522380D01*
X166979047Y-88522380D01*
X167074285Y-88474761D01*
X167121904Y-88427142D01*
X167169523Y-88331904D01*
X167169523Y-88236666D01*
X167121904Y-88141428D01*
X167074285Y-88093809D01*
X166979047Y-88046190D01*
X166788571Y-87998571D01*
X166693333Y-87950952D01*
X166645714Y-87903333D01*
X166598095Y-87808095D01*
X166598095Y-87712857D01*
X166645714Y-87617619D01*
X166693333Y-87570000D01*
X166788571Y-87522380D01*
X167026666Y-87522380D01*
X167169523Y-87570000D01*
X168169523Y-88427142D02*
X168121904Y-88474761D01*
X167979047Y-88522380D01*
X167883809Y-88522380D01*
X167740952Y-88474761D01*
X167645714Y-88379523D01*
X167598095Y-88284285D01*
X167550476Y-88093809D01*
X167550476Y-87950952D01*
X167598095Y-87760476D01*
X167645714Y-87665238D01*
X167740952Y-87570000D01*
X167883809Y-87522380D01*
X167979047Y-87522380D01*
X168121904Y-87570000D01*
X168169523Y-87617619D01*
X169074285Y-87522380D02*
X168598095Y-87522380D01*
X168550476Y-87998571D01*
X168598095Y-87950952D01*
X168693333Y-87903333D01*
X168931428Y-87903333D01*
X169026666Y-87950952D01*
X169074285Y-87998571D01*
X169121904Y-88093809D01*
X169121904Y-88331904D01*
X169074285Y-88427142D01*
X169026666Y-88474761D01*
X168931428Y-88522380D01*
X168693333Y-88522380D01*
X168598095Y-88474761D01*
X168550476Y-88427142D01*
D12*
X166717142Y-71784285D02*
X169002857Y-71784285D01*
X167860000Y-72927142D02*
X167860000Y-70641428D01*
X166717142Y-103534285D02*
X169002857Y-103534285D01*
D11*
%TO.C,TP1*%
X108432380Y-125101904D02*
X108432380Y-124530476D01*
X109432380Y-124816190D02*
X108432380Y-124816190D01*
X109432380Y-124197142D02*
X108432380Y-124197142D01*
X108432380Y-123816190D01*
X108480000Y-123720952D01*
X108527619Y-123673333D01*
X108622857Y-123625714D01*
X108765714Y-123625714D01*
X108860952Y-123673333D01*
X108908571Y-123720952D01*
X108956190Y-123816190D01*
X108956190Y-124197142D01*
X109432380Y-122673333D02*
X109432380Y-123244761D01*
X109432380Y-122959047D02*
X108432380Y-122959047D01*
X108575238Y-123054285D01*
X108670476Y-123149523D01*
X108718095Y-123244761D01*
%TO.C,D3*%
X132311904Y-118452380D02*
X132311904Y-117452380D01*
X132550000Y-117452380D01*
X132692857Y-117500000D01*
X132788095Y-117595238D01*
X132835714Y-117690476D01*
X132883333Y-117880952D01*
X132883333Y-118023809D01*
X132835714Y-118214285D01*
X132788095Y-118309523D01*
X132692857Y-118404761D01*
X132550000Y-118452380D01*
X132311904Y-118452380D01*
X133216666Y-117452380D02*
X133835714Y-117452380D01*
X133502380Y-117833333D01*
X133645238Y-117833333D01*
X133740476Y-117880952D01*
X133788095Y-117928571D01*
X133835714Y-118023809D01*
X133835714Y-118261904D01*
X133788095Y-118357142D01*
X133740476Y-118404761D01*
X133645238Y-118452380D01*
X133359523Y-118452380D01*
X133264285Y-118404761D01*
X133216666Y-118357142D01*
%TO.C,C4*%
X151317142Y-113776666D02*
X151364761Y-113824285D01*
X151412380Y-113967142D01*
X151412380Y-114062380D01*
X151364761Y-114205238D01*
X151269523Y-114300476D01*
X151174285Y-114348095D01*
X150983809Y-114395714D01*
X150840952Y-114395714D01*
X150650476Y-114348095D01*
X150555238Y-114300476D01*
X150460000Y-114205238D01*
X150412380Y-114062380D01*
X150412380Y-113967142D01*
X150460000Y-113824285D01*
X150507619Y-113776666D01*
X150745714Y-112919523D02*
X151412380Y-112919523D01*
X150364761Y-113157619D02*
X151079047Y-113395714D01*
X151079047Y-112776666D01*
%TO.C,TP2*%
X108402380Y-131291904D02*
X108402380Y-130720476D01*
X109402380Y-131006190D02*
X108402380Y-131006190D01*
X109402380Y-130387142D02*
X108402380Y-130387142D01*
X108402380Y-130006190D01*
X108450000Y-129910952D01*
X108497619Y-129863333D01*
X108592857Y-129815714D01*
X108735714Y-129815714D01*
X108830952Y-129863333D01*
X108878571Y-129910952D01*
X108926190Y-130006190D01*
X108926190Y-130387142D01*
X108497619Y-129434761D02*
X108450000Y-129387142D01*
X108402380Y-129291904D01*
X108402380Y-129053809D01*
X108450000Y-128958571D01*
X108497619Y-128910952D01*
X108592857Y-128863333D01*
X108688095Y-128863333D01*
X108830952Y-128910952D01*
X109402380Y-129482380D01*
X109402380Y-128863333D01*
%TO.C,D1*%
X132281904Y-111962380D02*
X132281904Y-110962380D01*
X132520000Y-110962380D01*
X132662857Y-111010000D01*
X132758095Y-111105238D01*
X132805714Y-111200476D01*
X132853333Y-111390952D01*
X132853333Y-111533809D01*
X132805714Y-111724285D01*
X132758095Y-111819523D01*
X132662857Y-111914761D01*
X132520000Y-111962380D01*
X132281904Y-111962380D01*
X133805714Y-111962380D02*
X133234285Y-111962380D01*
X133520000Y-111962380D02*
X133520000Y-110962380D01*
X133424761Y-111105238D01*
X133329523Y-111200476D01*
X133234285Y-111248095D01*
%TO.C,C1*%
X151337142Y-118556666D02*
X151384761Y-118604285D01*
X151432380Y-118747142D01*
X151432380Y-118842380D01*
X151384761Y-118985238D01*
X151289523Y-119080476D01*
X151194285Y-119128095D01*
X151003809Y-119175714D01*
X150860952Y-119175714D01*
X150670476Y-119128095D01*
X150575238Y-119080476D01*
X150480000Y-118985238D01*
X150432380Y-118842380D01*
X150432380Y-118747142D01*
X150480000Y-118604285D01*
X150527619Y-118556666D01*
X151432380Y-117604285D02*
X151432380Y-118175714D01*
X151432380Y-117890000D02*
X150432380Y-117890000D01*
X150575238Y-117985238D01*
X150670476Y-118080476D01*
X150718095Y-118175714D01*
%TO.C,SC3*%
X143228095Y-88474761D02*
X143370952Y-88522380D01*
X143609047Y-88522380D01*
X143704285Y-88474761D01*
X143751904Y-88427142D01*
X143799523Y-88331904D01*
X143799523Y-88236666D01*
X143751904Y-88141428D01*
X143704285Y-88093809D01*
X143609047Y-88046190D01*
X143418571Y-87998571D01*
X143323333Y-87950952D01*
X143275714Y-87903333D01*
X143228095Y-87808095D01*
X143228095Y-87712857D01*
X143275714Y-87617619D01*
X143323333Y-87570000D01*
X143418571Y-87522380D01*
X143656666Y-87522380D01*
X143799523Y-87570000D01*
X144799523Y-88427142D02*
X144751904Y-88474761D01*
X144609047Y-88522380D01*
X144513809Y-88522380D01*
X144370952Y-88474761D01*
X144275714Y-88379523D01*
X144228095Y-88284285D01*
X144180476Y-88093809D01*
X144180476Y-87950952D01*
X144228095Y-87760476D01*
X144275714Y-87665238D01*
X144370952Y-87570000D01*
X144513809Y-87522380D01*
X144609047Y-87522380D01*
X144751904Y-87570000D01*
X144799523Y-87617619D01*
X145132857Y-87522380D02*
X145751904Y-87522380D01*
X145418571Y-87903333D01*
X145561428Y-87903333D01*
X145656666Y-87950952D01*
X145704285Y-87998571D01*
X145751904Y-88093809D01*
X145751904Y-88331904D01*
X145704285Y-88427142D01*
X145656666Y-88474761D01*
X145561428Y-88522380D01*
X145275714Y-88522380D01*
X145180476Y-88474761D01*
X145132857Y-88427142D01*
D12*
X143347142Y-103534285D02*
X145632857Y-103534285D01*
X143347142Y-71784285D02*
X145632857Y-71784285D01*
X144490000Y-72927142D02*
X144490000Y-70641428D01*
D11*
%TO.C,SC4*%
X143188095Y-142844761D02*
X143330952Y-142892380D01*
X143569047Y-142892380D01*
X143664285Y-142844761D01*
X143711904Y-142797142D01*
X143759523Y-142701904D01*
X143759523Y-142606666D01*
X143711904Y-142511428D01*
X143664285Y-142463809D01*
X143569047Y-142416190D01*
X143378571Y-142368571D01*
X143283333Y-142320952D01*
X143235714Y-142273333D01*
X143188095Y-142178095D01*
X143188095Y-142082857D01*
X143235714Y-141987619D01*
X143283333Y-141940000D01*
X143378571Y-141892380D01*
X143616666Y-141892380D01*
X143759523Y-141940000D01*
X144759523Y-142797142D02*
X144711904Y-142844761D01*
X144569047Y-142892380D01*
X144473809Y-142892380D01*
X144330952Y-142844761D01*
X144235714Y-142749523D01*
X144188095Y-142654285D01*
X144140476Y-142463809D01*
X144140476Y-142320952D01*
X144188095Y-142130476D01*
X144235714Y-142035238D01*
X144330952Y-141940000D01*
X144473809Y-141892380D01*
X144569047Y-141892380D01*
X144711904Y-141940000D01*
X144759523Y-141987619D01*
X145616666Y-142225714D02*
X145616666Y-142892380D01*
X145378571Y-141844761D02*
X145140476Y-142559047D01*
X145759523Y-142559047D01*
D12*
X143307142Y-157904285D02*
X145592857Y-157904285D01*
X143307142Y-126154285D02*
X145592857Y-126154285D01*
X144450000Y-127297142D02*
X144450000Y-125011428D01*
D11*
%TO.C,SC2*%
X119858095Y-142824761D02*
X120000952Y-142872380D01*
X120239047Y-142872380D01*
X120334285Y-142824761D01*
X120381904Y-142777142D01*
X120429523Y-142681904D01*
X120429523Y-142586666D01*
X120381904Y-142491428D01*
X120334285Y-142443809D01*
X120239047Y-142396190D01*
X120048571Y-142348571D01*
X119953333Y-142300952D01*
X119905714Y-142253333D01*
X119858095Y-142158095D01*
X119858095Y-142062857D01*
X119905714Y-141967619D01*
X119953333Y-141920000D01*
X120048571Y-141872380D01*
X120286666Y-141872380D01*
X120429523Y-141920000D01*
X121429523Y-142777142D02*
X121381904Y-142824761D01*
X121239047Y-142872380D01*
X121143809Y-142872380D01*
X121000952Y-142824761D01*
X120905714Y-142729523D01*
X120858095Y-142634285D01*
X120810476Y-142443809D01*
X120810476Y-142300952D01*
X120858095Y-142110476D01*
X120905714Y-142015238D01*
X121000952Y-141920000D01*
X121143809Y-141872380D01*
X121239047Y-141872380D01*
X121381904Y-141920000D01*
X121429523Y-141967619D01*
X121810476Y-141967619D02*
X121858095Y-141920000D01*
X121953333Y-141872380D01*
X122191428Y-141872380D01*
X122286666Y-141920000D01*
X122334285Y-141967619D01*
X122381904Y-142062857D01*
X122381904Y-142158095D01*
X122334285Y-142300952D01*
X121762857Y-142872380D01*
X122381904Y-142872380D01*
D12*
X119977142Y-126134285D02*
X122262857Y-126134285D01*
X121120000Y-127277142D02*
X121120000Y-124991428D01*
X119977142Y-157884285D02*
X122262857Y-157884285D01*
D11*
%TO.C,D2*%
X132391904Y-115182380D02*
X132391904Y-114182380D01*
X132630000Y-114182380D01*
X132772857Y-114230000D01*
X132868095Y-114325238D01*
X132915714Y-114420476D01*
X132963333Y-114610952D01*
X132963333Y-114753809D01*
X132915714Y-114944285D01*
X132868095Y-115039523D01*
X132772857Y-115134761D01*
X132630000Y-115182380D01*
X132391904Y-115182380D01*
X133344285Y-114277619D02*
X133391904Y-114230000D01*
X133487142Y-114182380D01*
X133725238Y-114182380D01*
X133820476Y-114230000D01*
X133868095Y-114277619D01*
X133915714Y-114372857D01*
X133915714Y-114468095D01*
X133868095Y-114610952D01*
X133296666Y-115182380D01*
X133915714Y-115182380D01*
%TO.C,SC6*%
X166738095Y-142874761D02*
X166880952Y-142922380D01*
X167119047Y-142922380D01*
X167214285Y-142874761D01*
X167261904Y-142827142D01*
X167309523Y-142731904D01*
X167309523Y-142636666D01*
X167261904Y-142541428D01*
X167214285Y-142493809D01*
X167119047Y-142446190D01*
X166928571Y-142398571D01*
X166833333Y-142350952D01*
X166785714Y-142303333D01*
X166738095Y-142208095D01*
X166738095Y-142112857D01*
X166785714Y-142017619D01*
X166833333Y-141970000D01*
X166928571Y-141922380D01*
X167166666Y-141922380D01*
X167309523Y-141970000D01*
X168309523Y-142827142D02*
X168261904Y-142874761D01*
X168119047Y-142922380D01*
X168023809Y-142922380D01*
X167880952Y-142874761D01*
X167785714Y-142779523D01*
X167738095Y-142684285D01*
X167690476Y-142493809D01*
X167690476Y-142350952D01*
X167738095Y-142160476D01*
X167785714Y-142065238D01*
X167880952Y-141970000D01*
X168023809Y-141922380D01*
X168119047Y-141922380D01*
X168261904Y-141970000D01*
X168309523Y-142017619D01*
X169166666Y-141922380D02*
X168976190Y-141922380D01*
X168880952Y-141970000D01*
X168833333Y-142017619D01*
X168738095Y-142160476D01*
X168690476Y-142350952D01*
X168690476Y-142731904D01*
X168738095Y-142827142D01*
X168785714Y-142874761D01*
X168880952Y-142922380D01*
X169071428Y-142922380D01*
X169166666Y-142874761D01*
X169214285Y-142827142D01*
X169261904Y-142731904D01*
X169261904Y-142493809D01*
X169214285Y-142398571D01*
X169166666Y-142350952D01*
X169071428Y-142303333D01*
X168880952Y-142303333D01*
X168785714Y-142350952D01*
X168738095Y-142398571D01*
X168690476Y-142493809D01*
D12*
X166857142Y-157934285D02*
X169142857Y-157934285D01*
X166857142Y-126184285D02*
X169142857Y-126184285D01*
X168000000Y-127327142D02*
X168000000Y-125041428D01*
D11*
%TO.C,C2*%
X153753333Y-118807142D02*
X153705714Y-118854761D01*
X153562857Y-118902380D01*
X153467619Y-118902380D01*
X153324761Y-118854761D01*
X153229523Y-118759523D01*
X153181904Y-118664285D01*
X153134285Y-118473809D01*
X153134285Y-118330952D01*
X153181904Y-118140476D01*
X153229523Y-118045238D01*
X153324761Y-117950000D01*
X153467619Y-117902380D01*
X153562857Y-117902380D01*
X153705714Y-117950000D01*
X153753333Y-117997619D01*
X154134285Y-117997619D02*
X154181904Y-117950000D01*
X154277142Y-117902380D01*
X154515238Y-117902380D01*
X154610476Y-117950000D01*
X154658095Y-117997619D01*
X154705714Y-118092857D01*
X154705714Y-118188095D01*
X154658095Y-118330952D01*
X154086666Y-118902380D01*
X154705714Y-118902380D01*
%TO.C,C5*%
X157923333Y-110087142D02*
X157875714Y-110134761D01*
X157732857Y-110182380D01*
X157637619Y-110182380D01*
X157494761Y-110134761D01*
X157399523Y-110039523D01*
X157351904Y-109944285D01*
X157304285Y-109753809D01*
X157304285Y-109610952D01*
X157351904Y-109420476D01*
X157399523Y-109325238D01*
X157494761Y-109230000D01*
X157637619Y-109182380D01*
X157732857Y-109182380D01*
X157875714Y-109230000D01*
X157923333Y-109277619D01*
X158828095Y-109182380D02*
X158351904Y-109182380D01*
X158304285Y-109658571D01*
X158351904Y-109610952D01*
X158447142Y-109563333D01*
X158685238Y-109563333D01*
X158780476Y-109610952D01*
X158828095Y-109658571D01*
X158875714Y-109753809D01*
X158875714Y-109991904D01*
X158828095Y-110087142D01*
X158780476Y-110134761D01*
X158685238Y-110182380D01*
X158447142Y-110182380D01*
X158351904Y-110134761D01*
X158304285Y-110087142D01*
%TO.C,U1*%
X145758095Y-118222380D02*
X145758095Y-119031904D01*
X145805714Y-119127142D01*
X145853333Y-119174761D01*
X145948571Y-119222380D01*
X146139047Y-119222380D01*
X146234285Y-119174761D01*
X146281904Y-119127142D01*
X146329523Y-119031904D01*
X146329523Y-118222380D01*
X147329523Y-119222380D02*
X146758095Y-119222380D01*
X147043809Y-119222380D02*
X147043809Y-118222380D01*
X146948571Y-118365238D01*
X146853333Y-118460476D01*
X146758095Y-118508095D01*
%TO.C,R2*%
X139753333Y-119742380D02*
X139420000Y-119266190D01*
X139181904Y-119742380D02*
X139181904Y-118742380D01*
X139562857Y-118742380D01*
X139658095Y-118790000D01*
X139705714Y-118837619D01*
X139753333Y-118932857D01*
X139753333Y-119075714D01*
X139705714Y-119170952D01*
X139658095Y-119218571D01*
X139562857Y-119266190D01*
X139181904Y-119266190D01*
X140134285Y-118837619D02*
X140181904Y-118790000D01*
X140277142Y-118742380D01*
X140515238Y-118742380D01*
X140610476Y-118790000D01*
X140658095Y-118837619D01*
X140705714Y-118932857D01*
X140705714Y-119028095D01*
X140658095Y-119170952D01*
X140086666Y-119742380D01*
X140705714Y-119742380D01*
%TO.C,R3*%
X163493333Y-117502380D02*
X163160000Y-117026190D01*
X162921904Y-117502380D02*
X162921904Y-116502380D01*
X163302857Y-116502380D01*
X163398095Y-116550000D01*
X163445714Y-116597619D01*
X163493333Y-116692857D01*
X163493333Y-116835714D01*
X163445714Y-116930952D01*
X163398095Y-116978571D01*
X163302857Y-117026190D01*
X162921904Y-117026190D01*
X163826666Y-116502380D02*
X164445714Y-116502380D01*
X164112380Y-116883333D01*
X164255238Y-116883333D01*
X164350476Y-116930952D01*
X164398095Y-116978571D01*
X164445714Y-117073809D01*
X164445714Y-117311904D01*
X164398095Y-117407142D01*
X164350476Y-117454761D01*
X164255238Y-117502380D01*
X163969523Y-117502380D01*
X163874285Y-117454761D01*
X163826666Y-117407142D01*
%TO.C,R1*%
X137103333Y-115372380D02*
X136770000Y-114896190D01*
X136531904Y-115372380D02*
X136531904Y-114372380D01*
X136912857Y-114372380D01*
X137008095Y-114420000D01*
X137055714Y-114467619D01*
X137103333Y-114562857D01*
X137103333Y-114705714D01*
X137055714Y-114800952D01*
X137008095Y-114848571D01*
X136912857Y-114896190D01*
X136531904Y-114896190D01*
X138055714Y-115372380D02*
X137484285Y-115372380D01*
X137770000Y-115372380D02*
X137770000Y-114372380D01*
X137674761Y-114515238D01*
X137579523Y-114610476D01*
X137484285Y-114658095D01*
%TO.C,C3*%
X164173333Y-110127142D02*
X164125714Y-110174761D01*
X163982857Y-110222380D01*
X163887619Y-110222380D01*
X163744761Y-110174761D01*
X163649523Y-110079523D01*
X163601904Y-109984285D01*
X163554285Y-109793809D01*
X163554285Y-109650952D01*
X163601904Y-109460476D01*
X163649523Y-109365238D01*
X163744761Y-109270000D01*
X163887619Y-109222380D01*
X163982857Y-109222380D01*
X164125714Y-109270000D01*
X164173333Y-109317619D01*
X164506666Y-109222380D02*
X165125714Y-109222380D01*
X164792380Y-109603333D01*
X164935238Y-109603333D01*
X165030476Y-109650952D01*
X165078095Y-109698571D01*
X165125714Y-109793809D01*
X165125714Y-110031904D01*
X165078095Y-110127142D01*
X165030476Y-110174761D01*
X164935238Y-110222380D01*
X164649523Y-110222380D01*
X164554285Y-110174761D01*
X164506666Y-110127142D01*
%TO.C,SC1*%
X119828095Y-88474761D02*
X119970952Y-88522380D01*
X120209047Y-88522380D01*
X120304285Y-88474761D01*
X120351904Y-88427142D01*
X120399523Y-88331904D01*
X120399523Y-88236666D01*
X120351904Y-88141428D01*
X120304285Y-88093809D01*
X120209047Y-88046190D01*
X120018571Y-87998571D01*
X119923333Y-87950952D01*
X119875714Y-87903333D01*
X119828095Y-87808095D01*
X119828095Y-87712857D01*
X119875714Y-87617619D01*
X119923333Y-87570000D01*
X120018571Y-87522380D01*
X120256666Y-87522380D01*
X120399523Y-87570000D01*
X121399523Y-88427142D02*
X121351904Y-88474761D01*
X121209047Y-88522380D01*
X121113809Y-88522380D01*
X120970952Y-88474761D01*
X120875714Y-88379523D01*
X120828095Y-88284285D01*
X120780476Y-88093809D01*
X120780476Y-87950952D01*
X120828095Y-87760476D01*
X120875714Y-87665238D01*
X120970952Y-87570000D01*
X121113809Y-87522380D01*
X121209047Y-87522380D01*
X121351904Y-87570000D01*
X121399523Y-87617619D01*
X122351904Y-88522380D02*
X121780476Y-88522380D01*
X122066190Y-88522380D02*
X122066190Y-87522380D01*
X121970952Y-87665238D01*
X121875714Y-87760476D01*
X121780476Y-87808095D01*
D12*
X119947142Y-71784285D02*
X122232857Y-71784285D01*
X121090000Y-72927142D02*
X121090000Y-70641428D01*
X119947142Y-103534285D02*
X122232857Y-103534285D01*
D11*
%TO.C,U3*%
X160418095Y-111352380D02*
X160418095Y-112161904D01*
X160465714Y-112257142D01*
X160513333Y-112304761D01*
X160608571Y-112352380D01*
X160799047Y-112352380D01*
X160894285Y-112304761D01*
X160941904Y-112257142D01*
X160989523Y-112161904D01*
X160989523Y-111352380D01*
X161370476Y-111352380D02*
X161989523Y-111352380D01*
X161656190Y-111733333D01*
X161799047Y-111733333D01*
X161894285Y-111780952D01*
X161941904Y-111828571D01*
X161989523Y-111923809D01*
X161989523Y-112161904D01*
X161941904Y-112257142D01*
X161894285Y-112304761D01*
X161799047Y-112352380D01*
X161513333Y-112352380D01*
X161418095Y-112304761D01*
X161370476Y-112257142D01*
D13*
%TO.C,U2*%
X152500000Y-113370000D02*
X152500000Y-113620000D01*
X152450000Y-115470000D02*
X152450000Y-115220000D01*
X152800000Y-113370000D02*
X152900000Y-113370000D01*
X156450000Y-113370000D02*
X156150000Y-113370000D01*
X156400000Y-115470000D02*
X156400000Y-115220000D01*
X152450000Y-115470000D02*
X152750000Y-115470000D01*
X156100000Y-115470000D02*
X156400000Y-115470000D01*
X156150000Y-113370000D02*
X156050000Y-113370000D01*
X156100000Y-115470000D02*
X156000000Y-115470000D01*
X156150000Y-113370000D02*
X156450000Y-113370000D01*
X156450000Y-113370000D02*
X156450000Y-113620000D01*
X152800000Y-113370000D02*
X152500000Y-113370000D01*
X152500000Y-113370000D02*
X152800000Y-113370000D01*
X152750000Y-115470000D02*
X152850000Y-115470000D01*
X152750000Y-115470000D02*
X152450000Y-115470000D01*
X156400000Y-115470000D02*
X156100000Y-115470000D01*
X156300000Y-115770000D02*
G75*
G03*
X156300000Y-115770000I-50000J0D01*
G01*
%TO.C,SC5*%
X161110000Y-66570000D02*
X156360000Y-66570000D01*
X179360000Y-87570000D02*
X179360000Y-97570000D01*
X156360000Y-77570000D02*
X156360000Y-97570000D01*
X156360000Y-87570000D02*
X156360000Y-77570000D01*
X179360000Y-87570000D02*
X179360000Y-77570000D01*
X179360000Y-95820000D02*
X179360000Y-87570000D01*
X156360000Y-66570000D02*
X156360000Y-71320000D01*
X179360000Y-77570000D02*
X179360000Y-95820000D01*
X156360000Y-66570000D02*
X161110000Y-66570000D01*
X156360000Y-108570000D02*
X161110000Y-108570000D01*
X156360000Y-108570000D02*
X156360000Y-103820000D01*
X179360000Y-66570000D02*
X179360000Y-71320000D01*
X174610000Y-108570000D02*
X179360000Y-108570000D01*
X174610000Y-66570000D02*
X179360000Y-66570000D01*
X179360000Y-108570000D02*
X179360000Y-103820000D01*
%TO.C,D3*%
X126025000Y-119450000D02*
X130775000Y-119450000D01*
X126025000Y-119450000D02*
X126025000Y-116550000D01*
X130775000Y-119450000D02*
X130775000Y-116550000D01*
X127968200Y-117187200D02*
X127968200Y-118736600D01*
X126025000Y-116550000D02*
X130775000Y-116550000D01*
G36*
X128908000Y-118711200D02*
G01*
X128095200Y-117974600D01*
X128908000Y-117365000D01*
X128908000Y-118711200D01*
G37*
D14*
X128908000Y-118711200D02*
X128095200Y-117974600D01*
X128908000Y-117365000D01*
X128908000Y-118711200D01*
D13*
%TO.C,C4*%
X148545000Y-113348748D02*
X148545000Y-113871252D01*
X150015000Y-113348748D02*
X150015000Y-113871252D01*
%TO.C,D1*%
X125985000Y-112990000D02*
X125985000Y-110090000D01*
X130735000Y-112990000D02*
X130735000Y-110090000D01*
X125985000Y-112990000D02*
X130735000Y-112990000D01*
X125985000Y-110090000D02*
X130735000Y-110090000D01*
X127928200Y-110727200D02*
X127928200Y-112276600D01*
G36*
X128868000Y-112251200D02*
G01*
X128055200Y-111514600D01*
X128868000Y-110905000D01*
X128868000Y-112251200D01*
G37*
D14*
X128868000Y-112251200D02*
X128055200Y-111514600D01*
X128868000Y-110905000D01*
X128868000Y-112251200D01*
D13*
%TO.C,C1*%
X150035000Y-118128748D02*
X150035000Y-118651252D01*
X148565000Y-118128748D02*
X148565000Y-118651252D01*
%TO.C,SC3*%
X132990000Y-87570000D02*
X132990000Y-77570000D01*
X132990000Y-77570000D02*
X132990000Y-97570000D01*
X151240000Y-66570000D02*
X155990000Y-66570000D01*
X155990000Y-66570000D02*
X155990000Y-71320000D01*
X132990000Y-66570000D02*
X132990000Y-71320000D01*
X155990000Y-77570000D02*
X155990000Y-95820000D01*
X132990000Y-108570000D02*
X137740000Y-108570000D01*
X132990000Y-108570000D02*
X132990000Y-103820000D01*
X137740000Y-66570000D02*
X132990000Y-66570000D01*
X155990000Y-95820000D02*
X155990000Y-87570000D01*
X151240000Y-108570000D02*
X155990000Y-108570000D01*
X155990000Y-108570000D02*
X155990000Y-103820000D01*
X132990000Y-66570000D02*
X137740000Y-66570000D01*
X155990000Y-87570000D02*
X155990000Y-97570000D01*
X155990000Y-87570000D02*
X155990000Y-77570000D01*
%TO.C,SC4*%
X155950000Y-141940000D02*
X155950000Y-131940000D01*
X132950000Y-131940000D02*
X132950000Y-151940000D01*
X155950000Y-131940000D02*
X155950000Y-150190000D01*
X132950000Y-162940000D02*
X137700000Y-162940000D01*
X155950000Y-150190000D02*
X155950000Y-141940000D01*
X132950000Y-141940000D02*
X132950000Y-131940000D01*
X155950000Y-120940000D02*
X155950000Y-125690000D01*
X155950000Y-141940000D02*
X155950000Y-151940000D01*
X137700000Y-120940000D02*
X132950000Y-120940000D01*
X132950000Y-120940000D02*
X137700000Y-120940000D01*
X155950000Y-162940000D02*
X155950000Y-158190000D01*
X151200000Y-120940000D02*
X155950000Y-120940000D01*
X151200000Y-162940000D02*
X155950000Y-162940000D01*
X132950000Y-120940000D02*
X132950000Y-125690000D01*
X132950000Y-162940000D02*
X132950000Y-158190000D01*
%TO.C,SC2*%
X132620000Y-150170000D02*
X132620000Y-141920000D01*
X109620000Y-162920000D02*
X114370000Y-162920000D01*
X109620000Y-162920000D02*
X109620000Y-158170000D01*
X114370000Y-120920000D02*
X109620000Y-120920000D01*
X132620000Y-131920000D02*
X132620000Y-150170000D01*
X109620000Y-141920000D02*
X109620000Y-131920000D01*
X109620000Y-131920000D02*
X109620000Y-151920000D01*
X132620000Y-141920000D02*
X132620000Y-131920000D01*
X132620000Y-120920000D02*
X132620000Y-125670000D01*
X109620000Y-120920000D02*
X114370000Y-120920000D01*
X127870000Y-120920000D02*
X132620000Y-120920000D01*
X109620000Y-120920000D02*
X109620000Y-125670000D01*
X132620000Y-141920000D02*
X132620000Y-151920000D01*
X132620000Y-162920000D02*
X132620000Y-158170000D01*
X127870000Y-162920000D02*
X132620000Y-162920000D01*
%TO.C,D2*%
X125985000Y-116200000D02*
X125985000Y-113300000D01*
X125985000Y-113300000D02*
X130735000Y-113300000D01*
X130735000Y-116200000D02*
X130735000Y-113300000D01*
X125985000Y-116200000D02*
X130735000Y-116200000D01*
X127928200Y-113937200D02*
X127928200Y-115486600D01*
G36*
X128868000Y-115461200D02*
G01*
X128055200Y-114724600D01*
X128868000Y-114115000D01*
X128868000Y-115461200D01*
G37*
D14*
X128868000Y-115461200D02*
X128055200Y-114724600D01*
X128868000Y-114115000D01*
X128868000Y-115461200D01*
D13*
%TO.C,SC6*%
X179500000Y-141970000D02*
X179500000Y-151970000D01*
X161250000Y-120970000D02*
X156500000Y-120970000D01*
X156500000Y-141970000D02*
X156500000Y-131970000D01*
X174750000Y-120970000D02*
X179500000Y-120970000D01*
X179500000Y-141970000D02*
X179500000Y-131970000D01*
X156500000Y-162970000D02*
X161250000Y-162970000D01*
X174750000Y-162970000D02*
X179500000Y-162970000D01*
X156500000Y-131970000D02*
X156500000Y-151970000D01*
X179500000Y-120970000D02*
X179500000Y-125720000D01*
X179500000Y-150220000D02*
X179500000Y-141970000D01*
X156500000Y-162970000D02*
X156500000Y-158220000D01*
X156500000Y-120970000D02*
X161250000Y-120970000D01*
X156500000Y-120970000D02*
X156500000Y-125720000D01*
X179500000Y-131970000D02*
X179500000Y-150220000D01*
X179500000Y-162970000D02*
X179500000Y-158220000D01*
%TO.C,C2*%
X153698748Y-115955000D02*
X154221252Y-115955000D01*
X153698748Y-117425000D02*
X154221252Y-117425000D01*
%TO.C,C5*%
X158361252Y-110715000D02*
X157838748Y-110715000D01*
X158361252Y-112185000D02*
X157838748Y-112185000D01*
%TO.C,U1*%
X147745000Y-115090000D02*
X147920000Y-114915000D01*
X147920000Y-114915000D02*
X147920000Y-113915000D01*
X145295000Y-115090000D02*
X145120000Y-114915000D01*
X145120000Y-114915000D02*
X145120000Y-113915000D01*
X147745000Y-115090000D02*
X147920000Y-115265000D01*
X145120000Y-115265000D02*
X145120000Y-116240000D01*
X145195000Y-117965000D02*
X145195000Y-117465000D01*
X147920000Y-113915000D02*
X147320000Y-113915000D01*
X146545000Y-115090000D02*
X146795000Y-115090000D01*
X147920000Y-115265000D02*
X147920000Y-116240000D01*
X145120000Y-113915000D02*
X145720000Y-113915000D01*
X147920000Y-117465000D02*
X147920000Y-117965000D01*
X145295000Y-115090000D02*
X145120000Y-115265000D01*
X147920000Y-117965000D02*
X145195000Y-117965000D01*
X146795000Y-115090000D02*
X146295000Y-115090000D01*
%TO.C,R2*%
X139347500Y-117352258D02*
X139347500Y-116877742D01*
X140392500Y-117352258D02*
X140392500Y-116877742D01*
%TO.C,R3*%
X161402258Y-116447500D02*
X160927742Y-116447500D01*
X161402258Y-117492500D02*
X160927742Y-117492500D01*
%TO.C,R1*%
X137772500Y-116877742D02*
X137772500Y-117352258D01*
X136727500Y-116877742D02*
X136727500Y-117352258D01*
%TO.C,C3*%
X164098748Y-112115000D02*
X164621252Y-112115000D01*
X164098748Y-110645000D02*
X164621252Y-110645000D01*
%TO.C,SC1*%
X132590000Y-66570000D02*
X132590000Y-71320000D01*
X114340000Y-66570000D02*
X109590000Y-66570000D01*
X127840000Y-108570000D02*
X132590000Y-108570000D01*
X109590000Y-108570000D02*
X109590000Y-103820000D01*
X132590000Y-95820000D02*
X132590000Y-87570000D01*
X109590000Y-108570000D02*
X114340000Y-108570000D01*
X132590000Y-108570000D02*
X132590000Y-103820000D01*
X109590000Y-66570000D02*
X109590000Y-71320000D01*
X132590000Y-87570000D02*
X132590000Y-77570000D01*
X127840000Y-66570000D02*
X132590000Y-66570000D01*
X132590000Y-87570000D02*
X132590000Y-97570000D01*
X132590000Y-77570000D02*
X132590000Y-95820000D01*
X109590000Y-77570000D02*
X109590000Y-97570000D01*
X109590000Y-87570000D02*
X109590000Y-77570000D01*
X109590000Y-66570000D02*
X114340000Y-66570000D01*
%TO.C,U3*%
X161180000Y-115960000D02*
X162680000Y-115960000D01*
X161180000Y-112740000D02*
X158255000Y-112740000D01*
X161180000Y-112740000D02*
X162680000Y-112740000D01*
X161180000Y-115960000D02*
X159680000Y-115960000D01*
%TD*%
M02*
