%TF.GenerationSoftware,KiCad,Pcbnew,(6.0.9)*%
%TF.CreationDate,2023-01-30T20:43:42-08:00*%
%TF.ProjectId,solar-panel-NoCutout,736f6c61-722d-4706-916e-656c2d4e6f43,2.0*%
%TF.SameCoordinates,Original*%
%TF.FileFunction,Copper,L1,Top*%
%TF.FilePolarity,Positive*%
%FSLAX46Y46*%
G04 Gerber Fmt 4.6, Leading zero omitted, Abs format (unit mm)*
G04 Created by KiCad (PCBNEW (6.0.9)) date 2023-01-30 20:43:42*
%MOMM*%
%LPD*%
G01*
G04 APERTURE LIST*
G04 Aperture macros list*
%AMRoundRect*
0 Rectangle with rounded corners*
0 $1 Rounding radius*
0 $2 $3 $4 $5 $6 $7 $8 $9 X,Y pos of 4 corners*
0 Add a 4 corners polygon primitive as box body*
4,1,4,$2,$3,$4,$5,$6,$7,$8,$9,$2,$3,0*
0 Add four circle primitives for the rounded corners*
1,1,$1+$1,$2,$3*
1,1,$1+$1,$4,$5*
1,1,$1+$1,$6,$7*
1,1,$1+$1,$8,$9*
0 Add four rect primitives between the rounded corners*
20,1,$1+$1,$2,$3,$4,$5,0*
20,1,$1+$1,$4,$5,$6,$7,0*
20,1,$1+$1,$6,$7,$8,$9,0*
20,1,$1+$1,$8,$9,$2,$3,0*%
G04 Aperture macros list end*
%TA.AperFunction,Profile*%
%ADD10C,0.050000*%
%TD*%
%TA.AperFunction,ComponentPad*%
%ADD11C,5.250000*%
%TD*%
%TA.AperFunction,SMDPad,CuDef*%
%ADD12R,0.750000X0.300000*%
%TD*%
%TA.AperFunction,SMDPad,CuDef*%
%ADD13R,1.750000X1.450000*%
%TD*%
%TA.AperFunction,SMDPad,CuDef*%
%ADD14R,13.000000X3.000000*%
%TD*%
%TA.AperFunction,SMDPad,CuDef*%
%ADD15RoundRect,0.750000X0.750000X-0.750000X0.750000X0.750000X-0.750000X0.750000X-0.750000X-0.750000X0*%
%TD*%
%TA.AperFunction,SMDPad,CuDef*%
%ADD16R,2.500000X1.700000*%
%TD*%
%TA.AperFunction,SMDPad,CuDef*%
%ADD17RoundRect,0.250000X-0.475000X0.250000X-0.475000X-0.250000X0.475000X-0.250000X0.475000X0.250000X0*%
%TD*%
%TA.AperFunction,SMDPad,CuDef*%
%ADD18RoundRect,0.250000X-0.250000X-0.475000X0.250000X-0.475000X0.250000X0.475000X-0.250000X0.475000X0*%
%TD*%
%TA.AperFunction,SMDPad,CuDef*%
%ADD19RoundRect,0.250000X0.250000X0.475000X-0.250000X0.475000X-0.250000X-0.475000X0.250000X-0.475000X0*%
%TD*%
%TA.AperFunction,SMDPad,CuDef*%
%ADD20R,0.600000X0.720000*%
%TD*%
%TA.AperFunction,SMDPad,CuDef*%
%ADD21RoundRect,0.200000X0.275000X-0.200000X0.275000X0.200000X-0.275000X0.200000X-0.275000X-0.200000X0*%
%TD*%
%TA.AperFunction,SMDPad,CuDef*%
%ADD22RoundRect,0.200000X0.200000X0.275000X-0.200000X0.275000X-0.200000X-0.275000X0.200000X-0.275000X0*%
%TD*%
%TA.AperFunction,SMDPad,CuDef*%
%ADD23RoundRect,0.200000X-0.275000X0.200000X-0.275000X-0.200000X0.275000X-0.200000X0.275000X0.200000X0*%
%TD*%
%TA.AperFunction,SMDPad,CuDef*%
%ADD24RoundRect,0.075000X-0.650000X-0.075000X0.650000X-0.075000X0.650000X0.075000X-0.650000X0.075000X0*%
%TD*%
%TA.AperFunction,ViaPad*%
%ADD25C,0.800000*%
%TD*%
%TA.AperFunction,Conductor*%
%ADD26C,0.250000*%
%TD*%
%TA.AperFunction,Conductor*%
%ADD27C,0.500000*%
%TD*%
G04 APERTURE END LIST*
D10*
X136850000Y-153000000D02*
X136850000Y-147000000D01*
X142150000Y-153000000D02*
X142150000Y-147000000D01*
X146850000Y-147000000D02*
X146850000Y-153000000D01*
X152150000Y-153000000D02*
X152150000Y-147000000D01*
X142150000Y-76600000D02*
X142150000Y-82600000D01*
X136850000Y-76600000D02*
X136850000Y-82600000D01*
X146850000Y-76600000D02*
X146850000Y-82600000D01*
X152150000Y-76600000D02*
X152150000Y-82600000D01*
X186000000Y-65750000D02*
X103000000Y-65750000D01*
X183125000Y-114650000D02*
G75*
G03*
X183125000Y-114650000I-2625000J0D01*
G01*
X108744606Y-139557190D02*
X103000000Y-139557190D01*
X180249992Y-139557104D02*
G75*
G03*
X180350001Y-144749999I250008J-2592596D01*
G01*
X186000000Y-163750000D02*
X186000000Y-156450000D01*
X186000000Y-73100000D02*
X186000000Y-65750000D01*
X106000000Y-75100000D02*
X103000000Y-75100000D01*
X108650000Y-77750000D02*
G75*
G03*
X106000000Y-75100000I-2650000J0D01*
G01*
X106000000Y-89000000D02*
G75*
G03*
X108650000Y-86350000I0J2650000D01*
G01*
X106000000Y-89000000D02*
X103000000Y-89000000D01*
X108650000Y-77750000D02*
X108650000Y-86350000D01*
X183000000Y-75100000D02*
G75*
G03*
X180350000Y-77750000I0J-2650000D01*
G01*
X180350000Y-86350000D02*
G75*
G03*
X183000000Y-89000000I2650000J0D01*
G01*
X183000000Y-75100000D02*
X186000000Y-75100000D01*
X180350000Y-77750000D02*
X180350000Y-86350000D01*
X183000000Y-89000000D02*
X186000000Y-89000000D01*
X103000000Y-65750000D02*
X103000000Y-75100000D01*
X103000000Y-89000000D02*
X103000000Y-139557190D01*
X103000000Y-154400000D02*
X103000000Y-163750000D01*
X186000000Y-156450000D02*
X186000000Y-154400000D01*
X186000000Y-75100000D02*
X186000000Y-73100000D01*
X185994606Y-139557190D02*
X180250000Y-139557190D01*
X136850000Y-82600000D02*
G75*
G03*
X142150000Y-82600000I2650000J0D01*
G01*
X108649999Y-144750000D02*
G75*
G03*
X108744606Y-139557190I-149999J2600000D01*
G01*
X108650000Y-151750000D02*
X108650000Y-144750000D01*
X152150000Y-76600000D02*
G75*
G03*
X146850000Y-76600000I-2650000J0D01*
G01*
X142150000Y-76600000D02*
G75*
G03*
X136850000Y-76600000I-2650000J0D01*
G01*
X103000000Y-163750000D02*
X186000000Y-163750000D01*
X142150000Y-147000000D02*
G75*
G03*
X136850000Y-147000000I-2650000J0D01*
G01*
X180350000Y-151750000D02*
X180350000Y-144750000D01*
X106000000Y-154400000D02*
X103000000Y-154400000D01*
X136850000Y-153000000D02*
G75*
G03*
X142150000Y-153000000I2650000J0D01*
G01*
X152150000Y-147000000D02*
G75*
G03*
X146850000Y-147000000I-2650000J0D01*
G01*
X106000000Y-154400000D02*
G75*
G03*
X108650000Y-151750000I0J2650000D01*
G01*
X180350000Y-151750000D02*
G75*
G03*
X183000000Y-154400000I2650000J0D01*
G01*
X146850000Y-153000000D02*
G75*
G03*
X152150000Y-153000000I2650000J0D01*
G01*
X183000000Y-154400000D02*
X186000000Y-154400000D01*
X186000000Y-89000000D02*
X185994606Y-139557190D01*
X146850000Y-82600000D02*
G75*
G03*
X152150000Y-82600000I2650000J0D01*
G01*
X111125000Y-114650000D02*
G75*
G03*
X111125000Y-114650000I-2625000J0D01*
G01*
D11*
%TO.P,J2,1,Pin_1*%
%TO.N,unconnected-(J2-Pad1)*%
X106500000Y-70300000D03*
%TD*%
%TO.P,J3,1,Pin_1*%
%TO.N,unconnected-(J3-Pad1)*%
X106500000Y-159300000D03*
%TD*%
%TO.P,J4,1,Pin_1*%
%TO.N,unconnected-(J4-Pad1)*%
X182500000Y-70300000D03*
%TD*%
%TO.P,J5,1,Pin_1*%
%TO.N,unconnected-(J5-Pad1)*%
X182500000Y-159300000D03*
%TD*%
D12*
%TO.P,U2,1,SDA*%
%TO.N,SDA*%
X155900000Y-115170000D03*
%TO.P,U2,2,SCL*%
%TO.N,SCL*%
X155900000Y-114670000D03*
%TO.P,U2,3,Alert*%
%TO.N,unconnected-(U2-Pad3)*%
X155900000Y-114170000D03*
%TO.P,U2,4,GND*%
%TO.N,GND*%
X155900000Y-113670000D03*
%TO.P,U2,5,A2*%
X153000000Y-113670000D03*
%TO.P,U2,6,A1*%
X153000000Y-114170000D03*
%TO.P,U2,7,A0*%
X153000000Y-114670000D03*
%TO.P,U2,8,VDD*%
%TO.N,+3V3*%
X153000000Y-115170000D03*
D13*
%TO.P,U2,9,EP/GND*%
%TO.N,GND*%
X154450000Y-114420000D03*
%TD*%
D14*
%TO.P,SC5,1,+*%
%TO.N,Net-(D3-Pad2)*%
X167860000Y-67570000D03*
%TO.P,SC5,2,-*%
%TO.N,Net-(SC5-Pad2)*%
X167860000Y-107570000D03*
%TD*%
D15*
%TO.P,TP1,1,1*%
%TO.N,VSOLAR*%
X106230000Y-123950000D03*
%TD*%
D16*
%TO.P,D3,1,K*%
%TO.N,VSOLAR*%
X126400000Y-118000000D03*
%TO.P,D3,2,A*%
%TO.N,Net-(D3-Pad2)*%
X130400000Y-118000000D03*
%TD*%
D17*
%TO.P,C4,1*%
%TO.N,GND*%
X149280000Y-112660000D03*
%TO.P,C4,2*%
%TO.N,+3V3*%
X149280000Y-114560000D03*
%TD*%
D15*
%TO.P,TP2,1,1*%
%TO.N,GND*%
X106220000Y-130030000D03*
%TD*%
D16*
%TO.P,D1,1,K*%
%TO.N,VSOLAR*%
X126360000Y-111540000D03*
%TO.P,D1,2,A*%
%TO.N,Net-(D1-Pad2)*%
X130360000Y-111540000D03*
%TD*%
D17*
%TO.P,C1,1*%
%TO.N,+3V3*%
X149300000Y-117440000D03*
%TO.P,C1,2*%
%TO.N,GND*%
X149300000Y-119340000D03*
%TD*%
D14*
%TO.P,SC3,1,+*%
%TO.N,Net-(D2-Pad2)*%
X144490000Y-67570000D03*
%TO.P,SC3,2,-*%
%TO.N,Net-(SC3-Pad2)*%
X144490000Y-107570000D03*
%TD*%
%TO.P,SC4,1,+*%
%TO.N,Net-(SC3-Pad2)*%
X144450000Y-121940000D03*
%TO.P,SC4,2,-*%
%TO.N,GND*%
X144450000Y-161940000D03*
%TD*%
%TO.P,SC2,1,+*%
%TO.N,Net-(SC1-Pad2)*%
X121120000Y-121920000D03*
%TO.P,SC2,2,-*%
%TO.N,GND*%
X121120000Y-161920000D03*
%TD*%
D16*
%TO.P,D2,1,K*%
%TO.N,VSOLAR*%
X126360000Y-114750000D03*
%TO.P,D2,2,A*%
%TO.N,Net-(D2-Pad2)*%
X130360000Y-114750000D03*
%TD*%
D14*
%TO.P,SC6,1,+*%
%TO.N,Net-(SC5-Pad2)*%
X168000000Y-121970000D03*
%TO.P,SC6,2,-*%
%TO.N,GND*%
X168000000Y-161970000D03*
%TD*%
D18*
%TO.P,C2,1*%
%TO.N,+3V3*%
X153010000Y-116690000D03*
%TO.P,C2,2*%
%TO.N,GND*%
X154910000Y-116690000D03*
%TD*%
D19*
%TO.P,C5,1*%
%TO.N,Net-(C5-Pad1)*%
X159050000Y-111450000D03*
%TO.P,C5,2*%
%TO.N,GND*%
X157150000Y-111450000D03*
%TD*%
D20*
%TO.P,U1,1,SDA*%
%TO.N,SDA*%
X145845000Y-117445000D03*
%TO.P,U1,2,INT*%
%TO.N,unconnected-(U1-Pad2)*%
X145845000Y-116475000D03*
%TO.P,U1,3,LDR*%
%TO.N,Net-(U1-Pad3)*%
X145845000Y-115505000D03*
%TO.P,U1,4,LEDK*%
X145845000Y-114535000D03*
%TO.P,U1,5,LEDA*%
%TO.N,+3V3*%
X147245000Y-114535000D03*
%TO.P,U1,6,GND*%
%TO.N,GND*%
X147245000Y-115505000D03*
%TO.P,U1,7,SCL*%
%TO.N,SCL*%
X147245000Y-116475000D03*
%TO.P,U1,8,VDD*%
%TO.N,+3V3*%
X147245000Y-117445000D03*
%TD*%
D21*
%TO.P,R2,1*%
%TO.N,+3V3*%
X139870000Y-117940000D03*
%TO.P,R2,2*%
%TO.N,SDA*%
X139870000Y-116290000D03*
%TD*%
D22*
%TO.P,R3,1*%
%TO.N,+3V3*%
X161990000Y-116970000D03*
%TO.P,R3,2*%
%TO.N,Net-(C3-Pad1)*%
X160340000Y-116970000D03*
%TD*%
D23*
%TO.P,R1,1*%
%TO.N,+3V3*%
X137250000Y-116290000D03*
%TO.P,R1,2*%
%TO.N,SCL*%
X137250000Y-117940000D03*
%TD*%
D18*
%TO.P,C3,1*%
%TO.N,Net-(C3-Pad1)*%
X163410000Y-111380000D03*
%TO.P,C3,2*%
%TO.N,GND*%
X165310000Y-111380000D03*
%TD*%
D14*
%TO.P,SC1,1,+*%
%TO.N,Net-(D1-Pad2)*%
X121090000Y-67570000D03*
%TO.P,SC1,2,-*%
%TO.N,Net-(SC1-Pad2)*%
X121090000Y-107570000D03*
%TD*%
D24*
%TO.P,U3,1,REG*%
%TO.N,Net-(C5-Pad1)*%
X158980000Y-113350000D03*
%TO.P,U3,2,SCL*%
%TO.N,SCL*%
X158980000Y-113850000D03*
%TO.P,U3,3,SDA*%
%TO.N,SDA*%
X158980000Y-114350000D03*
%TO.P,U3,4,IN/TRIG*%
%TO.N,GND*%
X158980000Y-114850000D03*
%TO.P,U3,5,EN*%
%TO.N,Net-(C3-Pad1)*%
X158980000Y-115350000D03*
%TO.P,U3,6,VDD/NC*%
%TO.N,unconnected-(U3-Pad6)*%
X163380000Y-115350000D03*
%TO.P,U3,7,OUT+*%
%TO.N,Net-(U3-Pad7)*%
X163380000Y-114850000D03*
%TO.P,U3,8,GND*%
%TO.N,GND*%
X163380000Y-114350000D03*
%TO.P,U3,9,OUT-*%
%TO.N,Net-(U3-Pad7)*%
X163380000Y-113850000D03*
%TO.P,U3,10,VDD*%
%TO.N,Net-(C3-Pad1)*%
X163380000Y-113350000D03*
%TD*%
D25*
%TO.N,GND*%
X168000000Y-156390000D03*
X156860000Y-113670000D03*
X160570000Y-109960000D03*
X109400000Y-130030000D03*
X144450000Y-156250000D03*
X147475000Y-113105000D03*
X151530000Y-119620000D03*
X121120000Y-156220000D03*
X160750000Y-114500000D03*
%TO.N,+3V3*%
X150540000Y-113710000D03*
X126510000Y-126100000D03*
X151390000Y-117440000D03*
%TO.N,VSOLAR*%
X124270000Y-118000000D03*
X110660000Y-124750000D03*
%TO.N,SDA*%
X147030000Y-118510000D03*
X129500000Y-120644998D03*
%TO.N,SCL*%
X128000001Y-126000001D03*
X149990000Y-115990000D03*
%TO.N,Net-(C3-Pad1)*%
X159470000Y-116130000D03*
X162260000Y-111570000D03*
%TO.N,Net-(U3-Pad7)*%
X178200000Y-123800000D03*
X161890000Y-115330000D03*
X161820000Y-113350000D03*
X178120000Y-121620000D03*
X164800000Y-127190000D03*
%TD*%
D26*
%TO.N,Net-(C3-Pad1)*%
X163380000Y-111410000D02*
X163410000Y-111380000D01*
X163380000Y-113350000D02*
X163380000Y-111410000D01*
%TO.N,GND*%
X153000000Y-113670000D02*
X153000000Y-114670000D01*
X158360000Y-109960000D02*
X158750000Y-109960000D01*
X163890000Y-109960000D02*
X165310000Y-111380000D01*
X158750000Y-109960000D02*
X160570000Y-109960000D01*
X155900000Y-113670000D02*
X155200000Y-113670000D01*
X149280000Y-112660000D02*
X147920000Y-112660000D01*
D27*
X109400000Y-130030000D02*
X106050000Y-130030000D01*
D26*
X154910000Y-116690000D02*
X154910000Y-114880000D01*
X155900000Y-113670000D02*
X156860000Y-113670000D01*
X157150000Y-111450000D02*
X157150000Y-111170000D01*
D27*
X144450000Y-161940000D02*
X144450000Y-156250000D01*
D26*
X149300000Y-119340000D02*
X151250000Y-119340000D01*
X160900000Y-114350000D02*
X160750000Y-114500000D01*
X160570000Y-109960000D02*
X163890000Y-109960000D01*
X154910000Y-114880000D02*
X154450000Y-114420000D01*
D27*
X168000000Y-161970000D02*
X168000000Y-156390000D01*
D26*
X146530000Y-115340000D02*
X146530000Y-114050000D01*
X158980000Y-114850000D02*
X160400000Y-114850000D01*
X157150000Y-111170000D02*
X158360000Y-109960000D01*
D27*
X121120000Y-161920000D02*
X121120000Y-156220000D01*
D26*
X154200000Y-114170000D02*
X154450000Y-114420000D01*
X160400000Y-114850000D02*
X160750000Y-114500000D01*
X147920000Y-112660000D02*
X147475000Y-113105000D01*
X151250000Y-119340000D02*
X151530000Y-119620000D01*
X155200000Y-113670000D02*
X154485000Y-114385000D01*
X146695000Y-115505000D02*
X146530000Y-115340000D01*
X147245000Y-115505000D02*
X146695000Y-115505000D01*
X147475000Y-113105000D02*
X146530000Y-114050000D01*
X153000000Y-114170000D02*
X154200000Y-114170000D01*
X163380000Y-114350000D02*
X160900000Y-114350000D01*
X154485000Y-114385000D02*
X154450000Y-114420000D01*
%TO.N,+3V3*%
X126510000Y-125480000D02*
X126510000Y-126100000D01*
X153010000Y-116690000D02*
X153010000Y-115180000D01*
X149300000Y-117440000D02*
X147250000Y-117440000D01*
X147245000Y-114535000D02*
X149255000Y-114535000D01*
X149300000Y-117440000D02*
X151390000Y-117440000D01*
X137250000Y-116290000D02*
X138220000Y-116290000D01*
X147250000Y-117440000D02*
X147245000Y-117445000D01*
X153010000Y-115180000D02*
X153000000Y-115170000D01*
X149255000Y-114535000D02*
X149280000Y-114560000D01*
X151390000Y-117440000D02*
X152260000Y-117440000D01*
X152260000Y-117440000D02*
X153010000Y-116690000D01*
X135700000Y-116290000D02*
X126510000Y-125480000D01*
X149690000Y-114560000D02*
X150540000Y-113710000D01*
X138220000Y-116290000D02*
X139870000Y-117940000D01*
X137250000Y-116290000D02*
X135700000Y-116290000D01*
X149280000Y-114560000D02*
X149690000Y-114560000D01*
D27*
%TO.N,VSOLAR*%
X126360000Y-117960000D02*
X126400000Y-118000000D01*
X126360000Y-111540000D02*
X126360000Y-117960000D01*
X126400000Y-118000000D02*
X124270000Y-118000000D01*
X109860000Y-123950000D02*
X110660000Y-124750000D01*
X106230000Y-123950000D02*
X109860000Y-123950000D01*
%TO.N,Net-(SC1-Pad2)*%
X121090000Y-107570000D02*
X121090000Y-121890000D01*
X121090000Y-121890000D02*
X121120000Y-121920000D01*
%TO.N,Net-(SC3-Pad2)*%
X144490000Y-121900000D02*
X144450000Y-121940000D01*
X144490000Y-107570000D02*
X144490000Y-121900000D01*
%TO.N,Net-(D1-Pad2)*%
X130360000Y-76840000D02*
X130360000Y-111540000D01*
X121090000Y-67570000D02*
X130360000Y-76840000D01*
%TO.N,Net-(D2-Pad2)*%
X144490000Y-93920000D02*
X133240000Y-105170000D01*
X133240000Y-111870000D02*
X133240000Y-105170000D01*
X130360000Y-114750000D02*
X133240000Y-111870000D01*
X144490000Y-67570000D02*
X144490000Y-93920000D01*
D26*
%TO.N,SDA*%
X155900000Y-115170000D02*
X157369315Y-115170000D01*
X157369315Y-115170000D02*
X158189315Y-114350000D01*
X136430000Y-114850000D02*
X138430000Y-114850000D01*
X155900000Y-117440000D02*
X154830000Y-118510000D01*
X146910000Y-118510000D02*
X145845000Y-117445000D01*
X154830000Y-118510000D02*
X147030000Y-118510000D01*
X129500000Y-120644998D02*
X130635002Y-120644998D01*
X138430000Y-114850000D02*
X139870000Y-116290000D01*
X158189315Y-114350000D02*
X158980000Y-114350000D01*
X155900000Y-115170000D02*
X155900000Y-117440000D01*
X147030000Y-118510000D02*
X146910000Y-118510000D01*
X130635002Y-120644998D02*
X136430000Y-114850000D01*
%TO.N,SCL*%
X151570000Y-114410000D02*
X149990000Y-115990000D01*
X137250000Y-117940000D02*
X129170000Y-126020000D01*
X157159315Y-112820000D02*
X152370000Y-112820000D01*
X158980000Y-113850000D02*
X158189315Y-113850000D01*
X158189315Y-113850000D02*
X157705305Y-113850000D01*
X152370000Y-112820000D02*
X151570000Y-113620000D01*
X149505000Y-116475000D02*
X149990000Y-115990000D01*
X157705305Y-113850000D02*
X156885305Y-114670000D01*
X129170000Y-126020000D02*
X128020000Y-126020000D01*
X156885305Y-114670000D02*
X155900000Y-114670000D01*
X151570000Y-113620000D02*
X151570000Y-114410000D01*
X158189315Y-113850000D02*
X157159315Y-112820000D01*
X147245000Y-116475000D02*
X149505000Y-116475000D01*
%TO.N,Net-(C5-Pad1)*%
X159050000Y-111450000D02*
X159050000Y-113280000D01*
X159050000Y-113280000D02*
X158980000Y-113350000D01*
%TO.N,Net-(U1-Pad3)*%
X145845000Y-114535000D02*
X145845000Y-115505000D01*
%TO.N,Net-(C3-Pad1)*%
X163410000Y-111570000D02*
X162260000Y-111570000D01*
X158980000Y-115350000D02*
X158980000Y-115610000D01*
X158980000Y-115610000D02*
X160340000Y-116970000D01*
%TO.N,Net-(U3-Pad7)*%
X163380000Y-114850000D02*
X162370000Y-114850000D01*
X162320000Y-113850000D02*
X161820000Y-113350000D01*
X162370000Y-114850000D02*
X161890000Y-115330000D01*
X163380000Y-113850000D02*
X162320000Y-113850000D01*
D27*
%TO.N,Net-(D3-Pad2)*%
X136280000Y-113630000D02*
X136280000Y-104900000D01*
X130400000Y-118000000D02*
X131910000Y-118000000D01*
X131910000Y-118000000D02*
X136280000Y-113630000D01*
X136280000Y-104900000D02*
X167860000Y-73320000D01*
X167860000Y-73320000D02*
X167860000Y-67570000D01*
%TO.N,Net-(SC5-Pad2)*%
X167860000Y-121830000D02*
X168000000Y-121970000D01*
X167860000Y-107570000D02*
X167860000Y-121830000D01*
%TD*%
%TA.AperFunction,Conductor*%
%TO.N,+3V3*%
G36*
X114023621Y-66278502D02*
G01*
X114070114Y-66332158D01*
X114081500Y-66384500D01*
X114081500Y-69118134D01*
X114088255Y-69180316D01*
X114139385Y-69316705D01*
X114226739Y-69433261D01*
X114343295Y-69520615D01*
X114479684Y-69571745D01*
X114541866Y-69578500D01*
X121973629Y-69578500D01*
X122041750Y-69598502D01*
X122062724Y-69615405D01*
X129564595Y-77117276D01*
X129598621Y-77179588D01*
X129601500Y-77206371D01*
X129601500Y-110055500D01*
X129581498Y-110123621D01*
X129527842Y-110170114D01*
X129475500Y-110181500D01*
X129061866Y-110181500D01*
X128999684Y-110188255D01*
X128863295Y-110239385D01*
X128746739Y-110326739D01*
X128659385Y-110443295D01*
X128608255Y-110579684D01*
X128601500Y-110641866D01*
X128601500Y-112438134D01*
X128608255Y-112500316D01*
X128659385Y-112636705D01*
X128746739Y-112753261D01*
X128863295Y-112840615D01*
X128999684Y-112891745D01*
X129061866Y-112898500D01*
X130834629Y-112898500D01*
X130902750Y-112918502D01*
X130949243Y-112972158D01*
X130959347Y-113042432D01*
X130929853Y-113107012D01*
X130923724Y-113113595D01*
X130682724Y-113354595D01*
X130620412Y-113388621D01*
X130593629Y-113391500D01*
X129061866Y-113391500D01*
X128999684Y-113398255D01*
X128863295Y-113449385D01*
X128746739Y-113536739D01*
X128659385Y-113653295D01*
X128608255Y-113789684D01*
X128601500Y-113851866D01*
X128601500Y-115648134D01*
X128608255Y-115710316D01*
X128659385Y-115846705D01*
X128746739Y-115963261D01*
X128863295Y-116050615D01*
X128999684Y-116101745D01*
X129061866Y-116108500D01*
X131658134Y-116108500D01*
X131720316Y-116101745D01*
X131856705Y-116050615D01*
X131973261Y-115963261D01*
X132060615Y-115846705D01*
X132111745Y-115710316D01*
X132118500Y-115648134D01*
X132118500Y-114116371D01*
X132138502Y-114048250D01*
X132155405Y-114027276D01*
X133728911Y-112453770D01*
X133743323Y-112441384D01*
X133754918Y-112432851D01*
X133754923Y-112432846D01*
X133760818Y-112428508D01*
X133765557Y-112422930D01*
X133765560Y-112422927D01*
X133795035Y-112388232D01*
X133801965Y-112380716D01*
X133807660Y-112375021D01*
X133812518Y-112368880D01*
X133825281Y-112352749D01*
X133828072Y-112349345D01*
X133870591Y-112299297D01*
X133870592Y-112299295D01*
X133875333Y-112293715D01*
X133878661Y-112287199D01*
X133882028Y-112282150D01*
X133885195Y-112277021D01*
X133889734Y-112271284D01*
X133920655Y-112205125D01*
X133922561Y-112201225D01*
X133924974Y-112196500D01*
X133955769Y-112136192D01*
X133957508Y-112129084D01*
X133959607Y-112123441D01*
X133961524Y-112117678D01*
X133964622Y-112111050D01*
X133969138Y-112089341D01*
X133979486Y-112039588D01*
X133980457Y-112035299D01*
X133982304Y-112027751D01*
X133997808Y-111964390D01*
X133998500Y-111953236D01*
X133998536Y-111953238D01*
X133998775Y-111949245D01*
X133999149Y-111945053D01*
X134000640Y-111937885D01*
X133998546Y-111860479D01*
X133998500Y-111857072D01*
X133998500Y-105536371D01*
X134018502Y-105468250D01*
X134035405Y-105447276D01*
X144978911Y-94503770D01*
X144993323Y-94491384D01*
X145004918Y-94482851D01*
X145004923Y-94482846D01*
X145010818Y-94478508D01*
X145015557Y-94472930D01*
X145015560Y-94472927D01*
X145045035Y-94438232D01*
X145051965Y-94430716D01*
X145057661Y-94425020D01*
X145059924Y-94422159D01*
X145059929Y-94422154D01*
X145075285Y-94402744D01*
X145078074Y-94399342D01*
X145120596Y-94349291D01*
X145120597Y-94349290D01*
X145125333Y-94343715D01*
X145128661Y-94337198D01*
X145132027Y-94332150D01*
X145135190Y-94327028D01*
X145139735Y-94321284D01*
X145170664Y-94255105D01*
X145172563Y-94251221D01*
X145205769Y-94186192D01*
X145207510Y-94179077D01*
X145209613Y-94173422D01*
X145211522Y-94167683D01*
X145214622Y-94161050D01*
X145229491Y-94089565D01*
X145230461Y-94085282D01*
X145246473Y-94019844D01*
X145247808Y-94014390D01*
X145248500Y-94003236D01*
X145248535Y-94003238D01*
X145248775Y-93999266D01*
X145249152Y-93995045D01*
X145250641Y-93987885D01*
X145248546Y-93910458D01*
X145248500Y-93907050D01*
X145248500Y-82593724D01*
X146336309Y-82593724D01*
X146337130Y-82600000D01*
X146336861Y-82600000D01*
X146355403Y-82941995D01*
X146410813Y-83279981D01*
X146502441Y-83609995D01*
X146629213Y-83928168D01*
X146789642Y-84230769D01*
X146791550Y-84233584D01*
X146791553Y-84233588D01*
X146941399Y-84454593D01*
X146981847Y-84514250D01*
X147203575Y-84775289D01*
X147452227Y-85010825D01*
X147724887Y-85218095D01*
X148018359Y-85394671D01*
X148329202Y-85538482D01*
X148332440Y-85539573D01*
X148332445Y-85539575D01*
X148650535Y-85646753D01*
X148650541Y-85646755D01*
X148653771Y-85647843D01*
X148657107Y-85648577D01*
X148657106Y-85648577D01*
X148984930Y-85720736D01*
X148984934Y-85720737D01*
X148988261Y-85721469D01*
X148991651Y-85721838D01*
X148991653Y-85721838D01*
X149049820Y-85728164D01*
X149328751Y-85758500D01*
X149671249Y-85758500D01*
X149950180Y-85728164D01*
X150008347Y-85721838D01*
X150008349Y-85721838D01*
X150011739Y-85721469D01*
X150015066Y-85720737D01*
X150015070Y-85720736D01*
X150342894Y-85648577D01*
X150342893Y-85648577D01*
X150346229Y-85647843D01*
X150349459Y-85646755D01*
X150349465Y-85646753D01*
X150667555Y-85539575D01*
X150667560Y-85539573D01*
X150670798Y-85538482D01*
X150981641Y-85394671D01*
X151275113Y-85218095D01*
X151547773Y-85010825D01*
X151796425Y-84775289D01*
X152018153Y-84514250D01*
X152058602Y-84454593D01*
X152208447Y-84233588D01*
X152208450Y-84233584D01*
X152210358Y-84230769D01*
X152370787Y-83928168D01*
X152497559Y-83609995D01*
X152589187Y-83279981D01*
X152644597Y-82941995D01*
X152661543Y-82629444D01*
X152662345Y-82622204D01*
X152662334Y-82622203D01*
X152662770Y-82617345D01*
X152663576Y-82612552D01*
X152663729Y-82600000D01*
X152659773Y-82572376D01*
X152658500Y-82554514D01*
X152658500Y-76653250D01*
X152660246Y-76632345D01*
X152662770Y-76617344D01*
X152662770Y-76617341D01*
X152663576Y-76612552D01*
X152663729Y-76600000D01*
X152663040Y-76595188D01*
X152662724Y-76590331D01*
X152662726Y-76590331D01*
X152662479Y-76587825D01*
X152662323Y-76584932D01*
X152650718Y-76370893D01*
X152644782Y-76261408D01*
X152644781Y-76261399D01*
X152644597Y-76258005D01*
X152589187Y-75920019D01*
X152507781Y-75626821D01*
X152498472Y-75593292D01*
X152498470Y-75593286D01*
X152497559Y-75590005D01*
X152370787Y-75271832D01*
X152210358Y-74969231D01*
X152208447Y-74966412D01*
X152020062Y-74688565D01*
X152020058Y-74688560D01*
X152018153Y-74685750D01*
X151796425Y-74424711D01*
X151547773Y-74189175D01*
X151275113Y-73981905D01*
X150981641Y-73805329D01*
X150670798Y-73661518D01*
X150667560Y-73660427D01*
X150667555Y-73660425D01*
X150349465Y-73553247D01*
X150349459Y-73553245D01*
X150346229Y-73552157D01*
X150248644Y-73530677D01*
X150015070Y-73479264D01*
X150015066Y-73479263D01*
X150011739Y-73478531D01*
X150008349Y-73478162D01*
X150008347Y-73478162D01*
X149950180Y-73471836D01*
X149671249Y-73441500D01*
X149328751Y-73441500D01*
X149049820Y-73471836D01*
X148991653Y-73478162D01*
X148991651Y-73478162D01*
X148988261Y-73478531D01*
X148984934Y-73479263D01*
X148984930Y-73479264D01*
X148751356Y-73530677D01*
X148653771Y-73552157D01*
X148650541Y-73553245D01*
X148650535Y-73553247D01*
X148332445Y-73660425D01*
X148332440Y-73660427D01*
X148329202Y-73661518D01*
X148018359Y-73805329D01*
X147724887Y-73981905D01*
X147452227Y-74189175D01*
X147203575Y-74424711D01*
X146981847Y-74685750D01*
X146979942Y-74688560D01*
X146979938Y-74688565D01*
X146791553Y-74966412D01*
X146789642Y-74969231D01*
X146629213Y-75271832D01*
X146502441Y-75590005D01*
X146501530Y-75593286D01*
X146501528Y-75593292D01*
X146492219Y-75626821D01*
X146410813Y-75920019D01*
X146355403Y-76258005D01*
X146341085Y-76522101D01*
X146338021Y-76578611D01*
X146337733Y-76581360D01*
X146337712Y-76583122D01*
X146337769Y-76583258D01*
X146337678Y-76584932D01*
X146336309Y-76593724D01*
X146336940Y-76598548D01*
X146336861Y-76600000D01*
X146337130Y-76600000D01*
X146337958Y-76606332D01*
X146340436Y-76625283D01*
X146341500Y-76641620D01*
X146341500Y-82550633D01*
X146340000Y-82570018D01*
X146336309Y-82593724D01*
X145248500Y-82593724D01*
X145248500Y-69704500D01*
X145268502Y-69636379D01*
X145322158Y-69589886D01*
X145374500Y-69578500D01*
X151038134Y-69578500D01*
X151100316Y-69571745D01*
X151236705Y-69520615D01*
X151353261Y-69433261D01*
X151440615Y-69316705D01*
X151491745Y-69180316D01*
X151498500Y-69118134D01*
X151498500Y-66384500D01*
X151518502Y-66316379D01*
X151572158Y-66269886D01*
X151624500Y-66258500D01*
X160725500Y-66258500D01*
X160793621Y-66278502D01*
X160840114Y-66332158D01*
X160851500Y-66384500D01*
X160851500Y-69118134D01*
X160858255Y-69180316D01*
X160909385Y-69316705D01*
X160996739Y-69433261D01*
X161113295Y-69520615D01*
X161249684Y-69571745D01*
X161311866Y-69578500D01*
X166975500Y-69578500D01*
X167043621Y-69598502D01*
X167090114Y-69652158D01*
X167101500Y-69704500D01*
X167101500Y-72953629D01*
X167081498Y-73021750D01*
X167064595Y-73042724D01*
X135791089Y-104316230D01*
X135776677Y-104328616D01*
X135765082Y-104337149D01*
X135765077Y-104337154D01*
X135759182Y-104341492D01*
X135754443Y-104347070D01*
X135754440Y-104347073D01*
X135724965Y-104381768D01*
X135718035Y-104389284D01*
X135712340Y-104394979D01*
X135710060Y-104397861D01*
X135694719Y-104417251D01*
X135691928Y-104420655D01*
X135649409Y-104470703D01*
X135644667Y-104476285D01*
X135641339Y-104482801D01*
X135637972Y-104487850D01*
X135634805Y-104492979D01*
X135630266Y-104498716D01*
X135599345Y-104564875D01*
X135597442Y-104568769D01*
X135564231Y-104633808D01*
X135562492Y-104640916D01*
X135560393Y-104646559D01*
X135558476Y-104652322D01*
X135555378Y-104658950D01*
X135553888Y-104666112D01*
X135553888Y-104666113D01*
X135540514Y-104730412D01*
X135539544Y-104734696D01*
X135522192Y-104805610D01*
X135521500Y-104816764D01*
X135521464Y-104816762D01*
X135521225Y-104820755D01*
X135520851Y-104824947D01*
X135519360Y-104832115D01*
X135519558Y-104839432D01*
X135521454Y-104909521D01*
X135521500Y-104912928D01*
X135521500Y-113263629D01*
X135501498Y-113331750D01*
X135484595Y-113352724D01*
X132111838Y-116725481D01*
X132049526Y-116759507D01*
X131978711Y-116754442D01*
X131947181Y-116737214D01*
X131896705Y-116699385D01*
X131760316Y-116648255D01*
X131698134Y-116641500D01*
X129101866Y-116641500D01*
X129039684Y-116648255D01*
X128903295Y-116699385D01*
X128786739Y-116786739D01*
X128699385Y-116903295D01*
X128648255Y-117039684D01*
X128641500Y-117101866D01*
X128641500Y-118898134D01*
X128648255Y-118960316D01*
X128699385Y-119096705D01*
X128786739Y-119213261D01*
X128903295Y-119300615D01*
X129039684Y-119351745D01*
X129101866Y-119358500D01*
X130721405Y-119358500D01*
X130789526Y-119378502D01*
X130836019Y-119432158D01*
X130846123Y-119502432D01*
X130816629Y-119567012D01*
X130810500Y-119573595D01*
X130409502Y-119974593D01*
X130347190Y-120008619D01*
X130320407Y-120011498D01*
X130208200Y-120011498D01*
X130140079Y-119991496D01*
X130120853Y-119975155D01*
X130120580Y-119975458D01*
X130115668Y-119971035D01*
X130111253Y-119966132D01*
X130044182Y-119917402D01*
X129962094Y-119857761D01*
X129962093Y-119857760D01*
X129956752Y-119853880D01*
X129950724Y-119851196D01*
X129950722Y-119851195D01*
X129788319Y-119778889D01*
X129788318Y-119778889D01*
X129782288Y-119776204D01*
X129688888Y-119756351D01*
X129601944Y-119737870D01*
X129601939Y-119737870D01*
X129595487Y-119736498D01*
X129404513Y-119736498D01*
X129398061Y-119737870D01*
X129398056Y-119737870D01*
X129311112Y-119756351D01*
X129217712Y-119776204D01*
X129211682Y-119778889D01*
X129211681Y-119778889D01*
X129049278Y-119851195D01*
X129049276Y-119851196D01*
X129043248Y-119853880D01*
X129037907Y-119857760D01*
X129037906Y-119857761D01*
X128991471Y-119891498D01*
X128888747Y-119966132D01*
X128884326Y-119971042D01*
X128884325Y-119971043D01*
X128850492Y-120008619D01*
X128760960Y-120108054D01*
X128665473Y-120273442D01*
X128606458Y-120455070D01*
X128605768Y-120461631D01*
X128605768Y-120461633D01*
X128592657Y-120586379D01*
X128586496Y-120644998D01*
X128587186Y-120651563D01*
X128605541Y-120826197D01*
X128606458Y-120834926D01*
X128665473Y-121016554D01*
X128760960Y-121181942D01*
X128765378Y-121186849D01*
X128765379Y-121186850D01*
X128847452Y-121278001D01*
X128888747Y-121323864D01*
X129043248Y-121436116D01*
X129049276Y-121438800D01*
X129049278Y-121438801D01*
X129211681Y-121511107D01*
X129217712Y-121513792D01*
X129311113Y-121533645D01*
X129398056Y-121552126D01*
X129398061Y-121552126D01*
X129404513Y-121553498D01*
X129595487Y-121553498D01*
X129601939Y-121552126D01*
X129601944Y-121552126D01*
X129688887Y-121533645D01*
X129782288Y-121513792D01*
X129788319Y-121511107D01*
X129950722Y-121438801D01*
X129950724Y-121438800D01*
X129956752Y-121436116D01*
X130111253Y-121323864D01*
X130115668Y-121318961D01*
X130120580Y-121314538D01*
X130121705Y-121315787D01*
X130175014Y-121282947D01*
X130208200Y-121278498D01*
X130556235Y-121278498D01*
X130567418Y-121279025D01*
X130574911Y-121280700D01*
X130582837Y-121280451D01*
X130582838Y-121280451D01*
X130642988Y-121278560D01*
X130646947Y-121278498D01*
X130674858Y-121278498D01*
X130678793Y-121278001D01*
X130678858Y-121277993D01*
X130690695Y-121277060D01*
X130722953Y-121276046D01*
X130726972Y-121275920D01*
X130734891Y-121275671D01*
X130754345Y-121270019D01*
X130773702Y-121266011D01*
X130785932Y-121264466D01*
X130785933Y-121264466D01*
X130793799Y-121263472D01*
X130801170Y-121260553D01*
X130801172Y-121260553D01*
X130834914Y-121247194D01*
X130846144Y-121243349D01*
X130880985Y-121233227D01*
X130880986Y-121233227D01*
X130888595Y-121231016D01*
X130895414Y-121226983D01*
X130895419Y-121226981D01*
X130906030Y-121220705D01*
X130923778Y-121212010D01*
X130942619Y-121204550D01*
X130978389Y-121178562D01*
X130988309Y-121172046D01*
X131019537Y-121153578D01*
X131019540Y-121153576D01*
X131026364Y-121149540D01*
X131040685Y-121135219D01*
X131055719Y-121122378D01*
X131065696Y-121115129D01*
X131072109Y-121110470D01*
X131100300Y-121076393D01*
X131108290Y-121067614D01*
X136119575Y-116056330D01*
X136181887Y-116022304D01*
X136252702Y-116027369D01*
X136259550Y-116031432D01*
X136280548Y-116036000D01*
X138214884Y-116036000D01*
X138230123Y-116031525D01*
X138231328Y-116030135D01*
X138232291Y-116025706D01*
X138226868Y-115966685D01*
X138224257Y-115953649D01*
X138188939Y-115840946D01*
X138187655Y-115769961D01*
X138224952Y-115709550D01*
X138288989Y-115678894D01*
X138359434Y-115687726D01*
X138398268Y-115714172D01*
X138849595Y-116165499D01*
X138883621Y-116227811D01*
X138886500Y-116254594D01*
X138886501Y-116400516D01*
X138886501Y-116546634D01*
X138886764Y-116549492D01*
X138886764Y-116549501D01*
X138888424Y-116567564D01*
X138893247Y-116620062D01*
X138895246Y-116626440D01*
X138895246Y-116626441D01*
X138941451Y-116773879D01*
X138944528Y-116783699D01*
X139033361Y-116930381D01*
X139129239Y-117026259D01*
X139163265Y-117088571D01*
X139158200Y-117159386D01*
X139129239Y-117204449D01*
X139039131Y-117294557D01*
X139029824Y-117306426D01*
X138948921Y-117440012D01*
X138942715Y-117453757D01*
X138895744Y-117603644D01*
X138893131Y-117616693D01*
X138888087Y-117671586D01*
X138891475Y-117683124D01*
X138892865Y-117684329D01*
X138900548Y-117686000D01*
X140834884Y-117686000D01*
X140850123Y-117681525D01*
X140851328Y-117680135D01*
X140852291Y-117675706D01*
X140846868Y-117616685D01*
X140844257Y-117603649D01*
X140797285Y-117453757D01*
X140791079Y-117440012D01*
X140710176Y-117306426D01*
X140700869Y-117294557D01*
X140610761Y-117204449D01*
X140576735Y-117142137D01*
X140581800Y-117071322D01*
X140610761Y-117026259D01*
X140706639Y-116930381D01*
X140795472Y-116783699D01*
X140798550Y-116773879D01*
X140820933Y-116702452D01*
X140846753Y-116620062D01*
X140853500Y-116546635D01*
X140853499Y-116033366D01*
X140853203Y-116030135D01*
X140848100Y-115974604D01*
X140846753Y-115959938D01*
X140839830Y-115937846D01*
X140797744Y-115803550D01*
X140797743Y-115803548D01*
X140795472Y-115796301D01*
X140706639Y-115649619D01*
X140585381Y-115528361D01*
X140438699Y-115439528D01*
X140431452Y-115437257D01*
X140431450Y-115437256D01*
X140333329Y-115406507D01*
X140275062Y-115388247D01*
X140201635Y-115381500D01*
X140183527Y-115381500D01*
X139909595Y-115381501D01*
X139841476Y-115361499D01*
X139820500Y-115344596D01*
X139391173Y-114915268D01*
X138933647Y-114457742D01*
X138926113Y-114449463D01*
X138922000Y-114442982D01*
X138872348Y-114396356D01*
X138869507Y-114393602D01*
X138849770Y-114373865D01*
X138846573Y-114371385D01*
X138837551Y-114363680D01*
X138813202Y-114340815D01*
X138805321Y-114333414D01*
X138798375Y-114329595D01*
X138798372Y-114329593D01*
X138787566Y-114323652D01*
X138771047Y-114312801D01*
X138770535Y-114312404D01*
X138755041Y-114300386D01*
X138747772Y-114297241D01*
X138747768Y-114297238D01*
X138714463Y-114282826D01*
X138703813Y-114277609D01*
X138665060Y-114256305D01*
X138645437Y-114251267D01*
X138626734Y-114244863D01*
X138615420Y-114239967D01*
X138615419Y-114239967D01*
X138608145Y-114236819D01*
X138600322Y-114235580D01*
X138600312Y-114235577D01*
X138564476Y-114229901D01*
X138552856Y-114227495D01*
X138517711Y-114218472D01*
X138517710Y-114218472D01*
X138510030Y-114216500D01*
X138489776Y-114216500D01*
X138470065Y-114214949D01*
X138457886Y-114213020D01*
X138450057Y-114211780D01*
X138442165Y-114212526D01*
X138406039Y-114215941D01*
X138394181Y-114216500D01*
X137040259Y-114216500D01*
X136972138Y-114196498D01*
X136925645Y-114142842D01*
X136915541Y-114072568D01*
X136930404Y-114031598D01*
X136929734Y-114031284D01*
X136960655Y-113965125D01*
X136962561Y-113961225D01*
X136967630Y-113951298D01*
X136995769Y-113896192D01*
X136997508Y-113889084D01*
X136999607Y-113883441D01*
X137001524Y-113877678D01*
X137004622Y-113871050D01*
X137019487Y-113799583D01*
X137020457Y-113795299D01*
X137023255Y-113783866D01*
X137037808Y-113724390D01*
X137038500Y-113713236D01*
X137038536Y-113713238D01*
X137038775Y-113709245D01*
X137039149Y-113705053D01*
X137040640Y-113697885D01*
X137038546Y-113620479D01*
X137038500Y-113617072D01*
X137038500Y-105266371D01*
X137058502Y-105198250D01*
X137075405Y-105177276D01*
X168348911Y-73903770D01*
X168363323Y-73891384D01*
X168374918Y-73882851D01*
X168374923Y-73882846D01*
X168380818Y-73878508D01*
X168385557Y-73872930D01*
X168385560Y-73872927D01*
X168415035Y-73838232D01*
X168421965Y-73830716D01*
X168427660Y-73825021D01*
X168432518Y-73818880D01*
X168445281Y-73802749D01*
X168448072Y-73799345D01*
X168490591Y-73749297D01*
X168490592Y-73749295D01*
X168495333Y-73743715D01*
X168498661Y-73737199D01*
X168502028Y-73732150D01*
X168505195Y-73727021D01*
X168509734Y-73721284D01*
X168540655Y-73655125D01*
X168542561Y-73651225D01*
X168575769Y-73586192D01*
X168577508Y-73579084D01*
X168579607Y-73573441D01*
X168581524Y-73567678D01*
X168584622Y-73561050D01*
X168586625Y-73551423D01*
X168599486Y-73489588D01*
X168600457Y-73485299D01*
X168615054Y-73425643D01*
X168617808Y-73414390D01*
X168618500Y-73403236D01*
X168618536Y-73403238D01*
X168618775Y-73399245D01*
X168619149Y-73395053D01*
X168620640Y-73387885D01*
X168618546Y-73310479D01*
X168618500Y-73307072D01*
X168618500Y-69704500D01*
X168638502Y-69636379D01*
X168692158Y-69589886D01*
X168744500Y-69578500D01*
X174408134Y-69578500D01*
X174470316Y-69571745D01*
X174606705Y-69520615D01*
X174723261Y-69433261D01*
X174810615Y-69316705D01*
X174861745Y-69180316D01*
X174868500Y-69118134D01*
X174868500Y-66384500D01*
X174888502Y-66316379D01*
X174942158Y-66269886D01*
X174994500Y-66258500D01*
X185365500Y-66258500D01*
X185433621Y-66278502D01*
X185480114Y-66332158D01*
X185491500Y-66384500D01*
X185491500Y-68746328D01*
X185471498Y-68814449D01*
X185417842Y-68860942D01*
X185347568Y-68871046D01*
X185282988Y-68841552D01*
X185255085Y-68807029D01*
X185163239Y-68639961D01*
X185163236Y-68639957D01*
X185161546Y-68636882D01*
X184959573Y-68350567D01*
X184726943Y-68088550D01*
X184724342Y-68086208D01*
X184724337Y-68086203D01*
X184469167Y-67856447D01*
X184469166Y-67856447D01*
X184466557Y-67854097D01*
X184428538Y-67826878D01*
X184184513Y-67652173D01*
X184184510Y-67652171D01*
X184181659Y-67650130D01*
X183875800Y-67479192D01*
X183552794Y-67343412D01*
X183549425Y-67342421D01*
X183549421Y-67342419D01*
X183401053Y-67298752D01*
X183216665Y-67244484D01*
X182940895Y-67195858D01*
X182875063Y-67184250D01*
X182875061Y-67184250D01*
X182871603Y-67183640D01*
X182868094Y-67183419D01*
X182868092Y-67183419D01*
X182525428Y-67161860D01*
X182525422Y-67161860D01*
X182521910Y-67161639D01*
X182424516Y-67166403D01*
X182175451Y-67178584D01*
X182175443Y-67178585D01*
X182171944Y-67178756D01*
X182168476Y-67179318D01*
X182168473Y-67179318D01*
X181829542Y-67234213D01*
X181829539Y-67234214D01*
X181826067Y-67234776D01*
X181822684Y-67235721D01*
X181822682Y-67235721D01*
X181787747Y-67245475D01*
X181488589Y-67329001D01*
X181485341Y-67330313D01*
X181485333Y-67330316D01*
X181166983Y-67458938D01*
X181166979Y-67458940D01*
X181163719Y-67460257D01*
X181160632Y-67461926D01*
X181160628Y-67461928D01*
X181131220Y-67477829D01*
X180855503Y-67626909D01*
X180567785Y-67826878D01*
X180565143Y-67829191D01*
X180565139Y-67829194D01*
X180326206Y-68038365D01*
X180304151Y-68057673D01*
X180067886Y-68316416D01*
X179861935Y-68599883D01*
X179860193Y-68602949D01*
X179860192Y-68602951D01*
X179839167Y-68639962D01*
X179688865Y-68904541D01*
X179671985Y-68943926D01*
X179570668Y-69180316D01*
X179550834Y-69226591D01*
X179513293Y-69350932D01*
X179461112Y-69523767D01*
X179449562Y-69562021D01*
X179386311Y-69906650D01*
X179361869Y-70256181D01*
X179376542Y-70606258D01*
X179430145Y-70952518D01*
X179522012Y-71290645D01*
X179523302Y-71293904D01*
X179523304Y-71293909D01*
X179572316Y-71417698D01*
X179650998Y-71616424D01*
X179652653Y-71619536D01*
X179652655Y-71619541D01*
X179712109Y-71731357D01*
X179815493Y-71925795D01*
X179817483Y-71928701D01*
X179817484Y-71928703D01*
X179891490Y-72036785D01*
X180013449Y-72214902D01*
X180242397Y-72480142D01*
X180499485Y-72718207D01*
X180781507Y-72926132D01*
X180784544Y-72927886D01*
X180784548Y-72927888D01*
X180919529Y-73005819D01*
X181084949Y-73101324D01*
X181088170Y-73102731D01*
X181402807Y-73240193D01*
X181402817Y-73240197D01*
X181406029Y-73241600D01*
X181409387Y-73242639D01*
X181409391Y-73242641D01*
X181545685Y-73284831D01*
X181740743Y-73345212D01*
X181744199Y-73345871D01*
X181744198Y-73345871D01*
X182081471Y-73410210D01*
X182081477Y-73410211D01*
X182084922Y-73410868D01*
X182316253Y-73428668D01*
X182430777Y-73437480D01*
X182430778Y-73437480D01*
X182434274Y-73437749D01*
X182666291Y-73429646D01*
X182780929Y-73425643D01*
X182780933Y-73425643D01*
X182784445Y-73425520D01*
X182787924Y-73425006D01*
X182787927Y-73425006D01*
X183127578Y-73374851D01*
X183127584Y-73374850D01*
X183131070Y-73374335D01*
X183134474Y-73373436D01*
X183134477Y-73373435D01*
X183466439Y-73285727D01*
X183466440Y-73285727D01*
X183469830Y-73284831D01*
X183796502Y-73158123D01*
X184107014Y-72995792D01*
X184397496Y-72799859D01*
X184664327Y-72572768D01*
X184749069Y-72482527D01*
X184901771Y-72319916D01*
X184901775Y-72319911D01*
X184904182Y-72317348D01*
X185114071Y-72036785D01*
X185219416Y-71857229D01*
X185256823Y-71793469D01*
X185308546Y-71744836D01*
X185378352Y-71731886D01*
X185444077Y-71758732D01*
X185484855Y-71816850D01*
X185491500Y-71857229D01*
X185491500Y-74465500D01*
X185471498Y-74533621D01*
X185417842Y-74580114D01*
X185365500Y-74591500D01*
X183053250Y-74591500D01*
X183032345Y-74589754D01*
X183017344Y-74587230D01*
X183017341Y-74587230D01*
X183012552Y-74586424D01*
X183006313Y-74586348D01*
X183004860Y-74586330D01*
X183004857Y-74586330D01*
X183000000Y-74586271D01*
X182995185Y-74586961D01*
X182994366Y-74587014D01*
X182984506Y-74587977D01*
X182669394Y-74604491D01*
X182666154Y-74605004D01*
X182666146Y-74605005D01*
X182515964Y-74628792D01*
X182342410Y-74656281D01*
X182022630Y-74741965D01*
X181713559Y-74860606D01*
X181418583Y-75010905D01*
X181415817Y-75012701D01*
X181415814Y-75012703D01*
X181303361Y-75085731D01*
X181140932Y-75191213D01*
X180883650Y-75399556D01*
X180649556Y-75633650D01*
X180441213Y-75890932D01*
X180439411Y-75893707D01*
X180340681Y-76045739D01*
X180260905Y-76168583D01*
X180110606Y-76463559D01*
X179991965Y-76772630D01*
X179906281Y-77092410D01*
X179854491Y-77419394D01*
X179854319Y-77422684D01*
X179838432Y-77725818D01*
X179837717Y-77732717D01*
X179837691Y-77734849D01*
X179836309Y-77743724D01*
X179837473Y-77752626D01*
X179837473Y-77752628D01*
X179840436Y-77775283D01*
X179841500Y-77791621D01*
X179841500Y-86300633D01*
X179840000Y-86320018D01*
X179837690Y-86334851D01*
X179837690Y-86334855D01*
X179836309Y-86343724D01*
X179837189Y-86350451D01*
X179837441Y-86355267D01*
X179837441Y-86355299D01*
X179837446Y-86355353D01*
X179854491Y-86680606D01*
X179906281Y-87007590D01*
X179991965Y-87327370D01*
X180110606Y-87636441D01*
X180112104Y-87639381D01*
X180226691Y-87864269D01*
X180260905Y-87931418D01*
X180441213Y-88209068D01*
X180649556Y-88466350D01*
X180883650Y-88700444D01*
X181140932Y-88908787D01*
X181143704Y-88910587D01*
X181143707Y-88910589D01*
X181415813Y-89087296D01*
X181418583Y-89089095D01*
X181713559Y-89239394D01*
X182022630Y-89358035D01*
X182342410Y-89443719D01*
X182515964Y-89471208D01*
X182666146Y-89494995D01*
X182666154Y-89494996D01*
X182669394Y-89495509D01*
X182809905Y-89502873D01*
X182968169Y-89511167D01*
X182982472Y-89512739D01*
X182982588Y-89512758D01*
X182987448Y-89513576D01*
X182993941Y-89513655D01*
X182995140Y-89513670D01*
X182995143Y-89513670D01*
X183000000Y-89513729D01*
X183027624Y-89509773D01*
X183045486Y-89508500D01*
X185365433Y-89508500D01*
X185433554Y-89528502D01*
X185480047Y-89582158D01*
X185491433Y-89634511D01*
X185488873Y-113618779D01*
X185486173Y-138922703D01*
X185466164Y-138990822D01*
X185412503Y-139037309D01*
X185360173Y-139048690D01*
X180272969Y-139048690D01*
X180264088Y-139048377D01*
X180260679Y-139048136D01*
X180213198Y-139044781D01*
X180208359Y-139045188D01*
X180208353Y-139045188D01*
X180206133Y-139045375D01*
X180200689Y-139045833D01*
X180197016Y-139046725D01*
X180196056Y-139046605D01*
X180196108Y-139046946D01*
X179863280Y-139097747D01*
X179863276Y-139097748D01*
X179859829Y-139098274D01*
X179526760Y-139187636D01*
X179523515Y-139188905D01*
X179523512Y-139188906D01*
X179208842Y-139311964D01*
X179208836Y-139311967D01*
X179205598Y-139313233D01*
X179202513Y-139314853D01*
X179202510Y-139314854D01*
X178903356Y-139471910D01*
X178903351Y-139471913D01*
X178900271Y-139473530D01*
X178614513Y-139666565D01*
X178611866Y-139668816D01*
X178611857Y-139668823D01*
X178380574Y-139865523D01*
X178351821Y-139889977D01*
X178349430Y-139892517D01*
X178349427Y-139892519D01*
X178242764Y-140005789D01*
X178115408Y-140141033D01*
X177908167Y-140416662D01*
X177732633Y-140713491D01*
X177590952Y-141027889D01*
X177484858Y-141356012D01*
X177415650Y-141693843D01*
X177415333Y-141697306D01*
X177415332Y-141697310D01*
X177384771Y-142030729D01*
X177384173Y-142037251D01*
X177390814Y-142382035D01*
X177391265Y-142385486D01*
X177391265Y-142385488D01*
X177418439Y-142593473D01*
X177435489Y-142723977D01*
X177517654Y-143058893D01*
X177636303Y-143382687D01*
X177789984Y-143691397D01*
X177791871Y-143694324D01*
X177791873Y-143694328D01*
X177957592Y-143951423D01*
X177976817Y-143981248D01*
X178194517Y-144248692D01*
X178196997Y-144251130D01*
X178197004Y-144251138D01*
X178407272Y-144457868D01*
X178440421Y-144490459D01*
X178711520Y-144703591D01*
X178714467Y-144705420D01*
X178714469Y-144705422D01*
X179000846Y-144883213D01*
X179004499Y-144885481D01*
X179007633Y-144886975D01*
X179007636Y-144886977D01*
X179312636Y-145032407D01*
X179312641Y-145032409D01*
X179315772Y-145033902D01*
X179319045Y-145035039D01*
X179319053Y-145035042D01*
X179522873Y-145105830D01*
X179641532Y-145147041D01*
X179716053Y-145163988D01*
X179743441Y-145170217D01*
X179805430Y-145204827D01*
X179838867Y-145267457D01*
X179841500Y-145293080D01*
X179841500Y-151700633D01*
X179840000Y-151720018D01*
X179837690Y-151734851D01*
X179837690Y-151734855D01*
X179836309Y-151743724D01*
X179837189Y-151750451D01*
X179837441Y-151755267D01*
X179837441Y-151755299D01*
X179837446Y-151755353D01*
X179854491Y-152080606D01*
X179906281Y-152407590D01*
X179991965Y-152727370D01*
X180110606Y-153036441D01*
X180112104Y-153039381D01*
X180234463Y-153279522D01*
X180260905Y-153331418D01*
X180441213Y-153609068D01*
X180649556Y-153866350D01*
X180883650Y-154100444D01*
X181140932Y-154308787D01*
X181170776Y-154328168D01*
X181415813Y-154487296D01*
X181418583Y-154489095D01*
X181713559Y-154639394D01*
X182022630Y-154758035D01*
X182342410Y-154843719D01*
X182515964Y-154871208D01*
X182666146Y-154894995D01*
X182666154Y-154894996D01*
X182669394Y-154895509D01*
X182809905Y-154902873D01*
X182968169Y-154911167D01*
X182982472Y-154912739D01*
X182982588Y-154912758D01*
X182987448Y-154913576D01*
X182993941Y-154913655D01*
X182995140Y-154913670D01*
X182995143Y-154913670D01*
X183000000Y-154913729D01*
X183027624Y-154909773D01*
X183045486Y-154908500D01*
X185365500Y-154908500D01*
X185433621Y-154928502D01*
X185480114Y-154982158D01*
X185491500Y-155034500D01*
X185491500Y-157746328D01*
X185471498Y-157814449D01*
X185417842Y-157860942D01*
X185347568Y-157871046D01*
X185282988Y-157841552D01*
X185255085Y-157807029D01*
X185163239Y-157639961D01*
X185163236Y-157639957D01*
X185161546Y-157636882D01*
X184959573Y-157350567D01*
X184726943Y-157088550D01*
X184724342Y-157086208D01*
X184724337Y-157086203D01*
X184469167Y-156856447D01*
X184469166Y-156856447D01*
X184466557Y-156854097D01*
X184428538Y-156826878D01*
X184184513Y-156652173D01*
X184184510Y-156652171D01*
X184181659Y-156650130D01*
X183875800Y-156479192D01*
X183552794Y-156343412D01*
X183549425Y-156342421D01*
X183549421Y-156342419D01*
X183401053Y-156298752D01*
X183216665Y-156244484D01*
X182929189Y-156193794D01*
X182875063Y-156184250D01*
X182875061Y-156184250D01*
X182871603Y-156183640D01*
X182868094Y-156183419D01*
X182868092Y-156183419D01*
X182525428Y-156161860D01*
X182525422Y-156161860D01*
X182521910Y-156161639D01*
X182424516Y-156166403D01*
X182175451Y-156178584D01*
X182175443Y-156178585D01*
X182171944Y-156178756D01*
X182168476Y-156179318D01*
X182168473Y-156179318D01*
X181829542Y-156234213D01*
X181829539Y-156234214D01*
X181826067Y-156234776D01*
X181822684Y-156235721D01*
X181822682Y-156235721D01*
X181787747Y-156245475D01*
X181488589Y-156329001D01*
X181485341Y-156330313D01*
X181485333Y-156330316D01*
X181166983Y-156458938D01*
X181166979Y-156458940D01*
X181163719Y-156460257D01*
X181160632Y-156461926D01*
X181160628Y-156461928D01*
X181131220Y-156477829D01*
X180855503Y-156626909D01*
X180567785Y-156826878D01*
X180565143Y-156829191D01*
X180565139Y-156829194D01*
X180525382Y-156863999D01*
X180304151Y-157057673D01*
X180067886Y-157316416D01*
X179861935Y-157599883D01*
X179860193Y-157602949D01*
X179860192Y-157602951D01*
X179839167Y-157639962D01*
X179688865Y-157904541D01*
X179550834Y-158226591D01*
X179449562Y-158562021D01*
X179386311Y-158906650D01*
X179361869Y-159256181D01*
X179376542Y-159606258D01*
X179397285Y-159740250D01*
X179425129Y-159920114D01*
X179430145Y-159952518D01*
X179431067Y-159955910D01*
X179431067Y-159955912D01*
X179441625Y-159994771D01*
X179522012Y-160290645D01*
X179523302Y-160293904D01*
X179523304Y-160293909D01*
X179572316Y-160417698D01*
X179650998Y-160616424D01*
X179652653Y-160619536D01*
X179652655Y-160619541D01*
X179712109Y-160731357D01*
X179815493Y-160925795D01*
X179817483Y-160928701D01*
X179817484Y-160928703D01*
X179891490Y-161036785D01*
X180013449Y-161214902D01*
X180242397Y-161480142D01*
X180499485Y-161718207D01*
X180781507Y-161926132D01*
X180784544Y-161927886D01*
X180784548Y-161927888D01*
X180945060Y-162020559D01*
X181084949Y-162101324D01*
X181088170Y-162102731D01*
X181402807Y-162240193D01*
X181402817Y-162240197D01*
X181406029Y-162241600D01*
X181409387Y-162242639D01*
X181409391Y-162242641D01*
X181545685Y-162284831D01*
X181740743Y-162345212D01*
X181744199Y-162345871D01*
X181744198Y-162345871D01*
X182081471Y-162410210D01*
X182081477Y-162410211D01*
X182084922Y-162410868D01*
X182316253Y-162428668D01*
X182430777Y-162437480D01*
X182430778Y-162437480D01*
X182434274Y-162437749D01*
X182666291Y-162429646D01*
X182780929Y-162425643D01*
X182780933Y-162425643D01*
X182784445Y-162425520D01*
X182787924Y-162425006D01*
X182787927Y-162425006D01*
X183127578Y-162374851D01*
X183127584Y-162374850D01*
X183131070Y-162374335D01*
X183134474Y-162373436D01*
X183134477Y-162373435D01*
X183466439Y-162285727D01*
X183466440Y-162285727D01*
X183469830Y-162284831D01*
X183796502Y-162158123D01*
X184107014Y-161995792D01*
X184397496Y-161799859D01*
X184664327Y-161572768D01*
X184749069Y-161482527D01*
X184901771Y-161319916D01*
X184901775Y-161319911D01*
X184904182Y-161317348D01*
X185114071Y-161036785D01*
X185219416Y-160857229D01*
X185256823Y-160793469D01*
X185308546Y-160744836D01*
X185378352Y-160731886D01*
X185444077Y-160758732D01*
X185484855Y-160816850D01*
X185491500Y-160857229D01*
X185491500Y-163115500D01*
X185471498Y-163183621D01*
X185417842Y-163230114D01*
X185365500Y-163241500D01*
X175134500Y-163241500D01*
X175066379Y-163221498D01*
X175019886Y-163167842D01*
X175008500Y-163115500D01*
X175008500Y-160421866D01*
X175001745Y-160359684D01*
X174950615Y-160223295D01*
X174863261Y-160106739D01*
X174746705Y-160019385D01*
X174610316Y-159968255D01*
X174548134Y-159961500D01*
X168884500Y-159961500D01*
X168816379Y-159941498D01*
X168769886Y-159887842D01*
X168758500Y-159835500D01*
X168758500Y-156926999D01*
X168775381Y-156863999D01*
X168831223Y-156767279D01*
X168831224Y-156767278D01*
X168834527Y-156761556D01*
X168893542Y-156579928D01*
X168913504Y-156390000D01*
X168908751Y-156344775D01*
X168894232Y-156206635D01*
X168894232Y-156206633D01*
X168893542Y-156200072D01*
X168834527Y-156018444D01*
X168739040Y-155853056D01*
X168729735Y-155842721D01*
X168615675Y-155716045D01*
X168615674Y-155716044D01*
X168611253Y-155711134D01*
X168456752Y-155598882D01*
X168450724Y-155596198D01*
X168450722Y-155596197D01*
X168288319Y-155523891D01*
X168288318Y-155523891D01*
X168282288Y-155521206D01*
X168188887Y-155501353D01*
X168101944Y-155482872D01*
X168101939Y-155482872D01*
X168095487Y-155481500D01*
X167904513Y-155481500D01*
X167898061Y-155482872D01*
X167898056Y-155482872D01*
X167811113Y-155501353D01*
X167717712Y-155521206D01*
X167711682Y-155523891D01*
X167711681Y-155523891D01*
X167549278Y-155596197D01*
X167549276Y-155596198D01*
X167543248Y-155598882D01*
X167388747Y-155711134D01*
X167384326Y-155716044D01*
X167384325Y-155716045D01*
X167270266Y-155842721D01*
X167260960Y-155853056D01*
X167165473Y-156018444D01*
X167106458Y-156200072D01*
X167105768Y-156206633D01*
X167105768Y-156206635D01*
X167091249Y-156344775D01*
X167086496Y-156390000D01*
X167106458Y-156579928D01*
X167165473Y-156761556D01*
X167168776Y-156767278D01*
X167168777Y-156767279D01*
X167224619Y-156863999D01*
X167241500Y-156926999D01*
X167241500Y-159835500D01*
X167221498Y-159903621D01*
X167167842Y-159950114D01*
X167115500Y-159961500D01*
X161451866Y-159961500D01*
X161389684Y-159968255D01*
X161253295Y-160019385D01*
X161136739Y-160106739D01*
X161049385Y-160223295D01*
X160998255Y-160359684D01*
X160991500Y-160421866D01*
X160991500Y-163115500D01*
X160971498Y-163183621D01*
X160917842Y-163230114D01*
X160865500Y-163241500D01*
X151584500Y-163241500D01*
X151516379Y-163221498D01*
X151469886Y-163167842D01*
X151458500Y-163115500D01*
X151458500Y-160391866D01*
X151451745Y-160329684D01*
X151400615Y-160193295D01*
X151313261Y-160076739D01*
X151196705Y-159989385D01*
X151060316Y-159938255D01*
X150998134Y-159931500D01*
X145334500Y-159931500D01*
X145266379Y-159911498D01*
X145219886Y-159857842D01*
X145208500Y-159805500D01*
X145208500Y-156786999D01*
X145225381Y-156723999D01*
X145225821Y-156723238D01*
X145268030Y-156650130D01*
X145281223Y-156627279D01*
X145281224Y-156627278D01*
X145284527Y-156621556D01*
X145343542Y-156439928D01*
X145353791Y-156342419D01*
X145362814Y-156256565D01*
X145363504Y-156250000D01*
X145357597Y-156193794D01*
X145344232Y-156066635D01*
X145344232Y-156066633D01*
X145343542Y-156060072D01*
X145284527Y-155878444D01*
X145273171Y-155858774D01*
X145236986Y-155796100D01*
X145189040Y-155713056D01*
X145167177Y-155688774D01*
X145065675Y-155576045D01*
X145065674Y-155576044D01*
X145061253Y-155571134D01*
X144906752Y-155458882D01*
X144900724Y-155456198D01*
X144900722Y-155456197D01*
X144738319Y-155383891D01*
X144738318Y-155383891D01*
X144732288Y-155381206D01*
X144638888Y-155361353D01*
X144551944Y-155342872D01*
X144551939Y-155342872D01*
X144545487Y-155341500D01*
X144354513Y-155341500D01*
X144348061Y-155342872D01*
X144348056Y-155342872D01*
X144261112Y-155361353D01*
X144167712Y-155381206D01*
X144161682Y-155383891D01*
X144161681Y-155383891D01*
X143999278Y-155456197D01*
X143999276Y-155456198D01*
X143993248Y-155458882D01*
X143838747Y-155571134D01*
X143834326Y-155576044D01*
X143834325Y-155576045D01*
X143732824Y-155688774D01*
X143710960Y-155713056D01*
X143663014Y-155796100D01*
X143626830Y-155858774D01*
X143615473Y-155878444D01*
X143556458Y-156060072D01*
X143555768Y-156066633D01*
X143555768Y-156066635D01*
X143542403Y-156193794D01*
X143536496Y-156250000D01*
X143537186Y-156256565D01*
X143546210Y-156342419D01*
X143556458Y-156439928D01*
X143615473Y-156621556D01*
X143618776Y-156627278D01*
X143618777Y-156627279D01*
X143631970Y-156650130D01*
X143674180Y-156723238D01*
X143674619Y-156723999D01*
X143691500Y-156786999D01*
X143691500Y-159805500D01*
X143671498Y-159873621D01*
X143617842Y-159920114D01*
X143565500Y-159931500D01*
X137901866Y-159931500D01*
X137839684Y-159938255D01*
X137703295Y-159989385D01*
X137586739Y-160076739D01*
X137499385Y-160193295D01*
X137448255Y-160329684D01*
X137441500Y-160391866D01*
X137441500Y-163115500D01*
X137421498Y-163183621D01*
X137367842Y-163230114D01*
X137315500Y-163241500D01*
X128254500Y-163241500D01*
X128186379Y-163221498D01*
X128139886Y-163167842D01*
X128128500Y-163115500D01*
X128128500Y-160371866D01*
X128121745Y-160309684D01*
X128070615Y-160173295D01*
X127983261Y-160056739D01*
X127866705Y-159969385D01*
X127730316Y-159918255D01*
X127668134Y-159911500D01*
X122004500Y-159911500D01*
X121936379Y-159891498D01*
X121889886Y-159837842D01*
X121878500Y-159785500D01*
X121878500Y-156756999D01*
X121895381Y-156693999D01*
X121951223Y-156597279D01*
X121951224Y-156597278D01*
X121954527Y-156591556D01*
X122013542Y-156409928D01*
X122014947Y-156396565D01*
X122032814Y-156226565D01*
X122033504Y-156220000D01*
X122013542Y-156030072D01*
X121954527Y-155848444D01*
X121859040Y-155683056D01*
X121783250Y-155598882D01*
X121735675Y-155546045D01*
X121735674Y-155546044D01*
X121731253Y-155541134D01*
X121576752Y-155428882D01*
X121570724Y-155426198D01*
X121570722Y-155426197D01*
X121408319Y-155353891D01*
X121408318Y-155353891D01*
X121402288Y-155351206D01*
X121308888Y-155331353D01*
X121221944Y-155312872D01*
X121221939Y-155312872D01*
X121215487Y-155311500D01*
X121024513Y-155311500D01*
X121018061Y-155312872D01*
X121018056Y-155312872D01*
X120931112Y-155331353D01*
X120837712Y-155351206D01*
X120831682Y-155353891D01*
X120831681Y-155353891D01*
X120669278Y-155426197D01*
X120669276Y-155426198D01*
X120663248Y-155428882D01*
X120508747Y-155541134D01*
X120504326Y-155546044D01*
X120504325Y-155546045D01*
X120456751Y-155598882D01*
X120380960Y-155683056D01*
X120285473Y-155848444D01*
X120226458Y-156030072D01*
X120206496Y-156220000D01*
X120207186Y-156226565D01*
X120225054Y-156396565D01*
X120226458Y-156409928D01*
X120285473Y-156591556D01*
X120288776Y-156597278D01*
X120288777Y-156597279D01*
X120344619Y-156693999D01*
X120361500Y-156756999D01*
X120361500Y-159785500D01*
X120341498Y-159853621D01*
X120287842Y-159900114D01*
X120235500Y-159911500D01*
X114571866Y-159911500D01*
X114509684Y-159918255D01*
X114373295Y-159969385D01*
X114256739Y-160056739D01*
X114169385Y-160173295D01*
X114118255Y-160309684D01*
X114111500Y-160371866D01*
X114111500Y-163115500D01*
X114091498Y-163183621D01*
X114037842Y-163230114D01*
X113985500Y-163241500D01*
X103634500Y-163241500D01*
X103566379Y-163221498D01*
X103519886Y-163167842D01*
X103508500Y-163115500D01*
X103508500Y-160853782D01*
X103528502Y-160785661D01*
X103582158Y-160739168D01*
X103652432Y-160729064D01*
X103717012Y-160758558D01*
X103745751Y-160794629D01*
X103815493Y-160925795D01*
X103817483Y-160928701D01*
X103817484Y-160928703D01*
X103891490Y-161036785D01*
X104013449Y-161214902D01*
X104242397Y-161480142D01*
X104499485Y-161718207D01*
X104781507Y-161926132D01*
X104784544Y-161927886D01*
X104784548Y-161927888D01*
X104945060Y-162020559D01*
X105084949Y-162101324D01*
X105088170Y-162102731D01*
X105402807Y-162240193D01*
X105402817Y-162240197D01*
X105406029Y-162241600D01*
X105409387Y-162242639D01*
X105409391Y-162242641D01*
X105545685Y-162284831D01*
X105740743Y-162345212D01*
X105744199Y-162345871D01*
X105744198Y-162345871D01*
X106081471Y-162410210D01*
X106081477Y-162410211D01*
X106084922Y-162410868D01*
X106316253Y-162428668D01*
X106430777Y-162437480D01*
X106430778Y-162437480D01*
X106434274Y-162437749D01*
X106666291Y-162429646D01*
X106780929Y-162425643D01*
X106780933Y-162425643D01*
X106784445Y-162425520D01*
X106787924Y-162425006D01*
X106787927Y-162425006D01*
X107127578Y-162374851D01*
X107127584Y-162374850D01*
X107131070Y-162374335D01*
X107134474Y-162373436D01*
X107134477Y-162373435D01*
X107466439Y-162285727D01*
X107466440Y-162285727D01*
X107469830Y-162284831D01*
X107796502Y-162158123D01*
X108107014Y-161995792D01*
X108397496Y-161799859D01*
X108664327Y-161572768D01*
X108749069Y-161482527D01*
X108901771Y-161319916D01*
X108901775Y-161319911D01*
X108904182Y-161317348D01*
X109114071Y-161036785D01*
X109291377Y-160734573D01*
X109293830Y-160729064D01*
X109432459Y-160417698D01*
X109432461Y-160417693D01*
X109433891Y-160414481D01*
X109539837Y-160080498D01*
X109607894Y-159736786D01*
X109637213Y-159387630D01*
X109638437Y-159300000D01*
X109636185Y-159259708D01*
X109619074Y-158953671D01*
X109618878Y-158950162D01*
X109560445Y-158604684D01*
X109463866Y-158267873D01*
X109416818Y-158153726D01*
X109331683Y-157947171D01*
X109331679Y-157947163D01*
X109330345Y-157943926D01*
X109161546Y-157636882D01*
X108959573Y-157350567D01*
X108726943Y-157088550D01*
X108724342Y-157086208D01*
X108724337Y-157086203D01*
X108469167Y-156856447D01*
X108469166Y-156856447D01*
X108466557Y-156854097D01*
X108428538Y-156826878D01*
X108184513Y-156652173D01*
X108184510Y-156652171D01*
X108181659Y-156650130D01*
X107875800Y-156479192D01*
X107552794Y-156343412D01*
X107549425Y-156342421D01*
X107549421Y-156342419D01*
X107401053Y-156298752D01*
X107216665Y-156244484D01*
X106929189Y-156193794D01*
X106875063Y-156184250D01*
X106875061Y-156184250D01*
X106871603Y-156183640D01*
X106868094Y-156183419D01*
X106868092Y-156183419D01*
X106525428Y-156161860D01*
X106525422Y-156161860D01*
X106521910Y-156161639D01*
X106424516Y-156166403D01*
X106175451Y-156178584D01*
X106175443Y-156178585D01*
X106171944Y-156178756D01*
X106168476Y-156179318D01*
X106168473Y-156179318D01*
X105829542Y-156234213D01*
X105829539Y-156234214D01*
X105826067Y-156234776D01*
X105822684Y-156235721D01*
X105822682Y-156235721D01*
X105787747Y-156245475D01*
X105488589Y-156329001D01*
X105485341Y-156330313D01*
X105485333Y-156330316D01*
X105166983Y-156458938D01*
X105166979Y-156458940D01*
X105163719Y-156460257D01*
X105160632Y-156461926D01*
X105160628Y-156461928D01*
X105131220Y-156477829D01*
X104855503Y-156626909D01*
X104567785Y-156826878D01*
X104565143Y-156829191D01*
X104565139Y-156829194D01*
X104525382Y-156863999D01*
X104304151Y-157057673D01*
X104067886Y-157316416D01*
X103861935Y-157599883D01*
X103860193Y-157602949D01*
X103860192Y-157602951D01*
X103744056Y-157807387D01*
X103693017Y-157856738D01*
X103623399Y-157870660D01*
X103557305Y-157844734D01*
X103515720Y-157787191D01*
X103508500Y-157745150D01*
X103508500Y-155034500D01*
X103528502Y-154966379D01*
X103582158Y-154919886D01*
X103634500Y-154908500D01*
X105946750Y-154908500D01*
X105967655Y-154910246D01*
X105982656Y-154912770D01*
X105982659Y-154912770D01*
X105987448Y-154913576D01*
X105993687Y-154913652D01*
X105995140Y-154913670D01*
X105995143Y-154913670D01*
X106000000Y-154913729D01*
X106004815Y-154913039D01*
X106005634Y-154912986D01*
X106015494Y-154912023D01*
X106330606Y-154895509D01*
X106333846Y-154894996D01*
X106333854Y-154894995D01*
X106484036Y-154871208D01*
X106657590Y-154843719D01*
X106977370Y-154758035D01*
X107286441Y-154639394D01*
X107297836Y-154633588D01*
X107578479Y-154490593D01*
X107578486Y-154490589D01*
X107581418Y-154489095D01*
X107859068Y-154308787D01*
X108116350Y-154100444D01*
X108350444Y-153866350D01*
X108558787Y-153609068D01*
X108739095Y-153331418D01*
X108765538Y-153279522D01*
X108887896Y-153039381D01*
X108889394Y-153036441D01*
X108905791Y-152993724D01*
X136336309Y-152993724D01*
X136337130Y-153000000D01*
X136336861Y-153000000D01*
X136355403Y-153341995D01*
X136410813Y-153679981D01*
X136411728Y-153683276D01*
X136496912Y-153990080D01*
X136502441Y-154009995D01*
X136538479Y-154100444D01*
X136627579Y-154324066D01*
X136629213Y-154328168D01*
X136789642Y-154630769D01*
X136791550Y-154633584D01*
X136791553Y-154633588D01*
X136979757Y-154911167D01*
X136981847Y-154914250D01*
X137203575Y-155175289D01*
X137452227Y-155410825D01*
X137724887Y-155618095D01*
X138018359Y-155794671D01*
X138329202Y-155938482D01*
X138332440Y-155939573D01*
X138332445Y-155939575D01*
X138650535Y-156046753D01*
X138650541Y-156046755D01*
X138653771Y-156047843D01*
X138657107Y-156048577D01*
X138657106Y-156048577D01*
X138984930Y-156120736D01*
X138984934Y-156120737D01*
X138988261Y-156121469D01*
X138991651Y-156121838D01*
X138991653Y-156121838D01*
X139049820Y-156128164D01*
X139328751Y-156158500D01*
X139671249Y-156158500D01*
X139950180Y-156128164D01*
X140008347Y-156121838D01*
X140008349Y-156121838D01*
X140011739Y-156121469D01*
X140015066Y-156120737D01*
X140015070Y-156120736D01*
X140342894Y-156048577D01*
X140342893Y-156048577D01*
X140346229Y-156047843D01*
X140349459Y-156046755D01*
X140349465Y-156046753D01*
X140667555Y-155939575D01*
X140667560Y-155939573D01*
X140670798Y-155938482D01*
X140981641Y-155794671D01*
X141275113Y-155618095D01*
X141547773Y-155410825D01*
X141796425Y-155175289D01*
X142018153Y-154914250D01*
X142020244Y-154911167D01*
X142208447Y-154633588D01*
X142208450Y-154633584D01*
X142210358Y-154630769D01*
X142370787Y-154328168D01*
X142372422Y-154324066D01*
X142461521Y-154100444D01*
X142497559Y-154009995D01*
X142503089Y-153990080D01*
X142588272Y-153683276D01*
X142589187Y-153679981D01*
X142644597Y-153341995D01*
X142652872Y-153189361D01*
X142661543Y-153029444D01*
X142662345Y-153022204D01*
X142662334Y-153022203D01*
X142662770Y-153017345D01*
X142663576Y-153012552D01*
X142663729Y-153000000D01*
X142662830Y-152993724D01*
X146336309Y-152993724D01*
X146337130Y-153000000D01*
X146336861Y-153000000D01*
X146355403Y-153341995D01*
X146410813Y-153679981D01*
X146411728Y-153683276D01*
X146496912Y-153990080D01*
X146502441Y-154009995D01*
X146538479Y-154100444D01*
X146627579Y-154324066D01*
X146629213Y-154328168D01*
X146789642Y-154630769D01*
X146791550Y-154633584D01*
X146791553Y-154633588D01*
X146979757Y-154911167D01*
X146981847Y-154914250D01*
X147203575Y-155175289D01*
X147452227Y-155410825D01*
X147724887Y-155618095D01*
X148018359Y-155794671D01*
X148329202Y-155938482D01*
X148332440Y-155939573D01*
X148332445Y-155939575D01*
X148650535Y-156046753D01*
X148650541Y-156046755D01*
X148653771Y-156047843D01*
X148657107Y-156048577D01*
X148657106Y-156048577D01*
X148984930Y-156120736D01*
X148984934Y-156120737D01*
X148988261Y-156121469D01*
X148991651Y-156121838D01*
X148991653Y-156121838D01*
X149049820Y-156128164D01*
X149328751Y-156158500D01*
X149671249Y-156158500D01*
X149950180Y-156128164D01*
X150008347Y-156121838D01*
X150008349Y-156121838D01*
X150011739Y-156121469D01*
X150015066Y-156120737D01*
X150015070Y-156120736D01*
X150342894Y-156048577D01*
X150342893Y-156048577D01*
X150346229Y-156047843D01*
X150349459Y-156046755D01*
X150349465Y-156046753D01*
X150667555Y-155939575D01*
X150667560Y-155939573D01*
X150670798Y-155938482D01*
X150981641Y-155794671D01*
X151275113Y-155618095D01*
X151547773Y-155410825D01*
X151796425Y-155175289D01*
X152018153Y-154914250D01*
X152020244Y-154911167D01*
X152208447Y-154633588D01*
X152208450Y-154633584D01*
X152210358Y-154630769D01*
X152370787Y-154328168D01*
X152372422Y-154324066D01*
X152461521Y-154100444D01*
X152497559Y-154009995D01*
X152503089Y-153990080D01*
X152588272Y-153683276D01*
X152589187Y-153679981D01*
X152644597Y-153341995D01*
X152652872Y-153189361D01*
X152661543Y-153029444D01*
X152662345Y-153022204D01*
X152662334Y-153022203D01*
X152662770Y-153017345D01*
X152663576Y-153012552D01*
X152663729Y-153000000D01*
X152659773Y-152972376D01*
X152658500Y-152954514D01*
X152658500Y-147053250D01*
X152660246Y-147032345D01*
X152662770Y-147017344D01*
X152662770Y-147017341D01*
X152663576Y-147012552D01*
X152663729Y-147000000D01*
X152663040Y-146995188D01*
X152662724Y-146990331D01*
X152662726Y-146990331D01*
X152662479Y-146987825D01*
X152662323Y-146984932D01*
X152655043Y-146850673D01*
X152644782Y-146661408D01*
X152644781Y-146661399D01*
X152644597Y-146658005D01*
X152589187Y-146320019D01*
X152497559Y-145990005D01*
X152370787Y-145671832D01*
X152210358Y-145369231D01*
X152208447Y-145366412D01*
X152020062Y-145088565D01*
X152020058Y-145088560D01*
X152018153Y-145085750D01*
X151796425Y-144824711D01*
X151547773Y-144589175D01*
X151275113Y-144381905D01*
X151236673Y-144358776D01*
X151189208Y-144330218D01*
X150981641Y-144205329D01*
X150670798Y-144061518D01*
X150667560Y-144060427D01*
X150667555Y-144060425D01*
X150349465Y-143953247D01*
X150349459Y-143953245D01*
X150346229Y-143952157D01*
X150137374Y-143906185D01*
X150015070Y-143879264D01*
X150015066Y-143879263D01*
X150011739Y-143878531D01*
X150008349Y-143878162D01*
X150008347Y-143878162D01*
X149950180Y-143871836D01*
X149671249Y-143841500D01*
X149328751Y-143841500D01*
X149049820Y-143871836D01*
X148991653Y-143878162D01*
X148991651Y-143878162D01*
X148988261Y-143878531D01*
X148984934Y-143879263D01*
X148984930Y-143879264D01*
X148862626Y-143906185D01*
X148653771Y-143952157D01*
X148650541Y-143953245D01*
X148650535Y-143953247D01*
X148332445Y-144060425D01*
X148332440Y-144060427D01*
X148329202Y-144061518D01*
X148018359Y-144205329D01*
X147810792Y-144330218D01*
X147763328Y-144358776D01*
X147724887Y-144381905D01*
X147452227Y-144589175D01*
X147203575Y-144824711D01*
X146981847Y-145085750D01*
X146979942Y-145088560D01*
X146979938Y-145088565D01*
X146791553Y-145366412D01*
X146789642Y-145369231D01*
X146629213Y-145671832D01*
X146502441Y-145990005D01*
X146410813Y-146320019D01*
X146355403Y-146658005D01*
X146355218Y-146661425D01*
X146338021Y-146978611D01*
X146337733Y-146981360D01*
X146337712Y-146983122D01*
X146337769Y-146983258D01*
X146337678Y-146984932D01*
X146336309Y-146993724D01*
X146336940Y-146998548D01*
X146336861Y-147000000D01*
X146337130Y-147000000D01*
X146337958Y-147006332D01*
X146340436Y-147025283D01*
X146341500Y-147041620D01*
X146341500Y-152950633D01*
X146340000Y-152970018D01*
X146336309Y-152993724D01*
X142662830Y-152993724D01*
X142659773Y-152972376D01*
X142658500Y-152954514D01*
X142658500Y-147053250D01*
X142660246Y-147032345D01*
X142662770Y-147017344D01*
X142662770Y-147017341D01*
X142663576Y-147012552D01*
X142663729Y-147000000D01*
X142663040Y-146995188D01*
X142662724Y-146990331D01*
X142662726Y-146990331D01*
X142662479Y-146987825D01*
X142662323Y-146984932D01*
X142655043Y-146850673D01*
X142644782Y-146661408D01*
X142644781Y-146661399D01*
X142644597Y-146658005D01*
X142589187Y-146320019D01*
X142497559Y-145990005D01*
X142370787Y-145671832D01*
X142210358Y-145369231D01*
X142208447Y-145366412D01*
X142020062Y-145088565D01*
X142020058Y-145088560D01*
X142018153Y-145085750D01*
X141796425Y-144824711D01*
X141547773Y-144589175D01*
X141275113Y-144381905D01*
X141236673Y-144358776D01*
X141189208Y-144330218D01*
X140981641Y-144205329D01*
X140670798Y-144061518D01*
X140667560Y-144060427D01*
X140667555Y-144060425D01*
X140349465Y-143953247D01*
X140349459Y-143953245D01*
X140346229Y-143952157D01*
X140137374Y-143906185D01*
X140015070Y-143879264D01*
X140015066Y-143879263D01*
X140011739Y-143878531D01*
X140008349Y-143878162D01*
X140008347Y-143878162D01*
X139950180Y-143871836D01*
X139671249Y-143841500D01*
X139328751Y-143841500D01*
X139049820Y-143871836D01*
X138991653Y-143878162D01*
X138991651Y-143878162D01*
X138988261Y-143878531D01*
X138984934Y-143879263D01*
X138984930Y-143879264D01*
X138862626Y-143906185D01*
X138653771Y-143952157D01*
X138650541Y-143953245D01*
X138650535Y-143953247D01*
X138332445Y-144060425D01*
X138332440Y-144060427D01*
X138329202Y-144061518D01*
X138018359Y-144205329D01*
X137810792Y-144330218D01*
X137763328Y-144358776D01*
X137724887Y-144381905D01*
X137452227Y-144589175D01*
X137203575Y-144824711D01*
X136981847Y-145085750D01*
X136979942Y-145088560D01*
X136979938Y-145088565D01*
X136791553Y-145366412D01*
X136789642Y-145369231D01*
X136629213Y-145671832D01*
X136502441Y-145990005D01*
X136410813Y-146320019D01*
X136355403Y-146658005D01*
X136355218Y-146661425D01*
X136338021Y-146978611D01*
X136337733Y-146981360D01*
X136337712Y-146983122D01*
X136337769Y-146983258D01*
X136337678Y-146984932D01*
X136336309Y-146993724D01*
X136336940Y-146998548D01*
X136336861Y-147000000D01*
X136337130Y-147000000D01*
X136337958Y-147006332D01*
X136340436Y-147025283D01*
X136341500Y-147041620D01*
X136341500Y-152950633D01*
X136340000Y-152970018D01*
X136336309Y-152993724D01*
X108905791Y-152993724D01*
X109008035Y-152727370D01*
X109093719Y-152407590D01*
X109145509Y-152080606D01*
X109161167Y-151781831D01*
X109162739Y-151767528D01*
X109162767Y-151767359D01*
X109163576Y-151762552D01*
X109163664Y-151755354D01*
X109163670Y-151754860D01*
X109163670Y-151754857D01*
X109163729Y-151750000D01*
X109159773Y-151722376D01*
X109158500Y-151704514D01*
X109158500Y-145293057D01*
X109178502Y-145224936D01*
X109232158Y-145178443D01*
X109256531Y-145170202D01*
X109358864Y-145146916D01*
X109362143Y-145145776D01*
X109362148Y-145145775D01*
X109681502Y-145034791D01*
X109681506Y-145034789D01*
X109684796Y-145033646D01*
X109710226Y-145021512D01*
X109993074Y-144886548D01*
X109993077Y-144886546D01*
X109996213Y-144885050D01*
X110289302Y-144702950D01*
X110461335Y-144567583D01*
X110557739Y-144491726D01*
X110557742Y-144491723D01*
X110560471Y-144489576D01*
X110745388Y-144307586D01*
X110803911Y-144249990D01*
X110803914Y-144249986D01*
X110806399Y-144247541D01*
X111024074Y-143979811D01*
X111210828Y-143689665D01*
X111364373Y-143380658D01*
X111379278Y-143339882D01*
X111481632Y-143059854D01*
X111481633Y-143059851D01*
X111482830Y-143056576D01*
X111564747Y-142721388D01*
X111609119Y-142379200D01*
X111610089Y-142326005D01*
X111615341Y-142037693D01*
X111615405Y-142034204D01*
X111583526Y-141690627D01*
X111513873Y-141352677D01*
X111407300Y-141024495D01*
X111265112Y-140710100D01*
X111204552Y-140608024D01*
X111090826Y-140416336D01*
X111090822Y-140416330D01*
X111089051Y-140413345D01*
X110999754Y-140294950D01*
X110883378Y-140140654D01*
X110881273Y-140137863D01*
X110851708Y-140106565D01*
X110646716Y-139889563D01*
X110646715Y-139889562D01*
X110644324Y-139887031D01*
X110381107Y-139663921D01*
X110281461Y-139596858D01*
X110097748Y-139473218D01*
X110097747Y-139473217D01*
X110094846Y-139471265D01*
X109789048Y-139311425D01*
X109785810Y-139310166D01*
X109785804Y-139310163D01*
X109470702Y-139187618D01*
X109470698Y-139187617D01*
X109467459Y-139186357D01*
X109134018Y-139097595D01*
X108821294Y-139050514D01*
X108814840Y-139049171D01*
X108814833Y-139049207D01*
X108810042Y-139048318D01*
X108805339Y-139047063D01*
X108792857Y-139045732D01*
X108788002Y-139045966D01*
X108787999Y-139045966D01*
X108734537Y-139048544D01*
X108728469Y-139048690D01*
X103634500Y-139048690D01*
X103566379Y-139028688D01*
X103519886Y-138975032D01*
X103508500Y-138922690D01*
X103508500Y-130842542D01*
X104211500Y-130842542D01*
X104223022Y-130984200D01*
X104278890Y-131201794D01*
X104372409Y-131406055D01*
X104500620Y-131590527D01*
X104659473Y-131749380D01*
X104843945Y-131877591D01*
X105048206Y-131971110D01*
X105265800Y-132026978D01*
X105319705Y-132031362D01*
X105404908Y-132038293D01*
X105404918Y-132038293D01*
X105407458Y-132038500D01*
X107032542Y-132038500D01*
X107035082Y-132038293D01*
X107035092Y-132038293D01*
X107120295Y-132031362D01*
X107174200Y-132026978D01*
X107391794Y-131971110D01*
X107596055Y-131877591D01*
X107780527Y-131749380D01*
X107939380Y-131590527D01*
X108067591Y-131406055D01*
X108161110Y-131201794D01*
X108216978Y-130984200D01*
X108223478Y-130904285D01*
X108248936Y-130838010D01*
X108306185Y-130796020D01*
X108349063Y-130788500D01*
X108857413Y-130788500D01*
X108931472Y-130812563D01*
X108937902Y-130817235D01*
X108937909Y-130817239D01*
X108943248Y-130821118D01*
X108949276Y-130823802D01*
X108949278Y-130823803D01*
X109111681Y-130896109D01*
X109117712Y-130898794D01*
X109211113Y-130918647D01*
X109298056Y-130937128D01*
X109298061Y-130937128D01*
X109304513Y-130938500D01*
X109495487Y-130938500D01*
X109501939Y-130937128D01*
X109501944Y-130937128D01*
X109588887Y-130918647D01*
X109682288Y-130898794D01*
X109688319Y-130896109D01*
X109850722Y-130823803D01*
X109850724Y-130823802D01*
X109856752Y-130821118D01*
X109862097Y-130817235D01*
X109912157Y-130780864D01*
X110011253Y-130708866D01*
X110139040Y-130566944D01*
X110234527Y-130401556D01*
X110293542Y-130219928D01*
X110313504Y-130030000D01*
X110293542Y-129840072D01*
X110234527Y-129658444D01*
X110139040Y-129493056D01*
X110011253Y-129351134D01*
X109901647Y-129271500D01*
X109862094Y-129242763D01*
X109862093Y-129242762D01*
X109856752Y-129238882D01*
X109850724Y-129236198D01*
X109850722Y-129236197D01*
X109688319Y-129163891D01*
X109688318Y-129163891D01*
X109682288Y-129161206D01*
X109588888Y-129141353D01*
X109501944Y-129122872D01*
X109501939Y-129122872D01*
X109495487Y-129121500D01*
X109304513Y-129121500D01*
X109298061Y-129122872D01*
X109298056Y-129122872D01*
X109211112Y-129141353D01*
X109117712Y-129161206D01*
X109111682Y-129163891D01*
X109111681Y-129163891D01*
X108949278Y-129236197D01*
X108949276Y-129236198D01*
X108943248Y-129238882D01*
X108937909Y-129242761D01*
X108937902Y-129242765D01*
X108931472Y-129247437D01*
X108857413Y-129271500D01*
X108349063Y-129271500D01*
X108280942Y-129251498D01*
X108234449Y-129197842D01*
X108223478Y-129155715D01*
X108217413Y-129081151D01*
X108216978Y-129075800D01*
X108161110Y-128858206D01*
X108067591Y-128653945D01*
X107939380Y-128469473D01*
X107780527Y-128310620D01*
X107596055Y-128182409D01*
X107391794Y-128088890D01*
X107279920Y-128060166D01*
X107179396Y-128034356D01*
X107179395Y-128034356D01*
X107174200Y-128033022D01*
X107120295Y-128028638D01*
X107035092Y-128021707D01*
X107035082Y-128021707D01*
X107032542Y-128021500D01*
X105407458Y-128021500D01*
X105404918Y-128021707D01*
X105404908Y-128021707D01*
X105319705Y-128028638D01*
X105265800Y-128033022D01*
X105260605Y-128034356D01*
X105260604Y-128034356D01*
X105160080Y-128060166D01*
X105048206Y-128088890D01*
X104843945Y-128182409D01*
X104659473Y-128310620D01*
X104500620Y-128469473D01*
X104372409Y-128653945D01*
X104278890Y-128858206D01*
X104223022Y-129075800D01*
X104222587Y-129081151D01*
X104213096Y-129197842D01*
X104211500Y-129217458D01*
X104211500Y-130842542D01*
X103508500Y-130842542D01*
X103508500Y-127190000D01*
X163886496Y-127190000D01*
X163906458Y-127379928D01*
X163965473Y-127561556D01*
X164060960Y-127726944D01*
X164188747Y-127868866D01*
X164343248Y-127981118D01*
X164349276Y-127983802D01*
X164349278Y-127983803D01*
X164462823Y-128034356D01*
X164517712Y-128058794D01*
X164611112Y-128078647D01*
X164698056Y-128097128D01*
X164698061Y-128097128D01*
X164704513Y-128098500D01*
X164895487Y-128098500D01*
X164901939Y-128097128D01*
X164901944Y-128097128D01*
X164988888Y-128078647D01*
X165082288Y-128058794D01*
X165137177Y-128034356D01*
X165250722Y-127983803D01*
X165250724Y-127983802D01*
X165256752Y-127981118D01*
X165411253Y-127868866D01*
X165539040Y-127726944D01*
X165634527Y-127561556D01*
X165693542Y-127379928D01*
X165713504Y-127190000D01*
X165693542Y-127000072D01*
X165634527Y-126818444D01*
X165539040Y-126653056D01*
X165528197Y-126641013D01*
X165415675Y-126516045D01*
X165415674Y-126516044D01*
X165411253Y-126511134D01*
X165256752Y-126398882D01*
X165250724Y-126396198D01*
X165250722Y-126396197D01*
X165088319Y-126323891D01*
X165088318Y-126323891D01*
X165082288Y-126321206D01*
X164988887Y-126301353D01*
X164901944Y-126282872D01*
X164901939Y-126282872D01*
X164895487Y-126281500D01*
X164704513Y-126281500D01*
X164698061Y-126282872D01*
X164698056Y-126282872D01*
X164611113Y-126301353D01*
X164517712Y-126321206D01*
X164511682Y-126323891D01*
X164511681Y-126323891D01*
X164349278Y-126396197D01*
X164349276Y-126396198D01*
X164343248Y-126398882D01*
X164188747Y-126511134D01*
X164184326Y-126516044D01*
X164184325Y-126516045D01*
X164071804Y-126641013D01*
X164060960Y-126653056D01*
X163965473Y-126818444D01*
X163906458Y-127000072D01*
X163886496Y-127190000D01*
X103508500Y-127190000D01*
X103508500Y-126000001D01*
X127086497Y-126000001D01*
X127106459Y-126189929D01*
X127165474Y-126371557D01*
X127260961Y-126536945D01*
X127265379Y-126541852D01*
X127265380Y-126541853D01*
X127361371Y-126648462D01*
X127388748Y-126678867D01*
X127543249Y-126791119D01*
X127549277Y-126793803D01*
X127549279Y-126793804D01*
X127711682Y-126866110D01*
X127717713Y-126868795D01*
X127811114Y-126888648D01*
X127898057Y-126907129D01*
X127898062Y-126907129D01*
X127904514Y-126908501D01*
X128095488Y-126908501D01*
X128101940Y-126907129D01*
X128101945Y-126907129D01*
X128188888Y-126888648D01*
X128282289Y-126868795D01*
X128288320Y-126866110D01*
X128450723Y-126793804D01*
X128450725Y-126793803D01*
X128456753Y-126791119D01*
X128611254Y-126678867D01*
X128612748Y-126680923D01*
X128666454Y-126655147D01*
X128686762Y-126653500D01*
X129091233Y-126653500D01*
X129102416Y-126654027D01*
X129109909Y-126655702D01*
X129117835Y-126655453D01*
X129117836Y-126655453D01*
X129177986Y-126653562D01*
X129181945Y-126653500D01*
X129209856Y-126653500D01*
X129213791Y-126653003D01*
X129213856Y-126652995D01*
X129225693Y-126652062D01*
X129257951Y-126651048D01*
X129261970Y-126650922D01*
X129269889Y-126650673D01*
X129289343Y-126645021D01*
X129308700Y-126641013D01*
X129320930Y-126639468D01*
X129320931Y-126639468D01*
X129328797Y-126638474D01*
X129336168Y-126635555D01*
X129336170Y-126635555D01*
X129369912Y-126622196D01*
X129381142Y-126618351D01*
X129415983Y-126608229D01*
X129415984Y-126608229D01*
X129423593Y-126606018D01*
X129430412Y-126601985D01*
X129430417Y-126601983D01*
X129441028Y-126595707D01*
X129458776Y-126587012D01*
X129477617Y-126579552D01*
X129513387Y-126553564D01*
X129523307Y-126547048D01*
X129554535Y-126528580D01*
X129554538Y-126528578D01*
X129561362Y-126524542D01*
X129575683Y-126510221D01*
X129590717Y-126497380D01*
X129600694Y-126490131D01*
X129607107Y-126485472D01*
X129635298Y-126451395D01*
X129643288Y-126442616D01*
X132597770Y-123488134D01*
X137441500Y-123488134D01*
X137448255Y-123550316D01*
X137499385Y-123686705D01*
X137586739Y-123803261D01*
X137703295Y-123890615D01*
X137839684Y-123941745D01*
X137901866Y-123948500D01*
X150998134Y-123948500D01*
X151060316Y-123941745D01*
X151196705Y-123890615D01*
X151313261Y-123803261D01*
X151400615Y-123686705D01*
X151451745Y-123550316D01*
X151458500Y-123488134D01*
X151458500Y-120654500D01*
X151478502Y-120586379D01*
X151532158Y-120539886D01*
X151584500Y-120528500D01*
X151625487Y-120528500D01*
X151631939Y-120527128D01*
X151631944Y-120527128D01*
X151718887Y-120508647D01*
X151812288Y-120488794D01*
X151888034Y-120455070D01*
X151980722Y-120413803D01*
X151980724Y-120413802D01*
X151986752Y-120411118D01*
X152141253Y-120298866D01*
X152201727Y-120231703D01*
X152264621Y-120161852D01*
X152264622Y-120161851D01*
X152269040Y-120156944D01*
X152350280Y-120016233D01*
X152361223Y-119997279D01*
X152361224Y-119997278D01*
X152364527Y-119991556D01*
X152423542Y-119809928D01*
X152426110Y-119785500D01*
X152442814Y-119626565D01*
X152443504Y-119620000D01*
X152423542Y-119430072D01*
X152398092Y-119351745D01*
X152384020Y-119308436D01*
X152381992Y-119237469D01*
X152418655Y-119176671D01*
X152482367Y-119145345D01*
X152503853Y-119143500D01*
X154751233Y-119143500D01*
X154762416Y-119144027D01*
X154769909Y-119145702D01*
X154777835Y-119145453D01*
X154777836Y-119145453D01*
X154837986Y-119143562D01*
X154841945Y-119143500D01*
X154869856Y-119143500D01*
X154873791Y-119143003D01*
X154873856Y-119142995D01*
X154885693Y-119142062D01*
X154917951Y-119141048D01*
X154921970Y-119140922D01*
X154929889Y-119140673D01*
X154949343Y-119135021D01*
X154968700Y-119131013D01*
X154980930Y-119129468D01*
X154980931Y-119129468D01*
X154988797Y-119128474D01*
X154996168Y-119125555D01*
X154996170Y-119125555D01*
X155029912Y-119112196D01*
X155041142Y-119108351D01*
X155075983Y-119098229D01*
X155075984Y-119098229D01*
X155083593Y-119096018D01*
X155090412Y-119091985D01*
X155090417Y-119091983D01*
X155101028Y-119085707D01*
X155118776Y-119077012D01*
X155137617Y-119069552D01*
X155173387Y-119043564D01*
X155183307Y-119037048D01*
X155214535Y-119018580D01*
X155214538Y-119018578D01*
X155221362Y-119014542D01*
X155235683Y-119000221D01*
X155250717Y-118987380D01*
X155260694Y-118980131D01*
X155267107Y-118975472D01*
X155295298Y-118941395D01*
X155303288Y-118932616D01*
X156292247Y-117943657D01*
X156300537Y-117936113D01*
X156307018Y-117932000D01*
X156353659Y-117882332D01*
X156356413Y-117879491D01*
X156376135Y-117859769D01*
X156378612Y-117856576D01*
X156386317Y-117847555D01*
X156411159Y-117821100D01*
X156416586Y-117815321D01*
X156422923Y-117803794D01*
X156426346Y-117797568D01*
X156437202Y-117781041D01*
X156444757Y-117771302D01*
X156444758Y-117771300D01*
X156449614Y-117765040D01*
X156467174Y-117724460D01*
X156472391Y-117713812D01*
X156489875Y-117682009D01*
X156489876Y-117682007D01*
X156493695Y-117675060D01*
X156498733Y-117655437D01*
X156505137Y-117636734D01*
X156510033Y-117625420D01*
X156510033Y-117625419D01*
X156513181Y-117618145D01*
X156514420Y-117610322D01*
X156514423Y-117610312D01*
X156520099Y-117574476D01*
X156522505Y-117562856D01*
X156531528Y-117527711D01*
X156531528Y-117527710D01*
X156533500Y-117520030D01*
X156533500Y-117499776D01*
X156535051Y-117480065D01*
X156536980Y-117467886D01*
X156538220Y-117460057D01*
X156537395Y-117451324D01*
X156534059Y-117416039D01*
X156533500Y-117404181D01*
X156533500Y-115929500D01*
X156553502Y-115861379D01*
X156607158Y-115814886D01*
X156659500Y-115803500D01*
X157290548Y-115803500D01*
X157301731Y-115804027D01*
X157309224Y-115805702D01*
X157317150Y-115805453D01*
X157317151Y-115805453D01*
X157377301Y-115803562D01*
X157381260Y-115803500D01*
X157409171Y-115803500D01*
X157413106Y-115803003D01*
X157413171Y-115802995D01*
X157425008Y-115802062D01*
X157457266Y-115801048D01*
X157461285Y-115800922D01*
X157469204Y-115800673D01*
X157488658Y-115795021D01*
X157508015Y-115791013D01*
X157520245Y-115789468D01*
X157520246Y-115789468D01*
X157528112Y-115788474D01*
X157535483Y-115785555D01*
X157535485Y-115785555D01*
X157569227Y-115772196D01*
X157580457Y-115768351D01*
X157615298Y-115758229D01*
X157615299Y-115758229D01*
X157622908Y-115756018D01*
X157629727Y-115751985D01*
X157629732Y-115751983D01*
X157640343Y-115745707D01*
X157658091Y-115737012D01*
X157676932Y-115729552D01*
X157683350Y-115724889D01*
X157687911Y-115722382D01*
X157757242Y-115707094D01*
X157823832Y-115731716D01*
X157848568Y-115756089D01*
X157913843Y-115841157D01*
X157920393Y-115846183D01*
X157920394Y-115846184D01*
X157940197Y-115861379D01*
X158035733Y-115934686D01*
X158177676Y-115993481D01*
X158191098Y-115995248D01*
X158287669Y-116007962D01*
X158287670Y-116007962D01*
X158291756Y-116008500D01*
X158425111Y-116008500D01*
X158493232Y-116028502D01*
X158512903Y-116044870D01*
X158514528Y-116047107D01*
X158520634Y-116052159D01*
X158523035Y-116054715D01*
X158555087Y-116118064D01*
X158556184Y-116130033D01*
X158556496Y-116130000D01*
X158570503Y-116263265D01*
X158576458Y-116319928D01*
X158635473Y-116501556D01*
X158638776Y-116507278D01*
X158638777Y-116507279D01*
X158663364Y-116549865D01*
X158730960Y-116666944D01*
X158735378Y-116671851D01*
X158735379Y-116671852D01*
X158838824Y-116786739D01*
X158858747Y-116808866D01*
X159013248Y-116921118D01*
X159019276Y-116923802D01*
X159019278Y-116923803D01*
X159144471Y-116979542D01*
X159187712Y-116998794D01*
X159331699Y-117029400D01*
X159394171Y-117063127D01*
X159428493Y-117125277D01*
X159431501Y-117152646D01*
X159431501Y-117301634D01*
X159431764Y-117304492D01*
X159431764Y-117304501D01*
X159434472Y-117333971D01*
X159438247Y-117375062D01*
X159440246Y-117381440D01*
X159440246Y-117381441D01*
X159486126Y-117527842D01*
X159489528Y-117538699D01*
X159578361Y-117685381D01*
X159699619Y-117806639D01*
X159846301Y-117895472D01*
X159853548Y-117897743D01*
X159853550Y-117897744D01*
X159919836Y-117918517D01*
X160009938Y-117946753D01*
X160083365Y-117953500D01*
X160086263Y-117953500D01*
X160340665Y-117953499D01*
X160596634Y-117953499D01*
X160599492Y-117953236D01*
X160599501Y-117953236D01*
X160635004Y-117949974D01*
X160670062Y-117946753D01*
X160678030Y-117944256D01*
X160826450Y-117897744D01*
X160826452Y-117897743D01*
X160833699Y-117895472D01*
X160980381Y-117806639D01*
X161076259Y-117710761D01*
X161138571Y-117676735D01*
X161209386Y-117681800D01*
X161254449Y-117710761D01*
X161344557Y-117800869D01*
X161356426Y-117810176D01*
X161490012Y-117891079D01*
X161503757Y-117897285D01*
X161653644Y-117944256D01*
X161666694Y-117946869D01*
X161721586Y-117951913D01*
X161733124Y-117948525D01*
X161734329Y-117947135D01*
X161736000Y-117939452D01*
X161736000Y-117934884D01*
X162244000Y-117934884D01*
X162248475Y-117950123D01*
X162249865Y-117951328D01*
X162254294Y-117952291D01*
X162313315Y-117946868D01*
X162326351Y-117944257D01*
X162476243Y-117897285D01*
X162489988Y-117891079D01*
X162623574Y-117810176D01*
X162635443Y-117800869D01*
X162745869Y-117690443D01*
X162755176Y-117678574D01*
X162836079Y-117544988D01*
X162842285Y-117531243D01*
X162889256Y-117381356D01*
X162891869Y-117368306D01*
X162897734Y-117304479D01*
X162898000Y-117298691D01*
X162898000Y-117242115D01*
X162893525Y-117226876D01*
X162892135Y-117225671D01*
X162884452Y-117224000D01*
X162262115Y-117224000D01*
X162246876Y-117228475D01*
X162245671Y-117229865D01*
X162244000Y-117237548D01*
X162244000Y-117934884D01*
X161736000Y-117934884D01*
X161736000Y-116842000D01*
X161756002Y-116773879D01*
X161809658Y-116727386D01*
X161862000Y-116716000D01*
X162879884Y-116716000D01*
X162895123Y-116711525D01*
X162896328Y-116710135D01*
X162897999Y-116702452D01*
X162897999Y-116641295D01*
X162897736Y-116635546D01*
X162891868Y-116571685D01*
X162889257Y-116558649D01*
X162842285Y-116408757D01*
X162836079Y-116395012D01*
X162755176Y-116261426D01*
X162745869Y-116249557D01*
X162719907Y-116223595D01*
X162685881Y-116161283D01*
X162690946Y-116090468D01*
X162733493Y-116033632D01*
X162800013Y-116008821D01*
X162809002Y-116008500D01*
X164068244Y-116008500D01*
X164072330Y-116007962D01*
X164072331Y-116007962D01*
X164168902Y-115995248D01*
X164182324Y-115993481D01*
X164189951Y-115990322D01*
X164189954Y-115990321D01*
X164255282Y-115963261D01*
X164324268Y-115934686D01*
X164446157Y-115841157D01*
X164466316Y-115814886D01*
X164507569Y-115761123D01*
X164539686Y-115719267D01*
X164598481Y-115577324D01*
X164612681Y-115469468D01*
X164612962Y-115467331D01*
X164612962Y-115467330D01*
X164613500Y-115463244D01*
X164613500Y-115236756D01*
X164598481Y-115122676D01*
X164600026Y-115122473D01*
X164600026Y-115077527D01*
X164598481Y-115077324D01*
X164612962Y-114967331D01*
X164612962Y-114967330D01*
X164613500Y-114963244D01*
X164613500Y-114736756D01*
X164601556Y-114646029D01*
X164598481Y-114622676D01*
X164600026Y-114622473D01*
X164600026Y-114577527D01*
X164598481Y-114577324D01*
X164612962Y-114467331D01*
X164612962Y-114467330D01*
X164613500Y-114463244D01*
X164613500Y-114236756D01*
X164598481Y-114122676D01*
X164600026Y-114122473D01*
X164600026Y-114077527D01*
X164598481Y-114077324D01*
X164612962Y-113967331D01*
X164612962Y-113967330D01*
X164613500Y-113963244D01*
X164613500Y-113736756D01*
X164598481Y-113622676D01*
X164600026Y-113622473D01*
X164600026Y-113577527D01*
X164598481Y-113577324D01*
X164612962Y-113467331D01*
X164612962Y-113467330D01*
X164613500Y-113463244D01*
X164613500Y-113236756D01*
X164598481Y-113122676D01*
X164591160Y-113105000D01*
X164542846Y-112988362D01*
X164539686Y-112980732D01*
X164446157Y-112858843D01*
X164426510Y-112843767D01*
X164330818Y-112770341D01*
X164324267Y-112765314D01*
X164182324Y-112706519D01*
X164155926Y-112703044D01*
X164091000Y-112674323D01*
X164051907Y-112615058D01*
X164051062Y-112544066D01*
X164088731Y-112483887D01*
X164106068Y-112470978D01*
X164109304Y-112468976D01*
X164134348Y-112453478D01*
X164259305Y-112328303D01*
X164261906Y-112324084D01*
X164319030Y-112283583D01*
X164389953Y-112280351D01*
X164451365Y-112315976D01*
X164457922Y-112323530D01*
X164461522Y-112329348D01*
X164586697Y-112454305D01*
X164592927Y-112458145D01*
X164592928Y-112458146D01*
X164730090Y-112542694D01*
X164737262Y-112547115D01*
X164799285Y-112567687D01*
X164898611Y-112600632D01*
X164898613Y-112600632D01*
X164905139Y-112602797D01*
X164911975Y-112603497D01*
X164911978Y-112603498D01*
X164955031Y-112607909D01*
X165009600Y-112613500D01*
X165610400Y-112613500D01*
X165613646Y-112613163D01*
X165613650Y-112613163D01*
X165709308Y-112603238D01*
X165709312Y-112603237D01*
X165716166Y-112602526D01*
X165722702Y-112600345D01*
X165722704Y-112600345D01*
X165875014Y-112549530D01*
X165883946Y-112546550D01*
X166034348Y-112453478D01*
X166159305Y-112328303D01*
X166177185Y-112299297D01*
X166248275Y-112183968D01*
X166248276Y-112183966D01*
X166252115Y-112177738D01*
X166286848Y-112073022D01*
X166305632Y-112016389D01*
X166305632Y-112016387D01*
X166307797Y-112009861D01*
X166311658Y-111972183D01*
X166314795Y-111941556D01*
X166318500Y-111905400D01*
X166318500Y-110854600D01*
X166315965Y-110830166D01*
X166308238Y-110755692D01*
X166308237Y-110755688D01*
X166307526Y-110748834D01*
X166273229Y-110646032D01*
X166253868Y-110588002D01*
X166251550Y-110581054D01*
X166158478Y-110430652D01*
X166033303Y-110305695D01*
X165993455Y-110281132D01*
X165888968Y-110216725D01*
X165888966Y-110216724D01*
X165882738Y-110212885D01*
X165753787Y-110170114D01*
X165721389Y-110159368D01*
X165721387Y-110159368D01*
X165714861Y-110157203D01*
X165708025Y-110156503D01*
X165708022Y-110156502D01*
X165664969Y-110152091D01*
X165610400Y-110146500D01*
X165024595Y-110146500D01*
X164956474Y-110126498D01*
X164935500Y-110109595D01*
X164619500Y-109793595D01*
X164585474Y-109731283D01*
X164590539Y-109660468D01*
X164633086Y-109603632D01*
X164699606Y-109578821D01*
X164708595Y-109578500D01*
X166975500Y-109578500D01*
X167043621Y-109598502D01*
X167090114Y-109652158D01*
X167101500Y-109704500D01*
X167101500Y-119835500D01*
X167081498Y-119903621D01*
X167027842Y-119950114D01*
X166975500Y-119961500D01*
X161451866Y-119961500D01*
X161389684Y-119968255D01*
X161253295Y-120019385D01*
X161136739Y-120106739D01*
X161049385Y-120223295D01*
X160998255Y-120359684D01*
X160991500Y-120421866D01*
X160991500Y-123518134D01*
X160998255Y-123580316D01*
X161049385Y-123716705D01*
X161136739Y-123833261D01*
X161253295Y-123920615D01*
X161389684Y-123971745D01*
X161451866Y-123978500D01*
X174548134Y-123978500D01*
X174610316Y-123971745D01*
X174746705Y-123920615D01*
X174863261Y-123833261D01*
X174888189Y-123800000D01*
X177286496Y-123800000D01*
X177287186Y-123806565D01*
X177304637Y-123972598D01*
X177306458Y-123989928D01*
X177365473Y-124171556D01*
X177460960Y-124336944D01*
X177588747Y-124478866D01*
X177743248Y-124591118D01*
X177749276Y-124593802D01*
X177749278Y-124593803D01*
X177911681Y-124666109D01*
X177917712Y-124668794D01*
X178011112Y-124688647D01*
X178098056Y-124707128D01*
X178098061Y-124707128D01*
X178104513Y-124708500D01*
X178295487Y-124708500D01*
X178301939Y-124707128D01*
X178301944Y-124707128D01*
X178388888Y-124688647D01*
X178482288Y-124668794D01*
X178488319Y-124666109D01*
X178650722Y-124593803D01*
X178650724Y-124593802D01*
X178656752Y-124591118D01*
X178811253Y-124478866D01*
X178939040Y-124336944D01*
X179034527Y-124171556D01*
X179093542Y-123989928D01*
X179095364Y-123972598D01*
X179112814Y-123806565D01*
X179113504Y-123800000D01*
X179105505Y-123723891D01*
X179094232Y-123616635D01*
X179094232Y-123616633D01*
X179093542Y-123610072D01*
X179034527Y-123428444D01*
X178939040Y-123263056D01*
X178891331Y-123210069D01*
X178815675Y-123126045D01*
X178815674Y-123126044D01*
X178811253Y-123121134D01*
X178656752Y-123008882D01*
X178650724Y-123006198D01*
X178650722Y-123006197D01*
X178488319Y-122933891D01*
X178488318Y-122933891D01*
X178482288Y-122931206D01*
X178388887Y-122911353D01*
X178301944Y-122892872D01*
X178301939Y-122892872D01*
X178295487Y-122891500D01*
X178104513Y-122891500D01*
X178098061Y-122892872D01*
X178098056Y-122892872D01*
X178011113Y-122911353D01*
X177917712Y-122931206D01*
X177911682Y-122933891D01*
X177911681Y-122933891D01*
X177749278Y-123006197D01*
X177749276Y-123006198D01*
X177743248Y-123008882D01*
X177588747Y-123121134D01*
X177584326Y-123126044D01*
X177584325Y-123126045D01*
X177508670Y-123210069D01*
X177460960Y-123263056D01*
X177365473Y-123428444D01*
X177306458Y-123610072D01*
X177305768Y-123616633D01*
X177305768Y-123616635D01*
X177294495Y-123723891D01*
X177286496Y-123800000D01*
X174888189Y-123800000D01*
X174950615Y-123716705D01*
X175001745Y-123580316D01*
X175008500Y-123518134D01*
X175008500Y-121620000D01*
X177206496Y-121620000D01*
X177226458Y-121809928D01*
X177285473Y-121991556D01*
X177380960Y-122156944D01*
X177385378Y-122161851D01*
X177385379Y-122161852D01*
X177504325Y-122293955D01*
X177508747Y-122298866D01*
X177607843Y-122370864D01*
X177639799Y-122394081D01*
X177663248Y-122411118D01*
X177669276Y-122413802D01*
X177669278Y-122413803D01*
X177831681Y-122486109D01*
X177837712Y-122488794D01*
X177931113Y-122508647D01*
X178018056Y-122527128D01*
X178018061Y-122527128D01*
X178024513Y-122528500D01*
X178215487Y-122528500D01*
X178221939Y-122527128D01*
X178221944Y-122527128D01*
X178308887Y-122508647D01*
X178402288Y-122488794D01*
X178408319Y-122486109D01*
X178570722Y-122413803D01*
X178570724Y-122413802D01*
X178576752Y-122411118D01*
X178600202Y-122394081D01*
X178632157Y-122370864D01*
X178731253Y-122298866D01*
X178735675Y-122293955D01*
X178854621Y-122161852D01*
X178854622Y-122161851D01*
X178859040Y-122156944D01*
X178954527Y-121991556D01*
X179013542Y-121809928D01*
X179033504Y-121620000D01*
X179032814Y-121613435D01*
X179014232Y-121436635D01*
X179014232Y-121436633D01*
X179013542Y-121430072D01*
X178954527Y-121248444D01*
X178945742Y-121233227D01*
X178912165Y-121175071D01*
X178859040Y-121083056D01*
X178804315Y-121022277D01*
X178735675Y-120946045D01*
X178735674Y-120946044D01*
X178731253Y-120941134D01*
X178576752Y-120828882D01*
X178570724Y-120826198D01*
X178570722Y-120826197D01*
X178408319Y-120753891D01*
X178408318Y-120753891D01*
X178402288Y-120751206D01*
X178308888Y-120731353D01*
X178221944Y-120712872D01*
X178221939Y-120712872D01*
X178215487Y-120711500D01*
X178024513Y-120711500D01*
X178018061Y-120712872D01*
X178018056Y-120712872D01*
X177931112Y-120731353D01*
X177837712Y-120751206D01*
X177831682Y-120753891D01*
X177831681Y-120753891D01*
X177669278Y-120826197D01*
X177669276Y-120826198D01*
X177663248Y-120828882D01*
X177508747Y-120941134D01*
X177504326Y-120946044D01*
X177504325Y-120946045D01*
X177435686Y-121022277D01*
X177380960Y-121083056D01*
X177327835Y-121175071D01*
X177294259Y-121233227D01*
X177285473Y-121248444D01*
X177226458Y-121430072D01*
X177225768Y-121436633D01*
X177225768Y-121436635D01*
X177207186Y-121613435D01*
X177206496Y-121620000D01*
X175008500Y-121620000D01*
X175008500Y-120421866D01*
X175001745Y-120359684D01*
X174950615Y-120223295D01*
X174863261Y-120106739D01*
X174746705Y-120019385D01*
X174610316Y-119968255D01*
X174548134Y-119961500D01*
X168744500Y-119961500D01*
X168676379Y-119941498D01*
X168629886Y-119887842D01*
X168618500Y-119835500D01*
X168618500Y-114606181D01*
X177361869Y-114606181D01*
X177362777Y-114627836D01*
X177376542Y-114956258D01*
X177397285Y-115090250D01*
X177423832Y-115261736D01*
X177430145Y-115302518D01*
X177431067Y-115305910D01*
X177431067Y-115305912D01*
X177448884Y-115371490D01*
X177522012Y-115640645D01*
X177523302Y-115643904D01*
X177523304Y-115643909D01*
X177606443Y-115853891D01*
X177650998Y-115966424D01*
X177652653Y-115969536D01*
X177652655Y-115969541D01*
X177710896Y-116079077D01*
X177815493Y-116275795D01*
X177817483Y-116278701D01*
X177817484Y-116278703D01*
X178009007Y-116558414D01*
X178013449Y-116564902D01*
X178242397Y-116830142D01*
X178499485Y-117068207D01*
X178502311Y-117070290D01*
X178502314Y-117070293D01*
X178597503Y-117140472D01*
X178781507Y-117276132D01*
X178784544Y-117277886D01*
X178784548Y-117277888D01*
X178917913Y-117354886D01*
X179084949Y-117451324D01*
X179140286Y-117475500D01*
X179402807Y-117590193D01*
X179402817Y-117590197D01*
X179406029Y-117591600D01*
X179409387Y-117592639D01*
X179409391Y-117592641D01*
X179597326Y-117650817D01*
X179740743Y-117695212D01*
X179812147Y-117708833D01*
X180081471Y-117760210D01*
X180081477Y-117760211D01*
X180084922Y-117760868D01*
X180316253Y-117778668D01*
X180430777Y-117787480D01*
X180430778Y-117787480D01*
X180434274Y-117787749D01*
X180666291Y-117779646D01*
X180780929Y-117775643D01*
X180780933Y-117775643D01*
X180784445Y-117775520D01*
X180787924Y-117775006D01*
X180787927Y-117775006D01*
X181127578Y-117724851D01*
X181127584Y-117724850D01*
X181131070Y-117724335D01*
X181134474Y-117723436D01*
X181134477Y-117723435D01*
X181466439Y-117635727D01*
X181466440Y-117635727D01*
X181469830Y-117634831D01*
X181796502Y-117508123D01*
X182107014Y-117345792D01*
X182267492Y-117237548D01*
X182394580Y-117151826D01*
X182394582Y-117151825D01*
X182397496Y-117149859D01*
X182406570Y-117142137D01*
X182661654Y-116925043D01*
X182661655Y-116925042D01*
X182664327Y-116922768D01*
X182710144Y-116873978D01*
X182901771Y-116669916D01*
X182901775Y-116669911D01*
X182904182Y-116667348D01*
X183114071Y-116386785D01*
X183149613Y-116326206D01*
X183207340Y-116227811D01*
X183291377Y-116084573D01*
X183313003Y-116036000D01*
X183432459Y-115767698D01*
X183432461Y-115767693D01*
X183433891Y-115764481D01*
X183539837Y-115430498D01*
X183607894Y-115086786D01*
X183622297Y-114915268D01*
X183637030Y-114739814D01*
X183637031Y-114739803D01*
X183637213Y-114737630D01*
X183637283Y-114732669D01*
X183638407Y-114652178D01*
X183638407Y-114652166D01*
X183638437Y-114650000D01*
X183638013Y-114642402D01*
X183623619Y-114384962D01*
X183618878Y-114300162D01*
X183613253Y-114266906D01*
X183561032Y-113958153D01*
X183561031Y-113958148D01*
X183560445Y-113954684D01*
X183463866Y-113617873D01*
X183394545Y-113449688D01*
X183331683Y-113297171D01*
X183331679Y-113297163D01*
X183330345Y-113293926D01*
X183161546Y-112986882D01*
X182959573Y-112700567D01*
X182852307Y-112579751D01*
X182729274Y-112441175D01*
X182729270Y-112441171D01*
X182726943Y-112438550D01*
X182724342Y-112436208D01*
X182724337Y-112436203D01*
X182469167Y-112206447D01*
X182469166Y-112206447D01*
X182466557Y-112204097D01*
X182462966Y-112201526D01*
X182184513Y-112002173D01*
X182184510Y-112002171D01*
X182181659Y-112000130D01*
X181875800Y-111829192D01*
X181552794Y-111693412D01*
X181549425Y-111692421D01*
X181549421Y-111692419D01*
X181401053Y-111648752D01*
X181216665Y-111594484D01*
X180940895Y-111545858D01*
X180875063Y-111534250D01*
X180875061Y-111534250D01*
X180871603Y-111533640D01*
X180868094Y-111533419D01*
X180868092Y-111533419D01*
X180525428Y-111511860D01*
X180525422Y-111511860D01*
X180521910Y-111511639D01*
X180424516Y-111516403D01*
X180175451Y-111528584D01*
X180175443Y-111528585D01*
X180171944Y-111528756D01*
X180168476Y-111529318D01*
X180168473Y-111529318D01*
X179829542Y-111584213D01*
X179829539Y-111584214D01*
X179826067Y-111584776D01*
X179822684Y-111585721D01*
X179822682Y-111585721D01*
X179787747Y-111595475D01*
X179488589Y-111679001D01*
X179485341Y-111680313D01*
X179485333Y-111680316D01*
X179166983Y-111808938D01*
X179166979Y-111808940D01*
X179163719Y-111810257D01*
X179160632Y-111811926D01*
X179160628Y-111811928D01*
X179070835Y-111860479D01*
X178855503Y-111976909D01*
X178567785Y-112176878D01*
X178565143Y-112179191D01*
X178565139Y-112179194D01*
X178359064Y-112359600D01*
X178304151Y-112407673D01*
X178067886Y-112666416D01*
X177861935Y-112949883D01*
X177860193Y-112952949D01*
X177860192Y-112952951D01*
X177854144Y-112963598D01*
X177688865Y-113254541D01*
X177632976Y-113384940D01*
X177560690Y-113553596D01*
X177550834Y-113576591D01*
X177528708Y-113649875D01*
X177486498Y-113789684D01*
X177449562Y-113912021D01*
X177440175Y-113963166D01*
X177387752Y-114248801D01*
X177386311Y-114256650D01*
X177361869Y-114606181D01*
X168618500Y-114606181D01*
X168618500Y-109704500D01*
X168638502Y-109636379D01*
X168692158Y-109589886D01*
X168744500Y-109578500D01*
X174408134Y-109578500D01*
X174470316Y-109571745D01*
X174606705Y-109520615D01*
X174723261Y-109433261D01*
X174810615Y-109316705D01*
X174861745Y-109180316D01*
X174868500Y-109118134D01*
X174868500Y-106021866D01*
X174861745Y-105959684D01*
X174810615Y-105823295D01*
X174723261Y-105706739D01*
X174606705Y-105619385D01*
X174470316Y-105568255D01*
X174408134Y-105561500D01*
X161311866Y-105561500D01*
X161249684Y-105568255D01*
X161113295Y-105619385D01*
X160996739Y-105706739D01*
X160909385Y-105823295D01*
X160858255Y-105959684D01*
X160851500Y-106021866D01*
X160851500Y-108935441D01*
X160831498Y-109003562D01*
X160777842Y-109050055D01*
X160707568Y-109060159D01*
X160699302Y-109058687D01*
X160671951Y-109052873D01*
X160671942Y-109052872D01*
X160665487Y-109051500D01*
X160474513Y-109051500D01*
X160468061Y-109052872D01*
X160468056Y-109052872D01*
X160381112Y-109071353D01*
X160287712Y-109091206D01*
X160281682Y-109093891D01*
X160281681Y-109093891D01*
X160119278Y-109166197D01*
X160119276Y-109166198D01*
X160113248Y-109168882D01*
X160107907Y-109172762D01*
X160107906Y-109172763D01*
X159980329Y-109265454D01*
X159958747Y-109281134D01*
X159954332Y-109286037D01*
X159949420Y-109290460D01*
X159948295Y-109289211D01*
X159894986Y-109322051D01*
X159861800Y-109326500D01*
X158438763Y-109326500D01*
X158427579Y-109325973D01*
X158420091Y-109324299D01*
X158412168Y-109324548D01*
X158352033Y-109326438D01*
X158348075Y-109326500D01*
X158320144Y-109326500D01*
X158316229Y-109326995D01*
X158316225Y-109326995D01*
X158316167Y-109327003D01*
X158316138Y-109327006D01*
X158304296Y-109327939D01*
X158260110Y-109329327D01*
X158242744Y-109334372D01*
X158240658Y-109334978D01*
X158221306Y-109338986D01*
X158209068Y-109340532D01*
X158209066Y-109340533D01*
X158201203Y-109341526D01*
X158160086Y-109357806D01*
X158148885Y-109361641D01*
X158106406Y-109373982D01*
X158099587Y-109378015D01*
X158099582Y-109378017D01*
X158088971Y-109384293D01*
X158071221Y-109392990D01*
X158052383Y-109400448D01*
X158017103Y-109426081D01*
X158016625Y-109426428D01*
X158006701Y-109432947D01*
X157975460Y-109451422D01*
X157975455Y-109451426D01*
X157968637Y-109455458D01*
X157954313Y-109469782D01*
X157939281Y-109482621D01*
X157922893Y-109494528D01*
X157894712Y-109528593D01*
X157886722Y-109537373D01*
X157244500Y-110179595D01*
X157182188Y-110213621D01*
X157155405Y-110216500D01*
X156849600Y-110216500D01*
X156846354Y-110216837D01*
X156846350Y-110216837D01*
X156750692Y-110226762D01*
X156750688Y-110226763D01*
X156743834Y-110227474D01*
X156737298Y-110229655D01*
X156737296Y-110229655D01*
X156605194Y-110273728D01*
X156576054Y-110283450D01*
X156425652Y-110376522D01*
X156300695Y-110501697D01*
X156296855Y-110507927D01*
X156296854Y-110507928D01*
X156244107Y-110593500D01*
X156207885Y-110652262D01*
X156191651Y-110701206D01*
X156160476Y-110795198D01*
X156152203Y-110820139D01*
X156151503Y-110826975D01*
X156151502Y-110826978D01*
X156148311Y-110858120D01*
X156141500Y-110924600D01*
X156141500Y-111975400D01*
X156141836Y-111978643D01*
X156141837Y-111978653D01*
X156148980Y-112047497D01*
X156136115Y-112117318D01*
X156087544Y-112169100D01*
X156023653Y-112186500D01*
X152448767Y-112186500D01*
X152437584Y-112185973D01*
X152430091Y-112184298D01*
X152422165Y-112184547D01*
X152422164Y-112184547D01*
X152362001Y-112186438D01*
X152358043Y-112186500D01*
X152330144Y-112186500D01*
X152326154Y-112187004D01*
X152314320Y-112187936D01*
X152270111Y-112189326D01*
X152262497Y-112191538D01*
X152262492Y-112191539D01*
X152250659Y-112194977D01*
X152231296Y-112198988D01*
X152211203Y-112201526D01*
X152203836Y-112204443D01*
X152203831Y-112204444D01*
X152170092Y-112217802D01*
X152158865Y-112221646D01*
X152116407Y-112233982D01*
X152109581Y-112238019D01*
X152098972Y-112244293D01*
X152081224Y-112252988D01*
X152062383Y-112260448D01*
X152055967Y-112265110D01*
X152055966Y-112265110D01*
X152026613Y-112286436D01*
X152016693Y-112292952D01*
X151985465Y-112311420D01*
X151985462Y-112311422D01*
X151978638Y-112315458D01*
X151964317Y-112329779D01*
X151949284Y-112342619D01*
X151932893Y-112354528D01*
X151927842Y-112360633D01*
X151927837Y-112360638D01*
X151904701Y-112388604D01*
X151896713Y-112397382D01*
X151177747Y-113116348D01*
X151169461Y-113123888D01*
X151162982Y-113128000D01*
X151157557Y-113133777D01*
X151116357Y-113177651D01*
X151113602Y-113180493D01*
X151093865Y-113200230D01*
X151091385Y-113203427D01*
X151083682Y-113212447D01*
X151053414Y-113244679D01*
X151049595Y-113251625D01*
X151049593Y-113251628D01*
X151043652Y-113262434D01*
X151032801Y-113278953D01*
X151020386Y-113294959D01*
X151017241Y-113302228D01*
X151017238Y-113302232D01*
X151002826Y-113335537D01*
X150997609Y-113346187D01*
X150976305Y-113384940D01*
X150974334Y-113392615D01*
X150974334Y-113392616D01*
X150971267Y-113404562D01*
X150964863Y-113423266D01*
X150956819Y-113441855D01*
X150955580Y-113449678D01*
X150955577Y-113449688D01*
X150949901Y-113485524D01*
X150947495Y-113497144D01*
X150938711Y-113531358D01*
X150936500Y-113539970D01*
X150936500Y-113560224D01*
X150934949Y-113579934D01*
X150931780Y-113599943D01*
X150932526Y-113607835D01*
X150935941Y-113643961D01*
X150936500Y-113655819D01*
X150936500Y-114095405D01*
X150916498Y-114163526D01*
X150899595Y-114184500D01*
X150728094Y-114356001D01*
X150665782Y-114390027D01*
X150594967Y-114384962D01*
X150538131Y-114342415D01*
X150513320Y-114275895D01*
X150512999Y-114266906D01*
X150512999Y-114262905D01*
X150512662Y-114256386D01*
X150502743Y-114160794D01*
X150499851Y-114147400D01*
X150448412Y-113993216D01*
X150442239Y-113980038D01*
X150356937Y-113842193D01*
X150347901Y-113830792D01*
X150233172Y-113716262D01*
X150224238Y-113709206D01*
X150183177Y-113651288D01*
X150179947Y-113580365D01*
X150215574Y-113518954D01*
X150223407Y-113512154D01*
X150229348Y-113508478D01*
X150354305Y-113383303D01*
X150373154Y-113352724D01*
X150443275Y-113238968D01*
X150443276Y-113238966D01*
X150447115Y-113232738D01*
X150485720Y-113116348D01*
X150500632Y-113071389D01*
X150500632Y-113071387D01*
X150502797Y-113064861D01*
X150513500Y-112960400D01*
X150513500Y-112359600D01*
X150512610Y-112351018D01*
X150503238Y-112260692D01*
X150503237Y-112260688D01*
X150502526Y-112253834D01*
X150498175Y-112240791D01*
X150448868Y-112093002D01*
X150446550Y-112086054D01*
X150353478Y-111935652D01*
X150228303Y-111810695D01*
X150101748Y-111732685D01*
X150083968Y-111721725D01*
X150083966Y-111721724D01*
X150077738Y-111717885D01*
X149994083Y-111690138D01*
X149916389Y-111664368D01*
X149916387Y-111664368D01*
X149909861Y-111662203D01*
X149903025Y-111661503D01*
X149903022Y-111661502D01*
X149859969Y-111657091D01*
X149805400Y-111651500D01*
X148754600Y-111651500D01*
X148751354Y-111651837D01*
X148751350Y-111651837D01*
X148655692Y-111661762D01*
X148655688Y-111661763D01*
X148648834Y-111662474D01*
X148642298Y-111664655D01*
X148642296Y-111664655D01*
X148595355Y-111680316D01*
X148481054Y-111718450D01*
X148330652Y-111811522D01*
X148205695Y-111936697D01*
X148197960Y-111949245D01*
X148187251Y-111966618D01*
X148134478Y-112014110D01*
X148079992Y-112026500D01*
X147998767Y-112026500D01*
X147987584Y-112025973D01*
X147980091Y-112024298D01*
X147972165Y-112024547D01*
X147972164Y-112024547D01*
X147912014Y-112026438D01*
X147908055Y-112026500D01*
X147880144Y-112026500D01*
X147876210Y-112026997D01*
X147876209Y-112026997D01*
X147876144Y-112027005D01*
X147864307Y-112027938D01*
X147832049Y-112028952D01*
X147828030Y-112029078D01*
X147820111Y-112029327D01*
X147800657Y-112034979D01*
X147781300Y-112038987D01*
X147769070Y-112040532D01*
X147769069Y-112040532D01*
X147761203Y-112041526D01*
X147753832Y-112044445D01*
X147753830Y-112044445D01*
X147720088Y-112057804D01*
X147708858Y-112061649D01*
X147674017Y-112071771D01*
X147674016Y-112071771D01*
X147666407Y-112073982D01*
X147659588Y-112078015D01*
X147659583Y-112078017D01*
X147648972Y-112084293D01*
X147631224Y-112092988D01*
X147612383Y-112100448D01*
X147605967Y-112105110D01*
X147605966Y-112105110D01*
X147576613Y-112126436D01*
X147566693Y-112132952D01*
X147535465Y-112151420D01*
X147535462Y-112151422D01*
X147528638Y-112155458D01*
X147523028Y-112161068D01*
X147516772Y-112165921D01*
X147515625Y-112164442D01*
X147462189Y-112193621D01*
X147435406Y-112196500D01*
X147379513Y-112196500D01*
X147373061Y-112197872D01*
X147373056Y-112197872D01*
X147286113Y-112216353D01*
X147192712Y-112236206D01*
X147186682Y-112238891D01*
X147186681Y-112238891D01*
X147024278Y-112311197D01*
X147024276Y-112311198D01*
X147018248Y-112313882D01*
X147012907Y-112317762D01*
X147012906Y-112317763D01*
X146989841Y-112334521D01*
X146863747Y-112426134D01*
X146859326Y-112431044D01*
X146859325Y-112431045D01*
X146757561Y-112544066D01*
X146735960Y-112568056D01*
X146692177Y-112643891D01*
X146646658Y-112722732D01*
X146640473Y-112733444D01*
X146581458Y-112915072D01*
X146580768Y-112921633D01*
X146580768Y-112921635D01*
X146564093Y-113080292D01*
X146537080Y-113145949D01*
X146527879Y-113156217D01*
X146331371Y-113352724D01*
X146137742Y-113546353D01*
X146129463Y-113553887D01*
X146122982Y-113558000D01*
X146083595Y-113599943D01*
X146076357Y-113607651D01*
X146073602Y-113610493D01*
X146054500Y-113629595D01*
X145992188Y-113663621D01*
X145965405Y-113666500D01*
X145496866Y-113666500D01*
X145434684Y-113673255D01*
X145418730Y-113679236D01*
X145347923Y-113684419D01*
X145285554Y-113650499D01*
X145251425Y-113588243D01*
X145248500Y-113561254D01*
X145248500Y-109704500D01*
X145268502Y-109636379D01*
X145322158Y-109589886D01*
X145374500Y-109578500D01*
X151038134Y-109578500D01*
X151100316Y-109571745D01*
X151236705Y-109520615D01*
X151353261Y-109433261D01*
X151440615Y-109316705D01*
X151491745Y-109180316D01*
X151498500Y-109118134D01*
X151498500Y-106021866D01*
X151491745Y-105959684D01*
X151440615Y-105823295D01*
X151353261Y-105706739D01*
X151236705Y-105619385D01*
X151100316Y-105568255D01*
X151038134Y-105561500D01*
X137941866Y-105561500D01*
X137879684Y-105568255D01*
X137743295Y-105619385D01*
X137626739Y-105706739D01*
X137539385Y-105823295D01*
X137488255Y-105959684D01*
X137481500Y-106021866D01*
X137481500Y-109118134D01*
X137488255Y-109180316D01*
X137539385Y-109316705D01*
X137626739Y-109433261D01*
X137743295Y-109520615D01*
X137879684Y-109571745D01*
X137941866Y-109578500D01*
X143605500Y-109578500D01*
X143673621Y-109598502D01*
X143720114Y-109652158D01*
X143731500Y-109704500D01*
X143731500Y-119805500D01*
X143711498Y-119873621D01*
X143657842Y-119920114D01*
X143605500Y-119931500D01*
X137901866Y-119931500D01*
X137839684Y-119938255D01*
X137703295Y-119989385D01*
X137586739Y-120076739D01*
X137499385Y-120193295D01*
X137448255Y-120329684D01*
X137441500Y-120391866D01*
X137441500Y-123488134D01*
X132597770Y-123488134D01*
X137200499Y-118885405D01*
X137262811Y-118851379D01*
X137289594Y-118848500D01*
X137563614Y-118848499D01*
X137581634Y-118848499D01*
X137584492Y-118848236D01*
X137584501Y-118848236D01*
X137620004Y-118844974D01*
X137655062Y-118841753D01*
X137663030Y-118839256D01*
X137811450Y-118792744D01*
X137811452Y-118792743D01*
X137818699Y-118790472D01*
X137965381Y-118701639D01*
X138086639Y-118580381D01*
X138175472Y-118433699D01*
X138226753Y-118270062D01*
X138232796Y-118204294D01*
X138887709Y-118204294D01*
X138893132Y-118263315D01*
X138895743Y-118276351D01*
X138942715Y-118426243D01*
X138948921Y-118439988D01*
X139029824Y-118573574D01*
X139039131Y-118585443D01*
X139149557Y-118695869D01*
X139161426Y-118705176D01*
X139295012Y-118786079D01*
X139308757Y-118792285D01*
X139458644Y-118839256D01*
X139471694Y-118841869D01*
X139535521Y-118847734D01*
X139541309Y-118848000D01*
X139597885Y-118848000D01*
X139613124Y-118843525D01*
X139614329Y-118842135D01*
X139616000Y-118834452D01*
X139616000Y-118829884D01*
X140124000Y-118829884D01*
X140128475Y-118845123D01*
X140129865Y-118846328D01*
X140137548Y-118847999D01*
X140198705Y-118847999D01*
X140204454Y-118847736D01*
X140268315Y-118841868D01*
X140281351Y-118839257D01*
X140431243Y-118792285D01*
X140444988Y-118786079D01*
X140578574Y-118705176D01*
X140590443Y-118695869D01*
X140700869Y-118585443D01*
X140710176Y-118573574D01*
X140791079Y-118439988D01*
X140797285Y-118426243D01*
X140844256Y-118276356D01*
X140846869Y-118263306D01*
X140851913Y-118208414D01*
X140848525Y-118196876D01*
X140847135Y-118195671D01*
X140839452Y-118194000D01*
X140142115Y-118194000D01*
X140126876Y-118198475D01*
X140125671Y-118199865D01*
X140124000Y-118207548D01*
X140124000Y-118829884D01*
X139616000Y-118829884D01*
X139616000Y-118212115D01*
X139611525Y-118196876D01*
X139610135Y-118195671D01*
X139602452Y-118194000D01*
X138905116Y-118194000D01*
X138889877Y-118198475D01*
X138888672Y-118199865D01*
X138887709Y-118204294D01*
X138232796Y-118204294D01*
X138233500Y-118196635D01*
X138233499Y-117683366D01*
X138233234Y-117680474D01*
X138229040Y-117634831D01*
X138226753Y-117609938D01*
X138224012Y-117601192D01*
X138177744Y-117453550D01*
X138177743Y-117453548D01*
X138175472Y-117446301D01*
X138086639Y-117299619D01*
X137990761Y-117203741D01*
X137956735Y-117141429D01*
X137961800Y-117070614D01*
X137990761Y-117025551D01*
X138080869Y-116935443D01*
X138090176Y-116923574D01*
X138171079Y-116789988D01*
X138177285Y-116776243D01*
X138224256Y-116626356D01*
X138226869Y-116613306D01*
X138231913Y-116558414D01*
X138228525Y-116546876D01*
X138227135Y-116545671D01*
X138219452Y-116544000D01*
X136285116Y-116544000D01*
X136269877Y-116548475D01*
X136268672Y-116549865D01*
X136267709Y-116554294D01*
X136273132Y-116613315D01*
X136275743Y-116626351D01*
X136322715Y-116776243D01*
X136328921Y-116789988D01*
X136409824Y-116923574D01*
X136419131Y-116935443D01*
X136509239Y-117025551D01*
X136543265Y-117087863D01*
X136538200Y-117158678D01*
X136509239Y-117203741D01*
X136413361Y-117299619D01*
X136324528Y-117446301D01*
X136322257Y-117453548D01*
X136322256Y-117453550D01*
X136313947Y-117480065D01*
X136273247Y-117609938D01*
X136266500Y-117683365D01*
X136266501Y-117851885D01*
X136266501Y-117975405D01*
X136246499Y-118043525D01*
X136229596Y-118064500D01*
X128944500Y-125349595D01*
X128882188Y-125383621D01*
X128855405Y-125386500D01*
X128726208Y-125386500D01*
X128658087Y-125366498D01*
X128632572Y-125344811D01*
X128615669Y-125326038D01*
X128615667Y-125326037D01*
X128611254Y-125321135D01*
X128456753Y-125208883D01*
X128450725Y-125206199D01*
X128450723Y-125206198D01*
X128288320Y-125133892D01*
X128288319Y-125133892D01*
X128282289Y-125131207D01*
X128188889Y-125111354D01*
X128101945Y-125092873D01*
X128101940Y-125092873D01*
X128095488Y-125091501D01*
X127904514Y-125091501D01*
X127898062Y-125092873D01*
X127898057Y-125092873D01*
X127811113Y-125111354D01*
X127717713Y-125131207D01*
X127711683Y-125133892D01*
X127711682Y-125133892D01*
X127549279Y-125206198D01*
X127549277Y-125206199D01*
X127543249Y-125208883D01*
X127388748Y-125321135D01*
X127384327Y-125326045D01*
X127384326Y-125326046D01*
X127296169Y-125423955D01*
X127260961Y-125463057D01*
X127165474Y-125628445D01*
X127106459Y-125810073D01*
X127086497Y-126000001D01*
X103508500Y-126000001D01*
X103508500Y-124762542D01*
X104221500Y-124762542D01*
X104233022Y-124904200D01*
X104288890Y-125121794D01*
X104382409Y-125326055D01*
X104385609Y-125330659D01*
X104385610Y-125330661D01*
X104419454Y-125379356D01*
X104510620Y-125510527D01*
X104669473Y-125669380D01*
X104853945Y-125797591D01*
X105058206Y-125891110D01*
X105275800Y-125946978D01*
X105329705Y-125951362D01*
X105414908Y-125958293D01*
X105414918Y-125958293D01*
X105417458Y-125958500D01*
X107042542Y-125958500D01*
X107045082Y-125958293D01*
X107045092Y-125958293D01*
X107130295Y-125951362D01*
X107184200Y-125946978D01*
X107401794Y-125891110D01*
X107606055Y-125797591D01*
X107790527Y-125669380D01*
X107949380Y-125510527D01*
X108040546Y-125379356D01*
X108074390Y-125330661D01*
X108074391Y-125330659D01*
X108077591Y-125326055D01*
X108171110Y-125121794D01*
X108226978Y-124904200D01*
X108233478Y-124824285D01*
X108258936Y-124758010D01*
X108316185Y-124716020D01*
X108359063Y-124708500D01*
X109493629Y-124708500D01*
X109561750Y-124728502D01*
X109582724Y-124745405D01*
X109739875Y-124902556D01*
X109770613Y-124952714D01*
X109825473Y-125121556D01*
X109920960Y-125286944D01*
X109925378Y-125291851D01*
X109925379Y-125291852D01*
X110044325Y-125423955D01*
X110048747Y-125428866D01*
X110203248Y-125541118D01*
X110209276Y-125543802D01*
X110209278Y-125543803D01*
X110371681Y-125616109D01*
X110377712Y-125618794D01*
X110452685Y-125634730D01*
X110558056Y-125657128D01*
X110558061Y-125657128D01*
X110564513Y-125658500D01*
X110755487Y-125658500D01*
X110761939Y-125657128D01*
X110761944Y-125657128D01*
X110867315Y-125634730D01*
X110942288Y-125618794D01*
X110948319Y-125616109D01*
X111110722Y-125543803D01*
X111110724Y-125543802D01*
X111116752Y-125541118D01*
X111271253Y-125428866D01*
X111275675Y-125423955D01*
X111394621Y-125291852D01*
X111394622Y-125291851D01*
X111399040Y-125286944D01*
X111494527Y-125121556D01*
X111553542Y-124939928D01*
X111565697Y-124824285D01*
X111572814Y-124756565D01*
X111573504Y-124750000D01*
X111572814Y-124743435D01*
X111554232Y-124566635D01*
X111554232Y-124566633D01*
X111553542Y-124560072D01*
X111494527Y-124378444D01*
X111399040Y-124213056D01*
X111271253Y-124071134D01*
X111143246Y-123978131D01*
X111122094Y-123962763D01*
X111122093Y-123962762D01*
X111116752Y-123958882D01*
X111110724Y-123956198D01*
X111110722Y-123956197D01*
X110948319Y-123883891D01*
X110948318Y-123883891D01*
X110942288Y-123881206D01*
X110935833Y-123879834D01*
X110935824Y-123879831D01*
X110879228Y-123867801D01*
X110816331Y-123833650D01*
X110443770Y-123461089D01*
X110431384Y-123446677D01*
X110422851Y-123435082D01*
X110422846Y-123435077D01*
X110418508Y-123429182D01*
X110412930Y-123424443D01*
X110412927Y-123424440D01*
X110378232Y-123394965D01*
X110370716Y-123388035D01*
X110365021Y-123382340D01*
X110358880Y-123377482D01*
X110342749Y-123364719D01*
X110339345Y-123361928D01*
X110289297Y-123319409D01*
X110289295Y-123319408D01*
X110283715Y-123314667D01*
X110277199Y-123311339D01*
X110272150Y-123307972D01*
X110267021Y-123304805D01*
X110261284Y-123300266D01*
X110195125Y-123269345D01*
X110191225Y-123267439D01*
X110126192Y-123234231D01*
X110119084Y-123232492D01*
X110113441Y-123230393D01*
X110107678Y-123228476D01*
X110101050Y-123225378D01*
X110029583Y-123210513D01*
X110025299Y-123209543D01*
X109954390Y-123192192D01*
X109948788Y-123191844D01*
X109948785Y-123191844D01*
X109943236Y-123191500D01*
X109943238Y-123191464D01*
X109939245Y-123191225D01*
X109935053Y-123190851D01*
X109927885Y-123189360D01*
X109861675Y-123191151D01*
X109850479Y-123191454D01*
X109847072Y-123191500D01*
X108359063Y-123191500D01*
X108290942Y-123171498D01*
X108244449Y-123117842D01*
X108233478Y-123075715D01*
X108228042Y-123008882D01*
X108226978Y-122995800D01*
X108171110Y-122778206D01*
X108077591Y-122573945D01*
X107949380Y-122389473D01*
X107790527Y-122230620D01*
X107606055Y-122102409D01*
X107401794Y-122008890D01*
X107184200Y-121953022D01*
X107130295Y-121948638D01*
X107045092Y-121941707D01*
X107045082Y-121941707D01*
X107042542Y-121941500D01*
X105417458Y-121941500D01*
X105414918Y-121941707D01*
X105414908Y-121941707D01*
X105329705Y-121948638D01*
X105275800Y-121953022D01*
X105058206Y-122008890D01*
X104853945Y-122102409D01*
X104669473Y-122230620D01*
X104510620Y-122389473D01*
X104382409Y-122573945D01*
X104288890Y-122778206D01*
X104233022Y-122995800D01*
X104231958Y-123008882D01*
X104222828Y-123121134D01*
X104221500Y-123137458D01*
X104221500Y-124762542D01*
X103508500Y-124762542D01*
X103508500Y-114606181D01*
X105361869Y-114606181D01*
X105362777Y-114627836D01*
X105376542Y-114956258D01*
X105397285Y-115090250D01*
X105423832Y-115261736D01*
X105430145Y-115302518D01*
X105431067Y-115305910D01*
X105431067Y-115305912D01*
X105448884Y-115371490D01*
X105522012Y-115640645D01*
X105523302Y-115643904D01*
X105523304Y-115643909D01*
X105606443Y-115853891D01*
X105650998Y-115966424D01*
X105652653Y-115969536D01*
X105652655Y-115969541D01*
X105710896Y-116079077D01*
X105815493Y-116275795D01*
X105817483Y-116278701D01*
X105817484Y-116278703D01*
X106009007Y-116558414D01*
X106013449Y-116564902D01*
X106242397Y-116830142D01*
X106499485Y-117068207D01*
X106502311Y-117070290D01*
X106502314Y-117070293D01*
X106597503Y-117140472D01*
X106781507Y-117276132D01*
X106784544Y-117277886D01*
X106784548Y-117277888D01*
X106917913Y-117354886D01*
X107084949Y-117451324D01*
X107140286Y-117475500D01*
X107402807Y-117590193D01*
X107402817Y-117590197D01*
X107406029Y-117591600D01*
X107409387Y-117592639D01*
X107409391Y-117592641D01*
X107597326Y-117650817D01*
X107740743Y-117695212D01*
X107812147Y-117708833D01*
X108081471Y-117760210D01*
X108081477Y-117760211D01*
X108084922Y-117760868D01*
X108316253Y-117778668D01*
X108430777Y-117787480D01*
X108430778Y-117787480D01*
X108434274Y-117787749D01*
X108666291Y-117779646D01*
X108780929Y-117775643D01*
X108780933Y-117775643D01*
X108784445Y-117775520D01*
X108787924Y-117775006D01*
X108787927Y-117775006D01*
X109127578Y-117724851D01*
X109127584Y-117724850D01*
X109131070Y-117724335D01*
X109134474Y-117723436D01*
X109134477Y-117723435D01*
X109466439Y-117635727D01*
X109466440Y-117635727D01*
X109469830Y-117634831D01*
X109796502Y-117508123D01*
X110107014Y-117345792D01*
X110267492Y-117237548D01*
X110394580Y-117151826D01*
X110394582Y-117151825D01*
X110397496Y-117149859D01*
X110406570Y-117142137D01*
X110661654Y-116925043D01*
X110661655Y-116925042D01*
X110664327Y-116922768D01*
X110710144Y-116873978D01*
X110901771Y-116669916D01*
X110901775Y-116669911D01*
X110904182Y-116667348D01*
X111114071Y-116386785D01*
X111149613Y-116326206D01*
X111207340Y-116227811D01*
X111291377Y-116084573D01*
X111313003Y-116036000D01*
X111432459Y-115767698D01*
X111432461Y-115767693D01*
X111433891Y-115764481D01*
X111539837Y-115430498D01*
X111607894Y-115086786D01*
X111622297Y-114915268D01*
X111637030Y-114739814D01*
X111637031Y-114739803D01*
X111637213Y-114737630D01*
X111637283Y-114732669D01*
X111638407Y-114652178D01*
X111638407Y-114652166D01*
X111638437Y-114650000D01*
X111638013Y-114642402D01*
X111623619Y-114384962D01*
X111618878Y-114300162D01*
X111613253Y-114266906D01*
X111561032Y-113958153D01*
X111561031Y-113958148D01*
X111560445Y-113954684D01*
X111463866Y-113617873D01*
X111394545Y-113449688D01*
X111331683Y-113297171D01*
X111331679Y-113297163D01*
X111330345Y-113293926D01*
X111161546Y-112986882D01*
X110959573Y-112700567D01*
X110852307Y-112579751D01*
X110729274Y-112441175D01*
X110729270Y-112441171D01*
X110726943Y-112438550D01*
X110724342Y-112436208D01*
X110724337Y-112436203D01*
X110469167Y-112206447D01*
X110469166Y-112206447D01*
X110466557Y-112204097D01*
X110462966Y-112201526D01*
X110184513Y-112002173D01*
X110184510Y-112002171D01*
X110181659Y-112000130D01*
X109875800Y-111829192D01*
X109552794Y-111693412D01*
X109549425Y-111692421D01*
X109549421Y-111692419D01*
X109401053Y-111648752D01*
X109216665Y-111594484D01*
X108940895Y-111545858D01*
X108875063Y-111534250D01*
X108875061Y-111534250D01*
X108871603Y-111533640D01*
X108868094Y-111533419D01*
X108868092Y-111533419D01*
X108525428Y-111511860D01*
X108525422Y-111511860D01*
X108521910Y-111511639D01*
X108424516Y-111516403D01*
X108175451Y-111528584D01*
X108175443Y-111528585D01*
X108171944Y-111528756D01*
X108168476Y-111529318D01*
X108168473Y-111529318D01*
X107829542Y-111584213D01*
X107829539Y-111584214D01*
X107826067Y-111584776D01*
X107822684Y-111585721D01*
X107822682Y-111585721D01*
X107787747Y-111595475D01*
X107488589Y-111679001D01*
X107485341Y-111680313D01*
X107485333Y-111680316D01*
X107166983Y-111808938D01*
X107166979Y-111808940D01*
X107163719Y-111810257D01*
X107160632Y-111811926D01*
X107160628Y-111811928D01*
X107070835Y-111860479D01*
X106855503Y-111976909D01*
X106567785Y-112176878D01*
X106565143Y-112179191D01*
X106565139Y-112179194D01*
X106359064Y-112359600D01*
X106304151Y-112407673D01*
X106067886Y-112666416D01*
X105861935Y-112949883D01*
X105860193Y-112952949D01*
X105860192Y-112952951D01*
X105854144Y-112963598D01*
X105688865Y-113254541D01*
X105632976Y-113384940D01*
X105560690Y-113553596D01*
X105550834Y-113576591D01*
X105528708Y-113649875D01*
X105486498Y-113789684D01*
X105449562Y-113912021D01*
X105440175Y-113963166D01*
X105387752Y-114248801D01*
X105386311Y-114256650D01*
X105361869Y-114606181D01*
X103508500Y-114606181D01*
X103508500Y-109118134D01*
X114081500Y-109118134D01*
X114088255Y-109180316D01*
X114139385Y-109316705D01*
X114226739Y-109433261D01*
X114343295Y-109520615D01*
X114479684Y-109571745D01*
X114541866Y-109578500D01*
X120205500Y-109578500D01*
X120273621Y-109598502D01*
X120320114Y-109652158D01*
X120331500Y-109704500D01*
X120331500Y-119785500D01*
X120311498Y-119853621D01*
X120257842Y-119900114D01*
X120205500Y-119911500D01*
X114571866Y-119911500D01*
X114509684Y-119918255D01*
X114373295Y-119969385D01*
X114256739Y-120056739D01*
X114169385Y-120173295D01*
X114118255Y-120309684D01*
X114111500Y-120371866D01*
X114111500Y-123468134D01*
X114118255Y-123530316D01*
X114169385Y-123666705D01*
X114256739Y-123783261D01*
X114373295Y-123870615D01*
X114509684Y-123921745D01*
X114571866Y-123928500D01*
X127668134Y-123928500D01*
X127730316Y-123921745D01*
X127866705Y-123870615D01*
X127983261Y-123783261D01*
X128070615Y-123666705D01*
X128121745Y-123530316D01*
X128128500Y-123468134D01*
X128128500Y-120371866D01*
X128121745Y-120309684D01*
X128070615Y-120173295D01*
X127983261Y-120056739D01*
X127866705Y-119969385D01*
X127730316Y-119918255D01*
X127668134Y-119911500D01*
X121974500Y-119911500D01*
X121906379Y-119891498D01*
X121859886Y-119837842D01*
X121848500Y-119785500D01*
X121848500Y-118000000D01*
X123356496Y-118000000D01*
X123376458Y-118189928D01*
X123435473Y-118371556D01*
X123530960Y-118536944D01*
X123535378Y-118541851D01*
X123535379Y-118541852D01*
X123574911Y-118585757D01*
X123658747Y-118678866D01*
X123813248Y-118791118D01*
X123819276Y-118793802D01*
X123819278Y-118793803D01*
X123948597Y-118851379D01*
X123987712Y-118868794D01*
X124074677Y-118887279D01*
X124168056Y-118907128D01*
X124168061Y-118907128D01*
X124174513Y-118908500D01*
X124365487Y-118908500D01*
X124371940Y-118907128D01*
X124371953Y-118907127D01*
X124503565Y-118879151D01*
X124574355Y-118884552D01*
X124630988Y-118927369D01*
X124646611Y-118960932D01*
X124648255Y-118960316D01*
X124699385Y-119096705D01*
X124786739Y-119213261D01*
X124903295Y-119300615D01*
X125039684Y-119351745D01*
X125101866Y-119358500D01*
X127698134Y-119358500D01*
X127760316Y-119351745D01*
X127896705Y-119300615D01*
X128013261Y-119213261D01*
X128100615Y-119096705D01*
X128151745Y-118960316D01*
X128158500Y-118898134D01*
X128158500Y-117101866D01*
X128151745Y-117039684D01*
X128100615Y-116903295D01*
X128013261Y-116786739D01*
X127896705Y-116699385D01*
X127760316Y-116648255D01*
X127698134Y-116641500D01*
X127244500Y-116641500D01*
X127176379Y-116621498D01*
X127129886Y-116567842D01*
X127118500Y-116515500D01*
X127118500Y-116234500D01*
X127138502Y-116166379D01*
X127192158Y-116119886D01*
X127244500Y-116108500D01*
X127658134Y-116108500D01*
X127720316Y-116101745D01*
X127856705Y-116050615D01*
X127973261Y-115963261D01*
X128060615Y-115846705D01*
X128111745Y-115710316D01*
X128118500Y-115648134D01*
X128118500Y-113851866D01*
X128111745Y-113789684D01*
X128060615Y-113653295D01*
X127973261Y-113536739D01*
X127856705Y-113449385D01*
X127720316Y-113398255D01*
X127658134Y-113391500D01*
X127244500Y-113391500D01*
X127176379Y-113371498D01*
X127129886Y-113317842D01*
X127118500Y-113265500D01*
X127118500Y-113024500D01*
X127138502Y-112956379D01*
X127192158Y-112909886D01*
X127244500Y-112898500D01*
X127658134Y-112898500D01*
X127720316Y-112891745D01*
X127856705Y-112840615D01*
X127973261Y-112753261D01*
X128060615Y-112636705D01*
X128111745Y-112500316D01*
X128118500Y-112438134D01*
X128118500Y-110641866D01*
X128111745Y-110579684D01*
X128060615Y-110443295D01*
X127973261Y-110326739D01*
X127856705Y-110239385D01*
X127720316Y-110188255D01*
X127658134Y-110181500D01*
X125061866Y-110181500D01*
X124999684Y-110188255D01*
X124863295Y-110239385D01*
X124746739Y-110326739D01*
X124659385Y-110443295D01*
X124608255Y-110579684D01*
X124601500Y-110641866D01*
X124601500Y-112438134D01*
X124608255Y-112500316D01*
X124659385Y-112636705D01*
X124746739Y-112753261D01*
X124863295Y-112840615D01*
X124999684Y-112891745D01*
X125061866Y-112898500D01*
X125475500Y-112898500D01*
X125543621Y-112918502D01*
X125590114Y-112972158D01*
X125601500Y-113024500D01*
X125601500Y-113265500D01*
X125581498Y-113333621D01*
X125527842Y-113380114D01*
X125475500Y-113391500D01*
X125061866Y-113391500D01*
X124999684Y-113398255D01*
X124863295Y-113449385D01*
X124746739Y-113536739D01*
X124659385Y-113653295D01*
X124608255Y-113789684D01*
X124601500Y-113851866D01*
X124601500Y-115648134D01*
X124608255Y-115710316D01*
X124659385Y-115846705D01*
X124746739Y-115963261D01*
X124863295Y-116050615D01*
X124999684Y-116101745D01*
X125061866Y-116108500D01*
X125475500Y-116108500D01*
X125543621Y-116128502D01*
X125590114Y-116182158D01*
X125601500Y-116234500D01*
X125601500Y-116515500D01*
X125581498Y-116583621D01*
X125527842Y-116630114D01*
X125475500Y-116641500D01*
X125101866Y-116641500D01*
X125039684Y-116648255D01*
X124903295Y-116699385D01*
X124786739Y-116786739D01*
X124699385Y-116903295D01*
X124648255Y-117039684D01*
X124645537Y-117038665D01*
X124617126Y-117088397D01*
X124554170Y-117121216D01*
X124503565Y-117120849D01*
X124371953Y-117092873D01*
X124371940Y-117092872D01*
X124365487Y-117091500D01*
X124174513Y-117091500D01*
X124168061Y-117092872D01*
X124168056Y-117092872D01*
X124084175Y-117110702D01*
X123987712Y-117131206D01*
X123981682Y-117133891D01*
X123981681Y-117133891D01*
X123819278Y-117206197D01*
X123819276Y-117206198D01*
X123813248Y-117208882D01*
X123807907Y-117212762D01*
X123807906Y-117212763D01*
X123784367Y-117229865D01*
X123658747Y-117321134D01*
X123654326Y-117326044D01*
X123654325Y-117326045D01*
X123540257Y-117452731D01*
X123530960Y-117463056D01*
X123483536Y-117545196D01*
X123442311Y-117616601D01*
X123435473Y-117628444D01*
X123376458Y-117810072D01*
X123375768Y-117816633D01*
X123375768Y-117816635D01*
X123362092Y-117946753D01*
X123356496Y-118000000D01*
X121848500Y-118000000D01*
X121848500Y-109704500D01*
X121868502Y-109636379D01*
X121922158Y-109589886D01*
X121974500Y-109578500D01*
X127638134Y-109578500D01*
X127700316Y-109571745D01*
X127836705Y-109520615D01*
X127953261Y-109433261D01*
X128040615Y-109316705D01*
X128091745Y-109180316D01*
X128098500Y-109118134D01*
X128098500Y-106021866D01*
X128091745Y-105959684D01*
X128040615Y-105823295D01*
X127953261Y-105706739D01*
X127836705Y-105619385D01*
X127700316Y-105568255D01*
X127638134Y-105561500D01*
X114541866Y-105561500D01*
X114479684Y-105568255D01*
X114343295Y-105619385D01*
X114226739Y-105706739D01*
X114139385Y-105823295D01*
X114088255Y-105959684D01*
X114081500Y-106021866D01*
X114081500Y-109118134D01*
X103508500Y-109118134D01*
X103508500Y-89634500D01*
X103528502Y-89566379D01*
X103582158Y-89519886D01*
X103634500Y-89508500D01*
X105946750Y-89508500D01*
X105967655Y-89510246D01*
X105982656Y-89512770D01*
X105982659Y-89512770D01*
X105987448Y-89513576D01*
X105993687Y-89513652D01*
X105995140Y-89513670D01*
X105995143Y-89513670D01*
X106000000Y-89513729D01*
X106004815Y-89513039D01*
X106005634Y-89512986D01*
X106015494Y-89512023D01*
X106330606Y-89495509D01*
X106333846Y-89494996D01*
X106333854Y-89494995D01*
X106484036Y-89471208D01*
X106657590Y-89443719D01*
X106977370Y-89358035D01*
X107286441Y-89239394D01*
X107289381Y-89237896D01*
X107578479Y-89090593D01*
X107578486Y-89090589D01*
X107581418Y-89089095D01*
X107859068Y-88908787D01*
X108116350Y-88700444D01*
X108350444Y-88466350D01*
X108558787Y-88209068D01*
X108739095Y-87931418D01*
X108773310Y-87864269D01*
X108887896Y-87639381D01*
X108889394Y-87636441D01*
X109008035Y-87327370D01*
X109093719Y-87007590D01*
X109145509Y-86680606D01*
X109161167Y-86381831D01*
X109162739Y-86367528D01*
X109162767Y-86367359D01*
X109163576Y-86362552D01*
X109163664Y-86355354D01*
X109163670Y-86354860D01*
X109163670Y-86354857D01*
X109163729Y-86350000D01*
X109159773Y-86322376D01*
X109158500Y-86304514D01*
X109158500Y-77803250D01*
X109160246Y-77782345D01*
X109162770Y-77767344D01*
X109162770Y-77767341D01*
X109163576Y-77762552D01*
X109163729Y-77750000D01*
X109163039Y-77745185D01*
X109162986Y-77744366D01*
X109162022Y-77734496D01*
X109161568Y-77725818D01*
X109145509Y-77419394D01*
X109093719Y-77092410D01*
X109008035Y-76772630D01*
X108889394Y-76463559D01*
X108739095Y-76168583D01*
X108659320Y-76045739D01*
X108560589Y-75893707D01*
X108558787Y-75890932D01*
X108350444Y-75633650D01*
X108116350Y-75399556D01*
X107859068Y-75191213D01*
X107581418Y-75010905D01*
X107578486Y-75009411D01*
X107578479Y-75009407D01*
X107289381Y-74862104D01*
X107286441Y-74860606D01*
X106977370Y-74741965D01*
X106657590Y-74656281D01*
X106484036Y-74628792D01*
X106333854Y-74605005D01*
X106333846Y-74605004D01*
X106330606Y-74604491D01*
X106190095Y-74597127D01*
X106031831Y-74588833D01*
X106017528Y-74587261D01*
X106017412Y-74587242D01*
X106012552Y-74586424D01*
X106006059Y-74586345D01*
X106004860Y-74586330D01*
X106004857Y-74586330D01*
X106000000Y-74586271D01*
X105975679Y-74589754D01*
X105972376Y-74590227D01*
X105954514Y-74591500D01*
X103634500Y-74591500D01*
X103566379Y-74571498D01*
X103519886Y-74517842D01*
X103508500Y-74465500D01*
X103508500Y-71853782D01*
X103528502Y-71785661D01*
X103582158Y-71739168D01*
X103652432Y-71729064D01*
X103717012Y-71758558D01*
X103745751Y-71794629D01*
X103815493Y-71925795D01*
X103817483Y-71928701D01*
X103817484Y-71928703D01*
X103891490Y-72036785D01*
X104013449Y-72214902D01*
X104242397Y-72480142D01*
X104499485Y-72718207D01*
X104781507Y-72926132D01*
X104784544Y-72927886D01*
X104784548Y-72927888D01*
X104919529Y-73005819D01*
X105084949Y-73101324D01*
X105088170Y-73102731D01*
X105402807Y-73240193D01*
X105402817Y-73240197D01*
X105406029Y-73241600D01*
X105409387Y-73242639D01*
X105409391Y-73242641D01*
X105545685Y-73284831D01*
X105740743Y-73345212D01*
X105744199Y-73345871D01*
X105744198Y-73345871D01*
X106081471Y-73410210D01*
X106081477Y-73410211D01*
X106084922Y-73410868D01*
X106316253Y-73428668D01*
X106430777Y-73437480D01*
X106430778Y-73437480D01*
X106434274Y-73437749D01*
X106666291Y-73429646D01*
X106780929Y-73425643D01*
X106780933Y-73425643D01*
X106784445Y-73425520D01*
X106787924Y-73425006D01*
X106787927Y-73425006D01*
X107127578Y-73374851D01*
X107127584Y-73374850D01*
X107131070Y-73374335D01*
X107134474Y-73373436D01*
X107134477Y-73373435D01*
X107466439Y-73285727D01*
X107466440Y-73285727D01*
X107469830Y-73284831D01*
X107796502Y-73158123D01*
X108107014Y-72995792D01*
X108397496Y-72799859D01*
X108664327Y-72572768D01*
X108749069Y-72482527D01*
X108901771Y-72319916D01*
X108901775Y-72319911D01*
X108904182Y-72317348D01*
X109114071Y-72036785D01*
X109291377Y-71734573D01*
X109293830Y-71729064D01*
X109432459Y-71417698D01*
X109432461Y-71417693D01*
X109433891Y-71414481D01*
X109539837Y-71080498D01*
X109607894Y-70736786D01*
X109637213Y-70387630D01*
X109638437Y-70300000D01*
X109636185Y-70259708D01*
X109619074Y-69953671D01*
X109618878Y-69950162D01*
X109565806Y-69636379D01*
X109561032Y-69608153D01*
X109561031Y-69608148D01*
X109560445Y-69604684D01*
X109463866Y-69267873D01*
X109400740Y-69114717D01*
X109331683Y-68947171D01*
X109331679Y-68947163D01*
X109330345Y-68943926D01*
X109161546Y-68636882D01*
X108959573Y-68350567D01*
X108726943Y-68088550D01*
X108724342Y-68086208D01*
X108724337Y-68086203D01*
X108469167Y-67856447D01*
X108469166Y-67856447D01*
X108466557Y-67854097D01*
X108428538Y-67826878D01*
X108184513Y-67652173D01*
X108184510Y-67652171D01*
X108181659Y-67650130D01*
X107875800Y-67479192D01*
X107552794Y-67343412D01*
X107549425Y-67342421D01*
X107549421Y-67342419D01*
X107401053Y-67298752D01*
X107216665Y-67244484D01*
X106940895Y-67195858D01*
X106875063Y-67184250D01*
X106875061Y-67184250D01*
X106871603Y-67183640D01*
X106868094Y-67183419D01*
X106868092Y-67183419D01*
X106525428Y-67161860D01*
X106525422Y-67161860D01*
X106521910Y-67161639D01*
X106424516Y-67166403D01*
X106175451Y-67178584D01*
X106175443Y-67178585D01*
X106171944Y-67178756D01*
X106168476Y-67179318D01*
X106168473Y-67179318D01*
X105829542Y-67234213D01*
X105829539Y-67234214D01*
X105826067Y-67234776D01*
X105822684Y-67235721D01*
X105822682Y-67235721D01*
X105787747Y-67245475D01*
X105488589Y-67329001D01*
X105485341Y-67330313D01*
X105485333Y-67330316D01*
X105166983Y-67458938D01*
X105166979Y-67458940D01*
X105163719Y-67460257D01*
X105160632Y-67461926D01*
X105160628Y-67461928D01*
X105131220Y-67477829D01*
X104855503Y-67626909D01*
X104567785Y-67826878D01*
X104565143Y-67829191D01*
X104565139Y-67829194D01*
X104326206Y-68038365D01*
X104304151Y-68057673D01*
X104067886Y-68316416D01*
X103861935Y-68599883D01*
X103860193Y-68602949D01*
X103860192Y-68602951D01*
X103744056Y-68807387D01*
X103693017Y-68856738D01*
X103623399Y-68870660D01*
X103557305Y-68844734D01*
X103515720Y-68787191D01*
X103508500Y-68745150D01*
X103508500Y-66384500D01*
X103528502Y-66316379D01*
X103582158Y-66269886D01*
X103634500Y-66258500D01*
X113955500Y-66258500D01*
X114023621Y-66278502D01*
G37*
%TD.AperFunction*%
%TA.AperFunction,Conductor*%
G36*
X152044813Y-114935257D02*
G01*
X152101649Y-114977804D01*
X152121223Y-115016906D01*
X152147170Y-115039389D01*
X152146712Y-115039918D01*
X152159100Y-115046682D01*
X152174207Y-115066839D01*
X152174385Y-115066705D01*
X152213997Y-115119559D01*
X152238845Y-115186065D01*
X152223792Y-115255448D01*
X152173618Y-115305678D01*
X152148670Y-115316020D01*
X152119877Y-115324475D01*
X152118672Y-115325865D01*
X152117001Y-115333548D01*
X152117001Y-115364669D01*
X152117371Y-115371490D01*
X152122895Y-115422352D01*
X152126521Y-115437604D01*
X152171678Y-115558059D01*
X152184522Y-115581520D01*
X152182726Y-115582503D01*
X152203475Y-115638034D01*
X152188424Y-115707417D01*
X152170759Y-115731051D01*
X152170799Y-115731083D01*
X152169598Y-115732603D01*
X152166972Y-115736117D01*
X152166260Y-115736830D01*
X152157249Y-115748240D01*
X152072184Y-115886243D01*
X152066037Y-115899424D01*
X152014862Y-116053710D01*
X152011995Y-116067086D01*
X152002328Y-116161438D01*
X152002000Y-116167855D01*
X152002000Y-116417885D01*
X152006475Y-116433124D01*
X152007865Y-116434329D01*
X152015548Y-116436000D01*
X152737885Y-116436000D01*
X152753124Y-116431525D01*
X152754329Y-116430135D01*
X152756000Y-116422452D01*
X152756000Y-115533604D01*
X152776002Y-115465483D01*
X152829658Y-115418990D01*
X152846502Y-115412708D01*
X152847124Y-115412525D01*
X152863060Y-115394134D01*
X152878749Y-115365403D01*
X152941062Y-115331379D01*
X152967843Y-115328500D01*
X153016567Y-115328500D01*
X153084688Y-115348502D01*
X153124000Y-115390678D01*
X153124385Y-115391705D01*
X153136972Y-115408500D01*
X153206355Y-115501078D01*
X153206358Y-115501081D01*
X153211739Y-115508261D01*
X153218919Y-115513642D01*
X153225270Y-115519993D01*
X153223005Y-115522258D01*
X153256076Y-115566478D01*
X153264000Y-115610456D01*
X153264000Y-116818000D01*
X153243998Y-116886121D01*
X153190342Y-116932614D01*
X153138000Y-116944000D01*
X152020116Y-116944000D01*
X152004877Y-116948475D01*
X152003672Y-116949865D01*
X152002001Y-116957548D01*
X152002001Y-117212095D01*
X152002338Y-117218614D01*
X152012257Y-117314206D01*
X152015149Y-117327600D01*
X152066588Y-117481784D01*
X152072761Y-117494962D01*
X152158063Y-117632807D01*
X152167099Y-117644208D01*
X152184248Y-117661327D01*
X152218327Y-117723609D01*
X152213324Y-117794429D01*
X152170827Y-117851302D01*
X152104329Y-117876171D01*
X152095230Y-117876500D01*
X150658482Y-117876500D01*
X150590361Y-117856498D01*
X150543868Y-117802842D01*
X150532646Y-117744070D01*
X150533000Y-117737142D01*
X150533000Y-117712115D01*
X150528525Y-117696876D01*
X150527135Y-117695671D01*
X150519452Y-117694000D01*
X148110745Y-117694000D01*
X148075971Y-117699000D01*
X148067001Y-117699000D01*
X148067001Y-117696699D01*
X148053000Y-117697199D01*
X148053000Y-117699000D01*
X147468879Y-117699000D01*
X147417630Y-117688107D01*
X147318319Y-117643891D01*
X147318318Y-117643891D01*
X147312288Y-117641206D01*
X147218888Y-117621353D01*
X147131944Y-117602872D01*
X147131939Y-117602872D01*
X147125487Y-117601500D01*
X147117000Y-117601500D01*
X147115950Y-117601192D01*
X147112318Y-117600810D01*
X147112388Y-117600146D01*
X147048879Y-117581498D01*
X147002386Y-117527842D01*
X146991000Y-117475500D01*
X146991000Y-117469500D01*
X147011002Y-117401379D01*
X147064658Y-117354886D01*
X147117000Y-117343500D01*
X147593134Y-117343500D01*
X147655316Y-117336745D01*
X147791705Y-117285615D01*
X147884360Y-117216174D01*
X147950866Y-117191326D01*
X147959925Y-117191000D01*
X148009255Y-117191000D01*
X148044029Y-117186000D01*
X148052999Y-117186000D01*
X148052999Y-117188301D01*
X148067000Y-117187801D01*
X148067000Y-117186000D01*
X150514884Y-117186000D01*
X150530123Y-117181525D01*
X150531328Y-117180135D01*
X150532999Y-117172452D01*
X150532999Y-117142905D01*
X150532662Y-117136386D01*
X150522743Y-117040794D01*
X150519851Y-117027400D01*
X150468666Y-116873978D01*
X150466082Y-116803028D01*
X150502266Y-116741944D01*
X150514129Y-116732166D01*
X150563586Y-116696233D01*
X150601253Y-116668866D01*
X150612881Y-116655952D01*
X150724621Y-116531852D01*
X150724622Y-116531851D01*
X150729040Y-116526944D01*
X150805211Y-116395012D01*
X150821223Y-116367279D01*
X150821224Y-116367278D01*
X150824527Y-116361556D01*
X150883542Y-116179928D01*
X150885486Y-116161438D01*
X150892348Y-116096144D01*
X150900907Y-116014706D01*
X150927920Y-115949050D01*
X150937122Y-115938782D01*
X151911686Y-114964218D01*
X151973998Y-114930192D01*
X152044813Y-114935257D01*
G37*
%TD.AperFunction*%
%TA.AperFunction,Conductor*%
G36*
X148093068Y-114301002D02*
G01*
X148096957Y-114303914D01*
X148106548Y-114306000D01*
X149408000Y-114306000D01*
X149476121Y-114326002D01*
X149522614Y-114379658D01*
X149534000Y-114432000D01*
X149534000Y-114688000D01*
X149513998Y-114756121D01*
X149460342Y-114802614D01*
X149408000Y-114814000D01*
X148075053Y-114814000D01*
X148006932Y-114793998D01*
X148003043Y-114791086D01*
X147993452Y-114789000D01*
X147959925Y-114789000D01*
X147891804Y-114768998D01*
X147884360Y-114763826D01*
X147842787Y-114732669D01*
X147791705Y-114694385D01*
X147655316Y-114643255D01*
X147593134Y-114636500D01*
X147289500Y-114636500D01*
X147221379Y-114616498D01*
X147174886Y-114562842D01*
X147163500Y-114510500D01*
X147163500Y-114407000D01*
X147183502Y-114338879D01*
X147237158Y-114292386D01*
X147289500Y-114281000D01*
X148024947Y-114281000D01*
X148093068Y-114301002D01*
G37*
%TD.AperFunction*%
%TD*%
M02*
