%TF.GenerationSoftware,KiCad,Pcbnew,(5.1.10)-1*%
%TF.CreationDate,2022-05-09T22:48:28-07:00*%
%TF.ProjectId,solar-panel-WithCutout,736f6c61-722d-4706-916e-656c2d576974,1.0*%
%TF.SameCoordinates,Original*%
%TF.FileFunction,Legend,Top*%
%TF.FilePolarity,Positive*%
%FSLAX46Y46*%
G04 Gerber Fmt 4.6, Leading zero omitted, Abs format (unit mm)*
G04 Created by KiCad (PCBNEW (5.1.10)-1) date 2022-05-09 22:48:28*
%MOMM*%
%LPD*%
G01*
G04 APERTURE LIST*
%ADD10C,0.120000*%
%ADD11C,0.100000*%
%ADD12C,0.300000*%
%ADD13C,0.150000*%
G04 APERTURE END LIST*
D10*
%TO.C,D3*%
X156937200Y-92431800D02*
X158486600Y-92431800D01*
D11*
G36*
X158461200Y-91492000D02*
G01*
X157724600Y-92304800D01*
X157115000Y-91492000D01*
X158461200Y-91492000D01*
G37*
X158461200Y-91492000D02*
X157724600Y-92304800D01*
X157115000Y-91492000D01*
X158461200Y-91492000D01*
D10*
X156300000Y-94375000D02*
X156300000Y-89625000D01*
X159200000Y-94375000D02*
X156300000Y-94375000D01*
X159200000Y-89625000D02*
X156300000Y-89625000D01*
X159200000Y-94375000D02*
X159200000Y-89625000D01*
%TO.C,D2*%
X158562800Y-103068200D02*
X157013400Y-103068200D01*
D11*
G36*
X157038800Y-104008000D02*
G01*
X157775400Y-103195200D01*
X158385000Y-104008000D01*
X157038800Y-104008000D01*
G37*
X157038800Y-104008000D02*
X157775400Y-103195200D01*
X158385000Y-104008000D01*
X157038800Y-104008000D01*
D10*
X159200000Y-101125000D02*
X159200000Y-105875000D01*
X156300000Y-101125000D02*
X159200000Y-101125000D01*
X156300000Y-105875000D02*
X159200000Y-105875000D01*
X156300000Y-101125000D02*
X156300000Y-105875000D01*
%TO.C,D1*%
X124687200Y-91431800D02*
X126236600Y-91431800D01*
D11*
G36*
X126211200Y-90492000D02*
G01*
X125474600Y-91304800D01*
X124865000Y-90492000D01*
X126211200Y-90492000D01*
G37*
X126211200Y-90492000D02*
X125474600Y-91304800D01*
X124865000Y-90492000D01*
X126211200Y-90492000D01*
D10*
X124050000Y-93375000D02*
X124050000Y-88625000D01*
X126950000Y-93375000D02*
X124050000Y-93375000D01*
X126950000Y-88625000D02*
X124050000Y-88625000D01*
X126950000Y-93375000D02*
X126950000Y-88625000D01*
%TO.C,U3*%
X141250000Y-122600000D02*
X151410000Y-122600000D01*
X151410000Y-122600000D02*
X151410000Y-116250000D01*
X141250000Y-122600000D02*
X131090000Y-122600000D01*
X131090000Y-122600000D02*
X131090000Y-116250000D01*
X151410000Y-109900000D02*
X151410000Y-116250000D01*
X141250000Y-109900000D02*
X151410000Y-109900000D01*
X131090000Y-109900000D02*
X131090000Y-116250000D01*
X141250000Y-109900000D02*
X131090000Y-109900000D01*
%TO.C,U2*%
X141500000Y-85320000D02*
X128800000Y-85320000D01*
X128800000Y-94210000D02*
X128800000Y-85320000D01*
X141500000Y-85320000D02*
X154200000Y-85320000D01*
X154200000Y-94210000D02*
X154200000Y-85320000D01*
X128800000Y-85320000D02*
X130578000Y-85320000D01*
X128800000Y-94210000D02*
X128800000Y-96750000D01*
X154200000Y-94210000D02*
X154200000Y-96750000D01*
X128800000Y-99290000D02*
X128800000Y-96750000D01*
X141500000Y-108180000D02*
X128800000Y-108180000D01*
X141500000Y-108180000D02*
X154200000Y-108180000D01*
X154200000Y-108180000D02*
X152422000Y-108180000D01*
X154200000Y-99290000D02*
X154200000Y-96750000D01*
X154200000Y-99290000D02*
X154200000Y-108180000D01*
X128800000Y-99290000D02*
X128800000Y-108180000D01*
%TO.C,U1*%
X154200000Y-133000000D02*
X154200000Y-141890000D01*
X141500000Y-141890000D02*
X154200000Y-141890000D01*
X141500000Y-141890000D02*
X128800000Y-141890000D01*
X128800000Y-133000000D02*
X128800000Y-141890000D01*
X154200000Y-133000000D02*
X154200000Y-124110000D01*
X141500000Y-124110000D02*
X154200000Y-124110000D01*
X128800000Y-133000000D02*
X128800000Y-124110000D01*
X141500000Y-124110000D02*
X128800000Y-124110000D01*
D12*
%TO.C,SC6*%
X141250000Y-72000000D02*
X106250000Y-72000000D01*
X106250000Y-72000000D02*
X106250000Y-50000000D01*
X106250000Y-50000000D02*
X141250000Y-50000000D01*
X141250000Y-50000000D02*
X141250000Y-72000000D01*
%TO.C,SC5*%
X141750000Y-50000000D02*
X176750000Y-50000000D01*
X176750000Y-50000000D02*
X176750000Y-72000000D01*
X176750000Y-72000000D02*
X141750000Y-72000000D01*
X141750000Y-72000000D02*
X141750000Y-50000000D01*
%TO.C,SC4*%
X160000000Y-111000000D02*
X160000000Y-76000000D01*
X160000000Y-76000000D02*
X182000000Y-76000000D01*
X182000000Y-76000000D02*
X182000000Y-111000000D01*
X182000000Y-111000000D02*
X160000000Y-111000000D01*
%TO.C,SC3*%
X154750000Y-146750000D02*
X154750000Y-111750000D01*
X154750000Y-111750000D02*
X176750000Y-111750000D01*
X176750000Y-111750000D02*
X176750000Y-146750000D01*
X176750000Y-146750000D02*
X154750000Y-146750000D01*
%TO.C,SC2*%
X106250000Y-146750000D02*
X106250000Y-111750000D01*
X106250000Y-111750000D02*
X128250000Y-111750000D01*
X128250000Y-111750000D02*
X128250000Y-146750000D01*
X128250000Y-146750000D02*
X106250000Y-146750000D01*
%TO.C,SC1*%
X101000000Y-111000000D02*
X101000000Y-76000000D01*
X101000000Y-76000000D02*
X123000000Y-76000000D01*
X123000000Y-76000000D02*
X123000000Y-111000000D01*
X123000000Y-111000000D02*
X101000000Y-111000000D01*
%TO.C,J5*%
D13*
X179666666Y-143202380D02*
X179666666Y-143916666D01*
X179619047Y-144059523D01*
X179523809Y-144154761D01*
X179380952Y-144202380D01*
X179285714Y-144202380D01*
X180619047Y-143202380D02*
X180142857Y-143202380D01*
X180095238Y-143678571D01*
X180142857Y-143630952D01*
X180238095Y-143583333D01*
X180476190Y-143583333D01*
X180571428Y-143630952D01*
X180619047Y-143678571D01*
X180666666Y-143773809D01*
X180666666Y-144011904D01*
X180619047Y-144107142D01*
X180571428Y-144154761D01*
X180476190Y-144202380D01*
X180238095Y-144202380D01*
X180142857Y-144154761D01*
X180095238Y-144107142D01*
%TO.C,J4*%
X179166666Y-54202380D02*
X179166666Y-54916666D01*
X179119047Y-55059523D01*
X179023809Y-55154761D01*
X178880952Y-55202380D01*
X178785714Y-55202380D01*
X180071428Y-54535714D02*
X180071428Y-55202380D01*
X179833333Y-54154761D02*
X179595238Y-54869047D01*
X180214285Y-54869047D01*
%TO.C,J3*%
X102666666Y-143202380D02*
X102666666Y-143916666D01*
X102619047Y-144059523D01*
X102523809Y-144154761D01*
X102380952Y-144202380D01*
X102285714Y-144202380D01*
X103047619Y-143202380D02*
X103666666Y-143202380D01*
X103333333Y-143583333D01*
X103476190Y-143583333D01*
X103571428Y-143630952D01*
X103619047Y-143678571D01*
X103666666Y-143773809D01*
X103666666Y-144011904D01*
X103619047Y-144107142D01*
X103571428Y-144154761D01*
X103476190Y-144202380D01*
X103190476Y-144202380D01*
X103095238Y-144154761D01*
X103047619Y-144107142D01*
%TO.C,J2*%
X102666666Y-54202380D02*
X102666666Y-54916666D01*
X102619047Y-55059523D01*
X102523809Y-55154761D01*
X102380952Y-55202380D01*
X102285714Y-55202380D01*
X103095238Y-54297619D02*
X103142857Y-54250000D01*
X103238095Y-54202380D01*
X103476190Y-54202380D01*
X103571428Y-54250000D01*
X103619047Y-54297619D01*
X103666666Y-54392857D01*
X103666666Y-54488095D01*
X103619047Y-54630952D01*
X103047619Y-55202380D01*
X103666666Y-55202380D01*
%TO.C,D3*%
X155952380Y-92738095D02*
X154952380Y-92738095D01*
X154952380Y-92500000D01*
X155000000Y-92357142D01*
X155095238Y-92261904D01*
X155190476Y-92214285D01*
X155380952Y-92166666D01*
X155523809Y-92166666D01*
X155714285Y-92214285D01*
X155809523Y-92261904D01*
X155904761Y-92357142D01*
X155952380Y-92500000D01*
X155952380Y-92738095D01*
X154952380Y-91833333D02*
X154952380Y-91214285D01*
X155333333Y-91547619D01*
X155333333Y-91404761D01*
X155380952Y-91309523D01*
X155428571Y-91261904D01*
X155523809Y-91214285D01*
X155761904Y-91214285D01*
X155857142Y-91261904D01*
X155904761Y-91309523D01*
X155952380Y-91404761D01*
X155952380Y-91690476D01*
X155904761Y-91785714D01*
X155857142Y-91833333D01*
%TO.C,D2*%
X155662380Y-104238095D02*
X154662380Y-104238095D01*
X154662380Y-104000000D01*
X154710000Y-103857142D01*
X154805238Y-103761904D01*
X154900476Y-103714285D01*
X155090952Y-103666666D01*
X155233809Y-103666666D01*
X155424285Y-103714285D01*
X155519523Y-103761904D01*
X155614761Y-103857142D01*
X155662380Y-104000000D01*
X155662380Y-104238095D01*
X154757619Y-103285714D02*
X154710000Y-103238095D01*
X154662380Y-103142857D01*
X154662380Y-102904761D01*
X154710000Y-102809523D01*
X154757619Y-102761904D01*
X154852857Y-102714285D01*
X154948095Y-102714285D01*
X155090952Y-102761904D01*
X155662380Y-103333333D01*
X155662380Y-102714285D01*
%TO.C,D1*%
X128492380Y-91738095D02*
X127492380Y-91738095D01*
X127492380Y-91500000D01*
X127540000Y-91357142D01*
X127635238Y-91261904D01*
X127730476Y-91214285D01*
X127920952Y-91166666D01*
X128063809Y-91166666D01*
X128254285Y-91214285D01*
X128349523Y-91261904D01*
X128444761Y-91357142D01*
X128492380Y-91500000D01*
X128492380Y-91738095D01*
X128492380Y-90214285D02*
X128492380Y-90785714D01*
X128492380Y-90500000D02*
X127492380Y-90500000D01*
X127635238Y-90595238D01*
X127730476Y-90690476D01*
X127778095Y-90785714D01*
%TO.C,U3*%
X140488095Y-115202380D02*
X140488095Y-116011904D01*
X140535714Y-116107142D01*
X140583333Y-116154761D01*
X140678571Y-116202380D01*
X140869047Y-116202380D01*
X140964285Y-116154761D01*
X141011904Y-116107142D01*
X141059523Y-116011904D01*
X141059523Y-115202380D01*
X141440476Y-115202380D02*
X142059523Y-115202380D01*
X141726190Y-115583333D01*
X141869047Y-115583333D01*
X141964285Y-115630952D01*
X142011904Y-115678571D01*
X142059523Y-115773809D01*
X142059523Y-116011904D01*
X142011904Y-116107142D01*
X141964285Y-116154761D01*
X141869047Y-116202380D01*
X141583333Y-116202380D01*
X141488095Y-116154761D01*
X141440476Y-116107142D01*
%TO.C,U2*%
X140738095Y-95702380D02*
X140738095Y-96511904D01*
X140785714Y-96607142D01*
X140833333Y-96654761D01*
X140928571Y-96702380D01*
X141119047Y-96702380D01*
X141214285Y-96654761D01*
X141261904Y-96607142D01*
X141309523Y-96511904D01*
X141309523Y-95702380D01*
X141738095Y-95797619D02*
X141785714Y-95750000D01*
X141880952Y-95702380D01*
X142119047Y-95702380D01*
X142214285Y-95750000D01*
X142261904Y-95797619D01*
X142309523Y-95892857D01*
X142309523Y-95988095D01*
X142261904Y-96130952D01*
X141690476Y-96702380D01*
X142309523Y-96702380D01*
%TO.C,U1*%
X140738095Y-131952380D02*
X140738095Y-132761904D01*
X140785714Y-132857142D01*
X140833333Y-132904761D01*
X140928571Y-132952380D01*
X141119047Y-132952380D01*
X141214285Y-132904761D01*
X141261904Y-132857142D01*
X141309523Y-132761904D01*
X141309523Y-131952380D01*
X142309523Y-132952380D02*
X141738095Y-132952380D01*
X142023809Y-132952380D02*
X142023809Y-131952380D01*
X141928571Y-132095238D01*
X141833333Y-132190476D01*
X141738095Y-132238095D01*
%TO.C,SC6*%
X122488095Y-60904761D02*
X122630952Y-60952380D01*
X122869047Y-60952380D01*
X122964285Y-60904761D01*
X123011904Y-60857142D01*
X123059523Y-60761904D01*
X123059523Y-60666666D01*
X123011904Y-60571428D01*
X122964285Y-60523809D01*
X122869047Y-60476190D01*
X122678571Y-60428571D01*
X122583333Y-60380952D01*
X122535714Y-60333333D01*
X122488095Y-60238095D01*
X122488095Y-60142857D01*
X122535714Y-60047619D01*
X122583333Y-60000000D01*
X122678571Y-59952380D01*
X122916666Y-59952380D01*
X123059523Y-60000000D01*
X124059523Y-60857142D02*
X124011904Y-60904761D01*
X123869047Y-60952380D01*
X123773809Y-60952380D01*
X123630952Y-60904761D01*
X123535714Y-60809523D01*
X123488095Y-60714285D01*
X123440476Y-60523809D01*
X123440476Y-60380952D01*
X123488095Y-60190476D01*
X123535714Y-60095238D01*
X123630952Y-60000000D01*
X123773809Y-59952380D01*
X123869047Y-59952380D01*
X124011904Y-60000000D01*
X124059523Y-60047619D01*
X124916666Y-59952380D02*
X124726190Y-59952380D01*
X124630952Y-60000000D01*
X124583333Y-60047619D01*
X124488095Y-60190476D01*
X124440476Y-60380952D01*
X124440476Y-60761904D01*
X124488095Y-60857142D01*
X124535714Y-60904761D01*
X124630952Y-60952380D01*
X124821428Y-60952380D01*
X124916666Y-60904761D01*
X124964285Y-60857142D01*
X125011904Y-60761904D01*
X125011904Y-60523809D01*
X124964285Y-60428571D01*
X124916666Y-60380952D01*
X124821428Y-60333333D01*
X124630952Y-60333333D01*
X124535714Y-60380952D01*
X124488095Y-60428571D01*
X124440476Y-60523809D01*
X119202380Y-63944761D02*
X119345238Y-63992380D01*
X119583333Y-63992380D01*
X119678571Y-63944761D01*
X119726190Y-63897142D01*
X119773809Y-63801904D01*
X119773809Y-63706666D01*
X119726190Y-63611428D01*
X119678571Y-63563809D01*
X119583333Y-63516190D01*
X119392857Y-63468571D01*
X119297619Y-63420952D01*
X119250000Y-63373333D01*
X119202380Y-63278095D01*
X119202380Y-63182857D01*
X119250000Y-63087619D01*
X119297619Y-63040000D01*
X119392857Y-62992380D01*
X119630952Y-62992380D01*
X119773809Y-63040000D01*
X120202380Y-63992380D02*
X120202380Y-62992380D01*
X120535714Y-63706666D01*
X120869047Y-62992380D01*
X120869047Y-63992380D01*
X121869047Y-63992380D02*
X121297619Y-63992380D01*
X121583333Y-63992380D02*
X121583333Y-62992380D01*
X121488095Y-63135238D01*
X121392857Y-63230476D01*
X121297619Y-63278095D01*
X122488095Y-62992380D02*
X122583333Y-62992380D01*
X122678571Y-63040000D01*
X122726190Y-63087619D01*
X122773809Y-63182857D01*
X122821428Y-63373333D01*
X122821428Y-63611428D01*
X122773809Y-63801904D01*
X122726190Y-63897142D01*
X122678571Y-63944761D01*
X122583333Y-63992380D01*
X122488095Y-63992380D01*
X122392857Y-63944761D01*
X122345238Y-63897142D01*
X122297619Y-63801904D01*
X122250000Y-63611428D01*
X122250000Y-63373333D01*
X122297619Y-63182857D01*
X122345238Y-63087619D01*
X122392857Y-63040000D01*
X122488095Y-62992380D01*
X123773809Y-63992380D02*
X123202380Y-63992380D01*
X123488095Y-63992380D02*
X123488095Y-62992380D01*
X123392857Y-63135238D01*
X123297619Y-63230476D01*
X123202380Y-63278095D01*
X124202380Y-63992380D02*
X124202380Y-62992380D01*
X124773809Y-63992380D02*
X124345238Y-63420952D01*
X124773809Y-62992380D02*
X124202380Y-63563809D01*
X125392857Y-62992380D02*
X125488095Y-62992380D01*
X125583333Y-63040000D01*
X125630952Y-63087619D01*
X125678571Y-63182857D01*
X125726190Y-63373333D01*
X125726190Y-63611428D01*
X125678571Y-63801904D01*
X125630952Y-63897142D01*
X125583333Y-63944761D01*
X125488095Y-63992380D01*
X125392857Y-63992380D01*
X125297619Y-63944761D01*
X125250000Y-63897142D01*
X125202380Y-63801904D01*
X125154761Y-63611428D01*
X125154761Y-63373333D01*
X125202380Y-63182857D01*
X125250000Y-63087619D01*
X125297619Y-63040000D01*
X125392857Y-62992380D01*
X126059523Y-62992380D02*
X126726190Y-62992380D01*
X126297619Y-63992380D01*
X126964285Y-62992380D02*
X127535714Y-62992380D01*
X127250000Y-63992380D02*
X127250000Y-62992380D01*
X128202380Y-63468571D02*
X127869047Y-63468571D01*
X127869047Y-63992380D02*
X127869047Y-62992380D01*
X128345238Y-62992380D01*
D12*
X115074285Y-57062857D02*
X115074285Y-54777142D01*
X113717142Y-66294285D02*
X116002857Y-66294285D01*
X114860000Y-67437142D02*
X114860000Y-65151428D01*
%TO.C,SC5*%
D13*
X157988095Y-61904761D02*
X158130952Y-61952380D01*
X158369047Y-61952380D01*
X158464285Y-61904761D01*
X158511904Y-61857142D01*
X158559523Y-61761904D01*
X158559523Y-61666666D01*
X158511904Y-61571428D01*
X158464285Y-61523809D01*
X158369047Y-61476190D01*
X158178571Y-61428571D01*
X158083333Y-61380952D01*
X158035714Y-61333333D01*
X157988095Y-61238095D01*
X157988095Y-61142857D01*
X158035714Y-61047619D01*
X158083333Y-61000000D01*
X158178571Y-60952380D01*
X158416666Y-60952380D01*
X158559523Y-61000000D01*
X159559523Y-61857142D02*
X159511904Y-61904761D01*
X159369047Y-61952380D01*
X159273809Y-61952380D01*
X159130952Y-61904761D01*
X159035714Y-61809523D01*
X158988095Y-61714285D01*
X158940476Y-61523809D01*
X158940476Y-61380952D01*
X158988095Y-61190476D01*
X159035714Y-61095238D01*
X159130952Y-61000000D01*
X159273809Y-60952380D01*
X159369047Y-60952380D01*
X159511904Y-61000000D01*
X159559523Y-61047619D01*
X160464285Y-60952380D02*
X159988095Y-60952380D01*
X159940476Y-61428571D01*
X159988095Y-61380952D01*
X160083333Y-61333333D01*
X160321428Y-61333333D01*
X160416666Y-61380952D01*
X160464285Y-61428571D01*
X160511904Y-61523809D01*
X160511904Y-61761904D01*
X160464285Y-61857142D01*
X160416666Y-61904761D01*
X160321428Y-61952380D01*
X160083333Y-61952380D01*
X159988095Y-61904761D01*
X159940476Y-61857142D01*
X154702380Y-58864761D02*
X154845238Y-58912380D01*
X155083333Y-58912380D01*
X155178571Y-58864761D01*
X155226190Y-58817142D01*
X155273809Y-58721904D01*
X155273809Y-58626666D01*
X155226190Y-58531428D01*
X155178571Y-58483809D01*
X155083333Y-58436190D01*
X154892857Y-58388571D01*
X154797619Y-58340952D01*
X154750000Y-58293333D01*
X154702380Y-58198095D01*
X154702380Y-58102857D01*
X154750000Y-58007619D01*
X154797619Y-57960000D01*
X154892857Y-57912380D01*
X155130952Y-57912380D01*
X155273809Y-57960000D01*
X155702380Y-58912380D02*
X155702380Y-57912380D01*
X156035714Y-58626666D01*
X156369047Y-57912380D01*
X156369047Y-58912380D01*
X157369047Y-58912380D02*
X156797619Y-58912380D01*
X157083333Y-58912380D02*
X157083333Y-57912380D01*
X156988095Y-58055238D01*
X156892857Y-58150476D01*
X156797619Y-58198095D01*
X157988095Y-57912380D02*
X158083333Y-57912380D01*
X158178571Y-57960000D01*
X158226190Y-58007619D01*
X158273809Y-58102857D01*
X158321428Y-58293333D01*
X158321428Y-58531428D01*
X158273809Y-58721904D01*
X158226190Y-58817142D01*
X158178571Y-58864761D01*
X158083333Y-58912380D01*
X157988095Y-58912380D01*
X157892857Y-58864761D01*
X157845238Y-58817142D01*
X157797619Y-58721904D01*
X157750000Y-58531428D01*
X157750000Y-58293333D01*
X157797619Y-58102857D01*
X157845238Y-58007619D01*
X157892857Y-57960000D01*
X157988095Y-57912380D01*
X159273809Y-58912380D02*
X158702380Y-58912380D01*
X158988095Y-58912380D02*
X158988095Y-57912380D01*
X158892857Y-58055238D01*
X158797619Y-58150476D01*
X158702380Y-58198095D01*
X159702380Y-58912380D02*
X159702380Y-57912380D01*
X160273809Y-58912380D02*
X159845238Y-58340952D01*
X160273809Y-57912380D02*
X159702380Y-58483809D01*
X160892857Y-57912380D02*
X160988095Y-57912380D01*
X161083333Y-57960000D01*
X161130952Y-58007619D01*
X161178571Y-58102857D01*
X161226190Y-58293333D01*
X161226190Y-58531428D01*
X161178571Y-58721904D01*
X161130952Y-58817142D01*
X161083333Y-58864761D01*
X160988095Y-58912380D01*
X160892857Y-58912380D01*
X160797619Y-58864761D01*
X160750000Y-58817142D01*
X160702380Y-58721904D01*
X160654761Y-58531428D01*
X160654761Y-58293333D01*
X160702380Y-58102857D01*
X160750000Y-58007619D01*
X160797619Y-57960000D01*
X160892857Y-57912380D01*
X161559523Y-57912380D02*
X162226190Y-57912380D01*
X161797619Y-58912380D01*
X162464285Y-57912380D02*
X163035714Y-57912380D01*
X162750000Y-58912380D02*
X162750000Y-57912380D01*
X163702380Y-58388571D02*
X163369047Y-58388571D01*
X163369047Y-58912380D02*
X163369047Y-57912380D01*
X163845238Y-57912380D01*
D12*
X168354285Y-67222857D02*
X168354285Y-64937142D01*
X166997142Y-56134285D02*
X169282857Y-56134285D01*
X168140000Y-57277142D02*
X168140000Y-54991428D01*
%TO.C,SC4*%
D13*
X171904761Y-94761904D02*
X171952380Y-94619047D01*
X171952380Y-94380952D01*
X171904761Y-94285714D01*
X171857142Y-94238095D01*
X171761904Y-94190476D01*
X171666666Y-94190476D01*
X171571428Y-94238095D01*
X171523809Y-94285714D01*
X171476190Y-94380952D01*
X171428571Y-94571428D01*
X171380952Y-94666666D01*
X171333333Y-94714285D01*
X171238095Y-94761904D01*
X171142857Y-94761904D01*
X171047619Y-94714285D01*
X171000000Y-94666666D01*
X170952380Y-94571428D01*
X170952380Y-94333333D01*
X171000000Y-94190476D01*
X171857142Y-93190476D02*
X171904761Y-93238095D01*
X171952380Y-93380952D01*
X171952380Y-93476190D01*
X171904761Y-93619047D01*
X171809523Y-93714285D01*
X171714285Y-93761904D01*
X171523809Y-93809523D01*
X171380952Y-93809523D01*
X171190476Y-93761904D01*
X171095238Y-93714285D01*
X171000000Y-93619047D01*
X170952380Y-93476190D01*
X170952380Y-93380952D01*
X171000000Y-93238095D01*
X171047619Y-93190476D01*
X171285714Y-92333333D02*
X171952380Y-92333333D01*
X170904761Y-92571428D02*
X171619047Y-92809523D01*
X171619047Y-92190476D01*
X168864761Y-98047619D02*
X168912380Y-97904761D01*
X168912380Y-97666666D01*
X168864761Y-97571428D01*
X168817142Y-97523809D01*
X168721904Y-97476190D01*
X168626666Y-97476190D01*
X168531428Y-97523809D01*
X168483809Y-97571428D01*
X168436190Y-97666666D01*
X168388571Y-97857142D01*
X168340952Y-97952380D01*
X168293333Y-98000000D01*
X168198095Y-98047619D01*
X168102857Y-98047619D01*
X168007619Y-98000000D01*
X167960000Y-97952380D01*
X167912380Y-97857142D01*
X167912380Y-97619047D01*
X167960000Y-97476190D01*
X168912380Y-97047619D02*
X167912380Y-97047619D01*
X168626666Y-96714285D01*
X167912380Y-96380952D01*
X168912380Y-96380952D01*
X168912380Y-95380952D02*
X168912380Y-95952380D01*
X168912380Y-95666666D02*
X167912380Y-95666666D01*
X168055238Y-95761904D01*
X168150476Y-95857142D01*
X168198095Y-95952380D01*
X167912380Y-94761904D02*
X167912380Y-94666666D01*
X167960000Y-94571428D01*
X168007619Y-94523809D01*
X168102857Y-94476190D01*
X168293333Y-94428571D01*
X168531428Y-94428571D01*
X168721904Y-94476190D01*
X168817142Y-94523809D01*
X168864761Y-94571428D01*
X168912380Y-94666666D01*
X168912380Y-94761904D01*
X168864761Y-94857142D01*
X168817142Y-94904761D01*
X168721904Y-94952380D01*
X168531428Y-95000000D01*
X168293333Y-95000000D01*
X168102857Y-94952380D01*
X168007619Y-94904761D01*
X167960000Y-94857142D01*
X167912380Y-94761904D01*
X168912380Y-93476190D02*
X168912380Y-94047619D01*
X168912380Y-93761904D02*
X167912380Y-93761904D01*
X168055238Y-93857142D01*
X168150476Y-93952380D01*
X168198095Y-94047619D01*
X168912380Y-93047619D02*
X167912380Y-93047619D01*
X168912380Y-92476190D02*
X168340952Y-92904761D01*
X167912380Y-92476190D02*
X168483809Y-93047619D01*
X167912380Y-91857142D02*
X167912380Y-91761904D01*
X167960000Y-91666666D01*
X168007619Y-91619047D01*
X168102857Y-91571428D01*
X168293333Y-91523809D01*
X168531428Y-91523809D01*
X168721904Y-91571428D01*
X168817142Y-91619047D01*
X168864761Y-91666666D01*
X168912380Y-91761904D01*
X168912380Y-91857142D01*
X168864761Y-91952380D01*
X168817142Y-92000000D01*
X168721904Y-92047619D01*
X168531428Y-92095238D01*
X168293333Y-92095238D01*
X168102857Y-92047619D01*
X168007619Y-92000000D01*
X167960000Y-91952380D01*
X167912380Y-91857142D01*
X167912380Y-91190476D02*
X167912380Y-90523809D01*
X168912380Y-90952380D01*
X167912380Y-90285714D02*
X167912380Y-89714285D01*
X168912380Y-90000000D02*
X167912380Y-90000000D01*
X168388571Y-89047619D02*
X168388571Y-89380952D01*
X168912380Y-89380952D02*
X167912380Y-89380952D01*
X167912380Y-88904761D01*
D12*
X174937142Y-84824285D02*
X177222857Y-84824285D01*
X166134285Y-85752857D02*
X166134285Y-83467142D01*
X167277142Y-84610000D02*
X164991428Y-84610000D01*
%TO.C,SC3*%
D13*
X166654761Y-130511904D02*
X166702380Y-130369047D01*
X166702380Y-130130952D01*
X166654761Y-130035714D01*
X166607142Y-129988095D01*
X166511904Y-129940476D01*
X166416666Y-129940476D01*
X166321428Y-129988095D01*
X166273809Y-130035714D01*
X166226190Y-130130952D01*
X166178571Y-130321428D01*
X166130952Y-130416666D01*
X166083333Y-130464285D01*
X165988095Y-130511904D01*
X165892857Y-130511904D01*
X165797619Y-130464285D01*
X165750000Y-130416666D01*
X165702380Y-130321428D01*
X165702380Y-130083333D01*
X165750000Y-129940476D01*
X166607142Y-128940476D02*
X166654761Y-128988095D01*
X166702380Y-129130952D01*
X166702380Y-129226190D01*
X166654761Y-129369047D01*
X166559523Y-129464285D01*
X166464285Y-129511904D01*
X166273809Y-129559523D01*
X166130952Y-129559523D01*
X165940476Y-129511904D01*
X165845238Y-129464285D01*
X165750000Y-129369047D01*
X165702380Y-129226190D01*
X165702380Y-129130952D01*
X165750000Y-128988095D01*
X165797619Y-128940476D01*
X165702380Y-128607142D02*
X165702380Y-127988095D01*
X166083333Y-128321428D01*
X166083333Y-128178571D01*
X166130952Y-128083333D01*
X166178571Y-128035714D01*
X166273809Y-127988095D01*
X166511904Y-127988095D01*
X166607142Y-128035714D01*
X166654761Y-128083333D01*
X166702380Y-128178571D01*
X166702380Y-128464285D01*
X166654761Y-128559523D01*
X166607142Y-128607142D01*
X163614761Y-133797619D02*
X163662380Y-133654761D01*
X163662380Y-133416666D01*
X163614761Y-133321428D01*
X163567142Y-133273809D01*
X163471904Y-133226190D01*
X163376666Y-133226190D01*
X163281428Y-133273809D01*
X163233809Y-133321428D01*
X163186190Y-133416666D01*
X163138571Y-133607142D01*
X163090952Y-133702380D01*
X163043333Y-133750000D01*
X162948095Y-133797619D01*
X162852857Y-133797619D01*
X162757619Y-133750000D01*
X162710000Y-133702380D01*
X162662380Y-133607142D01*
X162662380Y-133369047D01*
X162710000Y-133226190D01*
X163662380Y-132797619D02*
X162662380Y-132797619D01*
X163376666Y-132464285D01*
X162662380Y-132130952D01*
X163662380Y-132130952D01*
X163662380Y-131130952D02*
X163662380Y-131702380D01*
X163662380Y-131416666D02*
X162662380Y-131416666D01*
X162805238Y-131511904D01*
X162900476Y-131607142D01*
X162948095Y-131702380D01*
X162662380Y-130511904D02*
X162662380Y-130416666D01*
X162710000Y-130321428D01*
X162757619Y-130273809D01*
X162852857Y-130226190D01*
X163043333Y-130178571D01*
X163281428Y-130178571D01*
X163471904Y-130226190D01*
X163567142Y-130273809D01*
X163614761Y-130321428D01*
X163662380Y-130416666D01*
X163662380Y-130511904D01*
X163614761Y-130607142D01*
X163567142Y-130654761D01*
X163471904Y-130702380D01*
X163281428Y-130750000D01*
X163043333Y-130750000D01*
X162852857Y-130702380D01*
X162757619Y-130654761D01*
X162710000Y-130607142D01*
X162662380Y-130511904D01*
X163662380Y-129226190D02*
X163662380Y-129797619D01*
X163662380Y-129511904D02*
X162662380Y-129511904D01*
X162805238Y-129607142D01*
X162900476Y-129702380D01*
X162948095Y-129797619D01*
X163662380Y-128797619D02*
X162662380Y-128797619D01*
X163662380Y-128226190D02*
X163090952Y-128654761D01*
X162662380Y-128226190D02*
X163233809Y-128797619D01*
X162662380Y-127607142D02*
X162662380Y-127511904D01*
X162710000Y-127416666D01*
X162757619Y-127369047D01*
X162852857Y-127321428D01*
X163043333Y-127273809D01*
X163281428Y-127273809D01*
X163471904Y-127321428D01*
X163567142Y-127369047D01*
X163614761Y-127416666D01*
X163662380Y-127511904D01*
X163662380Y-127607142D01*
X163614761Y-127702380D01*
X163567142Y-127750000D01*
X163471904Y-127797619D01*
X163281428Y-127845238D01*
X163043333Y-127845238D01*
X162852857Y-127797619D01*
X162757619Y-127750000D01*
X162710000Y-127702380D01*
X162662380Y-127607142D01*
X162662380Y-126940476D02*
X162662380Y-126273809D01*
X163662380Y-126702380D01*
X162662380Y-126035714D02*
X162662380Y-125464285D01*
X163662380Y-125750000D02*
X162662380Y-125750000D01*
X163138571Y-124797619D02*
X163138571Y-125130952D01*
X163662380Y-125130952D02*
X162662380Y-125130952D01*
X162662380Y-124654761D01*
D12*
X169687142Y-120574285D02*
X171972857Y-120574285D01*
X160884285Y-121502857D02*
X160884285Y-119217142D01*
X162027142Y-120360000D02*
X159741428Y-120360000D01*
%TO.C,SC2*%
D13*
X118154761Y-130511904D02*
X118202380Y-130369047D01*
X118202380Y-130130952D01*
X118154761Y-130035714D01*
X118107142Y-129988095D01*
X118011904Y-129940476D01*
X117916666Y-129940476D01*
X117821428Y-129988095D01*
X117773809Y-130035714D01*
X117726190Y-130130952D01*
X117678571Y-130321428D01*
X117630952Y-130416666D01*
X117583333Y-130464285D01*
X117488095Y-130511904D01*
X117392857Y-130511904D01*
X117297619Y-130464285D01*
X117250000Y-130416666D01*
X117202380Y-130321428D01*
X117202380Y-130083333D01*
X117250000Y-129940476D01*
X118107142Y-128940476D02*
X118154761Y-128988095D01*
X118202380Y-129130952D01*
X118202380Y-129226190D01*
X118154761Y-129369047D01*
X118059523Y-129464285D01*
X117964285Y-129511904D01*
X117773809Y-129559523D01*
X117630952Y-129559523D01*
X117440476Y-129511904D01*
X117345238Y-129464285D01*
X117250000Y-129369047D01*
X117202380Y-129226190D01*
X117202380Y-129130952D01*
X117250000Y-128988095D01*
X117297619Y-128940476D01*
X117297619Y-128559523D02*
X117250000Y-128511904D01*
X117202380Y-128416666D01*
X117202380Y-128178571D01*
X117250000Y-128083333D01*
X117297619Y-128035714D01*
X117392857Y-127988095D01*
X117488095Y-127988095D01*
X117630952Y-128035714D01*
X118202380Y-128607142D01*
X118202380Y-127988095D01*
X115114761Y-133797619D02*
X115162380Y-133654761D01*
X115162380Y-133416666D01*
X115114761Y-133321428D01*
X115067142Y-133273809D01*
X114971904Y-133226190D01*
X114876666Y-133226190D01*
X114781428Y-133273809D01*
X114733809Y-133321428D01*
X114686190Y-133416666D01*
X114638571Y-133607142D01*
X114590952Y-133702380D01*
X114543333Y-133750000D01*
X114448095Y-133797619D01*
X114352857Y-133797619D01*
X114257619Y-133750000D01*
X114210000Y-133702380D01*
X114162380Y-133607142D01*
X114162380Y-133369047D01*
X114210000Y-133226190D01*
X115162380Y-132797619D02*
X114162380Y-132797619D01*
X114876666Y-132464285D01*
X114162380Y-132130952D01*
X115162380Y-132130952D01*
X115162380Y-131130952D02*
X115162380Y-131702380D01*
X115162380Y-131416666D02*
X114162380Y-131416666D01*
X114305238Y-131511904D01*
X114400476Y-131607142D01*
X114448095Y-131702380D01*
X114162380Y-130511904D02*
X114162380Y-130416666D01*
X114210000Y-130321428D01*
X114257619Y-130273809D01*
X114352857Y-130226190D01*
X114543333Y-130178571D01*
X114781428Y-130178571D01*
X114971904Y-130226190D01*
X115067142Y-130273809D01*
X115114761Y-130321428D01*
X115162380Y-130416666D01*
X115162380Y-130511904D01*
X115114761Y-130607142D01*
X115067142Y-130654761D01*
X114971904Y-130702380D01*
X114781428Y-130750000D01*
X114543333Y-130750000D01*
X114352857Y-130702380D01*
X114257619Y-130654761D01*
X114210000Y-130607142D01*
X114162380Y-130511904D01*
X115162380Y-129226190D02*
X115162380Y-129797619D01*
X115162380Y-129511904D02*
X114162380Y-129511904D01*
X114305238Y-129607142D01*
X114400476Y-129702380D01*
X114448095Y-129797619D01*
X115162380Y-128797619D02*
X114162380Y-128797619D01*
X115162380Y-128226190D02*
X114590952Y-128654761D01*
X114162380Y-128226190D02*
X114733809Y-128797619D01*
X114162380Y-127607142D02*
X114162380Y-127511904D01*
X114210000Y-127416666D01*
X114257619Y-127369047D01*
X114352857Y-127321428D01*
X114543333Y-127273809D01*
X114781428Y-127273809D01*
X114971904Y-127321428D01*
X115067142Y-127369047D01*
X115114761Y-127416666D01*
X115162380Y-127511904D01*
X115162380Y-127607142D01*
X115114761Y-127702380D01*
X115067142Y-127750000D01*
X114971904Y-127797619D01*
X114781428Y-127845238D01*
X114543333Y-127845238D01*
X114352857Y-127797619D01*
X114257619Y-127750000D01*
X114210000Y-127702380D01*
X114162380Y-127607142D01*
X114162380Y-126940476D02*
X114162380Y-126273809D01*
X115162380Y-126702380D01*
X114162380Y-126035714D02*
X114162380Y-125464285D01*
X115162380Y-125750000D02*
X114162380Y-125750000D01*
X114638571Y-124797619D02*
X114638571Y-125130952D01*
X115162380Y-125130952D02*
X114162380Y-125130952D01*
X114162380Y-124654761D01*
D12*
X121187142Y-120574285D02*
X123472857Y-120574285D01*
X112384285Y-121502857D02*
X112384285Y-119217142D01*
X113527142Y-120360000D02*
X111241428Y-120360000D01*
%TO.C,SC1*%
D13*
X112904761Y-94761904D02*
X112952380Y-94619047D01*
X112952380Y-94380952D01*
X112904761Y-94285714D01*
X112857142Y-94238095D01*
X112761904Y-94190476D01*
X112666666Y-94190476D01*
X112571428Y-94238095D01*
X112523809Y-94285714D01*
X112476190Y-94380952D01*
X112428571Y-94571428D01*
X112380952Y-94666666D01*
X112333333Y-94714285D01*
X112238095Y-94761904D01*
X112142857Y-94761904D01*
X112047619Y-94714285D01*
X112000000Y-94666666D01*
X111952380Y-94571428D01*
X111952380Y-94333333D01*
X112000000Y-94190476D01*
X112857142Y-93190476D02*
X112904761Y-93238095D01*
X112952380Y-93380952D01*
X112952380Y-93476190D01*
X112904761Y-93619047D01*
X112809523Y-93714285D01*
X112714285Y-93761904D01*
X112523809Y-93809523D01*
X112380952Y-93809523D01*
X112190476Y-93761904D01*
X112095238Y-93714285D01*
X112000000Y-93619047D01*
X111952380Y-93476190D01*
X111952380Y-93380952D01*
X112000000Y-93238095D01*
X112047619Y-93190476D01*
X112952380Y-92238095D02*
X112952380Y-92809523D01*
X112952380Y-92523809D02*
X111952380Y-92523809D01*
X112095238Y-92619047D01*
X112190476Y-92714285D01*
X112238095Y-92809523D01*
X109864761Y-98047619D02*
X109912380Y-97904761D01*
X109912380Y-97666666D01*
X109864761Y-97571428D01*
X109817142Y-97523809D01*
X109721904Y-97476190D01*
X109626666Y-97476190D01*
X109531428Y-97523809D01*
X109483809Y-97571428D01*
X109436190Y-97666666D01*
X109388571Y-97857142D01*
X109340952Y-97952380D01*
X109293333Y-98000000D01*
X109198095Y-98047619D01*
X109102857Y-98047619D01*
X109007619Y-98000000D01*
X108960000Y-97952380D01*
X108912380Y-97857142D01*
X108912380Y-97619047D01*
X108960000Y-97476190D01*
X109912380Y-97047619D02*
X108912380Y-97047619D01*
X109626666Y-96714285D01*
X108912380Y-96380952D01*
X109912380Y-96380952D01*
X109912380Y-95380952D02*
X109912380Y-95952380D01*
X109912380Y-95666666D02*
X108912380Y-95666666D01*
X109055238Y-95761904D01*
X109150476Y-95857142D01*
X109198095Y-95952380D01*
X108912380Y-94761904D02*
X108912380Y-94666666D01*
X108960000Y-94571428D01*
X109007619Y-94523809D01*
X109102857Y-94476190D01*
X109293333Y-94428571D01*
X109531428Y-94428571D01*
X109721904Y-94476190D01*
X109817142Y-94523809D01*
X109864761Y-94571428D01*
X109912380Y-94666666D01*
X109912380Y-94761904D01*
X109864761Y-94857142D01*
X109817142Y-94904761D01*
X109721904Y-94952380D01*
X109531428Y-95000000D01*
X109293333Y-95000000D01*
X109102857Y-94952380D01*
X109007619Y-94904761D01*
X108960000Y-94857142D01*
X108912380Y-94761904D01*
X109912380Y-93476190D02*
X109912380Y-94047619D01*
X109912380Y-93761904D02*
X108912380Y-93761904D01*
X109055238Y-93857142D01*
X109150476Y-93952380D01*
X109198095Y-94047619D01*
X109912380Y-93047619D02*
X108912380Y-93047619D01*
X109912380Y-92476190D02*
X109340952Y-92904761D01*
X108912380Y-92476190D02*
X109483809Y-93047619D01*
X108912380Y-91857142D02*
X108912380Y-91761904D01*
X108960000Y-91666666D01*
X109007619Y-91619047D01*
X109102857Y-91571428D01*
X109293333Y-91523809D01*
X109531428Y-91523809D01*
X109721904Y-91571428D01*
X109817142Y-91619047D01*
X109864761Y-91666666D01*
X109912380Y-91761904D01*
X109912380Y-91857142D01*
X109864761Y-91952380D01*
X109817142Y-92000000D01*
X109721904Y-92047619D01*
X109531428Y-92095238D01*
X109293333Y-92095238D01*
X109102857Y-92047619D01*
X109007619Y-92000000D01*
X108960000Y-91952380D01*
X108912380Y-91857142D01*
X108912380Y-91190476D02*
X108912380Y-90523809D01*
X109912380Y-90952380D01*
X108912380Y-90285714D02*
X108912380Y-89714285D01*
X109912380Y-90000000D02*
X108912380Y-90000000D01*
X109388571Y-89047619D02*
X109388571Y-89380952D01*
X109912380Y-89380952D02*
X108912380Y-89380952D01*
X108912380Y-88904761D01*
D12*
X115937142Y-84824285D02*
X118222857Y-84824285D01*
X107134285Y-85752857D02*
X107134285Y-83467142D01*
X108277142Y-84610000D02*
X105991428Y-84610000D01*
%TD*%
M02*
