  0
SECTION
  2
HEADER
  9
$ANGBASE
  50
0.0
  9
$ANGDIR
  70
1
  9
$MEASUREMENT
  70
1
  0
ENDSEC
  0
SECTION
  2
TABLES
  0
TABLE
  2
LTYPE
  70
4
  0
LTYPE
  5
40F
  2
CONTINUOUS
  70
0
  3
Solid line
  72
65
  73
0
  40
0.0
  0
LTYPE
  5
410
  2
DASHDOT
 70
0
  3
Dash Dot ____ _ ____ _
 72
65
 73
4
 40
2.0
 49
1.25
 49
-0.25
 49
0.25
 49
-0.25
  0
LTYPE
  5
411
  2
DASHED
 70
0
  3
Dashed __ __ __ __ __
 72
65
 73
2
 40
0.75
 49
0.5
 49
-0.25
  0
LTYPE
  5
43B
  2
DOTTED
 70
0
  3
Dotted .  .  .  .
 72
65
 73
2
 40
0.2
 49
0.0
 49
-0.2
  0
ENDTAB
  0
TABLE
  2
STYLE
  70
4
  0
STYLE
  2
KICAD
  70
0
  40
0
  41
1
  42
1
  50
0
  71
0
  3
isocp.shx
  0
STYLE
  2
KICADB
  70
0
  40
0
  41
1
  42
1
  50
0
  71
0
  3
isocp.shx
  0
STYLE
  2
KICADI
  70
0
  40
0
  41
1
  42
1
  50
15
  71
0
  3
isocp.shx
  0
STYLE
  2
KICADBI
  70
0
  40
0
  41
1
  42
1
  50
15
  71
0
  3
isocp.shx
  0
ENDTAB
  0
TABLE
  2
LAYER
  70
1
  0
LAYER
  2
BLACK
  70
0
  62
7
  6
CONTINUOUS
  0
ENDTAB
  0
ENDSEC
  0
SECTION
  2
ENTITIES
0
LINE
8
BLACK
6
CONTINUOUS
10
126.5
20
-83.75
11
126.5
21
-71.75
0
LINE
8
BLACK
6
CONTINUOUS
10
156.5
20
-83.75
11
126.5
21
-83.75
0
LINE
8
BLACK
6
CONTINUOUS
10
156.5
20
-71.75
11
156.5
21
-83.75
0
LINE
8
BLACK
6
CONTINUOUS
10
126.5
20
-71.75
11
156.5
21
-71.75
0
ARC
8
BLACK
10
146.5
20
-136.93
40
2.65
50
180
51
360
0
ARC
8
BLACK
10
146.5
20
-130.93
40
2.65
50
-0
51
180
0
ARC
8
BLACK
10
136.5
20
-136.93
40
2.65
50
180
51
360
0
ARC
8
BLACK
10
136.5
20
-130.93
40
2.65
50
-0
51
180
0
ARC
8
BLACK
10
146.5
20
-66.53
40
2.65
50
180
51
360
0
ARC
8
BLACK
10
146.5
20
-60.53
40
2.65
50
-0
51
180
0
ARC
8
BLACK
10
136.5
20
-66.53
40
2.65
50
180
51
360
0
ARC
8
BLACK
10
136.5
20
-60.53
40
2.65
50
-0
51
180
0
LINE
8
BLACK
6
CONTINUOUS
10
149.15
20
-136.93
11
149.15
21
-130.93
0
LINE
8
BLACK
6
CONTINUOUS
10
143.85
20
-130.93
11
143.85
21
-136.93
0
LINE
8
BLACK
6
CONTINUOUS
10
139.15
20
-136.93
11
139.15
21
-130.93
0
LINE
8
BLACK
6
CONTINUOUS
10
133.85
20
-130.93
11
133.85
21
-136.93
0
LINE
8
BLACK
6
CONTINUOUS
10
149.15
20
-60.53
11
149.15
21
-66.53
0
LINE
8
BLACK
6
CONTINUOUS
10
143.85
20
-60.53
11
143.85
21
-66.53
0
LINE
8
BLACK
6
CONTINUOUS
10
139.15
20
-60.53
11
139.15
21
-66.53
0
LINE
8
BLACK
6
CONTINUOUS
10
133.85
20
-66.53
11
133.85
21
-60.53
0
CIRCLE
8
BLACK
10
177.5
20
-98.58
40
2.625
0
CIRCLE
8
BLACK
10
177.5
20
-126.08
40
2.625
0
CIRCLE
8
BLACK
10
105.5
20
-126.08
40
2.625
0
CIRCLE
8
BLACK
10
105.5
20
-98.58
40
2.625
0
LINE
8
BLACK
6
CONTINUOUS
10
183
20
-49.75
11
100
21
-49.75
0
LINE
8
BLACK
6
CONTINUOUS
10
183
20
-147.75
11
183
21
-49.75
0
LINE
8
BLACK
6
CONTINUOUS
10
100
20
-147.75
11
183
21
-147.75
0
LINE
8
BLACK
6
CONTINUOUS
10
100
20
-49.75
11
100
21
-147.75
0
LINE
8
BLACK
6
CONTINUOUS
10
102.839
20
-152.432
11
102.839
21
-149.432
0
LINE
8
BLACK
6
CONTINUOUS
10
102.839
20
-149.432
11
103.554
21
-149.432
0
LINE
8
BLACK
6
CONTINUOUS
10
103.554
20
-149.432
11
103.982
21
-149.575
0
LINE
8
BLACK
6
CONTINUOUS
10
103.982
20
-149.575
11
104.268
21
-149.861
0
LINE
8
BLACK
6
CONTINUOUS
10
104.268
20
-149.861
11
104.411
21
-150.146
0
LINE
8
BLACK
6
CONTINUOUS
10
104.411
20
-150.146
11
104.554
21
-150.718
0
LINE
8
BLACK
6
CONTINUOUS
10
104.554
20
-150.718
11
104.554
21
-151.146
0
LINE
8
BLACK
6
CONTINUOUS
10
104.554
20
-151.146
11
104.411
21
-151.718
0
LINE
8
BLACK
6
CONTINUOUS
10
104.411
20
-151.718
11
104.268
21
-152.004
0
LINE
8
BLACK
6
CONTINUOUS
10
104.268
20
-152.004
11
103.982
21
-152.289
0
LINE
8
BLACK
6
CONTINUOUS
10
103.982
20
-152.289
11
103.554
21
-152.432
0
LINE
8
BLACK
6
CONTINUOUS
10
103.554
20
-152.432
11
102.839
21
-152.432
0
LINE
8
BLACK
6
CONTINUOUS
10
105.839
20
-152.432
11
105.839
21
-150.432
0
LINE
8
BLACK
6
CONTINUOUS
10
105.839
20
-151.004
11
105.982
21
-150.718
0
LINE
8
BLACK
6
CONTINUOUS
10
105.982
20
-150.718
11
106.125
21
-150.575
0
LINE
8
BLACK
6
CONTINUOUS
10
106.125
20
-150.575
11
106.411
21
-150.432
0
LINE
8
BLACK
6
CONTINUOUS
10
106.411
20
-150.432
11
106.696
21
-150.432
0
LINE
8
BLACK
6
CONTINUOUS
10
107.696
20
-152.432
11
107.696
21
-150.432
0
LINE
8
BLACK
6
CONTINUOUS
10
107.696
20
-149.432
11
107.554
21
-149.575
0
LINE
8
BLACK
6
CONTINUOUS
10
107.554
20
-149.575
11
107.696
21
-149.718
0
LINE
8
BLACK
6
CONTINUOUS
10
107.696
20
-149.718
11
107.839
21
-149.575
0
LINE
8
BLACK
6
CONTINUOUS
10
107.839
20
-149.575
11
107.696
21
-149.432
0
LINE
8
BLACK
6
CONTINUOUS
10
107.696
20
-149.432
11
107.696
21
-149.718
0
LINE
8
BLACK
6
CONTINUOUS
10
109.554
20
-152.432
11
109.268
21
-152.289
0
LINE
8
BLACK
6
CONTINUOUS
10
109.268
20
-152.289
11
109.125
21
-152.004
0
LINE
8
BLACK
6
CONTINUOUS
10
109.125
20
-152.004
11
109.125
21
-149.432
0
LINE
8
BLACK
6
CONTINUOUS
10
111.125
20
-152.432
11
110.839
21
-152.289
0
LINE
8
BLACK
6
CONTINUOUS
10
110.839
20
-152.289
11
110.696
21
-152.004
0
LINE
8
BLACK
6
CONTINUOUS
10
110.696
20
-152.004
11
110.696
21
-149.432
0
LINE
8
BLACK
6
CONTINUOUS
10
114.554
20
-152.432
11
114.554
21
-149.432
0
LINE
8
BLACK
6
CONTINUOUS
10
114.554
20
-149.432
11
115.554
21
-151.575
0
LINE
8
BLACK
6
CONTINUOUS
10
115.554
20
-151.575
11
116.554
21
-149.432
0
LINE
8
BLACK
6
CONTINUOUS
10
116.554
20
-149.432
11
116.554
21
-152.432
0
LINE
8
BLACK
6
CONTINUOUS
10
119.268
20
-152.432
11
119.268
21
-150.861
0
LINE
8
BLACK
6
CONTINUOUS
10
119.268
20
-150.861
11
119.125
21
-150.575
0
LINE
8
BLACK
6
CONTINUOUS
10
119.125
20
-150.575
11
118.839
21
-150.432
0
LINE
8
BLACK
6
CONTINUOUS
10
118.839
20
-150.432
11
118.268
21
-150.432
0
LINE
8
BLACK
6
CONTINUOUS
10
118.268
20
-150.432
11
117.982
21
-150.575
0
LINE
8
BLACK
6
CONTINUOUS
10
119.268
20
-152.289
11
118.982
21
-152.432
0
LINE
8
BLACK
6
CONTINUOUS
10
118.982
20
-152.432
11
118.268
21
-152.432
0
LINE
8
BLACK
6
CONTINUOUS
10
118.268
20
-152.432
11
117.982
21
-152.289
0
LINE
8
BLACK
6
CONTINUOUS
10
117.982
20
-152.289
11
117.839
21
-152.004
0
LINE
8
BLACK
6
CONTINUOUS
10
117.839
20
-152.004
11
117.839
21
-151.718
0
LINE
8
BLACK
6
CONTINUOUS
10
117.839
20
-151.718
11
117.982
21
-151.432
0
LINE
8
BLACK
6
CONTINUOUS
10
117.982
20
-151.432
11
118.268
21
-151.289
0
LINE
8
BLACK
6
CONTINUOUS
10
118.268
20
-151.289
11
118.982
21
-151.289
0
LINE
8
BLACK
6
CONTINUOUS
10
118.982
20
-151.289
11
119.268
21
-151.146
0
LINE
8
BLACK
6
CONTINUOUS
10
120.696
20
-150.432
11
120.696
21
-153.432
0
LINE
8
BLACK
6
CONTINUOUS
10
120.696
20
-150.575
11
120.982
21
-150.432
0
LINE
8
BLACK
6
CONTINUOUS
10
120.982
20
-150.432
11
121.554
21
-150.432
0
LINE
8
BLACK
6
CONTINUOUS
10
121.554
20
-150.432
11
121.839
21
-150.575
0
LINE
8
BLACK
6
CONTINUOUS
10
121.839
20
-150.575
11
121.982
21
-150.718
0
LINE
8
BLACK
6
CONTINUOUS
10
121.982
20
-150.718
11
122.125
21
-151.004
0
LINE
8
BLACK
6
CONTINUOUS
10
122.125
20
-151.004
11
122.125
21
-151.861
0
LINE
8
BLACK
6
CONTINUOUS
10
122.125
20
-151.861
11
121.982
21
-152.146
0
LINE
8
BLACK
6
CONTINUOUS
10
121.982
20
-152.146
11
121.839
21
-152.289
0
LINE
8
BLACK
6
CONTINUOUS
10
121.839
20
-152.289
11
121.554
21
-152.432
0
LINE
8
BLACK
6
CONTINUOUS
10
121.554
20
-152.432
11
120.982
21
-152.432
0
LINE
8
BLACK
6
CONTINUOUS
10
120.982
20
-152.432
11
120.696
21
-152.289
0
LINE
8
BLACK
6
CONTINUOUS
10
123.411
20
-152.146
11
123.554
21
-152.289
0
LINE
8
BLACK
6
CONTINUOUS
10
123.554
20
-152.289
11
123.411
21
-152.432
0
LINE
8
BLACK
6
CONTINUOUS
10
123.411
20
-152.432
11
123.268
21
-152.289
0
LINE
8
BLACK
6
CONTINUOUS
10
123.268
20
-152.289
11
123.411
21
-152.146
0
LINE
8
BLACK
6
CONTINUOUS
10
123.411
20
-152.146
11
123.411
21
-152.432
0
LINE
8
BLACK
6
CONTINUOUS
10
123.411
20
-150.575
11
123.554
21
-150.718
0
LINE
8
BLACK
6
CONTINUOUS
10
123.554
20
-150.718
11
123.411
21
-150.861
0
LINE
8
BLACK
6
CONTINUOUS
10
123.411
20
-150.861
11
123.268
21
-150.718
0
LINE
8
BLACK
6
CONTINUOUS
10
123.268
20
-150.718
11
123.411
21
-150.575
0
LINE
8
BLACK
6
CONTINUOUS
10
123.411
20
-150.575
11
123.411
21
-150.861
  0
ENDSEC
  0
EOF
