  0
SECTION
  2
HEADER
  9
$ANGBASE
  50
0.0
  9
$ANGDIR
  70
1
  9
$MEASUREMENT
  70
1
  0
ENDSEC
  0
SECTION
  2
TABLES
  0
TABLE
  2
LTYPE
  70
4
  0
LTYPE
  5
40F
  2
CONTINUOUS
  70
0
  3
Solid line
  72
65
  73
0
  40
0.0
  0
LTYPE
  5
410
  2
DASHDOT
 70
0
  3
Dash Dot ____ _ ____ _
 72
65
 73
4
 40
2.0
 49
1.25
 49
-0.25
 49
0.25
 49
-0.25
  0
LTYPE
  5
411
  2
DASHED
 70
0
  3
Dashed __ __ __ __ __
 72
65
 73
2
 40
0.75
 49
0.5
 49
-0.25
  0
LTYPE
  5
43B
  2
DOTTED
 70
0
  3
Dotted .  .  .  .
 72
65
 73
2
 40
0.2
 49
0.0
 49
-0.2
  0
ENDTAB
  0
TABLE
  2
STYLE
  70
4
  0
STYLE
  2
KICAD
  70
0
  40
0
  41
1
  42
1
  50
0
  71
0
  3
isocp.shx
  0
STYLE
  2
KICADB
  70
0
  40
0
  41
1
  42
1
  50
0
  71
0
  3
isocp.shx
  0
STYLE
  2
KICADI
  70
0
  40
0
  41
1
  42
1
  50
15
  71
0
  3
isocp.shx
  0
STYLE
  2
KICADBI
  70
0
  40
0
  41
1
  42
1
  50
15
  71
0
  3
isocp.shx
  0
ENDTAB
  0
TABLE
  2
LAYER
  70
1
  0
LAYER
  2
BLACK
  70
0
  62
7
  6
CONTINUOUS
  0
ENDTAB
  0
ENDSEC
  0
SECTION
  2
ENTITIES
0
LINE
8
BLACK
6
CONTINUOUS
10
126.5
20
-83.75
11
126.5
21
-71.75
0
LINE
8
BLACK
6
CONTINUOUS
10
156.5
20
-83.75
11
126.5
21
-83.75
0
LINE
8
BLACK
6
CONTINUOUS
10
156.5
20
-71.75
11
156.5
21
-83.75
0
LINE
8
BLACK
6
CONTINUOUS
10
126.5
20
-71.75
11
156.5
21
-71.75
0
ARC
8
BLACK
10
146.5
20
-136.93
40
2.65
50
180
51
360
0
ARC
8
BLACK
10
146.5
20
-130.93
40
2.65
50
-0
51
180
0
ARC
8
BLACK
10
136.5
20
-136.93
40
2.65
50
180
51
360
0
ARC
8
BLACK
10
136.5
20
-130.93
40
2.65
50
-0
51
180
0
ARC
8
BLACK
10
146.5
20
-66.53
40
2.65
50
180
51
360
0
ARC
8
BLACK
10
146.5
20
-60.53
40
2.65
50
-0
51
180
0
ARC
8
BLACK
10
136.5
20
-66.53
40
2.65
50
180
51
360
0
ARC
8
BLACK
10
136.5
20
-60.53
40
2.65
50
-0
51
180
0
LINE
8
BLACK
6
CONTINUOUS
10
149.15
20
-136.93
11
149.15
21
-130.93
0
LINE
8
BLACK
6
CONTINUOUS
10
143.85
20
-130.93
11
143.85
21
-136.93
0
LINE
8
BLACK
6
CONTINUOUS
10
139.15
20
-136.93
11
139.15
21
-130.93
0
LINE
8
BLACK
6
CONTINUOUS
10
133.85
20
-130.93
11
133.85
21
-136.93
0
LINE
8
BLACK
6
CONTINUOUS
10
149.15
20
-60.53
11
149.15
21
-66.53
0
LINE
8
BLACK
6
CONTINUOUS
10
143.85
20
-60.53
11
143.85
21
-66.53
0
LINE
8
BLACK
6
CONTINUOUS
10
139.15
20
-60.53
11
139.15
21
-66.53
0
LINE
8
BLACK
6
CONTINUOUS
10
133.85
20
-66.53
11
133.85
21
-60.53
0
CIRCLE
8
BLACK
10
177.5
20
-98.58
40
2.625
0
CIRCLE
8
BLACK
10
177.5
20
-126.08
40
2.625
0
CIRCLE
8
BLACK
10
105.5
20
-126.08
40
2.625
0
CIRCLE
8
BLACK
10
105.5
20
-98.58
40
2.625
0
LINE
8
BLACK
6
CONTINUOUS
10
183
20
-49.75
11
100
21
-49.75
0
LINE
8
BLACK
6
CONTINUOUS
10
183
20
-147.75
11
183
21
-49.75
0
LINE
8
BLACK
6
CONTINUOUS
10
100
20
-147.75
11
183
21
-147.75
0
LINE
8
BLACK
6
CONTINUOUS
10
100
20
-49.75
11
100
21
-147.75
0
LINE
8
BLACK
6
CONTINUOUS
10
119.8
20
-106.05
11
120.2
21
-106.45
0
LINE
8
BLACK
6
CONTINUOUS
10
120.2
20
-106.05
11
119.8
21
-106.45
0
LINE
8
BLACK
6
CONTINUOUS
10
120.3
20
-101.3
11
120.7
21
-101.7
0
LINE
8
BLACK
6
CONTINUOUS
10
120.7
20
-101.3
11
120.3
21
-101.7
0
LINE
8
BLACK
6
CONTINUOUS
10
121.3
20
-106.8
11
121.7
21
-107.2
0
LINE
8
BLACK
6
CONTINUOUS
10
121.7
20
-106.8
11
121.3
21
-107.2
0
LINE
8
BLACK
6
CONTINUOUS
10
122.8
20
-107.55
11
123.2
21
-107.95
0
LINE
8
BLACK
6
CONTINUOUS
10
123.2
20
-107.55
11
122.8
21
-107.95
0
LINE
8
BLACK
6
CONTINUOUS
10
134.05
20
-99.55
11
134.45
21
-99.95
0
LINE
8
BLACK
6
CONTINUOUS
10
134.45
20
-99.55
11
134.05
21
-99.95
0
LINE
8
BLACK
6
CONTINUOUS
10
137.55
20
-98.55
11
137.95
21
-98.95
0
LINE
8
BLACK
6
CONTINUOUS
10
137.95
20
-98.55
11
137.55
21
-98.95
0
LINE
8
BLACK
6
CONTINUOUS
10
142.05
20
-91.3
11
142.45
21
-91.7
0
LINE
8
BLACK
6
CONTINUOUS
10
142.45
20
-91.3
11
142.05
21
-91.7
0
LINE
8
BLACK
6
CONTINUOUS
10
143.55
20
-123.8
11
143.95
21
-124.2
0
LINE
8
BLACK
6
CONTINUOUS
10
143.95
20
-123.8
11
143.55
21
-124.2
0
LINE
8
BLACK
6
CONTINUOUS
10
144.3
20
-97.55
11
144.7
21
-97.95
0
LINE
8
BLACK
6
CONTINUOUS
10
144.7
20
-97.55
11
144.3
21
-97.95
0
LINE
8
BLACK
6
CONTINUOUS
10
146.55
20
-114.05
11
146.95
21
-114.45
0
LINE
8
BLACK
6
CONTINUOUS
10
146.95
20
-114.05
11
146.55
21
-114.45
0
CIRCLE
8
BLACK
10
107.5
20
-80.5
40
1
0
CIRCLE
8
BLACK
10
110.75
20
-56.5
40
1
0
CIRCLE
8
BLACK
10
110.75
20
-65.5
40
1
0
CIRCLE
8
BLACK
10
112.75
20
-116.25
40
1
0
CIRCLE
8
BLACK
10
116.5
20
-80.5
40
1
0
CIRCLE
8
BLACK
10
121.75
20
-116.25
40
1
0
CIRCLE
8
BLACK
10
161.25
20
-116.25
40
1
0
CIRCLE
8
BLACK
10
166.5
20
-80.5
40
1
0
CIRCLE
8
BLACK
10
170.25
20
-116.25
40
1
0
CIRCLE
8
BLACK
10
172.25
20
-56.5
40
1
0
CIRCLE
8
BLACK
10
172.25
20
-65.5
40
1
0
CIRCLE
8
BLACK
10
175.5
20
-80.5
40
1
0
LINE
8
BLACK
6
CONTINUOUS
10
103.5
20
-52.755
11
103.5
21
-55.705
0
LINE
8
BLACK
6
CONTINUOUS
10
102.025
20
-54.23
11
104.975
21
-54.23
0
LINE
8
BLACK
6
CONTINUOUS
10
103.5
20
-141.755
11
103.5
21
-144.705
0
LINE
8
BLACK
6
CONTINUOUS
10
102.025
20
-143.23
11
104.975
21
-143.23
0
LINE
8
BLACK
6
CONTINUOUS
10
179.5
20
-52.755
11
179.5
21
-55.705
0
LINE
8
BLACK
6
CONTINUOUS
10
178.025
20
-54.23
11
180.975
21
-54.23
0
LINE
8
BLACK
6
CONTINUOUS
10
179.5
20
-141.755
11
179.5
21
-144.705
0
LINE
8
BLACK
6
CONTINUOUS
10
178.025
20
-143.23
11
180.975
21
-143.23
0
LINE
8
BLACK
6
CONTINUOUS
10
102.839
20
-152.432
11
102.839
21
-149.432
0
LINE
8
BLACK
6
CONTINUOUS
10
102.839
20
-149.432
11
103.554
21
-149.432
0
LINE
8
BLACK
6
CONTINUOUS
10
103.554
20
-149.432
11
103.982
21
-149.575
0
LINE
8
BLACK
6
CONTINUOUS
10
103.982
20
-149.575
11
104.268
21
-149.861
0
LINE
8
BLACK
6
CONTINUOUS
10
104.268
20
-149.861
11
104.411
21
-150.146
0
LINE
8
BLACK
6
CONTINUOUS
10
104.411
20
-150.146
11
104.554
21
-150.718
0
LINE
8
BLACK
6
CONTINUOUS
10
104.554
20
-150.718
11
104.554
21
-151.146
0
LINE
8
BLACK
6
CONTINUOUS
10
104.554
20
-151.146
11
104.411
21
-151.718
0
LINE
8
BLACK
6
CONTINUOUS
10
104.411
20
-151.718
11
104.268
21
-152.004
0
LINE
8
BLACK
6
CONTINUOUS
10
104.268
20
-152.004
11
103.982
21
-152.289
0
LINE
8
BLACK
6
CONTINUOUS
10
103.982
20
-152.289
11
103.554
21
-152.432
0
LINE
8
BLACK
6
CONTINUOUS
10
103.554
20
-152.432
11
102.839
21
-152.432
0
LINE
8
BLACK
6
CONTINUOUS
10
105.839
20
-152.432
11
105.839
21
-150.432
0
LINE
8
BLACK
6
CONTINUOUS
10
105.839
20
-151.004
11
105.982
21
-150.718
0
LINE
8
BLACK
6
CONTINUOUS
10
105.982
20
-150.718
11
106.125
21
-150.575
0
LINE
8
BLACK
6
CONTINUOUS
10
106.125
20
-150.575
11
106.411
21
-150.432
0
LINE
8
BLACK
6
CONTINUOUS
10
106.411
20
-150.432
11
106.696
21
-150.432
0
LINE
8
BLACK
6
CONTINUOUS
10
107.696
20
-152.432
11
107.696
21
-150.432
0
LINE
8
BLACK
6
CONTINUOUS
10
107.696
20
-149.432
11
107.554
21
-149.575
0
LINE
8
BLACK
6
CONTINUOUS
10
107.554
20
-149.575
11
107.696
21
-149.718
0
LINE
8
BLACK
6
CONTINUOUS
10
107.696
20
-149.718
11
107.839
21
-149.575
0
LINE
8
BLACK
6
CONTINUOUS
10
107.839
20
-149.575
11
107.696
21
-149.432
0
LINE
8
BLACK
6
CONTINUOUS
10
107.696
20
-149.432
11
107.696
21
-149.718
0
LINE
8
BLACK
6
CONTINUOUS
10
109.554
20
-152.432
11
109.268
21
-152.289
0
LINE
8
BLACK
6
CONTINUOUS
10
109.268
20
-152.289
11
109.125
21
-152.004
0
LINE
8
BLACK
6
CONTINUOUS
10
109.125
20
-152.004
11
109.125
21
-149.432
0
LINE
8
BLACK
6
CONTINUOUS
10
111.125
20
-152.432
11
110.839
21
-152.289
0
LINE
8
BLACK
6
CONTINUOUS
10
110.839
20
-152.289
11
110.696
21
-152.004
0
LINE
8
BLACK
6
CONTINUOUS
10
110.696
20
-152.004
11
110.696
21
-149.432
0
LINE
8
BLACK
6
CONTINUOUS
10
114.554
20
-152.432
11
114.554
21
-149.432
0
LINE
8
BLACK
6
CONTINUOUS
10
114.554
20
-149.432
11
115.554
21
-151.575
0
LINE
8
BLACK
6
CONTINUOUS
10
115.554
20
-151.575
11
116.554
21
-149.432
0
LINE
8
BLACK
6
CONTINUOUS
10
116.554
20
-149.432
11
116.554
21
-152.432
0
LINE
8
BLACK
6
CONTINUOUS
10
119.268
20
-152.432
11
119.268
21
-150.861
0
LINE
8
BLACK
6
CONTINUOUS
10
119.268
20
-150.861
11
119.125
21
-150.575
0
LINE
8
BLACK
6
CONTINUOUS
10
119.125
20
-150.575
11
118.839
21
-150.432
0
LINE
8
BLACK
6
CONTINUOUS
10
118.839
20
-150.432
11
118.268
21
-150.432
0
LINE
8
BLACK
6
CONTINUOUS
10
118.268
20
-150.432
11
117.982
21
-150.575
0
LINE
8
BLACK
6
CONTINUOUS
10
119.268
20
-152.289
11
118.982
21
-152.432
0
LINE
8
BLACK
6
CONTINUOUS
10
118.982
20
-152.432
11
118.268
21
-152.432
0
LINE
8
BLACK
6
CONTINUOUS
10
118.268
20
-152.432
11
117.982
21
-152.289
0
LINE
8
BLACK
6
CONTINUOUS
10
117.982
20
-152.289
11
117.839
21
-152.004
0
LINE
8
BLACK
6
CONTINUOUS
10
117.839
20
-152.004
11
117.839
21
-151.718
0
LINE
8
BLACK
6
CONTINUOUS
10
117.839
20
-151.718
11
117.982
21
-151.432
0
LINE
8
BLACK
6
CONTINUOUS
10
117.982
20
-151.432
11
118.268
21
-151.289
0
LINE
8
BLACK
6
CONTINUOUS
10
118.268
20
-151.289
11
118.982
21
-151.289
0
LINE
8
BLACK
6
CONTINUOUS
10
118.982
20
-151.289
11
119.268
21
-151.146
0
LINE
8
BLACK
6
CONTINUOUS
10
120.696
20
-150.432
11
120.696
21
-153.432
0
LINE
8
BLACK
6
CONTINUOUS
10
120.696
20
-150.575
11
120.982
21
-150.432
0
LINE
8
BLACK
6
CONTINUOUS
10
120.982
20
-150.432
11
121.554
21
-150.432
0
LINE
8
BLACK
6
CONTINUOUS
10
121.554
20
-150.432
11
121.839
21
-150.575
0
LINE
8
BLACK
6
CONTINUOUS
10
121.839
20
-150.575
11
121.982
21
-150.718
0
LINE
8
BLACK
6
CONTINUOUS
10
121.982
20
-150.718
11
122.125
21
-151.004
0
LINE
8
BLACK
6
CONTINUOUS
10
122.125
20
-151.004
11
122.125
21
-151.861
0
LINE
8
BLACK
6
CONTINUOUS
10
122.125
20
-151.861
11
121.982
21
-152.146
0
LINE
8
BLACK
6
CONTINUOUS
10
121.982
20
-152.146
11
121.839
21
-152.289
0
LINE
8
BLACK
6
CONTINUOUS
10
121.839
20
-152.289
11
121.554
21
-152.432
0
LINE
8
BLACK
6
CONTINUOUS
10
121.554
20
-152.432
11
120.982
21
-152.432
0
LINE
8
BLACK
6
CONTINUOUS
10
120.982
20
-152.432
11
120.696
21
-152.289
0
LINE
8
BLACK
6
CONTINUOUS
10
123.411
20
-152.146
11
123.554
21
-152.289
0
LINE
8
BLACK
6
CONTINUOUS
10
123.554
20
-152.289
11
123.411
21
-152.432
0
LINE
8
BLACK
6
CONTINUOUS
10
123.411
20
-152.432
11
123.268
21
-152.289
0
LINE
8
BLACK
6
CONTINUOUS
10
123.268
20
-152.289
11
123.411
21
-152.146
0
LINE
8
BLACK
6
CONTINUOUS
10
123.411
20
-152.146
11
123.411
21
-152.432
0
LINE
8
BLACK
6
CONTINUOUS
10
123.411
20
-150.575
11
123.554
21
-150.718
0
LINE
8
BLACK
6
CONTINUOUS
10
123.554
20
-150.718
11
123.411
21
-150.861
0
LINE
8
BLACK
6
CONTINUOUS
10
123.411
20
-150.861
11
123.268
21
-150.718
0
LINE
8
BLACK
6
CONTINUOUS
10
123.268
20
-150.718
11
123.411
21
-150.575
0
LINE
8
BLACK
6
CONTINUOUS
10
123.411
20
-150.575
11
123.411
21
-150.861
0
LINE
8
BLACK
6
CONTINUOUS
10
99.575
20
-157.175
11
99.975
21
-157.575
0
LINE
8
BLACK
6
CONTINUOUS
10
99.975
20
-157.175
11
99.575
21
-157.575
0
LINE
8
BLACK
6
CONTINUOUS
10
103.411
20
-155.732
11
103.696
21
-155.732
0
LINE
8
BLACK
6
CONTINUOUS
10
103.696
20
-155.732
11
103.982
21
-155.875
0
LINE
8
BLACK
6
CONTINUOUS
10
103.982
20
-155.875
11
104.125
21
-156.018
0
LINE
8
BLACK
6
CONTINUOUS
10
104.125
20
-156.018
11
104.268
21
-156.304
0
LINE
8
BLACK
6
CONTINUOUS
10
104.268
20
-156.304
11
104.411
21
-156.875
0
LINE
8
BLACK
6
CONTINUOUS
10
104.411
20
-156.875
11
104.411
21
-157.589
0
LINE
8
BLACK
6
CONTINUOUS
10
104.411
20
-157.589
11
104.268
21
-158.161
0
LINE
8
BLACK
6
CONTINUOUS
10
104.268
20
-158.161
11
104.125
21
-158.446
0
LINE
8
BLACK
6
CONTINUOUS
10
104.125
20
-158.446
11
103.982
21
-158.589
0
LINE
8
BLACK
6
CONTINUOUS
10
103.982
20
-158.589
11
103.696
21
-158.732
0
LINE
8
BLACK
6
CONTINUOUS
10
103.696
20
-158.732
11
103.411
21
-158.732
0
LINE
8
BLACK
6
CONTINUOUS
10
103.411
20
-158.732
11
103.125
21
-158.589
0
LINE
8
BLACK
6
CONTINUOUS
10
103.125
20
-158.589
11
102.982
21
-158.446
0
LINE
8
BLACK
6
CONTINUOUS
10
102.982
20
-158.446
11
102.839
21
-158.161
0
LINE
8
BLACK
6
CONTINUOUS
10
102.839
20
-158.161
11
102.696
21
-157.589
0
LINE
8
BLACK
6
CONTINUOUS
10
102.696
20
-157.589
11
102.696
21
-156.875
0
LINE
8
BLACK
6
CONTINUOUS
10
102.696
20
-156.875
11
102.839
21
-156.304
0
LINE
8
BLACK
6
CONTINUOUS
10
102.839
20
-156.304
11
102.982
21
-156.018
0
LINE
8
BLACK
6
CONTINUOUS
10
102.982
20
-156.018
11
103.125
21
-155.875
0
LINE
8
BLACK
6
CONTINUOUS
10
103.125
20
-155.875
11
103.411
21
-155.732
0
LINE
8
BLACK
6
CONTINUOUS
10
105.696
20
-158.446
11
105.839
21
-158.589
0
LINE
8
BLACK
6
CONTINUOUS
10
105.839
20
-158.589
11
105.696
21
-158.732
0
LINE
8
BLACK
6
CONTINUOUS
10
105.696
20
-158.732
11
105.554
21
-158.589
0
LINE
8
BLACK
6
CONTINUOUS
10
105.554
20
-158.589
11
105.696
21
-158.446
0
LINE
8
BLACK
6
CONTINUOUS
10
105.696
20
-158.446
11
105.696
21
-158.732
0
LINE
8
BLACK
6
CONTINUOUS
10
108.411
20
-156.732
11
108.411
21
-158.732
0
LINE
8
BLACK
6
CONTINUOUS
10
107.696
20
-155.589
11
106.982
21
-157.732
0
LINE
8
BLACK
6
CONTINUOUS
10
106.982
20
-157.732
11
108.839
21
-157.732
0
LINE
8
BLACK
6
CONTINUOUS
10
110.554
20
-155.732
11
110.839
21
-155.732
0
LINE
8
BLACK
6
CONTINUOUS
10
110.839
20
-155.732
11
111.125
21
-155.875
0
LINE
8
BLACK
6
CONTINUOUS
10
111.125
20
-155.875
11
111.268
21
-156.018
0
LINE
8
BLACK
6
CONTINUOUS
10
111.268
20
-156.018
11
111.411
21
-156.304
0
LINE
8
BLACK
6
CONTINUOUS
10
111.411
20
-156.304
11
111.554
21
-156.875
0
LINE
8
BLACK
6
CONTINUOUS
10
111.554
20
-156.875
11
111.554
21
-157.589
0
LINE
8
BLACK
6
CONTINUOUS
10
111.554
20
-157.589
11
111.411
21
-158.161
0
LINE
8
BLACK
6
CONTINUOUS
10
111.411
20
-158.161
11
111.268
21
-158.446
0
LINE
8
BLACK
6
CONTINUOUS
10
111.268
20
-158.446
11
111.125
21
-158.589
0
LINE
8
BLACK
6
CONTINUOUS
10
111.125
20
-158.589
11
110.839
21
-158.732
0
LINE
8
BLACK
6
CONTINUOUS
10
110.839
20
-158.732
11
110.554
21
-158.732
0
LINE
8
BLACK
6
CONTINUOUS
10
110.554
20
-158.732
11
110.268
21
-158.589
0
LINE
8
BLACK
6
CONTINUOUS
10
110.268
20
-158.589
11
110.125
21
-158.446
0
LINE
8
BLACK
6
CONTINUOUS
10
110.125
20
-158.446
11
109.982
21
-158.161
0
LINE
8
BLACK
6
CONTINUOUS
10
109.982
20
-158.161
11
109.839
21
-157.589
0
LINE
8
BLACK
6
CONTINUOUS
10
109.839
20
-157.589
11
109.839
21
-156.875
0
LINE
8
BLACK
6
CONTINUOUS
10
109.839
20
-156.875
11
109.982
21
-156.304
0
LINE
8
BLACK
6
CONTINUOUS
10
109.982
20
-156.304
11
110.125
21
-156.018
0
LINE
8
BLACK
6
CONTINUOUS
10
110.125
20
-156.018
11
110.268
21
-155.875
0
LINE
8
BLACK
6
CONTINUOUS
10
110.268
20
-155.875
11
110.554
21
-155.732
0
LINE
8
BLACK
6
CONTINUOUS
10
113.411
20
-155.732
11
113.696
21
-155.732
0
LINE
8
BLACK
6
CONTINUOUS
10
113.696
20
-155.732
11
113.982
21
-155.875
0
LINE
8
BLACK
6
CONTINUOUS
10
113.982
20
-155.875
11
114.125
21
-156.018
0
LINE
8
BLACK
6
CONTINUOUS
10
114.125
20
-156.018
11
114.268
21
-156.304
0
LINE
8
BLACK
6
CONTINUOUS
10
114.268
20
-156.304
11
114.411
21
-156.875
0
LINE
8
BLACK
6
CONTINUOUS
10
114.411
20
-156.875
11
114.411
21
-157.589
0
LINE
8
BLACK
6
CONTINUOUS
10
114.411
20
-157.589
11
114.268
21
-158.161
0
LINE
8
BLACK
6
CONTINUOUS
10
114.268
20
-158.161
11
114.125
21
-158.446
0
LINE
8
BLACK
6
CONTINUOUS
10
114.125
20
-158.446
11
113.982
21
-158.589
0
LINE
8
BLACK
6
CONTINUOUS
10
113.982
20
-158.589
11
113.696
21
-158.732
0
LINE
8
BLACK
6
CONTINUOUS
10
113.696
20
-158.732
11
113.411
21
-158.732
0
LINE
8
BLACK
6
CONTINUOUS
10
113.411
20
-158.732
11
113.125
21
-158.589
0
LINE
8
BLACK
6
CONTINUOUS
10
113.125
20
-158.589
11
112.982
21
-158.446
0
LINE
8
BLACK
6
CONTINUOUS
10
112.982
20
-158.446
11
112.839
21
-158.161
0
LINE
8
BLACK
6
CONTINUOUS
10
112.839
20
-158.161
11
112.696
21
-157.589
0
LINE
8
BLACK
6
CONTINUOUS
10
112.696
20
-157.589
11
112.696
21
-156.875
0
LINE
8
BLACK
6
CONTINUOUS
10
112.696
20
-156.875
11
112.839
21
-156.304
0
LINE
8
BLACK
6
CONTINUOUS
10
112.839
20
-156.304
11
112.982
21
-156.018
0
LINE
8
BLACK
6
CONTINUOUS
10
112.982
20
-156.018
11
113.125
21
-155.875
0
LINE
8
BLACK
6
CONTINUOUS
10
113.125
20
-155.875
11
113.411
21
-155.732
0
LINE
8
BLACK
6
CONTINUOUS
10
115.696
20
-158.732
11
115.696
21
-156.732
0
LINE
8
BLACK
6
CONTINUOUS
10
115.696
20
-157.018
11
115.839
21
-156.875
0
LINE
8
BLACK
6
CONTINUOUS
10
115.839
20
-156.875
11
116.125
21
-156.732
0
LINE
8
BLACK
6
CONTINUOUS
10
116.125
20
-156.732
11
116.554
21
-156.732
0
LINE
8
BLACK
6
CONTINUOUS
10
116.554
20
-156.732
11
116.839
21
-156.875
0
LINE
8
BLACK
6
CONTINUOUS
10
116.839
20
-156.875
11
116.982
21
-157.161
0
LINE
8
BLACK
6
CONTINUOUS
10
116.982
20
-157.161
11
116.982
21
-158.732
0
LINE
8
BLACK
6
CONTINUOUS
10
116.982
20
-157.161
11
117.125
21
-156.875
0
LINE
8
BLACK
6
CONTINUOUS
10
117.125
20
-156.875
11
117.411
21
-156.732
0
LINE
8
BLACK
6
CONTINUOUS
10
117.411
20
-156.732
11
117.839
21
-156.732
0
LINE
8
BLACK
6
CONTINUOUS
10
117.839
20
-156.732
11
118.125
21
-156.875
0
LINE
8
BLACK
6
CONTINUOUS
10
118.125
20
-156.875
11
118.268
21
-157.161
0
LINE
8
BLACK
6
CONTINUOUS
10
118.268
20
-157.161
11
118.268
21
-158.732
0
LINE
8
BLACK
6
CONTINUOUS
10
119.696
20
-158.732
11
119.696
21
-156.732
0
LINE
8
BLACK
6
CONTINUOUS
10
119.696
20
-157.018
11
119.839
21
-156.875
0
LINE
8
BLACK
6
CONTINUOUS
10
119.839
20
-156.875
11
120.125
21
-156.732
0
LINE
8
BLACK
6
CONTINUOUS
10
120.125
20
-156.732
11
120.554
21
-156.732
0
LINE
8
BLACK
6
CONTINUOUS
10
120.554
20
-156.732
11
120.839
21
-156.875
0
LINE
8
BLACK
6
CONTINUOUS
10
120.839
20
-156.875
11
120.982
21
-157.161
0
LINE
8
BLACK
6
CONTINUOUS
10
120.982
20
-157.161
11
120.982
21
-158.732
0
LINE
8
BLACK
6
CONTINUOUS
10
120.982
20
-157.161
11
121.125
21
-156.875
0
LINE
8
BLACK
6
CONTINUOUS
10
121.125
20
-156.875
11
121.411
21
-156.732
0
LINE
8
BLACK
6
CONTINUOUS
10
121.411
20
-156.732
11
121.839
21
-156.732
0
LINE
8
BLACK
6
CONTINUOUS
10
121.839
20
-156.732
11
122.125
21
-156.875
0
LINE
8
BLACK
6
CONTINUOUS
10
122.125
20
-156.875
11
122.268
21
-157.161
0
LINE
8
BLACK
6
CONTINUOUS
10
122.268
20
-157.161
11
122.268
21
-158.732
0
LINE
8
BLACK
6
CONTINUOUS
10
128.125
20
-155.589
11
125.554
21
-159.446
0
LINE
8
BLACK
6
CONTINUOUS
10
131.982
20
-155.732
11
132.268
21
-155.732
0
LINE
8
BLACK
6
CONTINUOUS
10
132.268
20
-155.732
11
132.554
21
-155.875
0
LINE
8
BLACK
6
CONTINUOUS
10
132.554
20
-155.875
11
132.696
21
-156.018
0
LINE
8
BLACK
6
CONTINUOUS
10
132.696
20
-156.018
11
132.839
21
-156.304
0
LINE
8
BLACK
6
CONTINUOUS
10
132.839
20
-156.304
11
132.982
21
-156.875
0
LINE
8
BLACK
6
CONTINUOUS
10
132.982
20
-156.875
11
132.982
21
-157.589
0
LINE
8
BLACK
6
CONTINUOUS
10
132.982
20
-157.589
11
132.839
21
-158.161
0
LINE
8
BLACK
6
CONTINUOUS
10
132.839
20
-158.161
11
132.696
21
-158.446
0
LINE
8
BLACK
6
CONTINUOUS
10
132.696
20
-158.446
11
132.554
21
-158.589
0
LINE
8
BLACK
6
CONTINUOUS
10
132.554
20
-158.589
11
132.268
21
-158.732
0
LINE
8
BLACK
6
CONTINUOUS
10
132.268
20
-158.732
11
131.982
21
-158.732
0
LINE
8
BLACK
6
CONTINUOUS
10
131.982
20
-158.732
11
131.696
21
-158.589
0
LINE
8
BLACK
6
CONTINUOUS
10
131.696
20
-158.589
11
131.554
21
-158.446
0
LINE
8
BLACK
6
CONTINUOUS
10
131.554
20
-158.446
11
131.411
21
-158.161
0
LINE
8
BLACK
6
CONTINUOUS
10
131.411
20
-158.161
11
131.268
21
-157.589
0
LINE
8
BLACK
6
CONTINUOUS
10
131.268
20
-157.589
11
131.268
21
-156.875
0
LINE
8
BLACK
6
CONTINUOUS
10
131.268
20
-156.875
11
131.411
21
-156.304
0
LINE
8
BLACK
6
CONTINUOUS
10
131.411
20
-156.304
11
131.554
21
-156.018
0
LINE
8
BLACK
6
CONTINUOUS
10
131.554
20
-156.018
11
131.696
21
-155.875
0
LINE
8
BLACK
6
CONTINUOUS
10
131.696
20
-155.875
11
131.982
21
-155.732
0
LINE
8
BLACK
6
CONTINUOUS
10
134.268
20
-158.446
11
134.411
21
-158.589
0
LINE
8
BLACK
6
CONTINUOUS
10
134.411
20
-158.589
11
134.268
21
-158.732
0
LINE
8
BLACK
6
CONTINUOUS
10
134.268
20
-158.732
11
134.125
21
-158.589
0
LINE
8
BLACK
6
CONTINUOUS
10
134.125
20
-158.589
11
134.268
21
-158.446
0
LINE
8
BLACK
6
CONTINUOUS
10
134.268
20
-158.446
11
134.268
21
-158.732
0
LINE
8
BLACK
6
CONTINUOUS
10
136.268
20
-155.732
11
136.554
21
-155.732
0
LINE
8
BLACK
6
CONTINUOUS
10
136.554
20
-155.732
11
136.839
21
-155.875
0
LINE
8
BLACK
6
CONTINUOUS
10
136.839
20
-155.875
11
136.982
21
-156.018
0
LINE
8
BLACK
6
CONTINUOUS
10
136.982
20
-156.018
11
137.125
21
-156.304
0
LINE
8
BLACK
6
CONTINUOUS
10
137.125
20
-156.304
11
137.268
21
-156.875
0
LINE
8
BLACK
6
CONTINUOUS
10
137.268
20
-156.875
11
137.268
21
-157.589
0
LINE
8
BLACK
6
CONTINUOUS
10
137.268
20
-157.589
11
137.125
21
-158.161
0
LINE
8
BLACK
6
CONTINUOUS
10
137.125
20
-158.161
11
136.982
21
-158.446
0
LINE
8
BLACK
6
CONTINUOUS
10
136.982
20
-158.446
11
136.839
21
-158.589
0
LINE
8
BLACK
6
CONTINUOUS
10
136.839
20
-158.589
11
136.554
21
-158.732
0
LINE
8
BLACK
6
CONTINUOUS
10
136.554
20
-158.732
11
136.268
21
-158.732
0
LINE
8
BLACK
6
CONTINUOUS
10
136.268
20
-158.732
11
135.982
21
-158.589
0
LINE
8
BLACK
6
CONTINUOUS
10
135.982
20
-158.589
11
135.839
21
-158.446
0
LINE
8
BLACK
6
CONTINUOUS
10
135.839
20
-158.446
11
135.696
21
-158.161
0
LINE
8
BLACK
6
CONTINUOUS
10
135.696
20
-158.161
11
135.554
21
-157.589
0
LINE
8
BLACK
6
CONTINUOUS
10
135.554
20
-157.589
11
135.554
21
-156.875
0
LINE
8
BLACK
6
CONTINUOUS
10
135.554
20
-156.875
11
135.696
21
-156.304
0
LINE
8
BLACK
6
CONTINUOUS
10
135.696
20
-156.304
11
135.839
21
-156.018
0
LINE
8
BLACK
6
CONTINUOUS
10
135.839
20
-156.018
11
135.982
21
-155.875
0
LINE
8
BLACK
6
CONTINUOUS
10
135.982
20
-155.875
11
136.268
21
-155.732
0
LINE
8
BLACK
6
CONTINUOUS
10
140.125
20
-158.732
11
138.411
21
-158.732
0
LINE
8
BLACK
6
CONTINUOUS
10
139.268
20
-158.732
11
139.268
21
-155.732
0
LINE
8
BLACK
6
CONTINUOUS
10
139.268
20
-155.732
11
138.982
21
-156.161
0
LINE
8
BLACK
6
CONTINUOUS
10
138.982
20
-156.161
11
138.696
21
-156.446
0
LINE
8
BLACK
6
CONTINUOUS
10
138.696
20
-156.446
11
138.411
21
-156.589
0
LINE
8
BLACK
6
CONTINUOUS
10
142.839
20
-155.732
11
141.411
21
-155.732
0
LINE
8
BLACK
6
CONTINUOUS
10
141.411
20
-155.732
11
141.268
21
-157.161
0
LINE
8
BLACK
6
CONTINUOUS
10
141.268
20
-157.161
11
141.411
21
-157.018
0
LINE
8
BLACK
6
CONTINUOUS
10
141.411
20
-157.018
11
141.696
21
-156.875
0
LINE
8
BLACK
6
CONTINUOUS
10
141.696
20
-156.875
11
142.411
21
-156.875
0
LINE
8
BLACK
6
CONTINUOUS
10
142.411
20
-156.875
11
142.696
21
-157.018
0
LINE
8
BLACK
6
CONTINUOUS
10
142.696
20
-157.018
11
142.839
21
-157.161
0
LINE
8
BLACK
6
CONTINUOUS
10
142.839
20
-157.161
11
142.982
21
-157.446
0
LINE
8
BLACK
6
CONTINUOUS
10
142.982
20
-157.446
11
142.982
21
-158.161
0
LINE
8
BLACK
6
CONTINUOUS
10
142.982
20
-158.161
11
142.839
21
-158.446
0
LINE
8
BLACK
6
CONTINUOUS
10
142.839
20
-158.446
11
142.696
21
-158.589
0
LINE
8
BLACK
6
CONTINUOUS
10
142.696
20
-158.589
11
142.411
21
-158.732
0
LINE
8
BLACK
6
CONTINUOUS
10
142.411
20
-158.732
11
141.696
21
-158.732
0
LINE
8
BLACK
6
CONTINUOUS
10
141.696
20
-158.732
11
141.411
21
-158.589
0
LINE
8
BLACK
6
CONTINUOUS
10
141.411
20
-158.589
11
141.268
21
-158.446
0
LINE
8
BLACK
6
CONTINUOUS
10
143.982
20
-155.732
11
145.982
21
-155.732
0
LINE
8
BLACK
6
CONTINUOUS
10
145.982
20
-155.732
11
144.696
21
-158.732
0
LINE
8
BLACK
6
CONTINUOUS
10
146.982
20
-155.732
11
146.982
21
-156.304
0
LINE
8
BLACK
6
CONTINUOUS
10
148.125
20
-155.732
11
148.125
21
-156.304
0
LINE
8
BLACK
6
CONTINUOUS
10
152.554
20
-159.875
11
152.411
21
-159.732
0
LINE
8
BLACK
6
CONTINUOUS
10
152.411
20
-159.732
11
152.125
21
-159.304
0
LINE
8
BLACK
6
CONTINUOUS
10
152.125
20
-159.304
11
151.982
21
-159.018
0
LINE
8
BLACK
6
CONTINUOUS
10
151.982
20
-159.018
11
151.839
21
-158.589
0
LINE
8
BLACK
6
CONTINUOUS
10
151.839
20
-158.589
11
151.696
21
-157.875
0
LINE
8
BLACK
6
CONTINUOUS
10
151.696
20
-157.875
11
151.696
21
-157.304
0
LINE
8
BLACK
6
CONTINUOUS
10
151.696
20
-157.304
11
151.839
21
-156.589
0
LINE
8
BLACK
6
CONTINUOUS
10
151.839
20
-156.589
11
151.982
21
-156.161
0
LINE
8
BLACK
6
CONTINUOUS
10
151.982
20
-156.161
11
152.125
21
-155.875
0
LINE
8
BLACK
6
CONTINUOUS
10
152.125
20
-155.875
11
152.411
21
-155.446
0
LINE
8
BLACK
6
CONTINUOUS
10
152.411
20
-155.446
11
152.554
21
-155.304
0
LINE
8
BLACK
6
CONTINUOUS
10
155.268
20
-158.732
11
153.554
21
-158.732
0
LINE
8
BLACK
6
CONTINUOUS
10
154.411
20
-158.732
11
154.411
21
-155.732
0
LINE
8
BLACK
6
CONTINUOUS
10
154.411
20
-155.732
11
154.125
21
-156.161
0
LINE
8
BLACK
6
CONTINUOUS
10
154.125
20
-156.161
11
153.839
21
-156.446
0
LINE
8
BLACK
6
CONTINUOUS
10
153.839
20
-156.446
11
153.554
21
-156.589
0
LINE
8
BLACK
6
CONTINUOUS
10
157.125
20
-155.732
11
157.411
21
-155.732
0
LINE
8
BLACK
6
CONTINUOUS
10
157.411
20
-155.732
11
157.696
21
-155.875
0
LINE
8
BLACK
6
CONTINUOUS
10
157.696
20
-155.875
11
157.839
21
-156.018
0
LINE
8
BLACK
6
CONTINUOUS
10
157.839
20
-156.018
11
157.982
21
-156.304
0
LINE
8
BLACK
6
CONTINUOUS
10
157.982
20
-156.304
11
158.125
21
-156.875
0
LINE
8
BLACK
6
CONTINUOUS
10
158.125
20
-156.875
11
158.125
21
-157.589
0
LINE
8
BLACK
6
CONTINUOUS
10
158.125
20
-157.589
11
157.982
21
-158.161
0
LINE
8
BLACK
6
CONTINUOUS
10
157.982
20
-158.161
11
157.839
21
-158.446
0
LINE
8
BLACK
6
CONTINUOUS
10
157.839
20
-158.446
11
157.696
21
-158.589
0
LINE
8
BLACK
6
CONTINUOUS
10
157.696
20
-158.589
11
157.411
21
-158.732
0
LINE
8
BLACK
6
CONTINUOUS
10
157.411
20
-158.732
11
157.125
21
-158.732
0
LINE
8
BLACK
6
CONTINUOUS
10
157.125
20
-158.732
11
156.839
21
-158.589
0
LINE
8
BLACK
6
CONTINUOUS
10
156.839
20
-158.589
11
156.696
21
-158.446
0
LINE
8
BLACK
6
CONTINUOUS
10
156.696
20
-158.446
11
156.554
21
-158.161
0
LINE
8
BLACK
6
CONTINUOUS
10
156.554
20
-158.161
11
156.411
21
-157.589
0
LINE
8
BLACK
6
CONTINUOUS
10
156.411
20
-157.589
11
156.411
21
-156.875
0
LINE
8
BLACK
6
CONTINUOUS
10
156.411
20
-156.875
11
156.554
21
-156.304
0
LINE
8
BLACK
6
CONTINUOUS
10
156.554
20
-156.304
11
156.696
21
-156.018
0
LINE
8
BLACK
6
CONTINUOUS
10
156.696
20
-156.018
11
156.839
21
-155.875
0
LINE
8
BLACK
6
CONTINUOUS
10
156.839
20
-155.875
11
157.125
21
-155.732
0
LINE
8
BLACK
6
CONTINUOUS
10
161.696
20
-158.732
11
161.696
21
-155.732
0
LINE
8
BLACK
6
CONTINUOUS
10
162.982
20
-158.732
11
162.982
21
-157.161
0
LINE
8
BLACK
6
CONTINUOUS
10
162.982
20
-157.161
11
162.839
21
-156.875
0
LINE
8
BLACK
6
CONTINUOUS
10
162.839
20
-156.875
11
162.554
21
-156.732
0
LINE
8
BLACK
6
CONTINUOUS
10
162.554
20
-156.732
11
162.125
21
-156.732
0
LINE
8
BLACK
6
CONTINUOUS
10
162.125
20
-156.732
11
161.839
21
-156.875
0
LINE
8
BLACK
6
CONTINUOUS
10
161.839
20
-156.875
11
161.696
21
-157.018
0
LINE
8
BLACK
6
CONTINUOUS
10
164.839
20
-158.732
11
164.554
21
-158.589
0
LINE
8
BLACK
6
CONTINUOUS
10
164.554
20
-158.589
11
164.411
21
-158.446
0
LINE
8
BLACK
6
CONTINUOUS
10
164.411
20
-158.446
11
164.268
21
-158.161
0
LINE
8
BLACK
6
CONTINUOUS
10
164.268
20
-158.161
11
164.268
21
-157.304
0
LINE
8
BLACK
6
CONTINUOUS
10
164.268
20
-157.304
11
164.411
21
-157.018
0
LINE
8
BLACK
6
CONTINUOUS
10
164.411
20
-157.018
11
164.554
21
-156.875
0
LINE
8
BLACK
6
CONTINUOUS
10
164.554
20
-156.875
11
164.839
21
-156.732
0
LINE
8
BLACK
6
CONTINUOUS
10
164.839
20
-156.732
11
165.268
21
-156.732
0
LINE
8
BLACK
6
CONTINUOUS
10
165.268
20
-156.732
11
165.554
21
-156.875
0
LINE
8
BLACK
6
CONTINUOUS
10
165.554
20
-156.875
11
165.696
21
-157.018
0
LINE
8
BLACK
6
CONTINUOUS
10
165.696
20
-157.018
11
165.839
21
-157.304
0
LINE
8
BLACK
6
CONTINUOUS
10
165.839
20
-157.304
11
165.839
21
-158.161
0
LINE
8
BLACK
6
CONTINUOUS
10
165.839
20
-158.161
11
165.696
21
-158.446
0
LINE
8
BLACK
6
CONTINUOUS
10
165.696
20
-158.446
11
165.554
21
-158.589
0
LINE
8
BLACK
6
CONTINUOUS
10
165.554
20
-158.589
11
165.268
21
-158.732
0
LINE
8
BLACK
6
CONTINUOUS
10
165.268
20
-158.732
11
164.839
21
-158.732
0
LINE
8
BLACK
6
CONTINUOUS
10
167.554
20
-158.732
11
167.268
21
-158.589
0
LINE
8
BLACK
6
CONTINUOUS
10
167.268
20
-158.589
11
167.125
21
-158.304
0
LINE
8
BLACK
6
CONTINUOUS
10
167.125
20
-158.304
11
167.125
21
-155.732
0
LINE
8
BLACK
6
CONTINUOUS
10
169.839
20
-158.589
11
169.554
21
-158.732
0
LINE
8
BLACK
6
CONTINUOUS
10
169.554
20
-158.732
11
168.982
21
-158.732
0
LINE
8
BLACK
6
CONTINUOUS
10
168.982
20
-158.732
11
168.696
21
-158.589
0
LINE
8
BLACK
6
CONTINUOUS
10
168.696
20
-158.589
11
168.554
21
-158.304
0
LINE
8
BLACK
6
CONTINUOUS
10
168.554
20
-158.304
11
168.554
21
-157.161
0
LINE
8
BLACK
6
CONTINUOUS
10
168.554
20
-157.161
11
168.696
21
-156.875
0
LINE
8
BLACK
6
CONTINUOUS
10
168.696
20
-156.875
11
168.982
21
-156.732
0
LINE
8
BLACK
6
CONTINUOUS
10
168.982
20
-156.732
11
169.554
21
-156.732
0
LINE
8
BLACK
6
CONTINUOUS
10
169.554
20
-156.732
11
169.839
21
-156.875
0
LINE
8
BLACK
6
CONTINUOUS
10
169.839
20
-156.875
11
169.982
21
-157.161
0
LINE
8
BLACK
6
CONTINUOUS
10
169.982
20
-157.161
11
169.982
21
-157.446
0
LINE
8
BLACK
6
CONTINUOUS
10
169.982
20
-157.446
11
168.554
21
-157.732
0
LINE
8
BLACK
6
CONTINUOUS
10
171.125
20
-158.589
11
171.411
21
-158.732
0
LINE
8
BLACK
6
CONTINUOUS
10
171.411
20
-158.732
11
171.982
21
-158.732
0
LINE
8
BLACK
6
CONTINUOUS
10
171.982
20
-158.732
11
172.268
21
-158.589
0
LINE
8
BLACK
6
CONTINUOUS
10
172.268
20
-158.589
11
172.411
21
-158.304
0
LINE
8
BLACK
6
CONTINUOUS
10
172.411
20
-158.304
11
172.411
21
-158.161
0
LINE
8
BLACK
6
CONTINUOUS
10
172.411
20
-158.161
11
172.268
21
-157.875
0
LINE
8
BLACK
6
CONTINUOUS
10
172.268
20
-157.875
11
171.982
21
-157.732
0
LINE
8
BLACK
6
CONTINUOUS
10
171.982
20
-157.732
11
171.554
21
-157.732
0
LINE
8
BLACK
6
CONTINUOUS
10
171.554
20
-157.732
11
171.268
21
-157.589
0
LINE
8
BLACK
6
CONTINUOUS
10
171.268
20
-157.589
11
171.125
21
-157.304
0
LINE
8
BLACK
6
CONTINUOUS
10
171.125
20
-157.304
11
171.125
21
-157.161
0
LINE
8
BLACK
6
CONTINUOUS
10
171.125
20
-157.161
11
171.268
21
-156.875
0
LINE
8
BLACK
6
CONTINUOUS
10
171.268
20
-156.875
11
171.554
21
-156.732
0
LINE
8
BLACK
6
CONTINUOUS
10
171.554
20
-156.732
11
171.982
21
-156.732
0
LINE
8
BLACK
6
CONTINUOUS
10
171.982
20
-156.732
11
172.268
21
-156.875
0
LINE
8
BLACK
6
CONTINUOUS
10
173.411
20
-159.875
11
173.554
21
-159.732
0
LINE
8
BLACK
6
CONTINUOUS
10
173.554
20
-159.732
11
173.839
21
-159.304
0
LINE
8
BLACK
6
CONTINUOUS
10
173.839
20
-159.304
11
173.982
21
-159.018
0
LINE
8
BLACK
6
CONTINUOUS
10
173.982
20
-159.018
11
174.125
21
-158.589
0
LINE
8
BLACK
6
CONTINUOUS
10
174.125
20
-158.589
11
174.268
21
-157.875
0
LINE
8
BLACK
6
CONTINUOUS
10
174.268
20
-157.875
11
174.268
21
-157.304
0
LINE
8
BLACK
6
CONTINUOUS
10
174.268
20
-157.304
11
174.125
21
-156.589
0
LINE
8
BLACK
6
CONTINUOUS
10
174.125
20
-156.589
11
173.982
21
-156.161
0
LINE
8
BLACK
6
CONTINUOUS
10
173.982
20
-156.161
11
173.839
21
-155.875
0
LINE
8
BLACK
6
CONTINUOUS
10
173.839
20
-155.875
11
173.554
21
-155.446
0
LINE
8
BLACK
6
CONTINUOUS
10
173.554
20
-155.446
11
173.411
21
-155.304
0
CIRCLE
8
BLACK
10
98.975
20
-161.335
40
1
0
LINE
8
BLACK
6
CONTINUOUS
10
102.696
20
-159.978
11
102.839
21
-159.835
0
LINE
8
BLACK
6
CONTINUOUS
10
102.839
20
-159.835
11
103.125
21
-159.692
0
LINE
8
BLACK
6
CONTINUOUS
10
103.125
20
-159.692
11
103.839
21
-159.692
0
LINE
8
BLACK
6
CONTINUOUS
10
103.839
20
-159.692
11
104.125
21
-159.835
0
LINE
8
BLACK
6
CONTINUOUS
10
104.125
20
-159.835
11
104.268
21
-159.978
0
LINE
8
BLACK
6
CONTINUOUS
10
104.268
20
-159.978
11
104.411
21
-160.264
0
LINE
8
BLACK
6
CONTINUOUS
10
104.411
20
-160.264
11
104.411
21
-160.549
0
LINE
8
BLACK
6
CONTINUOUS
10
104.411
20
-160.549
11
104.268
21
-160.978
0
LINE
8
BLACK
6
CONTINUOUS
10
104.268
20
-160.978
11
102.554
21
-162.692
0
LINE
8
BLACK
6
CONTINUOUS
10
102.554
20
-162.692
11
104.411
21
-162.692
0
LINE
8
BLACK
6
CONTINUOUS
10
105.696
20
-162.406
11
105.839
21
-162.549
0
LINE
8
BLACK
6
CONTINUOUS
10
105.839
20
-162.549
11
105.696
21
-162.692
0
LINE
8
BLACK
6
CONTINUOUS
10
105.696
20
-162.692
11
105.554
21
-162.549
0
LINE
8
BLACK
6
CONTINUOUS
10
105.554
20
-162.549
11
105.696
21
-162.406
0
LINE
8
BLACK
6
CONTINUOUS
10
105.696
20
-162.406
11
105.696
21
-162.692
0
LINE
8
BLACK
6
CONTINUOUS
10
107.696
20
-159.692
11
107.982
21
-159.692
0
LINE
8
BLACK
6
CONTINUOUS
10
107.982
20
-159.692
11
108.268
21
-159.835
0
LINE
8
BLACK
6
CONTINUOUS
10
108.268
20
-159.835
11
108.411
21
-159.978
0
LINE
8
BLACK
6
CONTINUOUS
10
108.411
20
-159.978
11
108.554
21
-160.264
0
LINE
8
BLACK
6
CONTINUOUS
10
108.554
20
-160.264
11
108.696
21
-160.835
0
LINE
8
BLACK
6
CONTINUOUS
10
108.696
20
-160.835
11
108.696
21
-161.549
0
LINE
8
BLACK
6
CONTINUOUS
10
108.696
20
-161.549
11
108.554
21
-162.121
0
LINE
8
BLACK
6
CONTINUOUS
10
108.554
20
-162.121
11
108.411
21
-162.406
0
LINE
8
BLACK
6
CONTINUOUS
10
108.411
20
-162.406
11
108.268
21
-162.549
0
LINE
8
BLACK
6
CONTINUOUS
10
108.268
20
-162.549
11
107.982
21
-162.692
0
LINE
8
BLACK
6
CONTINUOUS
10
107.982
20
-162.692
11
107.696
21
-162.692
0
LINE
8
BLACK
6
CONTINUOUS
10
107.696
20
-162.692
11
107.411
21
-162.549
0
LINE
8
BLACK
6
CONTINUOUS
10
107.411
20
-162.549
11
107.268
21
-162.406
0
LINE
8
BLACK
6
CONTINUOUS
10
107.268
20
-162.406
11
107.125
21
-162.121
0
LINE
8
BLACK
6
CONTINUOUS
10
107.125
20
-162.121
11
106.982
21
-161.549
0
LINE
8
BLACK
6
CONTINUOUS
10
106.982
20
-161.549
11
106.982
21
-160.835
0
LINE
8
BLACK
6
CONTINUOUS
10
106.982
20
-160.835
11
107.125
21
-160.264
0
LINE
8
BLACK
6
CONTINUOUS
10
107.125
20
-160.264
11
107.268
21
-159.978
0
LINE
8
BLACK
6
CONTINUOUS
10
107.268
20
-159.978
11
107.411
21
-159.835
0
LINE
8
BLACK
6
CONTINUOUS
10
107.411
20
-159.835
11
107.696
21
-159.692
0
LINE
8
BLACK
6
CONTINUOUS
10
110.554
20
-159.692
11
110.839
21
-159.692
0
LINE
8
BLACK
6
CONTINUOUS
10
110.839
20
-159.692
11
111.125
21
-159.835
0
LINE
8
BLACK
6
CONTINUOUS
10
111.125
20
-159.835
11
111.268
21
-159.978
0
LINE
8
BLACK
6
CONTINUOUS
10
111.268
20
-159.978
11
111.411
21
-160.264
0
LINE
8
BLACK
6
CONTINUOUS
10
111.411
20
-160.264
11
111.554
21
-160.835
0
LINE
8
BLACK
6
CONTINUOUS
10
111.554
20
-160.835
11
111.554
21
-161.549
0
LINE
8
BLACK
6
CONTINUOUS
10
111.554
20
-161.549
11
111.411
21
-162.121
0
LINE
8
BLACK
6
CONTINUOUS
10
111.411
20
-162.121
11
111.268
21
-162.406
0
LINE
8
BLACK
6
CONTINUOUS
10
111.268
20
-162.406
11
111.125
21
-162.549
0
LINE
8
BLACK
6
CONTINUOUS
10
111.125
20
-162.549
11
110.839
21
-162.692
0
LINE
8
BLACK
6
CONTINUOUS
10
110.839
20
-162.692
11
110.554
21
-162.692
0
LINE
8
BLACK
6
CONTINUOUS
10
110.554
20
-162.692
11
110.268
21
-162.549
0
LINE
8
BLACK
6
CONTINUOUS
10
110.268
20
-162.549
11
110.125
21
-162.406
0
LINE
8
BLACK
6
CONTINUOUS
10
110.125
20
-162.406
11
109.982
21
-162.121
0
LINE
8
BLACK
6
CONTINUOUS
10
109.982
20
-162.121
11
109.839
21
-161.549
0
LINE
8
BLACK
6
CONTINUOUS
10
109.839
20
-161.549
11
109.839
21
-160.835
0
LINE
8
BLACK
6
CONTINUOUS
10
109.839
20
-160.835
11
109.982
21
-160.264
0
LINE
8
BLACK
6
CONTINUOUS
10
109.982
20
-160.264
11
110.125
21
-159.978
0
LINE
8
BLACK
6
CONTINUOUS
10
110.125
20
-159.978
11
110.268
21
-159.835
0
LINE
8
BLACK
6
CONTINUOUS
10
110.268
20
-159.835
11
110.554
21
-159.692
0
LINE
8
BLACK
6
CONTINUOUS
10
113.411
20
-159.692
11
113.696
21
-159.692
0
LINE
8
BLACK
6
CONTINUOUS
10
113.696
20
-159.692
11
113.982
21
-159.835
0
LINE
8
BLACK
6
CONTINUOUS
10
113.982
20
-159.835
11
114.125
21
-159.978
0
LINE
8
BLACK
6
CONTINUOUS
10
114.125
20
-159.978
11
114.268
21
-160.264
0
LINE
8
BLACK
6
CONTINUOUS
10
114.268
20
-160.264
11
114.411
21
-160.835
0
LINE
8
BLACK
6
CONTINUOUS
10
114.411
20
-160.835
11
114.411
21
-161.549
0
LINE
8
BLACK
6
CONTINUOUS
10
114.411
20
-161.549
11
114.268
21
-162.121
0
LINE
8
BLACK
6
CONTINUOUS
10
114.268
20
-162.121
11
114.125
21
-162.406
0
LINE
8
BLACK
6
CONTINUOUS
10
114.125
20
-162.406
11
113.982
21
-162.549
0
LINE
8
BLACK
6
CONTINUOUS
10
113.982
20
-162.549
11
113.696
21
-162.692
0
LINE
8
BLACK
6
CONTINUOUS
10
113.696
20
-162.692
11
113.411
21
-162.692
0
LINE
8
BLACK
6
CONTINUOUS
10
113.411
20
-162.692
11
113.125
21
-162.549
0
LINE
8
BLACK
6
CONTINUOUS
10
113.125
20
-162.549
11
112.982
21
-162.406
0
LINE
8
BLACK
6
CONTINUOUS
10
112.982
20
-162.406
11
112.839
21
-162.121
0
LINE
8
BLACK
6
CONTINUOUS
10
112.839
20
-162.121
11
112.696
21
-161.549
0
LINE
8
BLACK
6
CONTINUOUS
10
112.696
20
-161.549
11
112.696
21
-160.835
0
LINE
8
BLACK
6
CONTINUOUS
10
112.696
20
-160.835
11
112.839
21
-160.264
0
LINE
8
BLACK
6
CONTINUOUS
10
112.839
20
-160.264
11
112.982
21
-159.978
0
LINE
8
BLACK
6
CONTINUOUS
10
112.982
20
-159.978
11
113.125
21
-159.835
0
LINE
8
BLACK
6
CONTINUOUS
10
113.125
20
-159.835
11
113.411
21
-159.692
0
LINE
8
BLACK
6
CONTINUOUS
10
115.696
20
-162.692
11
115.696
21
-160.692
0
LINE
8
BLACK
6
CONTINUOUS
10
115.696
20
-160.978
11
115.839
21
-160.835
0
LINE
8
BLACK
6
CONTINUOUS
10
115.839
20
-160.835
11
116.125
21
-160.692
0
LINE
8
BLACK
6
CONTINUOUS
10
116.125
20
-160.692
11
116.554
21
-160.692
0
LINE
8
BLACK
6
CONTINUOUS
10
116.554
20
-160.692
11
116.839
21
-160.835
0
LINE
8
BLACK
6
CONTINUOUS
10
116.839
20
-160.835
11
116.982
21
-161.121
0
LINE
8
BLACK
6
CONTINUOUS
10
116.982
20
-161.121
11
116.982
21
-162.692
0
LINE
8
BLACK
6
CONTINUOUS
10
116.982
20
-161.121
11
117.125
21
-160.835
0
LINE
8
BLACK
6
CONTINUOUS
10
117.125
20
-160.835
11
117.411
21
-160.692
0
LINE
8
BLACK
6
CONTINUOUS
10
117.411
20
-160.692
11
117.839
21
-160.692
0
LINE
8
BLACK
6
CONTINUOUS
10
117.839
20
-160.692
11
118.125
21
-160.835
0
LINE
8
BLACK
6
CONTINUOUS
10
118.125
20
-160.835
11
118.268
21
-161.121
0
LINE
8
BLACK
6
CONTINUOUS
10
118.268
20
-161.121
11
118.268
21
-162.692
0
LINE
8
BLACK
6
CONTINUOUS
10
119.696
20
-162.692
11
119.696
21
-160.692
0
LINE
8
BLACK
6
CONTINUOUS
10
119.696
20
-160.978
11
119.839
21
-160.835
0
LINE
8
BLACK
6
CONTINUOUS
10
119.839
20
-160.835
11
120.125
21
-160.692
0
LINE
8
BLACK
6
CONTINUOUS
10
120.125
20
-160.692
11
120.554
21
-160.692
0
LINE
8
BLACK
6
CONTINUOUS
10
120.554
20
-160.692
11
120.839
21
-160.835
0
LINE
8
BLACK
6
CONTINUOUS
10
120.839
20
-160.835
11
120.982
21
-161.121
0
LINE
8
BLACK
6
CONTINUOUS
10
120.982
20
-161.121
11
120.982
21
-162.692
0
LINE
8
BLACK
6
CONTINUOUS
10
120.982
20
-161.121
11
121.125
21
-160.835
0
LINE
8
BLACK
6
CONTINUOUS
10
121.125
20
-160.835
11
121.411
21
-160.692
0
LINE
8
BLACK
6
CONTINUOUS
10
121.411
20
-160.692
11
121.839
21
-160.692
0
LINE
8
BLACK
6
CONTINUOUS
10
121.839
20
-160.692
11
122.125
21
-160.835
0
LINE
8
BLACK
6
CONTINUOUS
10
122.125
20
-160.835
11
122.268
21
-161.121
0
LINE
8
BLACK
6
CONTINUOUS
10
122.268
20
-161.121
11
122.268
21
-162.692
0
LINE
8
BLACK
6
CONTINUOUS
10
128.125
20
-159.549
11
125.554
21
-163.406
0
LINE
8
BLACK
6
CONTINUOUS
10
131.982
20
-159.692
11
132.268
21
-159.692
0
LINE
8
BLACK
6
CONTINUOUS
10
132.268
20
-159.692
11
132.554
21
-159.835
0
LINE
8
BLACK
6
CONTINUOUS
10
132.554
20
-159.835
11
132.696
21
-159.978
0
LINE
8
BLACK
6
CONTINUOUS
10
132.696
20
-159.978
11
132.839
21
-160.264
0
LINE
8
BLACK
6
CONTINUOUS
10
132.839
20
-160.264
11
132.982
21
-160.835
0
LINE
8
BLACK
6
CONTINUOUS
10
132.982
20
-160.835
11
132.982
21
-161.549
0
LINE
8
BLACK
6
CONTINUOUS
10
132.982
20
-161.549
11
132.839
21
-162.121
0
LINE
8
BLACK
6
CONTINUOUS
10
132.839
20
-162.121
11
132.696
21
-162.406
0
LINE
8
BLACK
6
CONTINUOUS
10
132.696
20
-162.406
11
132.554
21
-162.549
0
LINE
8
BLACK
6
CONTINUOUS
10
132.554
20
-162.549
11
132.268
21
-162.692
0
LINE
8
BLACK
6
CONTINUOUS
10
132.268
20
-162.692
11
131.982
21
-162.692
0
LINE
8
BLACK
6
CONTINUOUS
10
131.982
20
-162.692
11
131.696
21
-162.549
0
LINE
8
BLACK
6
CONTINUOUS
10
131.696
20
-162.549
11
131.554
21
-162.406
0
LINE
8
BLACK
6
CONTINUOUS
10
131.554
20
-162.406
11
131.411
21
-162.121
0
LINE
8
BLACK
6
CONTINUOUS
10
131.411
20
-162.121
11
131.268
21
-161.549
0
LINE
8
BLACK
6
CONTINUOUS
10
131.268
20
-161.549
11
131.268
21
-160.835
0
LINE
8
BLACK
6
CONTINUOUS
10
131.268
20
-160.835
11
131.411
21
-160.264
0
LINE
8
BLACK
6
CONTINUOUS
10
131.411
20
-160.264
11
131.554
21
-159.978
0
LINE
8
BLACK
6
CONTINUOUS
10
131.554
20
-159.978
11
131.696
21
-159.835
0
LINE
8
BLACK
6
CONTINUOUS
10
131.696
20
-159.835
11
131.982
21
-159.692
0
LINE
8
BLACK
6
CONTINUOUS
10
134.268
20
-162.406
11
134.411
21
-162.549
0
LINE
8
BLACK
6
CONTINUOUS
10
134.411
20
-162.549
11
134.268
21
-162.692
0
LINE
8
BLACK
6
CONTINUOUS
10
134.268
20
-162.692
11
134.125
21
-162.549
0
LINE
8
BLACK
6
CONTINUOUS
10
134.125
20
-162.549
11
134.268
21
-162.406
0
LINE
8
BLACK
6
CONTINUOUS
10
134.268
20
-162.406
11
134.268
21
-162.692
0
LINE
8
BLACK
6
CONTINUOUS
10
136.268
20
-159.692
11
136.554
21
-159.692
0
LINE
8
BLACK
6
CONTINUOUS
10
136.554
20
-159.692
11
136.839
21
-159.835
0
LINE
8
BLACK
6
CONTINUOUS
10
136.839
20
-159.835
11
136.982
21
-159.978
0
LINE
8
BLACK
6
CONTINUOUS
10
136.982
20
-159.978
11
137.125
21
-160.264
0
LINE
8
BLACK
6
CONTINUOUS
10
137.125
20
-160.264
11
137.268
21
-160.835
0
LINE
8
BLACK
6
CONTINUOUS
10
137.268
20
-160.835
11
137.268
21
-161.549
0
LINE
8
BLACK
6
CONTINUOUS
10
137.268
20
-161.549
11
137.125
21
-162.121
0
LINE
8
BLACK
6
CONTINUOUS
10
137.125
20
-162.121
11
136.982
21
-162.406
0
LINE
8
BLACK
6
CONTINUOUS
10
136.982
20
-162.406
11
136.839
21
-162.549
0
LINE
8
BLACK
6
CONTINUOUS
10
136.839
20
-162.549
11
136.554
21
-162.692
0
LINE
8
BLACK
6
CONTINUOUS
10
136.554
20
-162.692
11
136.268
21
-162.692
0
LINE
8
BLACK
6
CONTINUOUS
10
136.268
20
-162.692
11
135.982
21
-162.549
0
LINE
8
BLACK
6
CONTINUOUS
10
135.982
20
-162.549
11
135.839
21
-162.406
0
LINE
8
BLACK
6
CONTINUOUS
10
135.839
20
-162.406
11
135.696
21
-162.121
0
LINE
8
BLACK
6
CONTINUOUS
10
135.696
20
-162.121
11
135.554
21
-161.549
0
LINE
8
BLACK
6
CONTINUOUS
10
135.554
20
-161.549
11
135.554
21
-160.835
0
LINE
8
BLACK
6
CONTINUOUS
10
135.554
20
-160.835
11
135.696
21
-160.264
0
LINE
8
BLACK
6
CONTINUOUS
10
135.696
20
-160.264
11
135.839
21
-159.978
0
LINE
8
BLACK
6
CONTINUOUS
10
135.839
20
-159.978
11
135.982
21
-159.835
0
LINE
8
BLACK
6
CONTINUOUS
10
135.982
20
-159.835
11
136.268
21
-159.692
0
LINE
8
BLACK
6
CONTINUOUS
10
138.268
20
-159.692
11
140.268
21
-159.692
0
LINE
8
BLACK
6
CONTINUOUS
10
140.268
20
-159.692
11
138.982
21
-162.692
0
LINE
8
BLACK
6
CONTINUOUS
10
141.839
20
-160.978
11
141.554
21
-160.835
0
LINE
8
BLACK
6
CONTINUOUS
10
141.554
20
-160.835
11
141.411
21
-160.692
0
LINE
8
BLACK
6
CONTINUOUS
10
141.411
20
-160.692
11
141.268
21
-160.406
0
LINE
8
BLACK
6
CONTINUOUS
10
141.268
20
-160.406
11
141.268
21
-160.264
0
LINE
8
BLACK
6
CONTINUOUS
10
141.268
20
-160.264
11
141.411
21
-159.978
0
LINE
8
BLACK
6
CONTINUOUS
10
141.411
20
-159.978
11
141.554
21
-159.835
0
LINE
8
BLACK
6
CONTINUOUS
10
141.554
20
-159.835
11
141.839
21
-159.692
0
LINE
8
BLACK
6
CONTINUOUS
10
141.839
20
-159.692
11
142.411
21
-159.692
0
LINE
8
BLACK
6
CONTINUOUS
10
142.411
20
-159.692
11
142.696
21
-159.835
0
LINE
8
BLACK
6
CONTINUOUS
10
142.696
20
-159.835
11
142.839
21
-159.978
0
LINE
8
BLACK
6
CONTINUOUS
10
142.839
20
-159.978
11
142.982
21
-160.264
0
LINE
8
BLACK
6
CONTINUOUS
10
142.982
20
-160.264
11
142.982
21
-160.406
0
LINE
8
BLACK
6
CONTINUOUS
10
142.982
20
-160.406
11
142.839
21
-160.692
0
LINE
8
BLACK
6
CONTINUOUS
10
142.839
20
-160.692
11
142.696
21
-160.835
0
LINE
8
BLACK
6
CONTINUOUS
10
142.696
20
-160.835
11
142.411
21
-160.978
0
LINE
8
BLACK
6
CONTINUOUS
10
142.411
20
-160.978
11
141.839
21
-160.978
0
LINE
8
BLACK
6
CONTINUOUS
10
141.839
20
-160.978
11
141.554
21
-161.121
0
LINE
8
BLACK
6
CONTINUOUS
10
141.554
20
-161.121
11
141.411
21
-161.264
0
LINE
8
BLACK
6
CONTINUOUS
10
141.411
20
-161.264
11
141.268
21
-161.549
0
LINE
8
BLACK
6
CONTINUOUS
10
141.268
20
-161.549
11
141.268
21
-162.121
0
LINE
8
BLACK
6
CONTINUOUS
10
141.268
20
-162.121
11
141.411
21
-162.406
0
LINE
8
BLACK
6
CONTINUOUS
10
141.411
20
-162.406
11
141.554
21
-162.549
0
LINE
8
BLACK
6
CONTINUOUS
10
141.554
20
-162.549
11
141.839
21
-162.692
0
LINE
8
BLACK
6
CONTINUOUS
10
141.839
20
-162.692
11
142.411
21
-162.692
0
LINE
8
BLACK
6
CONTINUOUS
10
142.411
20
-162.692
11
142.696
21
-162.549
0
LINE
8
BLACK
6
CONTINUOUS
10
142.696
20
-162.549
11
142.839
21
-162.406
0
LINE
8
BLACK
6
CONTINUOUS
10
142.839
20
-162.406
11
142.982
21
-162.121
0
LINE
8
BLACK
6
CONTINUOUS
10
142.982
20
-162.121
11
142.982
21
-161.549
0
LINE
8
BLACK
6
CONTINUOUS
10
142.982
20
-161.549
11
142.839
21
-161.264
0
LINE
8
BLACK
6
CONTINUOUS
10
142.839
20
-161.264
11
142.696
21
-161.121
0
LINE
8
BLACK
6
CONTINUOUS
10
142.696
20
-161.121
11
142.411
21
-160.978
0
LINE
8
BLACK
6
CONTINUOUS
10
143.982
20
-159.692
11
145.982
21
-159.692
0
LINE
8
BLACK
6
CONTINUOUS
10
145.982
20
-159.692
11
144.696
21
-162.692
0
LINE
8
BLACK
6
CONTINUOUS
10
146.982
20
-159.692
11
146.982
21
-160.264
0
LINE
8
BLACK
6
CONTINUOUS
10
148.125
20
-159.692
11
148.125
21
-160.264
0
LINE
8
BLACK
6
CONTINUOUS
10
152.554
20
-163.835
11
152.411
21
-163.692
0
LINE
8
BLACK
6
CONTINUOUS
10
152.411
20
-163.692
11
152.125
21
-163.264
0
LINE
8
BLACK
6
CONTINUOUS
10
152.125
20
-163.264
11
151.982
21
-162.978
0
LINE
8
BLACK
6
CONTINUOUS
10
151.982
20
-162.978
11
151.839
21
-162.549
0
LINE
8
BLACK
6
CONTINUOUS
10
151.839
20
-162.549
11
151.696
21
-161.835
0
LINE
8
BLACK
6
CONTINUOUS
10
151.696
20
-161.835
11
151.696
21
-161.264
0
LINE
8
BLACK
6
CONTINUOUS
10
151.696
20
-161.264
11
151.839
21
-160.549
0
LINE
8
BLACK
6
CONTINUOUS
10
151.839
20
-160.549
11
151.982
21
-160.121
0
LINE
8
BLACK
6
CONTINUOUS
10
151.982
20
-160.121
11
152.125
21
-159.835
0
LINE
8
BLACK
6
CONTINUOUS
10
152.125
20
-159.835
11
152.411
21
-159.406
0
LINE
8
BLACK
6
CONTINUOUS
10
152.411
20
-159.406
11
152.554
21
-159.264
0
LINE
8
BLACK
6
CONTINUOUS
10
155.268
20
-162.692
11
153.554
21
-162.692
0
LINE
8
BLACK
6
CONTINUOUS
10
154.411
20
-162.692
11
154.411
21
-159.692
0
LINE
8
BLACK
6
CONTINUOUS
10
154.411
20
-159.692
11
154.125
21
-160.121
0
LINE
8
BLACK
6
CONTINUOUS
10
154.125
20
-160.121
11
153.839
21
-160.406
0
LINE
8
BLACK
6
CONTINUOUS
10
153.839
20
-160.406
11
153.554
21
-160.549
0
LINE
8
BLACK
6
CONTINUOUS
10
156.411
20
-159.978
11
156.554
21
-159.835
0
LINE
8
BLACK
6
CONTINUOUS
10
156.554
20
-159.835
11
156.839
21
-159.692
0
LINE
8
BLACK
6
CONTINUOUS
10
156.839
20
-159.692
11
157.554
21
-159.692
0
LINE
8
BLACK
6
CONTINUOUS
10
157.554
20
-159.692
11
157.839
21
-159.835
0
LINE
8
BLACK
6
CONTINUOUS
10
157.839
20
-159.835
11
157.982
21
-159.978
0
LINE
8
BLACK
6
CONTINUOUS
10
157.982
20
-159.978
11
158.125
21
-160.264
0
LINE
8
BLACK
6
CONTINUOUS
10
158.125
20
-160.264
11
158.125
21
-160.549
0
LINE
8
BLACK
6
CONTINUOUS
10
158.125
20
-160.549
11
157.982
21
-160.978
0
LINE
8
BLACK
6
CONTINUOUS
10
157.982
20
-160.978
11
156.268
21
-162.692
0
LINE
8
BLACK
6
CONTINUOUS
10
156.268
20
-162.692
11
158.125
21
-162.692
0
LINE
8
BLACK
6
CONTINUOUS
10
161.696
20
-162.692
11
161.696
21
-159.692
0
LINE
8
BLACK
6
CONTINUOUS
10
162.982
20
-162.692
11
162.982
21
-161.121
0
LINE
8
BLACK
6
CONTINUOUS
10
162.982
20
-161.121
11
162.839
21
-160.835
0
LINE
8
BLACK
6
CONTINUOUS
10
162.839
20
-160.835
11
162.554
21
-160.692
0
LINE
8
BLACK
6
CONTINUOUS
10
162.554
20
-160.692
11
162.125
21
-160.692
0
LINE
8
BLACK
6
CONTINUOUS
10
162.125
20
-160.692
11
161.839
21
-160.835
0
LINE
8
BLACK
6
CONTINUOUS
10
161.839
20
-160.835
11
161.696
21
-160.978
0
LINE
8
BLACK
6
CONTINUOUS
10
164.839
20
-162.692
11
164.554
21
-162.549
0
LINE
8
BLACK
6
CONTINUOUS
10
164.554
20
-162.549
11
164.411
21
-162.406
0
LINE
8
BLACK
6
CONTINUOUS
10
164.411
20
-162.406
11
164.268
21
-162.121
0
LINE
8
BLACK
6
CONTINUOUS
10
164.268
20
-162.121
11
164.268
21
-161.264
0
LINE
8
BLACK
6
CONTINUOUS
10
164.268
20
-161.264
11
164.411
21
-160.978
0
LINE
8
BLACK
6
CONTINUOUS
10
164.411
20
-160.978
11
164.554
21
-160.835
0
LINE
8
BLACK
6
CONTINUOUS
10
164.554
20
-160.835
11
164.839
21
-160.692
0
LINE
8
BLACK
6
CONTINUOUS
10
164.839
20
-160.692
11
165.268
21
-160.692
0
LINE
8
BLACK
6
CONTINUOUS
10
165.268
20
-160.692
11
165.554
21
-160.835
0
LINE
8
BLACK
6
CONTINUOUS
10
165.554
20
-160.835
11
165.696
21
-160.978
0
LINE
8
BLACK
6
CONTINUOUS
10
165.696
20
-160.978
11
165.839
21
-161.264
0
LINE
8
BLACK
6
CONTINUOUS
10
165.839
20
-161.264
11
165.839
21
-162.121
0
LINE
8
BLACK
6
CONTINUOUS
10
165.839
20
-162.121
11
165.696
21
-162.406
0
LINE
8
BLACK
6
CONTINUOUS
10
165.696
20
-162.406
11
165.554
21
-162.549
0
LINE
8
BLACK
6
CONTINUOUS
10
165.554
20
-162.549
11
165.268
21
-162.692
0
LINE
8
BLACK
6
CONTINUOUS
10
165.268
20
-162.692
11
164.839
21
-162.692
0
LINE
8
BLACK
6
CONTINUOUS
10
167.554
20
-162.692
11
167.268
21
-162.549
0
LINE
8
BLACK
6
CONTINUOUS
10
167.268
20
-162.549
11
167.125
21
-162.264
0
LINE
8
BLACK
6
CONTINUOUS
10
167.125
20
-162.264
11
167.125
21
-159.692
0
LINE
8
BLACK
6
CONTINUOUS
10
169.839
20
-162.549
11
169.554
21
-162.692
0
LINE
8
BLACK
6
CONTINUOUS
10
169.554
20
-162.692
11
168.982
21
-162.692
0
LINE
8
BLACK
6
CONTINUOUS
10
168.982
20
-162.692
11
168.696
21
-162.549
0
LINE
8
BLACK
6
CONTINUOUS
10
168.696
20
-162.549
11
168.554
21
-162.264
0
LINE
8
BLACK
6
CONTINUOUS
10
168.554
20
-162.264
11
168.554
21
-161.121
0
LINE
8
BLACK
6
CONTINUOUS
10
168.554
20
-161.121
11
168.696
21
-160.835
0
LINE
8
BLACK
6
CONTINUOUS
10
168.696
20
-160.835
11
168.982
21
-160.692
0
LINE
8
BLACK
6
CONTINUOUS
10
168.982
20
-160.692
11
169.554
21
-160.692
0
LINE
8
BLACK
6
CONTINUOUS
10
169.554
20
-160.692
11
169.839
21
-160.835
0
LINE
8
BLACK
6
CONTINUOUS
10
169.839
20
-160.835
11
169.982
21
-161.121
0
LINE
8
BLACK
6
CONTINUOUS
10
169.982
20
-161.121
11
169.982
21
-161.406
0
LINE
8
BLACK
6
CONTINUOUS
10
169.982
20
-161.406
11
168.554
21
-161.692
0
LINE
8
BLACK
6
CONTINUOUS
10
171.125
20
-162.549
11
171.411
21
-162.692
0
LINE
8
BLACK
6
CONTINUOUS
10
171.411
20
-162.692
11
171.982
21
-162.692
0
LINE
8
BLACK
6
CONTINUOUS
10
171.982
20
-162.692
11
172.268
21
-162.549
0
LINE
8
BLACK
6
CONTINUOUS
10
172.268
20
-162.549
11
172.411
21
-162.264
0
LINE
8
BLACK
6
CONTINUOUS
10
172.411
20
-162.264
11
172.411
21
-162.121
0
LINE
8
BLACK
6
CONTINUOUS
10
172.411
20
-162.121
11
172.268
21
-161.835
0
LINE
8
BLACK
6
CONTINUOUS
10
172.268
20
-161.835
11
171.982
21
-161.692
0
LINE
8
BLACK
6
CONTINUOUS
10
171.982
20
-161.692
11
171.554
21
-161.692
0
LINE
8
BLACK
6
CONTINUOUS
10
171.554
20
-161.692
11
171.268
21
-161.549
0
LINE
8
BLACK
6
CONTINUOUS
10
171.268
20
-161.549
11
171.125
21
-161.264
0
LINE
8
BLACK
6
CONTINUOUS
10
171.125
20
-161.264
11
171.125
21
-161.121
0
LINE
8
BLACK
6
CONTINUOUS
10
171.125
20
-161.121
11
171.268
21
-160.835
0
LINE
8
BLACK
6
CONTINUOUS
10
171.268
20
-160.835
11
171.554
21
-160.692
0
LINE
8
BLACK
6
CONTINUOUS
10
171.554
20
-160.692
11
171.982
21
-160.692
0
LINE
8
BLACK
6
CONTINUOUS
10
171.982
20
-160.692
11
172.268
21
-160.835
0
LINE
8
BLACK
6
CONTINUOUS
10
173.411
20
-163.835
11
173.554
21
-163.692
0
LINE
8
BLACK
6
CONTINUOUS
10
173.554
20
-163.692
11
173.839
21
-163.264
0
LINE
8
BLACK
6
CONTINUOUS
10
173.839
20
-163.264
11
173.982
21
-162.978
0
LINE
8
BLACK
6
CONTINUOUS
10
173.982
20
-162.978
11
174.125
21
-162.549
0
LINE
8
BLACK
6
CONTINUOUS
10
174.125
20
-162.549
11
174.268
21
-161.835
0
LINE
8
BLACK
6
CONTINUOUS
10
174.268
20
-161.835
11
174.268
21
-161.264
0
LINE
8
BLACK
6
CONTINUOUS
10
174.268
20
-161.264
11
174.125
21
-160.549
0
LINE
8
BLACK
6
CONTINUOUS
10
174.125
20
-160.549
11
173.982
21
-160.121
0
LINE
8
BLACK
6
CONTINUOUS
10
173.982
20
-160.121
11
173.839
21
-159.835
0
LINE
8
BLACK
6
CONTINUOUS
10
173.839
20
-159.835
11
173.554
21
-159.406
0
LINE
8
BLACK
6
CONTINUOUS
10
173.554
20
-159.406
11
173.411
21
-159.264
0
LINE
8
BLACK
6
CONTINUOUS
10
98.5
20
-163.82
11
98.5
21
-166.77
0
LINE
8
BLACK
6
CONTINUOUS
10
97.025
20
-165.295
11
99.975
21
-165.295
0
LINE
8
BLACK
6
CONTINUOUS
10
102.696
20
-163.938
11
102.839
21
-163.795
0
LINE
8
BLACK
6
CONTINUOUS
10
102.839
20
-163.795
11
103.125
21
-163.652
0
LINE
8
BLACK
6
CONTINUOUS
10
103.125
20
-163.652
11
103.839
21
-163.652
0
LINE
8
BLACK
6
CONTINUOUS
10
103.839
20
-163.652
11
104.125
21
-163.795
0
LINE
8
BLACK
6
CONTINUOUS
10
104.125
20
-163.795
11
104.268
21
-163.938
0
LINE
8
BLACK
6
CONTINUOUS
10
104.268
20
-163.938
11
104.411
21
-164.224
0
LINE
8
BLACK
6
CONTINUOUS
10
104.411
20
-164.224
11
104.411
21
-164.509
0
LINE
8
BLACK
6
CONTINUOUS
10
104.411
20
-164.509
11
104.268
21
-164.938
0
LINE
8
BLACK
6
CONTINUOUS
10
104.268
20
-164.938
11
102.554
21
-166.652
0
LINE
8
BLACK
6
CONTINUOUS
10
102.554
20
-166.652
11
104.411
21
-166.652
0
LINE
8
BLACK
6
CONTINUOUS
10
105.696
20
-166.366
11
105.839
21
-166.509
0
LINE
8
BLACK
6
CONTINUOUS
10
105.839
20
-166.509
11
105.696
21
-166.652
0
LINE
8
BLACK
6
CONTINUOUS
10
105.696
20
-166.652
11
105.554
21
-166.509
0
LINE
8
BLACK
6
CONTINUOUS
10
105.554
20
-166.509
11
105.696
21
-166.366
0
LINE
8
BLACK
6
CONTINUOUS
10
105.696
20
-166.366
11
105.696
21
-166.652
0
LINE
8
BLACK
6
CONTINUOUS
10
107.268
20
-166.652
11
107.839
21
-166.652
0
LINE
8
BLACK
6
CONTINUOUS
10
107.839
20
-166.652
11
108.125
21
-166.509
0
LINE
8
BLACK
6
CONTINUOUS
10
108.125
20
-166.509
11
108.268
21
-166.366
0
LINE
8
BLACK
6
CONTINUOUS
10
108.268
20
-166.366
11
108.554
21
-165.938
0
LINE
8
BLACK
6
CONTINUOUS
10
108.554
20
-165.938
11
108.696
21
-165.366
0
LINE
8
BLACK
6
CONTINUOUS
10
108.696
20
-165.366
11
108.696
21
-164.224
0
LINE
8
BLACK
6
CONTINUOUS
10
108.696
20
-164.224
11
108.554
21
-163.938
0
LINE
8
BLACK
6
CONTINUOUS
10
108.554
20
-163.938
11
108.411
21
-163.795
0
LINE
8
BLACK
6
CONTINUOUS
10
108.411
20
-163.795
11
108.125
21
-163.652
0
LINE
8
BLACK
6
CONTINUOUS
10
108.125
20
-163.652
11
107.554
21
-163.652
0
LINE
8
BLACK
6
CONTINUOUS
10
107.554
20
-163.652
11
107.268
21
-163.795
0
LINE
8
BLACK
6
CONTINUOUS
10
107.268
20
-163.795
11
107.125
21
-163.938
0
LINE
8
BLACK
6
CONTINUOUS
10
107.125
20
-163.938
11
106.982
21
-164.224
0
LINE
8
BLACK
6
CONTINUOUS
10
106.982
20
-164.224
11
106.982
21
-164.938
0
LINE
8
BLACK
6
CONTINUOUS
10
106.982
20
-164.938
11
107.125
21
-165.224
0
LINE
8
BLACK
6
CONTINUOUS
10
107.125
20
-165.224
11
107.268
21
-165.366
0
LINE
8
BLACK
6
CONTINUOUS
10
107.268
20
-165.366
11
107.554
21
-165.509
0
LINE
8
BLACK
6
CONTINUOUS
10
107.554
20
-165.509
11
108.125
21
-165.509
0
LINE
8
BLACK
6
CONTINUOUS
10
108.125
20
-165.509
11
108.411
21
-165.366
0
LINE
8
BLACK
6
CONTINUOUS
10
108.411
20
-165.366
11
108.554
21
-165.224
0
LINE
8
BLACK
6
CONTINUOUS
10
108.554
20
-165.224
11
108.696
21
-164.938
0
LINE
8
BLACK
6
CONTINUOUS
10
111.411
20
-163.652
11
109.982
21
-163.652
0
LINE
8
BLACK
6
CONTINUOUS
10
109.982
20
-163.652
11
109.839
21
-165.081
0
LINE
8
BLACK
6
CONTINUOUS
10
109.839
20
-165.081
11
109.982
21
-164.938
0
LINE
8
BLACK
6
CONTINUOUS
10
109.982
20
-164.938
11
110.268
21
-164.795
0
LINE
8
BLACK
6
CONTINUOUS
10
110.268
20
-164.795
11
110.982
21
-164.795
0
LINE
8
BLACK
6
CONTINUOUS
10
110.982
20
-164.795
11
111.268
21
-164.938
0
LINE
8
BLACK
6
CONTINUOUS
10
111.268
20
-164.938
11
111.411
21
-165.081
0
LINE
8
BLACK
6
CONTINUOUS
10
111.411
20
-165.081
11
111.554
21
-165.366
0
LINE
8
BLACK
6
CONTINUOUS
10
111.554
20
-165.366
11
111.554
21
-166.081
0
LINE
8
BLACK
6
CONTINUOUS
10
111.554
20
-166.081
11
111.411
21
-166.366
0
LINE
8
BLACK
6
CONTINUOUS
10
111.411
20
-166.366
11
111.268
21
-166.509
0
LINE
8
BLACK
6
CONTINUOUS
10
111.268
20
-166.509
11
110.982
21
-166.652
0
LINE
8
BLACK
6
CONTINUOUS
10
110.982
20
-166.652
11
110.268
21
-166.652
0
LINE
8
BLACK
6
CONTINUOUS
10
110.268
20
-166.652
11
109.982
21
-166.509
0
LINE
8
BLACK
6
CONTINUOUS
10
109.982
20
-166.509
11
109.839
21
-166.366
0
LINE
8
BLACK
6
CONTINUOUS
10
113.411
20
-163.652
11
113.696
21
-163.652
0
LINE
8
BLACK
6
CONTINUOUS
10
113.696
20
-163.652
11
113.982
21
-163.795
0
LINE
8
BLACK
6
CONTINUOUS
10
113.982
20
-163.795
11
114.125
21
-163.938
0
LINE
8
BLACK
6
CONTINUOUS
10
114.125
20
-163.938
11
114.268
21
-164.224
0
LINE
8
BLACK
6
CONTINUOUS
10
114.268
20
-164.224
11
114.411
21
-164.795
0
LINE
8
BLACK
6
CONTINUOUS
10
114.411
20
-164.795
11
114.411
21
-165.509
0
LINE
8
BLACK
6
CONTINUOUS
10
114.411
20
-165.509
11
114.268
21
-166.081
0
LINE
8
BLACK
6
CONTINUOUS
10
114.268
20
-166.081
11
114.125
21
-166.366
0
LINE
8
BLACK
6
CONTINUOUS
10
114.125
20
-166.366
11
113.982
21
-166.509
0
LINE
8
BLACK
6
CONTINUOUS
10
113.982
20
-166.509
11
113.696
21
-166.652
0
LINE
8
BLACK
6
CONTINUOUS
10
113.696
20
-166.652
11
113.411
21
-166.652
0
LINE
8
BLACK
6
CONTINUOUS
10
113.411
20
-166.652
11
113.125
21
-166.509
0
LINE
8
BLACK
6
CONTINUOUS
10
113.125
20
-166.509
11
112.982
21
-166.366
0
LINE
8
BLACK
6
CONTINUOUS
10
112.982
20
-166.366
11
112.839
21
-166.081
0
LINE
8
BLACK
6
CONTINUOUS
10
112.839
20
-166.081
11
112.696
21
-165.509
0
LINE
8
BLACK
6
CONTINUOUS
10
112.696
20
-165.509
11
112.696
21
-164.795
0
LINE
8
BLACK
6
CONTINUOUS
10
112.696
20
-164.795
11
112.839
21
-164.224
0
LINE
8
BLACK
6
CONTINUOUS
10
112.839
20
-164.224
11
112.982
21
-163.938
0
LINE
8
BLACK
6
CONTINUOUS
10
112.982
20
-163.938
11
113.125
21
-163.795
0
LINE
8
BLACK
6
CONTINUOUS
10
113.125
20
-163.795
11
113.411
21
-163.652
0
LINE
8
BLACK
6
CONTINUOUS
10
115.696
20
-166.652
11
115.696
21
-164.652
0
LINE
8
BLACK
6
CONTINUOUS
10
115.696
20
-164.938
11
115.839
21
-164.795
0
LINE
8
BLACK
6
CONTINUOUS
10
115.839
20
-164.795
11
116.125
21
-164.652
0
LINE
8
BLACK
6
CONTINUOUS
10
116.125
20
-164.652
11
116.554
21
-164.652
0
LINE
8
BLACK
6
CONTINUOUS
10
116.554
20
-164.652
11
116.839
21
-164.795
0
LINE
8
BLACK
6
CONTINUOUS
10
116.839
20
-164.795
11
116.982
21
-165.081
0
LINE
8
BLACK
6
CONTINUOUS
10
116.982
20
-165.081
11
116.982
21
-166.652
0
LINE
8
BLACK
6
CONTINUOUS
10
116.982
20
-165.081
11
117.125
21
-164.795
0
LINE
8
BLACK
6
CONTINUOUS
10
117.125
20
-164.795
11
117.411
21
-164.652
0
LINE
8
BLACK
6
CONTINUOUS
10
117.411
20
-164.652
11
117.839
21
-164.652
0
LINE
8
BLACK
6
CONTINUOUS
10
117.839
20
-164.652
11
118.125
21
-164.795
0
LINE
8
BLACK
6
CONTINUOUS
10
118.125
20
-164.795
11
118.268
21
-165.081
0
LINE
8
BLACK
6
CONTINUOUS
10
118.268
20
-165.081
11
118.268
21
-166.652
0
LINE
8
BLACK
6
CONTINUOUS
10
119.696
20
-166.652
11
119.696
21
-164.652
0
LINE
8
BLACK
6
CONTINUOUS
10
119.696
20
-164.938
11
119.839
21
-164.795
0
LINE
8
BLACK
6
CONTINUOUS
10
119.839
20
-164.795
11
120.125
21
-164.652
0
LINE
8
BLACK
6
CONTINUOUS
10
120.125
20
-164.652
11
120.554
21
-164.652
0
LINE
8
BLACK
6
CONTINUOUS
10
120.554
20
-164.652
11
120.839
21
-164.795
0
LINE
8
BLACK
6
CONTINUOUS
10
120.839
20
-164.795
11
120.982
21
-165.081
0
LINE
8
BLACK
6
CONTINUOUS
10
120.982
20
-165.081
11
120.982
21
-166.652
0
LINE
8
BLACK
6
CONTINUOUS
10
120.982
20
-165.081
11
121.125
21
-164.795
0
LINE
8
BLACK
6
CONTINUOUS
10
121.125
20
-164.795
11
121.411
21
-164.652
0
LINE
8
BLACK
6
CONTINUOUS
10
121.411
20
-164.652
11
121.839
21
-164.652
0
LINE
8
BLACK
6
CONTINUOUS
10
121.839
20
-164.652
11
122.125
21
-164.795
0
LINE
8
BLACK
6
CONTINUOUS
10
122.125
20
-164.795
11
122.268
21
-165.081
0
LINE
8
BLACK
6
CONTINUOUS
10
122.268
20
-165.081
11
122.268
21
-166.652
0
LINE
8
BLACK
6
CONTINUOUS
10
128.125
20
-163.509
11
125.554
21
-167.366
0
LINE
8
BLACK
6
CONTINUOUS
10
131.982
20
-163.652
11
132.268
21
-163.652
0
LINE
8
BLACK
6
CONTINUOUS
10
132.268
20
-163.652
11
132.554
21
-163.795
0
LINE
8
BLACK
6
CONTINUOUS
10
132.554
20
-163.795
11
132.696
21
-163.938
0
LINE
8
BLACK
6
CONTINUOUS
10
132.696
20
-163.938
11
132.839
21
-164.224
0
LINE
8
BLACK
6
CONTINUOUS
10
132.839
20
-164.224
11
132.982
21
-164.795
0
LINE
8
BLACK
6
CONTINUOUS
10
132.982
20
-164.795
11
132.982
21
-165.509
0
LINE
8
BLACK
6
CONTINUOUS
10
132.982
20
-165.509
11
132.839
21
-166.081
0
LINE
8
BLACK
6
CONTINUOUS
10
132.839
20
-166.081
11
132.696
21
-166.366
0
LINE
8
BLACK
6
CONTINUOUS
10
132.696
20
-166.366
11
132.554
21
-166.509
0
LINE
8
BLACK
6
CONTINUOUS
10
132.554
20
-166.509
11
132.268
21
-166.652
0
LINE
8
BLACK
6
CONTINUOUS
10
132.268
20
-166.652
11
131.982
21
-166.652
0
LINE
8
BLACK
6
CONTINUOUS
10
131.982
20
-166.652
11
131.696
21
-166.509
0
LINE
8
BLACK
6
CONTINUOUS
10
131.696
20
-166.509
11
131.554
21
-166.366
0
LINE
8
BLACK
6
CONTINUOUS
10
131.554
20
-166.366
11
131.411
21
-166.081
0
LINE
8
BLACK
6
CONTINUOUS
10
131.411
20
-166.081
11
131.268
21
-165.509
0
LINE
8
BLACK
6
CONTINUOUS
10
131.268
20
-165.509
11
131.268
21
-164.795
0
LINE
8
BLACK
6
CONTINUOUS
10
131.268
20
-164.795
11
131.411
21
-164.224
0
LINE
8
BLACK
6
CONTINUOUS
10
131.411
20
-164.224
11
131.554
21
-163.938
0
LINE
8
BLACK
6
CONTINUOUS
10
131.554
20
-163.938
11
131.696
21
-163.795
0
LINE
8
BLACK
6
CONTINUOUS
10
131.696
20
-163.795
11
131.982
21
-163.652
0
LINE
8
BLACK
6
CONTINUOUS
10
134.268
20
-166.366
11
134.411
21
-166.509
0
LINE
8
BLACK
6
CONTINUOUS
10
134.411
20
-166.509
11
134.268
21
-166.652
0
LINE
8
BLACK
6
CONTINUOUS
10
134.268
20
-166.652
11
134.125
21
-166.509
0
LINE
8
BLACK
6
CONTINUOUS
10
134.125
20
-166.509
11
134.268
21
-166.366
0
LINE
8
BLACK
6
CONTINUOUS
10
134.268
20
-166.366
11
134.268
21
-166.652
0
LINE
8
BLACK
6
CONTINUOUS
10
137.268
20
-166.652
11
135.554
21
-166.652
0
LINE
8
BLACK
6
CONTINUOUS
10
136.411
20
-166.652
11
136.411
21
-163.652
0
LINE
8
BLACK
6
CONTINUOUS
10
136.411
20
-163.652
11
136.125
21
-164.081
0
LINE
8
BLACK
6
CONTINUOUS
10
136.125
20
-164.081
11
135.839
21
-164.366
0
LINE
8
BLACK
6
CONTINUOUS
10
135.839
20
-164.366
11
135.554
21
-164.509
0
LINE
8
BLACK
6
CONTINUOUS
10
140.125
20
-166.652
11
138.411
21
-166.652
0
LINE
8
BLACK
6
CONTINUOUS
10
139.268
20
-166.652
11
139.268
21
-163.652
0
LINE
8
BLACK
6
CONTINUOUS
10
139.268
20
-163.652
11
138.982
21
-164.081
0
LINE
8
BLACK
6
CONTINUOUS
10
138.982
20
-164.081
11
138.696
21
-164.366
0
LINE
8
BLACK
6
CONTINUOUS
10
138.696
20
-164.366
11
138.411
21
-164.509
0
LINE
8
BLACK
6
CONTINUOUS
10
142.696
20
-163.652
11
142.125
21
-163.652
0
LINE
8
BLACK
6
CONTINUOUS
10
142.125
20
-163.652
11
141.839
21
-163.795
0
LINE
8
BLACK
6
CONTINUOUS
10
141.839
20
-163.795
11
141.696
21
-163.938
0
LINE
8
BLACK
6
CONTINUOUS
10
141.696
20
-163.938
11
141.411
21
-164.366
0
LINE
8
BLACK
6
CONTINUOUS
10
141.411
20
-164.366
11
141.268
21
-164.938
0
LINE
8
BLACK
6
CONTINUOUS
10
141.268
20
-164.938
11
141.268
21
-166.081
0
LINE
8
BLACK
6
CONTINUOUS
10
141.268
20
-166.081
11
141.411
21
-166.366
0
LINE
8
BLACK
6
CONTINUOUS
10
141.411
20
-166.366
11
141.554
21
-166.509
0
LINE
8
BLACK
6
CONTINUOUS
10
141.554
20
-166.509
11
141.839
21
-166.652
0
LINE
8
BLACK
6
CONTINUOUS
10
141.839
20
-166.652
11
142.411
21
-166.652
0
LINE
8
BLACK
6
CONTINUOUS
10
142.411
20
-166.652
11
142.696
21
-166.509
0
LINE
8
BLACK
6
CONTINUOUS
10
142.696
20
-166.509
11
142.839
21
-166.366
0
LINE
8
BLACK
6
CONTINUOUS
10
142.839
20
-166.366
11
142.982
21
-166.081
0
LINE
8
BLACK
6
CONTINUOUS
10
142.982
20
-166.081
11
142.982
21
-165.366
0
LINE
8
BLACK
6
CONTINUOUS
10
142.982
20
-165.366
11
142.839
21
-165.081
0
LINE
8
BLACK
6
CONTINUOUS
10
142.839
20
-165.081
11
142.696
21
-164.938
0
LINE
8
BLACK
6
CONTINUOUS
10
142.696
20
-164.938
11
142.411
21
-164.795
0
LINE
8
BLACK
6
CONTINUOUS
10
142.411
20
-164.795
11
141.839
21
-164.795
0
LINE
8
BLACK
6
CONTINUOUS
10
141.839
20
-164.795
11
141.554
21
-164.938
0
LINE
8
BLACK
6
CONTINUOUS
10
141.554
20
-164.938
11
141.411
21
-165.081
0
LINE
8
BLACK
6
CONTINUOUS
10
141.411
20
-165.081
11
141.268
21
-165.366
0
LINE
8
BLACK
6
CONTINUOUS
10
145.839
20
-166.652
11
144.125
21
-166.652
0
LINE
8
BLACK
6
CONTINUOUS
10
144.982
20
-166.652
11
144.982
21
-163.652
0
LINE
8
BLACK
6
CONTINUOUS
10
144.982
20
-163.652
11
144.696
21
-164.081
0
LINE
8
BLACK
6
CONTINUOUS
10
144.696
20
-164.081
11
144.411
21
-164.366
0
LINE
8
BLACK
6
CONTINUOUS
10
144.411
20
-164.366
11
144.125
21
-164.509
0
LINE
8
BLACK
6
CONTINUOUS
10
146.982
20
-163.652
11
146.982
21
-164.224
0
LINE
8
BLACK
6
CONTINUOUS
10
148.125
20
-163.652
11
148.125
21
-164.224
0
LINE
8
BLACK
6
CONTINUOUS
10
152.554
20
-167.795
11
152.411
21
-167.652
0
LINE
8
BLACK
6
CONTINUOUS
10
152.411
20
-167.652
11
152.125
21
-167.224
0
LINE
8
BLACK
6
CONTINUOUS
10
152.125
20
-167.224
11
151.982
21
-166.938
0
LINE
8
BLACK
6
CONTINUOUS
10
151.982
20
-166.938
11
151.839
21
-166.509
0
LINE
8
BLACK
6
CONTINUOUS
10
151.839
20
-166.509
11
151.696
21
-165.795
0
LINE
8
BLACK
6
CONTINUOUS
10
151.696
20
-165.795
11
151.696
21
-165.224
0
LINE
8
BLACK
6
CONTINUOUS
10
151.696
20
-165.224
11
151.839
21
-164.509
0
LINE
8
BLACK
6
CONTINUOUS
10
151.839
20
-164.509
11
151.982
21
-164.081
0
LINE
8
BLACK
6
CONTINUOUS
10
151.982
20
-164.081
11
152.125
21
-163.795
0
LINE
8
BLACK
6
CONTINUOUS
10
152.125
20
-163.795
11
152.411
21
-163.366
0
LINE
8
BLACK
6
CONTINUOUS
10
152.411
20
-163.366
11
152.554
21
-163.224
0
LINE
8
BLACK
6
CONTINUOUS
10
154.982
20
-164.652
11
154.982
21
-166.652
0
LINE
8
BLACK
6
CONTINUOUS
10
154.268
20
-163.509
11
153.554
21
-165.652
0
LINE
8
BLACK
6
CONTINUOUS
10
153.554
20
-165.652
11
155.411
21
-165.652
0
LINE
8
BLACK
6
CONTINUOUS
10
158.839
20
-166.652
11
158.839
21
-163.652
0
LINE
8
BLACK
6
CONTINUOUS
10
160.125
20
-166.652
11
160.125
21
-165.081
0
LINE
8
BLACK
6
CONTINUOUS
10
160.125
20
-165.081
11
159.982
21
-164.795
0
LINE
8
BLACK
6
CONTINUOUS
10
159.982
20
-164.795
11
159.696
21
-164.652
0
LINE
8
BLACK
6
CONTINUOUS
10
159.696
20
-164.652
11
159.268
21
-164.652
0
LINE
8
BLACK
6
CONTINUOUS
10
159.268
20
-164.652
11
158.982
21
-164.795
0
LINE
8
BLACK
6
CONTINUOUS
10
158.982
20
-164.795
11
158.839
21
-164.938
0
LINE
8
BLACK
6
CONTINUOUS
10
161.982
20
-166.652
11
161.696
21
-166.509
0
LINE
8
BLACK
6
CONTINUOUS
10
161.696
20
-166.509
11
161.554
21
-166.366
0
LINE
8
BLACK
6
CONTINUOUS
10
161.554
20
-166.366
11
161.411
21
-166.081
0
LINE
8
BLACK
6
CONTINUOUS
10
161.411
20
-166.081
11
161.411
21
-165.224
0
LINE
8
BLACK
6
CONTINUOUS
10
161.411
20
-165.224
11
161.554
21
-164.938
0
LINE
8
BLACK
6
CONTINUOUS
10
161.554
20
-164.938
11
161.696
21
-164.795
0
LINE
8
BLACK
6
CONTINUOUS
10
161.696
20
-164.795
11
161.982
21
-164.652
0
LINE
8
BLACK
6
CONTINUOUS
10
161.982
20
-164.652
11
162.411
21
-164.652
0
LINE
8
BLACK
6
CONTINUOUS
10
162.411
20
-164.652
11
162.696
21
-164.795
0
LINE
8
BLACK
6
CONTINUOUS
10
162.696
20
-164.795
11
162.839
21
-164.938
0
LINE
8
BLACK
6
CONTINUOUS
10
162.839
20
-164.938
11
162.982
21
-165.224
0
LINE
8
BLACK
6
CONTINUOUS
10
162.982
20
-165.224
11
162.982
21
-166.081
0
LINE
8
BLACK
6
CONTINUOUS
10
162.982
20
-166.081
11
162.839
21
-166.366
0
LINE
8
BLACK
6
CONTINUOUS
10
162.839
20
-166.366
11
162.696
21
-166.509
0
LINE
8
BLACK
6
CONTINUOUS
10
162.696
20
-166.509
11
162.411
21
-166.652
0
LINE
8
BLACK
6
CONTINUOUS
10
162.411
20
-166.652
11
161.982
21
-166.652
0
LINE
8
BLACK
6
CONTINUOUS
10
164.696
20
-166.652
11
164.411
21
-166.509
0
LINE
8
BLACK
6
CONTINUOUS
10
164.411
20
-166.509
11
164.268
21
-166.224
0
LINE
8
BLACK
6
CONTINUOUS
10
164.268
20
-166.224
11
164.268
21
-163.652
0
LINE
8
BLACK
6
CONTINUOUS
10
166.982
20
-166.509
11
166.696
21
-166.652
0
LINE
8
BLACK
6
CONTINUOUS
10
166.696
20
-166.652
11
166.125
21
-166.652
0
LINE
8
BLACK
6
CONTINUOUS
10
166.125
20
-166.652
11
165.839
21
-166.509
0
LINE
8
BLACK
6
CONTINUOUS
10
165.839
20
-166.509
11
165.696
21
-166.224
0
LINE
8
BLACK
6
CONTINUOUS
10
165.696
20
-166.224
11
165.696
21
-165.081
0
LINE
8
BLACK
6
CONTINUOUS
10
165.696
20
-165.081
11
165.839
21
-164.795
0
LINE
8
BLACK
6
CONTINUOUS
10
165.839
20
-164.795
11
166.125
21
-164.652
0
LINE
8
BLACK
6
CONTINUOUS
10
166.125
20
-164.652
11
166.696
21
-164.652
0
LINE
8
BLACK
6
CONTINUOUS
10
166.696
20
-164.652
11
166.982
21
-164.795
0
LINE
8
BLACK
6
CONTINUOUS
10
166.982
20
-164.795
11
167.125
21
-165.081
0
LINE
8
BLACK
6
CONTINUOUS
10
167.125
20
-165.081
11
167.125
21
-165.366
0
LINE
8
BLACK
6
CONTINUOUS
10
167.125
20
-165.366
11
165.696
21
-165.652
0
LINE
8
BLACK
6
CONTINUOUS
10
168.268
20
-166.509
11
168.554
21
-166.652
0
LINE
8
BLACK
6
CONTINUOUS
10
168.554
20
-166.652
11
169.125
21
-166.652
0
LINE
8
BLACK
6
CONTINUOUS
10
169.125
20
-166.652
11
169.411
21
-166.509
0
LINE
8
BLACK
6
CONTINUOUS
10
169.411
20
-166.509
11
169.554
21
-166.224
0
LINE
8
BLACK
6
CONTINUOUS
10
169.554
20
-166.224
11
169.554
21
-166.081
0
LINE
8
BLACK
6
CONTINUOUS
10
169.554
20
-166.081
11
169.411
21
-165.795
0
LINE
8
BLACK
6
CONTINUOUS
10
169.411
20
-165.795
11
169.125
21
-165.652
0
LINE
8
BLACK
6
CONTINUOUS
10
169.125
20
-165.652
11
168.696
21
-165.652
0
LINE
8
BLACK
6
CONTINUOUS
10
168.696
20
-165.652
11
168.411
21
-165.509
0
LINE
8
BLACK
6
CONTINUOUS
10
168.411
20
-165.509
11
168.268
21
-165.224
0
LINE
8
BLACK
6
CONTINUOUS
10
168.268
20
-165.224
11
168.268
21
-165.081
0
LINE
8
BLACK
6
CONTINUOUS
10
168.268
20
-165.081
11
168.411
21
-164.795
0
LINE
8
BLACK
6
CONTINUOUS
10
168.411
20
-164.795
11
168.696
21
-164.652
0
LINE
8
BLACK
6
CONTINUOUS
10
168.696
20
-164.652
11
169.125
21
-164.652
0
LINE
8
BLACK
6
CONTINUOUS
10
169.125
20
-164.652
11
169.411
21
-164.795
0
LINE
8
BLACK
6
CONTINUOUS
10
170.554
20
-167.795
11
170.696
21
-167.652
0
LINE
8
BLACK
6
CONTINUOUS
10
170.696
20
-167.652
11
170.982
21
-167.224
0
LINE
8
BLACK
6
CONTINUOUS
10
170.982
20
-167.224
11
171.125
21
-166.938
0
LINE
8
BLACK
6
CONTINUOUS
10
171.125
20
-166.938
11
171.268
21
-166.509
0
LINE
8
BLACK
6
CONTINUOUS
10
171.268
20
-166.509
11
171.411
21
-165.795
0
LINE
8
BLACK
6
CONTINUOUS
10
171.411
20
-165.795
11
171.411
21
-165.224
0
LINE
8
BLACK
6
CONTINUOUS
10
171.411
20
-165.224
11
171.268
21
-164.509
0
LINE
8
BLACK
6
CONTINUOUS
10
171.268
20
-164.509
11
171.125
21
-164.081
0
LINE
8
BLACK
6
CONTINUOUS
10
171.125
20
-164.081
11
170.982
21
-163.795
0
LINE
8
BLACK
6
CONTINUOUS
10
170.982
20
-163.795
11
170.696
21
-163.366
0
LINE
8
BLACK
6
CONTINUOUS
10
170.696
20
-163.366
11
170.554
21
-163.224
  0
ENDSEC
  0
EOF
