%TF.GenerationSoftware,KiCad,Pcbnew,(5.1.10)-1*%
%TF.CreationDate,2022-05-09T22:48:28-07:00*%
%TF.ProjectId,solar-panel-WithCutout,736f6c61-722d-4706-916e-656c2d576974,1.0*%
%TF.SameCoordinates,Original*%
%TF.FileFunction,Legend,Bot*%
%TF.FilePolarity,Positive*%
%FSLAX46Y46*%
G04 Gerber Fmt 4.6, Leading zero omitted, Abs format (unit mm)*
G04 Created by KiCad (PCBNEW (5.1.10)-1) date 2022-05-09 22:48:28*
%MOMM*%
%LPD*%
G01*
G04 APERTURE LIST*
%ADD10C,0.120000*%
%ADD11C,0.150000*%
G04 APERTURE END LIST*
D10*
%TO.C,J1*%
X113616014Y-109000000D02*
X112092014Y-108365000D01*
X112092014Y-108365000D02*
X112092014Y-109635000D01*
X112092014Y-109635000D02*
X113616014Y-109000000D01*
X125919990Y-105030040D02*
X125919990Y-109340000D01*
X125919990Y-109340000D02*
X123515042Y-109340000D01*
X113870013Y-109340000D02*
X113870013Y-105030040D01*
X115234886Y-102900000D02*
X124555117Y-102900000D01*
X116274961Y-109340000D02*
X113870013Y-109340000D01*
X117774961Y-109340000D02*
X117515041Y-109340000D01*
X119274960Y-109340000D02*
X119015041Y-109340000D01*
X120774962Y-109340000D02*
X120515040Y-109340000D01*
X122274962Y-109340000D02*
X122015042Y-109340000D01*
D11*
X119768334Y-98292380D02*
X119768334Y-99006666D01*
X119815953Y-99149523D01*
X119911191Y-99244761D01*
X120054048Y-99292380D01*
X120149286Y-99292380D01*
X118768334Y-99292380D02*
X119339762Y-99292380D01*
X119054048Y-99292380D02*
X119054048Y-98292380D01*
X119149286Y-98435238D01*
X119244524Y-98530476D01*
X119339762Y-98578095D01*
X126014050Y-100467142D02*
X126061669Y-100514761D01*
X126204526Y-100562380D01*
X126299764Y-100562380D01*
X126442622Y-100514761D01*
X126537860Y-100419523D01*
X126585479Y-100324285D01*
X126633098Y-100133809D01*
X126633098Y-99990952D01*
X126585479Y-99800476D01*
X126537860Y-99705238D01*
X126442622Y-99610000D01*
X126299764Y-99562380D01*
X126204526Y-99562380D01*
X126061669Y-99610000D01*
X126014050Y-99657619D01*
X125395003Y-99562380D02*
X125204526Y-99562380D01*
X125109288Y-99610000D01*
X125014050Y-99705238D01*
X124966431Y-99895714D01*
X124966431Y-100229047D01*
X125014050Y-100419523D01*
X125109288Y-100514761D01*
X125204526Y-100562380D01*
X125395003Y-100562380D01*
X125490241Y-100514761D01*
X125585479Y-100419523D01*
X125633098Y-100229047D01*
X125633098Y-99895714D01*
X125585479Y-99705238D01*
X125490241Y-99610000D01*
X125395003Y-99562380D01*
X124537860Y-100562380D02*
X124537860Y-99562380D01*
X123966431Y-100562380D01*
X123966431Y-99562380D01*
X123490241Y-100181428D02*
X122728336Y-100181428D01*
X121775955Y-99562380D02*
X122252145Y-99562380D01*
X122299764Y-100038571D01*
X122252145Y-99990952D01*
X122156907Y-99943333D01*
X121918812Y-99943333D01*
X121823574Y-99990952D01*
X121775955Y-100038571D01*
X121728336Y-100133809D01*
X121728336Y-100371904D01*
X121775955Y-100467142D01*
X121823574Y-100514761D01*
X121918812Y-100562380D01*
X122156907Y-100562380D01*
X122252145Y-100514761D01*
X122299764Y-100467142D01*
X121109288Y-99562380D02*
X121014050Y-99562380D01*
X120918812Y-99610000D01*
X120871193Y-99657619D01*
X120823574Y-99752857D01*
X120775955Y-99943333D01*
X120775955Y-100181428D01*
X120823574Y-100371904D01*
X120871193Y-100467142D01*
X120918812Y-100514761D01*
X121014050Y-100562380D01*
X121109288Y-100562380D01*
X121204526Y-100514761D01*
X121252145Y-100467142D01*
X121299764Y-100371904D01*
X121347383Y-100181428D01*
X121347383Y-99943333D01*
X121299764Y-99752857D01*
X121252145Y-99657619D01*
X121204526Y-99610000D01*
X121109288Y-99562380D01*
X119918812Y-99895714D02*
X119918812Y-100562380D01*
X120156907Y-99514761D02*
X120395003Y-100229047D01*
X119775955Y-100229047D01*
X119204526Y-99562380D02*
X119109288Y-99562380D01*
X119014050Y-99610000D01*
X118966431Y-99657619D01*
X118918812Y-99752857D01*
X118871193Y-99943333D01*
X118871193Y-100181428D01*
X118918812Y-100371904D01*
X118966431Y-100467142D01*
X119014050Y-100514761D01*
X119109288Y-100562380D01*
X119204526Y-100562380D01*
X119299764Y-100514761D01*
X119347383Y-100467142D01*
X119395003Y-100371904D01*
X119442622Y-100181428D01*
X119442622Y-99943333D01*
X119395003Y-99752857D01*
X119347383Y-99657619D01*
X119299764Y-99610000D01*
X119204526Y-99562380D01*
X117966431Y-99562380D02*
X118442622Y-99562380D01*
X118490241Y-100038571D01*
X118442622Y-99990952D01*
X118347383Y-99943333D01*
X118109288Y-99943333D01*
X118014050Y-99990952D01*
X117966431Y-100038571D01*
X117918812Y-100133809D01*
X117918812Y-100371904D01*
X117966431Y-100467142D01*
X118014050Y-100514761D01*
X118109288Y-100562380D01*
X118347383Y-100562380D01*
X118442622Y-100514761D01*
X118490241Y-100467142D01*
X117299764Y-99562380D02*
X117204526Y-99562380D01*
X117109288Y-99610000D01*
X117061669Y-99657619D01*
X117014050Y-99752857D01*
X116966431Y-99943333D01*
X116966431Y-100181428D01*
X117014050Y-100371904D01*
X117061669Y-100467142D01*
X117109288Y-100514761D01*
X117204526Y-100562380D01*
X117299764Y-100562380D01*
X117395003Y-100514761D01*
X117442622Y-100467142D01*
X117490241Y-100371904D01*
X117537860Y-100181428D01*
X117537860Y-99943333D01*
X117490241Y-99752857D01*
X117442622Y-99657619D01*
X117395003Y-99610000D01*
X117299764Y-99562380D01*
X116347383Y-99562380D02*
X116252145Y-99562380D01*
X116156907Y-99610000D01*
X116109288Y-99657619D01*
X116061669Y-99752857D01*
X116014050Y-99943333D01*
X116014050Y-100181428D01*
X116061669Y-100371904D01*
X116109288Y-100467142D01*
X116156907Y-100514761D01*
X116252145Y-100562380D01*
X116347383Y-100562380D01*
X116442622Y-100514761D01*
X116490241Y-100467142D01*
X116537860Y-100371904D01*
X116585479Y-100181428D01*
X116585479Y-99943333D01*
X116537860Y-99752857D01*
X116490241Y-99657619D01*
X116442622Y-99610000D01*
X116347383Y-99562380D01*
X115109288Y-99562380D02*
X115585479Y-99562380D01*
X115633098Y-100038571D01*
X115585479Y-99990952D01*
X115490241Y-99943333D01*
X115252145Y-99943333D01*
X115156907Y-99990952D01*
X115109288Y-100038571D01*
X115061669Y-100133809D01*
X115061669Y-100371904D01*
X115109288Y-100467142D01*
X115156907Y-100514761D01*
X115252145Y-100562380D01*
X115490241Y-100562380D01*
X115585479Y-100514761D01*
X115633098Y-100467142D01*
X114585479Y-100562380D02*
X114395003Y-100562380D01*
X114299764Y-100514761D01*
X114252145Y-100467142D01*
X114156907Y-100324285D01*
X114109288Y-100133809D01*
X114109288Y-99752857D01*
X114156907Y-99657619D01*
X114204526Y-99610000D01*
X114299764Y-99562380D01*
X114490241Y-99562380D01*
X114585479Y-99610000D01*
X114633098Y-99657619D01*
X114680717Y-99752857D01*
X114680717Y-99990952D01*
X114633098Y-100086190D01*
X114585479Y-100133809D01*
X114490241Y-100181428D01*
X114299764Y-100181428D01*
X114204526Y-100133809D01*
X114156907Y-100086190D01*
X114109288Y-99990952D01*
X113156907Y-100562380D02*
X113728336Y-100562380D01*
X113442622Y-100562380D02*
X113442622Y-99562380D01*
X113537860Y-99705238D01*
X113633098Y-99800476D01*
X113728336Y-99848095D01*
X116895001Y-108452380D02*
X116895001Y-108690476D01*
X117133096Y-108595238D02*
X116895001Y-108690476D01*
X116656905Y-108595238D01*
X117037858Y-108880952D02*
X116895001Y-108690476D01*
X116752143Y-108880952D01*
%TD*%
M02*
