%TF.GenerationSoftware,KiCad,Pcbnew,(5.1.10)-1*%
%TF.CreationDate,2022-05-09T22:48:28-07:00*%
%TF.ProjectId,solar-panel-WithCutout,736f6c61-722d-4706-916e-656c2d576974,1.0*%
%TF.SameCoordinates,Original*%
%TF.FileFunction,Profile,NP*%
%FSLAX46Y46*%
G04 Gerber Fmt 4.6, Leading zero omitted, Abs format (unit mm)*
G04 Created by KiCad (PCBNEW (5.1.10)-1) date 2022-05-09 22:48:28*
%MOMM*%
%LPD*%
G01*
G04 APERTURE LIST*
%TA.AperFunction,Profile*%
%ADD10C,0.050000*%
%TD*%
G04 APERTURE END LIST*
D10*
X180000000Y-59100000D02*
G75*
G03*
X177350000Y-61750000I0J-2650000D01*
G01*
X180000000Y-59100000D02*
X183000000Y-59100000D01*
X177350000Y-70350000D02*
G75*
G03*
X180000000Y-73000000I2650000J0D01*
G01*
X177350000Y-70350000D02*
X177350000Y-61750000D01*
X180000000Y-73000000D02*
X183000000Y-73000000D01*
X183000000Y-59100000D02*
X183000000Y-49750000D01*
X183000000Y-123435004D02*
X183000000Y-73000000D01*
X183000000Y-147750000D02*
X183000000Y-138380004D01*
X100000000Y-138400000D02*
X100000000Y-147750000D01*
X100000000Y-73000000D02*
X100000000Y-123455000D01*
X100000000Y-49750000D02*
X100000000Y-59100000D01*
X177500000Y-123435004D02*
X183000000Y-123435004D01*
X180000000Y-138380004D02*
G75*
G02*
X177350000Y-135730004I0J2650000D01*
G01*
X180000000Y-138380004D02*
X183000000Y-138380004D01*
X177350000Y-128680004D02*
X177350000Y-135730004D01*
X177499999Y-123435715D02*
G75*
G03*
X177350001Y-128680003I1J-2624289D01*
G01*
X105500001Y-123455711D02*
G75*
G02*
X105649999Y-128699999I-1J-2624289D01*
G01*
X105500000Y-123455000D02*
X100000000Y-123455000D01*
X103000000Y-138400000D02*
G75*
G03*
X105650000Y-135750000I0J2650000D01*
G01*
X105650000Y-128700000D02*
X105650000Y-135750000D01*
X103000000Y-138400000D02*
X100000000Y-138400000D01*
X103000000Y-73000000D02*
X100000000Y-73000000D01*
X105650000Y-70350000D02*
X105650000Y-61750000D01*
X105650000Y-70350000D02*
G75*
G02*
X103000000Y-73000000I-2650000J0D01*
G01*
X103000000Y-59100000D02*
X100000000Y-59100000D01*
X103000000Y-59100000D02*
G75*
G02*
X105650000Y-61750000I0J-2650000D01*
G01*
X126500000Y-83750000D02*
X126500000Y-71750000D01*
X156500000Y-83750000D02*
X126500000Y-83750000D01*
X156500000Y-71750000D02*
X156500000Y-83750000D01*
X126500000Y-71750000D02*
X156500000Y-71750000D01*
X149150000Y-136930000D02*
G75*
G02*
X143850000Y-136930000I-2650000J0D01*
G01*
X143850000Y-130930000D02*
G75*
G02*
X149150000Y-130930000I2650000J0D01*
G01*
X139150000Y-136930000D02*
G75*
G02*
X133850000Y-136930000I-2650000J0D01*
G01*
X133850000Y-130930000D02*
G75*
G02*
X139150000Y-130930000I2650000J0D01*
G01*
X149150000Y-66530000D02*
G75*
G02*
X143850000Y-66530000I-2650000J0D01*
G01*
X143850000Y-60530000D02*
G75*
G02*
X149150000Y-60530000I2650000J0D01*
G01*
X139150000Y-66530000D02*
G75*
G02*
X133850000Y-66530000I-2650000J0D01*
G01*
X133850000Y-60530000D02*
G75*
G02*
X139150000Y-60530000I2650000J0D01*
G01*
X149150000Y-136930000D02*
X149150000Y-130930000D01*
X143850000Y-130930000D02*
X143850000Y-136930000D01*
X139150000Y-136930000D02*
X139150000Y-130930000D01*
X133850000Y-130930000D02*
X133850000Y-136930000D01*
X149150000Y-60530000D02*
X149150000Y-66530000D01*
X143850000Y-60530000D02*
X143850000Y-66530000D01*
X139150000Y-60530000D02*
X139150000Y-66530000D01*
X133850000Y-66530000D02*
X133850000Y-60530000D01*
X180125000Y-98580000D02*
G75*
G03*
X180125000Y-98580000I-2625000J0D01*
G01*
X108125000Y-98580000D02*
G75*
G03*
X108125000Y-98580000I-2625000J0D01*
G01*
X183000000Y-49750000D02*
X100000000Y-49750000D01*
X100000000Y-147750000D02*
X183000000Y-147750000D01*
M02*
