%TF.GenerationSoftware,KiCad,Pcbnew,(6.0.7)*%
%TF.CreationDate,2023-01-31T02:47:43-08:00*%
%TF.ProjectId,solar-panel-NoCutout,736f6c61-722d-4706-916e-656c2d4e6f43,2.0*%
%TF.SameCoordinates,Original*%
%TF.FileFunction,Copper,L4,Bot*%
%TF.FilePolarity,Positive*%
%FSLAX46Y46*%
G04 Gerber Fmt 4.6, Leading zero omitted, Abs format (unit mm)*
G04 Created by KiCad (PCBNEW (6.0.7)) date 2023-01-31 02:47:43*
%MOMM*%
%LPD*%
G01*
G04 APERTURE LIST*
%TA.AperFunction,ComponentPad*%
%ADD10C,5.250000*%
%TD*%
%TA.AperFunction,SMDPad,CuDef*%
%ADD11R,0.600000X1.000000*%
%TD*%
%TA.AperFunction,SMDPad,CuDef*%
%ADD12R,1.250000X1.800000*%
%TD*%
%TA.AperFunction,ViaPad*%
%ADD13C,0.800000*%
%TD*%
%TA.AperFunction,Conductor*%
%ADD14C,0.250000*%
%TD*%
%TA.AperFunction,Conductor*%
%ADD15C,0.500000*%
%TD*%
G04 APERTURE END LIST*
D10*
%TO.P,J2,1,Pin_1*%
%TO.N,unconnected-(J2-Pad1)*%
X106500000Y-70300000D03*
%TD*%
%TO.P,J3,1,Pin_1*%
%TO.N,unconnected-(J3-Pad1)*%
X106500000Y-159300000D03*
%TD*%
%TO.P,J4,1,Pin_1*%
%TO.N,unconnected-(J4-Pad1)*%
X182500000Y-70300000D03*
%TD*%
%TO.P,J5,1,Pin_1*%
%TO.N,unconnected-(J5-Pad1)*%
X182500000Y-159300000D03*
%TD*%
D11*
%TO.P,J1,1,1*%
%TO.N,VSOLAR*%
X123500000Y-124750000D03*
%TO.P,J1,2,2*%
%TO.N,GND*%
X125000000Y-124750000D03*
%TO.P,J1,3,3*%
%TO.N,+3V3*%
X126499999Y-124750000D03*
%TO.P,J1,4,4*%
%TO.N,SCL*%
X128000001Y-124750000D03*
%TO.P,J1,5,5*%
%TO.N,SDA*%
X129500001Y-124750000D03*
D12*
%TO.P,J1,6,6*%
%TO.N,unconnected-(J1-Pad6)*%
X120895001Y-119560000D03*
%TO.P,J1,7,7*%
%TO.N,unconnected-(J1-Pad7)*%
X132104999Y-119560000D03*
%TD*%
D13*
%TO.N,GND*%
X168000000Y-156390000D03*
X156860000Y-113670000D03*
X160570000Y-109960000D03*
X109400000Y-130030000D03*
X144450000Y-156250000D03*
X151530000Y-119620000D03*
X149675000Y-112100000D03*
X121120000Y-156220000D03*
X137975000Y-112925000D03*
X160750000Y-114500000D03*
%TO.N,+3V3*%
X150540000Y-113710000D03*
X126510000Y-126100000D03*
X151390000Y-117440000D03*
%TO.N,VSOLAR*%
X124270000Y-118000000D03*
X110660000Y-124750000D03*
%TO.N,SDA*%
X147030000Y-118510000D03*
X129500000Y-120644998D03*
%TO.N,SCL*%
X149990000Y-115990000D03*
X128000001Y-125999999D03*
%TO.N,Net-(C3-Pad1)*%
X159470000Y-116130000D03*
X162260000Y-111570000D03*
%TO.N,Net-(U3-Pad7)*%
X178200000Y-123800000D03*
X161890000Y-115330000D03*
X161820000Y-113350000D03*
X178120000Y-121620000D03*
X164800000Y-127190000D03*
%TD*%
D14*
%TO.N,+3V3*%
X126499999Y-126089999D02*
X126510000Y-126100000D01*
X126499999Y-124750000D02*
X126499999Y-126089999D01*
D15*
%TO.N,VSOLAR*%
X123500000Y-124750000D02*
X110660000Y-124750000D01*
X123500000Y-118770000D02*
X124270000Y-118000000D01*
X123500000Y-124750000D02*
X123500000Y-118770000D01*
D14*
%TO.N,SDA*%
X129500000Y-120644998D02*
X129500001Y-124750000D01*
%TO.N,SCL*%
X128000001Y-124750000D02*
X128000001Y-125999999D01*
X128000001Y-125999999D02*
X128000001Y-126000001D01*
%TO.N,Net-(U3-Pad7)*%
X169850000Y-113350000D02*
X178120000Y-121620000D01*
X169730000Y-115330000D02*
X178200000Y-123800000D01*
X161890000Y-115330000D02*
X169730000Y-115330000D01*
X161820000Y-113350000D02*
X169850000Y-113350000D01*
%TD*%
%TA.AperFunction,Conductor*%
%TO.N,GND*%
G36*
X185433621Y-66278502D02*
G01*
X185480114Y-66332158D01*
X185491500Y-66384500D01*
X185491500Y-68746328D01*
X185471498Y-68814449D01*
X185417842Y-68860942D01*
X185347568Y-68871046D01*
X185282988Y-68841552D01*
X185255085Y-68807029D01*
X185163239Y-68639961D01*
X185163236Y-68639957D01*
X185161546Y-68636882D01*
X184959573Y-68350567D01*
X184726943Y-68088550D01*
X184724342Y-68086208D01*
X184724337Y-68086203D01*
X184469167Y-67856447D01*
X184469166Y-67856447D01*
X184466557Y-67854097D01*
X184428538Y-67826878D01*
X184184513Y-67652173D01*
X184184510Y-67652171D01*
X184181659Y-67650130D01*
X183875800Y-67479192D01*
X183552794Y-67343412D01*
X183549425Y-67342421D01*
X183549421Y-67342419D01*
X183401053Y-67298752D01*
X183216665Y-67244484D01*
X182940895Y-67195858D01*
X182875063Y-67184250D01*
X182875061Y-67184250D01*
X182871603Y-67183640D01*
X182868094Y-67183419D01*
X182868092Y-67183419D01*
X182525428Y-67161860D01*
X182525422Y-67161860D01*
X182521910Y-67161639D01*
X182424516Y-67166403D01*
X182175451Y-67178584D01*
X182175443Y-67178585D01*
X182171944Y-67178756D01*
X182168476Y-67179318D01*
X182168473Y-67179318D01*
X181829542Y-67234213D01*
X181829539Y-67234214D01*
X181826067Y-67234776D01*
X181822684Y-67235721D01*
X181822682Y-67235721D01*
X181787747Y-67245475D01*
X181488589Y-67329001D01*
X181485341Y-67330313D01*
X181485333Y-67330316D01*
X181166983Y-67458938D01*
X181166979Y-67458940D01*
X181163719Y-67460257D01*
X181160632Y-67461926D01*
X181160628Y-67461928D01*
X181131220Y-67477829D01*
X180855503Y-67626909D01*
X180567785Y-67826878D01*
X180565143Y-67829191D01*
X180565139Y-67829194D01*
X180326206Y-68038365D01*
X180304151Y-68057673D01*
X180067886Y-68316416D01*
X179861935Y-68599883D01*
X179860193Y-68602949D01*
X179860192Y-68602951D01*
X179839167Y-68639962D01*
X179688865Y-68904541D01*
X179550834Y-69226591D01*
X179449562Y-69562021D01*
X179386311Y-69906650D01*
X179361869Y-70256181D01*
X179376542Y-70606258D01*
X179430145Y-70952518D01*
X179522012Y-71290645D01*
X179523302Y-71293904D01*
X179523304Y-71293909D01*
X179572316Y-71417698D01*
X179650998Y-71616424D01*
X179652653Y-71619536D01*
X179652655Y-71619541D01*
X179712109Y-71731357D01*
X179815493Y-71925795D01*
X179817483Y-71928701D01*
X179817484Y-71928703D01*
X179891490Y-72036785D01*
X180013449Y-72214902D01*
X180242397Y-72480142D01*
X180499485Y-72718207D01*
X180781507Y-72926132D01*
X180784544Y-72927886D01*
X180784548Y-72927888D01*
X180945060Y-73020559D01*
X181084949Y-73101324D01*
X181088170Y-73102731D01*
X181402807Y-73240193D01*
X181402817Y-73240197D01*
X181406029Y-73241600D01*
X181409387Y-73242639D01*
X181409391Y-73242641D01*
X181545685Y-73284831D01*
X181740743Y-73345212D01*
X181744199Y-73345871D01*
X181744198Y-73345871D01*
X182081471Y-73410210D01*
X182081477Y-73410211D01*
X182084922Y-73410868D01*
X182316253Y-73428668D01*
X182430777Y-73437480D01*
X182430778Y-73437480D01*
X182434274Y-73437749D01*
X182666291Y-73429646D01*
X182780929Y-73425643D01*
X182780933Y-73425643D01*
X182784445Y-73425520D01*
X182787924Y-73425006D01*
X182787927Y-73425006D01*
X183127578Y-73374851D01*
X183127584Y-73374850D01*
X183131070Y-73374335D01*
X183134474Y-73373436D01*
X183134477Y-73373435D01*
X183466439Y-73285727D01*
X183466440Y-73285727D01*
X183469830Y-73284831D01*
X183796502Y-73158123D01*
X184107014Y-72995792D01*
X184397496Y-72799859D01*
X184664327Y-72572768D01*
X184749069Y-72482527D01*
X184901771Y-72319916D01*
X184901775Y-72319911D01*
X184904182Y-72317348D01*
X185114071Y-72036785D01*
X185219416Y-71857229D01*
X185256823Y-71793469D01*
X185308546Y-71744836D01*
X185378352Y-71731886D01*
X185444077Y-71758732D01*
X185484855Y-71816850D01*
X185491500Y-71857229D01*
X185491500Y-74465500D01*
X185471498Y-74533621D01*
X185417842Y-74580114D01*
X185365500Y-74591500D01*
X183053250Y-74591500D01*
X183032345Y-74589754D01*
X183017344Y-74587230D01*
X183017341Y-74587230D01*
X183012552Y-74586424D01*
X183006313Y-74586348D01*
X183004860Y-74586330D01*
X183004857Y-74586330D01*
X183000000Y-74586271D01*
X182995185Y-74586961D01*
X182994366Y-74587014D01*
X182984506Y-74587977D01*
X182669394Y-74604491D01*
X182666154Y-74605004D01*
X182666146Y-74605005D01*
X182515964Y-74628792D01*
X182342410Y-74656281D01*
X182022630Y-74741965D01*
X181713559Y-74860606D01*
X181418583Y-75010905D01*
X181415817Y-75012701D01*
X181415814Y-75012703D01*
X181303361Y-75085731D01*
X181140932Y-75191213D01*
X180883650Y-75399556D01*
X180649556Y-75633650D01*
X180441213Y-75890932D01*
X180439411Y-75893707D01*
X180340681Y-76045739D01*
X180260905Y-76168583D01*
X180110606Y-76463559D01*
X179991965Y-76772630D01*
X179906281Y-77092410D01*
X179854491Y-77419394D01*
X179854319Y-77422684D01*
X179838432Y-77725818D01*
X179837717Y-77732717D01*
X179837691Y-77734849D01*
X179836309Y-77743724D01*
X179837473Y-77752626D01*
X179837473Y-77752628D01*
X179840436Y-77775283D01*
X179841500Y-77791621D01*
X179841500Y-86300633D01*
X179840000Y-86320018D01*
X179837690Y-86334851D01*
X179837690Y-86334855D01*
X179836309Y-86343724D01*
X179837189Y-86350451D01*
X179837441Y-86355267D01*
X179837441Y-86355299D01*
X179837446Y-86355353D01*
X179854491Y-86680606D01*
X179906281Y-87007590D01*
X179991965Y-87327370D01*
X180110606Y-87636441D01*
X180112104Y-87639381D01*
X180226691Y-87864269D01*
X180260905Y-87931418D01*
X180441213Y-88209068D01*
X180649556Y-88466350D01*
X180883650Y-88700444D01*
X181140932Y-88908787D01*
X181143704Y-88910587D01*
X181143707Y-88910589D01*
X181415813Y-89087296D01*
X181418583Y-89089095D01*
X181713559Y-89239394D01*
X182022630Y-89358035D01*
X182342410Y-89443719D01*
X182515964Y-89471208D01*
X182666146Y-89494995D01*
X182666154Y-89494996D01*
X182669394Y-89495509D01*
X182809905Y-89502873D01*
X182968169Y-89511167D01*
X182982472Y-89512739D01*
X182982588Y-89512758D01*
X182987448Y-89513576D01*
X182993941Y-89513655D01*
X182995140Y-89513670D01*
X182995143Y-89513670D01*
X183000000Y-89513729D01*
X183027624Y-89509773D01*
X183045486Y-89508500D01*
X185365433Y-89508500D01*
X185433554Y-89528502D01*
X185480047Y-89582158D01*
X185491433Y-89634511D01*
X185488873Y-113621253D01*
X185486173Y-138922703D01*
X185466164Y-138990822D01*
X185412503Y-139037309D01*
X185360173Y-139048690D01*
X180272969Y-139048690D01*
X180264088Y-139048377D01*
X180260679Y-139048136D01*
X180213198Y-139044781D01*
X180208359Y-139045188D01*
X180208353Y-139045188D01*
X180206133Y-139045375D01*
X180200689Y-139045833D01*
X180197016Y-139046725D01*
X180196056Y-139046605D01*
X180196108Y-139046946D01*
X179863280Y-139097747D01*
X179863276Y-139097748D01*
X179859829Y-139098274D01*
X179526760Y-139187636D01*
X179523515Y-139188905D01*
X179523512Y-139188906D01*
X179208842Y-139311964D01*
X179208836Y-139311967D01*
X179205598Y-139313233D01*
X179202513Y-139314853D01*
X179202510Y-139314854D01*
X178903356Y-139471910D01*
X178903351Y-139471913D01*
X178900271Y-139473530D01*
X178614513Y-139666565D01*
X178611866Y-139668816D01*
X178611857Y-139668823D01*
X178380574Y-139865523D01*
X178351821Y-139889977D01*
X178349430Y-139892517D01*
X178349427Y-139892519D01*
X178242764Y-140005789D01*
X178115408Y-140141033D01*
X177908167Y-140416662D01*
X177732633Y-140713491D01*
X177590952Y-141027889D01*
X177484858Y-141356012D01*
X177415650Y-141693843D01*
X177415333Y-141697306D01*
X177415332Y-141697310D01*
X177384771Y-142030729D01*
X177384173Y-142037251D01*
X177390814Y-142382035D01*
X177391265Y-142385486D01*
X177391265Y-142385488D01*
X177418439Y-142593473D01*
X177435489Y-142723977D01*
X177517654Y-143058893D01*
X177636303Y-143382687D01*
X177789984Y-143691397D01*
X177791871Y-143694324D01*
X177791873Y-143694328D01*
X177957592Y-143951423D01*
X177976817Y-143981248D01*
X178194517Y-144248692D01*
X178196997Y-144251130D01*
X178197004Y-144251138D01*
X178407272Y-144457868D01*
X178440421Y-144490459D01*
X178711520Y-144703591D01*
X178714467Y-144705420D01*
X178714469Y-144705422D01*
X179000846Y-144883213D01*
X179004499Y-144885481D01*
X179007633Y-144886975D01*
X179007636Y-144886977D01*
X179312636Y-145032407D01*
X179312641Y-145032409D01*
X179315772Y-145033902D01*
X179319045Y-145035039D01*
X179319053Y-145035042D01*
X179522873Y-145105830D01*
X179641532Y-145147041D01*
X179716053Y-145163988D01*
X179743441Y-145170217D01*
X179805430Y-145204827D01*
X179838867Y-145267457D01*
X179841500Y-145293080D01*
X179841500Y-151700633D01*
X179840000Y-151720018D01*
X179837690Y-151734851D01*
X179837690Y-151734855D01*
X179836309Y-151743724D01*
X179837189Y-151750451D01*
X179837441Y-151755267D01*
X179837441Y-151755299D01*
X179837446Y-151755353D01*
X179854491Y-152080606D01*
X179906281Y-152407590D01*
X179991965Y-152727370D01*
X180110606Y-153036441D01*
X180112104Y-153039381D01*
X180234463Y-153279522D01*
X180260905Y-153331418D01*
X180441213Y-153609068D01*
X180649556Y-153866350D01*
X180883650Y-154100444D01*
X181140932Y-154308787D01*
X181170776Y-154328168D01*
X181415813Y-154487296D01*
X181418583Y-154489095D01*
X181713559Y-154639394D01*
X182022630Y-154758035D01*
X182342410Y-154843719D01*
X182515964Y-154871208D01*
X182666146Y-154894995D01*
X182666154Y-154894996D01*
X182669394Y-154895509D01*
X182809905Y-154902873D01*
X182968169Y-154911167D01*
X182982472Y-154912739D01*
X182982588Y-154912758D01*
X182987448Y-154913576D01*
X182993941Y-154913655D01*
X182995140Y-154913670D01*
X182995143Y-154913670D01*
X183000000Y-154913729D01*
X183027624Y-154909773D01*
X183045486Y-154908500D01*
X185365500Y-154908500D01*
X185433621Y-154928502D01*
X185480114Y-154982158D01*
X185491500Y-155034500D01*
X185491500Y-157746328D01*
X185471498Y-157814449D01*
X185417842Y-157860942D01*
X185347568Y-157871046D01*
X185282988Y-157841552D01*
X185255085Y-157807029D01*
X185163239Y-157639961D01*
X185163236Y-157639957D01*
X185161546Y-157636882D01*
X184959573Y-157350567D01*
X184726943Y-157088550D01*
X184724342Y-157086208D01*
X184724337Y-157086203D01*
X184469167Y-156856447D01*
X184469166Y-156856447D01*
X184466557Y-156854097D01*
X184428538Y-156826878D01*
X184184513Y-156652173D01*
X184184510Y-156652171D01*
X184181659Y-156650130D01*
X183875800Y-156479192D01*
X183552794Y-156343412D01*
X183549425Y-156342421D01*
X183549421Y-156342419D01*
X183401053Y-156298752D01*
X183216665Y-156244484D01*
X182940895Y-156195858D01*
X182875063Y-156184250D01*
X182875061Y-156184250D01*
X182871603Y-156183640D01*
X182868094Y-156183419D01*
X182868092Y-156183419D01*
X182525428Y-156161860D01*
X182525422Y-156161860D01*
X182521910Y-156161639D01*
X182424516Y-156166403D01*
X182175451Y-156178584D01*
X182175443Y-156178585D01*
X182171944Y-156178756D01*
X182168476Y-156179318D01*
X182168473Y-156179318D01*
X181829542Y-156234213D01*
X181829539Y-156234214D01*
X181826067Y-156234776D01*
X181822684Y-156235721D01*
X181822682Y-156235721D01*
X181787747Y-156245475D01*
X181488589Y-156329001D01*
X181485341Y-156330313D01*
X181485333Y-156330316D01*
X181166983Y-156458938D01*
X181166979Y-156458940D01*
X181163719Y-156460257D01*
X181160632Y-156461926D01*
X181160628Y-156461928D01*
X181131220Y-156477829D01*
X180855503Y-156626909D01*
X180567785Y-156826878D01*
X180565143Y-156829191D01*
X180565139Y-156829194D01*
X180326206Y-157038365D01*
X180304151Y-157057673D01*
X180067886Y-157316416D01*
X179861935Y-157599883D01*
X179860193Y-157602949D01*
X179860192Y-157602951D01*
X179839167Y-157639962D01*
X179688865Y-157904541D01*
X179550834Y-158226591D01*
X179449562Y-158562021D01*
X179386311Y-158906650D01*
X179361869Y-159256181D01*
X179376542Y-159606258D01*
X179430145Y-159952518D01*
X179522012Y-160290645D01*
X179523302Y-160293904D01*
X179523304Y-160293909D01*
X179572316Y-160417698D01*
X179650998Y-160616424D01*
X179652653Y-160619536D01*
X179652655Y-160619541D01*
X179712109Y-160731357D01*
X179815493Y-160925795D01*
X179817483Y-160928701D01*
X179817484Y-160928703D01*
X179891490Y-161036785D01*
X180013449Y-161214902D01*
X180242397Y-161480142D01*
X180499485Y-161718207D01*
X180781507Y-161926132D01*
X180784544Y-161927886D01*
X180784548Y-161927888D01*
X180945060Y-162020559D01*
X181084949Y-162101324D01*
X181088170Y-162102731D01*
X181402807Y-162240193D01*
X181402817Y-162240197D01*
X181406029Y-162241600D01*
X181409387Y-162242639D01*
X181409391Y-162242641D01*
X181545685Y-162284831D01*
X181740743Y-162345212D01*
X181744199Y-162345871D01*
X181744198Y-162345871D01*
X182081471Y-162410210D01*
X182081477Y-162410211D01*
X182084922Y-162410868D01*
X182316253Y-162428668D01*
X182430777Y-162437480D01*
X182430778Y-162437480D01*
X182434274Y-162437749D01*
X182666291Y-162429646D01*
X182780929Y-162425643D01*
X182780933Y-162425643D01*
X182784445Y-162425520D01*
X182787924Y-162425006D01*
X182787927Y-162425006D01*
X183127578Y-162374851D01*
X183127584Y-162374850D01*
X183131070Y-162374335D01*
X183134474Y-162373436D01*
X183134477Y-162373435D01*
X183466439Y-162285727D01*
X183466440Y-162285727D01*
X183469830Y-162284831D01*
X183796502Y-162158123D01*
X184107014Y-161995792D01*
X184397496Y-161799859D01*
X184664327Y-161572768D01*
X184749069Y-161482527D01*
X184901771Y-161319916D01*
X184901775Y-161319911D01*
X184904182Y-161317348D01*
X185114071Y-161036785D01*
X185219416Y-160857229D01*
X185256823Y-160793469D01*
X185308546Y-160744836D01*
X185378352Y-160731886D01*
X185444077Y-160758732D01*
X185484855Y-160816850D01*
X185491500Y-160857229D01*
X185491500Y-163115500D01*
X185471498Y-163183621D01*
X185417842Y-163230114D01*
X185365500Y-163241500D01*
X103634500Y-163241500D01*
X103566379Y-163221498D01*
X103519886Y-163167842D01*
X103508500Y-163115500D01*
X103508500Y-160853782D01*
X103528502Y-160785661D01*
X103582158Y-160739168D01*
X103652432Y-160729064D01*
X103717012Y-160758558D01*
X103745751Y-160794629D01*
X103815493Y-160925795D01*
X103817483Y-160928701D01*
X103817484Y-160928703D01*
X103891490Y-161036785D01*
X104013449Y-161214902D01*
X104242397Y-161480142D01*
X104499485Y-161718207D01*
X104781507Y-161926132D01*
X104784544Y-161927886D01*
X104784548Y-161927888D01*
X104945060Y-162020559D01*
X105084949Y-162101324D01*
X105088170Y-162102731D01*
X105402807Y-162240193D01*
X105402817Y-162240197D01*
X105406029Y-162241600D01*
X105409387Y-162242639D01*
X105409391Y-162242641D01*
X105545685Y-162284831D01*
X105740743Y-162345212D01*
X105744199Y-162345871D01*
X105744198Y-162345871D01*
X106081471Y-162410210D01*
X106081477Y-162410211D01*
X106084922Y-162410868D01*
X106316253Y-162428668D01*
X106430777Y-162437480D01*
X106430778Y-162437480D01*
X106434274Y-162437749D01*
X106666291Y-162429646D01*
X106780929Y-162425643D01*
X106780933Y-162425643D01*
X106784445Y-162425520D01*
X106787924Y-162425006D01*
X106787927Y-162425006D01*
X107127578Y-162374851D01*
X107127584Y-162374850D01*
X107131070Y-162374335D01*
X107134474Y-162373436D01*
X107134477Y-162373435D01*
X107466439Y-162285727D01*
X107466440Y-162285727D01*
X107469830Y-162284831D01*
X107796502Y-162158123D01*
X108107014Y-161995792D01*
X108397496Y-161799859D01*
X108664327Y-161572768D01*
X108749069Y-161482527D01*
X108901771Y-161319916D01*
X108901775Y-161319911D01*
X108904182Y-161317348D01*
X109114071Y-161036785D01*
X109291377Y-160734573D01*
X109293830Y-160729064D01*
X109432459Y-160417698D01*
X109432461Y-160417693D01*
X109433891Y-160414481D01*
X109539837Y-160080498D01*
X109607894Y-159736786D01*
X109637213Y-159387630D01*
X109638437Y-159300000D01*
X109636185Y-159259708D01*
X109619074Y-158953671D01*
X109618878Y-158950162D01*
X109560445Y-158604684D01*
X109463866Y-158267873D01*
X109416818Y-158153726D01*
X109331683Y-157947171D01*
X109331679Y-157947163D01*
X109330345Y-157943926D01*
X109161546Y-157636882D01*
X108959573Y-157350567D01*
X108726943Y-157088550D01*
X108724342Y-157086208D01*
X108724337Y-157086203D01*
X108469167Y-156856447D01*
X108469166Y-156856447D01*
X108466557Y-156854097D01*
X108428538Y-156826878D01*
X108184513Y-156652173D01*
X108184510Y-156652171D01*
X108181659Y-156650130D01*
X107875800Y-156479192D01*
X107552794Y-156343412D01*
X107549425Y-156342421D01*
X107549421Y-156342419D01*
X107401053Y-156298752D01*
X107216665Y-156244484D01*
X106940895Y-156195858D01*
X106875063Y-156184250D01*
X106875061Y-156184250D01*
X106871603Y-156183640D01*
X106868094Y-156183419D01*
X106868092Y-156183419D01*
X106525428Y-156161860D01*
X106525422Y-156161860D01*
X106521910Y-156161639D01*
X106424516Y-156166403D01*
X106175451Y-156178584D01*
X106175443Y-156178585D01*
X106171944Y-156178756D01*
X106168476Y-156179318D01*
X106168473Y-156179318D01*
X105829542Y-156234213D01*
X105829539Y-156234214D01*
X105826067Y-156234776D01*
X105822684Y-156235721D01*
X105822682Y-156235721D01*
X105787747Y-156245475D01*
X105488589Y-156329001D01*
X105485341Y-156330313D01*
X105485333Y-156330316D01*
X105166983Y-156458938D01*
X105166979Y-156458940D01*
X105163719Y-156460257D01*
X105160632Y-156461926D01*
X105160628Y-156461928D01*
X105131220Y-156477829D01*
X104855503Y-156626909D01*
X104567785Y-156826878D01*
X104565143Y-156829191D01*
X104565139Y-156829194D01*
X104326206Y-157038365D01*
X104304151Y-157057673D01*
X104067886Y-157316416D01*
X103861935Y-157599883D01*
X103860193Y-157602949D01*
X103860192Y-157602951D01*
X103744056Y-157807387D01*
X103693017Y-157856738D01*
X103623399Y-157870660D01*
X103557305Y-157844734D01*
X103515720Y-157787191D01*
X103508500Y-157745150D01*
X103508500Y-155034500D01*
X103528502Y-154966379D01*
X103582158Y-154919886D01*
X103634500Y-154908500D01*
X105946750Y-154908500D01*
X105967655Y-154910246D01*
X105982656Y-154912770D01*
X105982659Y-154912770D01*
X105987448Y-154913576D01*
X105993687Y-154913652D01*
X105995140Y-154913670D01*
X105995143Y-154913670D01*
X106000000Y-154913729D01*
X106004815Y-154913039D01*
X106005634Y-154912986D01*
X106015494Y-154912023D01*
X106330606Y-154895509D01*
X106333846Y-154894996D01*
X106333854Y-154894995D01*
X106484036Y-154871208D01*
X106657590Y-154843719D01*
X106977370Y-154758035D01*
X107286441Y-154639394D01*
X107297836Y-154633588D01*
X107578479Y-154490593D01*
X107578486Y-154490589D01*
X107581418Y-154489095D01*
X107859068Y-154308787D01*
X108116350Y-154100444D01*
X108350444Y-153866350D01*
X108558787Y-153609068D01*
X108739095Y-153331418D01*
X108765538Y-153279522D01*
X108887896Y-153039381D01*
X108889394Y-153036441D01*
X108905791Y-152993724D01*
X136336309Y-152993724D01*
X136337130Y-153000000D01*
X136336861Y-153000000D01*
X136355403Y-153341995D01*
X136410813Y-153679981D01*
X136411728Y-153683276D01*
X136496912Y-153990080D01*
X136502441Y-154009995D01*
X136538479Y-154100444D01*
X136627579Y-154324066D01*
X136629213Y-154328168D01*
X136789642Y-154630769D01*
X136791550Y-154633584D01*
X136791553Y-154633588D01*
X136979757Y-154911167D01*
X136981847Y-154914250D01*
X137203575Y-155175289D01*
X137452227Y-155410825D01*
X137724887Y-155618095D01*
X138018359Y-155794671D01*
X138329202Y-155938482D01*
X138332440Y-155939573D01*
X138332445Y-155939575D01*
X138650535Y-156046753D01*
X138650541Y-156046755D01*
X138653771Y-156047843D01*
X138657107Y-156048577D01*
X138657106Y-156048577D01*
X138984930Y-156120736D01*
X138984934Y-156120737D01*
X138988261Y-156121469D01*
X138991651Y-156121838D01*
X138991653Y-156121838D01*
X139049820Y-156128164D01*
X139328751Y-156158500D01*
X139671249Y-156158500D01*
X139950180Y-156128164D01*
X140008347Y-156121838D01*
X140008349Y-156121838D01*
X140011739Y-156121469D01*
X140015066Y-156120737D01*
X140015070Y-156120736D01*
X140342894Y-156048577D01*
X140342893Y-156048577D01*
X140346229Y-156047843D01*
X140349459Y-156046755D01*
X140349465Y-156046753D01*
X140667555Y-155939575D01*
X140667560Y-155939573D01*
X140670798Y-155938482D01*
X140981641Y-155794671D01*
X141275113Y-155618095D01*
X141547773Y-155410825D01*
X141796425Y-155175289D01*
X142018153Y-154914250D01*
X142020244Y-154911167D01*
X142208447Y-154633588D01*
X142208450Y-154633584D01*
X142210358Y-154630769D01*
X142370787Y-154328168D01*
X142372422Y-154324066D01*
X142461521Y-154100444D01*
X142497559Y-154009995D01*
X142503089Y-153990080D01*
X142588272Y-153683276D01*
X142589187Y-153679981D01*
X142644597Y-153341995D01*
X142652872Y-153189361D01*
X142661543Y-153029444D01*
X142662345Y-153022204D01*
X142662334Y-153022203D01*
X142662770Y-153017345D01*
X142663576Y-153012552D01*
X142663729Y-153000000D01*
X142662830Y-152993724D01*
X146336309Y-152993724D01*
X146337130Y-153000000D01*
X146336861Y-153000000D01*
X146355403Y-153341995D01*
X146410813Y-153679981D01*
X146411728Y-153683276D01*
X146496912Y-153990080D01*
X146502441Y-154009995D01*
X146538479Y-154100444D01*
X146627579Y-154324066D01*
X146629213Y-154328168D01*
X146789642Y-154630769D01*
X146791550Y-154633584D01*
X146791553Y-154633588D01*
X146979757Y-154911167D01*
X146981847Y-154914250D01*
X147203575Y-155175289D01*
X147452227Y-155410825D01*
X147724887Y-155618095D01*
X148018359Y-155794671D01*
X148329202Y-155938482D01*
X148332440Y-155939573D01*
X148332445Y-155939575D01*
X148650535Y-156046753D01*
X148650541Y-156046755D01*
X148653771Y-156047843D01*
X148657107Y-156048577D01*
X148657106Y-156048577D01*
X148984930Y-156120736D01*
X148984934Y-156120737D01*
X148988261Y-156121469D01*
X148991651Y-156121838D01*
X148991653Y-156121838D01*
X149049820Y-156128164D01*
X149328751Y-156158500D01*
X149671249Y-156158500D01*
X149950180Y-156128164D01*
X150008347Y-156121838D01*
X150008349Y-156121838D01*
X150011739Y-156121469D01*
X150015066Y-156120737D01*
X150015070Y-156120736D01*
X150342894Y-156048577D01*
X150342893Y-156048577D01*
X150346229Y-156047843D01*
X150349459Y-156046755D01*
X150349465Y-156046753D01*
X150667555Y-155939575D01*
X150667560Y-155939573D01*
X150670798Y-155938482D01*
X150981641Y-155794671D01*
X151275113Y-155618095D01*
X151547773Y-155410825D01*
X151796425Y-155175289D01*
X152018153Y-154914250D01*
X152020244Y-154911167D01*
X152208447Y-154633588D01*
X152208450Y-154633584D01*
X152210358Y-154630769D01*
X152370787Y-154328168D01*
X152372422Y-154324066D01*
X152461521Y-154100444D01*
X152497559Y-154009995D01*
X152503089Y-153990080D01*
X152588272Y-153683276D01*
X152589187Y-153679981D01*
X152644597Y-153341995D01*
X152652872Y-153189361D01*
X152661543Y-153029444D01*
X152662345Y-153022204D01*
X152662334Y-153022203D01*
X152662770Y-153017345D01*
X152663576Y-153012552D01*
X152663729Y-153000000D01*
X152659773Y-152972376D01*
X152658500Y-152954514D01*
X152658500Y-147053250D01*
X152660246Y-147032345D01*
X152662770Y-147017344D01*
X152662770Y-147017341D01*
X152663576Y-147012552D01*
X152663729Y-147000000D01*
X152663040Y-146995188D01*
X152662724Y-146990331D01*
X152662726Y-146990331D01*
X152662479Y-146987825D01*
X152662323Y-146984932D01*
X152655043Y-146850673D01*
X152644782Y-146661408D01*
X152644781Y-146661399D01*
X152644597Y-146658005D01*
X152589187Y-146320019D01*
X152497559Y-145990005D01*
X152370787Y-145671832D01*
X152210358Y-145369231D01*
X152208447Y-145366412D01*
X152020062Y-145088565D01*
X152020058Y-145088560D01*
X152018153Y-145085750D01*
X151796425Y-144824711D01*
X151547773Y-144589175D01*
X151275113Y-144381905D01*
X151236673Y-144358776D01*
X151189208Y-144330218D01*
X150981641Y-144205329D01*
X150670798Y-144061518D01*
X150667560Y-144060427D01*
X150667555Y-144060425D01*
X150349465Y-143953247D01*
X150349459Y-143953245D01*
X150346229Y-143952157D01*
X150137374Y-143906185D01*
X150015070Y-143879264D01*
X150015066Y-143879263D01*
X150011739Y-143878531D01*
X150008349Y-143878162D01*
X150008347Y-143878162D01*
X149950180Y-143871836D01*
X149671249Y-143841500D01*
X149328751Y-143841500D01*
X149049820Y-143871836D01*
X148991653Y-143878162D01*
X148991651Y-143878162D01*
X148988261Y-143878531D01*
X148984934Y-143879263D01*
X148984930Y-143879264D01*
X148862626Y-143906185D01*
X148653771Y-143952157D01*
X148650541Y-143953245D01*
X148650535Y-143953247D01*
X148332445Y-144060425D01*
X148332440Y-144060427D01*
X148329202Y-144061518D01*
X148018359Y-144205329D01*
X147810792Y-144330218D01*
X147763328Y-144358776D01*
X147724887Y-144381905D01*
X147452227Y-144589175D01*
X147203575Y-144824711D01*
X146981847Y-145085750D01*
X146979942Y-145088560D01*
X146979938Y-145088565D01*
X146791553Y-145366412D01*
X146789642Y-145369231D01*
X146629213Y-145671832D01*
X146502441Y-145990005D01*
X146410813Y-146320019D01*
X146355403Y-146658005D01*
X146355218Y-146661425D01*
X146338021Y-146978611D01*
X146337733Y-146981360D01*
X146337712Y-146983122D01*
X146337769Y-146983258D01*
X146337678Y-146984932D01*
X146336309Y-146993724D01*
X146336940Y-146998548D01*
X146336861Y-147000000D01*
X146337130Y-147000000D01*
X146337958Y-147006332D01*
X146340436Y-147025283D01*
X146341500Y-147041620D01*
X146341500Y-152950633D01*
X146340000Y-152970018D01*
X146336309Y-152993724D01*
X142662830Y-152993724D01*
X142659773Y-152972376D01*
X142658500Y-152954514D01*
X142658500Y-147053250D01*
X142660246Y-147032345D01*
X142662770Y-147017344D01*
X142662770Y-147017341D01*
X142663576Y-147012552D01*
X142663729Y-147000000D01*
X142663040Y-146995188D01*
X142662724Y-146990331D01*
X142662726Y-146990331D01*
X142662479Y-146987825D01*
X142662323Y-146984932D01*
X142655043Y-146850673D01*
X142644782Y-146661408D01*
X142644781Y-146661399D01*
X142644597Y-146658005D01*
X142589187Y-146320019D01*
X142497559Y-145990005D01*
X142370787Y-145671832D01*
X142210358Y-145369231D01*
X142208447Y-145366412D01*
X142020062Y-145088565D01*
X142020058Y-145088560D01*
X142018153Y-145085750D01*
X141796425Y-144824711D01*
X141547773Y-144589175D01*
X141275113Y-144381905D01*
X141236673Y-144358776D01*
X141189208Y-144330218D01*
X140981641Y-144205329D01*
X140670798Y-144061518D01*
X140667560Y-144060427D01*
X140667555Y-144060425D01*
X140349465Y-143953247D01*
X140349459Y-143953245D01*
X140346229Y-143952157D01*
X140137374Y-143906185D01*
X140015070Y-143879264D01*
X140015066Y-143879263D01*
X140011739Y-143878531D01*
X140008349Y-143878162D01*
X140008347Y-143878162D01*
X139950180Y-143871836D01*
X139671249Y-143841500D01*
X139328751Y-143841500D01*
X139049820Y-143871836D01*
X138991653Y-143878162D01*
X138991651Y-143878162D01*
X138988261Y-143878531D01*
X138984934Y-143879263D01*
X138984930Y-143879264D01*
X138862626Y-143906185D01*
X138653771Y-143952157D01*
X138650541Y-143953245D01*
X138650535Y-143953247D01*
X138332445Y-144060425D01*
X138332440Y-144060427D01*
X138329202Y-144061518D01*
X138018359Y-144205329D01*
X137810792Y-144330218D01*
X137763328Y-144358776D01*
X137724887Y-144381905D01*
X137452227Y-144589175D01*
X137203575Y-144824711D01*
X136981847Y-145085750D01*
X136979942Y-145088560D01*
X136979938Y-145088565D01*
X136791553Y-145366412D01*
X136789642Y-145369231D01*
X136629213Y-145671832D01*
X136502441Y-145990005D01*
X136410813Y-146320019D01*
X136355403Y-146658005D01*
X136355218Y-146661425D01*
X136338021Y-146978611D01*
X136337733Y-146981360D01*
X136337712Y-146983122D01*
X136337769Y-146983258D01*
X136337678Y-146984932D01*
X136336309Y-146993724D01*
X136336940Y-146998548D01*
X136336861Y-147000000D01*
X136337130Y-147000000D01*
X136337958Y-147006332D01*
X136340436Y-147025283D01*
X136341500Y-147041620D01*
X136341500Y-152950633D01*
X136340000Y-152970018D01*
X136336309Y-152993724D01*
X108905791Y-152993724D01*
X109008035Y-152727370D01*
X109093719Y-152407590D01*
X109145509Y-152080606D01*
X109161167Y-151781831D01*
X109162739Y-151767528D01*
X109162767Y-151767359D01*
X109163576Y-151762552D01*
X109163664Y-151755354D01*
X109163670Y-151754860D01*
X109163670Y-151754857D01*
X109163729Y-151750000D01*
X109159773Y-151722376D01*
X109158500Y-151704514D01*
X109158500Y-145293057D01*
X109178502Y-145224936D01*
X109232158Y-145178443D01*
X109256531Y-145170202D01*
X109358864Y-145146916D01*
X109362143Y-145145776D01*
X109362148Y-145145775D01*
X109681502Y-145034791D01*
X109681506Y-145034789D01*
X109684796Y-145033646D01*
X109710226Y-145021512D01*
X109993074Y-144886548D01*
X109993077Y-144886546D01*
X109996213Y-144885050D01*
X110289302Y-144702950D01*
X110461335Y-144567583D01*
X110557739Y-144491726D01*
X110557742Y-144491723D01*
X110560471Y-144489576D01*
X110745388Y-144307586D01*
X110803911Y-144249990D01*
X110803914Y-144249986D01*
X110806399Y-144247541D01*
X111024074Y-143979811D01*
X111210828Y-143689665D01*
X111364373Y-143380658D01*
X111379278Y-143339882D01*
X111481632Y-143059854D01*
X111481633Y-143059851D01*
X111482830Y-143056576D01*
X111564747Y-142721388D01*
X111609119Y-142379200D01*
X111610089Y-142326005D01*
X111615341Y-142037693D01*
X111615405Y-142034204D01*
X111583526Y-141690627D01*
X111513873Y-141352677D01*
X111407300Y-141024495D01*
X111265112Y-140710100D01*
X111204552Y-140608024D01*
X111090826Y-140416336D01*
X111090822Y-140416330D01*
X111089051Y-140413345D01*
X110999754Y-140294950D01*
X110883378Y-140140654D01*
X110881273Y-140137863D01*
X110851708Y-140106565D01*
X110646716Y-139889563D01*
X110646715Y-139889562D01*
X110644324Y-139887031D01*
X110381107Y-139663921D01*
X110281461Y-139596858D01*
X110097748Y-139473218D01*
X110097747Y-139473217D01*
X110094846Y-139471265D01*
X109789048Y-139311425D01*
X109785810Y-139310166D01*
X109785804Y-139310163D01*
X109470702Y-139187618D01*
X109470698Y-139187617D01*
X109467459Y-139186357D01*
X109134018Y-139097595D01*
X108821294Y-139050514D01*
X108814840Y-139049171D01*
X108814833Y-139049207D01*
X108810042Y-139048318D01*
X108805339Y-139047063D01*
X108792857Y-139045732D01*
X108788002Y-139045966D01*
X108787999Y-139045966D01*
X108734537Y-139048544D01*
X108728469Y-139048690D01*
X103634500Y-139048690D01*
X103566379Y-139028688D01*
X103519886Y-138975032D01*
X103508500Y-138922690D01*
X103508500Y-127190000D01*
X163886496Y-127190000D01*
X163906458Y-127379928D01*
X163965473Y-127561556D01*
X164060960Y-127726944D01*
X164188747Y-127868866D01*
X164343248Y-127981118D01*
X164349276Y-127983802D01*
X164349278Y-127983803D01*
X164511681Y-128056109D01*
X164517712Y-128058794D01*
X164611112Y-128078647D01*
X164698056Y-128097128D01*
X164698061Y-128097128D01*
X164704513Y-128098500D01*
X164895487Y-128098500D01*
X164901939Y-128097128D01*
X164901944Y-128097128D01*
X164988888Y-128078647D01*
X165082288Y-128058794D01*
X165088319Y-128056109D01*
X165250722Y-127983803D01*
X165250724Y-127983802D01*
X165256752Y-127981118D01*
X165411253Y-127868866D01*
X165539040Y-127726944D01*
X165634527Y-127561556D01*
X165693542Y-127379928D01*
X165713504Y-127190000D01*
X165693542Y-127000072D01*
X165634527Y-126818444D01*
X165613919Y-126782749D01*
X165556759Y-126683747D01*
X165539040Y-126653056D01*
X165411253Y-126511134D01*
X165256752Y-126398882D01*
X165250724Y-126396198D01*
X165250722Y-126396197D01*
X165088319Y-126323891D01*
X165088318Y-126323891D01*
X165082288Y-126321206D01*
X164988887Y-126301353D01*
X164901944Y-126282872D01*
X164901939Y-126282872D01*
X164895487Y-126281500D01*
X164704513Y-126281500D01*
X164698061Y-126282872D01*
X164698056Y-126282872D01*
X164611113Y-126301353D01*
X164517712Y-126321206D01*
X164511682Y-126323891D01*
X164511681Y-126323891D01*
X164349278Y-126396197D01*
X164349276Y-126396198D01*
X164343248Y-126398882D01*
X164188747Y-126511134D01*
X164060960Y-126653056D01*
X164043241Y-126683747D01*
X163986082Y-126782749D01*
X163965473Y-126818444D01*
X163906458Y-127000072D01*
X163886496Y-127190000D01*
X103508500Y-127190000D01*
X103508500Y-124750000D01*
X109746496Y-124750000D01*
X109766458Y-124939928D01*
X109825473Y-125121556D01*
X109920960Y-125286944D01*
X109925378Y-125291851D01*
X109925379Y-125291852D01*
X109934094Y-125301531D01*
X110048747Y-125428866D01*
X110142119Y-125496705D01*
X110197904Y-125537235D01*
X110203248Y-125541118D01*
X110209276Y-125543802D01*
X110209278Y-125543803D01*
X110371681Y-125616109D01*
X110377712Y-125618794D01*
X110471112Y-125638647D01*
X110558056Y-125657128D01*
X110558061Y-125657128D01*
X110564513Y-125658500D01*
X110755487Y-125658500D01*
X110761939Y-125657128D01*
X110761944Y-125657128D01*
X110848888Y-125638647D01*
X110942288Y-125618794D01*
X110948319Y-125616109D01*
X111110722Y-125543803D01*
X111110724Y-125543802D01*
X111116752Y-125541118D01*
X111122091Y-125537239D01*
X111122098Y-125537235D01*
X111128528Y-125532563D01*
X111202587Y-125508500D01*
X122695198Y-125508500D01*
X122763319Y-125528502D01*
X122796024Y-125558935D01*
X122836739Y-125613261D01*
X122953295Y-125700615D01*
X123089684Y-125751745D01*
X123151866Y-125758500D01*
X123848134Y-125758500D01*
X123910316Y-125751745D01*
X124046705Y-125700615D01*
X124163261Y-125613261D01*
X124164392Y-125611752D01*
X124223574Y-125579435D01*
X124294389Y-125584500D01*
X124339452Y-125613461D01*
X124344276Y-125618285D01*
X124446351Y-125694786D01*
X124461946Y-125703324D01*
X124582394Y-125748478D01*
X124597649Y-125752105D01*
X124648514Y-125757631D01*
X124655328Y-125758000D01*
X124727885Y-125758000D01*
X124743124Y-125753525D01*
X124744329Y-125752135D01*
X124746000Y-125744452D01*
X124746000Y-125739884D01*
X125254000Y-125739884D01*
X125258475Y-125755123D01*
X125259865Y-125756328D01*
X125267548Y-125757999D01*
X125344669Y-125757999D01*
X125351490Y-125757629D01*
X125402352Y-125752105D01*
X125417604Y-125748479D01*
X125458950Y-125732979D01*
X125529758Y-125727796D01*
X125592127Y-125761717D01*
X125626256Y-125823972D01*
X125623014Y-125889895D01*
X125616458Y-125910072D01*
X125596496Y-126100000D01*
X125597186Y-126106565D01*
X125605948Y-126189927D01*
X125616458Y-126289928D01*
X125675473Y-126471556D01*
X125678776Y-126477278D01*
X125678777Y-126477279D01*
X125698323Y-126511134D01*
X125770960Y-126636944D01*
X125775378Y-126641851D01*
X125775379Y-126641852D01*
X125894325Y-126773955D01*
X125898747Y-126778866D01*
X126053248Y-126891118D01*
X126059276Y-126893802D01*
X126059278Y-126893803D01*
X126221681Y-126966109D01*
X126227712Y-126968794D01*
X126321112Y-126988647D01*
X126408056Y-127007128D01*
X126408061Y-127007128D01*
X126414513Y-127008500D01*
X126605487Y-127008500D01*
X126611939Y-127007128D01*
X126611944Y-127007128D01*
X126698888Y-126988647D01*
X126792288Y-126968794D01*
X126798319Y-126966109D01*
X126960722Y-126893803D01*
X126960724Y-126893802D01*
X126966752Y-126891118D01*
X127121253Y-126778866D01*
X127206900Y-126683745D01*
X127267343Y-126646507D01*
X127338327Y-126647859D01*
X127384644Y-126674307D01*
X127388748Y-126678865D01*
X127394090Y-126682746D01*
X127394092Y-126682748D01*
X127526387Y-126778866D01*
X127543249Y-126791117D01*
X127549277Y-126793801D01*
X127549279Y-126793802D01*
X127618743Y-126824729D01*
X127717713Y-126868793D01*
X127804485Y-126887237D01*
X127898057Y-126907127D01*
X127898062Y-126907127D01*
X127904514Y-126908499D01*
X128095488Y-126908499D01*
X128101940Y-126907127D01*
X128101945Y-126907127D01*
X128195517Y-126887237D01*
X128282289Y-126868793D01*
X128381259Y-126824729D01*
X128450723Y-126793802D01*
X128450725Y-126793801D01*
X128456753Y-126791117D01*
X128480368Y-126773960D01*
X128512158Y-126750863D01*
X128611254Y-126678865D01*
X128739041Y-126536943D01*
X128834528Y-126371555D01*
X128893543Y-126189927D01*
X128913505Y-125999999D01*
X128900420Y-125875502D01*
X128913192Y-125805664D01*
X128961694Y-125753817D01*
X129030527Y-125736423D01*
X129069961Y-125744351D01*
X129089685Y-125751745D01*
X129151867Y-125758500D01*
X129848135Y-125758500D01*
X129910317Y-125751745D01*
X130046706Y-125700615D01*
X130163262Y-125613261D01*
X130250616Y-125496705D01*
X130301746Y-125360316D01*
X130308501Y-125298134D01*
X130308501Y-124201866D01*
X130301746Y-124139684D01*
X130250616Y-124003295D01*
X130163262Y-123886739D01*
X130164866Y-123885537D01*
X130136380Y-123833370D01*
X130133501Y-123806587D01*
X130133500Y-121347522D01*
X130153502Y-121279401D01*
X130165858Y-121263219D01*
X130239040Y-121181942D01*
X130334527Y-121016554D01*
X130393542Y-120834926D01*
X130394460Y-120826197D01*
X130412814Y-120651563D01*
X130413504Y-120644998D01*
X130399119Y-120508134D01*
X130971499Y-120508134D01*
X130978254Y-120570316D01*
X131029384Y-120706705D01*
X131116738Y-120823261D01*
X131233294Y-120910615D01*
X131369683Y-120961745D01*
X131431865Y-120968500D01*
X132778133Y-120968500D01*
X132840315Y-120961745D01*
X132976704Y-120910615D01*
X133093260Y-120823261D01*
X133180614Y-120706705D01*
X133231744Y-120570316D01*
X133238499Y-120508134D01*
X133238499Y-118611866D01*
X133231744Y-118549684D01*
X133216867Y-118510000D01*
X146116496Y-118510000D01*
X146117186Y-118516565D01*
X146127562Y-118615283D01*
X146136458Y-118699928D01*
X146195473Y-118881556D01*
X146290960Y-119046944D01*
X146418747Y-119188866D01*
X146573248Y-119301118D01*
X146579276Y-119303802D01*
X146579278Y-119303803D01*
X146741681Y-119376109D01*
X146747712Y-119378794D01*
X146841113Y-119398647D01*
X146928056Y-119417128D01*
X146928061Y-119417128D01*
X146934513Y-119418500D01*
X147125487Y-119418500D01*
X147131939Y-119417128D01*
X147131944Y-119417128D01*
X147218887Y-119398647D01*
X147312288Y-119378794D01*
X147318319Y-119376109D01*
X147480722Y-119303803D01*
X147480724Y-119303802D01*
X147486752Y-119301118D01*
X147641253Y-119188866D01*
X147769040Y-119046944D01*
X147864527Y-118881556D01*
X147923542Y-118699928D01*
X147932439Y-118615283D01*
X147942814Y-118516565D01*
X147943504Y-118510000D01*
X147926297Y-118346285D01*
X147924232Y-118326635D01*
X147924232Y-118326633D01*
X147923542Y-118320072D01*
X147864527Y-118138444D01*
X147855466Y-118122749D01*
X147772341Y-117978774D01*
X147769040Y-117973056D01*
X147641253Y-117831134D01*
X147494968Y-117724851D01*
X147492094Y-117722763D01*
X147492093Y-117722762D01*
X147486752Y-117718882D01*
X147480724Y-117716198D01*
X147480722Y-117716197D01*
X147318319Y-117643891D01*
X147318318Y-117643891D01*
X147312288Y-117641206D01*
X147218888Y-117621353D01*
X147131944Y-117602872D01*
X147131939Y-117602872D01*
X147125487Y-117601500D01*
X146934513Y-117601500D01*
X146928061Y-117602872D01*
X146928056Y-117602872D01*
X146841112Y-117621353D01*
X146747712Y-117641206D01*
X146741682Y-117643891D01*
X146741681Y-117643891D01*
X146579278Y-117716197D01*
X146579276Y-117716198D01*
X146573248Y-117718882D01*
X146567907Y-117722762D01*
X146567906Y-117722763D01*
X146565032Y-117724851D01*
X146418747Y-117831134D01*
X146290960Y-117973056D01*
X146287659Y-117978774D01*
X146204535Y-118122749D01*
X146195473Y-118138444D01*
X146136458Y-118320072D01*
X146135768Y-118326633D01*
X146135768Y-118326635D01*
X146133703Y-118346285D01*
X146116496Y-118510000D01*
X133216867Y-118510000D01*
X133180614Y-118413295D01*
X133093260Y-118296739D01*
X132976704Y-118209385D01*
X132840315Y-118158255D01*
X132778133Y-118151500D01*
X131431865Y-118151500D01*
X131369683Y-118158255D01*
X131233294Y-118209385D01*
X131116738Y-118296739D01*
X131029384Y-118413295D01*
X130978254Y-118549684D01*
X130971499Y-118611866D01*
X130971499Y-120508134D01*
X130399119Y-120508134D01*
X130393542Y-120455070D01*
X130334527Y-120273442D01*
X130239040Y-120108054D01*
X130111253Y-119966132D01*
X129956752Y-119853880D01*
X129950724Y-119851196D01*
X129950722Y-119851195D01*
X129788319Y-119778889D01*
X129788318Y-119778889D01*
X129782288Y-119776204D01*
X129688888Y-119756351D01*
X129601944Y-119737870D01*
X129601939Y-119737870D01*
X129595487Y-119736498D01*
X129404513Y-119736498D01*
X129398061Y-119737870D01*
X129398056Y-119737870D01*
X129311112Y-119756351D01*
X129217712Y-119776204D01*
X129211682Y-119778889D01*
X129211681Y-119778889D01*
X129049278Y-119851195D01*
X129049276Y-119851196D01*
X129043248Y-119853880D01*
X128888747Y-119966132D01*
X128760960Y-120108054D01*
X128665473Y-120273442D01*
X128606458Y-120455070D01*
X128586496Y-120644998D01*
X128587186Y-120651563D01*
X128605541Y-120826197D01*
X128606458Y-120834926D01*
X128665473Y-121016554D01*
X128760960Y-121181942D01*
X128834137Y-121263213D01*
X128864853Y-121327219D01*
X128866500Y-121347522D01*
X128866501Y-123787587D01*
X128846499Y-123855708D01*
X128792843Y-123902201D01*
X128722569Y-123912305D01*
X128664111Y-123885607D01*
X128663262Y-123886739D01*
X128658071Y-123882848D01*
X128658069Y-123882847D01*
X128656076Y-123881353D01*
X128575703Y-123821117D01*
X128546706Y-123799385D01*
X128410317Y-123748255D01*
X128348135Y-123741500D01*
X127651867Y-123741500D01*
X127589685Y-123748255D01*
X127453296Y-123799385D01*
X127336740Y-123886739D01*
X127335814Y-123887975D01*
X127276783Y-123920209D01*
X127205968Y-123915144D01*
X127164644Y-123888586D01*
X127163260Y-123886739D01*
X127046704Y-123799385D01*
X126910315Y-123748255D01*
X126848133Y-123741500D01*
X126151865Y-123741500D01*
X126089683Y-123748255D01*
X125953294Y-123799385D01*
X125836738Y-123886739D01*
X125835607Y-123888248D01*
X125776432Y-123920563D01*
X125705616Y-123915502D01*
X125660548Y-123886539D01*
X125655724Y-123881715D01*
X125553649Y-123805214D01*
X125538054Y-123796676D01*
X125417606Y-123751522D01*
X125402351Y-123747895D01*
X125351486Y-123742369D01*
X125344672Y-123742000D01*
X125272115Y-123742000D01*
X125256876Y-123746475D01*
X125255671Y-123747865D01*
X125254000Y-123755548D01*
X125254000Y-125739884D01*
X124746000Y-125739884D01*
X124746000Y-123760116D01*
X124741525Y-123744877D01*
X124740135Y-123743672D01*
X124732452Y-123742001D01*
X124655331Y-123742001D01*
X124648510Y-123742371D01*
X124597648Y-123747895D01*
X124582396Y-123751521D01*
X124461939Y-123796679D01*
X124445008Y-123805948D01*
X124375651Y-123821117D01*
X124309103Y-123796380D01*
X124266493Y-123739592D01*
X124258500Y-123695428D01*
X124258500Y-119136371D01*
X124278502Y-119068250D01*
X124295405Y-119047276D01*
X124426331Y-118916350D01*
X124489228Y-118882199D01*
X124545824Y-118870169D01*
X124545833Y-118870166D01*
X124552288Y-118868794D01*
X124558319Y-118866109D01*
X124720722Y-118793803D01*
X124720724Y-118793802D01*
X124726752Y-118791118D01*
X124881253Y-118678866D01*
X124885675Y-118673955D01*
X125004621Y-118541852D01*
X125004622Y-118541851D01*
X125009040Y-118536944D01*
X125104527Y-118371556D01*
X125163542Y-118189928D01*
X125166580Y-118161029D01*
X125182814Y-118006565D01*
X125183504Y-118000000D01*
X125164809Y-117822128D01*
X125164232Y-117816635D01*
X125164232Y-117816633D01*
X125163542Y-117810072D01*
X125104527Y-117628444D01*
X125009040Y-117463056D01*
X124999744Y-117452731D01*
X124885675Y-117326045D01*
X124885674Y-117326044D01*
X124881253Y-117321134D01*
X124726752Y-117208882D01*
X124720724Y-117206198D01*
X124720722Y-117206197D01*
X124558319Y-117133891D01*
X124558318Y-117133891D01*
X124552288Y-117131206D01*
X124458888Y-117111353D01*
X124371944Y-117092872D01*
X124371939Y-117092872D01*
X124365487Y-117091500D01*
X124174513Y-117091500D01*
X124168061Y-117092872D01*
X124168056Y-117092872D01*
X124081112Y-117111353D01*
X123987712Y-117131206D01*
X123981682Y-117133891D01*
X123981681Y-117133891D01*
X123819278Y-117206197D01*
X123819276Y-117206198D01*
X123813248Y-117208882D01*
X123658747Y-117321134D01*
X123654326Y-117326044D01*
X123654325Y-117326045D01*
X123540257Y-117452731D01*
X123530960Y-117463056D01*
X123435473Y-117628444D01*
X123392446Y-117760868D01*
X123380613Y-117797285D01*
X123349875Y-117847444D01*
X123011089Y-118186230D01*
X122996677Y-118198616D01*
X122985082Y-118207149D01*
X122985077Y-118207154D01*
X122979182Y-118211492D01*
X122974443Y-118217070D01*
X122974440Y-118217073D01*
X122944965Y-118251768D01*
X122938035Y-118259284D01*
X122932340Y-118264979D01*
X122930060Y-118267861D01*
X122914719Y-118287251D01*
X122911928Y-118290655D01*
X122881361Y-118326635D01*
X122864667Y-118346285D01*
X122861339Y-118352801D01*
X122857972Y-118357850D01*
X122854805Y-118362979D01*
X122850266Y-118368716D01*
X122819345Y-118434875D01*
X122817442Y-118438769D01*
X122784231Y-118503808D01*
X122782492Y-118510916D01*
X122780393Y-118516559D01*
X122778476Y-118522322D01*
X122775378Y-118528950D01*
X122773888Y-118536112D01*
X122773888Y-118536113D01*
X122760514Y-118600412D01*
X122759544Y-118604696D01*
X122742192Y-118675610D01*
X122741500Y-118686764D01*
X122741464Y-118686762D01*
X122741225Y-118690755D01*
X122740851Y-118694947D01*
X122739360Y-118702115D01*
X122739558Y-118709432D01*
X122741454Y-118779521D01*
X122741500Y-118782928D01*
X122741500Y-123865500D01*
X122721498Y-123933621D01*
X122667842Y-123980114D01*
X122615500Y-123991500D01*
X111202587Y-123991500D01*
X111128528Y-123967437D01*
X111122098Y-123962765D01*
X111122091Y-123962761D01*
X111116752Y-123958882D01*
X111110724Y-123956198D01*
X111110722Y-123956197D01*
X110948319Y-123883891D01*
X110948318Y-123883891D01*
X110942288Y-123881206D01*
X110848887Y-123861353D01*
X110761944Y-123842872D01*
X110761939Y-123842872D01*
X110755487Y-123841500D01*
X110564513Y-123841500D01*
X110558061Y-123842872D01*
X110558056Y-123842872D01*
X110471113Y-123861353D01*
X110377712Y-123881206D01*
X110371682Y-123883891D01*
X110371681Y-123883891D01*
X110209278Y-123956197D01*
X110209276Y-123956198D01*
X110203248Y-123958882D01*
X110197907Y-123962762D01*
X110197906Y-123962763D01*
X110191473Y-123967437D01*
X110048747Y-124071134D01*
X110044326Y-124076044D01*
X110044325Y-124076045D01*
X109931036Y-124201866D01*
X109920960Y-124213056D01*
X109825473Y-124378444D01*
X109766458Y-124560072D01*
X109746496Y-124750000D01*
X103508500Y-124750000D01*
X103508500Y-120508134D01*
X119761501Y-120508134D01*
X119768256Y-120570316D01*
X119819386Y-120706705D01*
X119906740Y-120823261D01*
X120023296Y-120910615D01*
X120159685Y-120961745D01*
X120221867Y-120968500D01*
X121568135Y-120968500D01*
X121630317Y-120961745D01*
X121766706Y-120910615D01*
X121883262Y-120823261D01*
X121970616Y-120706705D01*
X122021746Y-120570316D01*
X122028501Y-120508134D01*
X122028501Y-118611866D01*
X122021746Y-118549684D01*
X121970616Y-118413295D01*
X121883262Y-118296739D01*
X121766706Y-118209385D01*
X121630317Y-118158255D01*
X121568135Y-118151500D01*
X120221867Y-118151500D01*
X120159685Y-118158255D01*
X120023296Y-118209385D01*
X119906740Y-118296739D01*
X119819386Y-118413295D01*
X119768256Y-118549684D01*
X119761501Y-118611866D01*
X119761501Y-120508134D01*
X103508500Y-120508134D01*
X103508500Y-114606181D01*
X105361869Y-114606181D01*
X105362777Y-114627836D01*
X105376542Y-114956258D01*
X105402077Y-115121206D01*
X105423832Y-115261736D01*
X105430145Y-115302518D01*
X105522012Y-115640645D01*
X105523302Y-115643904D01*
X105523304Y-115643909D01*
X105609347Y-115861226D01*
X105650998Y-115966424D01*
X105652653Y-115969536D01*
X105652655Y-115969541D01*
X105675627Y-116012745D01*
X105815493Y-116275795D01*
X105817483Y-116278701D01*
X105817484Y-116278703D01*
X105991518Y-116532872D01*
X106013449Y-116564902D01*
X106242397Y-116830142D01*
X106499485Y-117068207D01*
X106502311Y-117070290D01*
X106502314Y-117070293D01*
X106588576Y-117133891D01*
X106781507Y-117276132D01*
X106784544Y-117277886D01*
X106784548Y-117277888D01*
X106945060Y-117370559D01*
X107084949Y-117451324D01*
X107088170Y-117452731D01*
X107402807Y-117590193D01*
X107402817Y-117590197D01*
X107406029Y-117591600D01*
X107409387Y-117592639D01*
X107409391Y-117592641D01*
X107561847Y-117639834D01*
X107740743Y-117695212D01*
X107744199Y-117695871D01*
X107744198Y-117695871D01*
X108081471Y-117760210D01*
X108081477Y-117760211D01*
X108084922Y-117760868D01*
X108316253Y-117778668D01*
X108430777Y-117787480D01*
X108430778Y-117787480D01*
X108434274Y-117787749D01*
X108666291Y-117779646D01*
X108780929Y-117775643D01*
X108780933Y-117775643D01*
X108784445Y-117775520D01*
X108787924Y-117775006D01*
X108787927Y-117775006D01*
X109127578Y-117724851D01*
X109127584Y-117724850D01*
X109131070Y-117724335D01*
X109134474Y-117723436D01*
X109134477Y-117723435D01*
X109466439Y-117635727D01*
X109466440Y-117635727D01*
X109469830Y-117634831D01*
X109796502Y-117508123D01*
X110107014Y-117345792D01*
X110397496Y-117149859D01*
X110416259Y-117133891D01*
X110661654Y-116925043D01*
X110661655Y-116925042D01*
X110664327Y-116922768D01*
X110723114Y-116860166D01*
X110901771Y-116669916D01*
X110901775Y-116669911D01*
X110904182Y-116667348D01*
X111114071Y-116386785D01*
X111149613Y-116326206D01*
X111225939Y-116196109D01*
X111291377Y-116084573D01*
X111325084Y-116008866D01*
X111333484Y-115990000D01*
X149076496Y-115990000D01*
X149096458Y-116179928D01*
X149155473Y-116361556D01*
X149158776Y-116367278D01*
X149158777Y-116367279D01*
X149177967Y-116400516D01*
X149250960Y-116526944D01*
X149255378Y-116531851D01*
X149255379Y-116531852D01*
X149293231Y-116573891D01*
X149378747Y-116668866D01*
X149533248Y-116781118D01*
X149539276Y-116783802D01*
X149539278Y-116783803D01*
X149643358Y-116830142D01*
X149707712Y-116858794D01*
X149801112Y-116878647D01*
X149888056Y-116897128D01*
X149888061Y-116897128D01*
X149894513Y-116898500D01*
X150085487Y-116898500D01*
X150091939Y-116897128D01*
X150091944Y-116897128D01*
X150178888Y-116878647D01*
X150272288Y-116858794D01*
X150336642Y-116830142D01*
X150440722Y-116783803D01*
X150440724Y-116783802D01*
X150446752Y-116781118D01*
X150452097Y-116777235D01*
X150452112Y-116777226D01*
X150521106Y-116760484D01*
X150588199Y-116783702D01*
X150632089Y-116839507D01*
X150638841Y-116910182D01*
X150624236Y-116949342D01*
X150594893Y-117000166D01*
X150555473Y-117068444D01*
X150496458Y-117250072D01*
X150495768Y-117256633D01*
X150495768Y-117256635D01*
X150486226Y-117347424D01*
X150476496Y-117440000D01*
X150477186Y-117446565D01*
X150495701Y-117622721D01*
X150496458Y-117629928D01*
X150555473Y-117811556D01*
X150558776Y-117817278D01*
X150558777Y-117817279D01*
X150566776Y-117831134D01*
X150650960Y-117976944D01*
X150655378Y-117981851D01*
X150655379Y-117981852D01*
X150671720Y-118000000D01*
X150778747Y-118118866D01*
X150933248Y-118231118D01*
X150939276Y-118233802D01*
X150939278Y-118233803D01*
X151101681Y-118306109D01*
X151107712Y-118308794D01*
X151191647Y-118326635D01*
X151288056Y-118347128D01*
X151288061Y-118347128D01*
X151294513Y-118348500D01*
X151485487Y-118348500D01*
X151491939Y-118347128D01*
X151491944Y-118347128D01*
X151588353Y-118326635D01*
X151672288Y-118308794D01*
X151678319Y-118306109D01*
X151840722Y-118233803D01*
X151840724Y-118233802D01*
X151846752Y-118231118D01*
X152001253Y-118118866D01*
X152108280Y-118000000D01*
X152124621Y-117981852D01*
X152124622Y-117981851D01*
X152129040Y-117976944D01*
X152213224Y-117831134D01*
X152221223Y-117817279D01*
X152221224Y-117817278D01*
X152224527Y-117811556D01*
X152283542Y-117629928D01*
X152284300Y-117622721D01*
X152302814Y-117446565D01*
X152303504Y-117440000D01*
X152293774Y-117347424D01*
X152284232Y-117256635D01*
X152284232Y-117256633D01*
X152283542Y-117250072D01*
X152224527Y-117068444D01*
X152129040Y-116903056D01*
X152123703Y-116897128D01*
X152005675Y-116766045D01*
X152005674Y-116766044D01*
X152001253Y-116761134D01*
X151846752Y-116648882D01*
X151840724Y-116646198D01*
X151840722Y-116646197D01*
X151678319Y-116573891D01*
X151678318Y-116573891D01*
X151672288Y-116571206D01*
X151552641Y-116545774D01*
X151491944Y-116532872D01*
X151491939Y-116532872D01*
X151485487Y-116531500D01*
X151294513Y-116531500D01*
X151288061Y-116532872D01*
X151288056Y-116532872D01*
X151227359Y-116545774D01*
X151107712Y-116571206D01*
X151101682Y-116573891D01*
X151101681Y-116573891D01*
X150939278Y-116646197D01*
X150939276Y-116646198D01*
X150933248Y-116648882D01*
X150927903Y-116652765D01*
X150927888Y-116652774D01*
X150858894Y-116669516D01*
X150791801Y-116646298D01*
X150747911Y-116590493D01*
X150741159Y-116519818D01*
X150755764Y-116480658D01*
X150821223Y-116367279D01*
X150821224Y-116367278D01*
X150824527Y-116361556D01*
X150883542Y-116179928D01*
X150888790Y-116130000D01*
X158556496Y-116130000D01*
X158557186Y-116136565D01*
X158561500Y-116177606D01*
X158576458Y-116319928D01*
X158635473Y-116501556D01*
X158638776Y-116507278D01*
X158638777Y-116507279D01*
X158650131Y-116526944D01*
X158730960Y-116666944D01*
X158735378Y-116671851D01*
X158735379Y-116671852D01*
X158836089Y-116783702D01*
X158858747Y-116808866D01*
X159013248Y-116921118D01*
X159019276Y-116923802D01*
X159019278Y-116923803D01*
X159076640Y-116949342D01*
X159187712Y-116998794D01*
X159281113Y-117018647D01*
X159368056Y-117037128D01*
X159368061Y-117037128D01*
X159374513Y-117038500D01*
X159565487Y-117038500D01*
X159571939Y-117037128D01*
X159571944Y-117037128D01*
X159658887Y-117018647D01*
X159752288Y-116998794D01*
X159863360Y-116949342D01*
X159920722Y-116923803D01*
X159920724Y-116923802D01*
X159926752Y-116921118D01*
X160081253Y-116808866D01*
X160103911Y-116783702D01*
X160204621Y-116671852D01*
X160204622Y-116671851D01*
X160209040Y-116666944D01*
X160289869Y-116526944D01*
X160301223Y-116507279D01*
X160301224Y-116507278D01*
X160304527Y-116501556D01*
X160363542Y-116319928D01*
X160378501Y-116177606D01*
X160382814Y-116136565D01*
X160383504Y-116130000D01*
X160379049Y-116087611D01*
X160364232Y-115946635D01*
X160364232Y-115946633D01*
X160363542Y-115940072D01*
X160304527Y-115758444D01*
X160209040Y-115593056D01*
X160098400Y-115470177D01*
X160085675Y-115456045D01*
X160085674Y-115456044D01*
X160081253Y-115451134D01*
X159926752Y-115338882D01*
X159920724Y-115336198D01*
X159920722Y-115336197D01*
X159758319Y-115263891D01*
X159758318Y-115263891D01*
X159752288Y-115261206D01*
X159658888Y-115241353D01*
X159571944Y-115222872D01*
X159571939Y-115222872D01*
X159565487Y-115221500D01*
X159374513Y-115221500D01*
X159368061Y-115222872D01*
X159368056Y-115222872D01*
X159281112Y-115241353D01*
X159187712Y-115261206D01*
X159181682Y-115263891D01*
X159181681Y-115263891D01*
X159019278Y-115336197D01*
X159019276Y-115336198D01*
X159013248Y-115338882D01*
X158858747Y-115451134D01*
X158854326Y-115456044D01*
X158854325Y-115456045D01*
X158841601Y-115470177D01*
X158730960Y-115593056D01*
X158635473Y-115758444D01*
X158576458Y-115940072D01*
X158575768Y-115946633D01*
X158575768Y-115946635D01*
X158560951Y-116087611D01*
X158556496Y-116130000D01*
X150888790Y-116130000D01*
X150903504Y-115990000D01*
X150891086Y-115871852D01*
X150884232Y-115806635D01*
X150884232Y-115806633D01*
X150883542Y-115800072D01*
X150824527Y-115618444D01*
X150813171Y-115598774D01*
X150787314Y-115553990D01*
X150729040Y-115453056D01*
X150705622Y-115427047D01*
X150605675Y-115316045D01*
X150605674Y-115316044D01*
X150601253Y-115311134D01*
X150446752Y-115198882D01*
X150440724Y-115196198D01*
X150440722Y-115196197D01*
X150278319Y-115123891D01*
X150278318Y-115123891D01*
X150272288Y-115121206D01*
X150178887Y-115101353D01*
X150091944Y-115082872D01*
X150091939Y-115082872D01*
X150085487Y-115081500D01*
X149894513Y-115081500D01*
X149888061Y-115082872D01*
X149888056Y-115082872D01*
X149801113Y-115101353D01*
X149707712Y-115121206D01*
X149701682Y-115123891D01*
X149701681Y-115123891D01*
X149539278Y-115196197D01*
X149539276Y-115196198D01*
X149533248Y-115198882D01*
X149378747Y-115311134D01*
X149374326Y-115316044D01*
X149374325Y-115316045D01*
X149274379Y-115427047D01*
X149250960Y-115453056D01*
X149192686Y-115553990D01*
X149166830Y-115598774D01*
X149155473Y-115618444D01*
X149096458Y-115800072D01*
X149095768Y-115806633D01*
X149095768Y-115806635D01*
X149088914Y-115871852D01*
X149076496Y-115990000D01*
X111333484Y-115990000D01*
X111432459Y-115767698D01*
X111432461Y-115767693D01*
X111433891Y-115764481D01*
X111539837Y-115430498D01*
X111607894Y-115086786D01*
X111627967Y-114847745D01*
X111637030Y-114739814D01*
X111637031Y-114739803D01*
X111637213Y-114737630D01*
X111637260Y-114734334D01*
X111638407Y-114652178D01*
X111638407Y-114652166D01*
X111638437Y-114650000D01*
X111638284Y-114647251D01*
X111619074Y-114303671D01*
X111618878Y-114300162D01*
X111612114Y-114260172D01*
X111561032Y-113958153D01*
X111561031Y-113958148D01*
X111560445Y-113954684D01*
X111490283Y-113710000D01*
X149626496Y-113710000D01*
X149646458Y-113899928D01*
X149705473Y-114081556D01*
X149708776Y-114087278D01*
X149708777Y-114087279D01*
X149739861Y-114141118D01*
X149800960Y-114246944D01*
X149805378Y-114251851D01*
X149805379Y-114251852D01*
X149852037Y-114303671D01*
X149928747Y-114388866D01*
X150083248Y-114501118D01*
X150089276Y-114503802D01*
X150089278Y-114503803D01*
X150225939Y-114564648D01*
X150257712Y-114578794D01*
X150351112Y-114598647D01*
X150438056Y-114617128D01*
X150438061Y-114617128D01*
X150444513Y-114618500D01*
X150635487Y-114618500D01*
X150641939Y-114617128D01*
X150641944Y-114617128D01*
X150728888Y-114598647D01*
X150822288Y-114578794D01*
X150854061Y-114564648D01*
X150990722Y-114503803D01*
X150990724Y-114503802D01*
X150996752Y-114501118D01*
X151151253Y-114388866D01*
X151227963Y-114303671D01*
X151274621Y-114251852D01*
X151274622Y-114251851D01*
X151279040Y-114246944D01*
X151340139Y-114141118D01*
X151371223Y-114087279D01*
X151371224Y-114087278D01*
X151374527Y-114081556D01*
X151433542Y-113899928D01*
X151453504Y-113710000D01*
X151452814Y-113703435D01*
X151434232Y-113526635D01*
X151434232Y-113526633D01*
X151433542Y-113520072D01*
X151378282Y-113350000D01*
X160906496Y-113350000D01*
X160926458Y-113539928D01*
X160985473Y-113721556D01*
X161080960Y-113886944D01*
X161085378Y-113891851D01*
X161085379Y-113891852D01*
X161141953Y-113954684D01*
X161208747Y-114028866D01*
X161363248Y-114141118D01*
X161369276Y-114143802D01*
X161369278Y-114143803D01*
X161531681Y-114216109D01*
X161537712Y-114218794D01*
X161574305Y-114226572D01*
X161636778Y-114260300D01*
X161671100Y-114322450D01*
X161666372Y-114393289D01*
X161624096Y-114450326D01*
X161599357Y-114464926D01*
X161439278Y-114536197D01*
X161439276Y-114536198D01*
X161433248Y-114538882D01*
X161278747Y-114651134D01*
X161274326Y-114656044D01*
X161274325Y-114656045D01*
X161216770Y-114719967D01*
X161150960Y-114793056D01*
X161055473Y-114958444D01*
X160996458Y-115140072D01*
X160995768Y-115146633D01*
X160995768Y-115146635D01*
X160990277Y-115198882D01*
X160976496Y-115330000D01*
X160977186Y-115336565D01*
X160990031Y-115458774D01*
X160996458Y-115519928D01*
X161055473Y-115701556D01*
X161150960Y-115866944D01*
X161278747Y-116008866D01*
X161433248Y-116121118D01*
X161439276Y-116123802D01*
X161439278Y-116123803D01*
X161601681Y-116196109D01*
X161607712Y-116198794D01*
X161701112Y-116218647D01*
X161788056Y-116237128D01*
X161788061Y-116237128D01*
X161794513Y-116238500D01*
X161985487Y-116238500D01*
X161991939Y-116237128D01*
X161991944Y-116237128D01*
X162078888Y-116218647D01*
X162172288Y-116198794D01*
X162178319Y-116196109D01*
X162340722Y-116123803D01*
X162340724Y-116123802D01*
X162346752Y-116121118D01*
X162501253Y-116008866D01*
X162505668Y-116003963D01*
X162510580Y-115999540D01*
X162511705Y-116000789D01*
X162565014Y-115967949D01*
X162598200Y-115963500D01*
X169415406Y-115963500D01*
X169483527Y-115983502D01*
X169504501Y-116000405D01*
X177252878Y-123748783D01*
X177286904Y-123811095D01*
X177289093Y-123824708D01*
X177305427Y-123980114D01*
X177306458Y-123989928D01*
X177365473Y-124171556D01*
X177368776Y-124177278D01*
X177368777Y-124177279D01*
X177384945Y-124205283D01*
X177460960Y-124336944D01*
X177588747Y-124478866D01*
X177743248Y-124591118D01*
X177749276Y-124593802D01*
X177749278Y-124593803D01*
X177911681Y-124666109D01*
X177917712Y-124668794D01*
X178011112Y-124688647D01*
X178098056Y-124707128D01*
X178098061Y-124707128D01*
X178104513Y-124708500D01*
X178295487Y-124708500D01*
X178301939Y-124707128D01*
X178301944Y-124707128D01*
X178388888Y-124688647D01*
X178482288Y-124668794D01*
X178488319Y-124666109D01*
X178650722Y-124593803D01*
X178650724Y-124593802D01*
X178656752Y-124591118D01*
X178811253Y-124478866D01*
X178939040Y-124336944D01*
X179015055Y-124205283D01*
X179031223Y-124177279D01*
X179031224Y-124177278D01*
X179034527Y-124171556D01*
X179093542Y-123989928D01*
X179094574Y-123980114D01*
X179112814Y-123806565D01*
X179113504Y-123800000D01*
X179108121Y-123748783D01*
X179094232Y-123616635D01*
X179094232Y-123616633D01*
X179093542Y-123610072D01*
X179034527Y-123428444D01*
X178939040Y-123263056D01*
X178811253Y-123121134D01*
X178656752Y-123008882D01*
X178650724Y-123006198D01*
X178650722Y-123006197D01*
X178488319Y-122933891D01*
X178488318Y-122933891D01*
X178482288Y-122931206D01*
X178388887Y-122911353D01*
X178301944Y-122892872D01*
X178301939Y-122892872D01*
X178295487Y-122891500D01*
X178239594Y-122891500D01*
X178171473Y-122871498D01*
X178150499Y-122854595D01*
X178039499Y-122743595D01*
X178005473Y-122681283D01*
X178010538Y-122610468D01*
X178053085Y-122553632D01*
X178119605Y-122528821D01*
X178128594Y-122528500D01*
X178215487Y-122528500D01*
X178221939Y-122527128D01*
X178221944Y-122527128D01*
X178308887Y-122508647D01*
X178402288Y-122488794D01*
X178408319Y-122486109D01*
X178570722Y-122413803D01*
X178570724Y-122413802D01*
X178576752Y-122411118D01*
X178731253Y-122298866D01*
X178859040Y-122156944D01*
X178954527Y-121991556D01*
X179013542Y-121809928D01*
X179033504Y-121620000D01*
X179013542Y-121430072D01*
X178954527Y-121248444D01*
X178859040Y-121083056D01*
X178804315Y-121022277D01*
X178735675Y-120946045D01*
X178735674Y-120946044D01*
X178731253Y-120941134D01*
X178576752Y-120828882D01*
X178570724Y-120826198D01*
X178570722Y-120826197D01*
X178408319Y-120753891D01*
X178408318Y-120753891D01*
X178402288Y-120751206D01*
X178308888Y-120731353D01*
X178221944Y-120712872D01*
X178221939Y-120712872D01*
X178215487Y-120711500D01*
X178159595Y-120711500D01*
X178091474Y-120691498D01*
X178070500Y-120674595D01*
X172002086Y-114606181D01*
X177361869Y-114606181D01*
X177362777Y-114627836D01*
X177376542Y-114956258D01*
X177402077Y-115121206D01*
X177423832Y-115261736D01*
X177430145Y-115302518D01*
X177522012Y-115640645D01*
X177523302Y-115643904D01*
X177523304Y-115643909D01*
X177609347Y-115861226D01*
X177650998Y-115966424D01*
X177652653Y-115969536D01*
X177652655Y-115969541D01*
X177675627Y-116012745D01*
X177815493Y-116275795D01*
X177817483Y-116278701D01*
X177817484Y-116278703D01*
X177991518Y-116532872D01*
X178013449Y-116564902D01*
X178242397Y-116830142D01*
X178499485Y-117068207D01*
X178502311Y-117070290D01*
X178502314Y-117070293D01*
X178588576Y-117133891D01*
X178781507Y-117276132D01*
X178784544Y-117277886D01*
X178784548Y-117277888D01*
X178945060Y-117370559D01*
X179084949Y-117451324D01*
X179088170Y-117452731D01*
X179402807Y-117590193D01*
X179402817Y-117590197D01*
X179406029Y-117591600D01*
X179409387Y-117592639D01*
X179409391Y-117592641D01*
X179561847Y-117639834D01*
X179740743Y-117695212D01*
X179744199Y-117695871D01*
X179744198Y-117695871D01*
X180081471Y-117760210D01*
X180081477Y-117760211D01*
X180084922Y-117760868D01*
X180316253Y-117778668D01*
X180430777Y-117787480D01*
X180430778Y-117787480D01*
X180434274Y-117787749D01*
X180666291Y-117779646D01*
X180780929Y-117775643D01*
X180780933Y-117775643D01*
X180784445Y-117775520D01*
X180787924Y-117775006D01*
X180787927Y-117775006D01*
X181127578Y-117724851D01*
X181127584Y-117724850D01*
X181131070Y-117724335D01*
X181134474Y-117723436D01*
X181134477Y-117723435D01*
X181466439Y-117635727D01*
X181466440Y-117635727D01*
X181469830Y-117634831D01*
X181796502Y-117508123D01*
X182107014Y-117345792D01*
X182397496Y-117149859D01*
X182416259Y-117133891D01*
X182661654Y-116925043D01*
X182661655Y-116925042D01*
X182664327Y-116922768D01*
X182723114Y-116860166D01*
X182901771Y-116669916D01*
X182901775Y-116669911D01*
X182904182Y-116667348D01*
X183114071Y-116386785D01*
X183149613Y-116326206D01*
X183225939Y-116196109D01*
X183291377Y-116084573D01*
X183325084Y-116008866D01*
X183432459Y-115767698D01*
X183432461Y-115767693D01*
X183433891Y-115764481D01*
X183539837Y-115430498D01*
X183607894Y-115086786D01*
X183627967Y-114847745D01*
X183637030Y-114739814D01*
X183637031Y-114739803D01*
X183637213Y-114737630D01*
X183637260Y-114734334D01*
X183638407Y-114652178D01*
X183638407Y-114652166D01*
X183638437Y-114650000D01*
X183638284Y-114647251D01*
X183619074Y-114303671D01*
X183618878Y-114300162D01*
X183612114Y-114260172D01*
X183561032Y-113958153D01*
X183561031Y-113958148D01*
X183560445Y-113954684D01*
X183463866Y-113617873D01*
X183353457Y-113350000D01*
X183331683Y-113297171D01*
X183331679Y-113297163D01*
X183330345Y-113293926D01*
X183161546Y-112986882D01*
X182972204Y-112718472D01*
X182961609Y-112703453D01*
X182961608Y-112703451D01*
X182959573Y-112700567D01*
X182852307Y-112579751D01*
X182729274Y-112441175D01*
X182729270Y-112441171D01*
X182726943Y-112438550D01*
X182724342Y-112436208D01*
X182724337Y-112436203D01*
X182469167Y-112206447D01*
X182469166Y-112206447D01*
X182466557Y-112204097D01*
X182428538Y-112176878D01*
X182184513Y-112002173D01*
X182184510Y-112002171D01*
X182181659Y-112000130D01*
X181875800Y-111829192D01*
X181552794Y-111693412D01*
X181549425Y-111692421D01*
X181549421Y-111692419D01*
X181401053Y-111648752D01*
X181216665Y-111594484D01*
X180940895Y-111545858D01*
X180875063Y-111534250D01*
X180875061Y-111534250D01*
X180871603Y-111533640D01*
X180868094Y-111533419D01*
X180868092Y-111533419D01*
X180525428Y-111511860D01*
X180525422Y-111511860D01*
X180521910Y-111511639D01*
X180424516Y-111516403D01*
X180175451Y-111528584D01*
X180175443Y-111528585D01*
X180171944Y-111528756D01*
X180168476Y-111529318D01*
X180168473Y-111529318D01*
X179829542Y-111584213D01*
X179829539Y-111584214D01*
X179826067Y-111584776D01*
X179822684Y-111585721D01*
X179822682Y-111585721D01*
X179787747Y-111595475D01*
X179488589Y-111679001D01*
X179485341Y-111680313D01*
X179485333Y-111680316D01*
X179166983Y-111808938D01*
X179166979Y-111808940D01*
X179163719Y-111810257D01*
X179160632Y-111811926D01*
X179160628Y-111811928D01*
X179131220Y-111827829D01*
X178855503Y-111976909D01*
X178567785Y-112176878D01*
X178565143Y-112179191D01*
X178565139Y-112179194D01*
X178412819Y-112312541D01*
X178304151Y-112407673D01*
X178067886Y-112666416D01*
X177861935Y-112949883D01*
X177860193Y-112952949D01*
X177860192Y-112952951D01*
X177848961Y-112972721D01*
X177688865Y-113254541D01*
X177671985Y-113293926D01*
X177560690Y-113553596D01*
X177550834Y-113576591D01*
X177549817Y-113579960D01*
X177451318Y-113906206D01*
X177449562Y-113912021D01*
X177429018Y-114023955D01*
X177387192Y-114251852D01*
X177386311Y-114256650D01*
X177361869Y-114606181D01*
X172002086Y-114606181D01*
X170353652Y-112957747D01*
X170346112Y-112949461D01*
X170342000Y-112942982D01*
X170292348Y-112896356D01*
X170289507Y-112893602D01*
X170269770Y-112873865D01*
X170266573Y-112871385D01*
X170257551Y-112863680D01*
X170236478Y-112843891D01*
X170225321Y-112833414D01*
X170218375Y-112829595D01*
X170218372Y-112829593D01*
X170207566Y-112823652D01*
X170191047Y-112812801D01*
X170185048Y-112808148D01*
X170175041Y-112800386D01*
X170167772Y-112797241D01*
X170167768Y-112797238D01*
X170134463Y-112782826D01*
X170123813Y-112777609D01*
X170085060Y-112756305D01*
X170065437Y-112751267D01*
X170046734Y-112744863D01*
X170035420Y-112739967D01*
X170035419Y-112739967D01*
X170028145Y-112736819D01*
X170020322Y-112735580D01*
X170020312Y-112735577D01*
X169984476Y-112729901D01*
X169972856Y-112727495D01*
X169937711Y-112718472D01*
X169937710Y-112718472D01*
X169930030Y-112716500D01*
X169909776Y-112716500D01*
X169890065Y-112714949D01*
X169877886Y-112713020D01*
X169870057Y-112711780D01*
X169862165Y-112712526D01*
X169826039Y-112715941D01*
X169814181Y-112716500D01*
X162528200Y-112716500D01*
X162460079Y-112696498D01*
X162440854Y-112680158D01*
X162440581Y-112680461D01*
X162435669Y-112676038D01*
X162431253Y-112671134D01*
X162426499Y-112667680D01*
X162389399Y-112607464D01*
X162390749Y-112536480D01*
X162430261Y-112477495D01*
X162484751Y-112451024D01*
X162490769Y-112449745D01*
X162542288Y-112438794D01*
X162548319Y-112436109D01*
X162710722Y-112363803D01*
X162710724Y-112363802D01*
X162716752Y-112361118D01*
X162871253Y-112248866D01*
X162999040Y-112106944D01*
X163061700Y-111998414D01*
X163091223Y-111947279D01*
X163091224Y-111947278D01*
X163094527Y-111941556D01*
X163153542Y-111759928D01*
X163160638Y-111692419D01*
X163172814Y-111576565D01*
X163173504Y-111570000D01*
X163153542Y-111380072D01*
X163094527Y-111198444D01*
X162999040Y-111033056D01*
X162871253Y-110891134D01*
X162716752Y-110778882D01*
X162710724Y-110776198D01*
X162710722Y-110776197D01*
X162548319Y-110703891D01*
X162548318Y-110703891D01*
X162542288Y-110701206D01*
X162448888Y-110681353D01*
X162361944Y-110662872D01*
X162361939Y-110662872D01*
X162355487Y-110661500D01*
X162164513Y-110661500D01*
X162158061Y-110662872D01*
X162158056Y-110662872D01*
X162071113Y-110681353D01*
X161977712Y-110701206D01*
X161971682Y-110703891D01*
X161971681Y-110703891D01*
X161809278Y-110776197D01*
X161809276Y-110776198D01*
X161803248Y-110778882D01*
X161648747Y-110891134D01*
X161520960Y-111033056D01*
X161425473Y-111198444D01*
X161366458Y-111380072D01*
X161346496Y-111570000D01*
X161347186Y-111576565D01*
X161359363Y-111692419D01*
X161366458Y-111759928D01*
X161425473Y-111941556D01*
X161428776Y-111947278D01*
X161428777Y-111947279D01*
X161458300Y-111998414D01*
X161520960Y-112106944D01*
X161648747Y-112248866D01*
X161653505Y-112252323D01*
X161690603Y-112312541D01*
X161689250Y-112383525D01*
X161649735Y-112442509D01*
X161595249Y-112468976D01*
X161537712Y-112481206D01*
X161531682Y-112483891D01*
X161531681Y-112483891D01*
X161369278Y-112556197D01*
X161369276Y-112556198D01*
X161363248Y-112558882D01*
X161208747Y-112671134D01*
X161204326Y-112676044D01*
X161204325Y-112676045D01*
X161095203Y-112797238D01*
X161080960Y-112813056D01*
X161051732Y-112863680D01*
X161017621Y-112922763D01*
X160985473Y-112978444D01*
X160926458Y-113160072D01*
X160925768Y-113166633D01*
X160925768Y-113166635D01*
X160912048Y-113297171D01*
X160906496Y-113350000D01*
X151378282Y-113350000D01*
X151374527Y-113338444D01*
X151362749Y-113318043D01*
X151337314Y-113273990D01*
X151279040Y-113173056D01*
X151261697Y-113153794D01*
X151155675Y-113036045D01*
X151155674Y-113036044D01*
X151151253Y-113031134D01*
X150996752Y-112918882D01*
X150990724Y-112916198D01*
X150990722Y-112916197D01*
X150828319Y-112843891D01*
X150828318Y-112843891D01*
X150822288Y-112841206D01*
X150728888Y-112821353D01*
X150641944Y-112802872D01*
X150641939Y-112802872D01*
X150635487Y-112801500D01*
X150444513Y-112801500D01*
X150438061Y-112802872D01*
X150438056Y-112802872D01*
X150351113Y-112821353D01*
X150257712Y-112841206D01*
X150251682Y-112843891D01*
X150251681Y-112843891D01*
X150089278Y-112916197D01*
X150089276Y-112916198D01*
X150083248Y-112918882D01*
X149928747Y-113031134D01*
X149924326Y-113036044D01*
X149924325Y-113036045D01*
X149818304Y-113153794D01*
X149800960Y-113173056D01*
X149742686Y-113273990D01*
X149717252Y-113318043D01*
X149705473Y-113338444D01*
X149646458Y-113520072D01*
X149645768Y-113526633D01*
X149645768Y-113526635D01*
X149627186Y-113703435D01*
X149626496Y-113710000D01*
X111490283Y-113710000D01*
X111463866Y-113617873D01*
X111353457Y-113350000D01*
X111331683Y-113297171D01*
X111331679Y-113297163D01*
X111330345Y-113293926D01*
X111161546Y-112986882D01*
X110972204Y-112718472D01*
X110961609Y-112703453D01*
X110961608Y-112703451D01*
X110959573Y-112700567D01*
X110852307Y-112579751D01*
X110729274Y-112441175D01*
X110729270Y-112441171D01*
X110726943Y-112438550D01*
X110724342Y-112436208D01*
X110724337Y-112436203D01*
X110469167Y-112206447D01*
X110469166Y-112206447D01*
X110466557Y-112204097D01*
X110428538Y-112176878D01*
X110184513Y-112002173D01*
X110184510Y-112002171D01*
X110181659Y-112000130D01*
X109875800Y-111829192D01*
X109552794Y-111693412D01*
X109549425Y-111692421D01*
X109549421Y-111692419D01*
X109401053Y-111648752D01*
X109216665Y-111594484D01*
X108940895Y-111545858D01*
X108875063Y-111534250D01*
X108875061Y-111534250D01*
X108871603Y-111533640D01*
X108868094Y-111533419D01*
X108868092Y-111533419D01*
X108525428Y-111511860D01*
X108525422Y-111511860D01*
X108521910Y-111511639D01*
X108424516Y-111516403D01*
X108175451Y-111528584D01*
X108175443Y-111528585D01*
X108171944Y-111528756D01*
X108168476Y-111529318D01*
X108168473Y-111529318D01*
X107829542Y-111584213D01*
X107829539Y-111584214D01*
X107826067Y-111584776D01*
X107822684Y-111585721D01*
X107822682Y-111585721D01*
X107787747Y-111595475D01*
X107488589Y-111679001D01*
X107485341Y-111680313D01*
X107485333Y-111680316D01*
X107166983Y-111808938D01*
X107166979Y-111808940D01*
X107163719Y-111810257D01*
X107160632Y-111811926D01*
X107160628Y-111811928D01*
X107131220Y-111827829D01*
X106855503Y-111976909D01*
X106567785Y-112176878D01*
X106565143Y-112179191D01*
X106565139Y-112179194D01*
X106412819Y-112312541D01*
X106304151Y-112407673D01*
X106067886Y-112666416D01*
X105861935Y-112949883D01*
X105860193Y-112952949D01*
X105860192Y-112952951D01*
X105848961Y-112972721D01*
X105688865Y-113254541D01*
X105671985Y-113293926D01*
X105560690Y-113553596D01*
X105550834Y-113576591D01*
X105549817Y-113579960D01*
X105451318Y-113906206D01*
X105449562Y-113912021D01*
X105429018Y-114023955D01*
X105387192Y-114251852D01*
X105386311Y-114256650D01*
X105361869Y-114606181D01*
X103508500Y-114606181D01*
X103508500Y-89634500D01*
X103528502Y-89566379D01*
X103582158Y-89519886D01*
X103634500Y-89508500D01*
X105946750Y-89508500D01*
X105967655Y-89510246D01*
X105982656Y-89512770D01*
X105982659Y-89512770D01*
X105987448Y-89513576D01*
X105993687Y-89513652D01*
X105995140Y-89513670D01*
X105995143Y-89513670D01*
X106000000Y-89513729D01*
X106004815Y-89513039D01*
X106005634Y-89512986D01*
X106015494Y-89512023D01*
X106330606Y-89495509D01*
X106333846Y-89494996D01*
X106333854Y-89494995D01*
X106484036Y-89471208D01*
X106657590Y-89443719D01*
X106977370Y-89358035D01*
X107286441Y-89239394D01*
X107289381Y-89237896D01*
X107578479Y-89090593D01*
X107578486Y-89090589D01*
X107581418Y-89089095D01*
X107859068Y-88908787D01*
X108116350Y-88700444D01*
X108350444Y-88466350D01*
X108558787Y-88209068D01*
X108739095Y-87931418D01*
X108773310Y-87864269D01*
X108887896Y-87639381D01*
X108889394Y-87636441D01*
X109008035Y-87327370D01*
X109093719Y-87007590D01*
X109145509Y-86680606D01*
X109161167Y-86381831D01*
X109162739Y-86367528D01*
X109162767Y-86367359D01*
X109163576Y-86362552D01*
X109163664Y-86355354D01*
X109163670Y-86354860D01*
X109163670Y-86354857D01*
X109163729Y-86350000D01*
X109159773Y-86322376D01*
X109158500Y-86304514D01*
X109158500Y-82593724D01*
X136336309Y-82593724D01*
X136337130Y-82600000D01*
X136336861Y-82600000D01*
X136355403Y-82941995D01*
X136410813Y-83279981D01*
X136502441Y-83609995D01*
X136629213Y-83928168D01*
X136789642Y-84230769D01*
X136791550Y-84233584D01*
X136791553Y-84233588D01*
X136941399Y-84454593D01*
X136981847Y-84514250D01*
X137203575Y-84775289D01*
X137452227Y-85010825D01*
X137724887Y-85218095D01*
X138018359Y-85394671D01*
X138329202Y-85538482D01*
X138332440Y-85539573D01*
X138332445Y-85539575D01*
X138650535Y-85646753D01*
X138650541Y-85646755D01*
X138653771Y-85647843D01*
X138657107Y-85648577D01*
X138657106Y-85648577D01*
X138984930Y-85720736D01*
X138984934Y-85720737D01*
X138988261Y-85721469D01*
X138991651Y-85721838D01*
X138991653Y-85721838D01*
X139049820Y-85728164D01*
X139328751Y-85758500D01*
X139671249Y-85758500D01*
X139950180Y-85728164D01*
X140008347Y-85721838D01*
X140008349Y-85721838D01*
X140011739Y-85721469D01*
X140015066Y-85720737D01*
X140015070Y-85720736D01*
X140342894Y-85648577D01*
X140342893Y-85648577D01*
X140346229Y-85647843D01*
X140349459Y-85646755D01*
X140349465Y-85646753D01*
X140667555Y-85539575D01*
X140667560Y-85539573D01*
X140670798Y-85538482D01*
X140981641Y-85394671D01*
X141275113Y-85218095D01*
X141547773Y-85010825D01*
X141796425Y-84775289D01*
X142018153Y-84514250D01*
X142058602Y-84454593D01*
X142208447Y-84233588D01*
X142208450Y-84233584D01*
X142210358Y-84230769D01*
X142370787Y-83928168D01*
X142497559Y-83609995D01*
X142589187Y-83279981D01*
X142644597Y-82941995D01*
X142661543Y-82629444D01*
X142662345Y-82622204D01*
X142662334Y-82622203D01*
X142662770Y-82617345D01*
X142663576Y-82612552D01*
X142663729Y-82600000D01*
X142662830Y-82593724D01*
X146336309Y-82593724D01*
X146337130Y-82600000D01*
X146336861Y-82600000D01*
X146355403Y-82941995D01*
X146410813Y-83279981D01*
X146502441Y-83609995D01*
X146629213Y-83928168D01*
X146789642Y-84230769D01*
X146791550Y-84233584D01*
X146791553Y-84233588D01*
X146941399Y-84454593D01*
X146981847Y-84514250D01*
X147203575Y-84775289D01*
X147452227Y-85010825D01*
X147724887Y-85218095D01*
X148018359Y-85394671D01*
X148329202Y-85538482D01*
X148332440Y-85539573D01*
X148332445Y-85539575D01*
X148650535Y-85646753D01*
X148650541Y-85646755D01*
X148653771Y-85647843D01*
X148657107Y-85648577D01*
X148657106Y-85648577D01*
X148984930Y-85720736D01*
X148984934Y-85720737D01*
X148988261Y-85721469D01*
X148991651Y-85721838D01*
X148991653Y-85721838D01*
X149049820Y-85728164D01*
X149328751Y-85758500D01*
X149671249Y-85758500D01*
X149950180Y-85728164D01*
X150008347Y-85721838D01*
X150008349Y-85721838D01*
X150011739Y-85721469D01*
X150015066Y-85720737D01*
X150015070Y-85720736D01*
X150342894Y-85648577D01*
X150342893Y-85648577D01*
X150346229Y-85647843D01*
X150349459Y-85646755D01*
X150349465Y-85646753D01*
X150667555Y-85539575D01*
X150667560Y-85539573D01*
X150670798Y-85538482D01*
X150981641Y-85394671D01*
X151275113Y-85218095D01*
X151547773Y-85010825D01*
X151796425Y-84775289D01*
X152018153Y-84514250D01*
X152058602Y-84454593D01*
X152208447Y-84233588D01*
X152208450Y-84233584D01*
X152210358Y-84230769D01*
X152370787Y-83928168D01*
X152497559Y-83609995D01*
X152589187Y-83279981D01*
X152644597Y-82941995D01*
X152661543Y-82629444D01*
X152662345Y-82622204D01*
X152662334Y-82622203D01*
X152662770Y-82617345D01*
X152663576Y-82612552D01*
X152663729Y-82600000D01*
X152659773Y-82572376D01*
X152658500Y-82554514D01*
X152658500Y-76653250D01*
X152660246Y-76632345D01*
X152662770Y-76617344D01*
X152662770Y-76617341D01*
X152663576Y-76612552D01*
X152663729Y-76600000D01*
X152663040Y-76595188D01*
X152662724Y-76590331D01*
X152662726Y-76590331D01*
X152662479Y-76587825D01*
X152662323Y-76584932D01*
X152654808Y-76446337D01*
X152644782Y-76261408D01*
X152644781Y-76261399D01*
X152644597Y-76258005D01*
X152589187Y-75920019D01*
X152507781Y-75626821D01*
X152498472Y-75593292D01*
X152498470Y-75593286D01*
X152497559Y-75590005D01*
X152370787Y-75271832D01*
X152210358Y-74969231D01*
X152208447Y-74966412D01*
X152020062Y-74688565D01*
X152020058Y-74688560D01*
X152018153Y-74685750D01*
X151796425Y-74424711D01*
X151547773Y-74189175D01*
X151275113Y-73981905D01*
X150981641Y-73805329D01*
X150670798Y-73661518D01*
X150667560Y-73660427D01*
X150667555Y-73660425D01*
X150349465Y-73553247D01*
X150349459Y-73553245D01*
X150346229Y-73552157D01*
X150248644Y-73530677D01*
X150015070Y-73479264D01*
X150015066Y-73479263D01*
X150011739Y-73478531D01*
X150008349Y-73478162D01*
X150008347Y-73478162D01*
X149950180Y-73471836D01*
X149671249Y-73441500D01*
X149328751Y-73441500D01*
X149049820Y-73471836D01*
X148991653Y-73478162D01*
X148991651Y-73478162D01*
X148988261Y-73478531D01*
X148984934Y-73479263D01*
X148984930Y-73479264D01*
X148751356Y-73530677D01*
X148653771Y-73552157D01*
X148650541Y-73553245D01*
X148650535Y-73553247D01*
X148332445Y-73660425D01*
X148332440Y-73660427D01*
X148329202Y-73661518D01*
X148018359Y-73805329D01*
X147724887Y-73981905D01*
X147452227Y-74189175D01*
X147203575Y-74424711D01*
X146981847Y-74685750D01*
X146979942Y-74688560D01*
X146979938Y-74688565D01*
X146791553Y-74966412D01*
X146789642Y-74969231D01*
X146629213Y-75271832D01*
X146502441Y-75590005D01*
X146501530Y-75593286D01*
X146501528Y-75593292D01*
X146492219Y-75626821D01*
X146410813Y-75920019D01*
X146355403Y-76258005D01*
X146338373Y-76572121D01*
X146338021Y-76578611D01*
X146337733Y-76581360D01*
X146337712Y-76583122D01*
X146337769Y-76583258D01*
X146337678Y-76584932D01*
X146336309Y-76593724D01*
X146336940Y-76598548D01*
X146336861Y-76600000D01*
X146337130Y-76600000D01*
X146337958Y-76606332D01*
X146340436Y-76625283D01*
X146341500Y-76641620D01*
X146341500Y-82550633D01*
X146340000Y-82570018D01*
X146336309Y-82593724D01*
X142662830Y-82593724D01*
X142659773Y-82572376D01*
X142658500Y-82554514D01*
X142658500Y-76653250D01*
X142660246Y-76632345D01*
X142662770Y-76617344D01*
X142662770Y-76617341D01*
X142663576Y-76612552D01*
X142663729Y-76600000D01*
X142663040Y-76595188D01*
X142662724Y-76590331D01*
X142662726Y-76590331D01*
X142662479Y-76587825D01*
X142662323Y-76584932D01*
X142654808Y-76446337D01*
X142644782Y-76261408D01*
X142644781Y-76261399D01*
X142644597Y-76258005D01*
X142589187Y-75920019D01*
X142507781Y-75626821D01*
X142498472Y-75593292D01*
X142498470Y-75593286D01*
X142497559Y-75590005D01*
X142370787Y-75271832D01*
X142210358Y-74969231D01*
X142208447Y-74966412D01*
X142020062Y-74688565D01*
X142020058Y-74688560D01*
X142018153Y-74685750D01*
X141796425Y-74424711D01*
X141547773Y-74189175D01*
X141275113Y-73981905D01*
X140981641Y-73805329D01*
X140670798Y-73661518D01*
X140667560Y-73660427D01*
X140667555Y-73660425D01*
X140349465Y-73553247D01*
X140349459Y-73553245D01*
X140346229Y-73552157D01*
X140248644Y-73530677D01*
X140015070Y-73479264D01*
X140015066Y-73479263D01*
X140011739Y-73478531D01*
X140008349Y-73478162D01*
X140008347Y-73478162D01*
X139950180Y-73471836D01*
X139671249Y-73441500D01*
X139328751Y-73441500D01*
X139049820Y-73471836D01*
X138991653Y-73478162D01*
X138991651Y-73478162D01*
X138988261Y-73478531D01*
X138984934Y-73479263D01*
X138984930Y-73479264D01*
X138751356Y-73530677D01*
X138653771Y-73552157D01*
X138650541Y-73553245D01*
X138650535Y-73553247D01*
X138332445Y-73660425D01*
X138332440Y-73660427D01*
X138329202Y-73661518D01*
X138018359Y-73805329D01*
X137724887Y-73981905D01*
X137452227Y-74189175D01*
X137203575Y-74424711D01*
X136981847Y-74685750D01*
X136979942Y-74688560D01*
X136979938Y-74688565D01*
X136791553Y-74966412D01*
X136789642Y-74969231D01*
X136629213Y-75271832D01*
X136502441Y-75590005D01*
X136501530Y-75593286D01*
X136501528Y-75593292D01*
X136492219Y-75626821D01*
X136410813Y-75920019D01*
X136355403Y-76258005D01*
X136338373Y-76572121D01*
X136338021Y-76578611D01*
X136337733Y-76581360D01*
X136337712Y-76583122D01*
X136337769Y-76583258D01*
X136337678Y-76584932D01*
X136336309Y-76593724D01*
X136336940Y-76598548D01*
X136336861Y-76600000D01*
X136337130Y-76600000D01*
X136337958Y-76606332D01*
X136340436Y-76625283D01*
X136341500Y-76641620D01*
X136341500Y-82550633D01*
X136340000Y-82570018D01*
X136336309Y-82593724D01*
X109158500Y-82593724D01*
X109158500Y-77803250D01*
X109160246Y-77782345D01*
X109162770Y-77767344D01*
X109162770Y-77767341D01*
X109163576Y-77762552D01*
X109163729Y-77750000D01*
X109163039Y-77745185D01*
X109162986Y-77744366D01*
X109162022Y-77734496D01*
X109161568Y-77725818D01*
X109145509Y-77419394D01*
X109093719Y-77092410D01*
X109008035Y-76772630D01*
X108889394Y-76463559D01*
X108739095Y-76168583D01*
X108659320Y-76045739D01*
X108560589Y-75893707D01*
X108558787Y-75890932D01*
X108350444Y-75633650D01*
X108116350Y-75399556D01*
X107859068Y-75191213D01*
X107581418Y-75010905D01*
X107578486Y-75009411D01*
X107578479Y-75009407D01*
X107289381Y-74862104D01*
X107286441Y-74860606D01*
X106977370Y-74741965D01*
X106657590Y-74656281D01*
X106484036Y-74628792D01*
X106333854Y-74605005D01*
X106333846Y-74605004D01*
X106330606Y-74604491D01*
X106190095Y-74597127D01*
X106031831Y-74588833D01*
X106017528Y-74587261D01*
X106017412Y-74587242D01*
X106012552Y-74586424D01*
X106006059Y-74586345D01*
X106004860Y-74586330D01*
X106004857Y-74586330D01*
X106000000Y-74586271D01*
X105975679Y-74589754D01*
X105972376Y-74590227D01*
X105954514Y-74591500D01*
X103634500Y-74591500D01*
X103566379Y-74571498D01*
X103519886Y-74517842D01*
X103508500Y-74465500D01*
X103508500Y-71853782D01*
X103528502Y-71785661D01*
X103582158Y-71739168D01*
X103652432Y-71729064D01*
X103717012Y-71758558D01*
X103745751Y-71794629D01*
X103815493Y-71925795D01*
X103817483Y-71928701D01*
X103817484Y-71928703D01*
X103891490Y-72036785D01*
X104013449Y-72214902D01*
X104242397Y-72480142D01*
X104499485Y-72718207D01*
X104781507Y-72926132D01*
X104784544Y-72927886D01*
X104784548Y-72927888D01*
X104945060Y-73020559D01*
X105084949Y-73101324D01*
X105088170Y-73102731D01*
X105402807Y-73240193D01*
X105402817Y-73240197D01*
X105406029Y-73241600D01*
X105409387Y-73242639D01*
X105409391Y-73242641D01*
X105545685Y-73284831D01*
X105740743Y-73345212D01*
X105744199Y-73345871D01*
X105744198Y-73345871D01*
X106081471Y-73410210D01*
X106081477Y-73410211D01*
X106084922Y-73410868D01*
X106316253Y-73428668D01*
X106430777Y-73437480D01*
X106430778Y-73437480D01*
X106434274Y-73437749D01*
X106666291Y-73429646D01*
X106780929Y-73425643D01*
X106780933Y-73425643D01*
X106784445Y-73425520D01*
X106787924Y-73425006D01*
X106787927Y-73425006D01*
X107127578Y-73374851D01*
X107127584Y-73374850D01*
X107131070Y-73374335D01*
X107134474Y-73373436D01*
X107134477Y-73373435D01*
X107466439Y-73285727D01*
X107466440Y-73285727D01*
X107469830Y-73284831D01*
X107796502Y-73158123D01*
X108107014Y-72995792D01*
X108397496Y-72799859D01*
X108664327Y-72572768D01*
X108749069Y-72482527D01*
X108901771Y-72319916D01*
X108901775Y-72319911D01*
X108904182Y-72317348D01*
X109114071Y-72036785D01*
X109291377Y-71734573D01*
X109293830Y-71729064D01*
X109432459Y-71417698D01*
X109432461Y-71417693D01*
X109433891Y-71414481D01*
X109539837Y-71080498D01*
X109607894Y-70736786D01*
X109637213Y-70387630D01*
X109638437Y-70300000D01*
X109636185Y-70259708D01*
X109619074Y-69953671D01*
X109618878Y-69950162D01*
X109560445Y-69604684D01*
X109463866Y-69267873D01*
X109416818Y-69153726D01*
X109331683Y-68947171D01*
X109331679Y-68947163D01*
X109330345Y-68943926D01*
X109161546Y-68636882D01*
X108959573Y-68350567D01*
X108726943Y-68088550D01*
X108724342Y-68086208D01*
X108724337Y-68086203D01*
X108469167Y-67856447D01*
X108469166Y-67856447D01*
X108466557Y-67854097D01*
X108428538Y-67826878D01*
X108184513Y-67652173D01*
X108184510Y-67652171D01*
X108181659Y-67650130D01*
X107875800Y-67479192D01*
X107552794Y-67343412D01*
X107549425Y-67342421D01*
X107549421Y-67342419D01*
X107401053Y-67298752D01*
X107216665Y-67244484D01*
X106940895Y-67195858D01*
X106875063Y-67184250D01*
X106875061Y-67184250D01*
X106871603Y-67183640D01*
X106868094Y-67183419D01*
X106868092Y-67183419D01*
X106525428Y-67161860D01*
X106525422Y-67161860D01*
X106521910Y-67161639D01*
X106424516Y-67166403D01*
X106175451Y-67178584D01*
X106175443Y-67178585D01*
X106171944Y-67178756D01*
X106168476Y-67179318D01*
X106168473Y-67179318D01*
X105829542Y-67234213D01*
X105829539Y-67234214D01*
X105826067Y-67234776D01*
X105822684Y-67235721D01*
X105822682Y-67235721D01*
X105787747Y-67245475D01*
X105488589Y-67329001D01*
X105485341Y-67330313D01*
X105485333Y-67330316D01*
X105166983Y-67458938D01*
X105166979Y-67458940D01*
X105163719Y-67460257D01*
X105160632Y-67461926D01*
X105160628Y-67461928D01*
X105131220Y-67477829D01*
X104855503Y-67626909D01*
X104567785Y-67826878D01*
X104565143Y-67829191D01*
X104565139Y-67829194D01*
X104326206Y-68038365D01*
X104304151Y-68057673D01*
X104067886Y-68316416D01*
X103861935Y-68599883D01*
X103860193Y-68602949D01*
X103860192Y-68602951D01*
X103744056Y-68807387D01*
X103693017Y-68856738D01*
X103623399Y-68870660D01*
X103557305Y-68844734D01*
X103515720Y-68787191D01*
X103508500Y-68745150D01*
X103508500Y-66384500D01*
X103528502Y-66316379D01*
X103582158Y-66269886D01*
X103634500Y-66258500D01*
X185365500Y-66258500D01*
X185433621Y-66278502D01*
G37*
%TD.AperFunction*%
%TD*%
M02*
