%TF.GenerationSoftware,KiCad,Pcbnew,(5.1.10)-1*%
%TF.CreationDate,2022-05-09T22:41:18-07:00*%
%TF.ProjectId,solar-panel-NoCutout,736f6c61-722d-4706-916e-656c2d4e6f43,1.0*%
%TF.SameCoordinates,Original*%
%TF.FileFunction,Copper,L1,Top*%
%TF.FilePolarity,Positive*%
%FSLAX46Y46*%
G04 Gerber Fmt 4.6, Leading zero omitted, Abs format (unit mm)*
G04 Created by KiCad (PCBNEW (5.1.10)-1) date 2022-05-09 22:41:18*
%MOMM*%
%LPD*%
G01*
G04 APERTURE LIST*
%TA.AperFunction,ComponentPad*%
%ADD10C,5.250000*%
%TD*%
%TA.AperFunction,SMDPad,CuDef*%
%ADD11C,4.000000*%
%TD*%
%TA.AperFunction,SMDPad,CuDef*%
%ADD12C,2.000000*%
%TD*%
%TA.AperFunction,SMDPad,CuDef*%
%ADD13R,2.500000X2.500000*%
%TD*%
%TA.AperFunction,ComponentPad*%
%ADD14C,3.000000*%
%TD*%
%TA.AperFunction,SMDPad,CuDef*%
%ADD15R,2.500000X1.700000*%
%TD*%
%TA.AperFunction,ViaPad*%
%ADD16C,0.800000*%
%TD*%
%TA.AperFunction,Conductor*%
%ADD17C,0.250000*%
%TD*%
%TA.AperFunction,Conductor*%
%ADD18C,0.500000*%
%TD*%
G04 APERTURE END LIST*
D10*
%TO.P,J2,1*%
%TO.N,Net-(J2-Pad1)*%
X106500000Y-70300000D03*
%TD*%
%TO.P,J5,1*%
%TO.N,Net-(J5-Pad1)*%
X182500000Y-159300000D03*
%TD*%
%TO.P,J4,1*%
%TO.N,Net-(J4-Pad1)*%
X182500000Y-70300000D03*
%TD*%
%TO.P,J3,1*%
%TO.N,Net-(J3-Pad1)*%
X106500000Y-159300000D03*
%TD*%
D11*
%TO.P,U3,9*%
%TO.N,Net-(U3-Pad9)*%
X113630000Y-111126000D03*
%TO.P,U3,10*%
%TO.N,Net-(U3-Pad10)*%
X128870000Y-111126000D03*
D12*
%TO.P,U3,3*%
%TO.N,SCL*%
X117440000Y-119000000D03*
%TO.P,U3,4*%
%TO.N,SDA*%
X119980000Y-119000000D03*
%TO.P,U3,1*%
%TO.N,+3V3*%
X112360000Y-119000000D03*
%TO.P,U3,2*%
%TO.N,GND*%
X114900000Y-119000000D03*
%TO.P,U3,8*%
%TO.N,Net-(U3-Pad8)*%
X130140000Y-119000000D03*
%TO.P,U3,7*%
%TO.N,Net-(U3-Pad7)*%
X127600000Y-119000000D03*
%TO.P,U3,6*%
%TO.N,Net-(U3-Pad6)*%
X125060000Y-119000000D03*
%TO.P,U3,5*%
%TO.N,Net-(U3-Pad5)*%
X122520000Y-119000000D03*
%TD*%
D13*
%TO.P,U2,7*%
%TO.N,Net-(U2-Pad6)*%
X167460000Y-119450000D03*
%TO.P,U2,6*%
X172540000Y-119450000D03*
D11*
%TO.P,U2,9*%
%TO.N,Net-(U2-Pad9)*%
X163650000Y-118815000D03*
%TO.P,U2,8*%
%TO.N,Net-(U2-Pad8)*%
X176350000Y-118815000D03*
D12*
%TO.P,U2,1*%
%TO.N,+3V3*%
X175080000Y-106750000D03*
%TO.P,U2,2*%
%TO.N,GND*%
X172540000Y-106750000D03*
%TO.P,U2,5*%
%TO.N,Net-(U2-Pad5)*%
X164920000Y-106750000D03*
%TO.P,U2,4*%
%TO.N,SDA*%
X167460000Y-106750000D03*
%TO.P,U2,3*%
%TO.N,SCL*%
X170000000Y-106750000D03*
%TD*%
D11*
%TO.P,U1,7*%
%TO.N,Net-(U1-Pad7)*%
X155910000Y-117600000D03*
%TO.P,U1,8*%
%TO.N,Net-(U1-Pad8)*%
X135590000Y-117600000D03*
%TO.P,U1,9*%
%TO.N,Net-(U1-Pad9)*%
X155910000Y-104900000D03*
D12*
%TO.P,U1,2*%
%TO.N,Net-(U1-Pad2)*%
X149560000Y-104900000D03*
%TO.P,U1,3*%
%TO.N,GND*%
X147020000Y-104900000D03*
%TO.P,U1,1*%
%TO.N,+3V3*%
X152100000Y-104900000D03*
%TO.P,U1,6*%
%TO.N,Net-(U1-Pad6)*%
X139400000Y-104900000D03*
%TO.P,U1,5*%
%TO.N,SDA*%
X141940000Y-104900000D03*
%TO.P,U1,4*%
%TO.N,SCL*%
X144480000Y-104900000D03*
D11*
%TO.P,U1,10*%
%TO.N,Net-(U1-Pad10)*%
X135590000Y-104900000D03*
%TD*%
D14*
%TO.P,SC6,2*%
%TO.N,GND*%
X172250000Y-70750000D03*
%TO.P,SC6,1*%
%TO.N,Net-(SC5-Pad2)*%
X163250000Y-70750000D03*
%TD*%
%TO.P,SC5,2*%
%TO.N,Net-(SC5-Pad2)*%
X163000000Y-158750000D03*
%TO.P,SC5,1*%
%TO.N,Net-(D3-Pad2)*%
X172000000Y-158750000D03*
%TD*%
%TO.P,SC4,2*%
%TO.N,GND*%
X149250000Y-70750000D03*
%TO.P,SC4,1*%
%TO.N,Net-(SC3-Pad2)*%
X140250000Y-70750000D03*
%TD*%
%TO.P,SC3,2*%
%TO.N,Net-(SC3-Pad2)*%
X140000000Y-158750000D03*
%TO.P,SC3,1*%
%TO.N,Net-(D2-Pad2)*%
X149000000Y-158750000D03*
%TD*%
%TO.P,SC2,2*%
%TO.N,GND*%
X126000000Y-70750000D03*
%TO.P,SC2,1*%
%TO.N,Net-(SC1-Pad2)*%
X117000000Y-70750000D03*
%TD*%
%TO.P,SC1,2*%
%TO.N,Net-(SC1-Pad2)*%
X117000000Y-158750000D03*
%TO.P,SC1,1*%
%TO.N,Net-(D1-Pad2)*%
X126000000Y-158750000D03*
%TD*%
D15*
%TO.P,D3,2*%
%TO.N,Net-(D3-Pad2)*%
X160750000Y-125250000D03*
%TO.P,D3,1*%
%TO.N,VSOLAR*%
X156750000Y-125250000D03*
%TD*%
%TO.P,D2,2*%
%TO.N,Net-(D2-Pad2)*%
X151500000Y-125250000D03*
%TO.P,D2,1*%
%TO.N,VSOLAR*%
X147500000Y-125250000D03*
%TD*%
%TO.P,D1,2*%
%TO.N,Net-(D1-Pad2)*%
X141000000Y-125250000D03*
%TO.P,D1,1*%
%TO.N,VSOLAR*%
X137000000Y-125250000D03*
%TD*%
D16*
%TO.N,GND*%
X124000000Y-115750000D03*
X164000000Y-109750000D03*
X145500000Y-102000000D03*
%TO.N,+3V3*%
X164250000Y-103250000D03*
X150500000Y-107500000D03*
X126500000Y-122894997D03*
%TO.N,VSOLAR*%
X124750000Y-128750000D03*
%TO.N,SDA*%
X162500000Y-105250000D03*
X139000000Y-109000000D03*
X129500000Y-120644998D03*
%TO.N,SCL*%
X163500000Y-104250000D03*
X142250000Y-108250000D03*
X128000000Y-121894996D03*
%TO.N,Net-(U2-Pad6)*%
X165250000Y-123250000D03*
X178500000Y-122000000D03*
X178500000Y-123500000D03*
%TD*%
D17*
%TO.N,GND*%
X164000000Y-109750000D02*
X164000000Y-109750000D01*
X145500000Y-102000000D02*
X145500000Y-102000000D01*
X145500000Y-102130000D02*
X145500000Y-102000000D01*
X170290000Y-109750000D02*
X164000000Y-109750000D01*
X173040000Y-107000000D02*
X170290000Y-109750000D01*
X118150000Y-115750000D02*
X124000000Y-115750000D01*
X114900000Y-119000000D02*
X118150000Y-115750000D01*
X145500000Y-103380000D02*
X145500000Y-102000000D01*
X147020000Y-104900000D02*
X145500000Y-103380000D01*
%TO.N,+3V3*%
X150500000Y-107500000D02*
X150500000Y-107500000D01*
X171830000Y-103250000D02*
X175580000Y-107000000D01*
X164250000Y-103250000D02*
X171830000Y-103250000D01*
X116254997Y-122894997D02*
X112360000Y-119000000D01*
X126355003Y-122894997D02*
X116254997Y-122894997D01*
X150500000Y-106500000D02*
X152100000Y-104900000D01*
X150500000Y-107500000D02*
X150500000Y-106500000D01*
D18*
%TO.N,VSOLAR*%
X137250000Y-125500000D02*
X136250000Y-125500000D01*
X139000000Y-123750000D02*
X137250000Y-125500000D01*
X145750000Y-123750000D02*
X139000000Y-123750000D01*
X147500000Y-125500000D02*
X145750000Y-123750000D01*
X156750000Y-125500000D02*
X156750000Y-125000000D01*
X156750000Y-125000000D02*
X155500000Y-123750000D01*
X149250000Y-123750000D02*
X147500000Y-125500000D01*
X155500000Y-123750000D02*
X149250000Y-123750000D01*
X134500000Y-127750000D02*
X137000000Y-125250000D01*
X133500000Y-128750000D02*
X134500000Y-127750000D01*
X124750000Y-128750000D02*
X133500000Y-128750000D01*
%TO.N,Net-(D1-Pad2)*%
X126000000Y-148750000D02*
X126000000Y-158750000D01*
X141250000Y-133500000D02*
X126000000Y-148750000D01*
X141250000Y-125500000D02*
X141250000Y-133500000D01*
%TO.N,Net-(D2-Pad2)*%
X154500000Y-128500000D02*
X151500000Y-125500000D01*
X154500000Y-156000000D02*
X154500000Y-128500000D01*
X151750000Y-158750000D02*
X154500000Y-156000000D01*
X149000000Y-158750000D02*
X151750000Y-158750000D01*
D17*
%TO.N,SDA*%
X139000000Y-109000000D02*
X139000000Y-109000000D01*
X166210000Y-105250000D02*
X167960000Y-107000000D01*
X162500000Y-105250000D02*
X166210000Y-105250000D01*
X121624998Y-120644998D02*
X119980000Y-119000000D01*
X139000000Y-107840000D02*
X141940000Y-104900000D01*
X139000000Y-109000000D02*
X139000000Y-107840000D01*
X121624998Y-120644998D02*
X129500000Y-120644998D01*
%TO.N,SCL*%
X142250000Y-108250000D02*
X142250000Y-108250000D01*
X167750000Y-104250000D02*
X170500000Y-107000000D01*
X163500000Y-104250000D02*
X167750000Y-104250000D01*
X120334996Y-121894996D02*
X117440000Y-119000000D01*
X142250000Y-107130000D02*
X144480000Y-104900000D01*
X142250000Y-108250000D02*
X142250000Y-107130000D01*
X120334996Y-121894996D02*
X128000000Y-121894996D01*
%TO.N,Net-(U2-Pad6)*%
X178500000Y-123500000D02*
X178500000Y-123500000D01*
X175090000Y-122000000D02*
X178500000Y-122000000D01*
X172540000Y-119450000D02*
X175090000Y-122000000D01*
X171510000Y-123500000D02*
X178500000Y-123500000D01*
X167460000Y-119450000D02*
X171510000Y-123500000D01*
D18*
%TO.N,Net-(D3-Pad2)*%
X160750000Y-147000000D02*
X172000000Y-158250000D01*
X160750000Y-125500000D02*
X160750000Y-147000000D01*
%TD*%
M02*
