  0
SECTION
  2
HEADER
  9
$ANGBASE
  50
0.0
  9
$ANGDIR
  70
1
  9
$MEASUREMENT
  70
1
  0
ENDSEC
  0
SECTION
  2
TABLES
  0
TABLE
  2
LTYPE
  70
4
  0
LTYPE
  5
40F
  2
CONTINUOUS
  70
0
  3
Solid line
  72
65
  73
0
  40
0.0
  0
LTYPE
  5
410
  2
DASHDOT
 70
0
  3
Dash Dot ____ _ ____ _
 72
65
 73
4
 40
2.0
 49
1.25
 49
-0.25
 49
0.25
 49
-0.25
  0
LTYPE
  5
411
  2
DASHED
 70
0
  3
Dashed __ __ __ __ __
 72
65
 73
2
 40
0.75
 49
0.5
 49
-0.25
  0
LTYPE
  5
43B
  2
DOTTED
 70
0
  3
Dotted .  .  .  .
 72
65
 73
2
 40
0.2
 49
0.0
 49
-0.2
  0
ENDTAB
  0
TABLE
  2
STYLE
  70
4
  0
STYLE
  2
KICAD
  70
0
  40
0
  41
1
  42
1
  50
0
  71
0
  3
isocp.shx
  0
STYLE
  2
KICADB
  70
0
  40
0
  41
1
  42
1
  50
0
  71
0
  3
isocp.shx
  0
STYLE
  2
KICADI
  70
0
  40
0
  41
1
  42
1
  50
15
  71
0
  3
isocp.shx
  0
STYLE
  2
KICADBI
  70
0
  40
0
  41
1
  42
1
  50
15
  71
0
  3
isocp.shx
  0
ENDTAB
  0
TABLE
  2
LAYER
  70
1
  0
LAYER
  2
BLACK
  70
0
  62
7
  6
CONTINUOUS
  0
ENDTAB
  0
ENDSEC
  0
SECTION
  2
ENTITIES
0
ARC
8
BLACK
10
149.5
20
-153
40
2.65
50
180
51
360
0
ARC
8
BLACK
10
149.5
20
-147
40
2.65
50
-0
51
180
0
ARC
8
BLACK
10
139.5
20
-153
40
2.65
50
180
51
360
0
ARC
8
BLACK
10
139.5
20
-147
40
2.65
50
-0
51
180
0
ARC
8
BLACK
10
149.5
20
-82.6
40
2.65
50
180
51
360
0
ARC
8
BLACK
10
149.5
20
-76.6
40
2.65
50
-0
51
180
0
ARC
8
BLACK
10
139.5
20
-76.6
40
2.65
50
-0
51
180
0
ARC
8
BLACK
10
139.5
20
-82.6
40
2.65
50
180
51
360
0
LINE
8
BLACK
6
CONTINUOUS
10
152.15
20
-76.6
11
152.15
21
-82.6
0
LINE
8
BLACK
6
CONTINUOUS
10
146.85
20
-76.6
11
146.85
21
-82.6
0
LINE
8
BLACK
6
CONTINUOUS
10
136.85
20
-76.6
11
136.85
21
-82.6
0
LINE
8
BLACK
6
CONTINUOUS
10
142.15
20
-76.6
11
142.15
21
-82.6
0
LINE
8
BLACK
6
CONTINUOUS
10
152.15
20
-153
11
152.15
21
-147
0
LINE
8
BLACK
6
CONTINUOUS
10
146.85
20
-147
11
146.85
21
-153
0
LINE
8
BLACK
6
CONTINUOUS
10
142.15
20
-153
11
142.15
21
-147
0
LINE
8
BLACK
6
CONTINUOUS
10
136.85
20
-153
11
136.85
21
-147
0
CIRCLE
8
BLACK
10
180.5
20
-114.65
40
2.625
0
CIRCLE
8
BLACK
10
180.5
20
-142.15
40
2.625
0
CIRCLE
8
BLACK
10
108.5
20
-142.15
40
2.625
0
CIRCLE
8
BLACK
10
108.5
20
-114.65
40
2.625
0
LINE
8
BLACK
6
CONTINUOUS
10
186
20
-65.75
11
103
21
-65.75
0
LINE
8
BLACK
6
CONTINUOUS
10
186
20
-163.75
11
186
21
-65.75
0
LINE
8
BLACK
6
CONTINUOUS
10
103
20
-163.75
11
186
21
-163.75
0
LINE
8
BLACK
6
CONTINUOUS
10
103
20
-65.75
11
103
21
-163.75
0
LINE
8
BLACK
6
CONTINUOUS
10
123.8
20
-115.55
11
124.2
21
-115.95
0
LINE
8
BLACK
6
CONTINUOUS
10
124.2
20
-115.55
11
123.8
21
-115.95
0
LINE
8
BLACK
6
CONTINUOUS
10
124.55
20
-128.55
11
124.95
21
-128.95
0
LINE
8
BLACK
6
CONTINUOUS
10
124.95
20
-128.55
11
124.55
21
-128.95
0
LINE
8
BLACK
6
CONTINUOUS
10
126.3
20
-122.695
11
126.7
21
-123.095
0
LINE
8
BLACK
6
CONTINUOUS
10
126.7
20
-122.695
11
126.3
21
-123.095
0
LINE
8
BLACK
6
CONTINUOUS
10
127.8
20
-121.695
11
128.2
21
-122.095
0
LINE
8
BLACK
6
CONTINUOUS
10
128.2
20
-121.695
11
127.8
21
-122.095
0
LINE
8
BLACK
6
CONTINUOUS
10
129.3
20
-120.445
11
129.7
21
-120.845
0
LINE
8
BLACK
6
CONTINUOUS
10
129.7
20
-120.445
11
129.3
21
-120.845
0
LINE
8
BLACK
6
CONTINUOUS
10
138.8
20
-108.8
11
139.2
21
-109.2
0
LINE
8
BLACK
6
CONTINUOUS
10
139.2
20
-108.8
11
138.8
21
-109.2
0
LINE
8
BLACK
6
CONTINUOUS
10
142.05
20
-108.05
11
142.45
21
-108.45
0
LINE
8
BLACK
6
CONTINUOUS
10
142.45
20
-108.05
11
142.05
21
-108.45
0
LINE
8
BLACK
6
CONTINUOUS
10
145.3
20
-101.8
11
145.7
21
-102.2
0
LINE
8
BLACK
6
CONTINUOUS
10
145.7
20
-101.8
11
145.3
21
-102.2
0
LINE
8
BLACK
6
CONTINUOUS
10
150.3
20
-107.3
11
150.7
21
-107.7
0
LINE
8
BLACK
6
CONTINUOUS
10
150.7
20
-107.3
11
150.3
21
-107.7
0
LINE
8
BLACK
6
CONTINUOUS
10
162.3
20
-105.05
11
162.7
21
-105.45
0
LINE
8
BLACK
6
CONTINUOUS
10
162.7
20
-105.05
11
162.3
21
-105.45
0
LINE
8
BLACK
6
CONTINUOUS
10
163.3
20
-104.05
11
163.7
21
-104.45
0
LINE
8
BLACK
6
CONTINUOUS
10
163.7
20
-104.05
11
163.3
21
-104.45
0
LINE
8
BLACK
6
CONTINUOUS
10
163.8
20
-109.55
11
164.2
21
-109.95
0
LINE
8
BLACK
6
CONTINUOUS
10
164.2
20
-109.55
11
163.8
21
-109.95
0
LINE
8
BLACK
6
CONTINUOUS
10
164.05
20
-103.05
11
164.45
21
-103.45
0
LINE
8
BLACK
6
CONTINUOUS
10
164.45
20
-103.05
11
164.05
21
-103.45
0
LINE
8
BLACK
6
CONTINUOUS
10
165.05
20
-123.05
11
165.45
21
-123.45
0
LINE
8
BLACK
6
CONTINUOUS
10
165.45
20
-123.05
11
165.05
21
-123.45
0
LINE
8
BLACK
6
CONTINUOUS
10
178.3
20
-121.8
11
178.7
21
-122.2
0
LINE
8
BLACK
6
CONTINUOUS
10
178.7
20
-121.8
11
178.3
21
-122.2
0
LINE
8
BLACK
6
CONTINUOUS
10
178.3
20
-123.3
11
178.7
21
-123.7
0
LINE
8
BLACK
6
CONTINUOUS
10
178.7
20
-123.3
11
178.3
21
-123.7
0
CIRCLE
8
BLACK
10
117
20
-70.75
40
1
0
CIRCLE
8
BLACK
10
117
20
-158.75
40
1
0
CIRCLE
8
BLACK
10
126
20
-70.75
40
1
0
CIRCLE
8
BLACK
10
126
20
-158.75
40
1
0
CIRCLE
8
BLACK
10
140
20
-158.75
40
1
0
CIRCLE
8
BLACK
10
140.25
20
-70.75
40
1
0
CIRCLE
8
BLACK
10
149
20
-158.75
40
1
0
CIRCLE
8
BLACK
10
149.25
20
-70.75
40
1
0
CIRCLE
8
BLACK
10
163
20
-158.75
40
1
0
CIRCLE
8
BLACK
10
163.25
20
-70.75
40
1
0
CIRCLE
8
BLACK
10
172
20
-158.75
40
1
0
CIRCLE
8
BLACK
10
172.25
20
-70.75
40
1
0
LINE
8
BLACK
6
CONTINUOUS
10
106.5
20
-68.825
11
106.5
21
-71.775
0
LINE
8
BLACK
6
CONTINUOUS
10
105.025
20
-70.3
11
107.975
21
-70.3
0
LINE
8
BLACK
6
CONTINUOUS
10
106.5
20
-157.825
11
106.5
21
-160.775
0
LINE
8
BLACK
6
CONTINUOUS
10
105.025
20
-159.3
11
107.975
21
-159.3
0
LINE
8
BLACK
6
CONTINUOUS
10
182.5
20
-68.825
11
182.5
21
-71.775
0
LINE
8
BLACK
6
CONTINUOUS
10
181.025
20
-70.3
11
183.975
21
-70.3
0
LINE
8
BLACK
6
CONTINUOUS
10
182.5
20
-157.825
11
182.5
21
-160.775
0
LINE
8
BLACK
6
CONTINUOUS
10
181.025
20
-159.3
11
183.975
21
-159.3
0
LINE
8
BLACK
6
CONTINUOUS
10
105.839
20
-168.432
11
105.839
21
-165.432
0
LINE
8
BLACK
6
CONTINUOUS
10
105.839
20
-165.432
11
106.554
21
-165.432
0
LINE
8
BLACK
6
CONTINUOUS
10
106.554
20
-165.432
11
106.982
21
-165.575
0
LINE
8
BLACK
6
CONTINUOUS
10
106.982
20
-165.575
11
107.268
21
-165.861
0
LINE
8
BLACK
6
CONTINUOUS
10
107.268
20
-165.861
11
107.411
21
-166.146
0
LINE
8
BLACK
6
CONTINUOUS
10
107.411
20
-166.146
11
107.554
21
-166.718
0
LINE
8
BLACK
6
CONTINUOUS
10
107.554
20
-166.718
11
107.554
21
-167.146
0
LINE
8
BLACK
6
CONTINUOUS
10
107.554
20
-167.146
11
107.411
21
-167.718
0
LINE
8
BLACK
6
CONTINUOUS
10
107.411
20
-167.718
11
107.268
21
-168.004
0
LINE
8
BLACK
6
CONTINUOUS
10
107.268
20
-168.004
11
106.982
21
-168.289
0
LINE
8
BLACK
6
CONTINUOUS
10
106.982
20
-168.289
11
106.554
21
-168.432
0
LINE
8
BLACK
6
CONTINUOUS
10
106.554
20
-168.432
11
105.839
21
-168.432
0
LINE
8
BLACK
6
CONTINUOUS
10
108.839
20
-168.432
11
108.839
21
-166.432
0
LINE
8
BLACK
6
CONTINUOUS
10
108.839
20
-167.004
11
108.982
21
-166.718
0
LINE
8
BLACK
6
CONTINUOUS
10
108.982
20
-166.718
11
109.125
21
-166.575
0
LINE
8
BLACK
6
CONTINUOUS
10
109.125
20
-166.575
11
109.411
21
-166.432
0
LINE
8
BLACK
6
CONTINUOUS
10
109.411
20
-166.432
11
109.696
21
-166.432
0
LINE
8
BLACK
6
CONTINUOUS
10
110.696
20
-168.432
11
110.696
21
-166.432
0
LINE
8
BLACK
6
CONTINUOUS
10
110.696
20
-165.432
11
110.554
21
-165.575
0
LINE
8
BLACK
6
CONTINUOUS
10
110.554
20
-165.575
11
110.696
21
-165.718
0
LINE
8
BLACK
6
CONTINUOUS
10
110.696
20
-165.718
11
110.839
21
-165.575
0
LINE
8
BLACK
6
CONTINUOUS
10
110.839
20
-165.575
11
110.696
21
-165.432
0
LINE
8
BLACK
6
CONTINUOUS
10
110.696
20
-165.432
11
110.696
21
-165.718
0
LINE
8
BLACK
6
CONTINUOUS
10
112.554
20
-168.432
11
112.268
21
-168.289
0
LINE
8
BLACK
6
CONTINUOUS
10
112.268
20
-168.289
11
112.125
21
-168.004
0
LINE
8
BLACK
6
CONTINUOUS
10
112.125
20
-168.004
11
112.125
21
-165.432
0
LINE
8
BLACK
6
CONTINUOUS
10
114.125
20
-168.432
11
113.839
21
-168.289
0
LINE
8
BLACK
6
CONTINUOUS
10
113.839
20
-168.289
11
113.696
21
-168.004
0
LINE
8
BLACK
6
CONTINUOUS
10
113.696
20
-168.004
11
113.696
21
-165.432
0
LINE
8
BLACK
6
CONTINUOUS
10
117.554
20
-168.432
11
117.554
21
-165.432
0
LINE
8
BLACK
6
CONTINUOUS
10
117.554
20
-165.432
11
118.554
21
-167.575
0
LINE
8
BLACK
6
CONTINUOUS
10
118.554
20
-167.575
11
119.554
21
-165.432
0
LINE
8
BLACK
6
CONTINUOUS
10
119.554
20
-165.432
11
119.554
21
-168.432
0
LINE
8
BLACK
6
CONTINUOUS
10
122.268
20
-168.432
11
122.268
21
-166.861
0
LINE
8
BLACK
6
CONTINUOUS
10
122.268
20
-166.861
11
122.125
21
-166.575
0
LINE
8
BLACK
6
CONTINUOUS
10
122.125
20
-166.575
11
121.839
21
-166.432
0
LINE
8
BLACK
6
CONTINUOUS
10
121.839
20
-166.432
11
121.268
21
-166.432
0
LINE
8
BLACK
6
CONTINUOUS
10
121.268
20
-166.432
11
120.982
21
-166.575
0
LINE
8
BLACK
6
CONTINUOUS
10
122.268
20
-168.289
11
121.982
21
-168.432
0
LINE
8
BLACK
6
CONTINUOUS
10
121.982
20
-168.432
11
121.268
21
-168.432
0
LINE
8
BLACK
6
CONTINUOUS
10
121.268
20
-168.432
11
120.982
21
-168.289
0
LINE
8
BLACK
6
CONTINUOUS
10
120.982
20
-168.289
11
120.839
21
-168.004
0
LINE
8
BLACK
6
CONTINUOUS
10
120.839
20
-168.004
11
120.839
21
-167.718
0
LINE
8
BLACK
6
CONTINUOUS
10
120.839
20
-167.718
11
120.982
21
-167.432
0
LINE
8
BLACK
6
CONTINUOUS
10
120.982
20
-167.432
11
121.268
21
-167.289
0
LINE
8
BLACK
6
CONTINUOUS
10
121.268
20
-167.289
11
121.982
21
-167.289
0
LINE
8
BLACK
6
CONTINUOUS
10
121.982
20
-167.289
11
122.268
21
-167.146
0
LINE
8
BLACK
6
CONTINUOUS
10
123.696
20
-166.432
11
123.696
21
-169.432
0
LINE
8
BLACK
6
CONTINUOUS
10
123.696
20
-166.575
11
123.982
21
-166.432
0
LINE
8
BLACK
6
CONTINUOUS
10
123.982
20
-166.432
11
124.554
21
-166.432
0
LINE
8
BLACK
6
CONTINUOUS
10
124.554
20
-166.432
11
124.839
21
-166.575
0
LINE
8
BLACK
6
CONTINUOUS
10
124.839
20
-166.575
11
124.982
21
-166.718
0
LINE
8
BLACK
6
CONTINUOUS
10
124.982
20
-166.718
11
125.125
21
-167.004
0
LINE
8
BLACK
6
CONTINUOUS
10
125.125
20
-167.004
11
125.125
21
-167.861
0
LINE
8
BLACK
6
CONTINUOUS
10
125.125
20
-167.861
11
124.982
21
-168.146
0
LINE
8
BLACK
6
CONTINUOUS
10
124.982
20
-168.146
11
124.839
21
-168.289
0
LINE
8
BLACK
6
CONTINUOUS
10
124.839
20
-168.289
11
124.554
21
-168.432
0
LINE
8
BLACK
6
CONTINUOUS
10
124.554
20
-168.432
11
123.982
21
-168.432
0
LINE
8
BLACK
6
CONTINUOUS
10
123.982
20
-168.432
11
123.696
21
-168.289
0
LINE
8
BLACK
6
CONTINUOUS
10
126.411
20
-168.146
11
126.554
21
-168.289
0
LINE
8
BLACK
6
CONTINUOUS
10
126.554
20
-168.289
11
126.411
21
-168.432
0
LINE
8
BLACK
6
CONTINUOUS
10
126.411
20
-168.432
11
126.268
21
-168.289
0
LINE
8
BLACK
6
CONTINUOUS
10
126.268
20
-168.289
11
126.411
21
-168.146
0
LINE
8
BLACK
6
CONTINUOUS
10
126.411
20
-168.146
11
126.411
21
-168.432
0
LINE
8
BLACK
6
CONTINUOUS
10
126.411
20
-166.575
11
126.554
21
-166.718
0
LINE
8
BLACK
6
CONTINUOUS
10
126.554
20
-166.718
11
126.411
21
-166.861
0
LINE
8
BLACK
6
CONTINUOUS
10
126.411
20
-166.861
11
126.268
21
-166.718
0
LINE
8
BLACK
6
CONTINUOUS
10
126.268
20
-166.718
11
126.411
21
-166.575
0
LINE
8
BLACK
6
CONTINUOUS
10
126.411
20
-166.575
11
126.411
21
-166.861
0
LINE
8
BLACK
6
CONTINUOUS
10
102.575
20
-173.175
11
102.975
21
-173.575
0
LINE
8
BLACK
6
CONTINUOUS
10
102.975
20
-173.175
11
102.575
21
-173.575
0
LINE
8
BLACK
6
CONTINUOUS
10
106.411
20
-171.732
11
106.696
21
-171.732
0
LINE
8
BLACK
6
CONTINUOUS
10
106.696
20
-171.732
11
106.982
21
-171.875
0
LINE
8
BLACK
6
CONTINUOUS
10
106.982
20
-171.875
11
107.125
21
-172.018
0
LINE
8
BLACK
6
CONTINUOUS
10
107.125
20
-172.018
11
107.268
21
-172.304
0
LINE
8
BLACK
6
CONTINUOUS
10
107.268
20
-172.304
11
107.411
21
-172.875
0
LINE
8
BLACK
6
CONTINUOUS
10
107.411
20
-172.875
11
107.411
21
-173.589
0
LINE
8
BLACK
6
CONTINUOUS
10
107.411
20
-173.589
11
107.268
21
-174.161
0
LINE
8
BLACK
6
CONTINUOUS
10
107.268
20
-174.161
11
107.125
21
-174.446
0
LINE
8
BLACK
6
CONTINUOUS
10
107.125
20
-174.446
11
106.982
21
-174.589
0
LINE
8
BLACK
6
CONTINUOUS
10
106.982
20
-174.589
11
106.696
21
-174.732
0
LINE
8
BLACK
6
CONTINUOUS
10
106.696
20
-174.732
11
106.411
21
-174.732
0
LINE
8
BLACK
6
CONTINUOUS
10
106.411
20
-174.732
11
106.125
21
-174.589
0
LINE
8
BLACK
6
CONTINUOUS
10
106.125
20
-174.589
11
105.982
21
-174.446
0
LINE
8
BLACK
6
CONTINUOUS
10
105.982
20
-174.446
11
105.839
21
-174.161
0
LINE
8
BLACK
6
CONTINUOUS
10
105.839
20
-174.161
11
105.696
21
-173.589
0
LINE
8
BLACK
6
CONTINUOUS
10
105.696
20
-173.589
11
105.696
21
-172.875
0
LINE
8
BLACK
6
CONTINUOUS
10
105.696
20
-172.875
11
105.839
21
-172.304
0
LINE
8
BLACK
6
CONTINUOUS
10
105.839
20
-172.304
11
105.982
21
-172.018
0
LINE
8
BLACK
6
CONTINUOUS
10
105.982
20
-172.018
11
106.125
21
-171.875
0
LINE
8
BLACK
6
CONTINUOUS
10
106.125
20
-171.875
11
106.411
21
-171.732
0
LINE
8
BLACK
6
CONTINUOUS
10
108.696
20
-174.446
11
108.839
21
-174.589
0
LINE
8
BLACK
6
CONTINUOUS
10
108.839
20
-174.589
11
108.696
21
-174.732
0
LINE
8
BLACK
6
CONTINUOUS
10
108.696
20
-174.732
11
108.554
21
-174.589
0
LINE
8
BLACK
6
CONTINUOUS
10
108.554
20
-174.589
11
108.696
21
-174.446
0
LINE
8
BLACK
6
CONTINUOUS
10
108.696
20
-174.446
11
108.696
21
-174.732
0
LINE
8
BLACK
6
CONTINUOUS
10
111.411
20
-172.732
11
111.411
21
-174.732
0
LINE
8
BLACK
6
CONTINUOUS
10
110.696
20
-171.589
11
109.982
21
-173.732
0
LINE
8
BLACK
6
CONTINUOUS
10
109.982
20
-173.732
11
111.839
21
-173.732
0
LINE
8
BLACK
6
CONTINUOUS
10
113.554
20
-171.732
11
113.839
21
-171.732
0
LINE
8
BLACK
6
CONTINUOUS
10
113.839
20
-171.732
11
114.125
21
-171.875
0
LINE
8
BLACK
6
CONTINUOUS
10
114.125
20
-171.875
11
114.268
21
-172.018
0
LINE
8
BLACK
6
CONTINUOUS
10
114.268
20
-172.018
11
114.411
21
-172.304
0
LINE
8
BLACK
6
CONTINUOUS
10
114.411
20
-172.304
11
114.554
21
-172.875
0
LINE
8
BLACK
6
CONTINUOUS
10
114.554
20
-172.875
11
114.554
21
-173.589
0
LINE
8
BLACK
6
CONTINUOUS
10
114.554
20
-173.589
11
114.411
21
-174.161
0
LINE
8
BLACK
6
CONTINUOUS
10
114.411
20
-174.161
11
114.268
21
-174.446
0
LINE
8
BLACK
6
CONTINUOUS
10
114.268
20
-174.446
11
114.125
21
-174.589
0
LINE
8
BLACK
6
CONTINUOUS
10
114.125
20
-174.589
11
113.839
21
-174.732
0
LINE
8
BLACK
6
CONTINUOUS
10
113.839
20
-174.732
11
113.554
21
-174.732
0
LINE
8
BLACK
6
CONTINUOUS
10
113.554
20
-174.732
11
113.268
21
-174.589
0
LINE
8
BLACK
6
CONTINUOUS
10
113.268
20
-174.589
11
113.125
21
-174.446
0
LINE
8
BLACK
6
CONTINUOUS
10
113.125
20
-174.446
11
112.982
21
-174.161
0
LINE
8
BLACK
6
CONTINUOUS
10
112.982
20
-174.161
11
112.839
21
-173.589
0
LINE
8
BLACK
6
CONTINUOUS
10
112.839
20
-173.589
11
112.839
21
-172.875
0
LINE
8
BLACK
6
CONTINUOUS
10
112.839
20
-172.875
11
112.982
21
-172.304
0
LINE
8
BLACK
6
CONTINUOUS
10
112.982
20
-172.304
11
113.125
21
-172.018
0
LINE
8
BLACK
6
CONTINUOUS
10
113.125
20
-172.018
11
113.268
21
-171.875
0
LINE
8
BLACK
6
CONTINUOUS
10
113.268
20
-171.875
11
113.554
21
-171.732
0
LINE
8
BLACK
6
CONTINUOUS
10
116.411
20
-171.732
11
116.696
21
-171.732
0
LINE
8
BLACK
6
CONTINUOUS
10
116.696
20
-171.732
11
116.982
21
-171.875
0
LINE
8
BLACK
6
CONTINUOUS
10
116.982
20
-171.875
11
117.125
21
-172.018
0
LINE
8
BLACK
6
CONTINUOUS
10
117.125
20
-172.018
11
117.268
21
-172.304
0
LINE
8
BLACK
6
CONTINUOUS
10
117.268
20
-172.304
11
117.411
21
-172.875
0
LINE
8
BLACK
6
CONTINUOUS
10
117.411
20
-172.875
11
117.411
21
-173.589
0
LINE
8
BLACK
6
CONTINUOUS
10
117.411
20
-173.589
11
117.268
21
-174.161
0
LINE
8
BLACK
6
CONTINUOUS
10
117.268
20
-174.161
11
117.125
21
-174.446
0
LINE
8
BLACK
6
CONTINUOUS
10
117.125
20
-174.446
11
116.982
21
-174.589
0
LINE
8
BLACK
6
CONTINUOUS
10
116.982
20
-174.589
11
116.696
21
-174.732
0
LINE
8
BLACK
6
CONTINUOUS
10
116.696
20
-174.732
11
116.411
21
-174.732
0
LINE
8
BLACK
6
CONTINUOUS
10
116.411
20
-174.732
11
116.125
21
-174.589
0
LINE
8
BLACK
6
CONTINUOUS
10
116.125
20
-174.589
11
115.982
21
-174.446
0
LINE
8
BLACK
6
CONTINUOUS
10
115.982
20
-174.446
11
115.839
21
-174.161
0
LINE
8
BLACK
6
CONTINUOUS
10
115.839
20
-174.161
11
115.696
21
-173.589
0
LINE
8
BLACK
6
CONTINUOUS
10
115.696
20
-173.589
11
115.696
21
-172.875
0
LINE
8
BLACK
6
CONTINUOUS
10
115.696
20
-172.875
11
115.839
21
-172.304
0
LINE
8
BLACK
6
CONTINUOUS
10
115.839
20
-172.304
11
115.982
21
-172.018
0
LINE
8
BLACK
6
CONTINUOUS
10
115.982
20
-172.018
11
116.125
21
-171.875
0
LINE
8
BLACK
6
CONTINUOUS
10
116.125
20
-171.875
11
116.411
21
-171.732
0
LINE
8
BLACK
6
CONTINUOUS
10
118.696
20
-174.732
11
118.696
21
-172.732
0
LINE
8
BLACK
6
CONTINUOUS
10
118.696
20
-173.018
11
118.839
21
-172.875
0
LINE
8
BLACK
6
CONTINUOUS
10
118.839
20
-172.875
11
119.125
21
-172.732
0
LINE
8
BLACK
6
CONTINUOUS
10
119.125
20
-172.732
11
119.554
21
-172.732
0
LINE
8
BLACK
6
CONTINUOUS
10
119.554
20
-172.732
11
119.839
21
-172.875
0
LINE
8
BLACK
6
CONTINUOUS
10
119.839
20
-172.875
11
119.982
21
-173.161
0
LINE
8
BLACK
6
CONTINUOUS
10
119.982
20
-173.161
11
119.982
21
-174.732
0
LINE
8
BLACK
6
CONTINUOUS
10
119.982
20
-173.161
11
120.125
21
-172.875
0
LINE
8
BLACK
6
CONTINUOUS
10
120.125
20
-172.875
11
120.411
21
-172.732
0
LINE
8
BLACK
6
CONTINUOUS
10
120.411
20
-172.732
11
120.839
21
-172.732
0
LINE
8
BLACK
6
CONTINUOUS
10
120.839
20
-172.732
11
121.125
21
-172.875
0
LINE
8
BLACK
6
CONTINUOUS
10
121.125
20
-172.875
11
121.268
21
-173.161
0
LINE
8
BLACK
6
CONTINUOUS
10
121.268
20
-173.161
11
121.268
21
-174.732
0
LINE
8
BLACK
6
CONTINUOUS
10
122.696
20
-174.732
11
122.696
21
-172.732
0
LINE
8
BLACK
6
CONTINUOUS
10
122.696
20
-173.018
11
122.839
21
-172.875
0
LINE
8
BLACK
6
CONTINUOUS
10
122.839
20
-172.875
11
123.125
21
-172.732
0
LINE
8
BLACK
6
CONTINUOUS
10
123.125
20
-172.732
11
123.554
21
-172.732
0
LINE
8
BLACK
6
CONTINUOUS
10
123.554
20
-172.732
11
123.839
21
-172.875
0
LINE
8
BLACK
6
CONTINUOUS
10
123.839
20
-172.875
11
123.982
21
-173.161
0
LINE
8
BLACK
6
CONTINUOUS
10
123.982
20
-173.161
11
123.982
21
-174.732
0
LINE
8
BLACK
6
CONTINUOUS
10
123.982
20
-173.161
11
124.125
21
-172.875
0
LINE
8
BLACK
6
CONTINUOUS
10
124.125
20
-172.875
11
124.411
21
-172.732
0
LINE
8
BLACK
6
CONTINUOUS
10
124.411
20
-172.732
11
124.839
21
-172.732
0
LINE
8
BLACK
6
CONTINUOUS
10
124.839
20
-172.732
11
125.125
21
-172.875
0
LINE
8
BLACK
6
CONTINUOUS
10
125.125
20
-172.875
11
125.268
21
-173.161
0
LINE
8
BLACK
6
CONTINUOUS
10
125.268
20
-173.161
11
125.268
21
-174.732
0
LINE
8
BLACK
6
CONTINUOUS
10
131.125
20
-171.589
11
128.554
21
-175.446
0
LINE
8
BLACK
6
CONTINUOUS
10
134.982
20
-171.732
11
135.268
21
-171.732
0
LINE
8
BLACK
6
CONTINUOUS
10
135.268
20
-171.732
11
135.554
21
-171.875
0
LINE
8
BLACK
6
CONTINUOUS
10
135.554
20
-171.875
11
135.696
21
-172.018
0
LINE
8
BLACK
6
CONTINUOUS
10
135.696
20
-172.018
11
135.839
21
-172.304
0
LINE
8
BLACK
6
CONTINUOUS
10
135.839
20
-172.304
11
135.982
21
-172.875
0
LINE
8
BLACK
6
CONTINUOUS
10
135.982
20
-172.875
11
135.982
21
-173.589
0
LINE
8
BLACK
6
CONTINUOUS
10
135.982
20
-173.589
11
135.839
21
-174.161
0
LINE
8
BLACK
6
CONTINUOUS
10
135.839
20
-174.161
11
135.696
21
-174.446
0
LINE
8
BLACK
6
CONTINUOUS
10
135.696
20
-174.446
11
135.554
21
-174.589
0
LINE
8
BLACK
6
CONTINUOUS
10
135.554
20
-174.589
11
135.268
21
-174.732
0
LINE
8
BLACK
6
CONTINUOUS
10
135.268
20
-174.732
11
134.982
21
-174.732
0
LINE
8
BLACK
6
CONTINUOUS
10
134.982
20
-174.732
11
134.696
21
-174.589
0
LINE
8
BLACK
6
CONTINUOUS
10
134.696
20
-174.589
11
134.554
21
-174.446
0
LINE
8
BLACK
6
CONTINUOUS
10
134.554
20
-174.446
11
134.411
21
-174.161
0
LINE
8
BLACK
6
CONTINUOUS
10
134.411
20
-174.161
11
134.268
21
-173.589
0
LINE
8
BLACK
6
CONTINUOUS
10
134.268
20
-173.589
11
134.268
21
-172.875
0
LINE
8
BLACK
6
CONTINUOUS
10
134.268
20
-172.875
11
134.411
21
-172.304
0
LINE
8
BLACK
6
CONTINUOUS
10
134.411
20
-172.304
11
134.554
21
-172.018
0
LINE
8
BLACK
6
CONTINUOUS
10
134.554
20
-172.018
11
134.696
21
-171.875
0
LINE
8
BLACK
6
CONTINUOUS
10
134.696
20
-171.875
11
134.982
21
-171.732
0
LINE
8
BLACK
6
CONTINUOUS
10
137.268
20
-174.446
11
137.411
21
-174.589
0
LINE
8
BLACK
6
CONTINUOUS
10
137.411
20
-174.589
11
137.268
21
-174.732
0
LINE
8
BLACK
6
CONTINUOUS
10
137.268
20
-174.732
11
137.125
21
-174.589
0
LINE
8
BLACK
6
CONTINUOUS
10
137.125
20
-174.589
11
137.268
21
-174.446
0
LINE
8
BLACK
6
CONTINUOUS
10
137.268
20
-174.446
11
137.268
21
-174.732
0
LINE
8
BLACK
6
CONTINUOUS
10
139.268
20
-171.732
11
139.554
21
-171.732
0
LINE
8
BLACK
6
CONTINUOUS
10
139.554
20
-171.732
11
139.839
21
-171.875
0
LINE
8
BLACK
6
CONTINUOUS
10
139.839
20
-171.875
11
139.982
21
-172.018
0
LINE
8
BLACK
6
CONTINUOUS
10
139.982
20
-172.018
11
140.125
21
-172.304
0
LINE
8
BLACK
6
CONTINUOUS
10
140.125
20
-172.304
11
140.268
21
-172.875
0
LINE
8
BLACK
6
CONTINUOUS
10
140.268
20
-172.875
11
140.268
21
-173.589
0
LINE
8
BLACK
6
CONTINUOUS
10
140.268
20
-173.589
11
140.125
21
-174.161
0
LINE
8
BLACK
6
CONTINUOUS
10
140.125
20
-174.161
11
139.982
21
-174.446
0
LINE
8
BLACK
6
CONTINUOUS
10
139.982
20
-174.446
11
139.839
21
-174.589
0
LINE
8
BLACK
6
CONTINUOUS
10
139.839
20
-174.589
11
139.554
21
-174.732
0
LINE
8
BLACK
6
CONTINUOUS
10
139.554
20
-174.732
11
139.268
21
-174.732
0
LINE
8
BLACK
6
CONTINUOUS
10
139.268
20
-174.732
11
138.982
21
-174.589
0
LINE
8
BLACK
6
CONTINUOUS
10
138.982
20
-174.589
11
138.839
21
-174.446
0
LINE
8
BLACK
6
CONTINUOUS
10
138.839
20
-174.446
11
138.696
21
-174.161
0
LINE
8
BLACK
6
CONTINUOUS
10
138.696
20
-174.161
11
138.554
21
-173.589
0
LINE
8
BLACK
6
CONTINUOUS
10
138.554
20
-173.589
11
138.554
21
-172.875
0
LINE
8
BLACK
6
CONTINUOUS
10
138.554
20
-172.875
11
138.696
21
-172.304
0
LINE
8
BLACK
6
CONTINUOUS
10
138.696
20
-172.304
11
138.839
21
-172.018
0
LINE
8
BLACK
6
CONTINUOUS
10
138.839
20
-172.018
11
138.982
21
-171.875
0
LINE
8
BLACK
6
CONTINUOUS
10
138.982
20
-171.875
11
139.268
21
-171.732
0
LINE
8
BLACK
6
CONTINUOUS
10
143.125
20
-174.732
11
141.411
21
-174.732
0
LINE
8
BLACK
6
CONTINUOUS
10
142.268
20
-174.732
11
142.268
21
-171.732
0
LINE
8
BLACK
6
CONTINUOUS
10
142.268
20
-171.732
11
141.982
21
-172.161
0
LINE
8
BLACK
6
CONTINUOUS
10
141.982
20
-172.161
11
141.696
21
-172.446
0
LINE
8
BLACK
6
CONTINUOUS
10
141.696
20
-172.446
11
141.411
21
-172.589
0
LINE
8
BLACK
6
CONTINUOUS
10
145.839
20
-171.732
11
144.411
21
-171.732
0
LINE
8
BLACK
6
CONTINUOUS
10
144.411
20
-171.732
11
144.268
21
-173.161
0
LINE
8
BLACK
6
CONTINUOUS
10
144.268
20
-173.161
11
144.411
21
-173.018
0
LINE
8
BLACK
6
CONTINUOUS
10
144.411
20
-173.018
11
144.696
21
-172.875
0
LINE
8
BLACK
6
CONTINUOUS
10
144.696
20
-172.875
11
145.411
21
-172.875
0
LINE
8
BLACK
6
CONTINUOUS
10
145.411
20
-172.875
11
145.696
21
-173.018
0
LINE
8
BLACK
6
CONTINUOUS
10
145.696
20
-173.018
11
145.839
21
-173.161
0
LINE
8
BLACK
6
CONTINUOUS
10
145.839
20
-173.161
11
145.982
21
-173.446
0
LINE
8
BLACK
6
CONTINUOUS
10
145.982
20
-173.446
11
145.982
21
-174.161
0
LINE
8
BLACK
6
CONTINUOUS
10
145.982
20
-174.161
11
145.839
21
-174.446
0
LINE
8
BLACK
6
CONTINUOUS
10
145.839
20
-174.446
11
145.696
21
-174.589
0
LINE
8
BLACK
6
CONTINUOUS
10
145.696
20
-174.589
11
145.411
21
-174.732
0
LINE
8
BLACK
6
CONTINUOUS
10
145.411
20
-174.732
11
144.696
21
-174.732
0
LINE
8
BLACK
6
CONTINUOUS
10
144.696
20
-174.732
11
144.411
21
-174.589
0
LINE
8
BLACK
6
CONTINUOUS
10
144.411
20
-174.589
11
144.268
21
-174.446
0
LINE
8
BLACK
6
CONTINUOUS
10
146.982
20
-171.732
11
148.982
21
-171.732
0
LINE
8
BLACK
6
CONTINUOUS
10
148.982
20
-171.732
11
147.696
21
-174.732
0
LINE
8
BLACK
6
CONTINUOUS
10
149.982
20
-171.732
11
149.982
21
-172.304
0
LINE
8
BLACK
6
CONTINUOUS
10
151.125
20
-171.732
11
151.125
21
-172.304
0
LINE
8
BLACK
6
CONTINUOUS
10
155.554
20
-175.875
11
155.411
21
-175.732
0
LINE
8
BLACK
6
CONTINUOUS
10
155.411
20
-175.732
11
155.125
21
-175.304
0
LINE
8
BLACK
6
CONTINUOUS
10
155.125
20
-175.304
11
154.982
21
-175.018
0
LINE
8
BLACK
6
CONTINUOUS
10
154.982
20
-175.018
11
154.839
21
-174.589
0
LINE
8
BLACK
6
CONTINUOUS
10
154.839
20
-174.589
11
154.696
21
-173.875
0
LINE
8
BLACK
6
CONTINUOUS
10
154.696
20
-173.875
11
154.696
21
-173.304
0
LINE
8
BLACK
6
CONTINUOUS
10
154.696
20
-173.304
11
154.839
21
-172.589
0
LINE
8
BLACK
6
CONTINUOUS
10
154.839
20
-172.589
11
154.982
21
-172.161
0
LINE
8
BLACK
6
CONTINUOUS
10
154.982
20
-172.161
11
155.125
21
-171.875
0
LINE
8
BLACK
6
CONTINUOUS
10
155.125
20
-171.875
11
155.411
21
-171.446
0
LINE
8
BLACK
6
CONTINUOUS
10
155.411
20
-171.446
11
155.554
21
-171.304
0
LINE
8
BLACK
6
CONTINUOUS
10
158.268
20
-174.732
11
156.554
21
-174.732
0
LINE
8
BLACK
6
CONTINUOUS
10
157.411
20
-174.732
11
157.411
21
-171.732
0
LINE
8
BLACK
6
CONTINUOUS
10
157.411
20
-171.732
11
157.125
21
-172.161
0
LINE
8
BLACK
6
CONTINUOUS
10
157.125
20
-172.161
11
156.839
21
-172.446
0
LINE
8
BLACK
6
CONTINUOUS
10
156.839
20
-172.446
11
156.554
21
-172.589
0
LINE
8
BLACK
6
CONTINUOUS
10
160.839
20
-171.732
11
160.268
21
-171.732
0
LINE
8
BLACK
6
CONTINUOUS
10
160.268
20
-171.732
11
159.982
21
-171.875
0
LINE
8
BLACK
6
CONTINUOUS
10
159.982
20
-171.875
11
159.839
21
-172.018
0
LINE
8
BLACK
6
CONTINUOUS
10
159.839
20
-172.018
11
159.554
21
-172.446
0
LINE
8
BLACK
6
CONTINUOUS
10
159.554
20
-172.446
11
159.411
21
-173.018
0
LINE
8
BLACK
6
CONTINUOUS
10
159.411
20
-173.018
11
159.411
21
-174.161
0
LINE
8
BLACK
6
CONTINUOUS
10
159.411
20
-174.161
11
159.554
21
-174.446
0
LINE
8
BLACK
6
CONTINUOUS
10
159.554
20
-174.446
11
159.696
21
-174.589
0
LINE
8
BLACK
6
CONTINUOUS
10
159.696
20
-174.589
11
159.982
21
-174.732
0
LINE
8
BLACK
6
CONTINUOUS
10
159.982
20
-174.732
11
160.554
21
-174.732
0
LINE
8
BLACK
6
CONTINUOUS
10
160.554
20
-174.732
11
160.839
21
-174.589
0
LINE
8
BLACK
6
CONTINUOUS
10
160.839
20
-174.589
11
160.982
21
-174.446
0
LINE
8
BLACK
6
CONTINUOUS
10
160.982
20
-174.446
11
161.125
21
-174.161
0
LINE
8
BLACK
6
CONTINUOUS
10
161.125
20
-174.161
11
161.125
21
-173.446
0
LINE
8
BLACK
6
CONTINUOUS
10
161.125
20
-173.446
11
160.982
21
-173.161
0
LINE
8
BLACK
6
CONTINUOUS
10
160.982
20
-173.161
11
160.839
21
-173.018
0
LINE
8
BLACK
6
CONTINUOUS
10
160.839
20
-173.018
11
160.554
21
-172.875
0
LINE
8
BLACK
6
CONTINUOUS
10
160.554
20
-172.875
11
159.982
21
-172.875
0
LINE
8
BLACK
6
CONTINUOUS
10
159.982
20
-172.875
11
159.696
21
-173.018
0
LINE
8
BLACK
6
CONTINUOUS
10
159.696
20
-173.018
11
159.554
21
-173.161
0
LINE
8
BLACK
6
CONTINUOUS
10
159.554
20
-173.161
11
159.411
21
-173.446
0
LINE
8
BLACK
6
CONTINUOUS
10
164.696
20
-174.732
11
164.696
21
-171.732
0
LINE
8
BLACK
6
CONTINUOUS
10
165.982
20
-174.732
11
165.982
21
-173.161
0
LINE
8
BLACK
6
CONTINUOUS
10
165.982
20
-173.161
11
165.839
21
-172.875
0
LINE
8
BLACK
6
CONTINUOUS
10
165.839
20
-172.875
11
165.554
21
-172.732
0
LINE
8
BLACK
6
CONTINUOUS
10
165.554
20
-172.732
11
165.125
21
-172.732
0
LINE
8
BLACK
6
CONTINUOUS
10
165.125
20
-172.732
11
164.839
21
-172.875
0
LINE
8
BLACK
6
CONTINUOUS
10
164.839
20
-172.875
11
164.696
21
-173.018
0
LINE
8
BLACK
6
CONTINUOUS
10
167.839
20
-174.732
11
167.554
21
-174.589
0
LINE
8
BLACK
6
CONTINUOUS
10
167.554
20
-174.589
11
167.411
21
-174.446
0
LINE
8
BLACK
6
CONTINUOUS
10
167.411
20
-174.446
11
167.268
21
-174.161
0
LINE
8
BLACK
6
CONTINUOUS
10
167.268
20
-174.161
11
167.268
21
-173.304
0
LINE
8
BLACK
6
CONTINUOUS
10
167.268
20
-173.304
11
167.411
21
-173.018
0
LINE
8
BLACK
6
CONTINUOUS
10
167.411
20
-173.018
11
167.554
21
-172.875
0
LINE
8
BLACK
6
CONTINUOUS
10
167.554
20
-172.875
11
167.839
21
-172.732
0
LINE
8
BLACK
6
CONTINUOUS
10
167.839
20
-172.732
11
168.268
21
-172.732
0
LINE
8
BLACK
6
CONTINUOUS
10
168.268
20
-172.732
11
168.554
21
-172.875
0
LINE
8
BLACK
6
CONTINUOUS
10
168.554
20
-172.875
11
168.696
21
-173.018
0
LINE
8
BLACK
6
CONTINUOUS
10
168.696
20
-173.018
11
168.839
21
-173.304
0
LINE
8
BLACK
6
CONTINUOUS
10
168.839
20
-173.304
11
168.839
21
-174.161
0
LINE
8
BLACK
6
CONTINUOUS
10
168.839
20
-174.161
11
168.696
21
-174.446
0
LINE
8
BLACK
6
CONTINUOUS
10
168.696
20
-174.446
11
168.554
21
-174.589
0
LINE
8
BLACK
6
CONTINUOUS
10
168.554
20
-174.589
11
168.268
21
-174.732
0
LINE
8
BLACK
6
CONTINUOUS
10
168.268
20
-174.732
11
167.839
21
-174.732
0
LINE
8
BLACK
6
CONTINUOUS
10
170.554
20
-174.732
11
170.268
21
-174.589
0
LINE
8
BLACK
6
CONTINUOUS
10
170.268
20
-174.589
11
170.125
21
-174.304
0
LINE
8
BLACK
6
CONTINUOUS
10
170.125
20
-174.304
11
170.125
21
-171.732
0
LINE
8
BLACK
6
CONTINUOUS
10
172.839
20
-174.589
11
172.554
21
-174.732
0
LINE
8
BLACK
6
CONTINUOUS
10
172.554
20
-174.732
11
171.982
21
-174.732
0
LINE
8
BLACK
6
CONTINUOUS
10
171.982
20
-174.732
11
171.696
21
-174.589
0
LINE
8
BLACK
6
CONTINUOUS
10
171.696
20
-174.589
11
171.554
21
-174.304
0
LINE
8
BLACK
6
CONTINUOUS
10
171.554
20
-174.304
11
171.554
21
-173.161
0
LINE
8
BLACK
6
CONTINUOUS
10
171.554
20
-173.161
11
171.696
21
-172.875
0
LINE
8
BLACK
6
CONTINUOUS
10
171.696
20
-172.875
11
171.982
21
-172.732
0
LINE
8
BLACK
6
CONTINUOUS
10
171.982
20
-172.732
11
172.554
21
-172.732
0
LINE
8
BLACK
6
CONTINUOUS
10
172.554
20
-172.732
11
172.839
21
-172.875
0
LINE
8
BLACK
6
CONTINUOUS
10
172.839
20
-172.875
11
172.982
21
-173.161
0
LINE
8
BLACK
6
CONTINUOUS
10
172.982
20
-173.161
11
172.982
21
-173.446
0
LINE
8
BLACK
6
CONTINUOUS
10
172.982
20
-173.446
11
171.554
21
-173.732
0
LINE
8
BLACK
6
CONTINUOUS
10
174.125
20
-174.589
11
174.411
21
-174.732
0
LINE
8
BLACK
6
CONTINUOUS
10
174.411
20
-174.732
11
174.982
21
-174.732
0
LINE
8
BLACK
6
CONTINUOUS
10
174.982
20
-174.732
11
175.268
21
-174.589
0
LINE
8
BLACK
6
CONTINUOUS
10
175.268
20
-174.589
11
175.411
21
-174.304
0
LINE
8
BLACK
6
CONTINUOUS
10
175.411
20
-174.304
11
175.411
21
-174.161
0
LINE
8
BLACK
6
CONTINUOUS
10
175.411
20
-174.161
11
175.268
21
-173.875
0
LINE
8
BLACK
6
CONTINUOUS
10
175.268
20
-173.875
11
174.982
21
-173.732
0
LINE
8
BLACK
6
CONTINUOUS
10
174.982
20
-173.732
11
174.554
21
-173.732
0
LINE
8
BLACK
6
CONTINUOUS
10
174.554
20
-173.732
11
174.268
21
-173.589
0
LINE
8
BLACK
6
CONTINUOUS
10
174.268
20
-173.589
11
174.125
21
-173.304
0
LINE
8
BLACK
6
CONTINUOUS
10
174.125
20
-173.304
11
174.125
21
-173.161
0
LINE
8
BLACK
6
CONTINUOUS
10
174.125
20
-173.161
11
174.268
21
-172.875
0
LINE
8
BLACK
6
CONTINUOUS
10
174.268
20
-172.875
11
174.554
21
-172.732
0
LINE
8
BLACK
6
CONTINUOUS
10
174.554
20
-172.732
11
174.982
21
-172.732
0
LINE
8
BLACK
6
CONTINUOUS
10
174.982
20
-172.732
11
175.268
21
-172.875
0
LINE
8
BLACK
6
CONTINUOUS
10
176.411
20
-175.875
11
176.554
21
-175.732
0
LINE
8
BLACK
6
CONTINUOUS
10
176.554
20
-175.732
11
176.839
21
-175.304
0
LINE
8
BLACK
6
CONTINUOUS
10
176.839
20
-175.304
11
176.982
21
-175.018
0
LINE
8
BLACK
6
CONTINUOUS
10
176.982
20
-175.018
11
177.125
21
-174.589
0
LINE
8
BLACK
6
CONTINUOUS
10
177.125
20
-174.589
11
177.268
21
-173.875
0
LINE
8
BLACK
6
CONTINUOUS
10
177.268
20
-173.875
11
177.268
21
-173.304
0
LINE
8
BLACK
6
CONTINUOUS
10
177.268
20
-173.304
11
177.125
21
-172.589
0
LINE
8
BLACK
6
CONTINUOUS
10
177.125
20
-172.589
11
176.982
21
-172.161
0
LINE
8
BLACK
6
CONTINUOUS
10
176.982
20
-172.161
11
176.839
21
-171.875
0
LINE
8
BLACK
6
CONTINUOUS
10
176.839
20
-171.875
11
176.554
21
-171.446
0
LINE
8
BLACK
6
CONTINUOUS
10
176.554
20
-171.446
11
176.411
21
-171.304
0
CIRCLE
8
BLACK
10
101.975
20
-177.335
40
1
0
LINE
8
BLACK
6
CONTINUOUS
10
105.696
20
-175.978
11
105.839
21
-175.835
0
LINE
8
BLACK
6
CONTINUOUS
10
105.839
20
-175.835
11
106.125
21
-175.692
0
LINE
8
BLACK
6
CONTINUOUS
10
106.125
20
-175.692
11
106.839
21
-175.692
0
LINE
8
BLACK
6
CONTINUOUS
10
106.839
20
-175.692
11
107.125
21
-175.835
0
LINE
8
BLACK
6
CONTINUOUS
10
107.125
20
-175.835
11
107.268
21
-175.978
0
LINE
8
BLACK
6
CONTINUOUS
10
107.268
20
-175.978
11
107.411
21
-176.264
0
LINE
8
BLACK
6
CONTINUOUS
10
107.411
20
-176.264
11
107.411
21
-176.549
0
LINE
8
BLACK
6
CONTINUOUS
10
107.411
20
-176.549
11
107.268
21
-176.978
0
LINE
8
BLACK
6
CONTINUOUS
10
107.268
20
-176.978
11
105.554
21
-178.692
0
LINE
8
BLACK
6
CONTINUOUS
10
105.554
20
-178.692
11
107.411
21
-178.692
0
LINE
8
BLACK
6
CONTINUOUS
10
108.696
20
-178.406
11
108.839
21
-178.549
0
LINE
8
BLACK
6
CONTINUOUS
10
108.839
20
-178.549
11
108.696
21
-178.692
0
LINE
8
BLACK
6
CONTINUOUS
10
108.696
20
-178.692
11
108.554
21
-178.549
0
LINE
8
BLACK
6
CONTINUOUS
10
108.554
20
-178.549
11
108.696
21
-178.406
0
LINE
8
BLACK
6
CONTINUOUS
10
108.696
20
-178.406
11
108.696
21
-178.692
0
LINE
8
BLACK
6
CONTINUOUS
10
110.696
20
-175.692
11
110.982
21
-175.692
0
LINE
8
BLACK
6
CONTINUOUS
10
110.982
20
-175.692
11
111.268
21
-175.835
0
LINE
8
BLACK
6
CONTINUOUS
10
111.268
20
-175.835
11
111.411
21
-175.978
0
LINE
8
BLACK
6
CONTINUOUS
10
111.411
20
-175.978
11
111.554
21
-176.264
0
LINE
8
BLACK
6
CONTINUOUS
10
111.554
20
-176.264
11
111.696
21
-176.835
0
LINE
8
BLACK
6
CONTINUOUS
10
111.696
20
-176.835
11
111.696
21
-177.549
0
LINE
8
BLACK
6
CONTINUOUS
10
111.696
20
-177.549
11
111.554
21
-178.121
0
LINE
8
BLACK
6
CONTINUOUS
10
111.554
20
-178.121
11
111.411
21
-178.406
0
LINE
8
BLACK
6
CONTINUOUS
10
111.411
20
-178.406
11
111.268
21
-178.549
0
LINE
8
BLACK
6
CONTINUOUS
10
111.268
20
-178.549
11
110.982
21
-178.692
0
LINE
8
BLACK
6
CONTINUOUS
10
110.982
20
-178.692
11
110.696
21
-178.692
0
LINE
8
BLACK
6
CONTINUOUS
10
110.696
20
-178.692
11
110.411
21
-178.549
0
LINE
8
BLACK
6
CONTINUOUS
10
110.411
20
-178.549
11
110.268
21
-178.406
0
LINE
8
BLACK
6
CONTINUOUS
10
110.268
20
-178.406
11
110.125
21
-178.121
0
LINE
8
BLACK
6
CONTINUOUS
10
110.125
20
-178.121
11
109.982
21
-177.549
0
LINE
8
BLACK
6
CONTINUOUS
10
109.982
20
-177.549
11
109.982
21
-176.835
0
LINE
8
BLACK
6
CONTINUOUS
10
109.982
20
-176.835
11
110.125
21
-176.264
0
LINE
8
BLACK
6
CONTINUOUS
10
110.125
20
-176.264
11
110.268
21
-175.978
0
LINE
8
BLACK
6
CONTINUOUS
10
110.268
20
-175.978
11
110.411
21
-175.835
0
LINE
8
BLACK
6
CONTINUOUS
10
110.411
20
-175.835
11
110.696
21
-175.692
0
LINE
8
BLACK
6
CONTINUOUS
10
113.554
20
-175.692
11
113.839
21
-175.692
0
LINE
8
BLACK
6
CONTINUOUS
10
113.839
20
-175.692
11
114.125
21
-175.835
0
LINE
8
BLACK
6
CONTINUOUS
10
114.125
20
-175.835
11
114.268
21
-175.978
0
LINE
8
BLACK
6
CONTINUOUS
10
114.268
20
-175.978
11
114.411
21
-176.264
0
LINE
8
BLACK
6
CONTINUOUS
10
114.411
20
-176.264
11
114.554
21
-176.835
0
LINE
8
BLACK
6
CONTINUOUS
10
114.554
20
-176.835
11
114.554
21
-177.549
0
LINE
8
BLACK
6
CONTINUOUS
10
114.554
20
-177.549
11
114.411
21
-178.121
0
LINE
8
BLACK
6
CONTINUOUS
10
114.411
20
-178.121
11
114.268
21
-178.406
0
LINE
8
BLACK
6
CONTINUOUS
10
114.268
20
-178.406
11
114.125
21
-178.549
0
LINE
8
BLACK
6
CONTINUOUS
10
114.125
20
-178.549
11
113.839
21
-178.692
0
LINE
8
BLACK
6
CONTINUOUS
10
113.839
20
-178.692
11
113.554
21
-178.692
0
LINE
8
BLACK
6
CONTINUOUS
10
113.554
20
-178.692
11
113.268
21
-178.549
0
LINE
8
BLACK
6
CONTINUOUS
10
113.268
20
-178.549
11
113.125
21
-178.406
0
LINE
8
BLACK
6
CONTINUOUS
10
113.125
20
-178.406
11
112.982
21
-178.121
0
LINE
8
BLACK
6
CONTINUOUS
10
112.982
20
-178.121
11
112.839
21
-177.549
0
LINE
8
BLACK
6
CONTINUOUS
10
112.839
20
-177.549
11
112.839
21
-176.835
0
LINE
8
BLACK
6
CONTINUOUS
10
112.839
20
-176.835
11
112.982
21
-176.264
0
LINE
8
BLACK
6
CONTINUOUS
10
112.982
20
-176.264
11
113.125
21
-175.978
0
LINE
8
BLACK
6
CONTINUOUS
10
113.125
20
-175.978
11
113.268
21
-175.835
0
LINE
8
BLACK
6
CONTINUOUS
10
113.268
20
-175.835
11
113.554
21
-175.692
0
LINE
8
BLACK
6
CONTINUOUS
10
116.411
20
-175.692
11
116.696
21
-175.692
0
LINE
8
BLACK
6
CONTINUOUS
10
116.696
20
-175.692
11
116.982
21
-175.835
0
LINE
8
BLACK
6
CONTINUOUS
10
116.982
20
-175.835
11
117.125
21
-175.978
0
LINE
8
BLACK
6
CONTINUOUS
10
117.125
20
-175.978
11
117.268
21
-176.264
0
LINE
8
BLACK
6
CONTINUOUS
10
117.268
20
-176.264
11
117.411
21
-176.835
0
LINE
8
BLACK
6
CONTINUOUS
10
117.411
20
-176.835
11
117.411
21
-177.549
0
LINE
8
BLACK
6
CONTINUOUS
10
117.411
20
-177.549
11
117.268
21
-178.121
0
LINE
8
BLACK
6
CONTINUOUS
10
117.268
20
-178.121
11
117.125
21
-178.406
0
LINE
8
BLACK
6
CONTINUOUS
10
117.125
20
-178.406
11
116.982
21
-178.549
0
LINE
8
BLACK
6
CONTINUOUS
10
116.982
20
-178.549
11
116.696
21
-178.692
0
LINE
8
BLACK
6
CONTINUOUS
10
116.696
20
-178.692
11
116.411
21
-178.692
0
LINE
8
BLACK
6
CONTINUOUS
10
116.411
20
-178.692
11
116.125
21
-178.549
0
LINE
8
BLACK
6
CONTINUOUS
10
116.125
20
-178.549
11
115.982
21
-178.406
0
LINE
8
BLACK
6
CONTINUOUS
10
115.982
20
-178.406
11
115.839
21
-178.121
0
LINE
8
BLACK
6
CONTINUOUS
10
115.839
20
-178.121
11
115.696
21
-177.549
0
LINE
8
BLACK
6
CONTINUOUS
10
115.696
20
-177.549
11
115.696
21
-176.835
0
LINE
8
BLACK
6
CONTINUOUS
10
115.696
20
-176.835
11
115.839
21
-176.264
0
LINE
8
BLACK
6
CONTINUOUS
10
115.839
20
-176.264
11
115.982
21
-175.978
0
LINE
8
BLACK
6
CONTINUOUS
10
115.982
20
-175.978
11
116.125
21
-175.835
0
LINE
8
BLACK
6
CONTINUOUS
10
116.125
20
-175.835
11
116.411
21
-175.692
0
LINE
8
BLACK
6
CONTINUOUS
10
118.696
20
-178.692
11
118.696
21
-176.692
0
LINE
8
BLACK
6
CONTINUOUS
10
118.696
20
-176.978
11
118.839
21
-176.835
0
LINE
8
BLACK
6
CONTINUOUS
10
118.839
20
-176.835
11
119.125
21
-176.692
0
LINE
8
BLACK
6
CONTINUOUS
10
119.125
20
-176.692
11
119.554
21
-176.692
0
LINE
8
BLACK
6
CONTINUOUS
10
119.554
20
-176.692
11
119.839
21
-176.835
0
LINE
8
BLACK
6
CONTINUOUS
10
119.839
20
-176.835
11
119.982
21
-177.121
0
LINE
8
BLACK
6
CONTINUOUS
10
119.982
20
-177.121
11
119.982
21
-178.692
0
LINE
8
BLACK
6
CONTINUOUS
10
119.982
20
-177.121
11
120.125
21
-176.835
0
LINE
8
BLACK
6
CONTINUOUS
10
120.125
20
-176.835
11
120.411
21
-176.692
0
LINE
8
BLACK
6
CONTINUOUS
10
120.411
20
-176.692
11
120.839
21
-176.692
0
LINE
8
BLACK
6
CONTINUOUS
10
120.839
20
-176.692
11
121.125
21
-176.835
0
LINE
8
BLACK
6
CONTINUOUS
10
121.125
20
-176.835
11
121.268
21
-177.121
0
LINE
8
BLACK
6
CONTINUOUS
10
121.268
20
-177.121
11
121.268
21
-178.692
0
LINE
8
BLACK
6
CONTINUOUS
10
122.696
20
-178.692
11
122.696
21
-176.692
0
LINE
8
BLACK
6
CONTINUOUS
10
122.696
20
-176.978
11
122.839
21
-176.835
0
LINE
8
BLACK
6
CONTINUOUS
10
122.839
20
-176.835
11
123.125
21
-176.692
0
LINE
8
BLACK
6
CONTINUOUS
10
123.125
20
-176.692
11
123.554
21
-176.692
0
LINE
8
BLACK
6
CONTINUOUS
10
123.554
20
-176.692
11
123.839
21
-176.835
0
LINE
8
BLACK
6
CONTINUOUS
10
123.839
20
-176.835
11
123.982
21
-177.121
0
LINE
8
BLACK
6
CONTINUOUS
10
123.982
20
-177.121
11
123.982
21
-178.692
0
LINE
8
BLACK
6
CONTINUOUS
10
123.982
20
-177.121
11
124.125
21
-176.835
0
LINE
8
BLACK
6
CONTINUOUS
10
124.125
20
-176.835
11
124.411
21
-176.692
0
LINE
8
BLACK
6
CONTINUOUS
10
124.411
20
-176.692
11
124.839
21
-176.692
0
LINE
8
BLACK
6
CONTINUOUS
10
124.839
20
-176.692
11
125.125
21
-176.835
0
LINE
8
BLACK
6
CONTINUOUS
10
125.125
20
-176.835
11
125.268
21
-177.121
0
LINE
8
BLACK
6
CONTINUOUS
10
125.268
20
-177.121
11
125.268
21
-178.692
0
LINE
8
BLACK
6
CONTINUOUS
10
131.125
20
-175.549
11
128.554
21
-179.406
0
LINE
8
BLACK
6
CONTINUOUS
10
134.982
20
-175.692
11
135.268
21
-175.692
0
LINE
8
BLACK
6
CONTINUOUS
10
135.268
20
-175.692
11
135.554
21
-175.835
0
LINE
8
BLACK
6
CONTINUOUS
10
135.554
20
-175.835
11
135.696
21
-175.978
0
LINE
8
BLACK
6
CONTINUOUS
10
135.696
20
-175.978
11
135.839
21
-176.264
0
LINE
8
BLACK
6
CONTINUOUS
10
135.839
20
-176.264
11
135.982
21
-176.835
0
LINE
8
BLACK
6
CONTINUOUS
10
135.982
20
-176.835
11
135.982
21
-177.549
0
LINE
8
BLACK
6
CONTINUOUS
10
135.982
20
-177.549
11
135.839
21
-178.121
0
LINE
8
BLACK
6
CONTINUOUS
10
135.839
20
-178.121
11
135.696
21
-178.406
0
LINE
8
BLACK
6
CONTINUOUS
10
135.696
20
-178.406
11
135.554
21
-178.549
0
LINE
8
BLACK
6
CONTINUOUS
10
135.554
20
-178.549
11
135.268
21
-178.692
0
LINE
8
BLACK
6
CONTINUOUS
10
135.268
20
-178.692
11
134.982
21
-178.692
0
LINE
8
BLACK
6
CONTINUOUS
10
134.982
20
-178.692
11
134.696
21
-178.549
0
LINE
8
BLACK
6
CONTINUOUS
10
134.696
20
-178.549
11
134.554
21
-178.406
0
LINE
8
BLACK
6
CONTINUOUS
10
134.554
20
-178.406
11
134.411
21
-178.121
0
LINE
8
BLACK
6
CONTINUOUS
10
134.411
20
-178.121
11
134.268
21
-177.549
0
LINE
8
BLACK
6
CONTINUOUS
10
134.268
20
-177.549
11
134.268
21
-176.835
0
LINE
8
BLACK
6
CONTINUOUS
10
134.268
20
-176.835
11
134.411
21
-176.264
0
LINE
8
BLACK
6
CONTINUOUS
10
134.411
20
-176.264
11
134.554
21
-175.978
0
LINE
8
BLACK
6
CONTINUOUS
10
134.554
20
-175.978
11
134.696
21
-175.835
0
LINE
8
BLACK
6
CONTINUOUS
10
134.696
20
-175.835
11
134.982
21
-175.692
0
LINE
8
BLACK
6
CONTINUOUS
10
137.268
20
-178.406
11
137.411
21
-178.549
0
LINE
8
BLACK
6
CONTINUOUS
10
137.411
20
-178.549
11
137.268
21
-178.692
0
LINE
8
BLACK
6
CONTINUOUS
10
137.268
20
-178.692
11
137.125
21
-178.549
0
LINE
8
BLACK
6
CONTINUOUS
10
137.125
20
-178.549
11
137.268
21
-178.406
0
LINE
8
BLACK
6
CONTINUOUS
10
137.268
20
-178.406
11
137.268
21
-178.692
0
LINE
8
BLACK
6
CONTINUOUS
10
139.268
20
-175.692
11
139.554
21
-175.692
0
LINE
8
BLACK
6
CONTINUOUS
10
139.554
20
-175.692
11
139.839
21
-175.835
0
LINE
8
BLACK
6
CONTINUOUS
10
139.839
20
-175.835
11
139.982
21
-175.978
0
LINE
8
BLACK
6
CONTINUOUS
10
139.982
20
-175.978
11
140.125
21
-176.264
0
LINE
8
BLACK
6
CONTINUOUS
10
140.125
20
-176.264
11
140.268
21
-176.835
0
LINE
8
BLACK
6
CONTINUOUS
10
140.268
20
-176.835
11
140.268
21
-177.549
0
LINE
8
BLACK
6
CONTINUOUS
10
140.268
20
-177.549
11
140.125
21
-178.121
0
LINE
8
BLACK
6
CONTINUOUS
10
140.125
20
-178.121
11
139.982
21
-178.406
0
LINE
8
BLACK
6
CONTINUOUS
10
139.982
20
-178.406
11
139.839
21
-178.549
0
LINE
8
BLACK
6
CONTINUOUS
10
139.839
20
-178.549
11
139.554
21
-178.692
0
LINE
8
BLACK
6
CONTINUOUS
10
139.554
20
-178.692
11
139.268
21
-178.692
0
LINE
8
BLACK
6
CONTINUOUS
10
139.268
20
-178.692
11
138.982
21
-178.549
0
LINE
8
BLACK
6
CONTINUOUS
10
138.982
20
-178.549
11
138.839
21
-178.406
0
LINE
8
BLACK
6
CONTINUOUS
10
138.839
20
-178.406
11
138.696
21
-178.121
0
LINE
8
BLACK
6
CONTINUOUS
10
138.696
20
-178.121
11
138.554
21
-177.549
0
LINE
8
BLACK
6
CONTINUOUS
10
138.554
20
-177.549
11
138.554
21
-176.835
0
LINE
8
BLACK
6
CONTINUOUS
10
138.554
20
-176.835
11
138.696
21
-176.264
0
LINE
8
BLACK
6
CONTINUOUS
10
138.696
20
-176.264
11
138.839
21
-175.978
0
LINE
8
BLACK
6
CONTINUOUS
10
138.839
20
-175.978
11
138.982
21
-175.835
0
LINE
8
BLACK
6
CONTINUOUS
10
138.982
20
-175.835
11
139.268
21
-175.692
0
LINE
8
BLACK
6
CONTINUOUS
10
141.268
20
-175.692
11
143.268
21
-175.692
0
LINE
8
BLACK
6
CONTINUOUS
10
143.268
20
-175.692
11
141.982
21
-178.692
0
LINE
8
BLACK
6
CONTINUOUS
10
144.839
20
-176.978
11
144.554
21
-176.835
0
LINE
8
BLACK
6
CONTINUOUS
10
144.554
20
-176.835
11
144.411
21
-176.692
0
LINE
8
BLACK
6
CONTINUOUS
10
144.411
20
-176.692
11
144.268
21
-176.406
0
LINE
8
BLACK
6
CONTINUOUS
10
144.268
20
-176.406
11
144.268
21
-176.264
0
LINE
8
BLACK
6
CONTINUOUS
10
144.268
20
-176.264
11
144.411
21
-175.978
0
LINE
8
BLACK
6
CONTINUOUS
10
144.411
20
-175.978
11
144.554
21
-175.835
0
LINE
8
BLACK
6
CONTINUOUS
10
144.554
20
-175.835
11
144.839
21
-175.692
0
LINE
8
BLACK
6
CONTINUOUS
10
144.839
20
-175.692
11
145.411
21
-175.692
0
LINE
8
BLACK
6
CONTINUOUS
10
145.411
20
-175.692
11
145.696
21
-175.835
0
LINE
8
BLACK
6
CONTINUOUS
10
145.696
20
-175.835
11
145.839
21
-175.978
0
LINE
8
BLACK
6
CONTINUOUS
10
145.839
20
-175.978
11
145.982
21
-176.264
0
LINE
8
BLACK
6
CONTINUOUS
10
145.982
20
-176.264
11
145.982
21
-176.406
0
LINE
8
BLACK
6
CONTINUOUS
10
145.982
20
-176.406
11
145.839
21
-176.692
0
LINE
8
BLACK
6
CONTINUOUS
10
145.839
20
-176.692
11
145.696
21
-176.835
0
LINE
8
BLACK
6
CONTINUOUS
10
145.696
20
-176.835
11
145.411
21
-176.978
0
LINE
8
BLACK
6
CONTINUOUS
10
145.411
20
-176.978
11
144.839
21
-176.978
0
LINE
8
BLACK
6
CONTINUOUS
10
144.839
20
-176.978
11
144.554
21
-177.121
0
LINE
8
BLACK
6
CONTINUOUS
10
144.554
20
-177.121
11
144.411
21
-177.264
0
LINE
8
BLACK
6
CONTINUOUS
10
144.411
20
-177.264
11
144.268
21
-177.549
0
LINE
8
BLACK
6
CONTINUOUS
10
144.268
20
-177.549
11
144.268
21
-178.121
0
LINE
8
BLACK
6
CONTINUOUS
10
144.268
20
-178.121
11
144.411
21
-178.406
0
LINE
8
BLACK
6
CONTINUOUS
10
144.411
20
-178.406
11
144.554
21
-178.549
0
LINE
8
BLACK
6
CONTINUOUS
10
144.554
20
-178.549
11
144.839
21
-178.692
0
LINE
8
BLACK
6
CONTINUOUS
10
144.839
20
-178.692
11
145.411
21
-178.692
0
LINE
8
BLACK
6
CONTINUOUS
10
145.411
20
-178.692
11
145.696
21
-178.549
0
LINE
8
BLACK
6
CONTINUOUS
10
145.696
20
-178.549
11
145.839
21
-178.406
0
LINE
8
BLACK
6
CONTINUOUS
10
145.839
20
-178.406
11
145.982
21
-178.121
0
LINE
8
BLACK
6
CONTINUOUS
10
145.982
20
-178.121
11
145.982
21
-177.549
0
LINE
8
BLACK
6
CONTINUOUS
10
145.982
20
-177.549
11
145.839
21
-177.264
0
LINE
8
BLACK
6
CONTINUOUS
10
145.839
20
-177.264
11
145.696
21
-177.121
0
LINE
8
BLACK
6
CONTINUOUS
10
145.696
20
-177.121
11
145.411
21
-176.978
0
LINE
8
BLACK
6
CONTINUOUS
10
146.982
20
-175.692
11
148.982
21
-175.692
0
LINE
8
BLACK
6
CONTINUOUS
10
148.982
20
-175.692
11
147.696
21
-178.692
0
LINE
8
BLACK
6
CONTINUOUS
10
149.982
20
-175.692
11
149.982
21
-176.264
0
LINE
8
BLACK
6
CONTINUOUS
10
151.125
20
-175.692
11
151.125
21
-176.264
0
LINE
8
BLACK
6
CONTINUOUS
10
155.554
20
-179.835
11
155.411
21
-179.692
0
LINE
8
BLACK
6
CONTINUOUS
10
155.411
20
-179.692
11
155.125
21
-179.264
0
LINE
8
BLACK
6
CONTINUOUS
10
155.125
20
-179.264
11
154.982
21
-178.978
0
LINE
8
BLACK
6
CONTINUOUS
10
154.982
20
-178.978
11
154.839
21
-178.549
0
LINE
8
BLACK
6
CONTINUOUS
10
154.839
20
-178.549
11
154.696
21
-177.835
0
LINE
8
BLACK
6
CONTINUOUS
10
154.696
20
-177.835
11
154.696
21
-177.264
0
LINE
8
BLACK
6
CONTINUOUS
10
154.696
20
-177.264
11
154.839
21
-176.549
0
LINE
8
BLACK
6
CONTINUOUS
10
154.839
20
-176.549
11
154.982
21
-176.121
0
LINE
8
BLACK
6
CONTINUOUS
10
154.982
20
-176.121
11
155.125
21
-175.835
0
LINE
8
BLACK
6
CONTINUOUS
10
155.125
20
-175.835
11
155.411
21
-175.406
0
LINE
8
BLACK
6
CONTINUOUS
10
155.411
20
-175.406
11
155.554
21
-175.264
0
LINE
8
BLACK
6
CONTINUOUS
10
158.268
20
-178.692
11
156.554
21
-178.692
0
LINE
8
BLACK
6
CONTINUOUS
10
157.411
20
-178.692
11
157.411
21
-175.692
0
LINE
8
BLACK
6
CONTINUOUS
10
157.411
20
-175.692
11
157.125
21
-176.121
0
LINE
8
BLACK
6
CONTINUOUS
10
157.125
20
-176.121
11
156.839
21
-176.406
0
LINE
8
BLACK
6
CONTINUOUS
10
156.839
20
-176.406
11
156.554
21
-176.549
0
LINE
8
BLACK
6
CONTINUOUS
10
159.411
20
-175.978
11
159.554
21
-175.835
0
LINE
8
BLACK
6
CONTINUOUS
10
159.554
20
-175.835
11
159.839
21
-175.692
0
LINE
8
BLACK
6
CONTINUOUS
10
159.839
20
-175.692
11
160.554
21
-175.692
0
LINE
8
BLACK
6
CONTINUOUS
10
160.554
20
-175.692
11
160.839
21
-175.835
0
LINE
8
BLACK
6
CONTINUOUS
10
160.839
20
-175.835
11
160.982
21
-175.978
0
LINE
8
BLACK
6
CONTINUOUS
10
160.982
20
-175.978
11
161.125
21
-176.264
0
LINE
8
BLACK
6
CONTINUOUS
10
161.125
20
-176.264
11
161.125
21
-176.549
0
LINE
8
BLACK
6
CONTINUOUS
10
161.125
20
-176.549
11
160.982
21
-176.978
0
LINE
8
BLACK
6
CONTINUOUS
10
160.982
20
-176.978
11
159.268
21
-178.692
0
LINE
8
BLACK
6
CONTINUOUS
10
159.268
20
-178.692
11
161.125
21
-178.692
0
LINE
8
BLACK
6
CONTINUOUS
10
164.696
20
-178.692
11
164.696
21
-175.692
0
LINE
8
BLACK
6
CONTINUOUS
10
165.982
20
-178.692
11
165.982
21
-177.121
0
LINE
8
BLACK
6
CONTINUOUS
10
165.982
20
-177.121
11
165.839
21
-176.835
0
LINE
8
BLACK
6
CONTINUOUS
10
165.839
20
-176.835
11
165.554
21
-176.692
0
LINE
8
BLACK
6
CONTINUOUS
10
165.554
20
-176.692
11
165.125
21
-176.692
0
LINE
8
BLACK
6
CONTINUOUS
10
165.125
20
-176.692
11
164.839
21
-176.835
0
LINE
8
BLACK
6
CONTINUOUS
10
164.839
20
-176.835
11
164.696
21
-176.978
0
LINE
8
BLACK
6
CONTINUOUS
10
167.839
20
-178.692
11
167.554
21
-178.549
0
LINE
8
BLACK
6
CONTINUOUS
10
167.554
20
-178.549
11
167.411
21
-178.406
0
LINE
8
BLACK
6
CONTINUOUS
10
167.411
20
-178.406
11
167.268
21
-178.121
0
LINE
8
BLACK
6
CONTINUOUS
10
167.268
20
-178.121
11
167.268
21
-177.264
0
LINE
8
BLACK
6
CONTINUOUS
10
167.268
20
-177.264
11
167.411
21
-176.978
0
LINE
8
BLACK
6
CONTINUOUS
10
167.411
20
-176.978
11
167.554
21
-176.835
0
LINE
8
BLACK
6
CONTINUOUS
10
167.554
20
-176.835
11
167.839
21
-176.692
0
LINE
8
BLACK
6
CONTINUOUS
10
167.839
20
-176.692
11
168.268
21
-176.692
0
LINE
8
BLACK
6
CONTINUOUS
10
168.268
20
-176.692
11
168.554
21
-176.835
0
LINE
8
BLACK
6
CONTINUOUS
10
168.554
20
-176.835
11
168.696
21
-176.978
0
LINE
8
BLACK
6
CONTINUOUS
10
168.696
20
-176.978
11
168.839
21
-177.264
0
LINE
8
BLACK
6
CONTINUOUS
10
168.839
20
-177.264
11
168.839
21
-178.121
0
LINE
8
BLACK
6
CONTINUOUS
10
168.839
20
-178.121
11
168.696
21
-178.406
0
LINE
8
BLACK
6
CONTINUOUS
10
168.696
20
-178.406
11
168.554
21
-178.549
0
LINE
8
BLACK
6
CONTINUOUS
10
168.554
20
-178.549
11
168.268
21
-178.692
0
LINE
8
BLACK
6
CONTINUOUS
10
168.268
20
-178.692
11
167.839
21
-178.692
0
LINE
8
BLACK
6
CONTINUOUS
10
170.554
20
-178.692
11
170.268
21
-178.549
0
LINE
8
BLACK
6
CONTINUOUS
10
170.268
20
-178.549
11
170.125
21
-178.264
0
LINE
8
BLACK
6
CONTINUOUS
10
170.125
20
-178.264
11
170.125
21
-175.692
0
LINE
8
BLACK
6
CONTINUOUS
10
172.839
20
-178.549
11
172.554
21
-178.692
0
LINE
8
BLACK
6
CONTINUOUS
10
172.554
20
-178.692
11
171.982
21
-178.692
0
LINE
8
BLACK
6
CONTINUOUS
10
171.982
20
-178.692
11
171.696
21
-178.549
0
LINE
8
BLACK
6
CONTINUOUS
10
171.696
20
-178.549
11
171.554
21
-178.264
0
LINE
8
BLACK
6
CONTINUOUS
10
171.554
20
-178.264
11
171.554
21
-177.121
0
LINE
8
BLACK
6
CONTINUOUS
10
171.554
20
-177.121
11
171.696
21
-176.835
0
LINE
8
BLACK
6
CONTINUOUS
10
171.696
20
-176.835
11
171.982
21
-176.692
0
LINE
8
BLACK
6
CONTINUOUS
10
171.982
20
-176.692
11
172.554
21
-176.692
0
LINE
8
BLACK
6
CONTINUOUS
10
172.554
20
-176.692
11
172.839
21
-176.835
0
LINE
8
BLACK
6
CONTINUOUS
10
172.839
20
-176.835
11
172.982
21
-177.121
0
LINE
8
BLACK
6
CONTINUOUS
10
172.982
20
-177.121
11
172.982
21
-177.406
0
LINE
8
BLACK
6
CONTINUOUS
10
172.982
20
-177.406
11
171.554
21
-177.692
0
LINE
8
BLACK
6
CONTINUOUS
10
174.125
20
-178.549
11
174.411
21
-178.692
0
LINE
8
BLACK
6
CONTINUOUS
10
174.411
20
-178.692
11
174.982
21
-178.692
0
LINE
8
BLACK
6
CONTINUOUS
10
174.982
20
-178.692
11
175.268
21
-178.549
0
LINE
8
BLACK
6
CONTINUOUS
10
175.268
20
-178.549
11
175.411
21
-178.264
0
LINE
8
BLACK
6
CONTINUOUS
10
175.411
20
-178.264
11
175.411
21
-178.121
0
LINE
8
BLACK
6
CONTINUOUS
10
175.411
20
-178.121
11
175.268
21
-177.835
0
LINE
8
BLACK
6
CONTINUOUS
10
175.268
20
-177.835
11
174.982
21
-177.692
0
LINE
8
BLACK
6
CONTINUOUS
10
174.982
20
-177.692
11
174.554
21
-177.692
0
LINE
8
BLACK
6
CONTINUOUS
10
174.554
20
-177.692
11
174.268
21
-177.549
0
LINE
8
BLACK
6
CONTINUOUS
10
174.268
20
-177.549
11
174.125
21
-177.264
0
LINE
8
BLACK
6
CONTINUOUS
10
174.125
20
-177.264
11
174.125
21
-177.121
0
LINE
8
BLACK
6
CONTINUOUS
10
174.125
20
-177.121
11
174.268
21
-176.835
0
LINE
8
BLACK
6
CONTINUOUS
10
174.268
20
-176.835
11
174.554
21
-176.692
0
LINE
8
BLACK
6
CONTINUOUS
10
174.554
20
-176.692
11
174.982
21
-176.692
0
LINE
8
BLACK
6
CONTINUOUS
10
174.982
20
-176.692
11
175.268
21
-176.835
0
LINE
8
BLACK
6
CONTINUOUS
10
176.411
20
-179.835
11
176.554
21
-179.692
0
LINE
8
BLACK
6
CONTINUOUS
10
176.554
20
-179.692
11
176.839
21
-179.264
0
LINE
8
BLACK
6
CONTINUOUS
10
176.839
20
-179.264
11
176.982
21
-178.978
0
LINE
8
BLACK
6
CONTINUOUS
10
176.982
20
-178.978
11
177.125
21
-178.549
0
LINE
8
BLACK
6
CONTINUOUS
10
177.125
20
-178.549
11
177.268
21
-177.835
0
LINE
8
BLACK
6
CONTINUOUS
10
177.268
20
-177.835
11
177.268
21
-177.264
0
LINE
8
BLACK
6
CONTINUOUS
10
177.268
20
-177.264
11
177.125
21
-176.549
0
LINE
8
BLACK
6
CONTINUOUS
10
177.125
20
-176.549
11
176.982
21
-176.121
0
LINE
8
BLACK
6
CONTINUOUS
10
176.982
20
-176.121
11
176.839
21
-175.835
0
LINE
8
BLACK
6
CONTINUOUS
10
176.839
20
-175.835
11
176.554
21
-175.406
0
LINE
8
BLACK
6
CONTINUOUS
10
176.554
20
-175.406
11
176.411
21
-175.264
0
LINE
8
BLACK
6
CONTINUOUS
10
101.5
20
-179.82
11
101.5
21
-182.77
0
LINE
8
BLACK
6
CONTINUOUS
10
100.025
20
-181.295
11
102.975
21
-181.295
0
LINE
8
BLACK
6
CONTINUOUS
10
105.696
20
-179.938
11
105.839
21
-179.795
0
LINE
8
BLACK
6
CONTINUOUS
10
105.839
20
-179.795
11
106.125
21
-179.652
0
LINE
8
BLACK
6
CONTINUOUS
10
106.125
20
-179.652
11
106.839
21
-179.652
0
LINE
8
BLACK
6
CONTINUOUS
10
106.839
20
-179.652
11
107.125
21
-179.795
0
LINE
8
BLACK
6
CONTINUOUS
10
107.125
20
-179.795
11
107.268
21
-179.938
0
LINE
8
BLACK
6
CONTINUOUS
10
107.268
20
-179.938
11
107.411
21
-180.224
0
LINE
8
BLACK
6
CONTINUOUS
10
107.411
20
-180.224
11
107.411
21
-180.509
0
LINE
8
BLACK
6
CONTINUOUS
10
107.411
20
-180.509
11
107.268
21
-180.938
0
LINE
8
BLACK
6
CONTINUOUS
10
107.268
20
-180.938
11
105.554
21
-182.652
0
LINE
8
BLACK
6
CONTINUOUS
10
105.554
20
-182.652
11
107.411
21
-182.652
0
LINE
8
BLACK
6
CONTINUOUS
10
108.696
20
-182.366
11
108.839
21
-182.509
0
LINE
8
BLACK
6
CONTINUOUS
10
108.839
20
-182.509
11
108.696
21
-182.652
0
LINE
8
BLACK
6
CONTINUOUS
10
108.696
20
-182.652
11
108.554
21
-182.509
0
LINE
8
BLACK
6
CONTINUOUS
10
108.554
20
-182.509
11
108.696
21
-182.366
0
LINE
8
BLACK
6
CONTINUOUS
10
108.696
20
-182.366
11
108.696
21
-182.652
0
LINE
8
BLACK
6
CONTINUOUS
10
110.268
20
-182.652
11
110.839
21
-182.652
0
LINE
8
BLACK
6
CONTINUOUS
10
110.839
20
-182.652
11
111.125
21
-182.509
0
LINE
8
BLACK
6
CONTINUOUS
10
111.125
20
-182.509
11
111.268
21
-182.366
0
LINE
8
BLACK
6
CONTINUOUS
10
111.268
20
-182.366
11
111.554
21
-181.938
0
LINE
8
BLACK
6
CONTINUOUS
10
111.554
20
-181.938
11
111.696
21
-181.366
0
LINE
8
BLACK
6
CONTINUOUS
10
111.696
20
-181.366
11
111.696
21
-180.224
0
LINE
8
BLACK
6
CONTINUOUS
10
111.696
20
-180.224
11
111.554
21
-179.938
0
LINE
8
BLACK
6
CONTINUOUS
10
111.554
20
-179.938
11
111.411
21
-179.795
0
LINE
8
BLACK
6
CONTINUOUS
10
111.411
20
-179.795
11
111.125
21
-179.652
0
LINE
8
BLACK
6
CONTINUOUS
10
111.125
20
-179.652
11
110.554
21
-179.652
0
LINE
8
BLACK
6
CONTINUOUS
10
110.554
20
-179.652
11
110.268
21
-179.795
0
LINE
8
BLACK
6
CONTINUOUS
10
110.268
20
-179.795
11
110.125
21
-179.938
0
LINE
8
BLACK
6
CONTINUOUS
10
110.125
20
-179.938
11
109.982
21
-180.224
0
LINE
8
BLACK
6
CONTINUOUS
10
109.982
20
-180.224
11
109.982
21
-180.938
0
LINE
8
BLACK
6
CONTINUOUS
10
109.982
20
-180.938
11
110.125
21
-181.224
0
LINE
8
BLACK
6
CONTINUOUS
10
110.125
20
-181.224
11
110.268
21
-181.366
0
LINE
8
BLACK
6
CONTINUOUS
10
110.268
20
-181.366
11
110.554
21
-181.509
0
LINE
8
BLACK
6
CONTINUOUS
10
110.554
20
-181.509
11
111.125
21
-181.509
0
LINE
8
BLACK
6
CONTINUOUS
10
111.125
20
-181.509
11
111.411
21
-181.366
0
LINE
8
BLACK
6
CONTINUOUS
10
111.411
20
-181.366
11
111.554
21
-181.224
0
LINE
8
BLACK
6
CONTINUOUS
10
111.554
20
-181.224
11
111.696
21
-180.938
0
LINE
8
BLACK
6
CONTINUOUS
10
114.411
20
-179.652
11
112.982
21
-179.652
0
LINE
8
BLACK
6
CONTINUOUS
10
112.982
20
-179.652
11
112.839
21
-181.081
0
LINE
8
BLACK
6
CONTINUOUS
10
112.839
20
-181.081
11
112.982
21
-180.938
0
LINE
8
BLACK
6
CONTINUOUS
10
112.982
20
-180.938
11
113.268
21
-180.795
0
LINE
8
BLACK
6
CONTINUOUS
10
113.268
20
-180.795
11
113.982
21
-180.795
0
LINE
8
BLACK
6
CONTINUOUS
10
113.982
20
-180.795
11
114.268
21
-180.938
0
LINE
8
BLACK
6
CONTINUOUS
10
114.268
20
-180.938
11
114.411
21
-181.081
0
LINE
8
BLACK
6
CONTINUOUS
10
114.411
20
-181.081
11
114.554
21
-181.366
0
LINE
8
BLACK
6
CONTINUOUS
10
114.554
20
-181.366
11
114.554
21
-182.081
0
LINE
8
BLACK
6
CONTINUOUS
10
114.554
20
-182.081
11
114.411
21
-182.366
0
LINE
8
BLACK
6
CONTINUOUS
10
114.411
20
-182.366
11
114.268
21
-182.509
0
LINE
8
BLACK
6
CONTINUOUS
10
114.268
20
-182.509
11
113.982
21
-182.652
0
LINE
8
BLACK
6
CONTINUOUS
10
113.982
20
-182.652
11
113.268
21
-182.652
0
LINE
8
BLACK
6
CONTINUOUS
10
113.268
20
-182.652
11
112.982
21
-182.509
0
LINE
8
BLACK
6
CONTINUOUS
10
112.982
20
-182.509
11
112.839
21
-182.366
0
LINE
8
BLACK
6
CONTINUOUS
10
116.411
20
-179.652
11
116.696
21
-179.652
0
LINE
8
BLACK
6
CONTINUOUS
10
116.696
20
-179.652
11
116.982
21
-179.795
0
LINE
8
BLACK
6
CONTINUOUS
10
116.982
20
-179.795
11
117.125
21
-179.938
0
LINE
8
BLACK
6
CONTINUOUS
10
117.125
20
-179.938
11
117.268
21
-180.224
0
LINE
8
BLACK
6
CONTINUOUS
10
117.268
20
-180.224
11
117.411
21
-180.795
0
LINE
8
BLACK
6
CONTINUOUS
10
117.411
20
-180.795
11
117.411
21
-181.509
0
LINE
8
BLACK
6
CONTINUOUS
10
117.411
20
-181.509
11
117.268
21
-182.081
0
LINE
8
BLACK
6
CONTINUOUS
10
117.268
20
-182.081
11
117.125
21
-182.366
0
LINE
8
BLACK
6
CONTINUOUS
10
117.125
20
-182.366
11
116.982
21
-182.509
0
LINE
8
BLACK
6
CONTINUOUS
10
116.982
20
-182.509
11
116.696
21
-182.652
0
LINE
8
BLACK
6
CONTINUOUS
10
116.696
20
-182.652
11
116.411
21
-182.652
0
LINE
8
BLACK
6
CONTINUOUS
10
116.411
20
-182.652
11
116.125
21
-182.509
0
LINE
8
BLACK
6
CONTINUOUS
10
116.125
20
-182.509
11
115.982
21
-182.366
0
LINE
8
BLACK
6
CONTINUOUS
10
115.982
20
-182.366
11
115.839
21
-182.081
0
LINE
8
BLACK
6
CONTINUOUS
10
115.839
20
-182.081
11
115.696
21
-181.509
0
LINE
8
BLACK
6
CONTINUOUS
10
115.696
20
-181.509
11
115.696
21
-180.795
0
LINE
8
BLACK
6
CONTINUOUS
10
115.696
20
-180.795
11
115.839
21
-180.224
0
LINE
8
BLACK
6
CONTINUOUS
10
115.839
20
-180.224
11
115.982
21
-179.938
0
LINE
8
BLACK
6
CONTINUOUS
10
115.982
20
-179.938
11
116.125
21
-179.795
0
LINE
8
BLACK
6
CONTINUOUS
10
116.125
20
-179.795
11
116.411
21
-179.652
0
LINE
8
BLACK
6
CONTINUOUS
10
118.696
20
-182.652
11
118.696
21
-180.652
0
LINE
8
BLACK
6
CONTINUOUS
10
118.696
20
-180.938
11
118.839
21
-180.795
0
LINE
8
BLACK
6
CONTINUOUS
10
118.839
20
-180.795
11
119.125
21
-180.652
0
LINE
8
BLACK
6
CONTINUOUS
10
119.125
20
-180.652
11
119.554
21
-180.652
0
LINE
8
BLACK
6
CONTINUOUS
10
119.554
20
-180.652
11
119.839
21
-180.795
0
LINE
8
BLACK
6
CONTINUOUS
10
119.839
20
-180.795
11
119.982
21
-181.081
0
LINE
8
BLACK
6
CONTINUOUS
10
119.982
20
-181.081
11
119.982
21
-182.652
0
LINE
8
BLACK
6
CONTINUOUS
10
119.982
20
-181.081
11
120.125
21
-180.795
0
LINE
8
BLACK
6
CONTINUOUS
10
120.125
20
-180.795
11
120.411
21
-180.652
0
LINE
8
BLACK
6
CONTINUOUS
10
120.411
20
-180.652
11
120.839
21
-180.652
0
LINE
8
BLACK
6
CONTINUOUS
10
120.839
20
-180.652
11
121.125
21
-180.795
0
LINE
8
BLACK
6
CONTINUOUS
10
121.125
20
-180.795
11
121.268
21
-181.081
0
LINE
8
BLACK
6
CONTINUOUS
10
121.268
20
-181.081
11
121.268
21
-182.652
0
LINE
8
BLACK
6
CONTINUOUS
10
122.696
20
-182.652
11
122.696
21
-180.652
0
LINE
8
BLACK
6
CONTINUOUS
10
122.696
20
-180.938
11
122.839
21
-180.795
0
LINE
8
BLACK
6
CONTINUOUS
10
122.839
20
-180.795
11
123.125
21
-180.652
0
LINE
8
BLACK
6
CONTINUOUS
10
123.125
20
-180.652
11
123.554
21
-180.652
0
LINE
8
BLACK
6
CONTINUOUS
10
123.554
20
-180.652
11
123.839
21
-180.795
0
LINE
8
BLACK
6
CONTINUOUS
10
123.839
20
-180.795
11
123.982
21
-181.081
0
LINE
8
BLACK
6
CONTINUOUS
10
123.982
20
-181.081
11
123.982
21
-182.652
0
LINE
8
BLACK
6
CONTINUOUS
10
123.982
20
-181.081
11
124.125
21
-180.795
0
LINE
8
BLACK
6
CONTINUOUS
10
124.125
20
-180.795
11
124.411
21
-180.652
0
LINE
8
BLACK
6
CONTINUOUS
10
124.411
20
-180.652
11
124.839
21
-180.652
0
LINE
8
BLACK
6
CONTINUOUS
10
124.839
20
-180.652
11
125.125
21
-180.795
0
LINE
8
BLACK
6
CONTINUOUS
10
125.125
20
-180.795
11
125.268
21
-181.081
0
LINE
8
BLACK
6
CONTINUOUS
10
125.268
20
-181.081
11
125.268
21
-182.652
0
LINE
8
BLACK
6
CONTINUOUS
10
131.125
20
-179.509
11
128.554
21
-183.366
0
LINE
8
BLACK
6
CONTINUOUS
10
134.982
20
-179.652
11
135.268
21
-179.652
0
LINE
8
BLACK
6
CONTINUOUS
10
135.268
20
-179.652
11
135.554
21
-179.795
0
LINE
8
BLACK
6
CONTINUOUS
10
135.554
20
-179.795
11
135.696
21
-179.938
0
LINE
8
BLACK
6
CONTINUOUS
10
135.696
20
-179.938
11
135.839
21
-180.224
0
LINE
8
BLACK
6
CONTINUOUS
10
135.839
20
-180.224
11
135.982
21
-180.795
0
LINE
8
BLACK
6
CONTINUOUS
10
135.982
20
-180.795
11
135.982
21
-181.509
0
LINE
8
BLACK
6
CONTINUOUS
10
135.982
20
-181.509
11
135.839
21
-182.081
0
LINE
8
BLACK
6
CONTINUOUS
10
135.839
20
-182.081
11
135.696
21
-182.366
0
LINE
8
BLACK
6
CONTINUOUS
10
135.696
20
-182.366
11
135.554
21
-182.509
0
LINE
8
BLACK
6
CONTINUOUS
10
135.554
20
-182.509
11
135.268
21
-182.652
0
LINE
8
BLACK
6
CONTINUOUS
10
135.268
20
-182.652
11
134.982
21
-182.652
0
LINE
8
BLACK
6
CONTINUOUS
10
134.982
20
-182.652
11
134.696
21
-182.509
0
LINE
8
BLACK
6
CONTINUOUS
10
134.696
20
-182.509
11
134.554
21
-182.366
0
LINE
8
BLACK
6
CONTINUOUS
10
134.554
20
-182.366
11
134.411
21
-182.081
0
LINE
8
BLACK
6
CONTINUOUS
10
134.411
20
-182.081
11
134.268
21
-181.509
0
LINE
8
BLACK
6
CONTINUOUS
10
134.268
20
-181.509
11
134.268
21
-180.795
0
LINE
8
BLACK
6
CONTINUOUS
10
134.268
20
-180.795
11
134.411
21
-180.224
0
LINE
8
BLACK
6
CONTINUOUS
10
134.411
20
-180.224
11
134.554
21
-179.938
0
LINE
8
BLACK
6
CONTINUOUS
10
134.554
20
-179.938
11
134.696
21
-179.795
0
LINE
8
BLACK
6
CONTINUOUS
10
134.696
20
-179.795
11
134.982
21
-179.652
0
LINE
8
BLACK
6
CONTINUOUS
10
137.268
20
-182.366
11
137.411
21
-182.509
0
LINE
8
BLACK
6
CONTINUOUS
10
137.411
20
-182.509
11
137.268
21
-182.652
0
LINE
8
BLACK
6
CONTINUOUS
10
137.268
20
-182.652
11
137.125
21
-182.509
0
LINE
8
BLACK
6
CONTINUOUS
10
137.125
20
-182.509
11
137.268
21
-182.366
0
LINE
8
BLACK
6
CONTINUOUS
10
137.268
20
-182.366
11
137.268
21
-182.652
0
LINE
8
BLACK
6
CONTINUOUS
10
140.268
20
-182.652
11
138.554
21
-182.652
0
LINE
8
BLACK
6
CONTINUOUS
10
139.411
20
-182.652
11
139.411
21
-179.652
0
LINE
8
BLACK
6
CONTINUOUS
10
139.411
20
-179.652
11
139.125
21
-180.081
0
LINE
8
BLACK
6
CONTINUOUS
10
139.125
20
-180.081
11
138.839
21
-180.366
0
LINE
8
BLACK
6
CONTINUOUS
10
138.839
20
-180.366
11
138.554
21
-180.509
0
LINE
8
BLACK
6
CONTINUOUS
10
143.125
20
-182.652
11
141.411
21
-182.652
0
LINE
8
BLACK
6
CONTINUOUS
10
142.268
20
-182.652
11
142.268
21
-179.652
0
LINE
8
BLACK
6
CONTINUOUS
10
142.268
20
-179.652
11
141.982
21
-180.081
0
LINE
8
BLACK
6
CONTINUOUS
10
141.982
20
-180.081
11
141.696
21
-180.366
0
LINE
8
BLACK
6
CONTINUOUS
10
141.696
20
-180.366
11
141.411
21
-180.509
0
LINE
8
BLACK
6
CONTINUOUS
10
145.696
20
-179.652
11
145.125
21
-179.652
0
LINE
8
BLACK
6
CONTINUOUS
10
145.125
20
-179.652
11
144.839
21
-179.795
0
LINE
8
BLACK
6
CONTINUOUS
10
144.839
20
-179.795
11
144.696
21
-179.938
0
LINE
8
BLACK
6
CONTINUOUS
10
144.696
20
-179.938
11
144.411
21
-180.366
0
LINE
8
BLACK
6
CONTINUOUS
10
144.411
20
-180.366
11
144.268
21
-180.938
0
LINE
8
BLACK
6
CONTINUOUS
10
144.268
20
-180.938
11
144.268
21
-182.081
0
LINE
8
BLACK
6
CONTINUOUS
10
144.268
20
-182.081
11
144.411
21
-182.366
0
LINE
8
BLACK
6
CONTINUOUS
10
144.411
20
-182.366
11
144.554
21
-182.509
0
LINE
8
BLACK
6
CONTINUOUS
10
144.554
20
-182.509
11
144.839
21
-182.652
0
LINE
8
BLACK
6
CONTINUOUS
10
144.839
20
-182.652
11
145.411
21
-182.652
0
LINE
8
BLACK
6
CONTINUOUS
10
145.411
20
-182.652
11
145.696
21
-182.509
0
LINE
8
BLACK
6
CONTINUOUS
10
145.696
20
-182.509
11
145.839
21
-182.366
0
LINE
8
BLACK
6
CONTINUOUS
10
145.839
20
-182.366
11
145.982
21
-182.081
0
LINE
8
BLACK
6
CONTINUOUS
10
145.982
20
-182.081
11
145.982
21
-181.366
0
LINE
8
BLACK
6
CONTINUOUS
10
145.982
20
-181.366
11
145.839
21
-181.081
0
LINE
8
BLACK
6
CONTINUOUS
10
145.839
20
-181.081
11
145.696
21
-180.938
0
LINE
8
BLACK
6
CONTINUOUS
10
145.696
20
-180.938
11
145.411
21
-180.795
0
LINE
8
BLACK
6
CONTINUOUS
10
145.411
20
-180.795
11
144.839
21
-180.795
0
LINE
8
BLACK
6
CONTINUOUS
10
144.839
20
-180.795
11
144.554
21
-180.938
0
LINE
8
BLACK
6
CONTINUOUS
10
144.554
20
-180.938
11
144.411
21
-181.081
0
LINE
8
BLACK
6
CONTINUOUS
10
144.411
20
-181.081
11
144.268
21
-181.366
0
LINE
8
BLACK
6
CONTINUOUS
10
148.839
20
-182.652
11
147.125
21
-182.652
0
LINE
8
BLACK
6
CONTINUOUS
10
147.982
20
-182.652
11
147.982
21
-179.652
0
LINE
8
BLACK
6
CONTINUOUS
10
147.982
20
-179.652
11
147.696
21
-180.081
0
LINE
8
BLACK
6
CONTINUOUS
10
147.696
20
-180.081
11
147.411
21
-180.366
0
LINE
8
BLACK
6
CONTINUOUS
10
147.411
20
-180.366
11
147.125
21
-180.509
0
LINE
8
BLACK
6
CONTINUOUS
10
149.982
20
-179.652
11
149.982
21
-180.224
0
LINE
8
BLACK
6
CONTINUOUS
10
151.125
20
-179.652
11
151.125
21
-180.224
0
LINE
8
BLACK
6
CONTINUOUS
10
155.554
20
-183.795
11
155.411
21
-183.652
0
LINE
8
BLACK
6
CONTINUOUS
10
155.411
20
-183.652
11
155.125
21
-183.224
0
LINE
8
BLACK
6
CONTINUOUS
10
155.125
20
-183.224
11
154.982
21
-182.938
0
LINE
8
BLACK
6
CONTINUOUS
10
154.982
20
-182.938
11
154.839
21
-182.509
0
LINE
8
BLACK
6
CONTINUOUS
10
154.839
20
-182.509
11
154.696
21
-181.795
0
LINE
8
BLACK
6
CONTINUOUS
10
154.696
20
-181.795
11
154.696
21
-181.224
0
LINE
8
BLACK
6
CONTINUOUS
10
154.696
20
-181.224
11
154.839
21
-180.509
0
LINE
8
BLACK
6
CONTINUOUS
10
154.839
20
-180.509
11
154.982
21
-180.081
0
LINE
8
BLACK
6
CONTINUOUS
10
154.982
20
-180.081
11
155.125
21
-179.795
0
LINE
8
BLACK
6
CONTINUOUS
10
155.125
20
-179.795
11
155.411
21
-179.366
0
LINE
8
BLACK
6
CONTINUOUS
10
155.411
20
-179.366
11
155.554
21
-179.224
0
LINE
8
BLACK
6
CONTINUOUS
10
157.982
20
-180.652
11
157.982
21
-182.652
0
LINE
8
BLACK
6
CONTINUOUS
10
157.268
20
-179.509
11
156.554
21
-181.652
0
LINE
8
BLACK
6
CONTINUOUS
10
156.554
20
-181.652
11
158.411
21
-181.652
0
LINE
8
BLACK
6
CONTINUOUS
10
161.839
20
-182.652
11
161.839
21
-179.652
0
LINE
8
BLACK
6
CONTINUOUS
10
163.125
20
-182.652
11
163.125
21
-181.081
0
LINE
8
BLACK
6
CONTINUOUS
10
163.125
20
-181.081
11
162.982
21
-180.795
0
LINE
8
BLACK
6
CONTINUOUS
10
162.982
20
-180.795
11
162.696
21
-180.652
0
LINE
8
BLACK
6
CONTINUOUS
10
162.696
20
-180.652
11
162.268
21
-180.652
0
LINE
8
BLACK
6
CONTINUOUS
10
162.268
20
-180.652
11
161.982
21
-180.795
0
LINE
8
BLACK
6
CONTINUOUS
10
161.982
20
-180.795
11
161.839
21
-180.938
0
LINE
8
BLACK
6
CONTINUOUS
10
164.982
20
-182.652
11
164.696
21
-182.509
0
LINE
8
BLACK
6
CONTINUOUS
10
164.696
20
-182.509
11
164.554
21
-182.366
0
LINE
8
BLACK
6
CONTINUOUS
10
164.554
20
-182.366
11
164.411
21
-182.081
0
LINE
8
BLACK
6
CONTINUOUS
10
164.411
20
-182.081
11
164.411
21
-181.224
0
LINE
8
BLACK
6
CONTINUOUS
10
164.411
20
-181.224
11
164.554
21
-180.938
0
LINE
8
BLACK
6
CONTINUOUS
10
164.554
20
-180.938
11
164.696
21
-180.795
0
LINE
8
BLACK
6
CONTINUOUS
10
164.696
20
-180.795
11
164.982
21
-180.652
0
LINE
8
BLACK
6
CONTINUOUS
10
164.982
20
-180.652
11
165.411
21
-180.652
0
LINE
8
BLACK
6
CONTINUOUS
10
165.411
20
-180.652
11
165.696
21
-180.795
0
LINE
8
BLACK
6
CONTINUOUS
10
165.696
20
-180.795
11
165.839
21
-180.938
0
LINE
8
BLACK
6
CONTINUOUS
10
165.839
20
-180.938
11
165.982
21
-181.224
0
LINE
8
BLACK
6
CONTINUOUS
10
165.982
20
-181.224
11
165.982
21
-182.081
0
LINE
8
BLACK
6
CONTINUOUS
10
165.982
20
-182.081
11
165.839
21
-182.366
0
LINE
8
BLACK
6
CONTINUOUS
10
165.839
20
-182.366
11
165.696
21
-182.509
0
LINE
8
BLACK
6
CONTINUOUS
10
165.696
20
-182.509
11
165.411
21
-182.652
0
LINE
8
BLACK
6
CONTINUOUS
10
165.411
20
-182.652
11
164.982
21
-182.652
0
LINE
8
BLACK
6
CONTINUOUS
10
167.696
20
-182.652
11
167.411
21
-182.509
0
LINE
8
BLACK
6
CONTINUOUS
10
167.411
20
-182.509
11
167.268
21
-182.224
0
LINE
8
BLACK
6
CONTINUOUS
10
167.268
20
-182.224
11
167.268
21
-179.652
0
LINE
8
BLACK
6
CONTINUOUS
10
169.982
20
-182.509
11
169.696
21
-182.652
0
LINE
8
BLACK
6
CONTINUOUS
10
169.696
20
-182.652
11
169.125
21
-182.652
0
LINE
8
BLACK
6
CONTINUOUS
10
169.125
20
-182.652
11
168.839
21
-182.509
0
LINE
8
BLACK
6
CONTINUOUS
10
168.839
20
-182.509
11
168.696
21
-182.224
0
LINE
8
BLACK
6
CONTINUOUS
10
168.696
20
-182.224
11
168.696
21
-181.081
0
LINE
8
BLACK
6
CONTINUOUS
10
168.696
20
-181.081
11
168.839
21
-180.795
0
LINE
8
BLACK
6
CONTINUOUS
10
168.839
20
-180.795
11
169.125
21
-180.652
0
LINE
8
BLACK
6
CONTINUOUS
10
169.125
20
-180.652
11
169.696
21
-180.652
0
LINE
8
BLACK
6
CONTINUOUS
10
169.696
20
-180.652
11
169.982
21
-180.795
0
LINE
8
BLACK
6
CONTINUOUS
10
169.982
20
-180.795
11
170.125
21
-181.081
0
LINE
8
BLACK
6
CONTINUOUS
10
170.125
20
-181.081
11
170.125
21
-181.366
0
LINE
8
BLACK
6
CONTINUOUS
10
170.125
20
-181.366
11
168.696
21
-181.652
0
LINE
8
BLACK
6
CONTINUOUS
10
171.268
20
-182.509
11
171.554
21
-182.652
0
LINE
8
BLACK
6
CONTINUOUS
10
171.554
20
-182.652
11
172.125
21
-182.652
0
LINE
8
BLACK
6
CONTINUOUS
10
172.125
20
-182.652
11
172.411
21
-182.509
0
LINE
8
BLACK
6
CONTINUOUS
10
172.411
20
-182.509
11
172.554
21
-182.224
0
LINE
8
BLACK
6
CONTINUOUS
10
172.554
20
-182.224
11
172.554
21
-182.081
0
LINE
8
BLACK
6
CONTINUOUS
10
172.554
20
-182.081
11
172.411
21
-181.795
0
LINE
8
BLACK
6
CONTINUOUS
10
172.411
20
-181.795
11
172.125
21
-181.652
0
LINE
8
BLACK
6
CONTINUOUS
10
172.125
20
-181.652
11
171.696
21
-181.652
0
LINE
8
BLACK
6
CONTINUOUS
10
171.696
20
-181.652
11
171.411
21
-181.509
0
LINE
8
BLACK
6
CONTINUOUS
10
171.411
20
-181.509
11
171.268
21
-181.224
0
LINE
8
BLACK
6
CONTINUOUS
10
171.268
20
-181.224
11
171.268
21
-181.081
0
LINE
8
BLACK
6
CONTINUOUS
10
171.268
20
-181.081
11
171.411
21
-180.795
0
LINE
8
BLACK
6
CONTINUOUS
10
171.411
20
-180.795
11
171.696
21
-180.652
0
LINE
8
BLACK
6
CONTINUOUS
10
171.696
20
-180.652
11
172.125
21
-180.652
0
LINE
8
BLACK
6
CONTINUOUS
10
172.125
20
-180.652
11
172.411
21
-180.795
0
LINE
8
BLACK
6
CONTINUOUS
10
173.554
20
-183.795
11
173.696
21
-183.652
0
LINE
8
BLACK
6
CONTINUOUS
10
173.696
20
-183.652
11
173.982
21
-183.224
0
LINE
8
BLACK
6
CONTINUOUS
10
173.982
20
-183.224
11
174.125
21
-182.938
0
LINE
8
BLACK
6
CONTINUOUS
10
174.125
20
-182.938
11
174.268
21
-182.509
0
LINE
8
BLACK
6
CONTINUOUS
10
174.268
20
-182.509
11
174.411
21
-181.795
0
LINE
8
BLACK
6
CONTINUOUS
10
174.411
20
-181.795
11
174.411
21
-181.224
0
LINE
8
BLACK
6
CONTINUOUS
10
174.411
20
-181.224
11
174.268
21
-180.509
0
LINE
8
BLACK
6
CONTINUOUS
10
174.268
20
-180.509
11
174.125
21
-180.081
0
LINE
8
BLACK
6
CONTINUOUS
10
174.125
20
-180.081
11
173.982
21
-179.795
0
LINE
8
BLACK
6
CONTINUOUS
10
173.982
20
-179.795
11
173.696
21
-179.366
0
LINE
8
BLACK
6
CONTINUOUS
10
173.696
20
-179.366
11
173.554
21
-179.224
  0
ENDSEC
  0
EOF
