%TF.GenerationSoftware,KiCad,Pcbnew,(5.1.10)-1*%
%TF.CreationDate,2022-05-09T17:55:47-07:00*%
%TF.ProjectId,solar-panel-NoCutout,736f6c61-722d-4706-916e-656c2d4e6f43,1.0*%
%TF.SameCoordinates,Original*%
%TF.FileFunction,Profile,NP*%
%FSLAX46Y46*%
G04 Gerber Fmt 4.6, Leading zero omitted, Abs format (unit mm)*
G04 Created by KiCad (PCBNEW (5.1.10)-1) date 2022-05-09 17:55:47*
%MOMM*%
%LPD*%
G01*
G04 APERTURE LIST*
%TA.AperFunction,Profile*%
%ADD10C,0.050000*%
%TD*%
G04 APERTURE END LIST*
D10*
X152150000Y-153000000D02*
G75*
G02*
X146850000Y-153000000I-2650000J0D01*
G01*
X146850000Y-147000000D02*
G75*
G02*
X152150000Y-147000000I2650000J0D01*
G01*
X142150000Y-153000000D02*
G75*
G02*
X136850000Y-153000000I-2650000J0D01*
G01*
X136850000Y-147000000D02*
G75*
G02*
X142150000Y-147000000I2650000J0D01*
G01*
X152150000Y-82600000D02*
G75*
G02*
X146850000Y-82600000I-2650000J0D01*
G01*
X146850000Y-76600000D02*
G75*
G02*
X152150000Y-76600000I2650000J0D01*
G01*
X136850000Y-76600000D02*
G75*
G02*
X142150000Y-76600000I2650000J0D01*
G01*
X142150000Y-82600000D02*
G75*
G02*
X136850000Y-82600000I-2650000J0D01*
G01*
X152150000Y-76600000D02*
X152150000Y-82600000D01*
X146850000Y-76600000D02*
X146850000Y-82600000D01*
X136850000Y-76600000D02*
X136850000Y-82600000D01*
X142150000Y-76600000D02*
X142150000Y-82600000D01*
X152150000Y-153000000D02*
X152150000Y-147000000D01*
X146850000Y-147000000D02*
X146850000Y-153000000D01*
X142150000Y-153000000D02*
X142150000Y-147000000D01*
X136850000Y-153000000D02*
X136850000Y-147000000D01*
X183125000Y-114650000D02*
G75*
G03*
X183125000Y-114650000I-2625000J0D01*
G01*
X183125000Y-142150000D02*
G75*
G03*
X183125000Y-142150000I-2625000J0D01*
G01*
X111125000Y-142150000D02*
G75*
G03*
X111125000Y-142150000I-2625000J0D01*
G01*
X111125000Y-114650000D02*
G75*
G03*
X111125000Y-114650000I-2625000J0D01*
G01*
X186000000Y-65750000D02*
X103000000Y-65750000D01*
X186000000Y-163750000D02*
X186000000Y-65750000D01*
X103000000Y-163750000D02*
X186000000Y-163750000D01*
X103000000Y-65750000D02*
X103000000Y-163750000D01*
M02*
