%TF.GenerationSoftware,KiCad,Pcbnew,(5.1.10)-1*%
%TF.CreationDate,2022-05-09T22:41:18-07:00*%
%TF.ProjectId,solar-panel-NoCutout,736f6c61-722d-4706-916e-656c2d4e6f43,1.0*%
%TF.SameCoordinates,Original*%
%TF.FileFunction,Copper,L2,Inr*%
%TF.FilePolarity,Positive*%
%FSLAX46Y46*%
G04 Gerber Fmt 4.6, Leading zero omitted, Abs format (unit mm)*
G04 Created by KiCad (PCBNEW (5.1.10)-1) date 2022-05-09 22:41:18*
%MOMM*%
%LPD*%
G01*
G04 APERTURE LIST*
%TA.AperFunction,ComponentPad*%
%ADD10C,5.250000*%
%TD*%
%TA.AperFunction,ComponentPad*%
%ADD11C,3.000000*%
%TD*%
%TA.AperFunction,ViaPad*%
%ADD12C,0.800000*%
%TD*%
%TA.AperFunction,Conductor*%
%ADD13C,0.250000*%
%TD*%
G04 APERTURE END LIST*
D10*
%TO.N,Net-(J2-Pad1)*%
%TO.C,J2*%
X106500000Y-70300000D03*
%TD*%
%TO.N,Net-(J5-Pad1)*%
%TO.C,J5*%
X182500000Y-159300000D03*
%TD*%
%TO.N,Net-(J4-Pad1)*%
%TO.C,J4*%
X182500000Y-70300000D03*
%TD*%
%TO.N,Net-(J3-Pad1)*%
%TO.C,J3*%
X106500000Y-159300000D03*
%TD*%
D11*
%TO.N,GND*%
%TO.C,SC6*%
X172250000Y-70750000D03*
%TO.N,Net-(SC5-Pad2)*%
X163250000Y-70750000D03*
%TD*%
%TO.N,Net-(SC5-Pad2)*%
%TO.C,SC5*%
X163000000Y-158750000D03*
%TO.N,Net-(D3-Pad2)*%
X172000000Y-158750000D03*
%TD*%
%TO.N,GND*%
%TO.C,SC4*%
X149250000Y-70750000D03*
%TO.N,Net-(SC3-Pad2)*%
X140250000Y-70750000D03*
%TD*%
%TO.N,Net-(SC3-Pad2)*%
%TO.C,SC3*%
X140000000Y-158750000D03*
%TO.N,Net-(D2-Pad2)*%
X149000000Y-158750000D03*
%TD*%
%TO.N,GND*%
%TO.C,SC2*%
X126000000Y-70750000D03*
%TO.N,Net-(SC1-Pad2)*%
X117000000Y-70750000D03*
%TD*%
%TO.N,Net-(SC1-Pad2)*%
%TO.C,SC1*%
X117000000Y-158750000D03*
%TO.N,Net-(D1-Pad2)*%
X126000000Y-158750000D03*
%TD*%
D12*
%TO.N,GND*%
X124000000Y-115750000D03*
X164000000Y-109750000D03*
X145500000Y-102000000D03*
%TO.N,+3V3*%
X164250000Y-103250000D03*
X150500000Y-107500000D03*
X126500000Y-122894997D03*
%TO.N,VSOLAR*%
X124750000Y-128750000D03*
%TO.N,SDA*%
X162500000Y-105250000D03*
X139000000Y-109000000D03*
X129500000Y-120644998D03*
%TO.N,SCL*%
X163500000Y-104250000D03*
X142250000Y-108250000D03*
X128000000Y-121894996D03*
%TO.N,Net-(U2-Pad6)*%
X165250000Y-123250000D03*
X178500000Y-122000000D03*
X178500000Y-123500000D03*
%TD*%
D13*
%TO.N,Net-(U2-Pad6)*%
X123500000Y-97500000D02*
X123250000Y-97750000D01*
X165250000Y-97750000D02*
X165000000Y-97500000D01*
X123500000Y-132000000D02*
X123250000Y-131750000D01*
X165500000Y-132000000D02*
X123500000Y-132000000D01*
X165750000Y-131750000D02*
X165500000Y-132000000D01*
X165750000Y-97500000D02*
X165750000Y-131750000D01*
X165250000Y-97000000D02*
X165750000Y-97500000D01*
X123250000Y-97000000D02*
X165250000Y-97000000D01*
X122750000Y-97500000D02*
X123250000Y-97000000D01*
X122750000Y-132000000D02*
X122750000Y-97500000D01*
X123250000Y-132500000D02*
X122750000Y-132000000D01*
X165750000Y-132500000D02*
X123250000Y-132500000D01*
X166250000Y-132000000D02*
X165750000Y-132500000D01*
X166250000Y-97250000D02*
X166250000Y-132000000D01*
X165500000Y-96500000D02*
X166250000Y-97250000D01*
X123000000Y-96500000D02*
X165500000Y-96500000D01*
X122250000Y-97250000D02*
X123000000Y-96500000D01*
X122250000Y-132250000D02*
X122250000Y-97250000D01*
X123000000Y-133000000D02*
X122250000Y-132250000D01*
X166000000Y-133000000D02*
X123000000Y-133000000D01*
X166750000Y-132250000D02*
X166000000Y-133000000D01*
X166750000Y-97000000D02*
X166750000Y-132250000D01*
X165750000Y-96000000D02*
X166750000Y-97000000D01*
X122750000Y-96000000D02*
X165750000Y-96000000D01*
X121750000Y-97000000D02*
X122750000Y-96000000D01*
X121750000Y-132500000D02*
X121750000Y-97000000D01*
X122750000Y-133500000D02*
X121750000Y-132500000D01*
X166250000Y-133500000D02*
X122750000Y-133500000D01*
X167250000Y-132500000D02*
X166250000Y-133500000D01*
X167250000Y-96750000D02*
X167250000Y-132500000D01*
X166000000Y-95500000D02*
X167250000Y-96750000D01*
X122500000Y-95500000D02*
X166000000Y-95500000D01*
X121250000Y-96750000D02*
X122500000Y-95500000D01*
X121250000Y-132750000D02*
X121250000Y-96750000D01*
X122500000Y-134000000D02*
X121250000Y-132750000D01*
X166500000Y-134000000D02*
X122500000Y-134000000D01*
X167750000Y-132750000D02*
X166500000Y-134000000D01*
X167750000Y-96500000D02*
X167750000Y-132750000D01*
X166250000Y-95000000D02*
X167750000Y-96500000D01*
X122250000Y-95000000D02*
X166250000Y-95000000D01*
X120750000Y-96500000D02*
X122250000Y-95000000D01*
X120750000Y-133000000D02*
X120750000Y-96500000D01*
X122250000Y-134500000D02*
X120750000Y-133000000D01*
X166750000Y-134500000D02*
X122250000Y-134500000D01*
X168250000Y-133000000D02*
X166750000Y-134500000D01*
X168250000Y-96250000D02*
X168250000Y-133000000D01*
X166500000Y-94500000D02*
X168250000Y-96250000D01*
X122000000Y-94500000D02*
X166500000Y-94500000D01*
X120250000Y-96250000D02*
X122000000Y-94500000D01*
X120250000Y-133250000D02*
X120250000Y-96250000D01*
X122000000Y-135000000D02*
X120250000Y-133250000D01*
X167000000Y-135000000D02*
X122000000Y-135000000D01*
X168750000Y-133250000D02*
X167000000Y-135000000D01*
X168750000Y-96000000D02*
X168750000Y-133250000D01*
X166750000Y-94000000D02*
X168750000Y-96000000D01*
X121750000Y-94000000D02*
X166750000Y-94000000D01*
X119750000Y-96000000D02*
X121750000Y-94000000D01*
X119750000Y-133500000D02*
X119750000Y-96000000D01*
X121750000Y-135500000D02*
X119750000Y-133500000D01*
X167250000Y-135500000D02*
X121750000Y-135500000D01*
X169250000Y-133500000D02*
X167250000Y-135500000D01*
X169250000Y-95750000D02*
X169250000Y-133500000D01*
X167000000Y-93500000D02*
X169250000Y-95750000D01*
X173750000Y-135750000D02*
X169500000Y-140000000D01*
X169250000Y-89000000D02*
X173750000Y-93500000D01*
X119250000Y-89000000D02*
X169250000Y-89000000D01*
X114750000Y-93500000D02*
X119250000Y-89000000D01*
X114750000Y-136000000D02*
X114750000Y-93500000D01*
X174250000Y-136000000D02*
X169750000Y-140500000D01*
X174250000Y-93250000D02*
X174250000Y-136000000D01*
X169500000Y-88500000D02*
X174250000Y-93250000D01*
X119000000Y-88500000D02*
X169500000Y-88500000D01*
X174750000Y-136250000D02*
X170000000Y-141000000D01*
X118750000Y-88000000D02*
X169750000Y-88000000D01*
X119250000Y-140500000D02*
X114750000Y-136000000D01*
X113750000Y-93000000D02*
X118750000Y-88000000D01*
X113750000Y-136500000D02*
X113750000Y-93000000D01*
X118750000Y-141500000D02*
X113750000Y-136500000D01*
X170750000Y-134250000D02*
X168000000Y-137000000D01*
X170000000Y-141000000D02*
X119000000Y-141000000D01*
X170250000Y-141500000D02*
X118750000Y-141500000D01*
X175250000Y-136500000D02*
X170250000Y-141500000D01*
X175250000Y-92750000D02*
X175250000Y-136500000D01*
X170000000Y-87500000D02*
X175250000Y-92750000D01*
X118500000Y-87500000D02*
X170000000Y-87500000D01*
X167750000Y-92000000D02*
X170750000Y-95000000D01*
X118000000Y-143000000D02*
X112250000Y-137250000D01*
X171250000Y-143500000D02*
X117750000Y-143500000D01*
X121250000Y-93000000D02*
X167250000Y-93000000D01*
X176750000Y-137250000D02*
X171000000Y-143000000D01*
X169750000Y-95500000D02*
X169750000Y-133750000D01*
X174750000Y-93000000D02*
X174750000Y-136250000D01*
X170750000Y-86000000D02*
X176750000Y-92000000D01*
X118500000Y-142000000D02*
X113250000Y-136750000D01*
X112250000Y-137250000D02*
X112250000Y-92250000D01*
X111750000Y-92000000D02*
X117750000Y-86000000D01*
X118250000Y-87000000D02*
X170250000Y-87000000D01*
X111750000Y-137500000D02*
X111750000Y-92000000D01*
X117750000Y-143500000D02*
X111750000Y-137500000D01*
X173750000Y-93500000D02*
X173750000Y-135750000D01*
X171000000Y-143000000D02*
X118000000Y-143000000D01*
X167500000Y-92500000D02*
X170250000Y-95250000D01*
X114250000Y-93250000D02*
X119000000Y-88500000D01*
X113250000Y-136750000D02*
X113250000Y-92750000D01*
X121000000Y-92500000D02*
X167500000Y-92500000D01*
X177250000Y-137500000D02*
X171250000Y-143500000D01*
X169750000Y-133750000D02*
X167500000Y-136000000D01*
X114250000Y-136250000D02*
X114250000Y-93250000D01*
X117750000Y-86000000D02*
X170750000Y-86000000D01*
X119000000Y-141000000D02*
X114250000Y-136250000D01*
X113250000Y-92750000D02*
X118500000Y-87500000D01*
X121250000Y-136500000D02*
X118750000Y-134000000D01*
X112250000Y-92250000D02*
X118000000Y-86500000D01*
X167750000Y-136500000D02*
X121250000Y-136500000D01*
X169750000Y-140500000D02*
X119250000Y-140500000D01*
X169750000Y-88000000D02*
X174750000Y-93000000D01*
X118000000Y-86500000D02*
X170500000Y-86500000D01*
X117250000Y-134750000D02*
X117250000Y-94750000D01*
X175750000Y-92500000D02*
X175750000Y-136750000D01*
X170500000Y-86500000D02*
X176250000Y-92250000D01*
X121500000Y-136000000D02*
X119250000Y-133750000D01*
X176250000Y-92250000D02*
X176250000Y-137000000D01*
X170250000Y-87000000D02*
X175750000Y-92500000D01*
X176250000Y-137000000D02*
X170750000Y-142500000D01*
X170750000Y-142500000D02*
X118250000Y-142500000D01*
X121000000Y-137000000D02*
X118250000Y-134250000D01*
X118250000Y-142500000D02*
X112750000Y-137000000D01*
X170750000Y-95000000D02*
X170750000Y-134250000D01*
X112750000Y-137000000D02*
X112750000Y-92500000D01*
X169500000Y-140000000D02*
X119500000Y-140000000D01*
X112750000Y-92500000D02*
X118250000Y-87000000D01*
X176750000Y-92000000D02*
X176750000Y-137250000D01*
X170250000Y-134000000D02*
X167750000Y-136500000D01*
X175750000Y-136750000D02*
X170500000Y-142000000D01*
X167250000Y-93000000D02*
X169750000Y-95500000D01*
X170500000Y-142000000D02*
X118500000Y-142000000D01*
X119500000Y-140000000D02*
X115250000Y-135750000D01*
X115250000Y-135750000D02*
X115250000Y-93750000D01*
X115250000Y-93750000D02*
X119500000Y-89500000D01*
X119500000Y-89500000D02*
X169000000Y-89500000D01*
X169000000Y-89500000D02*
X173250000Y-93750000D01*
X173250000Y-93750000D02*
X173250000Y-135500000D01*
X173250000Y-135500000D02*
X169250000Y-139500000D01*
X169250000Y-139500000D02*
X119750000Y-139500000D01*
X119750000Y-139500000D02*
X115750000Y-135500000D01*
X115750000Y-135500000D02*
X115750000Y-94000000D01*
X115750000Y-94000000D02*
X119750000Y-90000000D01*
X119750000Y-90000000D02*
X168750000Y-90000000D01*
X168750000Y-90000000D02*
X172750000Y-94000000D01*
X118750000Y-95500000D02*
X121250000Y-93000000D01*
X172750000Y-94000000D02*
X172750000Y-135250000D01*
X172750000Y-135250000D02*
X169000000Y-139000000D01*
X169000000Y-139000000D02*
X120000000Y-139000000D01*
X120000000Y-139000000D02*
X116250000Y-135250000D01*
X116250000Y-135250000D02*
X116250000Y-94250000D01*
X116250000Y-94250000D02*
X120000000Y-90500000D01*
X120000000Y-90500000D02*
X168500000Y-90500000D01*
X168500000Y-90500000D02*
X172250000Y-94250000D01*
X172250000Y-94250000D02*
X172250000Y-135000000D01*
X172250000Y-135000000D02*
X168750000Y-138500000D01*
X168750000Y-138500000D02*
X120250000Y-138500000D01*
X120250000Y-138500000D02*
X116750000Y-135000000D01*
X116750000Y-135000000D02*
X116750000Y-94500000D01*
X116750000Y-94500000D02*
X120250000Y-91000000D01*
X120250000Y-91000000D02*
X168250000Y-91000000D01*
X168250000Y-91000000D02*
X171750000Y-94500000D01*
X171750000Y-94500000D02*
X171750000Y-134750000D01*
X171750000Y-134750000D02*
X168500000Y-138000000D01*
X168500000Y-138000000D02*
X120500000Y-138000000D01*
X120500000Y-138000000D02*
X117250000Y-134750000D01*
X117250000Y-94750000D02*
X120500000Y-91500000D01*
X120500000Y-91500000D02*
X168000000Y-91500000D01*
X168000000Y-91500000D02*
X171250000Y-94750000D01*
X171250000Y-94750000D02*
X171250000Y-134500000D01*
X171250000Y-134500000D02*
X168250000Y-137500000D01*
X168250000Y-137500000D02*
X120750000Y-137500000D01*
X120750000Y-137500000D02*
X117750000Y-134500000D01*
X117750000Y-134500000D02*
X117750000Y-95000000D01*
X117750000Y-95000000D02*
X120750000Y-92000000D01*
X120750000Y-92000000D02*
X167750000Y-92000000D01*
X168000000Y-137000000D02*
X121000000Y-137000000D01*
X118250000Y-134250000D02*
X118250000Y-95250000D01*
X118250000Y-95250000D02*
X121000000Y-92500000D01*
X170250000Y-95250000D02*
X170250000Y-134000000D01*
X118750000Y-134000000D02*
X118750000Y-95500000D01*
X167500000Y-136000000D02*
X121500000Y-136000000D01*
X119250000Y-133750000D02*
X119250000Y-95750000D01*
X119250000Y-95750000D02*
X121500000Y-93500000D01*
X121500000Y-93500000D02*
X167000000Y-93500000D01*
X123250000Y-131750000D02*
X123250000Y-97750000D01*
X123500000Y-97500000D02*
X165000000Y-97500000D01*
X165250000Y-97750000D02*
X165250000Y-122000000D01*
X165250000Y-122000000D02*
X165250000Y-123250000D01*
X165250000Y-123250000D02*
X165250000Y-123250000D01*
X177250000Y-125250000D02*
X177250000Y-124750000D01*
X177250000Y-137500000D02*
X177250000Y-125250000D01*
X177250000Y-124750000D02*
X178500000Y-123500000D01*
%TD*%
M02*
