%TF.GenerationSoftware,KiCad,Pcbnew,(5.1.10)-1*%
%TF.CreationDate,2022-06-07T20:51:06-07:00*%
%TF.ProjectId,solar-panel-NoCutout,736f6c61-722d-4706-916e-656c2d4e6f43,1.1*%
%TF.SameCoordinates,Original*%
%TF.FileFunction,Legend,Top*%
%TF.FilePolarity,Positive*%
%FSLAX46Y46*%
G04 Gerber Fmt 4.6, Leading zero omitted, Abs format (unit mm)*
G04 Created by KiCad (PCBNEW (5.1.10)-1) date 2022-06-07 20:51:06*
%MOMM*%
%LPD*%
G01*
G04 APERTURE LIST*
%ADD10C,0.150000*%
%ADD11C,0.100000*%
%ADD12C,0.300000*%
%ADD13C,0.120000*%
%ADD14C,0.200000*%
G04 APERTURE END LIST*
D10*
X106238095Y-120000000D02*
X106142857Y-119952380D01*
X106000000Y-119952380D01*
X105857142Y-120000000D01*
X105761904Y-120095238D01*
X105714285Y-120190476D01*
X105666666Y-120380952D01*
X105666666Y-120523809D01*
X105714285Y-120714285D01*
X105761904Y-120809523D01*
X105857142Y-120904761D01*
X106000000Y-120952380D01*
X106095238Y-120952380D01*
X106238095Y-120904761D01*
X106285714Y-120857142D01*
X106285714Y-120523809D01*
X106095238Y-120523809D01*
X106714285Y-120952380D02*
X106714285Y-119952380D01*
X107285714Y-120952380D01*
X107285714Y-119952380D01*
X107761904Y-120952380D02*
X107761904Y-119952380D01*
X108000000Y-119952380D01*
X108142857Y-120000000D01*
X108238095Y-120095238D01*
X108285714Y-120190476D01*
X108333333Y-120380952D01*
X108333333Y-120523809D01*
X108285714Y-120714285D01*
X108238095Y-120809523D01*
X108142857Y-120904761D01*
X108000000Y-120952380D01*
X107761904Y-120952380D01*
X104714285Y-128452380D02*
X105047619Y-129452380D01*
X105380952Y-128452380D01*
X105666666Y-129404761D02*
X105809523Y-129452380D01*
X106047619Y-129452380D01*
X106142857Y-129404761D01*
X106190476Y-129357142D01*
X106238095Y-129261904D01*
X106238095Y-129166666D01*
X106190476Y-129071428D01*
X106142857Y-129023809D01*
X106047619Y-128976190D01*
X105857142Y-128928571D01*
X105761904Y-128880952D01*
X105714285Y-128833333D01*
X105666666Y-128738095D01*
X105666666Y-128642857D01*
X105714285Y-128547619D01*
X105761904Y-128500000D01*
X105857142Y-128452380D01*
X106095238Y-128452380D01*
X106238095Y-128500000D01*
X106809523Y-129452380D02*
X106714285Y-129404761D01*
X106666666Y-129357142D01*
X106619047Y-129261904D01*
X106619047Y-128976190D01*
X106666666Y-128880952D01*
X106714285Y-128833333D01*
X106809523Y-128785714D01*
X106952380Y-128785714D01*
X107047619Y-128833333D01*
X107095238Y-128880952D01*
X107142857Y-128976190D01*
X107142857Y-129261904D01*
X107095238Y-129357142D01*
X107047619Y-129404761D01*
X106952380Y-129452380D01*
X106809523Y-129452380D01*
X107714285Y-129452380D02*
X107619047Y-129404761D01*
X107571428Y-129309523D01*
X107571428Y-128452380D01*
X108523809Y-129452380D02*
X108523809Y-128928571D01*
X108476190Y-128833333D01*
X108380952Y-128785714D01*
X108190476Y-128785714D01*
X108095238Y-128833333D01*
X108523809Y-129404761D02*
X108428571Y-129452380D01*
X108190476Y-129452380D01*
X108095238Y-129404761D01*
X108047619Y-129309523D01*
X108047619Y-129214285D01*
X108095238Y-129119047D01*
X108190476Y-129071428D01*
X108428571Y-129071428D01*
X108523809Y-129023809D01*
X108999999Y-129452380D02*
X108999999Y-128785714D01*
X108999999Y-128976190D02*
X109047619Y-128880952D01*
X109095238Y-128833333D01*
X109190476Y-128785714D01*
X109285714Y-128785714D01*
D11*
G36*
X184277000Y-98552000D02*
G01*
X182943500Y-98552000D01*
X182943500Y-97282000D01*
X184277000Y-97282000D01*
X184277000Y-98552000D01*
G37*
X184277000Y-98552000D02*
X182943500Y-98552000D01*
X182943500Y-97282000D01*
X184277000Y-97282000D01*
X184277000Y-98552000D01*
G36*
X184277000Y-96583500D02*
G01*
X182943500Y-96583500D01*
X182943500Y-95313500D01*
X184277000Y-95313500D01*
X184277000Y-96583500D01*
G37*
X184277000Y-96583500D02*
X182943500Y-96583500D01*
X182943500Y-95313500D01*
X184277000Y-95313500D01*
X184277000Y-96583500D01*
G36*
X184213500Y-94551500D02*
G01*
X182880000Y-94551500D01*
X182880000Y-93281500D01*
X184213500Y-93281500D01*
X184213500Y-94551500D01*
G37*
X184213500Y-94551500D02*
X182880000Y-94551500D01*
X182880000Y-93281500D01*
X184213500Y-93281500D01*
X184213500Y-94551500D01*
G36*
X184213500Y-92583000D02*
G01*
X182880000Y-92583000D01*
X182880000Y-91313000D01*
X184213500Y-91313000D01*
X184213500Y-92583000D01*
G37*
X184213500Y-92583000D02*
X182880000Y-92583000D01*
X182880000Y-91313000D01*
X184213500Y-91313000D01*
X184213500Y-92583000D01*
D10*
X180190476Y-98071428D02*
X180952380Y-98071428D01*
X181619047Y-97976190D02*
X181619047Y-98452380D01*
X181285714Y-97452380D02*
X181619047Y-97976190D01*
X181952380Y-97452380D01*
X180190476Y-96071428D02*
X180952380Y-96071428D01*
X180571428Y-96452380D02*
X180571428Y-95690476D01*
X181619047Y-95976190D02*
X181619047Y-96452380D01*
X181285714Y-95452380D02*
X181619047Y-95976190D01*
X181952380Y-95452380D01*
X180142857Y-94071428D02*
X180904761Y-94071428D01*
X181285714Y-93452380D02*
X181952380Y-94452380D01*
X181952380Y-93452380D02*
X181285714Y-94452380D01*
X180142857Y-92071428D02*
X180904761Y-92071428D01*
X180523809Y-92452380D02*
X180523809Y-91690476D01*
X181285714Y-91452380D02*
X181952380Y-92452380D01*
X181952380Y-91452380D02*
X181285714Y-92452380D01*
D12*
%TO.C,SC4*%
X133000000Y-101250000D02*
X111000000Y-101250000D01*
X133000000Y-66250000D02*
X133000000Y-101250000D01*
X111000000Y-66250000D02*
X133000000Y-66250000D01*
X111000000Y-101250000D02*
X111000000Y-66250000D01*
D13*
%TO.C,J7*%
X108200000Y-125600000D02*
X108200000Y-128000000D01*
X108200000Y-128000000D02*
X105800000Y-128000000D01*
X105800000Y-128000000D02*
X105800000Y-125600000D01*
X105800000Y-125600000D02*
X108200000Y-125600000D01*
%TO.C,J6*%
X108200000Y-121550000D02*
X108200000Y-123950000D01*
X108200000Y-123950000D02*
X105800000Y-123950000D01*
X105800000Y-123950000D02*
X105800000Y-121550000D01*
X105800000Y-121550000D02*
X108200000Y-121550000D01*
%TO.C,U1*%
X158450000Y-111250000D02*
X158450000Y-120140000D01*
X145750000Y-120140000D02*
X158450000Y-120140000D01*
X145750000Y-120140000D02*
X133050000Y-120140000D01*
X133050000Y-111250000D02*
X133050000Y-120140000D01*
X158450000Y-111250000D02*
X158450000Y-102360000D01*
X145750000Y-102360000D02*
X158450000Y-102360000D01*
X133050000Y-111250000D02*
X133050000Y-102360000D01*
X145750000Y-102360000D02*
X133050000Y-102360000D01*
%TO.C,U3*%
X121250000Y-108586000D02*
X111090000Y-108586000D01*
X111090000Y-108586000D02*
X111090000Y-114936000D01*
X121250000Y-108586000D02*
X131410000Y-108586000D01*
X131410000Y-108586000D02*
X131410000Y-114936000D01*
X111090000Y-121286000D02*
X111090000Y-114936000D01*
X121250000Y-121286000D02*
X111090000Y-121286000D01*
X131410000Y-121286000D02*
X131410000Y-114936000D01*
X121250000Y-121286000D02*
X131410000Y-121286000D01*
%TO.C,U2*%
X178890000Y-121355000D02*
X161110000Y-121355000D01*
X161110000Y-104845000D02*
X161110000Y-121355000D01*
X178890000Y-106750000D02*
X178890000Y-121355000D01*
X178890000Y-104845000D02*
X178890000Y-106750000D01*
X170000000Y-104845000D02*
X178890000Y-104845000D01*
X170000000Y-104845000D02*
X161110000Y-104845000D01*
D12*
%TO.C,SC6*%
X156000000Y-101250000D02*
X156000000Y-66250000D01*
X156000000Y-66250000D02*
X178000000Y-66250000D01*
X178000000Y-66250000D02*
X178000000Y-101250000D01*
X178000000Y-101250000D02*
X156000000Y-101250000D01*
%TO.C,SC5*%
X155500000Y-101250000D02*
X133500000Y-101250000D01*
X155500000Y-66250000D02*
X155500000Y-101250000D01*
X133500000Y-66250000D02*
X155500000Y-66250000D01*
X133500000Y-101250000D02*
X133500000Y-66250000D01*
%TO.C,SC3*%
X133000000Y-128250000D02*
X133000000Y-163250000D01*
X133000000Y-163250000D02*
X111000000Y-163250000D01*
X111000000Y-163250000D02*
X111000000Y-128250000D01*
X111000000Y-128250000D02*
X133000000Y-128250000D01*
%TO.C,SC2*%
X155500000Y-128250000D02*
X155500000Y-163250000D01*
X155500000Y-163250000D02*
X133500000Y-163250000D01*
X133500000Y-163250000D02*
X133500000Y-128250000D01*
X133500000Y-128250000D02*
X155500000Y-128250000D01*
%TO.C,SC1*%
X178000000Y-128250000D02*
X178000000Y-163250000D01*
X178000000Y-163250000D02*
X156000000Y-163250000D01*
X156000000Y-163250000D02*
X156000000Y-128250000D01*
X156000000Y-128250000D02*
X178000000Y-128250000D01*
D13*
%TO.C,D2*%
X124875000Y-103550000D02*
X120125000Y-103550000D01*
X120125000Y-103550000D02*
X120125000Y-106450000D01*
X124875000Y-103550000D02*
X124875000Y-106450000D01*
X124875000Y-106450000D02*
X120125000Y-106450000D01*
D11*
G36*
X121992000Y-104288800D02*
G01*
X122804800Y-105025400D01*
X121992000Y-105635000D01*
X121992000Y-104288800D01*
G37*
X121992000Y-104288800D02*
X122804800Y-105025400D01*
X121992000Y-105635000D01*
X121992000Y-104288800D01*
D13*
X122931800Y-105812800D02*
X122931800Y-104263400D01*
%TO.C,D1*%
X166568200Y-125187200D02*
X166568200Y-126736600D01*
D11*
G36*
X167508000Y-126711200D02*
G01*
X166695200Y-125974600D01*
X167508000Y-125365000D01*
X167508000Y-126711200D01*
G37*
X167508000Y-126711200D02*
X166695200Y-125974600D01*
X167508000Y-125365000D01*
X167508000Y-126711200D01*
D13*
X164625000Y-124550000D02*
X169375000Y-124550000D01*
X164625000Y-127450000D02*
X164625000Y-124550000D01*
X169375000Y-127450000D02*
X169375000Y-124550000D01*
X164625000Y-127450000D02*
X169375000Y-127450000D01*
%TO.C,SC4*%
D10*
X122904761Y-85011904D02*
X122952380Y-84869047D01*
X122952380Y-84630952D01*
X122904761Y-84535714D01*
X122857142Y-84488095D01*
X122761904Y-84440476D01*
X122666666Y-84440476D01*
X122571428Y-84488095D01*
X122523809Y-84535714D01*
X122476190Y-84630952D01*
X122428571Y-84821428D01*
X122380952Y-84916666D01*
X122333333Y-84964285D01*
X122238095Y-85011904D01*
X122142857Y-85011904D01*
X122047619Y-84964285D01*
X122000000Y-84916666D01*
X121952380Y-84821428D01*
X121952380Y-84583333D01*
X122000000Y-84440476D01*
X122857142Y-83440476D02*
X122904761Y-83488095D01*
X122952380Y-83630952D01*
X122952380Y-83726190D01*
X122904761Y-83869047D01*
X122809523Y-83964285D01*
X122714285Y-84011904D01*
X122523809Y-84059523D01*
X122380952Y-84059523D01*
X122190476Y-84011904D01*
X122095238Y-83964285D01*
X122000000Y-83869047D01*
X121952380Y-83726190D01*
X121952380Y-83630952D01*
X122000000Y-83488095D01*
X122047619Y-83440476D01*
X122285714Y-82583333D02*
X122952380Y-82583333D01*
X121904761Y-82821428D02*
X122619047Y-83059523D01*
X122619047Y-82440476D01*
X119864761Y-88297619D02*
X119912380Y-88154761D01*
X119912380Y-87916666D01*
X119864761Y-87821428D01*
X119817142Y-87773809D01*
X119721904Y-87726190D01*
X119626666Y-87726190D01*
X119531428Y-87773809D01*
X119483809Y-87821428D01*
X119436190Y-87916666D01*
X119388571Y-88107142D01*
X119340952Y-88202380D01*
X119293333Y-88250000D01*
X119198095Y-88297619D01*
X119102857Y-88297619D01*
X119007619Y-88250000D01*
X118960000Y-88202380D01*
X118912380Y-88107142D01*
X118912380Y-87869047D01*
X118960000Y-87726190D01*
X119912380Y-87297619D02*
X118912380Y-87297619D01*
X119626666Y-86964285D01*
X118912380Y-86630952D01*
X119912380Y-86630952D01*
X119912380Y-85630952D02*
X119912380Y-86202380D01*
X119912380Y-85916666D02*
X118912380Y-85916666D01*
X119055238Y-86011904D01*
X119150476Y-86107142D01*
X119198095Y-86202380D01*
X118912380Y-85011904D02*
X118912380Y-84916666D01*
X118960000Y-84821428D01*
X119007619Y-84773809D01*
X119102857Y-84726190D01*
X119293333Y-84678571D01*
X119531428Y-84678571D01*
X119721904Y-84726190D01*
X119817142Y-84773809D01*
X119864761Y-84821428D01*
X119912380Y-84916666D01*
X119912380Y-85011904D01*
X119864761Y-85107142D01*
X119817142Y-85154761D01*
X119721904Y-85202380D01*
X119531428Y-85250000D01*
X119293333Y-85250000D01*
X119102857Y-85202380D01*
X119007619Y-85154761D01*
X118960000Y-85107142D01*
X118912380Y-85011904D01*
X119912380Y-83726190D02*
X119912380Y-84297619D01*
X119912380Y-84011904D02*
X118912380Y-84011904D01*
X119055238Y-84107142D01*
X119150476Y-84202380D01*
X119198095Y-84297619D01*
X119912380Y-83297619D02*
X118912380Y-83297619D01*
X119912380Y-82726190D02*
X119340952Y-83154761D01*
X118912380Y-82726190D02*
X119483809Y-83297619D01*
X118912380Y-82107142D02*
X118912380Y-82011904D01*
X118960000Y-81916666D01*
X119007619Y-81869047D01*
X119102857Y-81821428D01*
X119293333Y-81773809D01*
X119531428Y-81773809D01*
X119721904Y-81821428D01*
X119817142Y-81869047D01*
X119864761Y-81916666D01*
X119912380Y-82011904D01*
X119912380Y-82107142D01*
X119864761Y-82202380D01*
X119817142Y-82250000D01*
X119721904Y-82297619D01*
X119531428Y-82345238D01*
X119293333Y-82345238D01*
X119102857Y-82297619D01*
X119007619Y-82250000D01*
X118960000Y-82202380D01*
X118912380Y-82107142D01*
X118912380Y-81440476D02*
X118912380Y-80773809D01*
X119912380Y-81202380D01*
X118912380Y-80535714D02*
X118912380Y-79964285D01*
X119912380Y-80250000D02*
X118912380Y-80250000D01*
X119388571Y-79297619D02*
X119388571Y-79630952D01*
X119912380Y-79630952D02*
X118912380Y-79630952D01*
X118912380Y-79154761D01*
D12*
X113464285Y-74642857D02*
X113464285Y-72357142D01*
X114607142Y-73500000D02*
X112321428Y-73500000D01*
X129107142Y-73464285D02*
X131392857Y-73464285D01*
%TO.C,J7*%
D10*
X108450380Y-127133333D02*
X109164666Y-127133333D01*
X109307523Y-127180952D01*
X109402761Y-127276190D01*
X109450380Y-127419047D01*
X109450380Y-127514285D01*
X108450380Y-126752380D02*
X108450380Y-126085714D01*
X109450380Y-126514285D01*
%TO.C,J6*%
X108450380Y-123083333D02*
X109164666Y-123083333D01*
X109307523Y-123130952D01*
X109402761Y-123226190D01*
X109450380Y-123369047D01*
X109450380Y-123464285D01*
X108450380Y-122178571D02*
X108450380Y-122369047D01*
X108498000Y-122464285D01*
X108545619Y-122511904D01*
X108688476Y-122607142D01*
X108878952Y-122654761D01*
X109259904Y-122654761D01*
X109355142Y-122607142D01*
X109402761Y-122559523D01*
X109450380Y-122464285D01*
X109450380Y-122273809D01*
X109402761Y-122178571D01*
X109355142Y-122130952D01*
X109259904Y-122083333D01*
X109021809Y-122083333D01*
X108926571Y-122130952D01*
X108878952Y-122178571D01*
X108831333Y-122273809D01*
X108831333Y-122464285D01*
X108878952Y-122559523D01*
X108926571Y-122607142D01*
X109021809Y-122654761D01*
%TO.C,U1*%
X144988095Y-110202380D02*
X144988095Y-111011904D01*
X145035714Y-111107142D01*
X145083333Y-111154761D01*
X145178571Y-111202380D01*
X145369047Y-111202380D01*
X145464285Y-111154761D01*
X145511904Y-111107142D01*
X145559523Y-111011904D01*
X145559523Y-110202380D01*
X146559523Y-111202380D02*
X145988095Y-111202380D01*
X146273809Y-111202380D02*
X146273809Y-110202380D01*
X146178571Y-110345238D01*
X146083333Y-110440476D01*
X145988095Y-110488095D01*
%TO.C,J2*%
X105666666Y-70252380D02*
X105666666Y-70966666D01*
X105619047Y-71109523D01*
X105523809Y-71204761D01*
X105380952Y-71252380D01*
X105285714Y-71252380D01*
X106095238Y-70347619D02*
X106142857Y-70300000D01*
X106238095Y-70252380D01*
X106476190Y-70252380D01*
X106571428Y-70300000D01*
X106619047Y-70347619D01*
X106666666Y-70442857D01*
X106666666Y-70538095D01*
X106619047Y-70680952D01*
X106047619Y-71252380D01*
X106666666Y-71252380D01*
%TO.C,J5*%
X182666666Y-159252380D02*
X182666666Y-159966666D01*
X182619047Y-160109523D01*
X182523809Y-160204761D01*
X182380952Y-160252380D01*
X182285714Y-160252380D01*
X183619047Y-159252380D02*
X183142857Y-159252380D01*
X183095238Y-159728571D01*
X183142857Y-159680952D01*
X183238095Y-159633333D01*
X183476190Y-159633333D01*
X183571428Y-159680952D01*
X183619047Y-159728571D01*
X183666666Y-159823809D01*
X183666666Y-160061904D01*
X183619047Y-160157142D01*
X183571428Y-160204761D01*
X183476190Y-160252380D01*
X183238095Y-160252380D01*
X183142857Y-160204761D01*
X183095238Y-160157142D01*
%TO.C,J4*%
X182666666Y-70252380D02*
X182666666Y-70966666D01*
X182619047Y-71109523D01*
X182523809Y-71204761D01*
X182380952Y-71252380D01*
X182285714Y-71252380D01*
X183571428Y-70585714D02*
X183571428Y-71252380D01*
X183333333Y-70204761D02*
X183095238Y-70919047D01*
X183714285Y-70919047D01*
%TO.C,J3*%
X105666666Y-159252380D02*
X105666666Y-159966666D01*
X105619047Y-160109523D01*
X105523809Y-160204761D01*
X105380952Y-160252380D01*
X105285714Y-160252380D01*
X106047619Y-159252380D02*
X106666666Y-159252380D01*
X106333333Y-159633333D01*
X106476190Y-159633333D01*
X106571428Y-159680952D01*
X106619047Y-159728571D01*
X106666666Y-159823809D01*
X106666666Y-160061904D01*
X106619047Y-160157142D01*
X106571428Y-160204761D01*
X106476190Y-160252380D01*
X106190476Y-160252380D01*
X106095238Y-160204761D01*
X106047619Y-160157142D01*
%TO.C,U3*%
X120488095Y-114888380D02*
X120488095Y-115697904D01*
X120535714Y-115793142D01*
X120583333Y-115840761D01*
X120678571Y-115888380D01*
X120869047Y-115888380D01*
X120964285Y-115840761D01*
X121011904Y-115793142D01*
X121059523Y-115697904D01*
X121059523Y-114888380D01*
X121440476Y-114888380D02*
X122059523Y-114888380D01*
X121726190Y-115269333D01*
X121869047Y-115269333D01*
X121964285Y-115316952D01*
X122011904Y-115364571D01*
X122059523Y-115459809D01*
X122059523Y-115697904D01*
X122011904Y-115793142D01*
X121964285Y-115840761D01*
X121869047Y-115888380D01*
X121583333Y-115888380D01*
X121488095Y-115840761D01*
X121440476Y-115793142D01*
%TO.C,U2*%
X169238095Y-111282380D02*
X169238095Y-112091904D01*
X169285714Y-112187142D01*
X169333333Y-112234761D01*
X169428571Y-112282380D01*
X169619047Y-112282380D01*
X169714285Y-112234761D01*
X169761904Y-112187142D01*
X169809523Y-112091904D01*
X169809523Y-111282380D01*
X170238095Y-111377619D02*
X170285714Y-111330000D01*
X170380952Y-111282380D01*
X170619047Y-111282380D01*
X170714285Y-111330000D01*
X170761904Y-111377619D01*
X170809523Y-111472857D01*
X170809523Y-111568095D01*
X170761904Y-111710952D01*
X170190476Y-112282380D01*
X170809523Y-112282380D01*
D14*
X166126571Y-117271142D02*
X167269428Y-117271142D01*
X166698000Y-117842571D02*
X166698000Y-116699714D01*
X172730571Y-117271142D02*
X173873428Y-117271142D01*
%TO.C,SC6*%
D10*
X167904761Y-85011904D02*
X167952380Y-84869047D01*
X167952380Y-84630952D01*
X167904761Y-84535714D01*
X167857142Y-84488095D01*
X167761904Y-84440476D01*
X167666666Y-84440476D01*
X167571428Y-84488095D01*
X167523809Y-84535714D01*
X167476190Y-84630952D01*
X167428571Y-84821428D01*
X167380952Y-84916666D01*
X167333333Y-84964285D01*
X167238095Y-85011904D01*
X167142857Y-85011904D01*
X167047619Y-84964285D01*
X167000000Y-84916666D01*
X166952380Y-84821428D01*
X166952380Y-84583333D01*
X167000000Y-84440476D01*
X167857142Y-83440476D02*
X167904761Y-83488095D01*
X167952380Y-83630952D01*
X167952380Y-83726190D01*
X167904761Y-83869047D01*
X167809523Y-83964285D01*
X167714285Y-84011904D01*
X167523809Y-84059523D01*
X167380952Y-84059523D01*
X167190476Y-84011904D01*
X167095238Y-83964285D01*
X167000000Y-83869047D01*
X166952380Y-83726190D01*
X166952380Y-83630952D01*
X167000000Y-83488095D01*
X167047619Y-83440476D01*
X166952380Y-82583333D02*
X166952380Y-82773809D01*
X167000000Y-82869047D01*
X167047619Y-82916666D01*
X167190476Y-83011904D01*
X167380952Y-83059523D01*
X167761904Y-83059523D01*
X167857142Y-83011904D01*
X167904761Y-82964285D01*
X167952380Y-82869047D01*
X167952380Y-82678571D01*
X167904761Y-82583333D01*
X167857142Y-82535714D01*
X167761904Y-82488095D01*
X167523809Y-82488095D01*
X167428571Y-82535714D01*
X167380952Y-82583333D01*
X167333333Y-82678571D01*
X167333333Y-82869047D01*
X167380952Y-82964285D01*
X167428571Y-83011904D01*
X167523809Y-83059523D01*
X164864761Y-88297619D02*
X164912380Y-88154761D01*
X164912380Y-87916666D01*
X164864761Y-87821428D01*
X164817142Y-87773809D01*
X164721904Y-87726190D01*
X164626666Y-87726190D01*
X164531428Y-87773809D01*
X164483809Y-87821428D01*
X164436190Y-87916666D01*
X164388571Y-88107142D01*
X164340952Y-88202380D01*
X164293333Y-88250000D01*
X164198095Y-88297619D01*
X164102857Y-88297619D01*
X164007619Y-88250000D01*
X163960000Y-88202380D01*
X163912380Y-88107142D01*
X163912380Y-87869047D01*
X163960000Y-87726190D01*
X164912380Y-87297619D02*
X163912380Y-87297619D01*
X164626666Y-86964285D01*
X163912380Y-86630952D01*
X164912380Y-86630952D01*
X164912380Y-85630952D02*
X164912380Y-86202380D01*
X164912380Y-85916666D02*
X163912380Y-85916666D01*
X164055238Y-86011904D01*
X164150476Y-86107142D01*
X164198095Y-86202380D01*
X163912380Y-85011904D02*
X163912380Y-84916666D01*
X163960000Y-84821428D01*
X164007619Y-84773809D01*
X164102857Y-84726190D01*
X164293333Y-84678571D01*
X164531428Y-84678571D01*
X164721904Y-84726190D01*
X164817142Y-84773809D01*
X164864761Y-84821428D01*
X164912380Y-84916666D01*
X164912380Y-85011904D01*
X164864761Y-85107142D01*
X164817142Y-85154761D01*
X164721904Y-85202380D01*
X164531428Y-85250000D01*
X164293333Y-85250000D01*
X164102857Y-85202380D01*
X164007619Y-85154761D01*
X163960000Y-85107142D01*
X163912380Y-85011904D01*
X164912380Y-83726190D02*
X164912380Y-84297619D01*
X164912380Y-84011904D02*
X163912380Y-84011904D01*
X164055238Y-84107142D01*
X164150476Y-84202380D01*
X164198095Y-84297619D01*
X164912380Y-83297619D02*
X163912380Y-83297619D01*
X164912380Y-82726190D02*
X164340952Y-83154761D01*
X163912380Y-82726190D02*
X164483809Y-83297619D01*
X163912380Y-82107142D02*
X163912380Y-82011904D01*
X163960000Y-81916666D01*
X164007619Y-81869047D01*
X164102857Y-81821428D01*
X164293333Y-81773809D01*
X164531428Y-81773809D01*
X164721904Y-81821428D01*
X164817142Y-81869047D01*
X164864761Y-81916666D01*
X164912380Y-82011904D01*
X164912380Y-82107142D01*
X164864761Y-82202380D01*
X164817142Y-82250000D01*
X164721904Y-82297619D01*
X164531428Y-82345238D01*
X164293333Y-82345238D01*
X164102857Y-82297619D01*
X164007619Y-82250000D01*
X163960000Y-82202380D01*
X163912380Y-82107142D01*
X163912380Y-81440476D02*
X163912380Y-80773809D01*
X164912380Y-81202380D01*
X163912380Y-80535714D02*
X163912380Y-79964285D01*
X164912380Y-80250000D02*
X163912380Y-80250000D01*
X164388571Y-79297619D02*
X164388571Y-79630952D01*
X164912380Y-79630952D02*
X163912380Y-79630952D01*
X163912380Y-79154761D01*
D12*
X170937142Y-75074285D02*
X173222857Y-75074285D01*
X162134285Y-76002857D02*
X162134285Y-73717142D01*
X163277142Y-74860000D02*
X160991428Y-74860000D01*
%TO.C,SC5*%
D10*
X145404761Y-85011904D02*
X145452380Y-84869047D01*
X145452380Y-84630952D01*
X145404761Y-84535714D01*
X145357142Y-84488095D01*
X145261904Y-84440476D01*
X145166666Y-84440476D01*
X145071428Y-84488095D01*
X145023809Y-84535714D01*
X144976190Y-84630952D01*
X144928571Y-84821428D01*
X144880952Y-84916666D01*
X144833333Y-84964285D01*
X144738095Y-85011904D01*
X144642857Y-85011904D01*
X144547619Y-84964285D01*
X144500000Y-84916666D01*
X144452380Y-84821428D01*
X144452380Y-84583333D01*
X144500000Y-84440476D01*
X145357142Y-83440476D02*
X145404761Y-83488095D01*
X145452380Y-83630952D01*
X145452380Y-83726190D01*
X145404761Y-83869047D01*
X145309523Y-83964285D01*
X145214285Y-84011904D01*
X145023809Y-84059523D01*
X144880952Y-84059523D01*
X144690476Y-84011904D01*
X144595238Y-83964285D01*
X144500000Y-83869047D01*
X144452380Y-83726190D01*
X144452380Y-83630952D01*
X144500000Y-83488095D01*
X144547619Y-83440476D01*
X144452380Y-82535714D02*
X144452380Y-83011904D01*
X144928571Y-83059523D01*
X144880952Y-83011904D01*
X144833333Y-82916666D01*
X144833333Y-82678571D01*
X144880952Y-82583333D01*
X144928571Y-82535714D01*
X145023809Y-82488095D01*
X145261904Y-82488095D01*
X145357142Y-82535714D01*
X145404761Y-82583333D01*
X145452380Y-82678571D01*
X145452380Y-82916666D01*
X145404761Y-83011904D01*
X145357142Y-83059523D01*
X142364761Y-88297619D02*
X142412380Y-88154761D01*
X142412380Y-87916666D01*
X142364761Y-87821428D01*
X142317142Y-87773809D01*
X142221904Y-87726190D01*
X142126666Y-87726190D01*
X142031428Y-87773809D01*
X141983809Y-87821428D01*
X141936190Y-87916666D01*
X141888571Y-88107142D01*
X141840952Y-88202380D01*
X141793333Y-88250000D01*
X141698095Y-88297619D01*
X141602857Y-88297619D01*
X141507619Y-88250000D01*
X141460000Y-88202380D01*
X141412380Y-88107142D01*
X141412380Y-87869047D01*
X141460000Y-87726190D01*
X142412380Y-87297619D02*
X141412380Y-87297619D01*
X142126666Y-86964285D01*
X141412380Y-86630952D01*
X142412380Y-86630952D01*
X142412380Y-85630952D02*
X142412380Y-86202380D01*
X142412380Y-85916666D02*
X141412380Y-85916666D01*
X141555238Y-86011904D01*
X141650476Y-86107142D01*
X141698095Y-86202380D01*
X141412380Y-85011904D02*
X141412380Y-84916666D01*
X141460000Y-84821428D01*
X141507619Y-84773809D01*
X141602857Y-84726190D01*
X141793333Y-84678571D01*
X142031428Y-84678571D01*
X142221904Y-84726190D01*
X142317142Y-84773809D01*
X142364761Y-84821428D01*
X142412380Y-84916666D01*
X142412380Y-85011904D01*
X142364761Y-85107142D01*
X142317142Y-85154761D01*
X142221904Y-85202380D01*
X142031428Y-85250000D01*
X141793333Y-85250000D01*
X141602857Y-85202380D01*
X141507619Y-85154761D01*
X141460000Y-85107142D01*
X141412380Y-85011904D01*
X142412380Y-83726190D02*
X142412380Y-84297619D01*
X142412380Y-84011904D02*
X141412380Y-84011904D01*
X141555238Y-84107142D01*
X141650476Y-84202380D01*
X141698095Y-84297619D01*
X142412380Y-83297619D02*
X141412380Y-83297619D01*
X142412380Y-82726190D02*
X141840952Y-83154761D01*
X141412380Y-82726190D02*
X141983809Y-83297619D01*
X141412380Y-82107142D02*
X141412380Y-82011904D01*
X141460000Y-81916666D01*
X141507619Y-81869047D01*
X141602857Y-81821428D01*
X141793333Y-81773809D01*
X142031428Y-81773809D01*
X142221904Y-81821428D01*
X142317142Y-81869047D01*
X142364761Y-81916666D01*
X142412380Y-82011904D01*
X142412380Y-82107142D01*
X142364761Y-82202380D01*
X142317142Y-82250000D01*
X142221904Y-82297619D01*
X142031428Y-82345238D01*
X141793333Y-82345238D01*
X141602857Y-82297619D01*
X141507619Y-82250000D01*
X141460000Y-82202380D01*
X141412380Y-82107142D01*
X141412380Y-81440476D02*
X141412380Y-80773809D01*
X142412380Y-81202380D01*
X141412380Y-80535714D02*
X141412380Y-79964285D01*
X142412380Y-80250000D02*
X141412380Y-80250000D01*
X141888571Y-79297619D02*
X141888571Y-79630952D01*
X142412380Y-79630952D02*
X141412380Y-79630952D01*
X141412380Y-79154761D01*
D12*
X139634285Y-76002857D02*
X139634285Y-73717142D01*
X140777142Y-74860000D02*
X138491428Y-74860000D01*
X148437142Y-75074285D02*
X150722857Y-75074285D01*
%TO.C,SC3*%
D10*
X121904761Y-147011904D02*
X121952380Y-146869047D01*
X121952380Y-146630952D01*
X121904761Y-146535714D01*
X121857142Y-146488095D01*
X121761904Y-146440476D01*
X121666666Y-146440476D01*
X121571428Y-146488095D01*
X121523809Y-146535714D01*
X121476190Y-146630952D01*
X121428571Y-146821428D01*
X121380952Y-146916666D01*
X121333333Y-146964285D01*
X121238095Y-147011904D01*
X121142857Y-147011904D01*
X121047619Y-146964285D01*
X121000000Y-146916666D01*
X120952380Y-146821428D01*
X120952380Y-146583333D01*
X121000000Y-146440476D01*
X121857142Y-145440476D02*
X121904761Y-145488095D01*
X121952380Y-145630952D01*
X121952380Y-145726190D01*
X121904761Y-145869047D01*
X121809523Y-145964285D01*
X121714285Y-146011904D01*
X121523809Y-146059523D01*
X121380952Y-146059523D01*
X121190476Y-146011904D01*
X121095238Y-145964285D01*
X121000000Y-145869047D01*
X120952380Y-145726190D01*
X120952380Y-145630952D01*
X121000000Y-145488095D01*
X121047619Y-145440476D01*
X120952380Y-145107142D02*
X120952380Y-144488095D01*
X121333333Y-144821428D01*
X121333333Y-144678571D01*
X121380952Y-144583333D01*
X121428571Y-144535714D01*
X121523809Y-144488095D01*
X121761904Y-144488095D01*
X121857142Y-144535714D01*
X121904761Y-144583333D01*
X121952380Y-144678571D01*
X121952380Y-144964285D01*
X121904761Y-145059523D01*
X121857142Y-145107142D01*
X124944761Y-150297619D02*
X124992380Y-150154761D01*
X124992380Y-149916666D01*
X124944761Y-149821428D01*
X124897142Y-149773809D01*
X124801904Y-149726190D01*
X124706666Y-149726190D01*
X124611428Y-149773809D01*
X124563809Y-149821428D01*
X124516190Y-149916666D01*
X124468571Y-150107142D01*
X124420952Y-150202380D01*
X124373333Y-150250000D01*
X124278095Y-150297619D01*
X124182857Y-150297619D01*
X124087619Y-150250000D01*
X124040000Y-150202380D01*
X123992380Y-150107142D01*
X123992380Y-149869047D01*
X124040000Y-149726190D01*
X124992380Y-149297619D02*
X123992380Y-149297619D01*
X124706666Y-148964285D01*
X123992380Y-148630952D01*
X124992380Y-148630952D01*
X124992380Y-147630952D02*
X124992380Y-148202380D01*
X124992380Y-147916666D02*
X123992380Y-147916666D01*
X124135238Y-148011904D01*
X124230476Y-148107142D01*
X124278095Y-148202380D01*
X123992380Y-147011904D02*
X123992380Y-146916666D01*
X124040000Y-146821428D01*
X124087619Y-146773809D01*
X124182857Y-146726190D01*
X124373333Y-146678571D01*
X124611428Y-146678571D01*
X124801904Y-146726190D01*
X124897142Y-146773809D01*
X124944761Y-146821428D01*
X124992380Y-146916666D01*
X124992380Y-147011904D01*
X124944761Y-147107142D01*
X124897142Y-147154761D01*
X124801904Y-147202380D01*
X124611428Y-147250000D01*
X124373333Y-147250000D01*
X124182857Y-147202380D01*
X124087619Y-147154761D01*
X124040000Y-147107142D01*
X123992380Y-147011904D01*
X124992380Y-145726190D02*
X124992380Y-146297619D01*
X124992380Y-146011904D02*
X123992380Y-146011904D01*
X124135238Y-146107142D01*
X124230476Y-146202380D01*
X124278095Y-146297619D01*
X124992380Y-145297619D02*
X123992380Y-145297619D01*
X124992380Y-144726190D02*
X124420952Y-145154761D01*
X123992380Y-144726190D02*
X124563809Y-145297619D01*
X123992380Y-144107142D02*
X123992380Y-144011904D01*
X124040000Y-143916666D01*
X124087619Y-143869047D01*
X124182857Y-143821428D01*
X124373333Y-143773809D01*
X124611428Y-143773809D01*
X124801904Y-143821428D01*
X124897142Y-143869047D01*
X124944761Y-143916666D01*
X124992380Y-144011904D01*
X124992380Y-144107142D01*
X124944761Y-144202380D01*
X124897142Y-144250000D01*
X124801904Y-144297619D01*
X124611428Y-144345238D01*
X124373333Y-144345238D01*
X124182857Y-144297619D01*
X124087619Y-144250000D01*
X124040000Y-144202380D01*
X123992380Y-144107142D01*
X123992380Y-143440476D02*
X123992380Y-142773809D01*
X124992380Y-143202380D01*
X123992380Y-142535714D02*
X123992380Y-141964285D01*
X124992380Y-142250000D02*
X123992380Y-142250000D01*
X124468571Y-141297619D02*
X124468571Y-141630952D01*
X124992380Y-141630952D02*
X123992380Y-141630952D01*
X123992380Y-141154761D01*
D12*
X113357142Y-156714285D02*
X115642857Y-156714285D01*
X129464285Y-157642857D02*
X129464285Y-155357142D01*
X130607142Y-156500000D02*
X128321428Y-156500000D01*
%TO.C,SC2*%
D10*
X144404761Y-147011904D02*
X144452380Y-146869047D01*
X144452380Y-146630952D01*
X144404761Y-146535714D01*
X144357142Y-146488095D01*
X144261904Y-146440476D01*
X144166666Y-146440476D01*
X144071428Y-146488095D01*
X144023809Y-146535714D01*
X143976190Y-146630952D01*
X143928571Y-146821428D01*
X143880952Y-146916666D01*
X143833333Y-146964285D01*
X143738095Y-147011904D01*
X143642857Y-147011904D01*
X143547619Y-146964285D01*
X143500000Y-146916666D01*
X143452380Y-146821428D01*
X143452380Y-146583333D01*
X143500000Y-146440476D01*
X144357142Y-145440476D02*
X144404761Y-145488095D01*
X144452380Y-145630952D01*
X144452380Y-145726190D01*
X144404761Y-145869047D01*
X144309523Y-145964285D01*
X144214285Y-146011904D01*
X144023809Y-146059523D01*
X143880952Y-146059523D01*
X143690476Y-146011904D01*
X143595238Y-145964285D01*
X143500000Y-145869047D01*
X143452380Y-145726190D01*
X143452380Y-145630952D01*
X143500000Y-145488095D01*
X143547619Y-145440476D01*
X143547619Y-145059523D02*
X143500000Y-145011904D01*
X143452380Y-144916666D01*
X143452380Y-144678571D01*
X143500000Y-144583333D01*
X143547619Y-144535714D01*
X143642857Y-144488095D01*
X143738095Y-144488095D01*
X143880952Y-144535714D01*
X144452380Y-145107142D01*
X144452380Y-144488095D01*
X147444761Y-150297619D02*
X147492380Y-150154761D01*
X147492380Y-149916666D01*
X147444761Y-149821428D01*
X147397142Y-149773809D01*
X147301904Y-149726190D01*
X147206666Y-149726190D01*
X147111428Y-149773809D01*
X147063809Y-149821428D01*
X147016190Y-149916666D01*
X146968571Y-150107142D01*
X146920952Y-150202380D01*
X146873333Y-150250000D01*
X146778095Y-150297619D01*
X146682857Y-150297619D01*
X146587619Y-150250000D01*
X146540000Y-150202380D01*
X146492380Y-150107142D01*
X146492380Y-149869047D01*
X146540000Y-149726190D01*
X147492380Y-149297619D02*
X146492380Y-149297619D01*
X147206666Y-148964285D01*
X146492380Y-148630952D01*
X147492380Y-148630952D01*
X147492380Y-147630952D02*
X147492380Y-148202380D01*
X147492380Y-147916666D02*
X146492380Y-147916666D01*
X146635238Y-148011904D01*
X146730476Y-148107142D01*
X146778095Y-148202380D01*
X146492380Y-147011904D02*
X146492380Y-146916666D01*
X146540000Y-146821428D01*
X146587619Y-146773809D01*
X146682857Y-146726190D01*
X146873333Y-146678571D01*
X147111428Y-146678571D01*
X147301904Y-146726190D01*
X147397142Y-146773809D01*
X147444761Y-146821428D01*
X147492380Y-146916666D01*
X147492380Y-147011904D01*
X147444761Y-147107142D01*
X147397142Y-147154761D01*
X147301904Y-147202380D01*
X147111428Y-147250000D01*
X146873333Y-147250000D01*
X146682857Y-147202380D01*
X146587619Y-147154761D01*
X146540000Y-147107142D01*
X146492380Y-147011904D01*
X147492380Y-145726190D02*
X147492380Y-146297619D01*
X147492380Y-146011904D02*
X146492380Y-146011904D01*
X146635238Y-146107142D01*
X146730476Y-146202380D01*
X146778095Y-146297619D01*
X147492380Y-145297619D02*
X146492380Y-145297619D01*
X147492380Y-144726190D02*
X146920952Y-145154761D01*
X146492380Y-144726190D02*
X147063809Y-145297619D01*
X146492380Y-144107142D02*
X146492380Y-144011904D01*
X146540000Y-143916666D01*
X146587619Y-143869047D01*
X146682857Y-143821428D01*
X146873333Y-143773809D01*
X147111428Y-143773809D01*
X147301904Y-143821428D01*
X147397142Y-143869047D01*
X147444761Y-143916666D01*
X147492380Y-144011904D01*
X147492380Y-144107142D01*
X147444761Y-144202380D01*
X147397142Y-144250000D01*
X147301904Y-144297619D01*
X147111428Y-144345238D01*
X146873333Y-144345238D01*
X146682857Y-144297619D01*
X146587619Y-144250000D01*
X146540000Y-144202380D01*
X146492380Y-144107142D01*
X146492380Y-143440476D02*
X146492380Y-142773809D01*
X147492380Y-143202380D01*
X146492380Y-142535714D02*
X146492380Y-141964285D01*
X147492380Y-142250000D02*
X146492380Y-142250000D01*
X146968571Y-141297619D02*
X146968571Y-141630952D01*
X147492380Y-141630952D02*
X146492380Y-141630952D01*
X146492380Y-141154761D01*
D12*
X138277142Y-154854285D02*
X140562857Y-154854285D01*
X149794285Y-155782857D02*
X149794285Y-153497142D01*
X150937142Y-154640000D02*
X148651428Y-154640000D01*
%TO.C,SC1*%
D10*
X166904761Y-147011904D02*
X166952380Y-146869047D01*
X166952380Y-146630952D01*
X166904761Y-146535714D01*
X166857142Y-146488095D01*
X166761904Y-146440476D01*
X166666666Y-146440476D01*
X166571428Y-146488095D01*
X166523809Y-146535714D01*
X166476190Y-146630952D01*
X166428571Y-146821428D01*
X166380952Y-146916666D01*
X166333333Y-146964285D01*
X166238095Y-147011904D01*
X166142857Y-147011904D01*
X166047619Y-146964285D01*
X166000000Y-146916666D01*
X165952380Y-146821428D01*
X165952380Y-146583333D01*
X166000000Y-146440476D01*
X166857142Y-145440476D02*
X166904761Y-145488095D01*
X166952380Y-145630952D01*
X166952380Y-145726190D01*
X166904761Y-145869047D01*
X166809523Y-145964285D01*
X166714285Y-146011904D01*
X166523809Y-146059523D01*
X166380952Y-146059523D01*
X166190476Y-146011904D01*
X166095238Y-145964285D01*
X166000000Y-145869047D01*
X165952380Y-145726190D01*
X165952380Y-145630952D01*
X166000000Y-145488095D01*
X166047619Y-145440476D01*
X166952380Y-144488095D02*
X166952380Y-145059523D01*
X166952380Y-144773809D02*
X165952380Y-144773809D01*
X166095238Y-144869047D01*
X166190476Y-144964285D01*
X166238095Y-145059523D01*
X169944761Y-150297619D02*
X169992380Y-150154761D01*
X169992380Y-149916666D01*
X169944761Y-149821428D01*
X169897142Y-149773809D01*
X169801904Y-149726190D01*
X169706666Y-149726190D01*
X169611428Y-149773809D01*
X169563809Y-149821428D01*
X169516190Y-149916666D01*
X169468571Y-150107142D01*
X169420952Y-150202380D01*
X169373333Y-150250000D01*
X169278095Y-150297619D01*
X169182857Y-150297619D01*
X169087619Y-150250000D01*
X169040000Y-150202380D01*
X168992380Y-150107142D01*
X168992380Y-149869047D01*
X169040000Y-149726190D01*
X169992380Y-149297619D02*
X168992380Y-149297619D01*
X169706666Y-148964285D01*
X168992380Y-148630952D01*
X169992380Y-148630952D01*
X169992380Y-147630952D02*
X169992380Y-148202380D01*
X169992380Y-147916666D02*
X168992380Y-147916666D01*
X169135238Y-148011904D01*
X169230476Y-148107142D01*
X169278095Y-148202380D01*
X168992380Y-147011904D02*
X168992380Y-146916666D01*
X169040000Y-146821428D01*
X169087619Y-146773809D01*
X169182857Y-146726190D01*
X169373333Y-146678571D01*
X169611428Y-146678571D01*
X169801904Y-146726190D01*
X169897142Y-146773809D01*
X169944761Y-146821428D01*
X169992380Y-146916666D01*
X169992380Y-147011904D01*
X169944761Y-147107142D01*
X169897142Y-147154761D01*
X169801904Y-147202380D01*
X169611428Y-147250000D01*
X169373333Y-147250000D01*
X169182857Y-147202380D01*
X169087619Y-147154761D01*
X169040000Y-147107142D01*
X168992380Y-147011904D01*
X169992380Y-145726190D02*
X169992380Y-146297619D01*
X169992380Y-146011904D02*
X168992380Y-146011904D01*
X169135238Y-146107142D01*
X169230476Y-146202380D01*
X169278095Y-146297619D01*
X169992380Y-145297619D02*
X168992380Y-145297619D01*
X169992380Y-144726190D02*
X169420952Y-145154761D01*
X168992380Y-144726190D02*
X169563809Y-145297619D01*
X168992380Y-144107142D02*
X168992380Y-144011904D01*
X169040000Y-143916666D01*
X169087619Y-143869047D01*
X169182857Y-143821428D01*
X169373333Y-143773809D01*
X169611428Y-143773809D01*
X169801904Y-143821428D01*
X169897142Y-143869047D01*
X169944761Y-143916666D01*
X169992380Y-144011904D01*
X169992380Y-144107142D01*
X169944761Y-144202380D01*
X169897142Y-144250000D01*
X169801904Y-144297619D01*
X169611428Y-144345238D01*
X169373333Y-144345238D01*
X169182857Y-144297619D01*
X169087619Y-144250000D01*
X169040000Y-144202380D01*
X168992380Y-144107142D01*
X168992380Y-143440476D02*
X168992380Y-142773809D01*
X169992380Y-143202380D01*
X168992380Y-142535714D02*
X168992380Y-141964285D01*
X169992380Y-142250000D02*
X168992380Y-142250000D01*
X169468571Y-141297619D02*
X169468571Y-141630952D01*
X169992380Y-141630952D02*
X168992380Y-141630952D01*
X168992380Y-141154761D01*
D12*
X160777142Y-154854285D02*
X163062857Y-154854285D01*
X172294285Y-155782857D02*
X172294285Y-153497142D01*
X173437142Y-154640000D02*
X171151428Y-154640000D01*
%TO.C,D2*%
D10*
X121761904Y-107952380D02*
X121761904Y-106952380D01*
X122000000Y-106952380D01*
X122142857Y-107000000D01*
X122238095Y-107095238D01*
X122285714Y-107190476D01*
X122333333Y-107380952D01*
X122333333Y-107523809D01*
X122285714Y-107714285D01*
X122238095Y-107809523D01*
X122142857Y-107904761D01*
X122000000Y-107952380D01*
X121761904Y-107952380D01*
X122714285Y-107047619D02*
X122761904Y-107000000D01*
X122857142Y-106952380D01*
X123095238Y-106952380D01*
X123190476Y-107000000D01*
X123238095Y-107047619D01*
X123285714Y-107142857D01*
X123285714Y-107238095D01*
X123238095Y-107380952D01*
X122666666Y-107952380D01*
X123285714Y-107952380D01*
%TO.C,D1*%
X166261904Y-123952380D02*
X166261904Y-122952380D01*
X166500000Y-122952380D01*
X166642857Y-123000000D01*
X166738095Y-123095238D01*
X166785714Y-123190476D01*
X166833333Y-123380952D01*
X166833333Y-123523809D01*
X166785714Y-123714285D01*
X166738095Y-123809523D01*
X166642857Y-123904761D01*
X166500000Y-123952380D01*
X166261904Y-123952380D01*
X167785714Y-123952380D02*
X167214285Y-123952380D01*
X167500000Y-123952380D02*
X167500000Y-122952380D01*
X167404761Y-123095238D01*
X167309523Y-123190476D01*
X167214285Y-123238095D01*
%TD*%
M02*
