%TF.GenerationSoftware,KiCad,Pcbnew,(5.1.10)-1*%
%TF.CreationDate,2022-06-07T20:51:06-07:00*%
%TF.ProjectId,solar-panel-NoCutout,736f6c61-722d-4706-916e-656c2d4e6f43,1.1*%
%TF.SameCoordinates,Original*%
%TF.FileFunction,Legend,Bot*%
%TF.FilePolarity,Positive*%
%FSLAX46Y46*%
G04 Gerber Fmt 4.6, Leading zero omitted, Abs format (unit mm)*
G04 Created by KiCad (PCBNEW (5.1.10)-1) date 2022-06-07 20:51:06*
%MOMM*%
%LPD*%
G01*
G04 APERTURE LIST*
%ADD10C,0.100000*%
%ADD11C,0.150000*%
%ADD12C,0.120000*%
G04 APERTURE END LIST*
D10*
G36*
X106108500Y-94551500D02*
G01*
X104775000Y-94551500D01*
X104775000Y-93281500D01*
X106108500Y-93281500D01*
X106108500Y-94551500D01*
G37*
X106108500Y-94551500D02*
X104775000Y-94551500D01*
X104775000Y-93281500D01*
X106108500Y-93281500D01*
X106108500Y-94551500D01*
G36*
X106108500Y-92583000D02*
G01*
X104775000Y-92583000D01*
X104775000Y-91313000D01*
X106108500Y-91313000D01*
X106108500Y-92583000D01*
G37*
X106108500Y-92583000D02*
X104775000Y-92583000D01*
X104775000Y-91313000D01*
X106108500Y-91313000D01*
X106108500Y-92583000D01*
G36*
X106045000Y-98552000D02*
G01*
X104711500Y-98552000D01*
X104711500Y-97282000D01*
X106045000Y-97282000D01*
X106045000Y-98552000D01*
G37*
X106045000Y-98552000D02*
X104711500Y-98552000D01*
X104711500Y-97282000D01*
X106045000Y-97282000D01*
X106045000Y-98552000D01*
G36*
X106045000Y-96583500D02*
G01*
X104711500Y-96583500D01*
X104711500Y-95313500D01*
X106045000Y-95313500D01*
X106045000Y-96583500D01*
G37*
X106045000Y-96583500D02*
X104711500Y-96583500D01*
X104711500Y-95313500D01*
X106045000Y-95313500D01*
X106045000Y-96583500D01*
D11*
X108845642Y-92071428D02*
X108083738Y-92071428D01*
X108464690Y-92452380D02*
X108464690Y-91690476D01*
X107702785Y-91452380D02*
X107036119Y-92452380D01*
X107036119Y-91452380D02*
X107702785Y-92452380D01*
X108798023Y-98071428D02*
X108036119Y-98071428D01*
X107369452Y-97976190D02*
X107369452Y-98452380D01*
X107702785Y-97452380D02*
X107369452Y-97976190D01*
X107036119Y-97452380D01*
X108845642Y-94071428D02*
X108083738Y-94071428D01*
X107702785Y-93452380D02*
X107036119Y-94452380D01*
X107036119Y-93452380D02*
X107702785Y-94452380D01*
X108798023Y-96071428D02*
X108036119Y-96071428D01*
X108417071Y-96452380D02*
X108417071Y-95690476D01*
X107369452Y-95976190D02*
X107369452Y-96452380D01*
X107702785Y-95452380D02*
X107369452Y-95976190D01*
X107036119Y-95452380D01*
D12*
%TO.C,J1*%
X120221013Y-124750000D02*
X118697013Y-124115000D01*
X118697013Y-124115000D02*
X118697013Y-125385000D01*
X118697013Y-125385000D02*
X120221013Y-124750000D01*
X132524989Y-120780040D02*
X132524989Y-125090000D01*
X132524989Y-125090000D02*
X130120041Y-125090000D01*
X120475012Y-125090000D02*
X120475012Y-120780040D01*
X121839885Y-118650000D02*
X131160116Y-118650000D01*
X122879960Y-125090000D02*
X120475012Y-125090000D01*
X124379960Y-125090000D02*
X124120040Y-125090000D01*
X125879959Y-125090000D02*
X125620040Y-125090000D01*
X127379961Y-125090000D02*
X127120039Y-125090000D01*
X128879961Y-125090000D02*
X128620041Y-125090000D01*
D11*
X126373333Y-114042380D02*
X126373333Y-114756666D01*
X126420952Y-114899523D01*
X126516190Y-114994761D01*
X126659047Y-115042380D01*
X126754285Y-115042380D01*
X125373333Y-115042380D02*
X125944761Y-115042380D01*
X125659047Y-115042380D02*
X125659047Y-114042380D01*
X125754285Y-114185238D01*
X125849523Y-114280476D01*
X125944761Y-114328095D01*
X132619049Y-116217142D02*
X132666668Y-116264761D01*
X132809525Y-116312380D01*
X132904763Y-116312380D01*
X133047621Y-116264761D01*
X133142859Y-116169523D01*
X133190478Y-116074285D01*
X133238097Y-115883809D01*
X133238097Y-115740952D01*
X133190478Y-115550476D01*
X133142859Y-115455238D01*
X133047621Y-115360000D01*
X132904763Y-115312380D01*
X132809525Y-115312380D01*
X132666668Y-115360000D01*
X132619049Y-115407619D01*
X132000002Y-115312380D02*
X131809525Y-115312380D01*
X131714287Y-115360000D01*
X131619049Y-115455238D01*
X131571430Y-115645714D01*
X131571430Y-115979047D01*
X131619049Y-116169523D01*
X131714287Y-116264761D01*
X131809525Y-116312380D01*
X132000002Y-116312380D01*
X132095240Y-116264761D01*
X132190478Y-116169523D01*
X132238097Y-115979047D01*
X132238097Y-115645714D01*
X132190478Y-115455238D01*
X132095240Y-115360000D01*
X132000002Y-115312380D01*
X131142859Y-116312380D02*
X131142859Y-115312380D01*
X130571430Y-116312380D01*
X130571430Y-115312380D01*
X130095240Y-115931428D02*
X129333335Y-115931428D01*
X128380954Y-115312380D02*
X128857144Y-115312380D01*
X128904763Y-115788571D01*
X128857144Y-115740952D01*
X128761906Y-115693333D01*
X128523811Y-115693333D01*
X128428573Y-115740952D01*
X128380954Y-115788571D01*
X128333335Y-115883809D01*
X128333335Y-116121904D01*
X128380954Y-116217142D01*
X128428573Y-116264761D01*
X128523811Y-116312380D01*
X128761906Y-116312380D01*
X128857144Y-116264761D01*
X128904763Y-116217142D01*
X127714287Y-115312380D02*
X127619049Y-115312380D01*
X127523811Y-115360000D01*
X127476192Y-115407619D01*
X127428573Y-115502857D01*
X127380954Y-115693333D01*
X127380954Y-115931428D01*
X127428573Y-116121904D01*
X127476192Y-116217142D01*
X127523811Y-116264761D01*
X127619049Y-116312380D01*
X127714287Y-116312380D01*
X127809525Y-116264761D01*
X127857144Y-116217142D01*
X127904763Y-116121904D01*
X127952382Y-115931428D01*
X127952382Y-115693333D01*
X127904763Y-115502857D01*
X127857144Y-115407619D01*
X127809525Y-115360000D01*
X127714287Y-115312380D01*
X126523811Y-115645714D02*
X126523811Y-116312380D01*
X126761906Y-115264761D02*
X127000002Y-115979047D01*
X126380954Y-115979047D01*
X125809525Y-115312380D02*
X125714287Y-115312380D01*
X125619049Y-115360000D01*
X125571430Y-115407619D01*
X125523811Y-115502857D01*
X125476192Y-115693333D01*
X125476192Y-115931428D01*
X125523811Y-116121904D01*
X125571430Y-116217142D01*
X125619049Y-116264761D01*
X125714287Y-116312380D01*
X125809525Y-116312380D01*
X125904763Y-116264761D01*
X125952382Y-116217142D01*
X126000002Y-116121904D01*
X126047621Y-115931428D01*
X126047621Y-115693333D01*
X126000002Y-115502857D01*
X125952382Y-115407619D01*
X125904763Y-115360000D01*
X125809525Y-115312380D01*
X124571430Y-115312380D02*
X125047621Y-115312380D01*
X125095240Y-115788571D01*
X125047621Y-115740952D01*
X124952382Y-115693333D01*
X124714287Y-115693333D01*
X124619049Y-115740952D01*
X124571430Y-115788571D01*
X124523811Y-115883809D01*
X124523811Y-116121904D01*
X124571430Y-116217142D01*
X124619049Y-116264761D01*
X124714287Y-116312380D01*
X124952382Y-116312380D01*
X125047621Y-116264761D01*
X125095240Y-116217142D01*
X123904763Y-115312380D02*
X123809525Y-115312380D01*
X123714287Y-115360000D01*
X123666668Y-115407619D01*
X123619049Y-115502857D01*
X123571430Y-115693333D01*
X123571430Y-115931428D01*
X123619049Y-116121904D01*
X123666668Y-116217142D01*
X123714287Y-116264761D01*
X123809525Y-116312380D01*
X123904763Y-116312380D01*
X124000002Y-116264761D01*
X124047621Y-116217142D01*
X124095240Y-116121904D01*
X124142859Y-115931428D01*
X124142859Y-115693333D01*
X124095240Y-115502857D01*
X124047621Y-115407619D01*
X124000002Y-115360000D01*
X123904763Y-115312380D01*
X122952382Y-115312380D02*
X122857144Y-115312380D01*
X122761906Y-115360000D01*
X122714287Y-115407619D01*
X122666668Y-115502857D01*
X122619049Y-115693333D01*
X122619049Y-115931428D01*
X122666668Y-116121904D01*
X122714287Y-116217142D01*
X122761906Y-116264761D01*
X122857144Y-116312380D01*
X122952382Y-116312380D01*
X123047621Y-116264761D01*
X123095240Y-116217142D01*
X123142859Y-116121904D01*
X123190478Y-115931428D01*
X123190478Y-115693333D01*
X123142859Y-115502857D01*
X123095240Y-115407619D01*
X123047621Y-115360000D01*
X122952382Y-115312380D01*
X121714287Y-115312380D02*
X122190478Y-115312380D01*
X122238097Y-115788571D01*
X122190478Y-115740952D01*
X122095240Y-115693333D01*
X121857144Y-115693333D01*
X121761906Y-115740952D01*
X121714287Y-115788571D01*
X121666668Y-115883809D01*
X121666668Y-116121904D01*
X121714287Y-116217142D01*
X121761906Y-116264761D01*
X121857144Y-116312380D01*
X122095240Y-116312380D01*
X122190478Y-116264761D01*
X122238097Y-116217142D01*
X121190478Y-116312380D02*
X121000002Y-116312380D01*
X120904763Y-116264761D01*
X120857144Y-116217142D01*
X120761906Y-116074285D01*
X120714287Y-115883809D01*
X120714287Y-115502857D01*
X120761906Y-115407619D01*
X120809525Y-115360000D01*
X120904763Y-115312380D01*
X121095240Y-115312380D01*
X121190478Y-115360000D01*
X121238097Y-115407619D01*
X121285716Y-115502857D01*
X121285716Y-115740952D01*
X121238097Y-115836190D01*
X121190478Y-115883809D01*
X121095240Y-115931428D01*
X120904763Y-115931428D01*
X120809525Y-115883809D01*
X120761906Y-115836190D01*
X120714287Y-115740952D01*
X119761906Y-116312380D02*
X120333335Y-116312380D01*
X120047621Y-116312380D02*
X120047621Y-115312380D01*
X120142859Y-115455238D01*
X120238097Y-115550476D01*
X120333335Y-115598095D01*
X123500000Y-124202380D02*
X123500000Y-124440476D01*
X123738095Y-124345238D02*
X123500000Y-124440476D01*
X123261904Y-124345238D01*
X123642857Y-124630952D02*
X123500000Y-124440476D01*
X123357142Y-124630952D01*
%TD*%
M02*
