M48
; DRILL file {KiCad (5.1.10)-1} date 03/31/22 00:15:28
; FORMAT={-:-/ absolute / inch / decimal}
; #@! TF.CreationDate,2022-03-31T00:15:28-07:00
; #@! TF.GenerationSoftware,Kicad,Pcbnew,(5.1.10)-1
; #@! TF.FileFunction,Plated,1,2,PTH
FMAT,2
INCH
T1C0.0157
T2C0.0394
T3C0.0787
%
G90
G05
T1
X4.7441Y-4.7441
T2
X4.8917Y-4.2079
X4.8917Y-4.3079
X4.8917Y-4.4079
X4.8917Y-4.5079
T3
X3.8386Y-4.311
X4.1929Y-4.311
X4.7835Y-2.5984
X4.7835Y-2.9528
X4.7835Y-3.4941
X4.7835Y-3.8484
X5.2362Y-3.2579
X5.2362Y-3.6417
X5.5906Y-3.2579
X5.5906Y-3.6417
X5.6693Y-5.128
X5.6693Y-5.4823
X6.122Y-3.7205
X6.122Y-5.128
X6.4764Y-3.7205
X6.4764Y-5.128
T0
M30
