%TF.GenerationSoftware,KiCad,Pcbnew,(5.1.10)-1*%
%TF.CreationDate,2022-06-07T21:34:51-07:00*%
%TF.ProjectId,solar-panel-WithCutout,736f6c61-722d-4706-916e-656c2d576974,1.1*%
%TF.SameCoordinates,Original*%
%TF.FileFunction,Legend,Top*%
%TF.FilePolarity,Positive*%
%FSLAX46Y46*%
G04 Gerber Fmt 4.6, Leading zero omitted, Abs format (unit mm)*
G04 Created by KiCad (PCBNEW (5.1.10)-1) date 2022-06-07 21:34:51*
%MOMM*%
%LPD*%
G01*
G04 APERTURE LIST*
%ADD10C,0.150000*%
%ADD11C,0.100000*%
%ADD12C,0.300000*%
%ADD13C,0.120000*%
G04 APERTURE END LIST*
D10*
X102488095Y-121000000D02*
X102392857Y-120952380D01*
X102250000Y-120952380D01*
X102107142Y-121000000D01*
X102011904Y-121095238D01*
X101964285Y-121190476D01*
X101916666Y-121380952D01*
X101916666Y-121523809D01*
X101964285Y-121714285D01*
X102011904Y-121809523D01*
X102107142Y-121904761D01*
X102250000Y-121952380D01*
X102345238Y-121952380D01*
X102488095Y-121904761D01*
X102535714Y-121857142D01*
X102535714Y-121523809D01*
X102345238Y-121523809D01*
X102964285Y-121952380D02*
X102964285Y-120952380D01*
X103535714Y-121952380D01*
X103535714Y-120952380D01*
X104011904Y-121952380D02*
X104011904Y-120952380D01*
X104250000Y-120952380D01*
X104392857Y-121000000D01*
X104488095Y-121095238D01*
X104535714Y-121190476D01*
X104583333Y-121380952D01*
X104583333Y-121523809D01*
X104535714Y-121714285D01*
X104488095Y-121809523D01*
X104392857Y-121904761D01*
X104250000Y-121952380D01*
X104011904Y-121952380D01*
X100964285Y-112702380D02*
X101297619Y-113702380D01*
X101630952Y-112702380D01*
X101916666Y-113654761D02*
X102059523Y-113702380D01*
X102297619Y-113702380D01*
X102392857Y-113654761D01*
X102440476Y-113607142D01*
X102488095Y-113511904D01*
X102488095Y-113416666D01*
X102440476Y-113321428D01*
X102392857Y-113273809D01*
X102297619Y-113226190D01*
X102107142Y-113178571D01*
X102011904Y-113130952D01*
X101964285Y-113083333D01*
X101916666Y-112988095D01*
X101916666Y-112892857D01*
X101964285Y-112797619D01*
X102011904Y-112750000D01*
X102107142Y-112702380D01*
X102345238Y-112702380D01*
X102488095Y-112750000D01*
X103059523Y-113702380D02*
X102964285Y-113654761D01*
X102916666Y-113607142D01*
X102869047Y-113511904D01*
X102869047Y-113226190D01*
X102916666Y-113130952D01*
X102964285Y-113083333D01*
X103059523Y-113035714D01*
X103202380Y-113035714D01*
X103297619Y-113083333D01*
X103345238Y-113130952D01*
X103392857Y-113226190D01*
X103392857Y-113511904D01*
X103345238Y-113607142D01*
X103297619Y-113654761D01*
X103202380Y-113702380D01*
X103059523Y-113702380D01*
X103964285Y-113702380D02*
X103869047Y-113654761D01*
X103821428Y-113559523D01*
X103821428Y-112702380D01*
X104773809Y-113702380D02*
X104773809Y-113178571D01*
X104726190Y-113083333D01*
X104630952Y-113035714D01*
X104440476Y-113035714D01*
X104345238Y-113083333D01*
X104773809Y-113654761D02*
X104678571Y-113702380D01*
X104440476Y-113702380D01*
X104345238Y-113654761D01*
X104297619Y-113559523D01*
X104297619Y-113464285D01*
X104345238Y-113369047D01*
X104440476Y-113321428D01*
X104678571Y-113321428D01*
X104773809Y-113273809D01*
X105249999Y-113702380D02*
X105249999Y-113035714D01*
X105249999Y-113226190D02*
X105297619Y-113130952D01*
X105345238Y-113083333D01*
X105440476Y-113035714D01*
X105535714Y-113035714D01*
D11*
G36*
X147244000Y-145972000D02*
G01*
X145339000Y-145972000D01*
X145339000Y-144257500D01*
X147244000Y-144257500D01*
X147244000Y-145972000D01*
G37*
X147244000Y-145972000D02*
X145339000Y-145972000D01*
X145339000Y-144257500D01*
X147244000Y-144257500D01*
X147244000Y-145972000D01*
G36*
X144069000Y-145972000D02*
G01*
X142164000Y-145972000D01*
X142164000Y-144257500D01*
X144069000Y-144257500D01*
X144069000Y-145972000D01*
G37*
X144069000Y-145972000D02*
X142164000Y-145972000D01*
X142164000Y-144257500D01*
X144069000Y-144257500D01*
X144069000Y-145972000D01*
G36*
X141084500Y-145972000D02*
G01*
X139179500Y-145972000D01*
X139179500Y-144257500D01*
X141084500Y-144257500D01*
X141084500Y-145972000D01*
G37*
X141084500Y-145972000D02*
X139179500Y-145972000D01*
X139179500Y-144257500D01*
X141084500Y-144257500D01*
X141084500Y-145972000D01*
G36*
X138163500Y-145972000D02*
G01*
X136258500Y-145972000D01*
X136258500Y-144257500D01*
X138163500Y-144257500D01*
X138163500Y-145972000D01*
G37*
X138163500Y-145972000D02*
X136258500Y-145972000D01*
X136258500Y-144257500D01*
X138163500Y-144257500D01*
X138163500Y-145972000D01*
D10*
X145302476Y-143388928D02*
X146064380Y-143388928D01*
X146731047Y-143293690D02*
X146731047Y-143769880D01*
X146397714Y-142769880D02*
X146731047Y-143293690D01*
X147064380Y-142769880D01*
X142302476Y-143388928D02*
X143064380Y-143388928D01*
X142683428Y-143769880D02*
X142683428Y-143007976D01*
X143731047Y-143293690D02*
X143731047Y-143769880D01*
X143397714Y-142769880D02*
X143731047Y-143293690D01*
X144064380Y-142769880D01*
X139254857Y-143388928D02*
X140016761Y-143388928D01*
X140397714Y-142769880D02*
X141064380Y-143769880D01*
X141064380Y-142769880D02*
X140397714Y-143769880D01*
X136254857Y-143388928D02*
X137016761Y-143388928D01*
X136635809Y-143769880D02*
X136635809Y-143007976D01*
X137397714Y-142769880D02*
X138064380Y-143769880D01*
X138064380Y-142769880D02*
X137397714Y-143769880D01*
D12*
%TO.C,SC6*%
X154500000Y-147000000D02*
X154500000Y-112000000D01*
X154500000Y-112000000D02*
X176500000Y-112000000D01*
X176500000Y-112000000D02*
X176500000Y-147000000D01*
X176500000Y-147000000D02*
X154500000Y-147000000D01*
D13*
%TO.C,J7*%
X102024999Y-118125001D02*
X104424999Y-118125001D01*
X102024999Y-120525001D02*
X102024999Y-118125001D01*
X104424999Y-120525001D02*
X102024999Y-120525001D01*
X104424999Y-118125001D02*
X104424999Y-120525001D01*
%TO.C,J6*%
X102024999Y-114075001D02*
X104424999Y-114075001D01*
X102024999Y-116475001D02*
X102024999Y-114075001D01*
X104424999Y-116475001D02*
X102024999Y-116475001D01*
X104424999Y-114075001D02*
X104424999Y-116475001D01*
%TO.C,D2*%
X155937200Y-91681800D02*
X157486600Y-91681800D01*
D11*
G36*
X157461200Y-90742000D02*
G01*
X156724600Y-91554800D01*
X156115000Y-90742000D01*
X157461200Y-90742000D01*
G37*
X157461200Y-90742000D02*
X156724600Y-91554800D01*
X156115000Y-90742000D01*
X157461200Y-90742000D01*
D13*
X155300000Y-93625000D02*
X155300000Y-88875000D01*
X158200000Y-93625000D02*
X155300000Y-93625000D01*
X158200000Y-88875000D02*
X155300000Y-88875000D01*
X158200000Y-93625000D02*
X158200000Y-88875000D01*
%TO.C,D1*%
X124687200Y-91431800D02*
X126236600Y-91431800D01*
D11*
G36*
X126211200Y-90492000D02*
G01*
X125474600Y-91304800D01*
X124865000Y-90492000D01*
X126211200Y-90492000D01*
G37*
X126211200Y-90492000D02*
X125474600Y-91304800D01*
X124865000Y-90492000D01*
X126211200Y-90492000D01*
D13*
X124050000Y-93375000D02*
X124050000Y-88625000D01*
X126950000Y-93375000D02*
X124050000Y-93375000D01*
X126950000Y-88625000D02*
X124050000Y-88625000D01*
X126950000Y-93375000D02*
X126950000Y-88625000D01*
%TO.C,U3*%
X141250000Y-122600000D02*
X151410000Y-122600000D01*
X151410000Y-122600000D02*
X151410000Y-116250000D01*
X141250000Y-122600000D02*
X131090000Y-122600000D01*
X131090000Y-122600000D02*
X131090000Y-116250000D01*
X151410000Y-109900000D02*
X151410000Y-116250000D01*
X141250000Y-109900000D02*
X151410000Y-109900000D01*
X131090000Y-109900000D02*
X131090000Y-116250000D01*
X141250000Y-109900000D02*
X131090000Y-109900000D01*
%TO.C,U2*%
X141500000Y-85320000D02*
X128800000Y-85320000D01*
X128800000Y-94210000D02*
X128800000Y-85320000D01*
X141500000Y-85320000D02*
X154200000Y-85320000D01*
X154200000Y-94210000D02*
X154200000Y-85320000D01*
X128800000Y-85320000D02*
X130578000Y-85320000D01*
X128800000Y-94210000D02*
X128800000Y-96750000D01*
X154200000Y-94210000D02*
X154200000Y-96750000D01*
X128800000Y-99290000D02*
X128800000Y-96750000D01*
X141500000Y-108180000D02*
X128800000Y-108180000D01*
X141500000Y-108180000D02*
X154200000Y-108180000D01*
X154200000Y-108180000D02*
X152422000Y-108180000D01*
X154200000Y-99290000D02*
X154200000Y-96750000D01*
X154200000Y-99290000D02*
X154200000Y-108180000D01*
X128800000Y-99290000D02*
X128800000Y-108180000D01*
%TO.C,U1*%
X154200000Y-133000000D02*
X154200000Y-141890000D01*
X141500000Y-141890000D02*
X154200000Y-141890000D01*
X141500000Y-141890000D02*
X128800000Y-141890000D01*
X128800000Y-133000000D02*
X128800000Y-141890000D01*
X154200000Y-133000000D02*
X154200000Y-124110000D01*
X141500000Y-124110000D02*
X154200000Y-124110000D01*
X128800000Y-133000000D02*
X128800000Y-124110000D01*
X141500000Y-124110000D02*
X128800000Y-124110000D01*
D12*
%TO.C,SC5*%
X160500000Y-109000000D02*
X160500000Y-74000000D01*
X160500000Y-74000000D02*
X182500000Y-74000000D01*
X182500000Y-74000000D02*
X182500000Y-109000000D01*
X182500000Y-109000000D02*
X160500000Y-109000000D01*
%TO.C,SC4*%
X141750000Y-50000000D02*
X176750000Y-50000000D01*
X176750000Y-50000000D02*
X176750000Y-72000000D01*
X176750000Y-72000000D02*
X141750000Y-72000000D01*
X141750000Y-72000000D02*
X141750000Y-50000000D01*
%TO.C,SC3*%
X106500000Y-147000000D02*
X106500000Y-112000000D01*
X106500000Y-112000000D02*
X128500000Y-112000000D01*
X128500000Y-112000000D02*
X128500000Y-147000000D01*
X128500000Y-147000000D02*
X106500000Y-147000000D01*
%TO.C,SC2*%
X100500000Y-108750000D02*
X100500000Y-73750000D01*
X100500000Y-73750000D02*
X122500000Y-73750000D01*
X122500000Y-73750000D02*
X122500000Y-108750000D01*
X122500000Y-108750000D02*
X100500000Y-108750000D01*
%TO.C,SC1*%
X141250000Y-72000000D02*
X106250000Y-72000000D01*
X106250000Y-72000000D02*
X106250000Y-50000000D01*
X106250000Y-50000000D02*
X141250000Y-50000000D01*
X141250000Y-50000000D02*
X141250000Y-72000000D01*
%TO.C,SC6*%
D10*
X166404761Y-130761904D02*
X166452380Y-130619047D01*
X166452380Y-130380952D01*
X166404761Y-130285714D01*
X166357142Y-130238095D01*
X166261904Y-130190476D01*
X166166666Y-130190476D01*
X166071428Y-130238095D01*
X166023809Y-130285714D01*
X165976190Y-130380952D01*
X165928571Y-130571428D01*
X165880952Y-130666666D01*
X165833333Y-130714285D01*
X165738095Y-130761904D01*
X165642857Y-130761904D01*
X165547619Y-130714285D01*
X165500000Y-130666666D01*
X165452380Y-130571428D01*
X165452380Y-130333333D01*
X165500000Y-130190476D01*
X166357142Y-129190476D02*
X166404761Y-129238095D01*
X166452380Y-129380952D01*
X166452380Y-129476190D01*
X166404761Y-129619047D01*
X166309523Y-129714285D01*
X166214285Y-129761904D01*
X166023809Y-129809523D01*
X165880952Y-129809523D01*
X165690476Y-129761904D01*
X165595238Y-129714285D01*
X165500000Y-129619047D01*
X165452380Y-129476190D01*
X165452380Y-129380952D01*
X165500000Y-129238095D01*
X165547619Y-129190476D01*
X165452380Y-128333333D02*
X165452380Y-128523809D01*
X165500000Y-128619047D01*
X165547619Y-128666666D01*
X165690476Y-128761904D01*
X165880952Y-128809523D01*
X166261904Y-128809523D01*
X166357142Y-128761904D01*
X166404761Y-128714285D01*
X166452380Y-128619047D01*
X166452380Y-128428571D01*
X166404761Y-128333333D01*
X166357142Y-128285714D01*
X166261904Y-128238095D01*
X166023809Y-128238095D01*
X165928571Y-128285714D01*
X165880952Y-128333333D01*
X165833333Y-128428571D01*
X165833333Y-128619047D01*
X165880952Y-128714285D01*
X165928571Y-128761904D01*
X166023809Y-128809523D01*
X163364761Y-134047619D02*
X163412380Y-133904761D01*
X163412380Y-133666666D01*
X163364761Y-133571428D01*
X163317142Y-133523809D01*
X163221904Y-133476190D01*
X163126666Y-133476190D01*
X163031428Y-133523809D01*
X162983809Y-133571428D01*
X162936190Y-133666666D01*
X162888571Y-133857142D01*
X162840952Y-133952380D01*
X162793333Y-134000000D01*
X162698095Y-134047619D01*
X162602857Y-134047619D01*
X162507619Y-134000000D01*
X162460000Y-133952380D01*
X162412380Y-133857142D01*
X162412380Y-133619047D01*
X162460000Y-133476190D01*
X163412380Y-133047619D02*
X162412380Y-133047619D01*
X163126666Y-132714285D01*
X162412380Y-132380952D01*
X163412380Y-132380952D01*
X163412380Y-131380952D02*
X163412380Y-131952380D01*
X163412380Y-131666666D02*
X162412380Y-131666666D01*
X162555238Y-131761904D01*
X162650476Y-131857142D01*
X162698095Y-131952380D01*
X162412380Y-130761904D02*
X162412380Y-130666666D01*
X162460000Y-130571428D01*
X162507619Y-130523809D01*
X162602857Y-130476190D01*
X162793333Y-130428571D01*
X163031428Y-130428571D01*
X163221904Y-130476190D01*
X163317142Y-130523809D01*
X163364761Y-130571428D01*
X163412380Y-130666666D01*
X163412380Y-130761904D01*
X163364761Y-130857142D01*
X163317142Y-130904761D01*
X163221904Y-130952380D01*
X163031428Y-131000000D01*
X162793333Y-131000000D01*
X162602857Y-130952380D01*
X162507619Y-130904761D01*
X162460000Y-130857142D01*
X162412380Y-130761904D01*
X163412380Y-129476190D02*
X163412380Y-130047619D01*
X163412380Y-129761904D02*
X162412380Y-129761904D01*
X162555238Y-129857142D01*
X162650476Y-129952380D01*
X162698095Y-130047619D01*
X163412380Y-129047619D02*
X162412380Y-129047619D01*
X163412380Y-128476190D02*
X162840952Y-128904761D01*
X162412380Y-128476190D02*
X162983809Y-129047619D01*
X162412380Y-127857142D02*
X162412380Y-127761904D01*
X162460000Y-127666666D01*
X162507619Y-127619047D01*
X162602857Y-127571428D01*
X162793333Y-127523809D01*
X163031428Y-127523809D01*
X163221904Y-127571428D01*
X163317142Y-127619047D01*
X163364761Y-127666666D01*
X163412380Y-127761904D01*
X163412380Y-127857142D01*
X163364761Y-127952380D01*
X163317142Y-128000000D01*
X163221904Y-128047619D01*
X163031428Y-128095238D01*
X162793333Y-128095238D01*
X162602857Y-128047619D01*
X162507619Y-128000000D01*
X162460000Y-127952380D01*
X162412380Y-127857142D01*
X162412380Y-127190476D02*
X162412380Y-126523809D01*
X163412380Y-126952380D01*
X162412380Y-126285714D02*
X162412380Y-125714285D01*
X163412380Y-126000000D02*
X162412380Y-126000000D01*
X162888571Y-125047619D02*
X162888571Y-125380952D01*
X163412380Y-125380952D02*
X162412380Y-125380952D01*
X162412380Y-124904761D01*
D12*
X169437142Y-120824285D02*
X171722857Y-120824285D01*
X160634285Y-121752857D02*
X160634285Y-119467142D01*
X161777142Y-120610000D02*
X159491428Y-120610000D01*
%TO.C,J7*%
D10*
X104675379Y-119658334D02*
X105389665Y-119658334D01*
X105532522Y-119705953D01*
X105627760Y-119801191D01*
X105675379Y-119944048D01*
X105675379Y-120039286D01*
X104675379Y-119277381D02*
X104675379Y-118610715D01*
X105675379Y-119039286D01*
%TO.C,J6*%
X104675379Y-115608334D02*
X105389665Y-115608334D01*
X105532522Y-115655953D01*
X105627760Y-115751191D01*
X105675379Y-115894048D01*
X105675379Y-115989286D01*
X104675379Y-114703572D02*
X104675379Y-114894048D01*
X104722999Y-114989286D01*
X104770618Y-115036905D01*
X104913475Y-115132143D01*
X105103951Y-115179762D01*
X105484903Y-115179762D01*
X105580141Y-115132143D01*
X105627760Y-115084524D01*
X105675379Y-114989286D01*
X105675379Y-114798810D01*
X105627760Y-114703572D01*
X105580141Y-114655953D01*
X105484903Y-114608334D01*
X105246808Y-114608334D01*
X105151570Y-114655953D01*
X105103951Y-114703572D01*
X105056332Y-114798810D01*
X105056332Y-114989286D01*
X105103951Y-115084524D01*
X105151570Y-115132143D01*
X105246808Y-115179762D01*
%TO.C,J5*%
X179666666Y-143202380D02*
X179666666Y-143916666D01*
X179619047Y-144059523D01*
X179523809Y-144154761D01*
X179380952Y-144202380D01*
X179285714Y-144202380D01*
X180619047Y-143202380D02*
X180142857Y-143202380D01*
X180095238Y-143678571D01*
X180142857Y-143630952D01*
X180238095Y-143583333D01*
X180476190Y-143583333D01*
X180571428Y-143630952D01*
X180619047Y-143678571D01*
X180666666Y-143773809D01*
X180666666Y-144011904D01*
X180619047Y-144107142D01*
X180571428Y-144154761D01*
X180476190Y-144202380D01*
X180238095Y-144202380D01*
X180142857Y-144154761D01*
X180095238Y-144107142D01*
%TO.C,J4*%
X179166666Y-54202380D02*
X179166666Y-54916666D01*
X179119047Y-55059523D01*
X179023809Y-55154761D01*
X178880952Y-55202380D01*
X178785714Y-55202380D01*
X180071428Y-54535714D02*
X180071428Y-55202380D01*
X179833333Y-54154761D02*
X179595238Y-54869047D01*
X180214285Y-54869047D01*
%TO.C,J3*%
X102666666Y-143202380D02*
X102666666Y-143916666D01*
X102619047Y-144059523D01*
X102523809Y-144154761D01*
X102380952Y-144202380D01*
X102285714Y-144202380D01*
X103047619Y-143202380D02*
X103666666Y-143202380D01*
X103333333Y-143583333D01*
X103476190Y-143583333D01*
X103571428Y-143630952D01*
X103619047Y-143678571D01*
X103666666Y-143773809D01*
X103666666Y-144011904D01*
X103619047Y-144107142D01*
X103571428Y-144154761D01*
X103476190Y-144202380D01*
X103190476Y-144202380D01*
X103095238Y-144154761D01*
X103047619Y-144107142D01*
%TO.C,J2*%
X102666666Y-54202380D02*
X102666666Y-54916666D01*
X102619047Y-55059523D01*
X102523809Y-55154761D01*
X102380952Y-55202380D01*
X102285714Y-55202380D01*
X103095238Y-54297619D02*
X103142857Y-54250000D01*
X103238095Y-54202380D01*
X103476190Y-54202380D01*
X103571428Y-54250000D01*
X103619047Y-54297619D01*
X103666666Y-54392857D01*
X103666666Y-54488095D01*
X103619047Y-54630952D01*
X103047619Y-55202380D01*
X103666666Y-55202380D01*
%TO.C,D2*%
X159742380Y-91988095D02*
X158742380Y-91988095D01*
X158742380Y-91750000D01*
X158790000Y-91607142D01*
X158885238Y-91511904D01*
X158980476Y-91464285D01*
X159170952Y-91416666D01*
X159313809Y-91416666D01*
X159504285Y-91464285D01*
X159599523Y-91511904D01*
X159694761Y-91607142D01*
X159742380Y-91750000D01*
X159742380Y-91988095D01*
X158837619Y-91035714D02*
X158790000Y-90988095D01*
X158742380Y-90892857D01*
X158742380Y-90654761D01*
X158790000Y-90559523D01*
X158837619Y-90511904D01*
X158932857Y-90464285D01*
X159028095Y-90464285D01*
X159170952Y-90511904D01*
X159742380Y-91083333D01*
X159742380Y-90464285D01*
%TO.C,D1*%
X128492380Y-91738095D02*
X127492380Y-91738095D01*
X127492380Y-91500000D01*
X127540000Y-91357142D01*
X127635238Y-91261904D01*
X127730476Y-91214285D01*
X127920952Y-91166666D01*
X128063809Y-91166666D01*
X128254285Y-91214285D01*
X128349523Y-91261904D01*
X128444761Y-91357142D01*
X128492380Y-91500000D01*
X128492380Y-91738095D01*
X128492380Y-90214285D02*
X128492380Y-90785714D01*
X128492380Y-90500000D02*
X127492380Y-90500000D01*
X127635238Y-90595238D01*
X127730476Y-90690476D01*
X127778095Y-90785714D01*
%TO.C,U3*%
X140488095Y-115202380D02*
X140488095Y-116011904D01*
X140535714Y-116107142D01*
X140583333Y-116154761D01*
X140678571Y-116202380D01*
X140869047Y-116202380D01*
X140964285Y-116154761D01*
X141011904Y-116107142D01*
X141059523Y-116011904D01*
X141059523Y-115202380D01*
X141440476Y-115202380D02*
X142059523Y-115202380D01*
X141726190Y-115583333D01*
X141869047Y-115583333D01*
X141964285Y-115630952D01*
X142011904Y-115678571D01*
X142059523Y-115773809D01*
X142059523Y-116011904D01*
X142011904Y-116107142D01*
X141964285Y-116154761D01*
X141869047Y-116202380D01*
X141583333Y-116202380D01*
X141488095Y-116154761D01*
X141440476Y-116107142D01*
%TO.C,U2*%
X140738095Y-95702380D02*
X140738095Y-96511904D01*
X140785714Y-96607142D01*
X140833333Y-96654761D01*
X140928571Y-96702380D01*
X141119047Y-96702380D01*
X141214285Y-96654761D01*
X141261904Y-96607142D01*
X141309523Y-96511904D01*
X141309523Y-95702380D01*
X141738095Y-95797619D02*
X141785714Y-95750000D01*
X141880952Y-95702380D01*
X142119047Y-95702380D01*
X142214285Y-95750000D01*
X142261904Y-95797619D01*
X142309523Y-95892857D01*
X142309523Y-95988095D01*
X142261904Y-96130952D01*
X141690476Y-96702380D01*
X142309523Y-96702380D01*
%TO.C,U1*%
X140738095Y-131952380D02*
X140738095Y-132761904D01*
X140785714Y-132857142D01*
X140833333Y-132904761D01*
X140928571Y-132952380D01*
X141119047Y-132952380D01*
X141214285Y-132904761D01*
X141261904Y-132857142D01*
X141309523Y-132761904D01*
X141309523Y-131952380D01*
X142309523Y-132952380D02*
X141738095Y-132952380D01*
X142023809Y-132952380D02*
X142023809Y-131952380D01*
X141928571Y-132095238D01*
X141833333Y-132190476D01*
X141738095Y-132238095D01*
%TO.C,SC5*%
X172404761Y-92761904D02*
X172452380Y-92619047D01*
X172452380Y-92380952D01*
X172404761Y-92285714D01*
X172357142Y-92238095D01*
X172261904Y-92190476D01*
X172166666Y-92190476D01*
X172071428Y-92238095D01*
X172023809Y-92285714D01*
X171976190Y-92380952D01*
X171928571Y-92571428D01*
X171880952Y-92666666D01*
X171833333Y-92714285D01*
X171738095Y-92761904D01*
X171642857Y-92761904D01*
X171547619Y-92714285D01*
X171500000Y-92666666D01*
X171452380Y-92571428D01*
X171452380Y-92333333D01*
X171500000Y-92190476D01*
X172357142Y-91190476D02*
X172404761Y-91238095D01*
X172452380Y-91380952D01*
X172452380Y-91476190D01*
X172404761Y-91619047D01*
X172309523Y-91714285D01*
X172214285Y-91761904D01*
X172023809Y-91809523D01*
X171880952Y-91809523D01*
X171690476Y-91761904D01*
X171595238Y-91714285D01*
X171500000Y-91619047D01*
X171452380Y-91476190D01*
X171452380Y-91380952D01*
X171500000Y-91238095D01*
X171547619Y-91190476D01*
X171452380Y-90285714D02*
X171452380Y-90761904D01*
X171928571Y-90809523D01*
X171880952Y-90761904D01*
X171833333Y-90666666D01*
X171833333Y-90428571D01*
X171880952Y-90333333D01*
X171928571Y-90285714D01*
X172023809Y-90238095D01*
X172261904Y-90238095D01*
X172357142Y-90285714D01*
X172404761Y-90333333D01*
X172452380Y-90428571D01*
X172452380Y-90666666D01*
X172404761Y-90761904D01*
X172357142Y-90809523D01*
X169364761Y-96047619D02*
X169412380Y-95904761D01*
X169412380Y-95666666D01*
X169364761Y-95571428D01*
X169317142Y-95523809D01*
X169221904Y-95476190D01*
X169126666Y-95476190D01*
X169031428Y-95523809D01*
X168983809Y-95571428D01*
X168936190Y-95666666D01*
X168888571Y-95857142D01*
X168840952Y-95952380D01*
X168793333Y-96000000D01*
X168698095Y-96047619D01*
X168602857Y-96047619D01*
X168507619Y-96000000D01*
X168460000Y-95952380D01*
X168412380Y-95857142D01*
X168412380Y-95619047D01*
X168460000Y-95476190D01*
X169412380Y-95047619D02*
X168412380Y-95047619D01*
X169126666Y-94714285D01*
X168412380Y-94380952D01*
X169412380Y-94380952D01*
X169412380Y-93380952D02*
X169412380Y-93952380D01*
X169412380Y-93666666D02*
X168412380Y-93666666D01*
X168555238Y-93761904D01*
X168650476Y-93857142D01*
X168698095Y-93952380D01*
X168412380Y-92761904D02*
X168412380Y-92666666D01*
X168460000Y-92571428D01*
X168507619Y-92523809D01*
X168602857Y-92476190D01*
X168793333Y-92428571D01*
X169031428Y-92428571D01*
X169221904Y-92476190D01*
X169317142Y-92523809D01*
X169364761Y-92571428D01*
X169412380Y-92666666D01*
X169412380Y-92761904D01*
X169364761Y-92857142D01*
X169317142Y-92904761D01*
X169221904Y-92952380D01*
X169031428Y-93000000D01*
X168793333Y-93000000D01*
X168602857Y-92952380D01*
X168507619Y-92904761D01*
X168460000Y-92857142D01*
X168412380Y-92761904D01*
X169412380Y-91476190D02*
X169412380Y-92047619D01*
X169412380Y-91761904D02*
X168412380Y-91761904D01*
X168555238Y-91857142D01*
X168650476Y-91952380D01*
X168698095Y-92047619D01*
X169412380Y-91047619D02*
X168412380Y-91047619D01*
X169412380Y-90476190D02*
X168840952Y-90904761D01*
X168412380Y-90476190D02*
X168983809Y-91047619D01*
X168412380Y-89857142D02*
X168412380Y-89761904D01*
X168460000Y-89666666D01*
X168507619Y-89619047D01*
X168602857Y-89571428D01*
X168793333Y-89523809D01*
X169031428Y-89523809D01*
X169221904Y-89571428D01*
X169317142Y-89619047D01*
X169364761Y-89666666D01*
X169412380Y-89761904D01*
X169412380Y-89857142D01*
X169364761Y-89952380D01*
X169317142Y-90000000D01*
X169221904Y-90047619D01*
X169031428Y-90095238D01*
X168793333Y-90095238D01*
X168602857Y-90047619D01*
X168507619Y-90000000D01*
X168460000Y-89952380D01*
X168412380Y-89857142D01*
X168412380Y-89190476D02*
X168412380Y-88523809D01*
X169412380Y-88952380D01*
X168412380Y-88285714D02*
X168412380Y-87714285D01*
X169412380Y-88000000D02*
X168412380Y-88000000D01*
X168888571Y-87047619D02*
X168888571Y-87380952D01*
X169412380Y-87380952D02*
X168412380Y-87380952D01*
X168412380Y-86904761D01*
D12*
X175437142Y-82824285D02*
X177722857Y-82824285D01*
X166634285Y-83752857D02*
X166634285Y-81467142D01*
X167777142Y-82610000D02*
X165491428Y-82610000D01*
%TO.C,SC4*%
D10*
X157988095Y-61904761D02*
X158130952Y-61952380D01*
X158369047Y-61952380D01*
X158464285Y-61904761D01*
X158511904Y-61857142D01*
X158559523Y-61761904D01*
X158559523Y-61666666D01*
X158511904Y-61571428D01*
X158464285Y-61523809D01*
X158369047Y-61476190D01*
X158178571Y-61428571D01*
X158083333Y-61380952D01*
X158035714Y-61333333D01*
X157988095Y-61238095D01*
X157988095Y-61142857D01*
X158035714Y-61047619D01*
X158083333Y-61000000D01*
X158178571Y-60952380D01*
X158416666Y-60952380D01*
X158559523Y-61000000D01*
X159559523Y-61857142D02*
X159511904Y-61904761D01*
X159369047Y-61952380D01*
X159273809Y-61952380D01*
X159130952Y-61904761D01*
X159035714Y-61809523D01*
X158988095Y-61714285D01*
X158940476Y-61523809D01*
X158940476Y-61380952D01*
X158988095Y-61190476D01*
X159035714Y-61095238D01*
X159130952Y-61000000D01*
X159273809Y-60952380D01*
X159369047Y-60952380D01*
X159511904Y-61000000D01*
X159559523Y-61047619D01*
X160416666Y-61285714D02*
X160416666Y-61952380D01*
X160178571Y-60904761D02*
X159940476Y-61619047D01*
X160559523Y-61619047D01*
X154702380Y-58864761D02*
X154845238Y-58912380D01*
X155083333Y-58912380D01*
X155178571Y-58864761D01*
X155226190Y-58817142D01*
X155273809Y-58721904D01*
X155273809Y-58626666D01*
X155226190Y-58531428D01*
X155178571Y-58483809D01*
X155083333Y-58436190D01*
X154892857Y-58388571D01*
X154797619Y-58340952D01*
X154750000Y-58293333D01*
X154702380Y-58198095D01*
X154702380Y-58102857D01*
X154750000Y-58007619D01*
X154797619Y-57960000D01*
X154892857Y-57912380D01*
X155130952Y-57912380D01*
X155273809Y-57960000D01*
X155702380Y-58912380D02*
X155702380Y-57912380D01*
X156035714Y-58626666D01*
X156369047Y-57912380D01*
X156369047Y-58912380D01*
X157369047Y-58912380D02*
X156797619Y-58912380D01*
X157083333Y-58912380D02*
X157083333Y-57912380D01*
X156988095Y-58055238D01*
X156892857Y-58150476D01*
X156797619Y-58198095D01*
X157988095Y-57912380D02*
X158083333Y-57912380D01*
X158178571Y-57960000D01*
X158226190Y-58007619D01*
X158273809Y-58102857D01*
X158321428Y-58293333D01*
X158321428Y-58531428D01*
X158273809Y-58721904D01*
X158226190Y-58817142D01*
X158178571Y-58864761D01*
X158083333Y-58912380D01*
X157988095Y-58912380D01*
X157892857Y-58864761D01*
X157845238Y-58817142D01*
X157797619Y-58721904D01*
X157750000Y-58531428D01*
X157750000Y-58293333D01*
X157797619Y-58102857D01*
X157845238Y-58007619D01*
X157892857Y-57960000D01*
X157988095Y-57912380D01*
X159273809Y-58912380D02*
X158702380Y-58912380D01*
X158988095Y-58912380D02*
X158988095Y-57912380D01*
X158892857Y-58055238D01*
X158797619Y-58150476D01*
X158702380Y-58198095D01*
X159702380Y-58912380D02*
X159702380Y-57912380D01*
X160273809Y-58912380D02*
X159845238Y-58340952D01*
X160273809Y-57912380D02*
X159702380Y-58483809D01*
X160892857Y-57912380D02*
X160988095Y-57912380D01*
X161083333Y-57960000D01*
X161130952Y-58007619D01*
X161178571Y-58102857D01*
X161226190Y-58293333D01*
X161226190Y-58531428D01*
X161178571Y-58721904D01*
X161130952Y-58817142D01*
X161083333Y-58864761D01*
X160988095Y-58912380D01*
X160892857Y-58912380D01*
X160797619Y-58864761D01*
X160750000Y-58817142D01*
X160702380Y-58721904D01*
X160654761Y-58531428D01*
X160654761Y-58293333D01*
X160702380Y-58102857D01*
X160750000Y-58007619D01*
X160797619Y-57960000D01*
X160892857Y-57912380D01*
X161559523Y-57912380D02*
X162226190Y-57912380D01*
X161797619Y-58912380D01*
X162464285Y-57912380D02*
X163035714Y-57912380D01*
X162750000Y-58912380D02*
X162750000Y-57912380D01*
X163702380Y-58388571D02*
X163369047Y-58388571D01*
X163369047Y-58912380D02*
X163369047Y-57912380D01*
X163845238Y-57912380D01*
D12*
X168354285Y-67222857D02*
X168354285Y-64937142D01*
X166997142Y-56134285D02*
X169282857Y-56134285D01*
X168140000Y-57277142D02*
X168140000Y-54991428D01*
%TO.C,SC3*%
D10*
X118404761Y-130761904D02*
X118452380Y-130619047D01*
X118452380Y-130380952D01*
X118404761Y-130285714D01*
X118357142Y-130238095D01*
X118261904Y-130190476D01*
X118166666Y-130190476D01*
X118071428Y-130238095D01*
X118023809Y-130285714D01*
X117976190Y-130380952D01*
X117928571Y-130571428D01*
X117880952Y-130666666D01*
X117833333Y-130714285D01*
X117738095Y-130761904D01*
X117642857Y-130761904D01*
X117547619Y-130714285D01*
X117500000Y-130666666D01*
X117452380Y-130571428D01*
X117452380Y-130333333D01*
X117500000Y-130190476D01*
X118357142Y-129190476D02*
X118404761Y-129238095D01*
X118452380Y-129380952D01*
X118452380Y-129476190D01*
X118404761Y-129619047D01*
X118309523Y-129714285D01*
X118214285Y-129761904D01*
X118023809Y-129809523D01*
X117880952Y-129809523D01*
X117690476Y-129761904D01*
X117595238Y-129714285D01*
X117500000Y-129619047D01*
X117452380Y-129476190D01*
X117452380Y-129380952D01*
X117500000Y-129238095D01*
X117547619Y-129190476D01*
X117452380Y-128857142D02*
X117452380Y-128238095D01*
X117833333Y-128571428D01*
X117833333Y-128428571D01*
X117880952Y-128333333D01*
X117928571Y-128285714D01*
X118023809Y-128238095D01*
X118261904Y-128238095D01*
X118357142Y-128285714D01*
X118404761Y-128333333D01*
X118452380Y-128428571D01*
X118452380Y-128714285D01*
X118404761Y-128809523D01*
X118357142Y-128857142D01*
X115364761Y-134047619D02*
X115412380Y-133904761D01*
X115412380Y-133666666D01*
X115364761Y-133571428D01*
X115317142Y-133523809D01*
X115221904Y-133476190D01*
X115126666Y-133476190D01*
X115031428Y-133523809D01*
X114983809Y-133571428D01*
X114936190Y-133666666D01*
X114888571Y-133857142D01*
X114840952Y-133952380D01*
X114793333Y-134000000D01*
X114698095Y-134047619D01*
X114602857Y-134047619D01*
X114507619Y-134000000D01*
X114460000Y-133952380D01*
X114412380Y-133857142D01*
X114412380Y-133619047D01*
X114460000Y-133476190D01*
X115412380Y-133047619D02*
X114412380Y-133047619D01*
X115126666Y-132714285D01*
X114412380Y-132380952D01*
X115412380Y-132380952D01*
X115412380Y-131380952D02*
X115412380Y-131952380D01*
X115412380Y-131666666D02*
X114412380Y-131666666D01*
X114555238Y-131761904D01*
X114650476Y-131857142D01*
X114698095Y-131952380D01*
X114412380Y-130761904D02*
X114412380Y-130666666D01*
X114460000Y-130571428D01*
X114507619Y-130523809D01*
X114602857Y-130476190D01*
X114793333Y-130428571D01*
X115031428Y-130428571D01*
X115221904Y-130476190D01*
X115317142Y-130523809D01*
X115364761Y-130571428D01*
X115412380Y-130666666D01*
X115412380Y-130761904D01*
X115364761Y-130857142D01*
X115317142Y-130904761D01*
X115221904Y-130952380D01*
X115031428Y-131000000D01*
X114793333Y-131000000D01*
X114602857Y-130952380D01*
X114507619Y-130904761D01*
X114460000Y-130857142D01*
X114412380Y-130761904D01*
X115412380Y-129476190D02*
X115412380Y-130047619D01*
X115412380Y-129761904D02*
X114412380Y-129761904D01*
X114555238Y-129857142D01*
X114650476Y-129952380D01*
X114698095Y-130047619D01*
X115412380Y-129047619D02*
X114412380Y-129047619D01*
X115412380Y-128476190D02*
X114840952Y-128904761D01*
X114412380Y-128476190D02*
X114983809Y-129047619D01*
X114412380Y-127857142D02*
X114412380Y-127761904D01*
X114460000Y-127666666D01*
X114507619Y-127619047D01*
X114602857Y-127571428D01*
X114793333Y-127523809D01*
X115031428Y-127523809D01*
X115221904Y-127571428D01*
X115317142Y-127619047D01*
X115364761Y-127666666D01*
X115412380Y-127761904D01*
X115412380Y-127857142D01*
X115364761Y-127952380D01*
X115317142Y-128000000D01*
X115221904Y-128047619D01*
X115031428Y-128095238D01*
X114793333Y-128095238D01*
X114602857Y-128047619D01*
X114507619Y-128000000D01*
X114460000Y-127952380D01*
X114412380Y-127857142D01*
X114412380Y-127190476D02*
X114412380Y-126523809D01*
X115412380Y-126952380D01*
X114412380Y-126285714D02*
X114412380Y-125714285D01*
X115412380Y-126000000D02*
X114412380Y-126000000D01*
X114888571Y-125047619D02*
X114888571Y-125380952D01*
X115412380Y-125380952D02*
X114412380Y-125380952D01*
X114412380Y-124904761D01*
D12*
X121437142Y-120824285D02*
X123722857Y-120824285D01*
X112634285Y-121752857D02*
X112634285Y-119467142D01*
X113777142Y-120610000D02*
X111491428Y-120610000D01*
%TO.C,SC2*%
D10*
X112404761Y-92511904D02*
X112452380Y-92369047D01*
X112452380Y-92130952D01*
X112404761Y-92035714D01*
X112357142Y-91988095D01*
X112261904Y-91940476D01*
X112166666Y-91940476D01*
X112071428Y-91988095D01*
X112023809Y-92035714D01*
X111976190Y-92130952D01*
X111928571Y-92321428D01*
X111880952Y-92416666D01*
X111833333Y-92464285D01*
X111738095Y-92511904D01*
X111642857Y-92511904D01*
X111547619Y-92464285D01*
X111500000Y-92416666D01*
X111452380Y-92321428D01*
X111452380Y-92083333D01*
X111500000Y-91940476D01*
X112357142Y-90940476D02*
X112404761Y-90988095D01*
X112452380Y-91130952D01*
X112452380Y-91226190D01*
X112404761Y-91369047D01*
X112309523Y-91464285D01*
X112214285Y-91511904D01*
X112023809Y-91559523D01*
X111880952Y-91559523D01*
X111690476Y-91511904D01*
X111595238Y-91464285D01*
X111500000Y-91369047D01*
X111452380Y-91226190D01*
X111452380Y-91130952D01*
X111500000Y-90988095D01*
X111547619Y-90940476D01*
X111547619Y-90559523D02*
X111500000Y-90511904D01*
X111452380Y-90416666D01*
X111452380Y-90178571D01*
X111500000Y-90083333D01*
X111547619Y-90035714D01*
X111642857Y-89988095D01*
X111738095Y-89988095D01*
X111880952Y-90035714D01*
X112452380Y-90607142D01*
X112452380Y-89988095D01*
X109364761Y-95797619D02*
X109412380Y-95654761D01*
X109412380Y-95416666D01*
X109364761Y-95321428D01*
X109317142Y-95273809D01*
X109221904Y-95226190D01*
X109126666Y-95226190D01*
X109031428Y-95273809D01*
X108983809Y-95321428D01*
X108936190Y-95416666D01*
X108888571Y-95607142D01*
X108840952Y-95702380D01*
X108793333Y-95750000D01*
X108698095Y-95797619D01*
X108602857Y-95797619D01*
X108507619Y-95750000D01*
X108460000Y-95702380D01*
X108412380Y-95607142D01*
X108412380Y-95369047D01*
X108460000Y-95226190D01*
X109412380Y-94797619D02*
X108412380Y-94797619D01*
X109126666Y-94464285D01*
X108412380Y-94130952D01*
X109412380Y-94130952D01*
X109412380Y-93130952D02*
X109412380Y-93702380D01*
X109412380Y-93416666D02*
X108412380Y-93416666D01*
X108555238Y-93511904D01*
X108650476Y-93607142D01*
X108698095Y-93702380D01*
X108412380Y-92511904D02*
X108412380Y-92416666D01*
X108460000Y-92321428D01*
X108507619Y-92273809D01*
X108602857Y-92226190D01*
X108793333Y-92178571D01*
X109031428Y-92178571D01*
X109221904Y-92226190D01*
X109317142Y-92273809D01*
X109364761Y-92321428D01*
X109412380Y-92416666D01*
X109412380Y-92511904D01*
X109364761Y-92607142D01*
X109317142Y-92654761D01*
X109221904Y-92702380D01*
X109031428Y-92750000D01*
X108793333Y-92750000D01*
X108602857Y-92702380D01*
X108507619Y-92654761D01*
X108460000Y-92607142D01*
X108412380Y-92511904D01*
X109412380Y-91226190D02*
X109412380Y-91797619D01*
X109412380Y-91511904D02*
X108412380Y-91511904D01*
X108555238Y-91607142D01*
X108650476Y-91702380D01*
X108698095Y-91797619D01*
X109412380Y-90797619D02*
X108412380Y-90797619D01*
X109412380Y-90226190D02*
X108840952Y-90654761D01*
X108412380Y-90226190D02*
X108983809Y-90797619D01*
X108412380Y-89607142D02*
X108412380Y-89511904D01*
X108460000Y-89416666D01*
X108507619Y-89369047D01*
X108602857Y-89321428D01*
X108793333Y-89273809D01*
X109031428Y-89273809D01*
X109221904Y-89321428D01*
X109317142Y-89369047D01*
X109364761Y-89416666D01*
X109412380Y-89511904D01*
X109412380Y-89607142D01*
X109364761Y-89702380D01*
X109317142Y-89750000D01*
X109221904Y-89797619D01*
X109031428Y-89845238D01*
X108793333Y-89845238D01*
X108602857Y-89797619D01*
X108507619Y-89750000D01*
X108460000Y-89702380D01*
X108412380Y-89607142D01*
X108412380Y-88940476D02*
X108412380Y-88273809D01*
X109412380Y-88702380D01*
X108412380Y-88035714D02*
X108412380Y-87464285D01*
X109412380Y-87750000D02*
X108412380Y-87750000D01*
X108888571Y-86797619D02*
X108888571Y-87130952D01*
X109412380Y-87130952D02*
X108412380Y-87130952D01*
X108412380Y-86654761D01*
D12*
X115437142Y-82574285D02*
X117722857Y-82574285D01*
X106634285Y-83502857D02*
X106634285Y-81217142D01*
X107777142Y-82360000D02*
X105491428Y-82360000D01*
%TO.C,SC1*%
D10*
X122488095Y-60904761D02*
X122630952Y-60952380D01*
X122869047Y-60952380D01*
X122964285Y-60904761D01*
X123011904Y-60857142D01*
X123059523Y-60761904D01*
X123059523Y-60666666D01*
X123011904Y-60571428D01*
X122964285Y-60523809D01*
X122869047Y-60476190D01*
X122678571Y-60428571D01*
X122583333Y-60380952D01*
X122535714Y-60333333D01*
X122488095Y-60238095D01*
X122488095Y-60142857D01*
X122535714Y-60047619D01*
X122583333Y-60000000D01*
X122678571Y-59952380D01*
X122916666Y-59952380D01*
X123059523Y-60000000D01*
X124059523Y-60857142D02*
X124011904Y-60904761D01*
X123869047Y-60952380D01*
X123773809Y-60952380D01*
X123630952Y-60904761D01*
X123535714Y-60809523D01*
X123488095Y-60714285D01*
X123440476Y-60523809D01*
X123440476Y-60380952D01*
X123488095Y-60190476D01*
X123535714Y-60095238D01*
X123630952Y-60000000D01*
X123773809Y-59952380D01*
X123869047Y-59952380D01*
X124011904Y-60000000D01*
X124059523Y-60047619D01*
X125011904Y-60952380D02*
X124440476Y-60952380D01*
X124726190Y-60952380D02*
X124726190Y-59952380D01*
X124630952Y-60095238D01*
X124535714Y-60190476D01*
X124440476Y-60238095D01*
X119202380Y-63944761D02*
X119345238Y-63992380D01*
X119583333Y-63992380D01*
X119678571Y-63944761D01*
X119726190Y-63897142D01*
X119773809Y-63801904D01*
X119773809Y-63706666D01*
X119726190Y-63611428D01*
X119678571Y-63563809D01*
X119583333Y-63516190D01*
X119392857Y-63468571D01*
X119297619Y-63420952D01*
X119250000Y-63373333D01*
X119202380Y-63278095D01*
X119202380Y-63182857D01*
X119250000Y-63087619D01*
X119297619Y-63040000D01*
X119392857Y-62992380D01*
X119630952Y-62992380D01*
X119773809Y-63040000D01*
X120202380Y-63992380D02*
X120202380Y-62992380D01*
X120535714Y-63706666D01*
X120869047Y-62992380D01*
X120869047Y-63992380D01*
X121869047Y-63992380D02*
X121297619Y-63992380D01*
X121583333Y-63992380D02*
X121583333Y-62992380D01*
X121488095Y-63135238D01*
X121392857Y-63230476D01*
X121297619Y-63278095D01*
X122488095Y-62992380D02*
X122583333Y-62992380D01*
X122678571Y-63040000D01*
X122726190Y-63087619D01*
X122773809Y-63182857D01*
X122821428Y-63373333D01*
X122821428Y-63611428D01*
X122773809Y-63801904D01*
X122726190Y-63897142D01*
X122678571Y-63944761D01*
X122583333Y-63992380D01*
X122488095Y-63992380D01*
X122392857Y-63944761D01*
X122345238Y-63897142D01*
X122297619Y-63801904D01*
X122250000Y-63611428D01*
X122250000Y-63373333D01*
X122297619Y-63182857D01*
X122345238Y-63087619D01*
X122392857Y-63040000D01*
X122488095Y-62992380D01*
X123773809Y-63992380D02*
X123202380Y-63992380D01*
X123488095Y-63992380D02*
X123488095Y-62992380D01*
X123392857Y-63135238D01*
X123297619Y-63230476D01*
X123202380Y-63278095D01*
X124202380Y-63992380D02*
X124202380Y-62992380D01*
X124773809Y-63992380D02*
X124345238Y-63420952D01*
X124773809Y-62992380D02*
X124202380Y-63563809D01*
X125392857Y-62992380D02*
X125488095Y-62992380D01*
X125583333Y-63040000D01*
X125630952Y-63087619D01*
X125678571Y-63182857D01*
X125726190Y-63373333D01*
X125726190Y-63611428D01*
X125678571Y-63801904D01*
X125630952Y-63897142D01*
X125583333Y-63944761D01*
X125488095Y-63992380D01*
X125392857Y-63992380D01*
X125297619Y-63944761D01*
X125250000Y-63897142D01*
X125202380Y-63801904D01*
X125154761Y-63611428D01*
X125154761Y-63373333D01*
X125202380Y-63182857D01*
X125250000Y-63087619D01*
X125297619Y-63040000D01*
X125392857Y-62992380D01*
X126059523Y-62992380D02*
X126726190Y-62992380D01*
X126297619Y-63992380D01*
X126964285Y-62992380D02*
X127535714Y-62992380D01*
X127250000Y-63992380D02*
X127250000Y-62992380D01*
X128202380Y-63468571D02*
X127869047Y-63468571D01*
X127869047Y-63992380D02*
X127869047Y-62992380D01*
X128345238Y-62992380D01*
D12*
X115074285Y-57062857D02*
X115074285Y-54777142D01*
X113717142Y-66294285D02*
X116002857Y-66294285D01*
X114860000Y-67437142D02*
X114860000Y-65151428D01*
%TD*%
M02*
