%TF.GenerationSoftware,KiCad,Pcbnew,(5.1.10)-1*%
%TF.CreationDate,2022-06-07T21:34:51-07:00*%
%TF.ProjectId,solar-panel-WithCutout,736f6c61-722d-4706-916e-656c2d576974,1.1*%
%TF.SameCoordinates,Original*%
%TF.FileFunction,Copper,L1,Top*%
%TF.FilePolarity,Positive*%
%FSLAX46Y46*%
G04 Gerber Fmt 4.6, Leading zero omitted, Abs format (unit mm)*
G04 Created by KiCad (PCBNEW (5.1.10)-1) date 2022-06-07 21:34:51*
%MOMM*%
%LPD*%
G01*
G04 APERTURE LIST*
%TA.AperFunction,ComponentPad*%
%ADD10C,3.000000*%
%TD*%
%TA.AperFunction,SMDPad,CuDef*%
%ADD11R,2.000000X2.000000*%
%TD*%
%TA.AperFunction,ComponentPad*%
%ADD12C,5.250000*%
%TD*%
%TA.AperFunction,SMDPad,CuDef*%
%ADD13R,1.700000X2.500000*%
%TD*%
%TA.AperFunction,SMDPad,CuDef*%
%ADD14C,4.000000*%
%TD*%
%TA.AperFunction,SMDPad,CuDef*%
%ADD15C,2.000000*%
%TD*%
%TA.AperFunction,ViaPad*%
%ADD16C,0.800000*%
%TD*%
%TA.AperFunction,Conductor*%
%ADD17C,0.250000*%
%TD*%
%TA.AperFunction,Conductor*%
%ADD18C,0.500000*%
%TD*%
G04 APERTURE END LIST*
D10*
%TO.P,SC6,2*%
%TO.N,GND*%
X170000000Y-116500000D03*
%TO.P,SC6,1*%
%TO.N,Net-(SC5-Pad2)*%
X161000000Y-116500000D03*
%TD*%
D11*
%TO.P,J7,1*%
%TO.N,GND*%
X103224999Y-119325001D03*
%TD*%
%TO.P,J6,1*%
%TO.N,VSOLAR*%
X103224999Y-115275001D03*
%TD*%
D12*
%TO.P,J5,1*%
%TO.N,Net-(J5-Pad1)*%
X179500000Y-143230000D03*
%TD*%
%TO.P,J4,1*%
%TO.N,Net-(J4-Pad1)*%
X179500000Y-54230000D03*
%TD*%
%TO.P,J3,1*%
%TO.N,Net-(J3-Pad1)*%
X103500000Y-143230000D03*
%TD*%
%TO.P,J2,1*%
%TO.N,Net-(J2-Pad1)*%
X103500000Y-54230000D03*
%TD*%
D13*
%TO.P,D2,2*%
%TO.N,Net-(D2-Pad2)*%
X156750000Y-89250000D03*
%TO.P,D2,1*%
%TO.N,VSOLAR*%
X156750000Y-93250000D03*
%TD*%
%TO.P,D1,2*%
%TO.N,Net-(D1-Pad2)*%
X125500000Y-89000000D03*
%TO.P,D1,1*%
%TO.N,VSOLAR*%
X125500000Y-93000000D03*
%TD*%
D14*
%TO.P,U3,9*%
%TO.N,Net-(U3-Pad9)*%
X148870000Y-120060000D03*
%TO.P,U3,10*%
%TO.N,Net-(U3-Pad10)*%
X133630000Y-120060000D03*
D15*
%TO.P,U3,3*%
%TO.N,SCL*%
X145060000Y-112186000D03*
%TO.P,U3,4*%
%TO.N,SDA*%
X142520000Y-112186000D03*
%TO.P,U3,1*%
%TO.N,+3V3*%
X150140000Y-112186000D03*
%TO.P,U3,2*%
%TO.N,GND*%
X147600000Y-112186000D03*
%TO.P,U3,8*%
%TO.N,Net-(U3-Pad8)*%
X132360000Y-112186000D03*
%TO.P,U3,7*%
%TO.N,Net-(U3-Pad7)*%
X134900000Y-112186000D03*
%TO.P,U3,6*%
%TO.N,Net-(U3-Pad6)*%
X137440000Y-112186000D03*
%TO.P,U3,5*%
%TO.N,Net-(U3-Pad5)*%
X139980000Y-112186000D03*
%TD*%
%TO.P,U2,11*%
%TO.N,Net-(U2-Pad11)*%
X137690000Y-105640000D03*
%TO.P,U2,12*%
%TO.N,Net-(U2-Pad12)*%
X135150000Y-105640000D03*
D14*
%TO.P,U2,16*%
%TO.N,Net-(U2-Pad16)*%
X131340000Y-105640000D03*
D15*
%TO.P,U2,7*%
%TO.N,Net-(U2-Pad7)*%
X147850000Y-105640000D03*
D14*
%TO.P,U2,15*%
%TO.N,Net-(U2-Pad15)*%
X151660000Y-105640000D03*
D15*
%TO.P,U2,8*%
%TO.N,Net-(U2-Pad8)*%
X145310000Y-105640000D03*
%TO.P,U2,9*%
%TO.N,Net-(U2-Pad9)*%
X142770000Y-105640000D03*
%TO.P,U2,10*%
%TO.N,Net-(U2-Pad10)*%
X140230000Y-105640000D03*
D14*
%TO.P,U2,13*%
%TO.N,Net-(U2-Pad13)*%
X151660000Y-87860000D03*
D15*
%TO.P,U2,2*%
%TO.N,Net-(U2-Pad2)*%
X145310000Y-87860000D03*
%TO.P,U2,3*%
%TO.N,GND*%
X142770000Y-87860000D03*
%TO.P,U2,1*%
%TO.N,+3V3*%
X147850000Y-87860000D03*
%TO.P,U2,6*%
%TO.N,Net-(U2-Pad6)*%
X135150000Y-87860000D03*
%TO.P,U2,5*%
%TO.N,SDA*%
X137690000Y-87860000D03*
%TO.P,U2,4*%
%TO.N,SCL*%
X140230000Y-87860000D03*
D14*
%TO.P,U2,14*%
%TO.N,Net-(U2-Pad14)*%
X131340000Y-87860000D03*
%TD*%
%TO.P,U1,7*%
%TO.N,Net-(U1-Pad7)*%
X151660000Y-139350000D03*
%TO.P,U1,8*%
%TO.N,Net-(U1-Pad8)*%
X131340000Y-139350000D03*
%TO.P,U1,9*%
%TO.N,Net-(U1-Pad9)*%
X151660000Y-126650000D03*
D15*
%TO.P,U1,2*%
%TO.N,Net-(U1-Pad2)*%
X145310000Y-126650000D03*
%TO.P,U1,3*%
%TO.N,GND*%
X142770000Y-126650000D03*
%TO.P,U1,1*%
%TO.N,+3V3*%
X147850000Y-126650000D03*
%TO.P,U1,6*%
%TO.N,Net-(U1-Pad6)*%
X135150000Y-126650000D03*
%TO.P,U1,5*%
%TO.N,SDA*%
X137690000Y-126650000D03*
%TO.P,U1,4*%
%TO.N,SCL*%
X140230000Y-126650000D03*
D14*
%TO.P,U1,10*%
%TO.N,Net-(U1-Pad10)*%
X131340000Y-126650000D03*
%TD*%
D10*
%TO.P,SC5,2*%
%TO.N,Net-(SC5-Pad2)*%
X176000000Y-78500000D03*
%TO.P,SC5,1*%
%TO.N,Net-(SC4-Pad2)*%
X167000000Y-78500000D03*
%TD*%
%TO.P,SC4,2*%
%TO.N,Net-(SC4-Pad2)*%
X172250000Y-65500000D03*
%TO.P,SC4,1*%
%TO.N,Net-(D2-Pad2)*%
X172250000Y-56500000D03*
%TD*%
%TO.P,SC3,2*%
%TO.N,GND*%
X122000000Y-116500000D03*
%TO.P,SC3,1*%
%TO.N,Net-(SC2-Pad2)*%
X113000000Y-116500000D03*
%TD*%
%TO.P,SC2,2*%
%TO.N,Net-(SC2-Pad2)*%
X116000000Y-78250000D03*
%TO.P,SC2,1*%
%TO.N,Net-(SC1-Pad2)*%
X107000000Y-78250000D03*
%TD*%
%TO.P,SC1,2*%
%TO.N,Net-(SC1-Pad2)*%
X110750000Y-56500000D03*
%TO.P,SC1,1*%
%TO.N,Net-(D1-Pad2)*%
X110750000Y-65500000D03*
%TD*%
D16*
%TO.N,GND*%
X142250000Y-91500000D03*
X146750000Y-114250000D03*
X143750000Y-124000000D03*
X106924999Y-119325001D03*
%TO.N,+3V3*%
X144500000Y-97750000D03*
X120000000Y-106250000D03*
%TO.N,VSOLAR*%
X105250000Y-113250000D03*
X125500000Y-101500000D03*
%TO.N,SDA*%
X136893500Y-94219500D03*
X116891000Y-107750000D03*
%TO.N,SCL*%
X139751000Y-95680000D03*
X118351500Y-106983000D03*
%TD*%
D17*
%TO.N,GND*%
X142770000Y-88860000D02*
X142770000Y-90980000D01*
X142770000Y-90980000D02*
X142250000Y-91500000D01*
X142250000Y-91500000D02*
X142250000Y-91500000D01*
X147850000Y-112436000D02*
X146750000Y-113536000D01*
X146750000Y-113536000D02*
X146750000Y-114250000D01*
X146750000Y-114250000D02*
X146750000Y-114250000D01*
X142770000Y-126400000D02*
X142770000Y-124980000D01*
X142770000Y-124980000D02*
X143750000Y-124000000D01*
X143750000Y-124000000D02*
X143750000Y-124000000D01*
D18*
X103224999Y-119325001D02*
X106924999Y-119325001D01*
X106924999Y-119325001D02*
X106924999Y-119325001D01*
D17*
%TO.N,+3V3*%
X150390000Y-112436000D02*
X146076000Y-116750000D01*
X147850000Y-126400000D02*
X146000000Y-124550000D01*
X146000000Y-116826000D02*
X146076000Y-116750000D01*
X146000000Y-124550000D02*
X146000000Y-116826000D01*
X147850000Y-94400000D02*
X144500000Y-97750000D01*
X147850000Y-88860000D02*
X147850000Y-94400000D01*
X150390000Y-112436000D02*
X147803980Y-109849980D01*
X147803980Y-109849980D02*
X127849980Y-109849980D01*
X124250000Y-106250000D02*
X120000000Y-106250000D01*
X127849980Y-109849980D02*
X124250000Y-106250000D01*
D18*
%TO.N,VSOLAR*%
X103224999Y-115275001D02*
X105250000Y-113250000D01*
X151399999Y-98600001D02*
X156750000Y-93250000D01*
X128399999Y-98600001D02*
X151399999Y-98600001D01*
X125500000Y-101500000D02*
X125500000Y-101500000D01*
X125500000Y-93000000D02*
X125500000Y-101500000D01*
X125500000Y-101500000D02*
X128399999Y-98600001D01*
%TO.N,Net-(SC1-Pad2)*%
X107000000Y-60250000D02*
X110750000Y-56500000D01*
X107000000Y-78250000D02*
X107000000Y-60250000D01*
%TO.N,Net-(D1-Pad2)*%
X125500000Y-85000000D02*
X125500000Y-89000000D01*
X125500000Y-80250000D02*
X125500000Y-85000000D01*
X110750000Y-65500000D02*
X125500000Y-80250000D01*
%TO.N,Net-(D2-Pad2)*%
X172250000Y-56500000D02*
X158000000Y-70750000D01*
X158000000Y-88000000D02*
X156750000Y-89250000D01*
X158000000Y-70750000D02*
X158000000Y-88000000D01*
D17*
%TO.N,SDA*%
X142770000Y-121320000D02*
X137690000Y-126400000D01*
X142770000Y-112436000D02*
X142770000Y-121320000D01*
X142770000Y-112436000D02*
X141084000Y-110750000D01*
X141084000Y-110750000D02*
X126749998Y-110750000D01*
X126749998Y-110750000D02*
X126749998Y-110749998D01*
X123750000Y-107750000D02*
X123250000Y-107750000D01*
X126749998Y-110749998D02*
X123750000Y-107750000D01*
X137690000Y-93423000D02*
X136893500Y-94219500D01*
X137690000Y-87860000D02*
X137690000Y-93423000D01*
X123250000Y-107750000D02*
X117075010Y-107750000D01*
%TO.N,SCL*%
X121500001Y-106999999D02*
X121500000Y-107000000D01*
X124072999Y-106999999D02*
X121500001Y-106999999D01*
X127372990Y-110299990D02*
X124072999Y-106999999D01*
X143173990Y-110299990D02*
X127372990Y-110299990D01*
X145310000Y-112436000D02*
X143173990Y-110299990D01*
X145310000Y-121320000D02*
X145310000Y-112436000D01*
X140230000Y-126400000D02*
X145310000Y-121320000D01*
X140230000Y-95201000D02*
X139751000Y-95680000D01*
X140230000Y-87860000D02*
X140230000Y-95201000D01*
X118368499Y-106999999D02*
X118351500Y-106983000D01*
X121500001Y-106999999D02*
X118368499Y-106999999D01*
D18*
%TO.N,Net-(SC5-Pad2)*%
X161000000Y-93500000D02*
X176000000Y-78500000D01*
X161000000Y-116500000D02*
X161000000Y-93500000D01*
%TO.N,Net-(SC2-Pad2)*%
X113000000Y-81250000D02*
X116000000Y-78250000D01*
X113000000Y-116500000D02*
X113000000Y-81250000D01*
%TO.N,Net-(SC4-Pad2)*%
X167000000Y-70750000D02*
X172250000Y-65500000D01*
X167000000Y-78500000D02*
X167000000Y-70750000D01*
%TD*%
M02*
