%TF.GenerationSoftware,KiCad,Pcbnew,(5.1.10)-1*%
%TF.CreationDate,2022-06-07T21:34:51-07:00*%
%TF.ProjectId,solar-panel-WithCutout,736f6c61-722d-4706-916e-656c2d576974,1.1*%
%TF.SameCoordinates,Original*%
%TF.FileFunction,Soldermask,Top*%
%TF.FilePolarity,Negative*%
%FSLAX46Y46*%
G04 Gerber Fmt 4.6, Leading zero omitted, Abs format (unit mm)*
G04 Created by KiCad (PCBNEW (5.1.10)-1) date 2022-06-07 21:34:51*
%MOMM*%
%LPD*%
G01*
G04 APERTURE LIST*
%ADD10C,3.000000*%
%ADD11R,2.000000X2.000000*%
%ADD12C,5.250000*%
%ADD13R,1.700000X2.500000*%
%ADD14C,4.000000*%
%ADD15C,2.000000*%
G04 APERTURE END LIST*
D10*
%TO.C,SC6*%
X170000000Y-116500000D03*
X161000000Y-116500000D03*
%TD*%
D11*
%TO.C,J7*%
X103224999Y-119325001D03*
%TD*%
%TO.C,J6*%
X103224999Y-115275001D03*
%TD*%
D12*
%TO.C,J5*%
X179500000Y-143230000D03*
%TD*%
%TO.C,J4*%
X179500000Y-54230000D03*
%TD*%
%TO.C,J3*%
X103500000Y-143230000D03*
%TD*%
%TO.C,J2*%
X103500000Y-54230000D03*
%TD*%
D13*
%TO.C,D2*%
X156750000Y-89250000D03*
X156750000Y-93250000D03*
%TD*%
%TO.C,D1*%
X125500000Y-89000000D03*
X125500000Y-93000000D03*
%TD*%
D14*
%TO.C,U3*%
X148870000Y-120060000D03*
X133630000Y-120060000D03*
D15*
X145060000Y-112186000D03*
X142520000Y-112186000D03*
X150140000Y-112186000D03*
X147600000Y-112186000D03*
X132360000Y-112186000D03*
X134900000Y-112186000D03*
X137440000Y-112186000D03*
X139980000Y-112186000D03*
%TD*%
%TO.C,U2*%
X137690000Y-105640000D03*
X135150000Y-105640000D03*
D14*
X131340000Y-105640000D03*
D15*
X147850000Y-105640000D03*
D14*
X151660000Y-105640000D03*
D15*
X145310000Y-105640000D03*
X142770000Y-105640000D03*
X140230000Y-105640000D03*
D14*
X151660000Y-87860000D03*
D15*
X145310000Y-87860000D03*
X142770000Y-87860000D03*
X147850000Y-87860000D03*
X135150000Y-87860000D03*
X137690000Y-87860000D03*
X140230000Y-87860000D03*
D14*
X131340000Y-87860000D03*
%TD*%
%TO.C,U1*%
X151660000Y-139350000D03*
X131340000Y-139350000D03*
X151660000Y-126650000D03*
D15*
X145310000Y-126650000D03*
X142770000Y-126650000D03*
X147850000Y-126650000D03*
X135150000Y-126650000D03*
X137690000Y-126650000D03*
X140230000Y-126650000D03*
D14*
X131340000Y-126650000D03*
%TD*%
D10*
%TO.C,SC5*%
X176000000Y-78500000D03*
X167000000Y-78500000D03*
%TD*%
%TO.C,SC4*%
X172250000Y-65500000D03*
X172250000Y-56500000D03*
%TD*%
%TO.C,SC3*%
X122000000Y-116500000D03*
X113000000Y-116500000D03*
%TD*%
%TO.C,SC2*%
X116000000Y-78250000D03*
X107000000Y-78250000D03*
%TD*%
%TO.C,SC1*%
X110750000Y-56500000D03*
X110750000Y-65500000D03*
%TD*%
M02*
